%TF.GenerationSoftware,KiCad,Pcbnew,(5.1.10)-1*%
%TF.CreationDate,2021-12-01T19:41:51+01:00*%
%TF.ProjectId,xESC2,78455343-322e-46b6-9963-61645f706362,rev?*%
%TF.SameCoordinates,Original*%
%TF.FileFunction,Legend,Bot*%
%TF.FilePolarity,Positive*%
%FSLAX46Y46*%
G04 Gerber Fmt 4.6, Leading zero omitted, Abs format (unit mm)*
G04 Created by KiCad (PCBNEW (5.1.10)-1) date 2021-12-01 19:41:51*
%MOMM*%
%LPD*%
G01*
G04 APERTURE LIST*
%ADD10C,0.150000*%
%ADD11C,0.120000*%
%ADD12C,0.010000*%
G04 APERTURE END LIST*
D10*
X205161904Y-120100000D02*
X205257142Y-120052380D01*
X205400000Y-120052380D01*
X205542857Y-120100000D01*
X205638095Y-120195238D01*
X205685714Y-120290476D01*
X205733333Y-120480952D01*
X205733333Y-120623809D01*
X205685714Y-120814285D01*
X205638095Y-120909523D01*
X205542857Y-121004761D01*
X205400000Y-121052380D01*
X205304761Y-121052380D01*
X205161904Y-121004761D01*
X205114285Y-120957142D01*
X205114285Y-120623809D01*
X205304761Y-120623809D01*
X204685714Y-121052380D02*
X204685714Y-120052380D01*
X204114285Y-121052380D01*
X204114285Y-120052380D01*
X203638095Y-121052380D02*
X203638095Y-120052380D01*
X203400000Y-120052380D01*
X203257142Y-120100000D01*
X203161904Y-120195238D01*
X203114285Y-120290476D01*
X203066666Y-120480952D01*
X203066666Y-120623809D01*
X203114285Y-120814285D01*
X203161904Y-120909523D01*
X203257142Y-121004761D01*
X203400000Y-121052380D01*
X203638095Y-121052380D01*
X205966666Y-115857142D02*
X206014285Y-115904761D01*
X206157142Y-115952380D01*
X206252380Y-115952380D01*
X206395238Y-115904761D01*
X206490476Y-115809523D01*
X206538095Y-115714285D01*
X206585714Y-115523809D01*
X206585714Y-115380952D01*
X206538095Y-115190476D01*
X206490476Y-115095238D01*
X206395238Y-115000000D01*
X206252380Y-114952380D01*
X206157142Y-114952380D01*
X206014285Y-115000000D01*
X205966666Y-115047619D01*
X205585714Y-115666666D02*
X205109523Y-115666666D01*
X205680952Y-115952380D02*
X205347619Y-114952380D01*
X205014285Y-115952380D01*
X204680952Y-115952380D02*
X204680952Y-114952380D01*
X204109523Y-115952380D01*
X204109523Y-114952380D01*
X203633333Y-115952380D02*
X203633333Y-114952380D01*
X203633333Y-115428571D02*
X203061904Y-115428571D01*
X203061904Y-115952380D02*
X203061904Y-114952380D01*
X205847619Y-118357142D02*
X205895238Y-118404761D01*
X206038095Y-118452380D01*
X206133333Y-118452380D01*
X206276190Y-118404761D01*
X206371428Y-118309523D01*
X206419047Y-118214285D01*
X206466666Y-118023809D01*
X206466666Y-117880952D01*
X206419047Y-117690476D01*
X206371428Y-117595238D01*
X206276190Y-117500000D01*
X206133333Y-117452380D01*
X206038095Y-117452380D01*
X205895238Y-117500000D01*
X205847619Y-117547619D01*
X205466666Y-118166666D02*
X204990476Y-118166666D01*
X205561904Y-118452380D02*
X205228571Y-117452380D01*
X204895238Y-118452380D01*
X204561904Y-118452380D02*
X204561904Y-117452380D01*
X203990476Y-118452380D01*
X203990476Y-117452380D01*
X203038095Y-118452380D02*
X203514285Y-118452380D01*
X203514285Y-117452380D01*
X200433333Y-107350000D02*
X200500000Y-107316666D01*
X200600000Y-107316666D01*
X200700000Y-107350000D01*
X200766666Y-107416666D01*
X200800000Y-107483333D01*
X200833333Y-107616666D01*
X200833333Y-107716666D01*
X200800000Y-107850000D01*
X200766666Y-107916666D01*
X200700000Y-107983333D01*
X200600000Y-108016666D01*
X200533333Y-108016666D01*
X200433333Y-107983333D01*
X200400000Y-107950000D01*
X200400000Y-107716666D01*
X200533333Y-107716666D01*
X200100000Y-108016666D02*
X200100000Y-107316666D01*
X199700000Y-108016666D01*
X199700000Y-107316666D01*
X199366666Y-108016666D02*
X199366666Y-107316666D01*
X199200000Y-107316666D01*
X199100000Y-107350000D01*
X199033333Y-107416666D01*
X199000000Y-107483333D01*
X198966666Y-107616666D01*
X198966666Y-107716666D01*
X199000000Y-107850000D01*
X199033333Y-107916666D01*
X199100000Y-107983333D01*
X199200000Y-108016666D01*
X199366666Y-108016666D01*
X199816666Y-110550000D02*
X199850000Y-110583333D01*
X199950000Y-110616666D01*
X200016666Y-110616666D01*
X200116666Y-110583333D01*
X200183333Y-110516666D01*
X200216666Y-110450000D01*
X200250000Y-110316666D01*
X200250000Y-110216666D01*
X200216666Y-110083333D01*
X200183333Y-110016666D01*
X200116666Y-109950000D01*
X200016666Y-109916666D01*
X199950000Y-109916666D01*
X199850000Y-109950000D01*
X199816666Y-109983333D01*
X199550000Y-110583333D02*
X199450000Y-110616666D01*
X199283333Y-110616666D01*
X199216666Y-110583333D01*
X199183333Y-110550000D01*
X199150000Y-110483333D01*
X199150000Y-110416666D01*
X199183333Y-110350000D01*
X199216666Y-110316666D01*
X199283333Y-110283333D01*
X199416666Y-110250000D01*
X199483333Y-110216666D01*
X199516666Y-110183333D01*
X199550000Y-110116666D01*
X199550000Y-110050000D01*
X199516666Y-109983333D01*
X199483333Y-109950000D01*
X199416666Y-109916666D01*
X199250000Y-109916666D01*
X199150000Y-109950000D01*
X201000000Y-113183333D02*
X200900000Y-113216666D01*
X200733333Y-113216666D01*
X200666666Y-113183333D01*
X200633333Y-113150000D01*
X200600000Y-113083333D01*
X200600000Y-113016666D01*
X200633333Y-112950000D01*
X200666666Y-112916666D01*
X200733333Y-112883333D01*
X200866666Y-112850000D01*
X200933333Y-112816666D01*
X200966666Y-112783333D01*
X201000000Y-112716666D01*
X201000000Y-112650000D01*
X200966666Y-112583333D01*
X200933333Y-112550000D01*
X200866666Y-112516666D01*
X200700000Y-112516666D01*
X200600000Y-112550000D01*
X199900000Y-113150000D02*
X199933333Y-113183333D01*
X200033333Y-113216666D01*
X200100000Y-113216666D01*
X200200000Y-113183333D01*
X200266666Y-113116666D01*
X200300000Y-113050000D01*
X200333333Y-112916666D01*
X200333333Y-112816666D01*
X200300000Y-112683333D01*
X200266666Y-112616666D01*
X200200000Y-112550000D01*
X200100000Y-112516666D01*
X200033333Y-112516666D01*
X199933333Y-112550000D01*
X199900000Y-112583333D01*
X199600000Y-113216666D02*
X199600000Y-112516666D01*
X199200000Y-113216666D02*
X199500000Y-112816666D01*
X199200000Y-112516666D02*
X199600000Y-112916666D01*
X199916666Y-114300000D02*
X199216666Y-114300000D01*
X199716666Y-114533333D01*
X199216666Y-114766666D01*
X199916666Y-114766666D01*
X199216666Y-115233333D02*
X199216666Y-115366666D01*
X199250000Y-115433333D01*
X199316666Y-115500000D01*
X199450000Y-115533333D01*
X199683333Y-115533333D01*
X199816666Y-115500000D01*
X199883333Y-115433333D01*
X199916666Y-115366666D01*
X199916666Y-115233333D01*
X199883333Y-115166666D01*
X199816666Y-115100000D01*
X199683333Y-115066666D01*
X199450000Y-115066666D01*
X199316666Y-115100000D01*
X199250000Y-115166666D01*
X199216666Y-115233333D01*
X199883333Y-115800000D02*
X199916666Y-115900000D01*
X199916666Y-116066666D01*
X199883333Y-116133333D01*
X199850000Y-116166666D01*
X199783333Y-116200000D01*
X199716666Y-116200000D01*
X199650000Y-116166666D01*
X199616666Y-116133333D01*
X199583333Y-116066666D01*
X199550000Y-115933333D01*
X199516666Y-115866666D01*
X199483333Y-115833333D01*
X199416666Y-115800000D01*
X199350000Y-115800000D01*
X199283333Y-115833333D01*
X199250000Y-115866666D01*
X199216666Y-115933333D01*
X199216666Y-116100000D01*
X199250000Y-116200000D01*
X199916666Y-116500000D02*
X199216666Y-116500000D01*
X199916666Y-117200000D02*
X199216666Y-117200000D01*
X199716666Y-117433333D01*
X199216666Y-117666666D01*
X199916666Y-117666666D01*
X199916666Y-118000000D02*
X199216666Y-118000000D01*
X199883333Y-118300000D02*
X199916666Y-118400000D01*
X199916666Y-118566666D01*
X199883333Y-118633333D01*
X199850000Y-118666666D01*
X199783333Y-118700000D01*
X199716666Y-118700000D01*
X199650000Y-118666666D01*
X199616666Y-118633333D01*
X199583333Y-118566666D01*
X199550000Y-118433333D01*
X199516666Y-118366666D01*
X199483333Y-118333333D01*
X199416666Y-118300000D01*
X199350000Y-118300000D01*
X199283333Y-118333333D01*
X199250000Y-118366666D01*
X199216666Y-118433333D01*
X199216666Y-118600000D01*
X199250000Y-118700000D01*
X199216666Y-119133333D02*
X199216666Y-119266666D01*
X199250000Y-119333333D01*
X199316666Y-119400000D01*
X199450000Y-119433333D01*
X199683333Y-119433333D01*
X199816666Y-119400000D01*
X199883333Y-119333333D01*
X199916666Y-119266666D01*
X199916666Y-119133333D01*
X199883333Y-119066666D01*
X199816666Y-119000000D01*
X199683333Y-118966666D01*
X199450000Y-118966666D01*
X199316666Y-119000000D01*
X199250000Y-119066666D01*
X199216666Y-119133333D01*
X212761904Y-135892976D02*
X213561904Y-136159642D01*
X212761904Y-136426309D01*
X213485714Y-137150119D02*
X213523809Y-137112023D01*
X213561904Y-136997738D01*
X213561904Y-136921547D01*
X213523809Y-136807261D01*
X213447619Y-136731071D01*
X213371428Y-136692976D01*
X213219047Y-136654880D01*
X213104761Y-136654880D01*
X212952380Y-136692976D01*
X212876190Y-136731071D01*
X212800000Y-136807261D01*
X212761904Y-136921547D01*
X212761904Y-136997738D01*
X212800000Y-137112023D01*
X212838095Y-137150119D01*
X213485714Y-137950119D02*
X213523809Y-137912023D01*
X213561904Y-137797738D01*
X213561904Y-137721547D01*
X213523809Y-137607261D01*
X213447619Y-137531071D01*
X213371428Y-137492976D01*
X213219047Y-137454880D01*
X213104761Y-137454880D01*
X212952380Y-137492976D01*
X212876190Y-137531071D01*
X212800000Y-137607261D01*
X212761904Y-137721547D01*
X212761904Y-137797738D01*
X212800000Y-137912023D01*
X212838095Y-137950119D01*
X211023809Y-133531071D02*
X211061904Y-133645357D01*
X211061904Y-133835833D01*
X211023809Y-133912023D01*
X210985714Y-133950119D01*
X210909523Y-133988214D01*
X210833333Y-133988214D01*
X210757142Y-133950119D01*
X210719047Y-133912023D01*
X210680952Y-133835833D01*
X210642857Y-133683452D01*
X210604761Y-133607261D01*
X210566666Y-133569166D01*
X210490476Y-133531071D01*
X210414285Y-133531071D01*
X210338095Y-133569166D01*
X210300000Y-133607261D01*
X210261904Y-133683452D01*
X210261904Y-133873928D01*
X210300000Y-133988214D01*
X210261904Y-134254880D02*
X211061904Y-134445357D01*
X210490476Y-134597738D01*
X211061904Y-134750119D01*
X210261904Y-134940595D01*
X211061904Y-135245357D02*
X210261904Y-135245357D01*
X210261904Y-135435833D01*
X210300000Y-135550119D01*
X210376190Y-135626309D01*
X210452380Y-135664404D01*
X210604761Y-135702500D01*
X210719047Y-135702500D01*
X210871428Y-135664404D01*
X210947619Y-135626309D01*
X211023809Y-135550119D01*
X211061904Y-135435833D01*
X211061904Y-135245357D01*
X210985714Y-136502500D02*
X211023809Y-136464404D01*
X211061904Y-136350119D01*
X211061904Y-136273928D01*
X211023809Y-136159642D01*
X210947619Y-136083452D01*
X210871428Y-136045357D01*
X210719047Y-136007261D01*
X210604761Y-136007261D01*
X210452380Y-136045357D01*
X210376190Y-136083452D01*
X210300000Y-136159642D01*
X210261904Y-136273928D01*
X210261904Y-136350119D01*
X210300000Y-136464404D01*
X210338095Y-136502500D01*
X211061904Y-137226309D02*
X211061904Y-136845357D01*
X210261904Y-136845357D01*
X211061904Y-137492976D02*
X210261904Y-137492976D01*
X211061904Y-137950119D02*
X210604761Y-137607261D01*
X210261904Y-137950119D02*
X210719047Y-137492976D01*
X203461904Y-135131071D02*
X203080952Y-134864404D01*
X203461904Y-134673928D02*
X202661904Y-134673928D01*
X202661904Y-134978690D01*
X202700000Y-135054880D01*
X202738095Y-135092976D01*
X202814285Y-135131071D01*
X202928571Y-135131071D01*
X203004761Y-135092976D01*
X203042857Y-135054880D01*
X203080952Y-134978690D01*
X203080952Y-134673928D01*
X203042857Y-135473928D02*
X203042857Y-135740595D01*
X203461904Y-135854880D02*
X203461904Y-135473928D01*
X202661904Y-135473928D01*
X202661904Y-135854880D01*
X203423809Y-136159642D02*
X203461904Y-136273928D01*
X203461904Y-136464404D01*
X203423809Y-136540595D01*
X203385714Y-136578690D01*
X203309523Y-136616785D01*
X203233333Y-136616785D01*
X203157142Y-136578690D01*
X203119047Y-136540595D01*
X203080952Y-136464404D01*
X203042857Y-136312023D01*
X203004761Y-136235833D01*
X202966666Y-136197738D01*
X202890476Y-136159642D01*
X202814285Y-136159642D01*
X202738095Y-136197738D01*
X202700000Y-136235833D01*
X202661904Y-136312023D01*
X202661904Y-136502500D01*
X202700000Y-136616785D01*
X203042857Y-136959642D02*
X203042857Y-137226309D01*
X203461904Y-137340595D02*
X203461904Y-136959642D01*
X202661904Y-136959642D01*
X202661904Y-137340595D01*
X202661904Y-137569166D02*
X202661904Y-138026309D01*
X203461904Y-137797738D02*
X202661904Y-137797738D01*
X206023809Y-134559642D02*
X206061904Y-134673928D01*
X206061904Y-134864404D01*
X206023809Y-134940595D01*
X205985714Y-134978690D01*
X205909523Y-135016785D01*
X205833333Y-135016785D01*
X205757142Y-134978690D01*
X205719047Y-134940595D01*
X205680952Y-134864404D01*
X205642857Y-134712023D01*
X205604761Y-134635833D01*
X205566666Y-134597738D01*
X205490476Y-134559642D01*
X205414285Y-134559642D01*
X205338095Y-134597738D01*
X205300000Y-134635833D01*
X205261904Y-134712023D01*
X205261904Y-134902500D01*
X205300000Y-135016785D01*
X205261904Y-135283452D02*
X206061904Y-135473928D01*
X205490476Y-135626309D01*
X206061904Y-135778690D01*
X205261904Y-135969166D01*
X206061904Y-136273928D02*
X205261904Y-136273928D01*
X205261904Y-136464404D01*
X205300000Y-136578690D01*
X205376190Y-136654880D01*
X205452380Y-136692976D01*
X205604761Y-136731071D01*
X205719047Y-136731071D01*
X205871428Y-136692976D01*
X205947619Y-136654880D01*
X206023809Y-136578690D01*
X206061904Y-136464404D01*
X206061904Y-136273928D01*
X206061904Y-137073928D02*
X205261904Y-137073928D01*
X205261904Y-137607261D02*
X205261904Y-137759642D01*
X205300000Y-137835833D01*
X205376190Y-137912023D01*
X205528571Y-137950119D01*
X205795238Y-137950119D01*
X205947619Y-137912023D01*
X206023809Y-137835833D01*
X206061904Y-137759642D01*
X206061904Y-137607261D01*
X206023809Y-137531071D01*
X205947619Y-137454880D01*
X205795238Y-137416785D01*
X205528571Y-137416785D01*
X205376190Y-137454880D01*
X205300000Y-137531071D01*
X205261904Y-137607261D01*
X207800000Y-136273928D02*
X207761904Y-136197738D01*
X207761904Y-136083452D01*
X207800000Y-135969166D01*
X207876190Y-135892976D01*
X207952380Y-135854880D01*
X208104761Y-135816785D01*
X208219047Y-135816785D01*
X208371428Y-135854880D01*
X208447619Y-135892976D01*
X208523809Y-135969166D01*
X208561904Y-136083452D01*
X208561904Y-136159642D01*
X208523809Y-136273928D01*
X208485714Y-136312023D01*
X208219047Y-136312023D01*
X208219047Y-136159642D01*
X208561904Y-136654880D02*
X207761904Y-136654880D01*
X208561904Y-137112023D01*
X207761904Y-137112023D01*
X208561904Y-137492976D02*
X207761904Y-137492976D01*
X207761904Y-137683452D01*
X207800000Y-137797738D01*
X207876190Y-137873928D01*
X207952380Y-137912023D01*
X208104761Y-137950119D01*
X208219047Y-137950119D01*
X208371428Y-137912023D01*
X208447619Y-137873928D01*
X208523809Y-137797738D01*
X208561904Y-137683452D01*
X208561904Y-137492976D01*
X201126071Y-133800000D02*
X201202261Y-133761904D01*
X201316547Y-133761904D01*
X201430833Y-133800000D01*
X201507023Y-133876190D01*
X201545119Y-133952380D01*
X201583214Y-134104761D01*
X201583214Y-134219047D01*
X201545119Y-134371428D01*
X201507023Y-134447619D01*
X201430833Y-134523809D01*
X201316547Y-134561904D01*
X201240357Y-134561904D01*
X201126071Y-134523809D01*
X201087976Y-134485714D01*
X201087976Y-134219047D01*
X201240357Y-134219047D01*
X200745119Y-134561904D02*
X200745119Y-133761904D01*
X200287976Y-134561904D01*
X200287976Y-133761904D01*
X199907023Y-134561904D02*
X199907023Y-133761904D01*
X199716547Y-133761904D01*
X199602261Y-133800000D01*
X199526071Y-133876190D01*
X199487976Y-133952380D01*
X199449880Y-134104761D01*
X199449880Y-134219047D01*
X199487976Y-134371428D01*
X199526071Y-134447619D01*
X199602261Y-134523809D01*
X199716547Y-134561904D01*
X199907023Y-134561904D01*
X202612023Y-132061904D02*
X202612023Y-131261904D01*
X202612023Y-131642857D02*
X202154880Y-131642857D01*
X202154880Y-132061904D02*
X202154880Y-131261904D01*
X201812023Y-131833333D02*
X201431071Y-131833333D01*
X201888214Y-132061904D02*
X201621547Y-131261904D01*
X201354880Y-132061904D01*
X200707261Y-132061904D02*
X201088214Y-132061904D01*
X201088214Y-131261904D01*
X200059642Y-132061904D02*
X200440595Y-132061904D01*
X200440595Y-131261904D01*
X199869166Y-131261904D02*
X199373928Y-131261904D01*
X199640595Y-131566666D01*
X199526309Y-131566666D01*
X199450119Y-131604761D01*
X199412023Y-131642857D01*
X199373928Y-131719047D01*
X199373928Y-131909523D01*
X199412023Y-131985714D01*
X199450119Y-132023809D01*
X199526309Y-132061904D01*
X199754880Y-132061904D01*
X199831071Y-132023809D01*
X199869166Y-131985714D01*
X202612023Y-129561904D02*
X202612023Y-128761904D01*
X202612023Y-129142857D02*
X202154880Y-129142857D01*
X202154880Y-129561904D02*
X202154880Y-128761904D01*
X201812023Y-129333333D02*
X201431071Y-129333333D01*
X201888214Y-129561904D02*
X201621547Y-128761904D01*
X201354880Y-129561904D01*
X200707261Y-129561904D02*
X201088214Y-129561904D01*
X201088214Y-128761904D01*
X200059642Y-129561904D02*
X200440595Y-129561904D01*
X200440595Y-128761904D01*
X199831071Y-128838095D02*
X199792976Y-128800000D01*
X199716785Y-128761904D01*
X199526309Y-128761904D01*
X199450119Y-128800000D01*
X199412023Y-128838095D01*
X199373928Y-128914285D01*
X199373928Y-128990476D01*
X199412023Y-129104761D01*
X199869166Y-129561904D01*
X199373928Y-129561904D01*
X202612023Y-126961904D02*
X202612023Y-126161904D01*
X202612023Y-126542857D02*
X202154880Y-126542857D01*
X202154880Y-126961904D02*
X202154880Y-126161904D01*
X201812023Y-126733333D02*
X201431071Y-126733333D01*
X201888214Y-126961904D02*
X201621547Y-126161904D01*
X201354880Y-126961904D01*
X200707261Y-126961904D02*
X201088214Y-126961904D01*
X201088214Y-126161904D01*
X200059642Y-126961904D02*
X200440595Y-126961904D01*
X200440595Y-126161904D01*
X199373928Y-126961904D02*
X199831071Y-126961904D01*
X199602500Y-126961904D02*
X199602500Y-126161904D01*
X199678690Y-126276190D01*
X199754880Y-126352380D01*
X199831071Y-126390476D01*
X206652380Y-123661904D02*
X206195238Y-123661904D01*
X206423809Y-124461904D02*
X206423809Y-123661904D01*
X205928571Y-124042857D02*
X205661904Y-124042857D01*
X205547619Y-124461904D02*
X205928571Y-124461904D01*
X205928571Y-123661904D01*
X205547619Y-123661904D01*
X205204761Y-124461904D02*
X205204761Y-123661904D01*
X204938095Y-124233333D01*
X204671428Y-123661904D01*
X204671428Y-124461904D01*
X204290476Y-124461904D02*
X204290476Y-123661904D01*
X203985714Y-123661904D01*
X203909523Y-123700000D01*
X203871428Y-123738095D01*
X203833333Y-123814285D01*
X203833333Y-123928571D01*
X203871428Y-124004761D01*
X203909523Y-124042857D01*
X203985714Y-124080952D01*
X204290476Y-124080952D01*
X203680952Y-124538095D02*
X203071428Y-124538095D01*
X202880952Y-124461904D02*
X202880952Y-123661904D01*
X202614285Y-124233333D01*
X202347619Y-123661904D01*
X202347619Y-124461904D01*
X201814285Y-123661904D02*
X201661904Y-123661904D01*
X201585714Y-123700000D01*
X201509523Y-123776190D01*
X201471428Y-123928571D01*
X201471428Y-124195238D01*
X201509523Y-124347619D01*
X201585714Y-124423809D01*
X201661904Y-124461904D01*
X201814285Y-124461904D01*
X201890476Y-124423809D01*
X201966666Y-124347619D01*
X202004761Y-124195238D01*
X202004761Y-123928571D01*
X201966666Y-123776190D01*
X201890476Y-123700000D01*
X201814285Y-123661904D01*
X201242857Y-123661904D02*
X200785714Y-123661904D01*
X201014285Y-124461904D02*
X201014285Y-123661904D01*
X200366666Y-123661904D02*
X200214285Y-123661904D01*
X200138095Y-123700000D01*
X200061904Y-123776190D01*
X200023809Y-123928571D01*
X200023809Y-124195238D01*
X200061904Y-124347619D01*
X200138095Y-124423809D01*
X200214285Y-124461904D01*
X200366666Y-124461904D01*
X200442857Y-124423809D01*
X200519047Y-124347619D01*
X200557142Y-124195238D01*
X200557142Y-123928571D01*
X200519047Y-123776190D01*
X200442857Y-123700000D01*
X200366666Y-123661904D01*
X199223809Y-124461904D02*
X199490476Y-124080952D01*
X199680952Y-124461904D02*
X199680952Y-123661904D01*
X199376190Y-123661904D01*
X199300000Y-123700000D01*
X199261904Y-123738095D01*
X199223809Y-123814285D01*
X199223809Y-123928571D01*
X199261904Y-124004761D01*
X199300000Y-124042857D01*
X199376190Y-124080952D01*
X199680952Y-124080952D01*
X245511904Y-134000000D02*
X245607142Y-133952380D01*
X245750000Y-133952380D01*
X245892857Y-134000000D01*
X245988095Y-134095238D01*
X246035714Y-134190476D01*
X246083333Y-134380952D01*
X246083333Y-134523809D01*
X246035714Y-134714285D01*
X245988095Y-134809523D01*
X245892857Y-134904761D01*
X245750000Y-134952380D01*
X245654761Y-134952380D01*
X245511904Y-134904761D01*
X245464285Y-134857142D01*
X245464285Y-134523809D01*
X245654761Y-134523809D01*
X245035714Y-134952380D02*
X245035714Y-133952380D01*
X244464285Y-134952380D01*
X244464285Y-133952380D01*
X243988095Y-134952380D02*
X243988095Y-133952380D01*
X243750000Y-133952380D01*
X243607142Y-134000000D01*
X243511904Y-134095238D01*
X243464285Y-134190476D01*
X243416666Y-134380952D01*
X243416666Y-134523809D01*
X243464285Y-134714285D01*
X243511904Y-134809523D01*
X243607142Y-134904761D01*
X243750000Y-134952380D01*
X243988095Y-134952380D01*
X251702380Y-133952380D02*
X251369047Y-134952380D01*
X251035714Y-133952380D01*
X250702380Y-134571428D02*
X249940476Y-134571428D01*
X250321428Y-134952380D02*
X250321428Y-134190476D01*
X251702380Y-106952380D02*
X251369047Y-107952380D01*
X251035714Y-106952380D01*
X250702380Y-107571428D02*
X249940476Y-107571428D01*
X250321428Y-107952380D02*
X250321428Y-107190476D01*
X245511904Y-107000000D02*
X245607142Y-106952380D01*
X245750000Y-106952380D01*
X245892857Y-107000000D01*
X245988095Y-107095238D01*
X246035714Y-107190476D01*
X246083333Y-107380952D01*
X246083333Y-107523809D01*
X246035714Y-107714285D01*
X245988095Y-107809523D01*
X245892857Y-107904761D01*
X245750000Y-107952380D01*
X245654761Y-107952380D01*
X245511904Y-107904761D01*
X245464285Y-107857142D01*
X245464285Y-107523809D01*
X245654761Y-107523809D01*
X245035714Y-107952380D02*
X245035714Y-106952380D01*
X244464285Y-107952380D01*
X244464285Y-106952380D01*
X243988095Y-107952380D02*
X243988095Y-106952380D01*
X243750000Y-106952380D01*
X243607142Y-107000000D01*
X243511904Y-107095238D01*
X243464285Y-107190476D01*
X243416666Y-107380952D01*
X243416666Y-107523809D01*
X243464285Y-107714285D01*
X243511904Y-107809523D01*
X243607142Y-107904761D01*
X243750000Y-107952380D01*
X243988095Y-107952380D01*
X231023809Y-102460714D02*
X230785714Y-103127380D01*
X230547619Y-102460714D01*
X230214285Y-102222619D02*
X230166666Y-102175000D01*
X230071428Y-102127380D01*
X229833333Y-102127380D01*
X229738095Y-102175000D01*
X229690476Y-102222619D01*
X229642857Y-102317857D01*
X229642857Y-102413095D01*
X229690476Y-102555952D01*
X230261904Y-103127380D01*
X229642857Y-103127380D01*
X229214285Y-103032142D02*
X229166666Y-103079761D01*
X229214285Y-103127380D01*
X229261904Y-103079761D01*
X229214285Y-103032142D01*
X229214285Y-103127380D01*
X228547619Y-102127380D02*
X228452380Y-102127380D01*
X228357142Y-102175000D01*
X228309523Y-102222619D01*
X228261904Y-102317857D01*
X228214285Y-102508333D01*
X228214285Y-102746428D01*
X228261904Y-102936904D01*
X228309523Y-103032142D01*
X228357142Y-103079761D01*
X228452380Y-103127380D01*
X228547619Y-103127380D01*
X228642857Y-103079761D01*
X228690476Y-103032142D01*
X228738095Y-102936904D01*
X228785714Y-102746428D01*
X228785714Y-102508333D01*
X228738095Y-102317857D01*
X228690476Y-102222619D01*
X228642857Y-102175000D01*
X228547619Y-102127380D01*
X227023809Y-102746428D02*
X226261904Y-102746428D01*
X224547619Y-103127380D02*
X225023809Y-103127380D01*
X225023809Y-102127380D01*
X224214285Y-103127380D02*
X224214285Y-102460714D01*
X224214285Y-102127380D02*
X224261904Y-102175000D01*
X224214285Y-102222619D01*
X224166666Y-102175000D01*
X224214285Y-102127380D01*
X224214285Y-102222619D01*
X223309523Y-103079761D02*
X223404761Y-103127380D01*
X223595238Y-103127380D01*
X223690476Y-103079761D01*
X223738095Y-103032142D01*
X223785714Y-102936904D01*
X223785714Y-102651190D01*
X223738095Y-102555952D01*
X223690476Y-102508333D01*
X223595238Y-102460714D01*
X223404761Y-102460714D01*
X223309523Y-102508333D01*
X222500000Y-103079761D02*
X222595238Y-103127380D01*
X222785714Y-103127380D01*
X222880952Y-103079761D01*
X222928571Y-102984523D01*
X222928571Y-102603571D01*
X222880952Y-102508333D01*
X222785714Y-102460714D01*
X222595238Y-102460714D01*
X222500000Y-102508333D01*
X222452380Y-102603571D01*
X222452380Y-102698809D01*
X222928571Y-102794047D01*
X222023809Y-102460714D02*
X222023809Y-103127380D01*
X222023809Y-102555952D02*
X221976190Y-102508333D01*
X221880952Y-102460714D01*
X221738095Y-102460714D01*
X221642857Y-102508333D01*
X221595238Y-102603571D01*
X221595238Y-103127380D01*
X221166666Y-103079761D02*
X221071428Y-103127380D01*
X220880952Y-103127380D01*
X220785714Y-103079761D01*
X220738095Y-102984523D01*
X220738095Y-102936904D01*
X220785714Y-102841666D01*
X220880952Y-102794047D01*
X221023809Y-102794047D01*
X221119047Y-102746428D01*
X221166666Y-102651190D01*
X221166666Y-102603571D01*
X221119047Y-102508333D01*
X221023809Y-102460714D01*
X220880952Y-102460714D01*
X220785714Y-102508333D01*
X219928571Y-103079761D02*
X220023809Y-103127380D01*
X220214285Y-103127380D01*
X220309523Y-103079761D01*
X220357142Y-102984523D01*
X220357142Y-102603571D01*
X220309523Y-102508333D01*
X220214285Y-102460714D01*
X220023809Y-102460714D01*
X219928571Y-102508333D01*
X219880952Y-102603571D01*
X219880952Y-102698809D01*
X220357142Y-102794047D01*
X218119047Y-103032142D02*
X218166666Y-103079761D01*
X218309523Y-103127380D01*
X218404761Y-103127380D01*
X218547619Y-103079761D01*
X218642857Y-102984523D01*
X218690476Y-102889285D01*
X218738095Y-102698809D01*
X218738095Y-102555952D01*
X218690476Y-102365476D01*
X218642857Y-102270238D01*
X218547619Y-102175000D01*
X218404761Y-102127380D01*
X218309523Y-102127380D01*
X218166666Y-102175000D01*
X218119047Y-102222619D01*
X217119047Y-103032142D02*
X217166666Y-103079761D01*
X217309523Y-103127380D01*
X217404761Y-103127380D01*
X217547619Y-103079761D01*
X217642857Y-102984523D01*
X217690476Y-102889285D01*
X217738095Y-102698809D01*
X217738095Y-102555952D01*
X217690476Y-102365476D01*
X217642857Y-102270238D01*
X217547619Y-102175000D01*
X217404761Y-102127380D01*
X217309523Y-102127380D01*
X217166666Y-102175000D01*
X217119047Y-102222619D01*
X215595238Y-102603571D02*
X215452380Y-102651190D01*
X215404761Y-102698809D01*
X215357142Y-102794047D01*
X215357142Y-102936904D01*
X215404761Y-103032142D01*
X215452380Y-103079761D01*
X215547619Y-103127380D01*
X215928571Y-103127380D01*
X215928571Y-102127380D01*
X215595238Y-102127380D01*
X215500000Y-102175000D01*
X215452380Y-102222619D01*
X215404761Y-102317857D01*
X215404761Y-102413095D01*
X215452380Y-102508333D01*
X215500000Y-102555952D01*
X215595238Y-102603571D01*
X215928571Y-102603571D01*
X214738095Y-102651190D02*
X214738095Y-103127380D01*
X215071428Y-102127380D02*
X214738095Y-102651190D01*
X214404761Y-102127380D01*
X214071428Y-102746428D02*
X213309523Y-102746428D01*
X212833333Y-103127380D02*
X212833333Y-102127380D01*
X212261904Y-103127380D01*
X212261904Y-102127380D01*
X211214285Y-103032142D02*
X211261904Y-103079761D01*
X211404761Y-103127380D01*
X211500000Y-103127380D01*
X211642857Y-103079761D01*
X211738095Y-102984523D01*
X211785714Y-102889285D01*
X211833333Y-102698809D01*
X211833333Y-102555952D01*
X211785714Y-102365476D01*
X211738095Y-102270238D01*
X211642857Y-102175000D01*
X211500000Y-102127380D01*
X211404761Y-102127380D01*
X211261904Y-102175000D01*
X211214285Y-102222619D01*
X210785714Y-102746428D02*
X210023809Y-102746428D01*
X209595238Y-103079761D02*
X209452380Y-103127380D01*
X209214285Y-103127380D01*
X209119047Y-103079761D01*
X209071428Y-103032142D01*
X209023809Y-102936904D01*
X209023809Y-102841666D01*
X209071428Y-102746428D01*
X209119047Y-102698809D01*
X209214285Y-102651190D01*
X209404761Y-102603571D01*
X209500000Y-102555952D01*
X209547619Y-102508333D01*
X209595238Y-102413095D01*
X209595238Y-102317857D01*
X209547619Y-102222619D01*
X209500000Y-102175000D01*
X209404761Y-102127380D01*
X209166666Y-102127380D01*
X209023809Y-102175000D01*
X208642857Y-102841666D02*
X208166666Y-102841666D01*
X208738095Y-103127380D02*
X208404761Y-102127380D01*
X208071428Y-103127380D01*
X206547619Y-102460714D02*
X206547619Y-103127380D01*
X206785714Y-102079761D02*
X207023809Y-102794047D01*
X206404761Y-102794047D01*
X206023809Y-103032142D02*
X205976190Y-103079761D01*
X206023809Y-103127380D01*
X206071428Y-103079761D01*
X206023809Y-103032142D01*
X206023809Y-103127380D01*
X205357142Y-102127380D02*
X205261904Y-102127380D01*
X205166666Y-102175000D01*
X205119047Y-102222619D01*
X205071428Y-102317857D01*
X205023809Y-102508333D01*
X205023809Y-102746428D01*
X205071428Y-102936904D01*
X205119047Y-103032142D01*
X205166666Y-103079761D01*
X205261904Y-103127380D01*
X205357142Y-103127380D01*
X205452380Y-103079761D01*
X205500000Y-103032142D01*
X205547619Y-102936904D01*
X205595238Y-102746428D01*
X205595238Y-102508333D01*
X205547619Y-102317857D01*
X205500000Y-102222619D01*
X205452380Y-102175000D01*
X205357142Y-102127380D01*
X233452380Y-104777380D02*
X233452380Y-103777380D01*
X233023809Y-104777380D02*
X233023809Y-104253571D01*
X233071428Y-104158333D01*
X233166666Y-104110714D01*
X233309523Y-104110714D01*
X233404761Y-104158333D01*
X233452380Y-104205952D01*
X232690476Y-104110714D02*
X232309523Y-104110714D01*
X232547619Y-103777380D02*
X232547619Y-104634523D01*
X232500000Y-104729761D01*
X232404761Y-104777380D01*
X232309523Y-104777380D01*
X232119047Y-104110714D02*
X231738095Y-104110714D01*
X231976190Y-103777380D02*
X231976190Y-104634523D01*
X231928571Y-104729761D01*
X231833333Y-104777380D01*
X231738095Y-104777380D01*
X231404761Y-104110714D02*
X231404761Y-105110714D01*
X231404761Y-104158333D02*
X231309523Y-104110714D01*
X231119047Y-104110714D01*
X231023809Y-104158333D01*
X230976190Y-104205952D01*
X230928571Y-104301190D01*
X230928571Y-104586904D01*
X230976190Y-104682142D01*
X231023809Y-104729761D01*
X231119047Y-104777380D01*
X231309523Y-104777380D01*
X231404761Y-104729761D01*
X230547619Y-104729761D02*
X230452380Y-104777380D01*
X230261904Y-104777380D01*
X230166666Y-104729761D01*
X230119047Y-104634523D01*
X230119047Y-104586904D01*
X230166666Y-104491666D01*
X230261904Y-104444047D01*
X230404761Y-104444047D01*
X230500000Y-104396428D01*
X230547619Y-104301190D01*
X230547619Y-104253571D01*
X230500000Y-104158333D01*
X230404761Y-104110714D01*
X230261904Y-104110714D01*
X230166666Y-104158333D01*
X229690476Y-104682142D02*
X229642857Y-104729761D01*
X229690476Y-104777380D01*
X229738095Y-104729761D01*
X229690476Y-104682142D01*
X229690476Y-104777380D01*
X229690476Y-104158333D02*
X229642857Y-104205952D01*
X229690476Y-104253571D01*
X229738095Y-104205952D01*
X229690476Y-104158333D01*
X229690476Y-104253571D01*
X228500000Y-103729761D02*
X229357142Y-105015476D01*
X227452380Y-103729761D02*
X228309523Y-105015476D01*
X226690476Y-104110714D02*
X226690476Y-104920238D01*
X226738095Y-105015476D01*
X226785714Y-105063095D01*
X226880952Y-105110714D01*
X227023809Y-105110714D01*
X227119047Y-105063095D01*
X226690476Y-104729761D02*
X226785714Y-104777380D01*
X226976190Y-104777380D01*
X227071428Y-104729761D01*
X227119047Y-104682142D01*
X227166666Y-104586904D01*
X227166666Y-104301190D01*
X227119047Y-104205952D01*
X227071428Y-104158333D01*
X226976190Y-104110714D01*
X226785714Y-104110714D01*
X226690476Y-104158333D01*
X226214285Y-104777380D02*
X226214285Y-104110714D01*
X226214285Y-103777380D02*
X226261904Y-103825000D01*
X226214285Y-103872619D01*
X226166666Y-103825000D01*
X226214285Y-103777380D01*
X226214285Y-103872619D01*
X225880952Y-104110714D02*
X225500000Y-104110714D01*
X225738095Y-103777380D02*
X225738095Y-104634523D01*
X225690476Y-104729761D01*
X225595238Y-104777380D01*
X225500000Y-104777380D01*
X225166666Y-104777380D02*
X225166666Y-103777380D01*
X224738095Y-104777380D02*
X224738095Y-104253571D01*
X224785714Y-104158333D01*
X224880952Y-104110714D01*
X225023809Y-104110714D01*
X225119047Y-104158333D01*
X225166666Y-104205952D01*
X223833333Y-104110714D02*
X223833333Y-104777380D01*
X224261904Y-104110714D02*
X224261904Y-104634523D01*
X224214285Y-104729761D01*
X224119047Y-104777380D01*
X223976190Y-104777380D01*
X223880952Y-104729761D01*
X223833333Y-104682142D01*
X223357142Y-104777380D02*
X223357142Y-103777380D01*
X223357142Y-104158333D02*
X223261904Y-104110714D01*
X223071428Y-104110714D01*
X222976190Y-104158333D01*
X222928571Y-104205952D01*
X222880952Y-104301190D01*
X222880952Y-104586904D01*
X222928571Y-104682142D01*
X222976190Y-104729761D01*
X223071428Y-104777380D01*
X223261904Y-104777380D01*
X223357142Y-104729761D01*
X222452380Y-104682142D02*
X222404761Y-104729761D01*
X222452380Y-104777380D01*
X222500000Y-104729761D01*
X222452380Y-104682142D01*
X222452380Y-104777380D01*
X221547619Y-104729761D02*
X221642857Y-104777380D01*
X221833333Y-104777380D01*
X221928571Y-104729761D01*
X221976190Y-104682142D01*
X222023809Y-104586904D01*
X222023809Y-104301190D01*
X221976190Y-104205952D01*
X221928571Y-104158333D01*
X221833333Y-104110714D01*
X221642857Y-104110714D01*
X221547619Y-104158333D01*
X220976190Y-104777380D02*
X221071428Y-104729761D01*
X221119047Y-104682142D01*
X221166666Y-104586904D01*
X221166666Y-104301190D01*
X221119047Y-104205952D01*
X221071428Y-104158333D01*
X220976190Y-104110714D01*
X220833333Y-104110714D01*
X220738095Y-104158333D01*
X220690476Y-104205952D01*
X220642857Y-104301190D01*
X220642857Y-104586904D01*
X220690476Y-104682142D01*
X220738095Y-104729761D01*
X220833333Y-104777380D01*
X220976190Y-104777380D01*
X220214285Y-104777380D02*
X220214285Y-104110714D01*
X220214285Y-104205952D02*
X220166666Y-104158333D01*
X220071428Y-104110714D01*
X219928571Y-104110714D01*
X219833333Y-104158333D01*
X219785714Y-104253571D01*
X219785714Y-104777380D01*
X219785714Y-104253571D02*
X219738095Y-104158333D01*
X219642857Y-104110714D01*
X219500000Y-104110714D01*
X219404761Y-104158333D01*
X219357142Y-104253571D01*
X219357142Y-104777380D01*
X218166666Y-103729761D02*
X219023809Y-105015476D01*
X217261904Y-104682142D02*
X217309523Y-104729761D01*
X217452380Y-104777380D01*
X217547619Y-104777380D01*
X217690476Y-104729761D01*
X217785714Y-104634523D01*
X217833333Y-104539285D01*
X217880952Y-104348809D01*
X217880952Y-104205952D01*
X217833333Y-104015476D01*
X217785714Y-103920238D01*
X217690476Y-103825000D01*
X217547619Y-103777380D01*
X217452380Y-103777380D01*
X217309523Y-103825000D01*
X217261904Y-103872619D01*
X216690476Y-104777380D02*
X216785714Y-104729761D01*
X216833333Y-104634523D01*
X216833333Y-103777380D01*
X215928571Y-104729761D02*
X216023809Y-104777380D01*
X216214285Y-104777380D01*
X216309523Y-104729761D01*
X216357142Y-104634523D01*
X216357142Y-104253571D01*
X216309523Y-104158333D01*
X216214285Y-104110714D01*
X216023809Y-104110714D01*
X215928571Y-104158333D01*
X215880952Y-104253571D01*
X215880952Y-104348809D01*
X216357142Y-104444047D01*
X215452380Y-104777380D02*
X215452380Y-104110714D01*
X215452380Y-104205952D02*
X215404761Y-104158333D01*
X215309523Y-104110714D01*
X215166666Y-104110714D01*
X215071428Y-104158333D01*
X215023809Y-104253571D01*
X215023809Y-104777380D01*
X215023809Y-104253571D02*
X214976190Y-104158333D01*
X214880952Y-104110714D01*
X214738095Y-104110714D01*
X214642857Y-104158333D01*
X214595238Y-104253571D01*
X214595238Y-104777380D01*
X213738095Y-104729761D02*
X213833333Y-104777380D01*
X214023809Y-104777380D01*
X214119047Y-104729761D01*
X214166666Y-104634523D01*
X214166666Y-104253571D01*
X214119047Y-104158333D01*
X214023809Y-104110714D01*
X213833333Y-104110714D01*
X213738095Y-104158333D01*
X213690476Y-104253571D01*
X213690476Y-104348809D01*
X214166666Y-104444047D01*
X213261904Y-104110714D02*
X213261904Y-104777380D01*
X213261904Y-104205952D02*
X213214285Y-104158333D01*
X213119047Y-104110714D01*
X212976190Y-104110714D01*
X212880952Y-104158333D01*
X212833333Y-104253571D01*
X212833333Y-104777380D01*
X212404761Y-104729761D02*
X212309523Y-104777380D01*
X212119047Y-104777380D01*
X212023809Y-104729761D01*
X211976190Y-104634523D01*
X211976190Y-104586904D01*
X212023809Y-104491666D01*
X212119047Y-104444047D01*
X212261904Y-104444047D01*
X212357142Y-104396428D01*
X212404761Y-104301190D01*
X212404761Y-104253571D01*
X212357142Y-104158333D01*
X212261904Y-104110714D01*
X212119047Y-104110714D01*
X212023809Y-104158333D01*
X211547619Y-104253571D02*
X211214285Y-104253571D01*
X211071428Y-104777380D02*
X211547619Y-104777380D01*
X211547619Y-103777380D01*
X211071428Y-103777380D01*
X210500000Y-104777380D02*
X210595238Y-104729761D01*
X210642857Y-104634523D01*
X210642857Y-103777380D01*
X210261904Y-104110714D02*
X209880952Y-104110714D01*
X210119047Y-104777380D02*
X210119047Y-103920238D01*
X210071428Y-103825000D01*
X209976190Y-103777380D01*
X209880952Y-103777380D01*
X209404761Y-104777380D02*
X209500000Y-104729761D01*
X209547619Y-104634523D01*
X209547619Y-103777380D01*
X208642857Y-104729761D02*
X208738095Y-104777380D01*
X208928571Y-104777380D01*
X209023809Y-104729761D01*
X209071428Y-104634523D01*
X209071428Y-104253571D01*
X209023809Y-104158333D01*
X208928571Y-104110714D01*
X208738095Y-104110714D01*
X208642857Y-104158333D01*
X208595238Y-104253571D01*
X208595238Y-104348809D01*
X209071428Y-104444047D01*
X208166666Y-104777380D02*
X208166666Y-104110714D01*
X208166666Y-103777380D02*
X208214285Y-103825000D01*
X208166666Y-103872619D01*
X208119047Y-103825000D01*
X208166666Y-103777380D01*
X208166666Y-103872619D01*
X207690476Y-104110714D02*
X207690476Y-104777380D01*
X207690476Y-104205952D02*
X207642857Y-104158333D01*
X207547619Y-104110714D01*
X207404761Y-104110714D01*
X207309523Y-104158333D01*
X207261904Y-104253571D01*
X207261904Y-104777380D01*
X206071428Y-103729761D02*
X206928571Y-105015476D01*
X205833333Y-104777380D02*
X205309523Y-104110714D01*
X205833333Y-104110714D02*
X205309523Y-104777380D01*
X204928571Y-104253571D02*
X204595238Y-104253571D01*
X204452380Y-104777380D02*
X204928571Y-104777380D01*
X204928571Y-103777380D01*
X204452380Y-103777380D01*
X204071428Y-104729761D02*
X203928571Y-104777380D01*
X203690476Y-104777380D01*
X203595238Y-104729761D01*
X203547619Y-104682142D01*
X203500000Y-104586904D01*
X203500000Y-104491666D01*
X203547619Y-104396428D01*
X203595238Y-104348809D01*
X203690476Y-104301190D01*
X203880952Y-104253571D01*
X203976190Y-104205952D01*
X204023809Y-104158333D01*
X204071428Y-104063095D01*
X204071428Y-103967857D01*
X204023809Y-103872619D01*
X203976190Y-103825000D01*
X203880952Y-103777380D01*
X203642857Y-103777380D01*
X203500000Y-103825000D01*
X202500000Y-104682142D02*
X202547619Y-104729761D01*
X202690476Y-104777380D01*
X202785714Y-104777380D01*
X202928571Y-104729761D01*
X203023809Y-104634523D01*
X203071428Y-104539285D01*
X203119047Y-104348809D01*
X203119047Y-104205952D01*
X203071428Y-104015476D01*
X203023809Y-103920238D01*
X202928571Y-103825000D01*
X202785714Y-103777380D01*
X202690476Y-103777380D01*
X202547619Y-103825000D01*
X202500000Y-103872619D01*
D11*
X236000000Y-110500000D02*
X236000000Y-131500000D01*
X255000000Y-101750000D02*
X255000000Y-140250000D01*
D12*
%TO.C,REF\u002A\u002A*%
G36*
X217777906Y-108691158D02*
G01*
X217745381Y-108703736D01*
X217695807Y-108728712D01*
X217624626Y-108767876D01*
X217619084Y-108770988D01*
X217553526Y-108808476D01*
X217498202Y-108841319D01*
X217458545Y-108866205D01*
X217439988Y-108879820D01*
X217439469Y-108880487D01*
X217443952Y-108899390D01*
X217464514Y-108941605D01*
X217499817Y-109004832D01*
X217548520Y-109086772D01*
X217609282Y-109185122D01*
X217680764Y-109297585D01*
X217698555Y-109325165D01*
X217744907Y-109401699D01*
X217778658Y-109467556D01*
X217796847Y-109516782D01*
X217798714Y-109526507D01*
X217797885Y-109569312D01*
X217788606Y-109637209D01*
X217772032Y-109725843D01*
X217749320Y-109830859D01*
X217721627Y-109947902D01*
X217690110Y-110072616D01*
X217655925Y-110200645D01*
X217620229Y-110327634D01*
X217584179Y-110449228D01*
X217548932Y-110561072D01*
X217515644Y-110658810D01*
X217485472Y-110738087D01*
X217464439Y-110785122D01*
X217439663Y-110835225D01*
X217416270Y-110883168D01*
X217415003Y-110885793D01*
X217376301Y-110934220D01*
X217319816Y-110966828D01*
X217254061Y-110982454D01*
X217187549Y-110979937D01*
X217128795Y-110958114D01*
X217095742Y-110929382D01*
X217048141Y-110850583D01*
X217013261Y-110752378D01*
X216994123Y-110644779D01*
X216991412Y-110583780D01*
X217002330Y-110469935D01*
X217034376Y-110375660D01*
X217089274Y-110296379D01*
X217106393Y-110278733D01*
X217157339Y-110229235D01*
X217160837Y-109879362D01*
X217164336Y-109529489D01*
X217075182Y-109394531D01*
X217033346Y-109333445D01*
X216993055Y-109278493D01*
X216960057Y-109237336D01*
X216945874Y-109222192D01*
X216905719Y-109184810D01*
X216851335Y-109214098D01*
X216816961Y-109235084D01*
X216798154Y-109251378D01*
X216796951Y-109254307D01*
X216784097Y-109266728D01*
X216762104Y-109275977D01*
X216740850Y-109284313D01*
X216708306Y-109300149D01*
X216661678Y-109325033D01*
X216598171Y-109360509D01*
X216514992Y-109408123D01*
X216409347Y-109469422D01*
X216351938Y-109502932D01*
X216284406Y-109543071D01*
X216240115Y-109571659D01*
X216215145Y-109592039D01*
X216205577Y-109607553D01*
X216207492Y-109621546D01*
X216209089Y-109624796D01*
X216224624Y-109645266D01*
X216257864Y-109683665D01*
X216304938Y-109735696D01*
X216361972Y-109797066D01*
X216411300Y-109849090D01*
X216524970Y-109972567D01*
X216613895Y-110079591D01*
X216678866Y-110171240D01*
X216720679Y-110248588D01*
X216734783Y-110287866D01*
X216740608Y-110322249D01*
X216746625Y-110380899D01*
X216752304Y-110457117D01*
X216757116Y-110544202D01*
X216759381Y-110599268D01*
X216762541Y-110694464D01*
X216763931Y-110764062D01*
X216763142Y-110813409D01*
X216759765Y-110847854D01*
X216753392Y-110872743D01*
X216743613Y-110893425D01*
X216735933Y-110906053D01*
X216691579Y-110954726D01*
X216634426Y-110988645D01*
X216574292Y-111003438D01*
X216529227Y-110998086D01*
X216488424Y-110974930D01*
X216437276Y-110933462D01*
X216382958Y-110880912D01*
X216332643Y-110824516D01*
X216293506Y-110771505D01*
X216279095Y-110745889D01*
X216257509Y-110710814D01*
X216218247Y-110657389D01*
X216164898Y-110589789D01*
X216101048Y-110512190D01*
X216030285Y-110428768D01*
X215956196Y-110343698D01*
X215882368Y-110261155D01*
X215812389Y-110185316D01*
X215749845Y-110120356D01*
X215700740Y-110072669D01*
X215646221Y-110025032D01*
X215600358Y-109989908D01*
X215568189Y-109970949D01*
X215557511Y-109968864D01*
X215541147Y-109977274D01*
X215500329Y-109999846D01*
X215437414Y-110035224D01*
X215354756Y-110082054D01*
X215254711Y-110138981D01*
X215139634Y-110204649D01*
X215011881Y-110277703D01*
X214873806Y-110356788D01*
X214727766Y-110440548D01*
X214576116Y-110527629D01*
X214421210Y-110616676D01*
X214265405Y-110706332D01*
X214111056Y-110795243D01*
X213960518Y-110882054D01*
X213816146Y-110965409D01*
X213680296Y-111043954D01*
X213555323Y-111116333D01*
X213443583Y-111181190D01*
X213347430Y-111237171D01*
X213269221Y-111282920D01*
X213211311Y-111317083D01*
X213176054Y-111338304D01*
X213165835Y-111344963D01*
X213179598Y-111346280D01*
X213222896Y-111347559D01*
X213294286Y-111348796D01*
X213392327Y-111349983D01*
X213515578Y-111351115D01*
X213662597Y-111352186D01*
X213831943Y-111353189D01*
X214022174Y-111354119D01*
X214231849Y-111354968D01*
X214459527Y-111355732D01*
X214703765Y-111356403D01*
X214963123Y-111356976D01*
X215236159Y-111357444D01*
X215521432Y-111357802D01*
X215817500Y-111358042D01*
X216122921Y-111358159D01*
X216251076Y-111358171D01*
X219351030Y-111358171D01*
X219129947Y-110974847D01*
X219083144Y-110893680D01*
X219022898Y-110789166D01*
X218951222Y-110664801D01*
X218870131Y-110524082D01*
X218781638Y-110370503D01*
X218687760Y-110207562D01*
X218590509Y-110038754D01*
X218491900Y-109867575D01*
X218393947Y-109697521D01*
X218369175Y-109654512D01*
X218278848Y-109497857D01*
X218192711Y-109348803D01*
X218112058Y-109209568D01*
X218038184Y-109082371D01*
X217972383Y-108969432D01*
X217915950Y-108872968D01*
X217870179Y-108795200D01*
X217836365Y-108738346D01*
X217815802Y-108704625D01*
X217810047Y-108696040D01*
X217797942Y-108689189D01*
X217777906Y-108691158D01*
G37*
X217777906Y-108691158D02*
X217745381Y-108703736D01*
X217695807Y-108728712D01*
X217624626Y-108767876D01*
X217619084Y-108770988D01*
X217553526Y-108808476D01*
X217498202Y-108841319D01*
X217458545Y-108866205D01*
X217439988Y-108879820D01*
X217439469Y-108880487D01*
X217443952Y-108899390D01*
X217464514Y-108941605D01*
X217499817Y-109004832D01*
X217548520Y-109086772D01*
X217609282Y-109185122D01*
X217680764Y-109297585D01*
X217698555Y-109325165D01*
X217744907Y-109401699D01*
X217778658Y-109467556D01*
X217796847Y-109516782D01*
X217798714Y-109526507D01*
X217797885Y-109569312D01*
X217788606Y-109637209D01*
X217772032Y-109725843D01*
X217749320Y-109830859D01*
X217721627Y-109947902D01*
X217690110Y-110072616D01*
X217655925Y-110200645D01*
X217620229Y-110327634D01*
X217584179Y-110449228D01*
X217548932Y-110561072D01*
X217515644Y-110658810D01*
X217485472Y-110738087D01*
X217464439Y-110785122D01*
X217439663Y-110835225D01*
X217416270Y-110883168D01*
X217415003Y-110885793D01*
X217376301Y-110934220D01*
X217319816Y-110966828D01*
X217254061Y-110982454D01*
X217187549Y-110979937D01*
X217128795Y-110958114D01*
X217095742Y-110929382D01*
X217048141Y-110850583D01*
X217013261Y-110752378D01*
X216994123Y-110644779D01*
X216991412Y-110583780D01*
X217002330Y-110469935D01*
X217034376Y-110375660D01*
X217089274Y-110296379D01*
X217106393Y-110278733D01*
X217157339Y-110229235D01*
X217160837Y-109879362D01*
X217164336Y-109529489D01*
X217075182Y-109394531D01*
X217033346Y-109333445D01*
X216993055Y-109278493D01*
X216960057Y-109237336D01*
X216945874Y-109222192D01*
X216905719Y-109184810D01*
X216851335Y-109214098D01*
X216816961Y-109235084D01*
X216798154Y-109251378D01*
X216796951Y-109254307D01*
X216784097Y-109266728D01*
X216762104Y-109275977D01*
X216740850Y-109284313D01*
X216708306Y-109300149D01*
X216661678Y-109325033D01*
X216598171Y-109360509D01*
X216514992Y-109408123D01*
X216409347Y-109469422D01*
X216351938Y-109502932D01*
X216284406Y-109543071D01*
X216240115Y-109571659D01*
X216215145Y-109592039D01*
X216205577Y-109607553D01*
X216207492Y-109621546D01*
X216209089Y-109624796D01*
X216224624Y-109645266D01*
X216257864Y-109683665D01*
X216304938Y-109735696D01*
X216361972Y-109797066D01*
X216411300Y-109849090D01*
X216524970Y-109972567D01*
X216613895Y-110079591D01*
X216678866Y-110171240D01*
X216720679Y-110248588D01*
X216734783Y-110287866D01*
X216740608Y-110322249D01*
X216746625Y-110380899D01*
X216752304Y-110457117D01*
X216757116Y-110544202D01*
X216759381Y-110599268D01*
X216762541Y-110694464D01*
X216763931Y-110764062D01*
X216763142Y-110813409D01*
X216759765Y-110847854D01*
X216753392Y-110872743D01*
X216743613Y-110893425D01*
X216735933Y-110906053D01*
X216691579Y-110954726D01*
X216634426Y-110988645D01*
X216574292Y-111003438D01*
X216529227Y-110998086D01*
X216488424Y-110974930D01*
X216437276Y-110933462D01*
X216382958Y-110880912D01*
X216332643Y-110824516D01*
X216293506Y-110771505D01*
X216279095Y-110745889D01*
X216257509Y-110710814D01*
X216218247Y-110657389D01*
X216164898Y-110589789D01*
X216101048Y-110512190D01*
X216030285Y-110428768D01*
X215956196Y-110343698D01*
X215882368Y-110261155D01*
X215812389Y-110185316D01*
X215749845Y-110120356D01*
X215700740Y-110072669D01*
X215646221Y-110025032D01*
X215600358Y-109989908D01*
X215568189Y-109970949D01*
X215557511Y-109968864D01*
X215541147Y-109977274D01*
X215500329Y-109999846D01*
X215437414Y-110035224D01*
X215354756Y-110082054D01*
X215254711Y-110138981D01*
X215139634Y-110204649D01*
X215011881Y-110277703D01*
X214873806Y-110356788D01*
X214727766Y-110440548D01*
X214576116Y-110527629D01*
X214421210Y-110616676D01*
X214265405Y-110706332D01*
X214111056Y-110795243D01*
X213960518Y-110882054D01*
X213816146Y-110965409D01*
X213680296Y-111043954D01*
X213555323Y-111116333D01*
X213443583Y-111181190D01*
X213347430Y-111237171D01*
X213269221Y-111282920D01*
X213211311Y-111317083D01*
X213176054Y-111338304D01*
X213165835Y-111344963D01*
X213179598Y-111346280D01*
X213222896Y-111347559D01*
X213294286Y-111348796D01*
X213392327Y-111349983D01*
X213515578Y-111351115D01*
X213662597Y-111352186D01*
X213831943Y-111353189D01*
X214022174Y-111354119D01*
X214231849Y-111354968D01*
X214459527Y-111355732D01*
X214703765Y-111356403D01*
X214963123Y-111356976D01*
X215236159Y-111357444D01*
X215521432Y-111357802D01*
X215817500Y-111358042D01*
X216122921Y-111358159D01*
X216251076Y-111358171D01*
X219351030Y-111358171D01*
X219129947Y-110974847D01*
X219083144Y-110893680D01*
X219022898Y-110789166D01*
X218951222Y-110664801D01*
X218870131Y-110524082D01*
X218781638Y-110370503D01*
X218687760Y-110207562D01*
X218590509Y-110038754D01*
X218491900Y-109867575D01*
X218393947Y-109697521D01*
X218369175Y-109654512D01*
X218278848Y-109497857D01*
X218192711Y-109348803D01*
X218112058Y-109209568D01*
X218038184Y-109082371D01*
X217972383Y-108969432D01*
X217915950Y-108872968D01*
X217870179Y-108795200D01*
X217836365Y-108738346D01*
X217815802Y-108704625D01*
X217810047Y-108696040D01*
X217797942Y-108689189D01*
X217777906Y-108691158D01*
G36*
X214112472Y-108634619D02*
G01*
X214101092Y-108653693D01*
X214075512Y-108697421D01*
X214036998Y-108763619D01*
X213986814Y-108850102D01*
X213926225Y-108954685D01*
X213856497Y-109075183D01*
X213778893Y-109209412D01*
X213694680Y-109355187D01*
X213605121Y-109510323D01*
X213513002Y-109670000D01*
X213418924Y-109833117D01*
X213328598Y-109989709D01*
X213243335Y-110137506D01*
X213164443Y-110274240D01*
X213093231Y-110397642D01*
X213031009Y-110505444D01*
X212979087Y-110595377D01*
X212938772Y-110665173D01*
X212911376Y-110712564D01*
X212898493Y-110734786D01*
X212877493Y-110772330D01*
X212866075Y-110795831D01*
X212865449Y-110799920D01*
X212879364Y-110792242D01*
X212918059Y-110770203D01*
X212979513Y-110734971D01*
X213061702Y-110687711D01*
X213162604Y-110629589D01*
X213280195Y-110561771D01*
X213412454Y-110485424D01*
X213557358Y-110401714D01*
X213712883Y-110311806D01*
X213877008Y-110216867D01*
X213939451Y-110180732D01*
X214106513Y-110084083D01*
X214265926Y-109991938D01*
X214415645Y-109905475D01*
X214553624Y-109825871D01*
X214677815Y-109754305D01*
X214786173Y-109691955D01*
X214876652Y-109639998D01*
X214947204Y-109599613D01*
X214995785Y-109571978D01*
X215020346Y-109558272D01*
X215022915Y-109556974D01*
X215015431Y-109545220D01*
X214989386Y-109513795D01*
X214947441Y-109465594D01*
X214892254Y-109403510D01*
X214826483Y-109330439D01*
X214752788Y-109249276D01*
X214673827Y-109162916D01*
X214592260Y-109074253D01*
X214510746Y-108986182D01*
X214431943Y-108901599D01*
X214358510Y-108823397D01*
X214293107Y-108754472D01*
X214238392Y-108697719D01*
X214197023Y-108656032D01*
X214182836Y-108642363D01*
X214135820Y-108598201D01*
X214112472Y-108634619D01*
G37*
X214112472Y-108634619D02*
X214101092Y-108653693D01*
X214075512Y-108697421D01*
X214036998Y-108763619D01*
X213986814Y-108850102D01*
X213926225Y-108954685D01*
X213856497Y-109075183D01*
X213778893Y-109209412D01*
X213694680Y-109355187D01*
X213605121Y-109510323D01*
X213513002Y-109670000D01*
X213418924Y-109833117D01*
X213328598Y-109989709D01*
X213243335Y-110137506D01*
X213164443Y-110274240D01*
X213093231Y-110397642D01*
X213031009Y-110505444D01*
X212979087Y-110595377D01*
X212938772Y-110665173D01*
X212911376Y-110712564D01*
X212898493Y-110734786D01*
X212877493Y-110772330D01*
X212866075Y-110795831D01*
X212865449Y-110799920D01*
X212879364Y-110792242D01*
X212918059Y-110770203D01*
X212979513Y-110734971D01*
X213061702Y-110687711D01*
X213162604Y-110629589D01*
X213280195Y-110561771D01*
X213412454Y-110485424D01*
X213557358Y-110401714D01*
X213712883Y-110311806D01*
X213877008Y-110216867D01*
X213939451Y-110180732D01*
X214106513Y-110084083D01*
X214265926Y-109991938D01*
X214415645Y-109905475D01*
X214553624Y-109825871D01*
X214677815Y-109754305D01*
X214786173Y-109691955D01*
X214876652Y-109639998D01*
X214947204Y-109599613D01*
X214995785Y-109571978D01*
X215020346Y-109558272D01*
X215022915Y-109556974D01*
X215015431Y-109545220D01*
X214989386Y-109513795D01*
X214947441Y-109465594D01*
X214892254Y-109403510D01*
X214826483Y-109330439D01*
X214752788Y-109249276D01*
X214673827Y-109162916D01*
X214592260Y-109074253D01*
X214510746Y-108986182D01*
X214431943Y-108901599D01*
X214358510Y-108823397D01*
X214293107Y-108754472D01*
X214238392Y-108697719D01*
X214197023Y-108656032D01*
X214182836Y-108642363D01*
X214135820Y-108598201D01*
X214112472Y-108634619D01*
G36*
X215935957Y-105485835D02*
G01*
X215912935Y-105523245D01*
X215877466Y-105582514D01*
X215831004Y-105661118D01*
X215775004Y-105756538D01*
X215710919Y-105866250D01*
X215640204Y-105987734D01*
X215564313Y-106118468D01*
X215484701Y-106255930D01*
X215402822Y-106397598D01*
X215320130Y-106540951D01*
X215238079Y-106683467D01*
X215158124Y-106822624D01*
X215081719Y-106955901D01*
X215010318Y-107080776D01*
X214945376Y-107194727D01*
X214888347Y-107295233D01*
X214840685Y-107379772D01*
X214803845Y-107445822D01*
X214779280Y-107490862D01*
X214768446Y-107512370D01*
X214768049Y-107513714D01*
X214781499Y-107531965D01*
X214818886Y-107559882D01*
X214875765Y-107594725D01*
X214947688Y-107633754D01*
X215022985Y-107670843D01*
X215125440Y-107715817D01*
X215233183Y-107756226D01*
X215349927Y-107792969D01*
X215479382Y-107826942D01*
X215625260Y-107859044D01*
X215791274Y-107890173D01*
X215981134Y-107921227D01*
X216177531Y-107950145D01*
X216348166Y-107975800D01*
X216491455Y-108001198D01*
X216610992Y-108027602D01*
X216710370Y-108056273D01*
X216793182Y-108088473D01*
X216863022Y-108125465D01*
X216923482Y-108168512D01*
X216978155Y-108218875D01*
X216995786Y-108237583D01*
X217034000Y-108281139D01*
X217062268Y-108316682D01*
X217075382Y-108337583D01*
X217075732Y-108339297D01*
X217080320Y-108349806D01*
X217096242Y-108349924D01*
X217126734Y-108338254D01*
X217175032Y-108313396D01*
X217244373Y-108273952D01*
X217292561Y-108245587D01*
X217364417Y-108201247D01*
X217420258Y-108163279D01*
X217456333Y-108134416D01*
X217468887Y-108117388D01*
X217468879Y-108117264D01*
X217461094Y-108101037D01*
X217439108Y-108060400D01*
X217404197Y-107997567D01*
X217357637Y-107914752D01*
X217300705Y-107814172D01*
X217234677Y-107698040D01*
X217160828Y-107568571D01*
X217080436Y-107427980D01*
X216994776Y-107278482D01*
X216905124Y-107122292D01*
X216812757Y-106961624D01*
X216718951Y-106798693D01*
X216624982Y-106635713D01*
X216532126Y-106474900D01*
X216441660Y-106318468D01*
X216354859Y-106168633D01*
X216273000Y-106027608D01*
X216197359Y-105897609D01*
X216129213Y-105780849D01*
X216069837Y-105679545D01*
X216020507Y-105595911D01*
X215982500Y-105532162D01*
X215957093Y-105490511D01*
X215945560Y-105473175D01*
X215945077Y-105472805D01*
X215935957Y-105485835D01*
G37*
X215935957Y-105485835D02*
X215912935Y-105523245D01*
X215877466Y-105582514D01*
X215831004Y-105661118D01*
X215775004Y-105756538D01*
X215710919Y-105866250D01*
X215640204Y-105987734D01*
X215564313Y-106118468D01*
X215484701Y-106255930D01*
X215402822Y-106397598D01*
X215320130Y-106540951D01*
X215238079Y-106683467D01*
X215158124Y-106822624D01*
X215081719Y-106955901D01*
X215010318Y-107080776D01*
X214945376Y-107194727D01*
X214888347Y-107295233D01*
X214840685Y-107379772D01*
X214803845Y-107445822D01*
X214779280Y-107490862D01*
X214768446Y-107512370D01*
X214768049Y-107513714D01*
X214781499Y-107531965D01*
X214818886Y-107559882D01*
X214875765Y-107594725D01*
X214947688Y-107633754D01*
X215022985Y-107670843D01*
X215125440Y-107715817D01*
X215233183Y-107756226D01*
X215349927Y-107792969D01*
X215479382Y-107826942D01*
X215625260Y-107859044D01*
X215791274Y-107890173D01*
X215981134Y-107921227D01*
X216177531Y-107950145D01*
X216348166Y-107975800D01*
X216491455Y-108001198D01*
X216610992Y-108027602D01*
X216710370Y-108056273D01*
X216793182Y-108088473D01*
X216863022Y-108125465D01*
X216923482Y-108168512D01*
X216978155Y-108218875D01*
X216995786Y-108237583D01*
X217034000Y-108281139D01*
X217062268Y-108316682D01*
X217075382Y-108337583D01*
X217075732Y-108339297D01*
X217080320Y-108349806D01*
X217096242Y-108349924D01*
X217126734Y-108338254D01*
X217175032Y-108313396D01*
X217244373Y-108273952D01*
X217292561Y-108245587D01*
X217364417Y-108201247D01*
X217420258Y-108163279D01*
X217456333Y-108134416D01*
X217468887Y-108117388D01*
X217468879Y-108117264D01*
X217461094Y-108101037D01*
X217439108Y-108060400D01*
X217404197Y-107997567D01*
X217357637Y-107914752D01*
X217300705Y-107814172D01*
X217234677Y-107698040D01*
X217160828Y-107568571D01*
X217080436Y-107427980D01*
X216994776Y-107278482D01*
X216905124Y-107122292D01*
X216812757Y-106961624D01*
X216718951Y-106798693D01*
X216624982Y-106635713D01*
X216532126Y-106474900D01*
X216441660Y-106318468D01*
X216354859Y-106168633D01*
X216273000Y-106027608D01*
X216197359Y-105897609D01*
X216129213Y-105780849D01*
X216069837Y-105679545D01*
X216020507Y-105595911D01*
X215982500Y-105532162D01*
X215957093Y-105490511D01*
X215945560Y-105473175D01*
X215945077Y-105472805D01*
X215935957Y-105485835D01*
%TO.C,G\u002A\u002A\u002A*%
G36*
X205888222Y-106188222D02*
G01*
X207101778Y-106188222D01*
X207101778Y-105934222D01*
X205662444Y-105934222D01*
X205662444Y-107373556D01*
X205888222Y-107373556D01*
X205888222Y-106188222D01*
G37*
X205888222Y-106188222D02*
X207101778Y-106188222D01*
X207101778Y-105934222D01*
X205662444Y-105934222D01*
X205662444Y-107373556D01*
X205888222Y-107373556D01*
X205888222Y-106188222D01*
G36*
X211081111Y-105934222D02*
G01*
X209641778Y-105934222D01*
X209641778Y-106160000D01*
X210855333Y-106160000D01*
X210855333Y-107373556D01*
X211081111Y-107373556D01*
X211081111Y-105934222D01*
G37*
X211081111Y-105934222D02*
X209641778Y-105934222D01*
X209641778Y-106160000D01*
X210855333Y-106160000D01*
X210855333Y-107373556D01*
X211081111Y-107373556D01*
X211081111Y-105934222D01*
G36*
X208936086Y-107416025D02*
G01*
X209500388Y-106852252D01*
X209415745Y-106767608D01*
X209331102Y-106682965D01*
X208851440Y-107162005D01*
X208371778Y-107641044D01*
X207898753Y-107168633D01*
X207765205Y-107035903D01*
X207644925Y-106917586D01*
X207543623Y-106819200D01*
X207467009Y-106746262D01*
X207420792Y-106704288D01*
X207409783Y-106696222D01*
X207381372Y-106714672D01*
X207334595Y-106759295D01*
X207332475Y-106761541D01*
X207289487Y-106814984D01*
X207271120Y-106853066D01*
X207271111Y-106853535D01*
X207290329Y-106879711D01*
X207344562Y-106940187D01*
X207428678Y-107029585D01*
X207537542Y-107142529D01*
X207666024Y-107273643D01*
X207808989Y-107417550D01*
X207821448Y-107430003D01*
X208371784Y-107979797D01*
X208936086Y-107416025D01*
G37*
X208936086Y-107416025D02*
X209500388Y-106852252D01*
X209415745Y-106767608D01*
X209331102Y-106682965D01*
X208851440Y-107162005D01*
X208371778Y-107641044D01*
X207898753Y-107168633D01*
X207765205Y-107035903D01*
X207644925Y-106917586D01*
X207543623Y-106819200D01*
X207467009Y-106746262D01*
X207420792Y-106704288D01*
X207409783Y-106696222D01*
X207381372Y-106714672D01*
X207334595Y-106759295D01*
X207332475Y-106761541D01*
X207289487Y-106814984D01*
X207271120Y-106853066D01*
X207271111Y-106853535D01*
X207290329Y-106879711D01*
X207344562Y-106940187D01*
X207428678Y-107029585D01*
X207537542Y-107142529D01*
X207666024Y-107273643D01*
X207808989Y-107417550D01*
X207821448Y-107430003D01*
X208371784Y-107979797D01*
X208936086Y-107416025D01*
G36*
X206605031Y-109724989D02*
G01*
X206666483Y-109670715D01*
X206756738Y-109586539D01*
X206870377Y-109477600D01*
X207001980Y-109349037D01*
X207146126Y-109205989D01*
X207158222Y-109193889D01*
X207708012Y-108643556D01*
X207158222Y-108093222D01*
X207013294Y-107949223D01*
X206880470Y-107819292D01*
X206765170Y-107708567D01*
X206672813Y-107622188D01*
X206608818Y-107565293D01*
X206578607Y-107543021D01*
X206577802Y-107542889D01*
X206539322Y-107561811D01*
X206486119Y-107608007D01*
X206480004Y-107614386D01*
X206412836Y-107685883D01*
X206891051Y-108164719D01*
X207369266Y-108643556D01*
X206412836Y-109601228D01*
X206480004Y-109672725D01*
X206533511Y-109721052D01*
X206574802Y-109743938D01*
X206577802Y-109744222D01*
X206605031Y-109724989D01*
G37*
X206605031Y-109724989D02*
X206666483Y-109670715D01*
X206756738Y-109586539D01*
X206870377Y-109477600D01*
X207001980Y-109349037D01*
X207146126Y-109205989D01*
X207158222Y-109193889D01*
X207708012Y-108643556D01*
X207158222Y-108093222D01*
X207013294Y-107949223D01*
X206880470Y-107819292D01*
X206765170Y-107708567D01*
X206672813Y-107622188D01*
X206608818Y-107565293D01*
X206578607Y-107543021D01*
X206577802Y-107542889D01*
X206539322Y-107561811D01*
X206486119Y-107608007D01*
X206480004Y-107614386D01*
X206412836Y-107685883D01*
X206891051Y-108164719D01*
X207369266Y-108643556D01*
X206412836Y-109601228D01*
X206480004Y-109672725D01*
X206533511Y-109721052D01*
X206574802Y-109743938D01*
X206577802Y-109744222D01*
X206605031Y-109724989D01*
G36*
X210204233Y-109725300D02*
G01*
X210257436Y-109679105D01*
X210263551Y-109672725D01*
X210330719Y-109601228D01*
X209374289Y-108643556D01*
X209852504Y-108164719D01*
X210330719Y-107685883D01*
X210263551Y-107614386D01*
X210210044Y-107566059D01*
X210168753Y-107543173D01*
X210165753Y-107542889D01*
X210138524Y-107562122D01*
X210077072Y-107616396D01*
X209986817Y-107700572D01*
X209873178Y-107809511D01*
X209741575Y-107938074D01*
X209597429Y-108081122D01*
X209585333Y-108093222D01*
X209035543Y-108643556D01*
X209585333Y-109193889D01*
X209730261Y-109337888D01*
X209863085Y-109467819D01*
X209978385Y-109578544D01*
X210070742Y-109664924D01*
X210134737Y-109721819D01*
X210164948Y-109744090D01*
X210165753Y-109744222D01*
X210204233Y-109725300D01*
G37*
X210204233Y-109725300D02*
X210257436Y-109679105D01*
X210263551Y-109672725D01*
X210330719Y-109601228D01*
X209374289Y-108643556D01*
X209852504Y-108164719D01*
X210330719Y-107685883D01*
X210263551Y-107614386D01*
X210210044Y-107566059D01*
X210168753Y-107543173D01*
X210165753Y-107542889D01*
X210138524Y-107562122D01*
X210077072Y-107616396D01*
X209986817Y-107700572D01*
X209873178Y-107809511D01*
X209741575Y-107938074D01*
X209597429Y-108081122D01*
X209585333Y-108093222D01*
X209035543Y-108643556D01*
X209585333Y-109193889D01*
X209730261Y-109337888D01*
X209863085Y-109467819D01*
X209978385Y-109578544D01*
X210070742Y-109664924D01*
X210134737Y-109721819D01*
X210164948Y-109744090D01*
X210165753Y-109744222D01*
X210204233Y-109725300D01*
G36*
X209416026Y-110548530D02*
G01*
X209502215Y-110465956D01*
X208944317Y-109907533D01*
X208799079Y-109762663D01*
X208666888Y-109631769D01*
X208552946Y-109519927D01*
X208462460Y-109432214D01*
X208400633Y-109373706D01*
X208372671Y-109349479D01*
X208371771Y-109349111D01*
X208348788Y-109368283D01*
X208291281Y-109422388D01*
X208204498Y-109506308D01*
X208093689Y-109614925D01*
X207964102Y-109743122D01*
X207820987Y-109885781D01*
X207808101Y-109898676D01*
X207259078Y-110448241D01*
X207341650Y-110534428D01*
X207424223Y-110620615D01*
X207898000Y-110147452D01*
X208371778Y-109674289D01*
X208850807Y-110152697D01*
X209329837Y-110631105D01*
X209416026Y-110548530D01*
G37*
X209416026Y-110548530D02*
X209502215Y-110465956D01*
X208944317Y-109907533D01*
X208799079Y-109762663D01*
X208666888Y-109631769D01*
X208552946Y-109519927D01*
X208462460Y-109432214D01*
X208400633Y-109373706D01*
X208372671Y-109349479D01*
X208371771Y-109349111D01*
X208348788Y-109368283D01*
X208291281Y-109422388D01*
X208204498Y-109506308D01*
X208093689Y-109614925D01*
X207964102Y-109743122D01*
X207820987Y-109885781D01*
X207808101Y-109898676D01*
X207259078Y-110448241D01*
X207341650Y-110534428D01*
X207424223Y-110620615D01*
X207898000Y-110147452D01*
X208371778Y-109674289D01*
X208850807Y-110152697D01*
X209329837Y-110631105D01*
X209416026Y-110548530D01*
G36*
X207101778Y-111127111D02*
G01*
X205888222Y-111127111D01*
X205888222Y-109941778D01*
X205662444Y-109941778D01*
X205662444Y-111352889D01*
X207101778Y-111352889D01*
X207101778Y-111127111D01*
G37*
X207101778Y-111127111D02*
X205888222Y-111127111D01*
X205888222Y-109941778D01*
X205662444Y-109941778D01*
X205662444Y-111352889D01*
X207101778Y-111352889D01*
X207101778Y-111127111D01*
G36*
X211081111Y-109941778D02*
G01*
X210855333Y-109941778D01*
X210855333Y-111127111D01*
X209641778Y-111127111D01*
X209641778Y-111352889D01*
X211081111Y-111352889D01*
X211081111Y-109941778D01*
G37*
X211081111Y-109941778D02*
X210855333Y-109941778D01*
X210855333Y-111127111D01*
X209641778Y-111127111D01*
X209641778Y-111352889D01*
X211081111Y-111352889D01*
X211081111Y-109941778D01*
%TD*%
M02*
