<?xml version="1.0" encoding="UTF-8" standalone="no"?>
<svg
   width="7415.2163"
   height="6607.6587"
   viewBox="0 0 7415.2163 6607.6587"
   version="1.1"
   xml:space="preserve"
   style="clip-rule:evenodd;fill-rule:evenodd;stroke-linejoin:round;stroke-miterlimit:2"
   id="svg39"
   sodipodi:docname="logo_xtech2.svg"
   inkscape:version="1.2.1 (9c6d41e410, 2022-07-14)"
   xmlns:inkscape="http://www.inkscape.org/namespaces/inkscape"
   xmlns:sodipodi="http://sodipodi.sourceforge.net/DTD/sodipodi-0.dtd"
   xmlns="http://www.w3.org/2000/svg"
   xmlns:svg="http://www.w3.org/2000/svg"
   xmlns:serif="http://www.serif.com/"><defs
   id="defs43">
                        
                        
                    <clipPath
   clipPathUnits="userSpaceOnUse"
   id="clipPath351"><g
     id="g355"><rect
       x="0"
       y="0"
       width="1226"
       height="473"
       id="rect353" /></g></clipPath>
                            
                        
                                
                                
                                
                                
                                
                                
                            
                                    
                                <clipPath
   clipPathUnits="userSpaceOnUse"
   id="clipPath475"><g
     id="g485"><g
       id="g483"><g
         id="g481"><g
           id="g479"><rect
             x="0"
             y="0"
             width="1226"
             height="473"
             id="rect477" /></g></g></g></g></clipPath>
                                    
                                <clipPath
   clipPathUnits="userSpaceOnUse"
   id="clipPath498"><g
     id="g508"><g
       id="g506"><g
         id="g504"><g
           id="g502"><rect
             x="0"
             y="0"
             width="1226"
             height="473"
             id="rect500" /></g></g></g></g></clipPath>
                                    
                                <clipPath
   clipPathUnits="userSpaceOnUse"
   id="clipPath521"><g
     id="g531"><g
       id="g529"><g
         id="g527"><g
           id="g525"><rect
             x="0"
             y="0"
             width="1226"
             height="473"
             id="rect523" /></g></g></g></g></clipPath>
                                    
                                <clipPath
   clipPathUnits="userSpaceOnUse"
   id="clipPath544"><g
     id="g554"><g
       id="g552"><g
         id="g550"><g
           id="g548"><rect
             x="0"
             y="0"
             width="1226"
             height="473"
             id="rect546" /></g></g></g></g></clipPath>
                                    
                                <clipPath
   clipPathUnits="userSpaceOnUse"
   id="clipPath567"><g
     id="g577"><g
       id="g575"><g
         id="g573"><g
           id="g571"><rect
             x="0"
             y="0"
             width="1226"
             height="473"
             id="rect569" /></g></g></g></g></clipPath>
                                    
                                <clipPath
   clipPathUnits="userSpaceOnUse"
   id="clipPath590"><g
     id="g600"><g
       id="g598"><g
         id="g596"><g
           id="g594"><rect
             x="0"
             y="0"
             width="1226"
             height="473"
             id="rect592" /></g></g></g></g></clipPath></defs><sodipodi:namedview
   id="namedview41"
   pagecolor="#ffffff"
   bordercolor="#000000"
   borderopacity="0.25"
   inkscape:showpageshadow="2"
   inkscape:pageopacity="0.0"
   inkscape:pagecheckerboard="0"
   inkscape:deskcolor="#d1d1d1"
   showgrid="false"
   inkscape:zoom="0.06036"
   inkscape:cx="8026.839"
   inkscape:cy="3313.4526"
   inkscape:window-width="3840"
   inkscape:window-height="2054"
   inkscape:window-x="-11"
   inkscape:window-y="-11"
   inkscape:window-maximized="1"
   inkscape:current-layer="x-tech.ai1" />
    <g
   id="Ebene-1"
   serif:id="Ebene 1"
   transform="matrix(4.16667,0,0,4.16667,-7253.0526,-862.84071)">
        <g
   id="x-tech.ai"
   transform="matrix(3.90785,0,0,3.90785,4000,1000)">
            <g
   id="Ebene-11"
   serif:id="Ebene 1">
                <g
   id="x-tech.ai1"
   serif:id="x-tech.ai"
   transform="translate(-613,-236.5)">
                    
                    <rect
   id="Page-1"
   serif:id="Page 1"
   x="0"
   y="0"
   width="1226"
   height="473"
   style="fill:none"
   clip-path="url(#clipPath351)" /><path
   d="M 353.84,264.504 455.877,420.786 H 309.896 l -47.329,-72.493 -47.331,72.493 h -83.193 l 62.484,-95.701 H 311.62 c 3.216,5.334 9.047,8.913 15.73,8.913 10.147,0 18.373,-8.226 18.373,-18.374 0,-10.148 -8.226,-18.374 -18.373,-18.374 -6.81,0 -12.74,3.714 -15.914,9.217 H 184.448 l -74.64,114.319 H 69.255 l 82.532,-126.408 v 0.001 l 71.885,-110.1 h 42.872 c 3.196,5.418 9.076,9.064 15.822,9.064 10.147,0 18.373,-8.226 18.373,-18.374 0,-10.147 -8.226,-18.373 -18.373,-18.373 -6.746,0 -12.627,3.646 -15.822,9.065 h -52.95 l -35.135,53.812 -0.001,-0.001 L 167.341,236.5 34.864,439.404 h 190.45 l 37.253,-57.055 37.251,57.055 h 190.45 L 364.957,247.476 Z M 171.292,208.496 69.255,52.214 h 145.981 l 47.331,72.493 47.329,-72.493 H 455.877 L 335.556,236.5 h 0.001 l -12.076,18.496 h -73.446 c -3.195,-5.419 -9.076,-9.066 -15.821,-9.066 -10.148,0 -18.374,8.227 -18.374,18.374 0,10.148 8.226,18.374 18.374,18.374 6.745,0 12.625,-3.646 15.821,-9.064 h 83.524 l 13.115,-20.086 24.195,-37.059 h 10e-4 l 5.069,-7.765 L 490.268,33.596 H 299.818 L 262.567,90.652 225.314,33.596 H 34.864 l 125.31,191.928 z"
   style="fill:#008111;fill-rule:nonzero"
   id="path26"
   clip-path="url(#clipPath498)" />
                        
                    
                </g>
                <g
   id="x-tech.ai2"
   serif:id="x-tech.ai">
                </g>
            </g>
        </g>
    </g>
</svg>
