<?xml version="1.0" encoding="UTF-8" standalone="no"?>
<!-- Created with Inkscape (http://www.inkscape.org/) -->
<svg version="1.1" id="svg2" width="3200" height="3200" viewBox="0 0 3200 3200" sodipodi:docname="rohs-symbol.svg" inkscape:version="1.2.2 (b0a8486541, 2022-12-01)" xmlns:inkscape="http://www.inkscape.org/namespaces/inkscape" xmlns:sodipodi="http://sodipodi.sourceforge.net/DTD/sodipodi-0.dtd" xmlns="http://www.w3.org/2000/svg" xmlns:svg="http://www.w3.org/2000/svg">
  <defs id="defs6"/>
  <sodipodi:namedview id="namedview4" pagecolor="#ffffff" bordercolor="#666666" borderopacity="1.0" inkscape:showpageshadow="2" inkscape:pageopacity="0.0" inkscape:pagecheckerboard="0" inkscape:deskcolor="#d1d1d1" showgrid="false" inkscape:zoom="0.23375" inkscape:cx="1606.4171" inkscape:cy="1600" inkscape:window-width="1920" inkscape:window-height="1141" inkscape:window-x="1920" inkscape:window-y="0" inkscape:window-maximized="1" inkscape:current-layer="g10"/>
  <g id="g10" inkscape:groupmode="layer" inkscape:label="Page 1" transform="matrix(1.3333333,0,0,-1.3333333,0,3200)">
    <g id="g12" transform="matrix(0.1,0,0,0.1,-1.8948495,0.59288713)">
      <path d="m 11981.159,11990.616 v 36.301 h 10.358 c 4.045,0 6.871,-0.187 8.461,-0.558 1.592,-0.373 2.971,-0.999 4.13,-1.869 1.302,-0.992 2.31,-2.261 3.011,-3.792 0.704,-1.541 1.051,-3.232 1.051,-5.085 0,-2.81 -0.696,-5.094 -2.075,-6.854 -1.386,-1.76 -3.4,-2.927 -6.05,-3.503 l 9.901,-14.64 h -11.168 l -8.328,14.216 v -14.216 z m 9.291,19.141 h 1.829 c 2.131,0 3.688,0.365 4.67,1.091 0.981,0.728 1.472,1.871 1.472,3.419 0,1.82 -0.456,3.114 -1.371,3.884 -0.922,0.771 -2.453,1.15 -4.619,1.15 h -1.981 z m 39.533,-6.685 c 0,1.861 -0.474,3.335 -1.413,4.41 -0.939,1.073 -2.216,1.616 -3.816,1.616 -1.616,0 -2.894,-0.543 -3.832,-1.616 -0.931,-1.075 -1.397,-2.549 -1.397,-4.41 0,-1.87 0.466,-3.342 1.388,-4.408 0.921,-1.067 2.209,-1.6 3.841,-1.6 1.616,0 2.893,0.533 3.834,1.6 0.931,1.066 1.395,2.538 1.395,4.408 z m 8.784,0 c 0,-1.803 -0.355,-3.52 -1.059,-5.136 -0.701,-1.624 -1.717,-3.08 -3.061,-4.366 -1.355,-1.285 -2.869,-2.269 -4.544,-2.928 -1.685,-0.661 -3.461,-0.989 -5.349,-0.989 -1.92,0 -3.715,0.328 -5.39,0.989 -1.685,0.659 -3.181,1.643 -4.501,2.928 -1.328,1.262 -2.336,2.699 -3.029,4.323 -0.696,1.635 -1.043,3.36 -1.043,5.179 0,1.829 0.347,3.554 1.035,5.178 0.685,1.617 1.691,3.072 3.037,4.368 1.302,1.269 2.792,2.232 4.475,2.875 1.677,0.645 3.477,0.965 5.416,0.965 1.938,0 3.741,-0.32 5.408,-0.965 1.666,-0.643 3.163,-1.606 4.485,-2.875 1.36,-1.312 2.384,-2.776 3.08,-4.392 0.693,-1.616 1.04,-3.343 1.04,-5.154 z m 5.685,-12.456 v 36.301 h 9.901 v -14.114 h 13.2 v 14.114 h 9.901 v -36.301 h -9.901 v 14.776 h -13.2 v -14.776 z m 42.325,11.728 c 1.472,-1.667 2.92,-2.91 4.35,-3.739 1.431,-0.821 2.853,-1.235 4.274,-1.235 1.32,0 2.411,0.355 3.256,1.065 0.856,0.711 1.28,1.608 1.28,2.7 0,1.201 -0.365,2.132 -1.101,2.784 -0.736,0.651 -2.395,1.329 -4.984,2.022 -3.555,0.957 -6.075,2.208 -7.547,3.741 -1.472,1.539 -2.21,3.646 -2.21,6.32 0,3.478 1.16,6.304 3.487,8.496 2.318,2.192 5.339,3.283 9.038,3.283 2.005,0 3.901,-0.272 5.693,-0.805 1.795,-0.542 3.496,-1.353 5.104,-2.446 l -3.107,-7.106 c -1.125,0.957 -2.275,1.674 -3.461,2.165 -1.176,0.483 -2.344,0.728 -3.501,0.728 -1.187,0 -2.15,-0.288 -2.896,-0.854 -0.744,-0.567 -1.115,-1.303 -1.115,-2.192 0,-0.906 0.32,-1.634 0.971,-2.183 0.653,-0.542 1.914,-1.067 3.776,-1.558 l 0.448,-0.125 c 4.037,-1.093 6.693,-2.285 7.962,-3.597 0.862,-0.888 1.515,-1.963 1.963,-3.206 0.448,-1.253 0.669,-2.632 0.669,-4.157 0,-3.848 -1.261,-6.946 -3.792,-9.282 -2.53,-2.342 -5.906,-3.51 -10.12,-3.51 -2.53,0 -4.831,0.432 -6.912,1.285 -2.074,0.864 -4.071,2.209 -5.983,4.046 l 4.458,7.36" style="fill:#100f0d;fill-opacity:1;fill-rule:evenodd;stroke:none;stroke-width:0.0202764" id="path16"/>
      <path d="m 11994.288,11975.597 3.085,-0.93 c -0.207,-0.862 -0.532,-1.586 -0.98,-2.164 -0.446,-0.58 -0.995,-1.018 -1.658,-1.312 -0.659,-0.294 -1.501,-0.442 -2.521,-0.442 -1.239,0 -2.248,0.181 -3.035,0.538 -0.783,0.36 -1.46,0.993 -2.028,1.897 -0.57,0.903 -0.856,2.065 -0.856,3.474 0,1.879 0.499,3.325 1.501,4.339 1.004,1.008 2.421,1.515 4.254,1.515 1.433,0 2.563,-0.29 3.384,-0.87 0.817,-0.58 1.43,-1.47 1.827,-2.673 l -3.098,-0.685 c -0.11,0.345 -0.223,0.596 -0.343,0.754 -0.199,0.268 -0.44,0.475 -0.722,0.617 -0.288,0.146 -0.604,0.219 -0.957,0.219 -0.801,0 -1.411,-0.323 -1.835,-0.959 -0.322,-0.475 -0.482,-1.223 -0.482,-2.237 0,-1.261 0.19,-2.121 0.573,-2.591 0.386,-0.467 0.923,-0.7 1.616,-0.7 0.674,0 1.183,0.189 1.527,0.568 0.345,0.377 0.592,0.925 0.748,1.642 z m 5.952,1.026 c 0,1.856 0.517,3.303 1.551,4.335 1.036,1.037 2.478,1.554 4.327,1.554 1.894,0 3.353,-0.509 4.377,-1.523 1.026,-1.018 1.537,-2.443 1.537,-4.274 0,-1.331 -0.223,-2.419 -0.669,-3.269 -0.448,-0.85 -1.097,-1.513 -1.942,-1.987 -0.848,-0.475 -1.902,-0.71 -3.165,-0.71 -1.284,0 -2.344,0.205 -3.188,0.613 -0.839,0.409 -1.523,1.056 -2.044,1.942 -0.523,0.882 -0.784,1.989 -0.784,3.319 z m 3.511,0 c 0,-1.147 0.215,-1.975 0.641,-2.476 0.43,-0.498 1.012,-0.752 1.75,-0.752 0.754,0 1.342,0.248 1.756,0.738 0.416,0.493 0.622,1.371 0.622,2.646 0,1.071 -0.216,1.852 -0.648,2.344 -0.434,0.495 -1.02,0.742 -1.762,0.742 -0.71,0 -1.282,-0.251 -1.712,-0.752 -0.432,-0.501 -0.647,-1.332 -0.647,-2.49 z m 11.755,5.706 h 4.639 l 1.766,-6.924 1.772,6.924 h 4.617 v -11.381 h -2.877 v 8.676 l -2.218,-8.676 h -2.608 l -2.214,8.676 v -8.676 h -2.877 z m 16.63,0 h 5.85 c 1.274,0 2.229,-0.302 2.863,-0.908 0.633,-0.609 0.951,-1.47 0.951,-2.592 0,-1.149 -0.347,-2.05 -1.038,-2.697 -0.691,-0.648 -1.748,-0.971 -3.169,-0.971 h -1.928 v -4.213 h -3.529 z m 3.529,-4.864 h 0.867 c 0.684,0 1.162,0.119 1.438,0.354 0.276,0.236 0.414,0.538 0.414,0.907 0,0.357 -0.12,0.659 -0.361,0.908 -0.238,0.25 -0.69,0.373 -1.351,0.373 h -1.007 z m 9.58,4.864 h 3.512 v -8.583 h 5.499 v -2.798 h -9.011 z m 12.357,0 h 3.53 v -11.381 h -3.53 z m 14.657,-9.506 h -3.984 l -0.572,-1.875 h -3.589 l 4.283,11.381 h 3.85 l 4.264,-11.381 h -3.682 z m -0.744,2.464 -1.243,4.09 -1.247,-4.09 z m 7.752,7.042 h 3.283 l 4.266,-6.284 v 6.284 h 3.323 v -11.381 h -3.323 l -4.244,6.249 v -6.249 h -3.305 z m 14.027,0 h 10.696 v -2.814 h -3.591 v -8.567 h -3.514 v 8.567 h -3.591 v 2.814" style="fill:#100f0d;fill-opacity:1;fill-rule:evenodd;stroke:none;stroke-width:0.0202764" id="path18"/>
      <path d="m 11915.508,11990.571 c -7.361,16.244 -15.057,16.325 -23.871,7.363 -0.287,-0.292 -0.218,-0.296 0.09,-0.487 8.331,-4.724 14.315,-16.197 17.433,-27.657 0.03,-0.122 0.03,-0.119 0.155,-0.04 7.938,5.19 12.599,8.473 13.982,9.319 0.42,0.294 0.437,0.247 0.625,0.711 6.431,18.069 14.662,33.592 28.365,47.169 1.537,2.083 2.428,4.007 -2.694,1.339 -13.032,-9.163 -24.299,-20.149 -33.769,-37.696 -0.141,-0.246 -0.189,-0.268 -0.316,-0.02" style="fill:#100f0d;fill-opacity:1;fill-rule:evenodd;stroke:none;stroke-width:0.0202764" id="path20"/>
      <path d="m 11890.892,12056.693 h 218.196 c 5.042,0 9.838,-2.003 13.4,-5.568 3.563,-3.563 5.568,-8.356 5.568,-13.399 v -75.452 c 0,-5.043 -2.005,-9.836 -5.568,-13.399 -3.562,-3.563 -8.358,-5.568 -13.4,-5.568 h -218.196 c -5.042,0 -9.837,2.005 -13.4,5.568 -3.563,3.563 -5.568,8.356 -5.568,13.399 v 75.452 c 0,5.043 2.005,9.836 5.568,13.399 3.563,3.565 8.358,5.568 13.4,5.568 z m 218.196,-9.386 h -218.196 c -2.548,0 -4.963,-1.018 -6.763,-2.818 -1.799,-1.801 -2.818,-4.216 -2.818,-6.763 v -75.452 c 0,-2.547 1.019,-4.962 2.818,-6.763 1.8,-1.798 4.215,-2.818 6.763,-2.818 h 218.196 c 2.548,0 4.963,1.02 6.764,2.818 1.798,1.801 2.818,4.216 2.818,6.763 v 75.452 c 0,2.547 -1.02,4.962 -2.818,6.763 -1.801,1.798 -4.216,2.818 -6.764,2.818" style="fill:#100f0d;fill-opacity:1;fill-rule:evenodd;stroke:none;stroke-width:0.0202764" id="path22"/>
    </g>
  </g>
</svg>