%TF.GenerationSoftware,KiCad,Pcbnew,(5.1.10)-1*%
%TF.CreationDate,2021-11-06T00:50:13+01:00*%
%TF.ProjectId,xESC,78455343-2e6b-4696-9361-645f70636258,rev?*%
%TF.SameCoordinates,Original*%
%TF.FileFunction,Soldermask,Top*%
%TF.FilePolarity,Negative*%
%FSLAX46Y46*%
G04 Gerber Fmt 4.6, Leading zero omitted, Abs format (unit mm)*
G04 Created by KiCad (PCBNEW (5.1.10)-1) date 2021-11-06 00:50:13*
%MOMM*%
%LPD*%
G01*
G04 APERTURE LIST*
%ADD10C,0.100000*%
%ADD11R,1.000000X1.500000*%
%ADD12C,3.800000*%
%ADD13R,1.500000X1.500000*%
%ADD14O,1.700000X1.700000*%
%ADD15R,1.700000X1.700000*%
%ADD16R,0.850000X0.500000*%
%ADD17R,1.600000X1.600000*%
%ADD18C,1.600000*%
%ADD19R,0.400000X3.200000*%
G04 APERTURE END LIST*
D10*
G36*
X203168000Y-32925000D02*
G01*
X201644000Y-32925000D01*
X201644020Y-29811540D01*
X203168020Y-29811540D01*
X203168000Y-32925000D01*
G37*
X203168000Y-32925000D02*
X201644000Y-32925000D01*
X201644020Y-29811540D01*
X203168020Y-29811540D01*
X203168000Y-32925000D01*
G36*
X208248000Y-32925000D02*
G01*
X206724000Y-32925000D01*
X206724020Y-29811540D01*
X208248020Y-29811540D01*
X208248000Y-32925000D01*
G37*
X208248000Y-32925000D02*
X206724000Y-32925000D01*
X206724020Y-29811540D01*
X208248020Y-29811540D01*
X208248000Y-32925000D01*
G36*
X205708000Y-32925000D02*
G01*
X204184000Y-32925000D01*
X204184020Y-29811540D01*
X205708020Y-29811540D01*
X205708000Y-32925000D01*
G37*
X205708000Y-32925000D02*
X204184000Y-32925000D01*
X204184020Y-29811540D01*
X205708020Y-29811540D01*
X205708000Y-32925000D01*
G36*
X213738460Y-36609020D02*
G01*
X213738460Y-38133020D01*
X210625000Y-38133000D01*
X210625000Y-36609000D01*
X213738460Y-36609020D01*
G37*
X213738460Y-36609020D02*
X213738460Y-38133020D01*
X210625000Y-38133000D01*
X210625000Y-36609000D01*
X213738460Y-36609020D01*
G36*
X213738460Y-39149020D02*
G01*
X213738460Y-40673020D01*
X210625000Y-40673000D01*
X210625000Y-39149000D01*
X213738460Y-39149020D01*
G37*
X213738460Y-39149020D02*
X213738460Y-40673020D01*
X210625000Y-40673000D01*
X210625000Y-39149000D01*
X213738460Y-39149020D01*
G36*
X213738460Y-41689020D02*
G01*
X213738460Y-43213020D01*
X210625000Y-43213000D01*
X210625000Y-41689000D01*
X213738460Y-41689020D01*
G37*
X213738460Y-41689020D02*
X213738460Y-43213020D01*
X210625000Y-43213000D01*
X210625000Y-41689000D01*
X213738460Y-41689020D01*
G36*
X213738460Y-44229020D02*
G01*
X213738460Y-45753020D01*
X210625000Y-45753000D01*
X210625000Y-44229000D01*
X213738460Y-44229020D01*
G37*
X213738460Y-44229020D02*
X213738460Y-45753020D01*
X210625000Y-45753000D01*
X210625000Y-44229000D01*
X213738460Y-44229020D01*
G36*
X213738460Y-51849020D02*
G01*
X213738460Y-53373020D01*
X210625000Y-53373000D01*
X210625000Y-51849000D01*
X213738460Y-51849020D01*
G37*
X213738460Y-51849020D02*
X213738460Y-53373020D01*
X210625000Y-53373000D01*
X210625000Y-51849000D01*
X213738460Y-51849020D01*
G36*
X213738460Y-49309020D02*
G01*
X213738460Y-50833020D01*
X210625000Y-50833000D01*
X210625000Y-49309000D01*
X213738460Y-49309020D01*
G37*
X213738460Y-49309020D02*
X213738460Y-50833020D01*
X210625000Y-50833000D01*
X210625000Y-49309000D01*
X213738460Y-49309020D01*
G36*
X175750000Y-59500000D02*
G01*
X171250000Y-59500000D01*
X171250000Y-56000000D01*
X175750000Y-56000000D01*
X175750000Y-59500000D01*
G37*
X175750000Y-59500000D02*
X171250000Y-59500000D01*
X171250000Y-56000000D01*
X175750000Y-56000000D01*
X175750000Y-59500000D01*
G36*
X175750000Y-34000000D02*
G01*
X171250000Y-34000000D01*
X171250000Y-30500000D01*
X175750000Y-30500000D01*
X175750000Y-34000000D01*
G37*
X175750000Y-34000000D02*
X171250000Y-34000000D01*
X171250000Y-30500000D01*
X175750000Y-30500000D01*
X175750000Y-34000000D01*
G36*
X159500000Y-53250000D02*
G01*
X155750000Y-53250000D01*
X155750000Y-48750000D01*
X159500000Y-48750000D01*
X159500000Y-53250000D01*
G37*
X159500000Y-53250000D02*
X155750000Y-53250000D01*
X155750000Y-48750000D01*
X159500000Y-48750000D01*
X159500000Y-53250000D01*
G36*
X159500000Y-47250000D02*
G01*
X155750000Y-47250000D01*
X155750000Y-42750000D01*
X159500000Y-42750000D01*
X159500000Y-47250000D01*
G37*
X159500000Y-47250000D02*
X155750000Y-47250000D01*
X155750000Y-42750000D01*
X159500000Y-42750000D01*
X159500000Y-47250000D01*
G36*
X213738460Y-46769020D02*
G01*
X213738460Y-48293020D01*
X210625000Y-48293000D01*
X210625000Y-46769000D01*
X213738460Y-46769020D01*
G37*
X213738460Y-46769020D02*
X213738460Y-48293020D01*
X210625000Y-48293000D01*
X210625000Y-46769000D01*
X213738460Y-46769020D01*
G36*
X166750000Y-59500000D02*
G01*
X162250000Y-59500000D01*
X162250000Y-56000000D01*
X166750000Y-56000000D01*
X166750000Y-59500000D01*
G37*
X166750000Y-59500000D02*
X162250000Y-59500000D01*
X162250000Y-56000000D01*
X166750000Y-56000000D01*
X166750000Y-59500000D01*
G36*
X166750000Y-34000000D02*
G01*
X162250000Y-34000000D01*
X162250000Y-30500000D01*
X166750000Y-30500000D01*
X166750000Y-34000000D01*
G37*
X166750000Y-34000000D02*
X162250000Y-34000000D01*
X162250000Y-30500000D01*
X166750000Y-30500000D01*
X166750000Y-34000000D01*
G36*
X159500000Y-41250000D02*
G01*
X155750000Y-41250000D01*
X155750000Y-36750000D01*
X159500000Y-36750000D01*
X159500000Y-41250000D01*
G37*
X159500000Y-41250000D02*
X155750000Y-41250000D01*
X155750000Y-36750000D01*
X159500000Y-36750000D01*
X159500000Y-41250000D01*
%TO.C,R21*%
G36*
G01*
X199500000Y-36749999D02*
X199500000Y-37650001D01*
G75*
G02*
X199250001Y-37900000I-249999J0D01*
G01*
X198724999Y-37900000D01*
G75*
G02*
X198475000Y-37650001I0J249999D01*
G01*
X198475000Y-36749999D01*
G75*
G02*
X198724999Y-36500000I249999J0D01*
G01*
X199250001Y-36500000D01*
G75*
G02*
X199500000Y-36749999I0J-249999D01*
G01*
G37*
G36*
G01*
X201325000Y-36749999D02*
X201325000Y-37650001D01*
G75*
G02*
X201075001Y-37900000I-249999J0D01*
G01*
X200549999Y-37900000D01*
G75*
G02*
X200300000Y-37650001I0J249999D01*
G01*
X200300000Y-36749999D01*
G75*
G02*
X200549999Y-36500000I249999J0D01*
G01*
X201075001Y-36500000D01*
G75*
G02*
X201325000Y-36749999I0J-249999D01*
G01*
G37*
%TD*%
D11*
%TO.C,JP1*%
X197750000Y-45200000D03*
X196450000Y-45200000D03*
%TD*%
%TO.C,D4*%
G36*
G01*
X200149999Y-41150000D02*
X201050001Y-41150000D01*
G75*
G02*
X201300000Y-41399999I0J-249999D01*
G01*
X201300000Y-42050001D01*
G75*
G02*
X201050001Y-42300000I-249999J0D01*
G01*
X200149999Y-42300000D01*
G75*
G02*
X199900000Y-42050001I0J249999D01*
G01*
X199900000Y-41399999D01*
G75*
G02*
X200149999Y-41150000I249999J0D01*
G01*
G37*
G36*
G01*
X200149999Y-39100000D02*
X201050001Y-39100000D01*
G75*
G02*
X201300000Y-39349999I0J-249999D01*
G01*
X201300000Y-40000001D01*
G75*
G02*
X201050001Y-40250000I-249999J0D01*
G01*
X200149999Y-40250000D01*
G75*
G02*
X199900000Y-40000001I0J249999D01*
G01*
X199900000Y-39349999D01*
G75*
G02*
X200149999Y-39100000I249999J0D01*
G01*
G37*
%TD*%
D12*
%TO.C,H4*%
X158000000Y-57250000D03*
%TD*%
%TO.C,H3*%
X211500000Y-57250000D03*
%TD*%
%TO.C,H2*%
X211500000Y-32750000D03*
%TD*%
%TO.C,H1*%
X158000000Y-32750000D03*
%TD*%
D13*
%TO.C,TP7*%
X207500000Y-32000000D03*
%TD*%
%TO.C,TP2*%
X202400000Y-32000000D03*
%TD*%
%TO.C,TP1*%
X204950000Y-32000000D03*
%TD*%
D14*
%TO.C,J4*%
X202420000Y-34300000D03*
X204960000Y-34300000D03*
D15*
X207500000Y-34300000D03*
%TD*%
D10*
%TO.C,U1*%
G36*
X190214555Y-34143666D02*
G01*
X190603464Y-33754757D01*
X191734835Y-34886128D01*
X191345926Y-35275037D01*
X190214555Y-34143666D01*
G37*
G36*
X189648870Y-34709352D02*
G01*
X190037779Y-34320443D01*
X191169150Y-35451814D01*
X190780241Y-35840723D01*
X189648870Y-34709352D01*
G37*
G36*
X189083184Y-35275037D02*
G01*
X189472093Y-34886128D01*
X190603464Y-36017499D01*
X190214555Y-36406408D01*
X189083184Y-35275037D01*
G37*
G36*
X188517499Y-35840722D02*
G01*
X188906408Y-35451813D01*
X190037779Y-36583184D01*
X189648870Y-36972093D01*
X188517499Y-35840722D01*
G37*
G36*
X187951813Y-36406408D02*
G01*
X188340722Y-36017499D01*
X189472093Y-37148870D01*
X189083184Y-37537779D01*
X187951813Y-36406408D01*
G37*
G36*
X187386128Y-36972093D02*
G01*
X187775037Y-36583184D01*
X188906408Y-37714555D01*
X188517499Y-38103464D01*
X187386128Y-36972093D01*
G37*
G36*
X186820443Y-37537779D02*
G01*
X187209352Y-37148870D01*
X188340723Y-38280241D01*
X187951814Y-38669150D01*
X186820443Y-37537779D01*
G37*
G36*
X186254757Y-38103464D02*
G01*
X186643666Y-37714555D01*
X187775037Y-38845926D01*
X187386128Y-39234835D01*
X186254757Y-38103464D01*
G37*
G36*
X186643666Y-41285445D02*
G01*
X186254757Y-40896536D01*
X187386128Y-39765165D01*
X187775037Y-40154074D01*
X186643666Y-41285445D01*
G37*
G36*
X187209352Y-41851130D02*
G01*
X186820443Y-41462221D01*
X187951814Y-40330850D01*
X188340723Y-40719759D01*
X187209352Y-41851130D01*
G37*
G36*
X187775037Y-42416816D02*
G01*
X187386128Y-42027907D01*
X188517499Y-40896536D01*
X188906408Y-41285445D01*
X187775037Y-42416816D01*
G37*
G36*
X188340722Y-42982501D02*
G01*
X187951813Y-42593592D01*
X189083184Y-41462221D01*
X189472093Y-41851130D01*
X188340722Y-42982501D01*
G37*
G36*
X188906408Y-43548187D02*
G01*
X188517499Y-43159278D01*
X189648870Y-42027907D01*
X190037779Y-42416816D01*
X188906408Y-43548187D01*
G37*
G36*
X189472093Y-44113872D02*
G01*
X189083184Y-43724963D01*
X190214555Y-42593592D01*
X190603464Y-42982501D01*
X189472093Y-44113872D01*
G37*
G36*
X190037779Y-44679557D02*
G01*
X189648870Y-44290648D01*
X190780241Y-43159277D01*
X191169150Y-43548186D01*
X190037779Y-44679557D01*
G37*
G36*
X190603464Y-45245243D02*
G01*
X190214555Y-44856334D01*
X191345926Y-43724963D01*
X191734835Y-44113872D01*
X190603464Y-45245243D01*
G37*
G36*
X192265165Y-44113872D02*
G01*
X192654074Y-43724963D01*
X193785445Y-44856334D01*
X193396536Y-45245243D01*
X192265165Y-44113872D01*
G37*
G36*
X192830850Y-43548186D02*
G01*
X193219759Y-43159277D01*
X194351130Y-44290648D01*
X193962221Y-44679557D01*
X192830850Y-43548186D01*
G37*
G36*
X193396536Y-42982501D02*
G01*
X193785445Y-42593592D01*
X194916816Y-43724963D01*
X194527907Y-44113872D01*
X193396536Y-42982501D01*
G37*
G36*
X193962221Y-42416816D02*
G01*
X194351130Y-42027907D01*
X195482501Y-43159278D01*
X195093592Y-43548187D01*
X193962221Y-42416816D01*
G37*
G36*
X194527907Y-41851130D02*
G01*
X194916816Y-41462221D01*
X196048187Y-42593592D01*
X195659278Y-42982501D01*
X194527907Y-41851130D01*
G37*
G36*
X195093592Y-41285445D02*
G01*
X195482501Y-40896536D01*
X196613872Y-42027907D01*
X196224963Y-42416816D01*
X195093592Y-41285445D01*
G37*
G36*
X195659277Y-40719759D02*
G01*
X196048186Y-40330850D01*
X197179557Y-41462221D01*
X196790648Y-41851130D01*
X195659277Y-40719759D01*
G37*
G36*
X196224963Y-40154074D02*
G01*
X196613872Y-39765165D01*
X197745243Y-40896536D01*
X197356334Y-41285445D01*
X196224963Y-40154074D01*
G37*
G36*
X196613872Y-39234835D02*
G01*
X196224963Y-38845926D01*
X197356334Y-37714555D01*
X197745243Y-38103464D01*
X196613872Y-39234835D01*
G37*
G36*
X196048186Y-38669150D02*
G01*
X195659277Y-38280241D01*
X196790648Y-37148870D01*
X197179557Y-37537779D01*
X196048186Y-38669150D01*
G37*
G36*
X195482501Y-38103464D02*
G01*
X195093592Y-37714555D01*
X196224963Y-36583184D01*
X196613872Y-36972093D01*
X195482501Y-38103464D01*
G37*
G36*
X194916816Y-37537779D02*
G01*
X194527907Y-37148870D01*
X195659278Y-36017499D01*
X196048187Y-36406408D01*
X194916816Y-37537779D01*
G37*
G36*
X194351130Y-36972093D02*
G01*
X193962221Y-36583184D01*
X195093592Y-35451813D01*
X195482501Y-35840722D01*
X194351130Y-36972093D01*
G37*
G36*
X193785445Y-36406408D02*
G01*
X193396536Y-36017499D01*
X194527907Y-34886128D01*
X194916816Y-35275037D01*
X193785445Y-36406408D01*
G37*
G36*
X193219759Y-35840723D02*
G01*
X192830850Y-35451814D01*
X193962221Y-34320443D01*
X194351130Y-34709352D01*
X193219759Y-35840723D01*
G37*
G36*
X192654074Y-35275037D02*
G01*
X192265165Y-34886128D01*
X193396536Y-33754757D01*
X193785445Y-34143666D01*
X192654074Y-35275037D01*
G37*
%TD*%
%TO.C,Q3*%
G36*
X167325000Y-49395000D02*
G01*
X166525000Y-49395000D01*
X166525000Y-50065000D01*
X167325000Y-50065000D01*
X167325000Y-50665000D01*
X166525000Y-50665000D01*
X166525000Y-51335000D01*
X167325000Y-51335000D01*
X167325000Y-51935000D01*
X166525000Y-51935000D01*
X166525000Y-52605000D01*
X167325000Y-52605000D01*
X167325000Y-53205000D01*
X162775000Y-53205000D01*
X162775000Y-48795000D01*
X167325000Y-48795000D01*
X167325000Y-49395000D01*
G37*
D16*
X161100000Y-52905000D03*
X161100000Y-51635000D03*
X161100000Y-50365000D03*
X161100000Y-49095000D03*
%TD*%
%TO.C,Q5*%
X161050000Y-43095000D03*
X161050000Y-44365000D03*
X161050000Y-45635000D03*
X161050000Y-46905000D03*
D10*
G36*
X167275000Y-43395000D02*
G01*
X166475000Y-43395000D01*
X166475000Y-44065000D01*
X167275000Y-44065000D01*
X167275000Y-44665000D01*
X166475000Y-44665000D01*
X166475000Y-45335000D01*
X167275000Y-45335000D01*
X167275000Y-45935000D01*
X166475000Y-45935000D01*
X166475000Y-46605000D01*
X167275000Y-46605000D01*
X167275000Y-47205000D01*
X162725000Y-47205000D01*
X162725000Y-42795000D01*
X167275000Y-42795000D01*
X167275000Y-43395000D01*
G37*
%TD*%
D14*
%TO.C,J3*%
X208600000Y-37390000D03*
X206060000Y-37390000D03*
D15*
X203520000Y-37390000D03*
%TD*%
D14*
%TO.C,J2*%
X208600000Y-39930000D03*
X206060000Y-39930000D03*
D15*
X203520000Y-39930000D03*
%TD*%
D14*
%TO.C,J1*%
X208600000Y-42470000D03*
X208600000Y-45010000D03*
X208600000Y-47550000D03*
X208600000Y-50090000D03*
D15*
X208600000Y-52630000D03*
%TD*%
%TO.C,R6*%
G36*
G01*
X180400000Y-44450002D02*
X180400000Y-43549998D01*
G75*
G02*
X180649998Y-43300000I249998J0D01*
G01*
X181175002Y-43300000D01*
G75*
G02*
X181425000Y-43549998I0J-249998D01*
G01*
X181425000Y-44450002D01*
G75*
G02*
X181175002Y-44700000I-249998J0D01*
G01*
X180649998Y-44700000D01*
G75*
G02*
X180400000Y-44450002I0J249998D01*
G01*
G37*
G36*
G01*
X178575000Y-44450002D02*
X178575000Y-43549998D01*
G75*
G02*
X178824998Y-43300000I249998J0D01*
G01*
X179350002Y-43300000D01*
G75*
G02*
X179600000Y-43549998I0J-249998D01*
G01*
X179600000Y-44450002D01*
G75*
G02*
X179350002Y-44700000I-249998J0D01*
G01*
X178824998Y-44700000D01*
G75*
G02*
X178575000Y-44450002I0J249998D01*
G01*
G37*
%TD*%
%TO.C,R5*%
G36*
G01*
X180400000Y-46450002D02*
X180400000Y-45549998D01*
G75*
G02*
X180649998Y-45300000I249998J0D01*
G01*
X181175002Y-45300000D01*
G75*
G02*
X181425000Y-45549998I0J-249998D01*
G01*
X181425000Y-46450002D01*
G75*
G02*
X181175002Y-46700000I-249998J0D01*
G01*
X180649998Y-46700000D01*
G75*
G02*
X180400000Y-46450002I0J249998D01*
G01*
G37*
G36*
G01*
X178575000Y-46450002D02*
X178575000Y-45549998D01*
G75*
G02*
X178824998Y-45300000I249998J0D01*
G01*
X179350002Y-45300000D01*
G75*
G02*
X179600000Y-45549998I0J-249998D01*
G01*
X179600000Y-46450002D01*
G75*
G02*
X179350002Y-46700000I-249998J0D01*
G01*
X178824998Y-46700000D01*
G75*
G02*
X178575000Y-46450002I0J249998D01*
G01*
G37*
%TD*%
%TO.C,R4*%
G36*
G01*
X180400000Y-53450002D02*
X180400000Y-52549998D01*
G75*
G02*
X180649998Y-52300000I249998J0D01*
G01*
X181175002Y-52300000D01*
G75*
G02*
X181425000Y-52549998I0J-249998D01*
G01*
X181425000Y-53450002D01*
G75*
G02*
X181175002Y-53700000I-249998J0D01*
G01*
X180649998Y-53700000D01*
G75*
G02*
X180400000Y-53450002I0J249998D01*
G01*
G37*
G36*
G01*
X178575000Y-53450002D02*
X178575000Y-52549998D01*
G75*
G02*
X178824998Y-52300000I249998J0D01*
G01*
X179350002Y-52300000D01*
G75*
G02*
X179600000Y-52549998I0J-249998D01*
G01*
X179600000Y-53450002D01*
G75*
G02*
X179350002Y-53700000I-249998J0D01*
G01*
X178824998Y-53700000D01*
G75*
G02*
X178575000Y-53450002I0J249998D01*
G01*
G37*
%TD*%
%TO.C,R3*%
G36*
G01*
X180400000Y-55450002D02*
X180400000Y-54549998D01*
G75*
G02*
X180649998Y-54300000I249998J0D01*
G01*
X181175002Y-54300000D01*
G75*
G02*
X181425000Y-54549998I0J-249998D01*
G01*
X181425000Y-55450002D01*
G75*
G02*
X181175002Y-55700000I-249998J0D01*
G01*
X180649998Y-55700000D01*
G75*
G02*
X180400000Y-55450002I0J249998D01*
G01*
G37*
G36*
G01*
X178575000Y-55450002D02*
X178575000Y-54549998D01*
G75*
G02*
X178824998Y-54300000I249998J0D01*
G01*
X179350002Y-54300000D01*
G75*
G02*
X179600000Y-54549998I0J-249998D01*
G01*
X179600000Y-55450002D01*
G75*
G02*
X179350002Y-55700000I-249998J0D01*
G01*
X178824998Y-55700000D01*
G75*
G02*
X178575000Y-55450002I0J249998D01*
G01*
G37*
%TD*%
%TO.C,R2*%
G36*
G01*
X180400000Y-35450002D02*
X180400000Y-34549998D01*
G75*
G02*
X180649998Y-34300000I249998J0D01*
G01*
X181175002Y-34300000D01*
G75*
G02*
X181425000Y-34549998I0J-249998D01*
G01*
X181425000Y-35450002D01*
G75*
G02*
X181175002Y-35700000I-249998J0D01*
G01*
X180649998Y-35700000D01*
G75*
G02*
X180400000Y-35450002I0J249998D01*
G01*
G37*
G36*
G01*
X178575000Y-35450002D02*
X178575000Y-34549998D01*
G75*
G02*
X178824998Y-34300000I249998J0D01*
G01*
X179350002Y-34300000D01*
G75*
G02*
X179600000Y-34549998I0J-249998D01*
G01*
X179600000Y-35450002D01*
G75*
G02*
X179350002Y-35700000I-249998J0D01*
G01*
X178824998Y-35700000D01*
G75*
G02*
X178575000Y-35450002I0J249998D01*
G01*
G37*
%TD*%
%TO.C,R1*%
G36*
G01*
X180400000Y-37450002D02*
X180400000Y-36549998D01*
G75*
G02*
X180649998Y-36300000I249998J0D01*
G01*
X181175002Y-36300000D01*
G75*
G02*
X181425000Y-36549998I0J-249998D01*
G01*
X181425000Y-37450002D01*
G75*
G02*
X181175002Y-37700000I-249998J0D01*
G01*
X180649998Y-37700000D01*
G75*
G02*
X180400000Y-37450002I0J249998D01*
G01*
G37*
G36*
G01*
X178575000Y-37450002D02*
X178575000Y-36549998D01*
G75*
G02*
X178824998Y-36300000I249998J0D01*
G01*
X179350002Y-36300000D01*
G75*
G02*
X179600000Y-36549998I0J-249998D01*
G01*
X179600000Y-37450002D01*
G75*
G02*
X179350002Y-37700000I-249998J0D01*
G01*
X178824998Y-37700000D01*
G75*
G02*
X178575000Y-37450002I0J249998D01*
G01*
G37*
%TD*%
D11*
%TO.C,JP7*%
X179350000Y-42000000D03*
X180650000Y-42000000D03*
%TD*%
%TO.C,JP6*%
X179350000Y-48000000D03*
X180650000Y-48000000D03*
%TD*%
%TO.C,JP5*%
X179350000Y-51000000D03*
X180650000Y-51000000D03*
%TD*%
%TO.C,JP4*%
X179350000Y-57000000D03*
X180650000Y-57000000D03*
%TD*%
%TO.C,JP3*%
X179350000Y-33000000D03*
X180650000Y-33000000D03*
%TD*%
%TO.C,JP2*%
X179350000Y-39000000D03*
X180650000Y-39000000D03*
%TD*%
%TO.C,C18*%
G36*
G01*
X186875000Y-32975000D02*
X186875000Y-32025000D01*
G75*
G02*
X187125000Y-31775000I250000J0D01*
G01*
X187800000Y-31775000D01*
G75*
G02*
X188050000Y-32025000I0J-250000D01*
G01*
X188050000Y-32975000D01*
G75*
G02*
X187800000Y-33225000I-250000J0D01*
G01*
X187125000Y-33225000D01*
G75*
G02*
X186875000Y-32975000I0J250000D01*
G01*
G37*
G36*
G01*
X188950000Y-32975000D02*
X188950000Y-32025000D01*
G75*
G02*
X189200000Y-31775000I250000J0D01*
G01*
X189875000Y-31775000D01*
G75*
G02*
X190125000Y-32025000I0J-250000D01*
G01*
X190125000Y-32975000D01*
G75*
G02*
X189875000Y-33225000I-250000J0D01*
G01*
X189200000Y-33225000D01*
G75*
G02*
X188950000Y-32975000I0J250000D01*
G01*
G37*
%TD*%
%TO.C,C7*%
G36*
G01*
X183025000Y-54775000D02*
X183975000Y-54775000D01*
G75*
G02*
X184225000Y-55025000I0J-250000D01*
G01*
X184225000Y-55700000D01*
G75*
G02*
X183975000Y-55950000I-250000J0D01*
G01*
X183025000Y-55950000D01*
G75*
G02*
X182775000Y-55700000I0J250000D01*
G01*
X182775000Y-55025000D01*
G75*
G02*
X183025000Y-54775000I250000J0D01*
G01*
G37*
G36*
G01*
X183025000Y-56850000D02*
X183975000Y-56850000D01*
G75*
G02*
X184225000Y-57100000I0J-250000D01*
G01*
X184225000Y-57775000D01*
G75*
G02*
X183975000Y-58025000I-250000J0D01*
G01*
X183025000Y-58025000D01*
G75*
G02*
X182775000Y-57775000I0J250000D01*
G01*
X182775000Y-57100000D01*
G75*
G02*
X183025000Y-56850000I250000J0D01*
G01*
G37*
%TD*%
D17*
%TO.C,C10*%
X171500000Y-49500000D03*
D18*
X175000000Y-49500000D03*
%TD*%
%TO.C,R9*%
G36*
G01*
X185625000Y-48749998D02*
X185625000Y-49650002D01*
G75*
G02*
X185375002Y-49900000I-249998J0D01*
G01*
X184849998Y-49900000D01*
G75*
G02*
X184600000Y-49650002I0J249998D01*
G01*
X184600000Y-48749998D01*
G75*
G02*
X184849998Y-48500000I249998J0D01*
G01*
X185375002Y-48500000D01*
G75*
G02*
X185625000Y-48749998I0J-249998D01*
G01*
G37*
G36*
G01*
X183800000Y-48749998D02*
X183800000Y-49650002D01*
G75*
G02*
X183550002Y-49900000I-249998J0D01*
G01*
X183024998Y-49900000D01*
G75*
G02*
X182775000Y-49650002I0J249998D01*
G01*
X182775000Y-48749998D01*
G75*
G02*
X183024998Y-48500000I249998J0D01*
G01*
X183550002Y-48500000D01*
G75*
G02*
X183800000Y-48749998I0J-249998D01*
G01*
G37*
%TD*%
%TO.C,C14*%
G36*
G01*
X200575000Y-44475000D02*
X200575000Y-43525000D01*
G75*
G02*
X200825000Y-43275000I250000J0D01*
G01*
X201500000Y-43275000D01*
G75*
G02*
X201750000Y-43525000I0J-250000D01*
G01*
X201750000Y-44475000D01*
G75*
G02*
X201500000Y-44725000I-250000J0D01*
G01*
X200825000Y-44725000D01*
G75*
G02*
X200575000Y-44475000I0J250000D01*
G01*
G37*
G36*
G01*
X202650000Y-44475000D02*
X202650000Y-43525000D01*
G75*
G02*
X202900000Y-43275000I250000J0D01*
G01*
X203575000Y-43275000D01*
G75*
G02*
X203825000Y-43525000I0J-250000D01*
G01*
X203825000Y-44475000D01*
G75*
G02*
X203575000Y-44725000I-250000J0D01*
G01*
X202900000Y-44725000D01*
G75*
G02*
X202650000Y-44475000I0J250000D01*
G01*
G37*
%TD*%
%TO.C,C2*%
G36*
G01*
X203825000Y-52325000D02*
X203825000Y-53275000D01*
G75*
G02*
X203575000Y-53525000I-250000J0D01*
G01*
X202900000Y-53525000D01*
G75*
G02*
X202650000Y-53275000I0J250000D01*
G01*
X202650000Y-52325000D01*
G75*
G02*
X202900000Y-52075000I250000J0D01*
G01*
X203575000Y-52075000D01*
G75*
G02*
X203825000Y-52325000I0J-250000D01*
G01*
G37*
G36*
G01*
X201750000Y-52325000D02*
X201750000Y-53275000D01*
G75*
G02*
X201500000Y-53525000I-250000J0D01*
G01*
X200825000Y-53525000D01*
G75*
G02*
X200575000Y-53275000I0J250000D01*
G01*
X200575000Y-52325000D01*
G75*
G02*
X200825000Y-52075000I250000J0D01*
G01*
X201500000Y-52075000D01*
G75*
G02*
X201750000Y-52325000I0J-250000D01*
G01*
G37*
%TD*%
%TO.C,R16*%
G36*
G01*
X200050001Y-35200000D02*
X199149999Y-35200000D01*
G75*
G02*
X198900000Y-34950001I0J249999D01*
G01*
X198900000Y-34249999D01*
G75*
G02*
X199149999Y-34000000I249999J0D01*
G01*
X200050001Y-34000000D01*
G75*
G02*
X200300000Y-34249999I0J-249999D01*
G01*
X200300000Y-34950001D01*
G75*
G02*
X200050001Y-35200000I-249999J0D01*
G01*
G37*
G36*
G01*
X200050001Y-33200000D02*
X199149999Y-33200000D01*
G75*
G02*
X198900000Y-32950001I0J249999D01*
G01*
X198900000Y-32249999D01*
G75*
G02*
X199149999Y-32000000I249999J0D01*
G01*
X200050001Y-32000000D01*
G75*
G02*
X200300000Y-32249999I0J-249999D01*
G01*
X200300000Y-32950001D01*
G75*
G02*
X200050001Y-33200000I-249999J0D01*
G01*
G37*
%TD*%
%TO.C,C1*%
G36*
G01*
X185825000Y-44325000D02*
X185825000Y-45275000D01*
G75*
G02*
X185575000Y-45525000I-250000J0D01*
G01*
X184900000Y-45525000D01*
G75*
G02*
X184650000Y-45275000I0J250000D01*
G01*
X184650000Y-44325000D01*
G75*
G02*
X184900000Y-44075000I250000J0D01*
G01*
X185575000Y-44075000D01*
G75*
G02*
X185825000Y-44325000I0J-250000D01*
G01*
G37*
G36*
G01*
X183750000Y-44325000D02*
X183750000Y-45275000D01*
G75*
G02*
X183500000Y-45525000I-250000J0D01*
G01*
X182825000Y-45525000D01*
G75*
G02*
X182575000Y-45275000I0J250000D01*
G01*
X182575000Y-44325000D01*
G75*
G02*
X182825000Y-44075000I250000J0D01*
G01*
X183500000Y-44075000D01*
G75*
G02*
X183750000Y-44325000I0J-250000D01*
G01*
G37*
%TD*%
%TO.C,C3*%
G36*
G01*
X203825000Y-54525000D02*
X203825000Y-55475000D01*
G75*
G02*
X203575000Y-55725000I-250000J0D01*
G01*
X202900000Y-55725000D01*
G75*
G02*
X202650000Y-55475000I0J250000D01*
G01*
X202650000Y-54525000D01*
G75*
G02*
X202900000Y-54275000I250000J0D01*
G01*
X203575000Y-54275000D01*
G75*
G02*
X203825000Y-54525000I0J-250000D01*
G01*
G37*
G36*
G01*
X201750000Y-54525000D02*
X201750000Y-55475000D01*
G75*
G02*
X201500000Y-55725000I-250000J0D01*
G01*
X200825000Y-55725000D01*
G75*
G02*
X200575000Y-55475000I0J250000D01*
G01*
X200575000Y-54525000D01*
G75*
G02*
X200825000Y-54275000I250000J0D01*
G01*
X201500000Y-54275000D01*
G75*
G02*
X201750000Y-54525000I0J-250000D01*
G01*
G37*
%TD*%
%TO.C,C6*%
G36*
G01*
X186275000Y-58025000D02*
X185325000Y-58025000D01*
G75*
G02*
X185075000Y-57775000I0J250000D01*
G01*
X185075000Y-57100000D01*
G75*
G02*
X185325000Y-56850000I250000J0D01*
G01*
X186275000Y-56850000D01*
G75*
G02*
X186525000Y-57100000I0J-250000D01*
G01*
X186525000Y-57775000D01*
G75*
G02*
X186275000Y-58025000I-250000J0D01*
G01*
G37*
G36*
G01*
X186275000Y-55950000D02*
X185325000Y-55950000D01*
G75*
G02*
X185075000Y-55700000I0J250000D01*
G01*
X185075000Y-55025000D01*
G75*
G02*
X185325000Y-54775000I250000J0D01*
G01*
X186275000Y-54775000D01*
G75*
G02*
X186525000Y-55025000I0J-250000D01*
G01*
X186525000Y-55700000D01*
G75*
G02*
X186275000Y-55950000I-250000J0D01*
G01*
G37*
%TD*%
%TO.C,C5*%
G36*
G01*
X203825000Y-56725000D02*
X203825000Y-57675000D01*
G75*
G02*
X203575000Y-57925000I-250000J0D01*
G01*
X202900000Y-57925000D01*
G75*
G02*
X202650000Y-57675000I0J250000D01*
G01*
X202650000Y-56725000D01*
G75*
G02*
X202900000Y-56475000I250000J0D01*
G01*
X203575000Y-56475000D01*
G75*
G02*
X203825000Y-56725000I0J-250000D01*
G01*
G37*
G36*
G01*
X201750000Y-56725000D02*
X201750000Y-57675000D01*
G75*
G02*
X201500000Y-57925000I-250000J0D01*
G01*
X200825000Y-57925000D01*
G75*
G02*
X200575000Y-57675000I0J250000D01*
G01*
X200575000Y-56725000D01*
G75*
G02*
X200825000Y-56475000I250000J0D01*
G01*
X201500000Y-56475000D01*
G75*
G02*
X201750000Y-56725000I0J-250000D01*
G01*
G37*
%TD*%
D19*
%TO.C,Y1*%
X183300000Y-33000000D03*
X184500000Y-33000000D03*
X185700000Y-33000000D03*
%TD*%
D17*
%TO.C,C20*%
X171500000Y-40500000D03*
D18*
X175000000Y-40500000D03*
%TD*%
%TO.C,C19*%
G36*
G01*
X203825000Y-45725000D02*
X203825000Y-46675000D01*
G75*
G02*
X203575000Y-46925000I-250000J0D01*
G01*
X202900000Y-46925000D01*
G75*
G02*
X202650000Y-46675000I0J250000D01*
G01*
X202650000Y-45725000D01*
G75*
G02*
X202900000Y-45475000I250000J0D01*
G01*
X203575000Y-45475000D01*
G75*
G02*
X203825000Y-45725000I0J-250000D01*
G01*
G37*
G36*
G01*
X201750000Y-45725000D02*
X201750000Y-46675000D01*
G75*
G02*
X201500000Y-46925000I-250000J0D01*
G01*
X200825000Y-46925000D01*
G75*
G02*
X200575000Y-46675000I0J250000D01*
G01*
X200575000Y-45725000D01*
G75*
G02*
X200825000Y-45475000I250000J0D01*
G01*
X201500000Y-45475000D01*
G75*
G02*
X201750000Y-45725000I0J-250000D01*
G01*
G37*
%TD*%
%TO.C,C11*%
G36*
G01*
X169475000Y-35625000D02*
X168525000Y-35625000D01*
G75*
G02*
X168275000Y-35375000I0J250000D01*
G01*
X168275000Y-34700000D01*
G75*
G02*
X168525000Y-34450000I250000J0D01*
G01*
X169475000Y-34450000D01*
G75*
G02*
X169725000Y-34700000I0J-250000D01*
G01*
X169725000Y-35375000D01*
G75*
G02*
X169475000Y-35625000I-250000J0D01*
G01*
G37*
G36*
G01*
X169475000Y-33550000D02*
X168525000Y-33550000D01*
G75*
G02*
X168275000Y-33300000I0J250000D01*
G01*
X168275000Y-32625000D01*
G75*
G02*
X168525000Y-32375000I250000J0D01*
G01*
X169475000Y-32375000D01*
G75*
G02*
X169725000Y-32625000I0J-250000D01*
G01*
X169725000Y-33300000D01*
G75*
G02*
X169475000Y-33550000I-250000J0D01*
G01*
G37*
%TD*%
%TO.C,C13*%
G36*
G01*
X203825000Y-50125000D02*
X203825000Y-51075000D01*
G75*
G02*
X203575000Y-51325000I-250000J0D01*
G01*
X202900000Y-51325000D01*
G75*
G02*
X202650000Y-51075000I0J250000D01*
G01*
X202650000Y-50125000D01*
G75*
G02*
X202900000Y-49875000I250000J0D01*
G01*
X203575000Y-49875000D01*
G75*
G02*
X203825000Y-50125000I0J-250000D01*
G01*
G37*
G36*
G01*
X201750000Y-50125000D02*
X201750000Y-51075000D01*
G75*
G02*
X201500000Y-51325000I-250000J0D01*
G01*
X200825000Y-51325000D01*
G75*
G02*
X200575000Y-51075000I0J250000D01*
G01*
X200575000Y-50125000D01*
G75*
G02*
X200825000Y-49875000I250000J0D01*
G01*
X201500000Y-49875000D01*
G75*
G02*
X201750000Y-50125000I0J-250000D01*
G01*
G37*
%TD*%
%TO.C,C12*%
G36*
G01*
X200575000Y-48875000D02*
X200575000Y-47925000D01*
G75*
G02*
X200825000Y-47675000I250000J0D01*
G01*
X201500000Y-47675000D01*
G75*
G02*
X201750000Y-47925000I0J-250000D01*
G01*
X201750000Y-48875000D01*
G75*
G02*
X201500000Y-49125000I-250000J0D01*
G01*
X200825000Y-49125000D01*
G75*
G02*
X200575000Y-48875000I0J250000D01*
G01*
G37*
G36*
G01*
X202650000Y-48875000D02*
X202650000Y-47925000D01*
G75*
G02*
X202900000Y-47675000I250000J0D01*
G01*
X203575000Y-47675000D01*
G75*
G02*
X203825000Y-47925000I0J-250000D01*
G01*
X203825000Y-48875000D01*
G75*
G02*
X203575000Y-49125000I-250000J0D01*
G01*
X202900000Y-49125000D01*
G75*
G02*
X202650000Y-48875000I0J250000D01*
G01*
G37*
%TD*%
%TO.C,C9*%
G36*
G01*
X188675000Y-58025000D02*
X187725000Y-58025000D01*
G75*
G02*
X187475000Y-57775000I0J250000D01*
G01*
X187475000Y-57100000D01*
G75*
G02*
X187725000Y-56850000I250000J0D01*
G01*
X188675000Y-56850000D01*
G75*
G02*
X188925000Y-57100000I0J-250000D01*
G01*
X188925000Y-57775000D01*
G75*
G02*
X188675000Y-58025000I-250000J0D01*
G01*
G37*
G36*
G01*
X188675000Y-55950000D02*
X187725000Y-55950000D01*
G75*
G02*
X187475000Y-55700000I0J250000D01*
G01*
X187475000Y-55025000D01*
G75*
G02*
X187725000Y-54775000I250000J0D01*
G01*
X188675000Y-54775000D01*
G75*
G02*
X188925000Y-55025000I0J-250000D01*
G01*
X188925000Y-55700000D01*
G75*
G02*
X188675000Y-55950000I-250000J0D01*
G01*
G37*
%TD*%
%TO.C,C4*%
G36*
G01*
X183975000Y-54025000D02*
X183025000Y-54025000D01*
G75*
G02*
X182775000Y-53775000I0J250000D01*
G01*
X182775000Y-53100000D01*
G75*
G02*
X183025000Y-52850000I250000J0D01*
G01*
X183975000Y-52850000D01*
G75*
G02*
X184225000Y-53100000I0J-250000D01*
G01*
X184225000Y-53775000D01*
G75*
G02*
X183975000Y-54025000I-250000J0D01*
G01*
G37*
G36*
G01*
X183975000Y-51950000D02*
X183025000Y-51950000D01*
G75*
G02*
X182775000Y-51700000I0J250000D01*
G01*
X182775000Y-51025000D01*
G75*
G02*
X183025000Y-50775000I250000J0D01*
G01*
X183975000Y-50775000D01*
G75*
G02*
X184225000Y-51025000I0J-250000D01*
G01*
X184225000Y-51700000D01*
G75*
G02*
X183975000Y-51950000I-250000J0D01*
G01*
G37*
%TD*%
D16*
%TO.C,Q1*%
X161100000Y-37095000D03*
X161100000Y-38365000D03*
X161100000Y-39635000D03*
X161100000Y-40905000D03*
D10*
G36*
X167325000Y-37395000D02*
G01*
X166525000Y-37395000D01*
X166525000Y-38065000D01*
X167325000Y-38065000D01*
X167325000Y-38665000D01*
X166525000Y-38665000D01*
X166525000Y-39335000D01*
X167325000Y-39335000D01*
X167325000Y-39935000D01*
X166525000Y-39935000D01*
X166525000Y-40605000D01*
X167325000Y-40605000D01*
X167325000Y-41205000D01*
X162775000Y-41205000D01*
X162775000Y-36795000D01*
X167325000Y-36795000D01*
X167325000Y-37395000D01*
G37*
%TD*%
%TO.C,D1*%
G36*
G01*
X185800000Y-46549999D02*
X185800000Y-47450001D01*
G75*
G02*
X185550001Y-47700000I-249999J0D01*
G01*
X184899999Y-47700000D01*
G75*
G02*
X184650000Y-47450001I0J249999D01*
G01*
X184650000Y-46549999D01*
G75*
G02*
X184899999Y-46300000I249999J0D01*
G01*
X185550001Y-46300000D01*
G75*
G02*
X185800000Y-46549999I0J-249999D01*
G01*
G37*
G36*
G01*
X183750000Y-46549999D02*
X183750000Y-47450001D01*
G75*
G02*
X183500001Y-47700000I-249999J0D01*
G01*
X182849999Y-47700000D01*
G75*
G02*
X182600000Y-47450001I0J249999D01*
G01*
X182600000Y-46549999D01*
G75*
G02*
X182849999Y-46300000I249999J0D01*
G01*
X183500001Y-46300000D01*
G75*
G02*
X183750000Y-46549999I0J-249999D01*
G01*
G37*
%TD*%
%TO.C,U2*%
G36*
X198581529Y-52274400D02*
G01*
X199120344Y-51735585D01*
X199299949Y-51915190D01*
X198761134Y-52454005D01*
X198581529Y-52274400D01*
G37*
G36*
X197874422Y-51567293D02*
G01*
X198413237Y-51028478D01*
X198592842Y-51208083D01*
X198054027Y-51746898D01*
X197874422Y-51567293D01*
G37*
G36*
X197520870Y-51213740D02*
G01*
X198059685Y-50674925D01*
X198239290Y-50854530D01*
X197700475Y-51393345D01*
X197520870Y-51213740D01*
G37*
G36*
X197167315Y-50860186D02*
G01*
X197706130Y-50321371D01*
X197885735Y-50500976D01*
X197346920Y-51039791D01*
X197167315Y-50860186D01*
G37*
G36*
X196813762Y-50506633D02*
G01*
X197352577Y-49967818D01*
X197532182Y-50147423D01*
X196993367Y-50686238D01*
X196813762Y-50506633D01*
G37*
G36*
X196460209Y-50153080D02*
G01*
X196999024Y-49614265D01*
X197178629Y-49793870D01*
X196639814Y-50332685D01*
X196460209Y-50153080D01*
G37*
G36*
X196106655Y-49799525D02*
G01*
X196645470Y-49260710D01*
X196825075Y-49440315D01*
X196286260Y-49979130D01*
X196106655Y-49799525D01*
G37*
G36*
X195753102Y-49445973D02*
G01*
X196291917Y-48907158D01*
X196471522Y-49086763D01*
X195932707Y-49625578D01*
X195753102Y-49445973D01*
G37*
G36*
X195399548Y-49092419D02*
G01*
X195938363Y-48553604D01*
X196117968Y-48733209D01*
X195579153Y-49272024D01*
X195399548Y-49092419D01*
G37*
G36*
X195045995Y-48738866D02*
G01*
X195584810Y-48200051D01*
X195764415Y-48379656D01*
X195225600Y-48918471D01*
X195045995Y-48738866D01*
G37*
G36*
X193915190Y-48200051D02*
G01*
X194454005Y-48738866D01*
X194274400Y-48918471D01*
X193735585Y-48379656D01*
X193915190Y-48200051D01*
G37*
G36*
X193561637Y-48553604D02*
G01*
X194100452Y-49092419D01*
X193920847Y-49272024D01*
X193382032Y-48733209D01*
X193561637Y-48553604D01*
G37*
G36*
X193208083Y-48907158D02*
G01*
X193746898Y-49445973D01*
X193567293Y-49625578D01*
X193028478Y-49086763D01*
X193208083Y-48907158D01*
G37*
G36*
X192854530Y-49260710D02*
G01*
X193393345Y-49799525D01*
X193213740Y-49979130D01*
X192674925Y-49440315D01*
X192854530Y-49260710D01*
G37*
G36*
X192500976Y-49614265D02*
G01*
X193039791Y-50153080D01*
X192860186Y-50332685D01*
X192321371Y-49793870D01*
X192500976Y-49614265D01*
G37*
G36*
X192147423Y-49967818D02*
G01*
X192686238Y-50506633D01*
X192506633Y-50686238D01*
X191967818Y-50147423D01*
X192147423Y-49967818D01*
G37*
G36*
X191793870Y-50321371D02*
G01*
X192332685Y-50860186D01*
X192153080Y-51039791D01*
X191614265Y-50500976D01*
X191793870Y-50321371D01*
G37*
G36*
X191440315Y-50674925D02*
G01*
X191979130Y-51213740D01*
X191799525Y-51393345D01*
X191260710Y-50854530D01*
X191440315Y-50674925D01*
G37*
G36*
X191086763Y-51028478D02*
G01*
X191625578Y-51567293D01*
X191445973Y-51746898D01*
X190907158Y-51208083D01*
X191086763Y-51028478D01*
G37*
G36*
X190733209Y-51382032D02*
G01*
X191272024Y-51920847D01*
X191092419Y-52100452D01*
X190553604Y-51561637D01*
X190733209Y-51382032D01*
G37*
G36*
X190379656Y-51735585D02*
G01*
X190918471Y-52274400D01*
X190738866Y-52454005D01*
X190200051Y-51915190D01*
X190379656Y-51735585D01*
G37*
G36*
X190200051Y-53584810D02*
G01*
X190738866Y-53045995D01*
X190918471Y-53225600D01*
X190379656Y-53764415D01*
X190200051Y-53584810D01*
G37*
G36*
X190553604Y-53938363D02*
G01*
X191092419Y-53399548D01*
X191272024Y-53579153D01*
X190733209Y-54117968D01*
X190553604Y-53938363D01*
G37*
G36*
X190907158Y-54291917D02*
G01*
X191445973Y-53753102D01*
X191625578Y-53932707D01*
X191086763Y-54471522D01*
X190907158Y-54291917D01*
G37*
G36*
X191614265Y-54999024D02*
G01*
X192153080Y-54460209D01*
X192332685Y-54639814D01*
X191793870Y-55178629D01*
X191614265Y-54999024D01*
G37*
G36*
X192321371Y-55706130D02*
G01*
X192860186Y-55167315D01*
X193039791Y-55346920D01*
X192500976Y-55885735D01*
X192321371Y-55706130D01*
G37*
G36*
X193028478Y-56413237D02*
G01*
X193567293Y-55874422D01*
X193746898Y-56054027D01*
X193208083Y-56592842D01*
X193028478Y-56413237D01*
G37*
G36*
X193382032Y-56766791D02*
G01*
X193920847Y-56227976D01*
X194100452Y-56407581D01*
X193561637Y-56946396D01*
X193382032Y-56766791D01*
G37*
G36*
X193735585Y-57120344D02*
G01*
X194274400Y-56581529D01*
X194454005Y-56761134D01*
X193915190Y-57299949D01*
X193735585Y-57120344D01*
G37*
G36*
X195579153Y-56227976D02*
G01*
X196117968Y-56766791D01*
X195938363Y-56946396D01*
X195399548Y-56407581D01*
X195579153Y-56227976D01*
G37*
G36*
X195932707Y-55874422D02*
G01*
X196471522Y-56413237D01*
X196291917Y-56592842D01*
X195753102Y-56054027D01*
X195932707Y-55874422D01*
G37*
G36*
X196286260Y-55520870D02*
G01*
X196825075Y-56059685D01*
X196645470Y-56239290D01*
X196106655Y-55700475D01*
X196286260Y-55520870D01*
G37*
G36*
X196993367Y-54813762D02*
G01*
X197532182Y-55352577D01*
X197352577Y-55532182D01*
X196813762Y-54993367D01*
X196993367Y-54813762D01*
G37*
G36*
X197346920Y-54460209D02*
G01*
X197885735Y-54999024D01*
X197706130Y-55178629D01*
X197167315Y-54639814D01*
X197346920Y-54460209D01*
G37*
G36*
X197700475Y-54106655D02*
G01*
X198239290Y-54645470D01*
X198059685Y-54825075D01*
X197520870Y-54286260D01*
X197700475Y-54106655D01*
G37*
G36*
X198407581Y-53399548D02*
G01*
X198946396Y-53938363D01*
X198766791Y-54117968D01*
X198227976Y-53579153D01*
X198407581Y-53399548D01*
G37*
G36*
X198761134Y-53045995D02*
G01*
X199299949Y-53584810D01*
X199120344Y-53764415D01*
X198581529Y-53225600D01*
X198761134Y-53045995D01*
G37*
G36*
X194750000Y-49858358D02*
G01*
X197641642Y-52750000D01*
X194750000Y-55641642D01*
X191858358Y-52750000D01*
X194750000Y-49858358D01*
G37*
%TD*%
M02*
