%TF.GenerationSoftware,KiCad,Pcbnew,(5.1.10)-1*%
%TF.CreationDate,2021-12-01T19:41:51+01:00*%
%TF.ProjectId,xESC2,78455343-322e-46b6-9963-61645f706362,rev?*%
%TF.SameCoordinates,Original*%
%TF.FileFunction,Soldermask,Bot*%
%TF.FilePolarity,Negative*%
%FSLAX46Y46*%
G04 Gerber Fmt 4.6, Leading zero omitted, Abs format (unit mm)*
G04 Created by KiCad (PCBNEW (5.1.10)-1) date 2021-12-01 19:41:51*
%MOMM*%
%LPD*%
G01*
G04 APERTURE LIST*
%ADD10O,1.700000X1.700000*%
%ADD11R,1.700000X1.700000*%
%ADD12C,0.600000*%
%ADD13O,0.850000X1.700000*%
%ADD14R,5.000000X5.000000*%
%ADD15C,4.700000*%
%ADD16C,2.000000*%
%ADD17R,2.000000X2.000000*%
G04 APERTURE END LIST*
D10*
%TO.C,J5*%
X201400000Y-115420000D03*
X201400000Y-117960000D03*
D11*
X201400000Y-120500000D03*
%TD*%
D10*
%TO.C,J4*%
X197800000Y-107740000D03*
X197800000Y-110280000D03*
X197800000Y-112820000D03*
X197800000Y-115360000D03*
D11*
X197800000Y-117900000D03*
%TD*%
D10*
%TO.C,J3*%
X203120000Y-139500000D03*
X205660000Y-139500000D03*
X208200000Y-139500000D03*
X210740000Y-139500000D03*
D11*
X213280000Y-139500000D03*
%TD*%
D12*
%TO.C,J2*%
X228100000Y-137050000D03*
X224100000Y-137050000D03*
D13*
X228925000Y-139400000D03*
X223275000Y-139400000D03*
%TD*%
D10*
%TO.C,J1*%
X197800000Y-134200000D03*
X197800000Y-131660000D03*
X197800000Y-129120000D03*
X197800000Y-126580000D03*
X197800000Y-124040000D03*
D11*
X197800000Y-121500000D03*
%TD*%
D14*
%TO.C,TP7*%
X244750000Y-138000000D03*
%TD*%
%TO.C,TP6*%
X244750000Y-104000000D03*
%TD*%
%TO.C,TP5*%
X250750000Y-138000000D03*
%TD*%
%TO.C,TP4*%
X250750000Y-104000000D03*
%TD*%
%TO.C,TP3*%
X273250000Y-131500000D03*
%TD*%
%TO.C,TP2*%
X273400000Y-121000000D03*
%TD*%
%TO.C,TP1*%
X273400000Y-110500000D03*
%TD*%
D15*
%TO.C,H4*%
X273250000Y-103750000D03*
%TD*%
%TO.C,H3*%
X273250000Y-138250000D03*
%TD*%
%TO.C,H2*%
X198750000Y-103750000D03*
%TD*%
%TO.C,H1*%
X198750000Y-138250000D03*
%TD*%
D16*
%TO.C,C23*%
X238000000Y-103327856D03*
D17*
X234000000Y-109672144D03*
D16*
X236000000Y-104000000D03*
D17*
X236000000Y-109000000D03*
%TD*%
D16*
%TO.C,C22*%
X234000000Y-138672144D03*
D17*
X238000000Y-132327856D03*
D16*
X236000000Y-138000000D03*
D17*
X236000000Y-133000000D03*
%TD*%
M02*
