M48
; DRILL file {KiCad (5.1.10)-1} date 12/01/21 19:41:53
; FORMAT={-:-/ absolute / inch / decimal}
; #@! TF.CreationDate,2021-12-01T19:41:53+01:00
; #@! TF.GenerationSoftware,Kicad,Pcbnew,(5.1.10)-1
; #@! TF.FileFunction,Plated,1,4,PTH
FMAT,2
INCH
T1C0.0079
T2C0.0197
T3C0.0394
T4C0.1063
%
G90
G05
T1
X7.8583Y-4.5354
X7.8583Y-5.0472
X7.8898Y-4.3937
X7.9213Y-4.2756
X7.9449Y-5.0866
X7.9449Y-5.2244
X7.9724Y-4.9528
X7.9843Y-4.1969
X7.9921Y-4.3307
X7.9961Y-4.5118
X8.0157Y-4.8268
X8.0236Y-5.1732
X8.0512Y-4.9409
X8.0521Y-4.8022
X8.0522Y-4.882
X8.0551Y-5.1654
X8.0583Y-4.7609
X8.0709Y-5.0079
X8.0709Y-5.0945
X8.1024Y-4.7638
X8.1614Y-5.2047
X8.1654Y-4.5669
X8.1811Y-5.0236
X8.1811Y-5.1024
X8.189Y-4.6614
X8.2047Y-4.1732
X8.2047Y-5.315
X8.2047Y-5.378
X8.2362Y-4.8661
X8.252Y-4.7717
X8.2638Y-5.3268
X8.3106Y-5.1914
X8.3106Y-5.101
X8.3228Y-4.4882
X8.3228Y-4.7717
X8.3268Y-4.9134
X8.3391Y-5.1967
X8.3425Y-5.1027
X8.3504Y-4.8976
X8.3543Y-4.7795
X8.3543Y-4.9331
X8.3583Y-5.0472
X8.3622Y-5.126
X8.3768Y-5.1967
X8.3769Y-4.9538
X8.3882Y-5.0688
X8.3937Y-4.4488
X8.3937Y-5.0276
X8.3937Y-5.0995
X8.4055Y-5.1378
X8.409Y-5.2045
X8.4094Y-5.3622
X8.4094Y-5.4252
X8.4291Y-5.1063
X8.437Y-5.2087
X8.4488Y-4.7874
X8.4567Y-5.1299
X8.4646Y-4.2677
X8.4863Y-5.2308
X8.4882Y-4.9213
X8.5Y-4.7756
X8.5Y-5.0276
X8.5118Y-5.2165
X8.5276Y-4.4252
X8.5276Y-4.9055
X8.5354Y-5.4331
X8.5354Y-5.4882
X8.54Y-5.1175
X8.5408Y-5.2266
X8.5512Y-5.0315
X8.5596Y-5.1372
X8.5945Y-4.9094
X8.5984Y-5.0315
X8.6024Y-5.1417
X8.6102Y-4.9567
X8.622Y-5.0079
X8.6693Y-4.7283
X8.689Y-5.2874
X8.7008Y-4.7874
X8.7599Y-5.2312
X8.7717Y-4.7638
X8.7771Y-5.1554
X8.7795Y-5.1277
X8.7982Y-5.1829
X8.811Y-5.0394
X8.8583Y-4.2323
X8.8583Y-4.9528
X8.8606Y-4.7582
X8.874Y-5.1969
X8.878Y-4.0354
X8.8817Y-4.1179
X8.8819Y-4.4094
X8.8819Y-4.7244
X8.8858Y-5.0157
X8.8937Y-4.9331
X8.9006Y-4.8534
X8.9136Y-4.1179
X8.9449Y-4.4252
X9.0354Y-5.2205
X9.0433Y-5.1277
X9.0472Y-4.8508
X9.0472Y-4.9055
X9.063Y-5.2047
X9.0709Y-5.252
X9.1726Y-5.1754
X9.1811Y-5.2047
X9.189Y-4.8508
X9.189Y-5.2756
X9.1931Y-4.9051
X9.2441Y-4.626
X9.3258Y-4.9006
X9.3346Y-4.7165
X9.3386Y-4.8661
X9.3443Y-4.7972
X9.3465Y-5.0787
X9.3663Y-4.93
X9.378Y-4.8031
X9.3988Y-4.9191
X9.4094Y-4.6457
X9.4134Y-4.4528
X9.4134Y-4.563
X9.4173Y-4.9449
X9.4173Y-4.4252
X9.4409Y-4.4055
X9.4409Y-4.7402
X9.4449Y-4.378
X9.4488Y-5.2756
X9.4493Y-4.8903
X9.4646Y-4.937
X9.4803Y-4.378
X9.4843Y-4.5512
X9.4961Y-5.0945
X9.4961Y-5.5039
X9.5423Y-4.9931
X9.5512Y-4.252
X9.5512Y-5.2205
X9.5571Y-4.0157
X9.5571Y-4.0945
X9.5571Y-4.1732
X9.5571Y-5.3543
X9.5571Y-5.4331
X9.5571Y-5.5118
X9.5669Y-4.5036
X9.5768Y-4.0551
X9.5768Y-4.1339
X9.5768Y-5.3937
X9.5768Y-5.4724
X9.5801Y-4.3666
X9.5827Y-4.4334
X9.5906Y-5.0236
X9.5965Y-4.0157
X9.5965Y-4.0945
X9.5965Y-4.1732
X9.5965Y-4.6752
X9.5965Y-4.7343
X9.5965Y-4.7933
X9.5965Y-5.3543
X9.5965Y-5.4331
X9.5965Y-5.5118
X9.5984Y-5.2598
X9.6102Y-5.0039
X9.6142Y-4.4488
X9.6142Y-5.1654
X9.6142Y-5.2087
X9.6161Y-4.0551
X9.6161Y-4.1339
X9.6161Y-4.7047
X9.6161Y-4.7638
X9.6161Y-4.8228
X9.6161Y-5.3937
X9.6161Y-5.4724
X9.6358Y-4.0157
X9.6358Y-4.0945
X9.6358Y-4.1732
X9.6358Y-4.6752
X9.6358Y-4.7343
X9.6358Y-4.7933
X9.6358Y-5.3543
X9.6358Y-5.4331
X9.6358Y-5.5118
X9.6374Y-4.5118
X9.6457Y-4.4646
X9.6555Y-4.0551
X9.6555Y-4.1339
X9.6555Y-4.7047
X9.6555Y-4.7638
X9.6555Y-4.8228
X9.6555Y-5.3937
X9.6555Y-5.4724
X9.6752Y-4.0157
X9.6752Y-4.0945
X9.6752Y-4.1732
X9.6752Y-4.6752
X9.6752Y-4.7343
X9.6752Y-4.7933
X9.6752Y-5.3543
X9.6752Y-5.4331
X9.6752Y-5.5118
X9.6949Y-4.0551
X9.6949Y-4.1339
X9.6949Y-4.7047
X9.6949Y-4.7638
X9.6949Y-4.8228
X9.6949Y-5.3937
X9.6949Y-5.4724
X9.7146Y-4.0157
X9.7146Y-4.0945
X9.7146Y-4.1732
X9.7146Y-4.6752
X9.7146Y-4.7343
X9.7146Y-4.7933
X9.7146Y-5.3543
X9.7146Y-5.4331
X9.7146Y-5.5118
X9.7244Y-5.1654
X9.7244Y-5.2087
X9.7343Y-4.7047
X9.7343Y-4.7638
X9.7343Y-4.8228
X9.7362Y-4.9882
X9.7539Y-4.6752
X9.7539Y-4.7343
X9.7539Y-4.7933
X9.7559Y-4.4755
X9.7559Y-4.5276
X9.7559Y-5.0079
X9.7874Y-5.2283
X9.7913Y-4.4921
X9.7933Y-4.0157
X9.7933Y-4.0945
X9.7933Y-4.1732
X9.7933Y-5.3543
X9.7933Y-5.4331
X9.7933Y-5.5118
X9.813Y-4.0551
X9.813Y-4.1339
X9.813Y-5.3937
X9.813Y-5.4724
X9.8327Y-4.0157
X9.8327Y-4.0945
X9.8327Y-4.1732
X9.8327Y-5.3543
X9.8327Y-5.4331
X9.8327Y-5.5118
X9.8504Y-5.2047
X9.8524Y-4.0551
X9.8524Y-4.1339
X9.8524Y-5.3937
X9.8524Y-5.4724
X9.872Y-4.0157
X9.872Y-4.0945
X9.872Y-4.1732
X9.872Y-5.3543
X9.872Y-5.4331
X9.872Y-5.5118
X9.8793Y-4.5223
X9.8917Y-4.0551
X9.8917Y-4.1339
X9.8917Y-5.3937
X9.8917Y-5.4724
X9.9055Y-5.189
X9.9114Y-4.0157
X9.9114Y-4.0945
X9.9114Y-4.1732
X9.9114Y-5.3543
X9.9114Y-5.4331
X9.9114Y-5.5118
X9.9116Y-4.7061
X9.9134Y-4.8976
X9.9134Y-4.9843
X9.9213Y-4.5433
X9.9311Y-4.0551
X9.9311Y-4.1339
X9.9311Y-5.3937
X9.9311Y-5.4724
X9.9337Y-4.7526
X9.9449Y-5.2362
X9.9508Y-4.0157
X9.9508Y-4.0945
X9.9508Y-4.1732
X9.9508Y-5.3543
X9.9508Y-5.4331
X9.9508Y-5.5118
X9.9764Y-4.2362
X9.9764Y-5.2913
X9.9843Y-4.8346
X9.9843Y-5.1417
X10.0157Y-4.0945
X10.0236Y-4.3543
X10.0236Y-5.4331
X10.028Y-4.4846
X10.0315Y-4.5669
X10.0321Y-5.0367
X10.0404Y-4.9606
X10.0689Y-4.1535
X10.0689Y-4.4291
X10.0689Y-4.626
X10.0689Y-4.9016
X10.0689Y-5.0984
X10.0689Y-5.374
X10.0787Y-4.1732
X10.0787Y-4.4094
X10.0787Y-4.6457
X10.0787Y-4.8819
X10.0787Y-5.1181
X10.0787Y-5.3543
X10.0886Y-4.1535
X10.0886Y-4.4291
X10.0886Y-4.626
X10.0886Y-4.9016
X10.0886Y-5.0984
X10.0886Y-5.374
X10.0984Y-4.1732
X10.0984Y-4.4094
X10.0984Y-4.6457
X10.0984Y-4.8819
X10.0984Y-5.1181
X10.0984Y-5.3543
X10.1083Y-4.1535
X10.1083Y-4.4291
X10.1083Y-4.626
X10.1083Y-4.9016
X10.1083Y-5.0984
X10.1083Y-5.374
X10.1181Y-4.1732
X10.1181Y-4.4094
X10.1181Y-4.6457
X10.1181Y-4.8819
X10.1181Y-5.1181
X10.1181Y-5.3543
X10.128Y-4.1535
X10.128Y-4.4291
X10.128Y-4.626
X10.128Y-4.9016
X10.128Y-5.0984
X10.128Y-5.374
X10.1378Y-4.1732
X10.1378Y-4.4094
X10.1378Y-4.6457
X10.1378Y-4.8819
X10.1378Y-5.1181
X10.1378Y-5.3543
X10.1476Y-4.1535
X10.1476Y-4.4291
X10.1476Y-4.626
X10.1476Y-4.9016
X10.1476Y-5.0984
X10.1476Y-5.374
X10.1575Y-4.1732
X10.1575Y-4.4094
X10.1575Y-4.6457
X10.1575Y-4.8819
X10.1575Y-5.1181
X10.1575Y-5.3543
X10.1673Y-4.1535
X10.1673Y-4.4291
X10.1673Y-4.626
X10.1673Y-4.9016
X10.1673Y-5.0984
X10.1673Y-5.374
X10.1772Y-4.1732
X10.1772Y-4.2126
X10.1772Y-4.252
X10.1772Y-4.3307
X10.1772Y-4.3701
X10.1772Y-4.4094
X10.1772Y-4.6457
X10.1772Y-4.685
X10.1772Y-4.7244
X10.1772Y-4.8031
X10.1772Y-4.8425
X10.1772Y-4.8819
X10.1772Y-5.1181
X10.1772Y-5.1575
X10.1772Y-5.1969
X10.1772Y-5.2756
X10.1772Y-5.315
X10.1772Y-5.3543
X10.187Y-4.1535
X10.187Y-4.1929
X10.187Y-4.2323
X10.187Y-4.3504
X10.187Y-4.3898
X10.187Y-4.4291
X10.187Y-4.626
X10.187Y-4.6654
X10.187Y-4.7047
X10.187Y-4.8228
X10.187Y-4.8622
X10.187Y-4.9016
X10.187Y-5.0984
X10.187Y-5.1378
X10.187Y-5.1772
X10.187Y-5.2953
X10.187Y-5.3346
X10.187Y-5.374
X10.3543Y-5.4961
X10.5217Y-4.2224
X10.5217Y-4.2618
X10.5217Y-4.3209
X10.5217Y-4.3602
X10.5217Y-4.4488
X10.5217Y-4.4882
X10.5217Y-4.6949
X10.5217Y-4.7343
X10.5217Y-4.7933
X10.5217Y-4.8327
X10.5217Y-4.9213
X10.5217Y-4.9606
X10.5217Y-5.1673
X10.5217Y-5.2067
X10.5217Y-5.2657
X10.5217Y-5.3051
X10.5217Y-5.3937
X10.5217Y-5.4331
X10.5315Y-4.2421
X10.5315Y-4.3406
X10.5315Y-4.4685
X10.5315Y-4.7146
X10.5315Y-4.813
X10.5315Y-4.9409
X10.5315Y-5.187
X10.5315Y-5.2854
X10.5315Y-5.4134
X10.5413Y-4.2224
X10.5413Y-4.2618
X10.5413Y-4.3209
X10.5413Y-4.3602
X10.5413Y-4.4488
X10.5413Y-4.4882
X10.5413Y-4.6949
X10.5413Y-4.7343
X10.5413Y-4.7933
X10.5413Y-4.8327
X10.5413Y-4.9213
X10.5413Y-4.9606
X10.5413Y-5.1673
X10.5413Y-5.2067
X10.5413Y-5.2657
X10.5413Y-5.3051
X10.5413Y-5.3937
X10.5413Y-5.4331
X10.5512Y-4.2421
X10.5512Y-4.3406
X10.5512Y-4.4685
X10.5512Y-4.7146
X10.5512Y-4.813
X10.5512Y-4.9409
X10.5512Y-5.187
X10.5512Y-5.2854
X10.5512Y-5.4134
X10.561Y-4.2224
X10.561Y-4.2618
X10.561Y-4.3209
X10.561Y-4.3602
X10.561Y-4.4488
X10.561Y-4.4882
X10.561Y-4.6949
X10.561Y-4.7343
X10.561Y-4.7933
X10.561Y-4.8327
X10.561Y-4.9213
X10.561Y-4.9606
X10.561Y-5.1673
X10.561Y-5.2067
X10.561Y-5.2657
X10.561Y-5.3051
X10.561Y-5.3937
X10.561Y-5.4331
X10.5709Y-4.2421
X10.5709Y-4.3406
X10.5709Y-4.4685
X10.5709Y-4.7146
X10.5709Y-4.813
X10.5709Y-4.9409
X10.5709Y-5.187
X10.5709Y-5.2854
X10.5709Y-5.4134
X10.5807Y-4.2224
X10.5807Y-4.2618
X10.5807Y-4.3209
X10.5807Y-4.3602
X10.5807Y-4.4488
X10.5807Y-4.4882
X10.5807Y-4.6949
X10.5807Y-4.7343
X10.5807Y-4.7933
X10.5807Y-4.8327
X10.5807Y-4.9213
X10.5807Y-4.9606
X10.5807Y-5.1673
X10.5807Y-5.2067
X10.5807Y-5.2657
X10.5807Y-5.3051
X10.5807Y-5.3937
X10.5807Y-5.4331
X10.5906Y-4.2421
X10.5906Y-4.3406
X10.5906Y-4.4685
X10.5906Y-4.7146
X10.5906Y-4.813
X10.5906Y-4.9409
X10.5906Y-5.187
X10.5906Y-5.2854
X10.5906Y-5.4134
X10.6004Y-4.2224
X10.6004Y-4.2618
X10.6004Y-4.3209
X10.6004Y-4.3602
X10.6004Y-4.4488
X10.6004Y-4.4882
X10.6004Y-4.6949
X10.6004Y-4.7343
X10.6004Y-4.7933
X10.6004Y-4.8327
X10.6004Y-4.9213
X10.6004Y-4.9606
X10.6004Y-5.1673
X10.6004Y-5.2067
X10.6004Y-5.2657
X10.6004Y-5.3051
X10.6004Y-5.3937
X10.6004Y-5.4331
X10.6102Y-4.2421
X10.6102Y-4.3406
X10.6102Y-4.4685
X10.6102Y-4.7146
X10.6102Y-4.813
X10.6102Y-4.9409
X10.6102Y-5.187
X10.6102Y-5.2854
X10.6102Y-5.4134
X10.6201Y-4.2224
X10.6201Y-4.2618
X10.6201Y-4.3209
X10.6201Y-4.3602
X10.6201Y-4.4488
X10.6201Y-4.4882
X10.6201Y-4.6949
X10.6201Y-4.7343
X10.6201Y-4.7933
X10.6201Y-4.8327
X10.6201Y-4.9213
X10.6201Y-4.9606
X10.6201Y-5.1673
X10.6201Y-5.2067
X10.6201Y-5.2657
X10.6201Y-5.3051
X10.6201Y-5.3937
X10.6201Y-5.4331
X10.6299Y-4.2421
X10.6299Y-4.3406
X10.6299Y-4.4685
X10.6299Y-4.7146
X10.6299Y-4.813
X10.6299Y-4.9409
X10.6299Y-5.187
X10.6299Y-5.2854
X10.6299Y-5.4134
X10.6398Y-4.2224
X10.6398Y-4.2618
X10.6398Y-4.3209
X10.6398Y-4.3602
X10.6398Y-4.4488
X10.6398Y-4.4882
X10.6398Y-4.6949
X10.6398Y-4.7343
X10.6398Y-4.7933
X10.6398Y-4.8327
X10.6398Y-4.9213
X10.6398Y-4.9606
X10.6398Y-5.1673
X10.6398Y-5.2067
X10.6398Y-5.2657
X10.6398Y-5.3051
X10.6398Y-5.3937
X10.6398Y-5.4331
X10.6791Y-4.2717
X10.6791Y-4.3504
X10.6791Y-4.4291
X10.6791Y-4.685
X10.6791Y-4.7638
X10.6791Y-4.8425
X10.6791Y-5.0984
X10.6791Y-5.1772
X10.6791Y-5.2559
X10.6949Y-4.4882
X10.6949Y-4.6063
X10.6949Y-4.9213
X10.6949Y-5.0394
X10.6988Y-4.311
X10.6988Y-4.3898
X10.6988Y-4.7244
X10.6988Y-4.8031
X10.6988Y-5.1378
X10.6988Y-5.2165
X10.7185Y-4.2717
X10.7185Y-4.3504
X10.7185Y-4.4291
X10.7185Y-4.685
X10.7185Y-4.7638
X10.7185Y-4.8425
X10.7185Y-5.0984
X10.7185Y-5.1772
X10.7185Y-5.2559
X10.7382Y-4.311
X10.7382Y-4.3898
X10.7382Y-4.7244
X10.7382Y-4.8031
X10.7382Y-5.1378
X10.7382Y-5.2165
X10.7579Y-4.2717
X10.7579Y-4.3504
X10.7579Y-4.4291
X10.7579Y-4.5472
X10.7579Y-4.685
X10.7579Y-4.7638
X10.7579Y-4.8425
X10.7579Y-4.9803
X10.7579Y-5.0984
X10.7579Y-5.1772
X10.7579Y-5.2559
X10.7776Y-4.311
X10.7776Y-4.3898
X10.7776Y-4.7244
X10.7776Y-4.8031
X10.7776Y-5.1378
X10.7776Y-5.2165
X10.7972Y-4.2717
X10.7972Y-4.3504
X10.7972Y-4.4291
X10.7972Y-4.685
X10.7972Y-4.7638
X10.7972Y-4.8425
X10.7972Y-5.0984
X10.7972Y-5.1772
X10.7972Y-5.2559
X10.8169Y-4.311
X10.8169Y-4.3898
X10.8169Y-4.7244
X10.8169Y-4.8031
X10.8169Y-5.1378
X10.8169Y-5.2165
X10.8209Y-4.4882
X10.8209Y-4.6063
X10.8209Y-4.9213
X10.8209Y-5.0394
X10.8366Y-4.2717
X10.8366Y-4.3504
X10.8366Y-4.4291
X10.8366Y-4.685
X10.8366Y-4.7638
X10.8366Y-4.8425
X10.8366Y-5.0984
X10.8366Y-5.1772
X10.8366Y-5.2559
T3
X7.7874Y-4.2417
X7.7874Y-4.3417
X7.7874Y-4.4417
X7.7874Y-4.5417
X7.7874Y-4.6417
X7.7874Y-4.7835
X7.7874Y-4.8835
X7.7874Y-4.9835
X7.7874Y-5.0835
X7.7874Y-5.1835
X7.7874Y-5.2835
X7.9291Y-4.5441
X7.9291Y-4.6441
X7.9291Y-4.7441
X7.9969Y-5.4921
X8.0969Y-5.4921
X8.1969Y-5.4921
X8.2969Y-5.4921
X8.3969Y-5.4921
X9.2126Y-4.3178
X9.2126Y-5.4595
X9.2913Y-4.0945
X9.2913Y-4.2913
X9.2913Y-5.2362
X9.2913Y-5.4331
X9.3701Y-4.068
X9.3701Y-5.2098
T4
X7.8248Y-4.0846
X7.8248Y-5.4429
X10.7579Y-4.0846
X10.7579Y-5.4429
T2
G00X8.7904Y-5.4744
M15
G01X8.7904Y-5.502
M16
G05
G00X9.0128Y-5.4744
M15
G01X9.0128Y-5.502
M16
G05
T0
M30
