%TF.GenerationSoftware,KiCad,Pcbnew,(5.1.10)-1*%
%TF.CreationDate,2021-12-01T19:41:51+01:00*%
%TF.ProjectId,xESC2,78455343-322e-46b6-9963-61645f706362,rev?*%
%TF.SameCoordinates,Original*%
%TF.FileFunction,Soldermask,Top*%
%TF.FilePolarity,Negative*%
%FSLAX46Y46*%
G04 Gerber Fmt 4.6, Leading zero omitted, Abs format (unit mm)*
G04 Created by KiCad (PCBNEW (5.1.10)-1) date 2021-12-01 19:41:51*
%MOMM*%
%LPD*%
G01*
G04 APERTURE LIST*
%ADD10O,1.700000X1.700000*%
%ADD11R,1.700000X1.700000*%
%ADD12C,0.600000*%
%ADD13O,0.850000X1.700000*%
%ADD14R,2.100000X1.600000*%
%ADD15R,1.900000X1.900000*%
%ADD16R,0.400000X1.350000*%
%ADD17R,1.200000X0.900000*%
%ADD18R,4.500000X2.000000*%
%ADD19R,5.000000X5.000000*%
%ADD20R,2.000000X1.500000*%
%ADD21R,2.000000X3.800000*%
%ADD22R,3.500000X4.000000*%
%ADD23R,2.500000X1.800000*%
%ADD24C,4.700000*%
%ADD25R,5.003800X5.003800*%
%ADD26R,1.340599X0.279400*%
%ADD27R,0.279400X1.340599*%
%ADD28C,0.100000*%
%ADD29R,0.850000X0.500000*%
%ADD30C,2.000000*%
%ADD31R,2.000000X2.000000*%
G04 APERTURE END LIST*
%TO.C,R38*%
G36*
G01*
X217225000Y-138675000D02*
X217225000Y-138125000D01*
G75*
G02*
X217425000Y-137925000I200000J0D01*
G01*
X217825000Y-137925000D01*
G75*
G02*
X218025000Y-138125000I0J-200000D01*
G01*
X218025000Y-138675000D01*
G75*
G02*
X217825000Y-138875000I-200000J0D01*
G01*
X217425000Y-138875000D01*
G75*
G02*
X217225000Y-138675000I0J200000D01*
G01*
G37*
G36*
G01*
X215575000Y-138675000D02*
X215575000Y-138125000D01*
G75*
G02*
X215775000Y-137925000I200000J0D01*
G01*
X216175000Y-137925000D01*
G75*
G02*
X216375000Y-138125000I0J-200000D01*
G01*
X216375000Y-138675000D01*
G75*
G02*
X216175000Y-138875000I-200000J0D01*
G01*
X215775000Y-138875000D01*
G75*
G02*
X215575000Y-138675000I0J200000D01*
G01*
G37*
%TD*%
%TO.C,R37*%
G36*
G01*
X217225000Y-140475000D02*
X217225000Y-139925000D01*
G75*
G02*
X217425000Y-139725000I200000J0D01*
G01*
X217825000Y-139725000D01*
G75*
G02*
X218025000Y-139925000I0J-200000D01*
G01*
X218025000Y-140475000D01*
G75*
G02*
X217825000Y-140675000I-200000J0D01*
G01*
X217425000Y-140675000D01*
G75*
G02*
X217225000Y-140475000I0J200000D01*
G01*
G37*
G36*
G01*
X215575000Y-140475000D02*
X215575000Y-139925000D01*
G75*
G02*
X215775000Y-139725000I200000J0D01*
G01*
X216175000Y-139725000D01*
G75*
G02*
X216375000Y-139925000I0J-200000D01*
G01*
X216375000Y-140475000D01*
G75*
G02*
X216175000Y-140675000I-200000J0D01*
G01*
X215775000Y-140675000D01*
G75*
G02*
X215575000Y-140475000I0J200000D01*
G01*
G37*
%TD*%
%TO.C,D5*%
G36*
G01*
X219550000Y-138153750D02*
X219550000Y-138666250D01*
G75*
G02*
X219331250Y-138885000I-218750J0D01*
G01*
X218893750Y-138885000D01*
G75*
G02*
X218675000Y-138666250I0J218750D01*
G01*
X218675000Y-138153750D01*
G75*
G02*
X218893750Y-137935000I218750J0D01*
G01*
X219331250Y-137935000D01*
G75*
G02*
X219550000Y-138153750I0J-218750D01*
G01*
G37*
G36*
G01*
X221125000Y-138153750D02*
X221125000Y-138666250D01*
G75*
G02*
X220906250Y-138885000I-218750J0D01*
G01*
X220468750Y-138885000D01*
G75*
G02*
X220250000Y-138666250I0J218750D01*
G01*
X220250000Y-138153750D01*
G75*
G02*
X220468750Y-137935000I218750J0D01*
G01*
X220906250Y-137935000D01*
G75*
G02*
X221125000Y-138153750I0J-218750D01*
G01*
G37*
%TD*%
%TO.C,D4*%
G36*
G01*
X219550000Y-139943750D02*
X219550000Y-140456250D01*
G75*
G02*
X219331250Y-140675000I-218750J0D01*
G01*
X218893750Y-140675000D01*
G75*
G02*
X218675000Y-140456250I0J218750D01*
G01*
X218675000Y-139943750D01*
G75*
G02*
X218893750Y-139725000I218750J0D01*
G01*
X219331250Y-139725000D01*
G75*
G02*
X219550000Y-139943750I0J-218750D01*
G01*
G37*
G36*
G01*
X221125000Y-139943750D02*
X221125000Y-140456250D01*
G75*
G02*
X220906250Y-140675000I-218750J0D01*
G01*
X220468750Y-140675000D01*
G75*
G02*
X220250000Y-140456250I0J218750D01*
G01*
X220250000Y-139943750D01*
G75*
G02*
X220468750Y-139725000I218750J0D01*
G01*
X220906250Y-139725000D01*
G75*
G02*
X221125000Y-139943750I0J-218750D01*
G01*
G37*
%TD*%
%TO.C,U5*%
G36*
G01*
X205600000Y-119555000D02*
X205600000Y-119855000D01*
G75*
G02*
X205450000Y-120005000I-150000J0D01*
G01*
X203800000Y-120005000D01*
G75*
G02*
X203650000Y-119855000I0J150000D01*
G01*
X203650000Y-119555000D01*
G75*
G02*
X203800000Y-119405000I150000J0D01*
G01*
X205450000Y-119405000D01*
G75*
G02*
X205600000Y-119555000I0J-150000D01*
G01*
G37*
G36*
G01*
X205600000Y-118285000D02*
X205600000Y-118585000D01*
G75*
G02*
X205450000Y-118735000I-150000J0D01*
G01*
X203800000Y-118735000D01*
G75*
G02*
X203650000Y-118585000I0J150000D01*
G01*
X203650000Y-118285000D01*
G75*
G02*
X203800000Y-118135000I150000J0D01*
G01*
X205450000Y-118135000D01*
G75*
G02*
X205600000Y-118285000I0J-150000D01*
G01*
G37*
G36*
G01*
X205600000Y-117015000D02*
X205600000Y-117315000D01*
G75*
G02*
X205450000Y-117465000I-150000J0D01*
G01*
X203800000Y-117465000D01*
G75*
G02*
X203650000Y-117315000I0J150000D01*
G01*
X203650000Y-117015000D01*
G75*
G02*
X203800000Y-116865000I150000J0D01*
G01*
X205450000Y-116865000D01*
G75*
G02*
X205600000Y-117015000I0J-150000D01*
G01*
G37*
G36*
G01*
X205600000Y-115745000D02*
X205600000Y-116045000D01*
G75*
G02*
X205450000Y-116195000I-150000J0D01*
G01*
X203800000Y-116195000D01*
G75*
G02*
X203650000Y-116045000I0J150000D01*
G01*
X203650000Y-115745000D01*
G75*
G02*
X203800000Y-115595000I150000J0D01*
G01*
X205450000Y-115595000D01*
G75*
G02*
X205600000Y-115745000I0J-150000D01*
G01*
G37*
G36*
G01*
X210550000Y-115745000D02*
X210550000Y-116045000D01*
G75*
G02*
X210400000Y-116195000I-150000J0D01*
G01*
X208750000Y-116195000D01*
G75*
G02*
X208600000Y-116045000I0J150000D01*
G01*
X208600000Y-115745000D01*
G75*
G02*
X208750000Y-115595000I150000J0D01*
G01*
X210400000Y-115595000D01*
G75*
G02*
X210550000Y-115745000I0J-150000D01*
G01*
G37*
G36*
G01*
X210550000Y-117015000D02*
X210550000Y-117315000D01*
G75*
G02*
X210400000Y-117465000I-150000J0D01*
G01*
X208750000Y-117465000D01*
G75*
G02*
X208600000Y-117315000I0J150000D01*
G01*
X208600000Y-117015000D01*
G75*
G02*
X208750000Y-116865000I150000J0D01*
G01*
X210400000Y-116865000D01*
G75*
G02*
X210550000Y-117015000I0J-150000D01*
G01*
G37*
G36*
G01*
X210550000Y-118285000D02*
X210550000Y-118585000D01*
G75*
G02*
X210400000Y-118735000I-150000J0D01*
G01*
X208750000Y-118735000D01*
G75*
G02*
X208600000Y-118585000I0J150000D01*
G01*
X208600000Y-118285000D01*
G75*
G02*
X208750000Y-118135000I150000J0D01*
G01*
X210400000Y-118135000D01*
G75*
G02*
X210550000Y-118285000I0J-150000D01*
G01*
G37*
G36*
G01*
X210550000Y-119555000D02*
X210550000Y-119855000D01*
G75*
G02*
X210400000Y-120005000I-150000J0D01*
G01*
X208750000Y-120005000D01*
G75*
G02*
X208600000Y-119855000I0J150000D01*
G01*
X208600000Y-119555000D01*
G75*
G02*
X208750000Y-119405000I150000J0D01*
G01*
X210400000Y-119405000D01*
G75*
G02*
X210550000Y-119555000I0J-150000D01*
G01*
G37*
%TD*%
%TO.C,R36*%
G36*
G01*
X207725000Y-122475000D02*
X207725000Y-121925000D01*
G75*
G02*
X207925000Y-121725000I200000J0D01*
G01*
X208325000Y-121725000D01*
G75*
G02*
X208525000Y-121925000I0J-200000D01*
G01*
X208525000Y-122475000D01*
G75*
G02*
X208325000Y-122675000I-200000J0D01*
G01*
X207925000Y-122675000D01*
G75*
G02*
X207725000Y-122475000I0J200000D01*
G01*
G37*
G36*
G01*
X206075000Y-122475000D02*
X206075000Y-121925000D01*
G75*
G02*
X206275000Y-121725000I200000J0D01*
G01*
X206675000Y-121725000D01*
G75*
G02*
X206875000Y-121925000I0J-200000D01*
G01*
X206875000Y-122475000D01*
G75*
G02*
X206675000Y-122675000I-200000J0D01*
G01*
X206275000Y-122675000D01*
G75*
G02*
X206075000Y-122475000I0J200000D01*
G01*
G37*
%TD*%
D10*
%TO.C,J5*%
X201400000Y-115420000D03*
X201400000Y-117960000D03*
D11*
X201400000Y-120500000D03*
%TD*%
D10*
%TO.C,J4*%
X197800000Y-107740000D03*
X197800000Y-110280000D03*
X197800000Y-112820000D03*
X197800000Y-115360000D03*
D11*
X197800000Y-117900000D03*
%TD*%
%TO.C,R35*%
G36*
G01*
X202325000Y-134725000D02*
X202875000Y-134725000D01*
G75*
G02*
X203075000Y-134925000I0J-200000D01*
G01*
X203075000Y-135325000D01*
G75*
G02*
X202875000Y-135525000I-200000J0D01*
G01*
X202325000Y-135525000D01*
G75*
G02*
X202125000Y-135325000I0J200000D01*
G01*
X202125000Y-134925000D01*
G75*
G02*
X202325000Y-134725000I200000J0D01*
G01*
G37*
G36*
G01*
X202325000Y-133075000D02*
X202875000Y-133075000D01*
G75*
G02*
X203075000Y-133275000I0J-200000D01*
G01*
X203075000Y-133675000D01*
G75*
G02*
X202875000Y-133875000I-200000J0D01*
G01*
X202325000Y-133875000D01*
G75*
G02*
X202125000Y-133675000I0J200000D01*
G01*
X202125000Y-133275000D01*
G75*
G02*
X202325000Y-133075000I200000J0D01*
G01*
G37*
%TD*%
%TO.C,R34*%
G36*
G01*
X202325000Y-131325000D02*
X202875000Y-131325000D01*
G75*
G02*
X203075000Y-131525000I0J-200000D01*
G01*
X203075000Y-131925000D01*
G75*
G02*
X202875000Y-132125000I-200000J0D01*
G01*
X202325000Y-132125000D01*
G75*
G02*
X202125000Y-131925000I0J200000D01*
G01*
X202125000Y-131525000D01*
G75*
G02*
X202325000Y-131325000I200000J0D01*
G01*
G37*
G36*
G01*
X202325000Y-129675000D02*
X202875000Y-129675000D01*
G75*
G02*
X203075000Y-129875000I0J-200000D01*
G01*
X203075000Y-130275000D01*
G75*
G02*
X202875000Y-130475000I-200000J0D01*
G01*
X202325000Y-130475000D01*
G75*
G02*
X202125000Y-130275000I0J200000D01*
G01*
X202125000Y-129875000D01*
G75*
G02*
X202325000Y-129675000I200000J0D01*
G01*
G37*
%TD*%
%TO.C,R33*%
G36*
G01*
X202325000Y-127925000D02*
X202875000Y-127925000D01*
G75*
G02*
X203075000Y-128125000I0J-200000D01*
G01*
X203075000Y-128525000D01*
G75*
G02*
X202875000Y-128725000I-200000J0D01*
G01*
X202325000Y-128725000D01*
G75*
G02*
X202125000Y-128525000I0J200000D01*
G01*
X202125000Y-128125000D01*
G75*
G02*
X202325000Y-127925000I200000J0D01*
G01*
G37*
G36*
G01*
X202325000Y-126275000D02*
X202875000Y-126275000D01*
G75*
G02*
X203075000Y-126475000I0J-200000D01*
G01*
X203075000Y-126875000D01*
G75*
G02*
X202875000Y-127075000I-200000J0D01*
G01*
X202325000Y-127075000D01*
G75*
G02*
X202125000Y-126875000I0J200000D01*
G01*
X202125000Y-126475000D01*
G75*
G02*
X202325000Y-126275000I200000J0D01*
G01*
G37*
%TD*%
%TO.C,R32*%
G36*
G01*
X228225000Y-133925000D02*
X228775000Y-133925000D01*
G75*
G02*
X228975000Y-134125000I0J-200000D01*
G01*
X228975000Y-134525000D01*
G75*
G02*
X228775000Y-134725000I-200000J0D01*
G01*
X228225000Y-134725000D01*
G75*
G02*
X228025000Y-134525000I0J200000D01*
G01*
X228025000Y-134125000D01*
G75*
G02*
X228225000Y-133925000I200000J0D01*
G01*
G37*
G36*
G01*
X228225000Y-132275000D02*
X228775000Y-132275000D01*
G75*
G02*
X228975000Y-132475000I0J-200000D01*
G01*
X228975000Y-132875000D01*
G75*
G02*
X228775000Y-133075000I-200000J0D01*
G01*
X228225000Y-133075000D01*
G75*
G02*
X228025000Y-132875000I0J200000D01*
G01*
X228025000Y-132475000D01*
G75*
G02*
X228225000Y-132275000I200000J0D01*
G01*
G37*
%TD*%
%TO.C,R31*%
G36*
G01*
X226525000Y-133925000D02*
X227075000Y-133925000D01*
G75*
G02*
X227275000Y-134125000I0J-200000D01*
G01*
X227275000Y-134525000D01*
G75*
G02*
X227075000Y-134725000I-200000J0D01*
G01*
X226525000Y-134725000D01*
G75*
G02*
X226325000Y-134525000I0J200000D01*
G01*
X226325000Y-134125000D01*
G75*
G02*
X226525000Y-133925000I200000J0D01*
G01*
G37*
G36*
G01*
X226525000Y-132275000D02*
X227075000Y-132275000D01*
G75*
G02*
X227275000Y-132475000I0J-200000D01*
G01*
X227275000Y-132875000D01*
G75*
G02*
X227075000Y-133075000I-200000J0D01*
G01*
X226525000Y-133075000D01*
G75*
G02*
X226325000Y-132875000I0J200000D01*
G01*
X226325000Y-132475000D01*
G75*
G02*
X226525000Y-132275000I200000J0D01*
G01*
G37*
%TD*%
%TO.C,R30*%
G36*
G01*
X202325000Y-124525000D02*
X202875000Y-124525000D01*
G75*
G02*
X203075000Y-124725000I0J-200000D01*
G01*
X203075000Y-125125000D01*
G75*
G02*
X202875000Y-125325000I-200000J0D01*
G01*
X202325000Y-125325000D01*
G75*
G02*
X202125000Y-125125000I0J200000D01*
G01*
X202125000Y-124725000D01*
G75*
G02*
X202325000Y-124525000I200000J0D01*
G01*
G37*
G36*
G01*
X202325000Y-122875000D02*
X202875000Y-122875000D01*
G75*
G02*
X203075000Y-123075000I0J-200000D01*
G01*
X203075000Y-123475000D01*
G75*
G02*
X202875000Y-123675000I-200000J0D01*
G01*
X202325000Y-123675000D01*
G75*
G02*
X202125000Y-123475000I0J200000D01*
G01*
X202125000Y-123075000D01*
G75*
G02*
X202325000Y-122875000I200000J0D01*
G01*
G37*
%TD*%
D10*
%TO.C,J3*%
X203120000Y-139500000D03*
X205660000Y-139500000D03*
X208200000Y-139500000D03*
X210740000Y-139500000D03*
D11*
X213280000Y-139500000D03*
%TD*%
D12*
%TO.C,J2*%
X228100000Y-137050000D03*
X224100000Y-137050000D03*
D13*
X228925000Y-139400000D03*
X223275000Y-139400000D03*
D14*
X229200000Y-136850000D03*
X223000000Y-136850000D03*
D15*
X227300000Y-139400000D03*
X224900000Y-139400000D03*
D16*
X227400000Y-136725000D03*
X226750000Y-136725000D03*
X226100000Y-136725000D03*
X225450000Y-136725000D03*
X224800000Y-136725000D03*
%TD*%
D10*
%TO.C,J1*%
X197800000Y-134200000D03*
X197800000Y-131660000D03*
X197800000Y-129120000D03*
X197800000Y-126580000D03*
X197800000Y-124040000D03*
D11*
X197800000Y-121500000D03*
%TD*%
D17*
%TO.C,D3*%
X224800000Y-134250000D03*
X224800000Y-130950000D03*
%TD*%
%TO.C,C47*%
G36*
G01*
X201150000Y-133975000D02*
X200650000Y-133975000D01*
G75*
G02*
X200425000Y-133750000I0J225000D01*
G01*
X200425000Y-133300000D01*
G75*
G02*
X200650000Y-133075000I225000J0D01*
G01*
X201150000Y-133075000D01*
G75*
G02*
X201375000Y-133300000I0J-225000D01*
G01*
X201375000Y-133750000D01*
G75*
G02*
X201150000Y-133975000I-225000J0D01*
G01*
G37*
G36*
G01*
X201150000Y-135525000D02*
X200650000Y-135525000D01*
G75*
G02*
X200425000Y-135300000I0J225000D01*
G01*
X200425000Y-134850000D01*
G75*
G02*
X200650000Y-134625000I225000J0D01*
G01*
X201150000Y-134625000D01*
G75*
G02*
X201375000Y-134850000I0J-225000D01*
G01*
X201375000Y-135300000D01*
G75*
G02*
X201150000Y-135525000I-225000J0D01*
G01*
G37*
%TD*%
%TO.C,C46*%
G36*
G01*
X201150000Y-130575000D02*
X200650000Y-130575000D01*
G75*
G02*
X200425000Y-130350000I0J225000D01*
G01*
X200425000Y-129900000D01*
G75*
G02*
X200650000Y-129675000I225000J0D01*
G01*
X201150000Y-129675000D01*
G75*
G02*
X201375000Y-129900000I0J-225000D01*
G01*
X201375000Y-130350000D01*
G75*
G02*
X201150000Y-130575000I-225000J0D01*
G01*
G37*
G36*
G01*
X201150000Y-132125000D02*
X200650000Y-132125000D01*
G75*
G02*
X200425000Y-131900000I0J225000D01*
G01*
X200425000Y-131450000D01*
G75*
G02*
X200650000Y-131225000I225000J0D01*
G01*
X201150000Y-131225000D01*
G75*
G02*
X201375000Y-131450000I0J-225000D01*
G01*
X201375000Y-131900000D01*
G75*
G02*
X201150000Y-132125000I-225000J0D01*
G01*
G37*
%TD*%
%TO.C,C45*%
G36*
G01*
X201150000Y-127205000D02*
X200650000Y-127205000D01*
G75*
G02*
X200425000Y-126980000I0J225000D01*
G01*
X200425000Y-126530000D01*
G75*
G02*
X200650000Y-126305000I225000J0D01*
G01*
X201150000Y-126305000D01*
G75*
G02*
X201375000Y-126530000I0J-225000D01*
G01*
X201375000Y-126980000D01*
G75*
G02*
X201150000Y-127205000I-225000J0D01*
G01*
G37*
G36*
G01*
X201150000Y-128755000D02*
X200650000Y-128755000D01*
G75*
G02*
X200425000Y-128530000I0J225000D01*
G01*
X200425000Y-128080000D01*
G75*
G02*
X200650000Y-127855000I225000J0D01*
G01*
X201150000Y-127855000D01*
G75*
G02*
X201375000Y-128080000I0J-225000D01*
G01*
X201375000Y-128530000D01*
G75*
G02*
X201150000Y-128755000I-225000J0D01*
G01*
G37*
%TD*%
%TO.C,C44*%
G36*
G01*
X201150000Y-123775000D02*
X200650000Y-123775000D01*
G75*
G02*
X200425000Y-123550000I0J225000D01*
G01*
X200425000Y-123100000D01*
G75*
G02*
X200650000Y-122875000I225000J0D01*
G01*
X201150000Y-122875000D01*
G75*
G02*
X201375000Y-123100000I0J-225000D01*
G01*
X201375000Y-123550000D01*
G75*
G02*
X201150000Y-123775000I-225000J0D01*
G01*
G37*
G36*
G01*
X201150000Y-125325000D02*
X200650000Y-125325000D01*
G75*
G02*
X200425000Y-125100000I0J225000D01*
G01*
X200425000Y-124650000D01*
G75*
G02*
X200650000Y-124425000I225000J0D01*
G01*
X201150000Y-124425000D01*
G75*
G02*
X201375000Y-124650000I0J-225000D01*
G01*
X201375000Y-125100000D01*
G75*
G02*
X201150000Y-125325000I-225000J0D01*
G01*
G37*
%TD*%
%TO.C,R29*%
G36*
G01*
X246025000Y-130275000D02*
X246025000Y-129725000D01*
G75*
G02*
X246225000Y-129525000I200000J0D01*
G01*
X246625000Y-129525000D01*
G75*
G02*
X246825000Y-129725000I0J-200000D01*
G01*
X246825000Y-130275000D01*
G75*
G02*
X246625000Y-130475000I-200000J0D01*
G01*
X246225000Y-130475000D01*
G75*
G02*
X246025000Y-130275000I0J200000D01*
G01*
G37*
G36*
G01*
X244375000Y-130275000D02*
X244375000Y-129725000D01*
G75*
G02*
X244575000Y-129525000I200000J0D01*
G01*
X244975000Y-129525000D01*
G75*
G02*
X245175000Y-129725000I0J-200000D01*
G01*
X245175000Y-130275000D01*
G75*
G02*
X244975000Y-130475000I-200000J0D01*
G01*
X244575000Y-130475000D01*
G75*
G02*
X244375000Y-130275000I0J200000D01*
G01*
G37*
%TD*%
%TO.C,R28*%
G36*
G01*
X235525000Y-127275000D02*
X235525000Y-126725000D01*
G75*
G02*
X235725000Y-126525000I200000J0D01*
G01*
X236125000Y-126525000D01*
G75*
G02*
X236325000Y-126725000I0J-200000D01*
G01*
X236325000Y-127275000D01*
G75*
G02*
X236125000Y-127475000I-200000J0D01*
G01*
X235725000Y-127475000D01*
G75*
G02*
X235525000Y-127275000I0J200000D01*
G01*
G37*
G36*
G01*
X233875000Y-127275000D02*
X233875000Y-126725000D01*
G75*
G02*
X234075000Y-126525000I200000J0D01*
G01*
X234475000Y-126525000D01*
G75*
G02*
X234675000Y-126725000I0J-200000D01*
G01*
X234675000Y-127275000D01*
G75*
G02*
X234475000Y-127475000I-200000J0D01*
G01*
X234075000Y-127475000D01*
G75*
G02*
X233875000Y-127275000I0J200000D01*
G01*
G37*
%TD*%
%TO.C,R27*%
G36*
G01*
X234675000Y-128325000D02*
X234675000Y-128875000D01*
G75*
G02*
X234475000Y-129075000I-200000J0D01*
G01*
X234075000Y-129075000D01*
G75*
G02*
X233875000Y-128875000I0J200000D01*
G01*
X233875000Y-128325000D01*
G75*
G02*
X234075000Y-128125000I200000J0D01*
G01*
X234475000Y-128125000D01*
G75*
G02*
X234675000Y-128325000I0J-200000D01*
G01*
G37*
G36*
G01*
X236325000Y-128325000D02*
X236325000Y-128875000D01*
G75*
G02*
X236125000Y-129075000I-200000J0D01*
G01*
X235725000Y-129075000D01*
G75*
G02*
X235525000Y-128875000I0J200000D01*
G01*
X235525000Y-128325000D01*
G75*
G02*
X235725000Y-128125000I200000J0D01*
G01*
X236125000Y-128125000D01*
G75*
G02*
X236325000Y-128325000I0J-200000D01*
G01*
G37*
%TD*%
%TO.C,R26*%
G36*
G01*
X232025000Y-127275000D02*
X232025000Y-126725000D01*
G75*
G02*
X232225000Y-126525000I200000J0D01*
G01*
X232625000Y-126525000D01*
G75*
G02*
X232825000Y-126725000I0J-200000D01*
G01*
X232825000Y-127275000D01*
G75*
G02*
X232625000Y-127475000I-200000J0D01*
G01*
X232225000Y-127475000D01*
G75*
G02*
X232025000Y-127275000I0J200000D01*
G01*
G37*
G36*
G01*
X230375000Y-127275000D02*
X230375000Y-126725000D01*
G75*
G02*
X230575000Y-126525000I200000J0D01*
G01*
X230975000Y-126525000D01*
G75*
G02*
X231175000Y-126725000I0J-200000D01*
G01*
X231175000Y-127275000D01*
G75*
G02*
X230975000Y-127475000I-200000J0D01*
G01*
X230575000Y-127475000D01*
G75*
G02*
X230375000Y-127275000I0J200000D01*
G01*
G37*
%TD*%
%TO.C,R25*%
G36*
G01*
X231175000Y-128325000D02*
X231175000Y-128875000D01*
G75*
G02*
X230975000Y-129075000I-200000J0D01*
G01*
X230575000Y-129075000D01*
G75*
G02*
X230375000Y-128875000I0J200000D01*
G01*
X230375000Y-128325000D01*
G75*
G02*
X230575000Y-128125000I200000J0D01*
G01*
X230975000Y-128125000D01*
G75*
G02*
X231175000Y-128325000I0J-200000D01*
G01*
G37*
G36*
G01*
X232825000Y-128325000D02*
X232825000Y-128875000D01*
G75*
G02*
X232625000Y-129075000I-200000J0D01*
G01*
X232225000Y-129075000D01*
G75*
G02*
X232025000Y-128875000I0J200000D01*
G01*
X232025000Y-128325000D01*
G75*
G02*
X232225000Y-128125000I200000J0D01*
G01*
X232625000Y-128125000D01*
G75*
G02*
X232825000Y-128325000I0J-200000D01*
G01*
G37*
%TD*%
%TO.C,R24*%
G36*
G01*
X228525000Y-127275000D02*
X228525000Y-126725000D01*
G75*
G02*
X228725000Y-126525000I200000J0D01*
G01*
X229125000Y-126525000D01*
G75*
G02*
X229325000Y-126725000I0J-200000D01*
G01*
X229325000Y-127275000D01*
G75*
G02*
X229125000Y-127475000I-200000J0D01*
G01*
X228725000Y-127475000D01*
G75*
G02*
X228525000Y-127275000I0J200000D01*
G01*
G37*
G36*
G01*
X226875000Y-127275000D02*
X226875000Y-126725000D01*
G75*
G02*
X227075000Y-126525000I200000J0D01*
G01*
X227475000Y-126525000D01*
G75*
G02*
X227675000Y-126725000I0J-200000D01*
G01*
X227675000Y-127275000D01*
G75*
G02*
X227475000Y-127475000I-200000J0D01*
G01*
X227075000Y-127475000D01*
G75*
G02*
X226875000Y-127275000I0J200000D01*
G01*
G37*
%TD*%
%TO.C,R23*%
G36*
G01*
X227675000Y-128325000D02*
X227675000Y-128875000D01*
G75*
G02*
X227475000Y-129075000I-200000J0D01*
G01*
X227075000Y-129075000D01*
G75*
G02*
X226875000Y-128875000I0J200000D01*
G01*
X226875000Y-128325000D01*
G75*
G02*
X227075000Y-128125000I200000J0D01*
G01*
X227475000Y-128125000D01*
G75*
G02*
X227675000Y-128325000I0J-200000D01*
G01*
G37*
G36*
G01*
X229325000Y-128325000D02*
X229325000Y-128875000D01*
G75*
G02*
X229125000Y-129075000I-200000J0D01*
G01*
X228725000Y-129075000D01*
G75*
G02*
X228525000Y-128875000I0J200000D01*
G01*
X228525000Y-128325000D01*
G75*
G02*
X228725000Y-128125000I200000J0D01*
G01*
X229125000Y-128125000D01*
G75*
G02*
X229325000Y-128325000I0J-200000D01*
G01*
G37*
%TD*%
%TO.C,R22*%
G36*
G01*
X227675000Y-121525000D02*
X227675000Y-122075000D01*
G75*
G02*
X227475000Y-122275000I-200000J0D01*
G01*
X227075000Y-122275000D01*
G75*
G02*
X226875000Y-122075000I0J200000D01*
G01*
X226875000Y-121525000D01*
G75*
G02*
X227075000Y-121325000I200000J0D01*
G01*
X227475000Y-121325000D01*
G75*
G02*
X227675000Y-121525000I0J-200000D01*
G01*
G37*
G36*
G01*
X229325000Y-121525000D02*
X229325000Y-122075000D01*
G75*
G02*
X229125000Y-122275000I-200000J0D01*
G01*
X228725000Y-122275000D01*
G75*
G02*
X228525000Y-122075000I0J200000D01*
G01*
X228525000Y-121525000D01*
G75*
G02*
X228725000Y-121325000I200000J0D01*
G01*
X229125000Y-121325000D01*
G75*
G02*
X229325000Y-121525000I0J-200000D01*
G01*
G37*
%TD*%
%TO.C,R21*%
G36*
G01*
X228525000Y-123675000D02*
X228525000Y-123125000D01*
G75*
G02*
X228725000Y-122925000I200000J0D01*
G01*
X229125000Y-122925000D01*
G75*
G02*
X229325000Y-123125000I0J-200000D01*
G01*
X229325000Y-123675000D01*
G75*
G02*
X229125000Y-123875000I-200000J0D01*
G01*
X228725000Y-123875000D01*
G75*
G02*
X228525000Y-123675000I0J200000D01*
G01*
G37*
G36*
G01*
X226875000Y-123675000D02*
X226875000Y-123125000D01*
G75*
G02*
X227075000Y-122925000I200000J0D01*
G01*
X227475000Y-122925000D01*
G75*
G02*
X227675000Y-123125000I0J-200000D01*
G01*
X227675000Y-123675000D01*
G75*
G02*
X227475000Y-123875000I-200000J0D01*
G01*
X227075000Y-123875000D01*
G75*
G02*
X226875000Y-123675000I0J200000D01*
G01*
G37*
%TD*%
%TO.C,R20*%
G36*
G01*
X231175000Y-121525000D02*
X231175000Y-122075000D01*
G75*
G02*
X230975000Y-122275000I-200000J0D01*
G01*
X230575000Y-122275000D01*
G75*
G02*
X230375000Y-122075000I0J200000D01*
G01*
X230375000Y-121525000D01*
G75*
G02*
X230575000Y-121325000I200000J0D01*
G01*
X230975000Y-121325000D01*
G75*
G02*
X231175000Y-121525000I0J-200000D01*
G01*
G37*
G36*
G01*
X232825000Y-121525000D02*
X232825000Y-122075000D01*
G75*
G02*
X232625000Y-122275000I-200000J0D01*
G01*
X232225000Y-122275000D01*
G75*
G02*
X232025000Y-122075000I0J200000D01*
G01*
X232025000Y-121525000D01*
G75*
G02*
X232225000Y-121325000I200000J0D01*
G01*
X232625000Y-121325000D01*
G75*
G02*
X232825000Y-121525000I0J-200000D01*
G01*
G37*
%TD*%
%TO.C,R19*%
G36*
G01*
X232025000Y-123675000D02*
X232025000Y-123125000D01*
G75*
G02*
X232225000Y-122925000I200000J0D01*
G01*
X232625000Y-122925000D01*
G75*
G02*
X232825000Y-123125000I0J-200000D01*
G01*
X232825000Y-123675000D01*
G75*
G02*
X232625000Y-123875000I-200000J0D01*
G01*
X232225000Y-123875000D01*
G75*
G02*
X232025000Y-123675000I0J200000D01*
G01*
G37*
G36*
G01*
X230375000Y-123675000D02*
X230375000Y-123125000D01*
G75*
G02*
X230575000Y-122925000I200000J0D01*
G01*
X230975000Y-122925000D01*
G75*
G02*
X231175000Y-123125000I0J-200000D01*
G01*
X231175000Y-123675000D01*
G75*
G02*
X230975000Y-123875000I-200000J0D01*
G01*
X230575000Y-123875000D01*
G75*
G02*
X230375000Y-123675000I0J200000D01*
G01*
G37*
%TD*%
%TO.C,R18*%
G36*
G01*
X234675000Y-121525000D02*
X234675000Y-122075000D01*
G75*
G02*
X234475000Y-122275000I-200000J0D01*
G01*
X234075000Y-122275000D01*
G75*
G02*
X233875000Y-122075000I0J200000D01*
G01*
X233875000Y-121525000D01*
G75*
G02*
X234075000Y-121325000I200000J0D01*
G01*
X234475000Y-121325000D01*
G75*
G02*
X234675000Y-121525000I0J-200000D01*
G01*
G37*
G36*
G01*
X236325000Y-121525000D02*
X236325000Y-122075000D01*
G75*
G02*
X236125000Y-122275000I-200000J0D01*
G01*
X235725000Y-122275000D01*
G75*
G02*
X235525000Y-122075000I0J200000D01*
G01*
X235525000Y-121525000D01*
G75*
G02*
X235725000Y-121325000I200000J0D01*
G01*
X236125000Y-121325000D01*
G75*
G02*
X236325000Y-121525000I0J-200000D01*
G01*
G37*
%TD*%
%TO.C,R17*%
G36*
G01*
X235525000Y-123675000D02*
X235525000Y-123125000D01*
G75*
G02*
X235725000Y-122925000I200000J0D01*
G01*
X236125000Y-122925000D01*
G75*
G02*
X236325000Y-123125000I0J-200000D01*
G01*
X236325000Y-123675000D01*
G75*
G02*
X236125000Y-123875000I-200000J0D01*
G01*
X235725000Y-123875000D01*
G75*
G02*
X235525000Y-123675000I0J200000D01*
G01*
G37*
G36*
G01*
X233875000Y-123675000D02*
X233875000Y-123125000D01*
G75*
G02*
X234075000Y-122925000I200000J0D01*
G01*
X234475000Y-122925000D01*
G75*
G02*
X234675000Y-123125000I0J-200000D01*
G01*
X234675000Y-123675000D01*
G75*
G02*
X234475000Y-123875000I-200000J0D01*
G01*
X234075000Y-123875000D01*
G75*
G02*
X233875000Y-123675000I0J200000D01*
G01*
G37*
%TD*%
%TO.C,C43*%
G36*
G01*
X211275000Y-136250000D02*
X211275000Y-136750000D01*
G75*
G02*
X211050000Y-136975000I-225000J0D01*
G01*
X210600000Y-136975000D01*
G75*
G02*
X210375000Y-136750000I0J225000D01*
G01*
X210375000Y-136250000D01*
G75*
G02*
X210600000Y-136025000I225000J0D01*
G01*
X211050000Y-136025000D01*
G75*
G02*
X211275000Y-136250000I0J-225000D01*
G01*
G37*
G36*
G01*
X212825000Y-136250000D02*
X212825000Y-136750000D01*
G75*
G02*
X212600000Y-136975000I-225000J0D01*
G01*
X212150000Y-136975000D01*
G75*
G02*
X211925000Y-136750000I0J225000D01*
G01*
X211925000Y-136250000D01*
G75*
G02*
X212150000Y-136025000I225000J0D01*
G01*
X212600000Y-136025000D01*
G75*
G02*
X212825000Y-136250000I0J-225000D01*
G01*
G37*
%TD*%
%TO.C,C42*%
G36*
G01*
X219925000Y-136950000D02*
X219925000Y-136450000D01*
G75*
G02*
X220150000Y-136225000I225000J0D01*
G01*
X220600000Y-136225000D01*
G75*
G02*
X220825000Y-136450000I0J-225000D01*
G01*
X220825000Y-136950000D01*
G75*
G02*
X220600000Y-137175000I-225000J0D01*
G01*
X220150000Y-137175000D01*
G75*
G02*
X219925000Y-136950000I0J225000D01*
G01*
G37*
G36*
G01*
X218375000Y-136950000D02*
X218375000Y-136450000D01*
G75*
G02*
X218600000Y-136225000I225000J0D01*
G01*
X219050000Y-136225000D01*
G75*
G02*
X219275000Y-136450000I0J-225000D01*
G01*
X219275000Y-136950000D01*
G75*
G02*
X219050000Y-137175000I-225000J0D01*
G01*
X218600000Y-137175000D01*
G75*
G02*
X218375000Y-136950000I0J225000D01*
G01*
G37*
%TD*%
%TO.C,C41*%
G36*
G01*
X213325000Y-120350000D02*
X213325000Y-119850000D01*
G75*
G02*
X213550000Y-119625000I225000J0D01*
G01*
X214000000Y-119625000D01*
G75*
G02*
X214225000Y-119850000I0J-225000D01*
G01*
X214225000Y-120350000D01*
G75*
G02*
X214000000Y-120575000I-225000J0D01*
G01*
X213550000Y-120575000D01*
G75*
G02*
X213325000Y-120350000I0J225000D01*
G01*
G37*
G36*
G01*
X211775000Y-120350000D02*
X211775000Y-119850000D01*
G75*
G02*
X212000000Y-119625000I225000J0D01*
G01*
X212450000Y-119625000D01*
G75*
G02*
X212675000Y-119850000I0J-225000D01*
G01*
X212675000Y-120350000D01*
G75*
G02*
X212450000Y-120575000I-225000J0D01*
G01*
X212000000Y-120575000D01*
G75*
G02*
X211775000Y-120350000I0J225000D01*
G01*
G37*
%TD*%
%TO.C,C40*%
G36*
G01*
X224100000Y-123775000D02*
X223600000Y-123775000D01*
G75*
G02*
X223375000Y-123550000I0J225000D01*
G01*
X223375000Y-123100000D01*
G75*
G02*
X223600000Y-122875000I225000J0D01*
G01*
X224100000Y-122875000D01*
G75*
G02*
X224325000Y-123100000I0J-225000D01*
G01*
X224325000Y-123550000D01*
G75*
G02*
X224100000Y-123775000I-225000J0D01*
G01*
G37*
G36*
G01*
X224100000Y-125325000D02*
X223600000Y-125325000D01*
G75*
G02*
X223375000Y-125100000I0J225000D01*
G01*
X223375000Y-124650000D01*
G75*
G02*
X223600000Y-124425000I225000J0D01*
G01*
X224100000Y-124425000D01*
G75*
G02*
X224325000Y-124650000I0J-225000D01*
G01*
X224325000Y-125100000D01*
G75*
G02*
X224100000Y-125325000I-225000J0D01*
G01*
G37*
%TD*%
%TO.C,C39*%
G36*
G01*
X205840000Y-134195000D02*
X205840000Y-133245000D01*
G75*
G02*
X206090000Y-132995000I250000J0D01*
G01*
X206590000Y-132995000D01*
G75*
G02*
X206840000Y-133245000I0J-250000D01*
G01*
X206840000Y-134195000D01*
G75*
G02*
X206590000Y-134445000I-250000J0D01*
G01*
X206090000Y-134445000D01*
G75*
G02*
X205840000Y-134195000I0J250000D01*
G01*
G37*
G36*
G01*
X203940000Y-134195000D02*
X203940000Y-133245000D01*
G75*
G02*
X204190000Y-132995000I250000J0D01*
G01*
X204690000Y-132995000D01*
G75*
G02*
X204940000Y-133245000I0J-250000D01*
G01*
X204940000Y-134195000D01*
G75*
G02*
X204690000Y-134445000I-250000J0D01*
G01*
X204190000Y-134445000D01*
G75*
G02*
X203940000Y-134195000I0J250000D01*
G01*
G37*
%TD*%
%TO.C,C38*%
G36*
G01*
X205840000Y-136275000D02*
X205840000Y-135325000D01*
G75*
G02*
X206090000Y-135075000I250000J0D01*
G01*
X206590000Y-135075000D01*
G75*
G02*
X206840000Y-135325000I0J-250000D01*
G01*
X206840000Y-136275000D01*
G75*
G02*
X206590000Y-136525000I-250000J0D01*
G01*
X206090000Y-136525000D01*
G75*
G02*
X205840000Y-136275000I0J250000D01*
G01*
G37*
G36*
G01*
X203940000Y-136275000D02*
X203940000Y-135325000D01*
G75*
G02*
X204190000Y-135075000I250000J0D01*
G01*
X204690000Y-135075000D01*
G75*
G02*
X204940000Y-135325000I0J-250000D01*
G01*
X204940000Y-136275000D01*
G75*
G02*
X204690000Y-136525000I-250000J0D01*
G01*
X204190000Y-136525000D01*
G75*
G02*
X203940000Y-136275000I0J250000D01*
G01*
G37*
%TD*%
%TO.C,C37*%
G36*
G01*
X206650000Y-129675000D02*
X206150000Y-129675000D01*
G75*
G02*
X205925000Y-129450000I0J225000D01*
G01*
X205925000Y-129000000D01*
G75*
G02*
X206150000Y-128775000I225000J0D01*
G01*
X206650000Y-128775000D01*
G75*
G02*
X206875000Y-129000000I0J-225000D01*
G01*
X206875000Y-129450000D01*
G75*
G02*
X206650000Y-129675000I-225000J0D01*
G01*
G37*
G36*
G01*
X206650000Y-131225000D02*
X206150000Y-131225000D01*
G75*
G02*
X205925000Y-131000000I0J225000D01*
G01*
X205925000Y-130550000D01*
G75*
G02*
X206150000Y-130325000I225000J0D01*
G01*
X206650000Y-130325000D01*
G75*
G02*
X206875000Y-130550000I0J-225000D01*
G01*
X206875000Y-131000000D01*
G75*
G02*
X206650000Y-131225000I-225000J0D01*
G01*
G37*
%TD*%
%TO.C,C36*%
G36*
G01*
X224275000Y-127350000D02*
X223325000Y-127350000D01*
G75*
G02*
X223075000Y-127100000I0J250000D01*
G01*
X223075000Y-126600000D01*
G75*
G02*
X223325000Y-126350000I250000J0D01*
G01*
X224275000Y-126350000D01*
G75*
G02*
X224525000Y-126600000I0J-250000D01*
G01*
X224525000Y-127100000D01*
G75*
G02*
X224275000Y-127350000I-250000J0D01*
G01*
G37*
G36*
G01*
X224275000Y-129250000D02*
X223325000Y-129250000D01*
G75*
G02*
X223075000Y-129000000I0J250000D01*
G01*
X223075000Y-128500000D01*
G75*
G02*
X223325000Y-128250000I250000J0D01*
G01*
X224275000Y-128250000D01*
G75*
G02*
X224525000Y-128500000I0J-250000D01*
G01*
X224525000Y-129000000D01*
G75*
G02*
X224275000Y-129250000I-250000J0D01*
G01*
G37*
%TD*%
%TO.C,C35*%
G36*
G01*
X216650000Y-137075000D02*
X216650000Y-136125000D01*
G75*
G02*
X216900000Y-135875000I250000J0D01*
G01*
X217400000Y-135875000D01*
G75*
G02*
X217650000Y-136125000I0J-250000D01*
G01*
X217650000Y-137075000D01*
G75*
G02*
X217400000Y-137325000I-250000J0D01*
G01*
X216900000Y-137325000D01*
G75*
G02*
X216650000Y-137075000I0J250000D01*
G01*
G37*
G36*
G01*
X214750000Y-137075000D02*
X214750000Y-136125000D01*
G75*
G02*
X215000000Y-135875000I250000J0D01*
G01*
X215500000Y-135875000D01*
G75*
G02*
X215750000Y-136125000I0J-250000D01*
G01*
X215750000Y-137075000D01*
G75*
G02*
X215500000Y-137325000I-250000J0D01*
G01*
X215000000Y-137325000D01*
G75*
G02*
X214750000Y-137075000I0J250000D01*
G01*
G37*
%TD*%
%TO.C,C34*%
G36*
G01*
X206650000Y-126375000D02*
X206150000Y-126375000D01*
G75*
G02*
X205925000Y-126150000I0J225000D01*
G01*
X205925000Y-125700000D01*
G75*
G02*
X206150000Y-125475000I225000J0D01*
G01*
X206650000Y-125475000D01*
G75*
G02*
X206875000Y-125700000I0J-225000D01*
G01*
X206875000Y-126150000D01*
G75*
G02*
X206650000Y-126375000I-225000J0D01*
G01*
G37*
G36*
G01*
X206650000Y-127925000D02*
X206150000Y-127925000D01*
G75*
G02*
X205925000Y-127700000I0J225000D01*
G01*
X205925000Y-127250000D01*
G75*
G02*
X206150000Y-127025000I225000J0D01*
G01*
X206650000Y-127025000D01*
G75*
G02*
X206875000Y-127250000I0J-225000D01*
G01*
X206875000Y-127700000D01*
G75*
G02*
X206650000Y-127925000I-225000J0D01*
G01*
G37*
%TD*%
%TO.C,C33*%
G36*
G01*
X223025000Y-120250000D02*
X223025000Y-119750000D01*
G75*
G02*
X223250000Y-119525000I225000J0D01*
G01*
X223700000Y-119525000D01*
G75*
G02*
X223925000Y-119750000I0J-225000D01*
G01*
X223925000Y-120250000D01*
G75*
G02*
X223700000Y-120475000I-225000J0D01*
G01*
X223250000Y-120475000D01*
G75*
G02*
X223025000Y-120250000I0J225000D01*
G01*
G37*
G36*
G01*
X221475000Y-120250000D02*
X221475000Y-119750000D01*
G75*
G02*
X221700000Y-119525000I225000J0D01*
G01*
X222150000Y-119525000D01*
G75*
G02*
X222375000Y-119750000I0J-225000D01*
G01*
X222375000Y-120250000D01*
G75*
G02*
X222150000Y-120475000I-225000J0D01*
G01*
X221700000Y-120475000D01*
G75*
G02*
X221475000Y-120250000I0J225000D01*
G01*
G37*
%TD*%
%TO.C,C32*%
G36*
G01*
X217025000Y-120350000D02*
X217025000Y-119850000D01*
G75*
G02*
X217250000Y-119625000I225000J0D01*
G01*
X217700000Y-119625000D01*
G75*
G02*
X217925000Y-119850000I0J-225000D01*
G01*
X217925000Y-120350000D01*
G75*
G02*
X217700000Y-120575000I-225000J0D01*
G01*
X217250000Y-120575000D01*
G75*
G02*
X217025000Y-120350000I0J225000D01*
G01*
G37*
G36*
G01*
X215475000Y-120350000D02*
X215475000Y-119850000D01*
G75*
G02*
X215700000Y-119625000I225000J0D01*
G01*
X216150000Y-119625000D01*
G75*
G02*
X216375000Y-119850000I0J-225000D01*
G01*
X216375000Y-120350000D01*
G75*
G02*
X216150000Y-120575000I-225000J0D01*
G01*
X215700000Y-120575000D01*
G75*
G02*
X215475000Y-120350000I0J225000D01*
G01*
G37*
%TD*%
%TO.C,C31*%
G36*
G01*
X235425000Y-125650000D02*
X235425000Y-125150000D01*
G75*
G02*
X235650000Y-124925000I225000J0D01*
G01*
X236100000Y-124925000D01*
G75*
G02*
X236325000Y-125150000I0J-225000D01*
G01*
X236325000Y-125650000D01*
G75*
G02*
X236100000Y-125875000I-225000J0D01*
G01*
X235650000Y-125875000D01*
G75*
G02*
X235425000Y-125650000I0J225000D01*
G01*
G37*
G36*
G01*
X233875000Y-125650000D02*
X233875000Y-125150000D01*
G75*
G02*
X234100000Y-124925000I225000J0D01*
G01*
X234550000Y-124925000D01*
G75*
G02*
X234775000Y-125150000I0J-225000D01*
G01*
X234775000Y-125650000D01*
G75*
G02*
X234550000Y-125875000I-225000J0D01*
G01*
X234100000Y-125875000D01*
G75*
G02*
X233875000Y-125650000I0J225000D01*
G01*
G37*
%TD*%
%TO.C,C30*%
G36*
G01*
X231925000Y-125650000D02*
X231925000Y-125150000D01*
G75*
G02*
X232150000Y-124925000I225000J0D01*
G01*
X232600000Y-124925000D01*
G75*
G02*
X232825000Y-125150000I0J-225000D01*
G01*
X232825000Y-125650000D01*
G75*
G02*
X232600000Y-125875000I-225000J0D01*
G01*
X232150000Y-125875000D01*
G75*
G02*
X231925000Y-125650000I0J225000D01*
G01*
G37*
G36*
G01*
X230375000Y-125650000D02*
X230375000Y-125150000D01*
G75*
G02*
X230600000Y-124925000I225000J0D01*
G01*
X231050000Y-124925000D01*
G75*
G02*
X231275000Y-125150000I0J-225000D01*
G01*
X231275000Y-125650000D01*
G75*
G02*
X231050000Y-125875000I-225000J0D01*
G01*
X230600000Y-125875000D01*
G75*
G02*
X230375000Y-125650000I0J225000D01*
G01*
G37*
%TD*%
%TO.C,C29*%
G36*
G01*
X228425000Y-125650000D02*
X228425000Y-125150000D01*
G75*
G02*
X228650000Y-124925000I225000J0D01*
G01*
X229100000Y-124925000D01*
G75*
G02*
X229325000Y-125150000I0J-225000D01*
G01*
X229325000Y-125650000D01*
G75*
G02*
X229100000Y-125875000I-225000J0D01*
G01*
X228650000Y-125875000D01*
G75*
G02*
X228425000Y-125650000I0J225000D01*
G01*
G37*
G36*
G01*
X226875000Y-125650000D02*
X226875000Y-125150000D01*
G75*
G02*
X227100000Y-124925000I225000J0D01*
G01*
X227550000Y-124925000D01*
G75*
G02*
X227775000Y-125150000I0J-225000D01*
G01*
X227775000Y-125650000D01*
G75*
G02*
X227550000Y-125875000I-225000J0D01*
G01*
X227100000Y-125875000D01*
G75*
G02*
X226875000Y-125650000I0J225000D01*
G01*
G37*
%TD*%
%TO.C,C28*%
G36*
G01*
X227775000Y-119950000D02*
X227775000Y-120450000D01*
G75*
G02*
X227550000Y-120675000I-225000J0D01*
G01*
X227100000Y-120675000D01*
G75*
G02*
X226875000Y-120450000I0J225000D01*
G01*
X226875000Y-119950000D01*
G75*
G02*
X227100000Y-119725000I225000J0D01*
G01*
X227550000Y-119725000D01*
G75*
G02*
X227775000Y-119950000I0J-225000D01*
G01*
G37*
G36*
G01*
X229325000Y-119950000D02*
X229325000Y-120450000D01*
G75*
G02*
X229100000Y-120675000I-225000J0D01*
G01*
X228650000Y-120675000D01*
G75*
G02*
X228425000Y-120450000I0J225000D01*
G01*
X228425000Y-119950000D01*
G75*
G02*
X228650000Y-119725000I225000J0D01*
G01*
X229100000Y-119725000D01*
G75*
G02*
X229325000Y-119950000I0J-225000D01*
G01*
G37*
%TD*%
%TO.C,C27*%
G36*
G01*
X231275000Y-119950000D02*
X231275000Y-120450000D01*
G75*
G02*
X231050000Y-120675000I-225000J0D01*
G01*
X230600000Y-120675000D01*
G75*
G02*
X230375000Y-120450000I0J225000D01*
G01*
X230375000Y-119950000D01*
G75*
G02*
X230600000Y-119725000I225000J0D01*
G01*
X231050000Y-119725000D01*
G75*
G02*
X231275000Y-119950000I0J-225000D01*
G01*
G37*
G36*
G01*
X232825000Y-119950000D02*
X232825000Y-120450000D01*
G75*
G02*
X232600000Y-120675000I-225000J0D01*
G01*
X232150000Y-120675000D01*
G75*
G02*
X231925000Y-120450000I0J225000D01*
G01*
X231925000Y-119950000D01*
G75*
G02*
X232150000Y-119725000I225000J0D01*
G01*
X232600000Y-119725000D01*
G75*
G02*
X232825000Y-119950000I0J-225000D01*
G01*
G37*
%TD*%
%TO.C,C15*%
G36*
G01*
X234775000Y-119950000D02*
X234775000Y-120450000D01*
G75*
G02*
X234550000Y-120675000I-225000J0D01*
G01*
X234100000Y-120675000D01*
G75*
G02*
X233875000Y-120450000I0J225000D01*
G01*
X233875000Y-119950000D01*
G75*
G02*
X234100000Y-119725000I225000J0D01*
G01*
X234550000Y-119725000D01*
G75*
G02*
X234775000Y-119950000I0J-225000D01*
G01*
G37*
G36*
G01*
X236325000Y-119950000D02*
X236325000Y-120450000D01*
G75*
G02*
X236100000Y-120675000I-225000J0D01*
G01*
X235650000Y-120675000D01*
G75*
G02*
X235425000Y-120450000I0J225000D01*
G01*
X235425000Y-119950000D01*
G75*
G02*
X235650000Y-119725000I225000J0D01*
G01*
X236100000Y-119725000D01*
G75*
G02*
X236325000Y-119950000I0J-225000D01*
G01*
G37*
%TD*%
D18*
%TO.C,Y1*%
X223950000Y-116300000D03*
X215450000Y-116300000D03*
%TD*%
%TO.C,U4*%
G36*
G01*
X211200000Y-123625000D02*
X211200000Y-122225000D01*
G75*
G02*
X211275000Y-122150000I75000J0D01*
G01*
X211425000Y-122150000D01*
G75*
G02*
X211500000Y-122225000I0J-75000D01*
G01*
X211500000Y-123625000D01*
G75*
G02*
X211425000Y-123700000I-75000J0D01*
G01*
X211275000Y-123700000D01*
G75*
G02*
X211200000Y-123625000I0J75000D01*
G01*
G37*
G36*
G01*
X211700000Y-123625000D02*
X211700000Y-122225000D01*
G75*
G02*
X211775000Y-122150000I75000J0D01*
G01*
X211925000Y-122150000D01*
G75*
G02*
X212000000Y-122225000I0J-75000D01*
G01*
X212000000Y-123625000D01*
G75*
G02*
X211925000Y-123700000I-75000J0D01*
G01*
X211775000Y-123700000D01*
G75*
G02*
X211700000Y-123625000I0J75000D01*
G01*
G37*
G36*
G01*
X212200000Y-123625000D02*
X212200000Y-122225000D01*
G75*
G02*
X212275000Y-122150000I75000J0D01*
G01*
X212425000Y-122150000D01*
G75*
G02*
X212500000Y-122225000I0J-75000D01*
G01*
X212500000Y-123625000D01*
G75*
G02*
X212425000Y-123700000I-75000J0D01*
G01*
X212275000Y-123700000D01*
G75*
G02*
X212200000Y-123625000I0J75000D01*
G01*
G37*
G36*
G01*
X212700000Y-123625000D02*
X212700000Y-122225000D01*
G75*
G02*
X212775000Y-122150000I75000J0D01*
G01*
X212925000Y-122150000D01*
G75*
G02*
X213000000Y-122225000I0J-75000D01*
G01*
X213000000Y-123625000D01*
G75*
G02*
X212925000Y-123700000I-75000J0D01*
G01*
X212775000Y-123700000D01*
G75*
G02*
X212700000Y-123625000I0J75000D01*
G01*
G37*
G36*
G01*
X213200000Y-123625000D02*
X213200000Y-122225000D01*
G75*
G02*
X213275000Y-122150000I75000J0D01*
G01*
X213425000Y-122150000D01*
G75*
G02*
X213500000Y-122225000I0J-75000D01*
G01*
X213500000Y-123625000D01*
G75*
G02*
X213425000Y-123700000I-75000J0D01*
G01*
X213275000Y-123700000D01*
G75*
G02*
X213200000Y-123625000I0J75000D01*
G01*
G37*
G36*
G01*
X213700000Y-123625000D02*
X213700000Y-122225000D01*
G75*
G02*
X213775000Y-122150000I75000J0D01*
G01*
X213925000Y-122150000D01*
G75*
G02*
X214000000Y-122225000I0J-75000D01*
G01*
X214000000Y-123625000D01*
G75*
G02*
X213925000Y-123700000I-75000J0D01*
G01*
X213775000Y-123700000D01*
G75*
G02*
X213700000Y-123625000I0J75000D01*
G01*
G37*
G36*
G01*
X214200000Y-123625000D02*
X214200000Y-122225000D01*
G75*
G02*
X214275000Y-122150000I75000J0D01*
G01*
X214425000Y-122150000D01*
G75*
G02*
X214500000Y-122225000I0J-75000D01*
G01*
X214500000Y-123625000D01*
G75*
G02*
X214425000Y-123700000I-75000J0D01*
G01*
X214275000Y-123700000D01*
G75*
G02*
X214200000Y-123625000I0J75000D01*
G01*
G37*
G36*
G01*
X214700000Y-123625000D02*
X214700000Y-122225000D01*
G75*
G02*
X214775000Y-122150000I75000J0D01*
G01*
X214925000Y-122150000D01*
G75*
G02*
X215000000Y-122225000I0J-75000D01*
G01*
X215000000Y-123625000D01*
G75*
G02*
X214925000Y-123700000I-75000J0D01*
G01*
X214775000Y-123700000D01*
G75*
G02*
X214700000Y-123625000I0J75000D01*
G01*
G37*
G36*
G01*
X215200000Y-123625000D02*
X215200000Y-122225000D01*
G75*
G02*
X215275000Y-122150000I75000J0D01*
G01*
X215425000Y-122150000D01*
G75*
G02*
X215500000Y-122225000I0J-75000D01*
G01*
X215500000Y-123625000D01*
G75*
G02*
X215425000Y-123700000I-75000J0D01*
G01*
X215275000Y-123700000D01*
G75*
G02*
X215200000Y-123625000I0J75000D01*
G01*
G37*
G36*
G01*
X215700000Y-123625000D02*
X215700000Y-122225000D01*
G75*
G02*
X215775000Y-122150000I75000J0D01*
G01*
X215925000Y-122150000D01*
G75*
G02*
X216000000Y-122225000I0J-75000D01*
G01*
X216000000Y-123625000D01*
G75*
G02*
X215925000Y-123700000I-75000J0D01*
G01*
X215775000Y-123700000D01*
G75*
G02*
X215700000Y-123625000I0J75000D01*
G01*
G37*
G36*
G01*
X216200000Y-123625000D02*
X216200000Y-122225000D01*
G75*
G02*
X216275000Y-122150000I75000J0D01*
G01*
X216425000Y-122150000D01*
G75*
G02*
X216500000Y-122225000I0J-75000D01*
G01*
X216500000Y-123625000D01*
G75*
G02*
X216425000Y-123700000I-75000J0D01*
G01*
X216275000Y-123700000D01*
G75*
G02*
X216200000Y-123625000I0J75000D01*
G01*
G37*
G36*
G01*
X216700000Y-123625000D02*
X216700000Y-122225000D01*
G75*
G02*
X216775000Y-122150000I75000J0D01*
G01*
X216925000Y-122150000D01*
G75*
G02*
X217000000Y-122225000I0J-75000D01*
G01*
X217000000Y-123625000D01*
G75*
G02*
X216925000Y-123700000I-75000J0D01*
G01*
X216775000Y-123700000D01*
G75*
G02*
X216700000Y-123625000I0J75000D01*
G01*
G37*
G36*
G01*
X217200000Y-123625000D02*
X217200000Y-122225000D01*
G75*
G02*
X217275000Y-122150000I75000J0D01*
G01*
X217425000Y-122150000D01*
G75*
G02*
X217500000Y-122225000I0J-75000D01*
G01*
X217500000Y-123625000D01*
G75*
G02*
X217425000Y-123700000I-75000J0D01*
G01*
X217275000Y-123700000D01*
G75*
G02*
X217200000Y-123625000I0J75000D01*
G01*
G37*
G36*
G01*
X217700000Y-123625000D02*
X217700000Y-122225000D01*
G75*
G02*
X217775000Y-122150000I75000J0D01*
G01*
X217925000Y-122150000D01*
G75*
G02*
X218000000Y-122225000I0J-75000D01*
G01*
X218000000Y-123625000D01*
G75*
G02*
X217925000Y-123700000I-75000J0D01*
G01*
X217775000Y-123700000D01*
G75*
G02*
X217700000Y-123625000I0J75000D01*
G01*
G37*
G36*
G01*
X218200000Y-123625000D02*
X218200000Y-122225000D01*
G75*
G02*
X218275000Y-122150000I75000J0D01*
G01*
X218425000Y-122150000D01*
G75*
G02*
X218500000Y-122225000I0J-75000D01*
G01*
X218500000Y-123625000D01*
G75*
G02*
X218425000Y-123700000I-75000J0D01*
G01*
X218275000Y-123700000D01*
G75*
G02*
X218200000Y-123625000I0J75000D01*
G01*
G37*
G36*
G01*
X218700000Y-123625000D02*
X218700000Y-122225000D01*
G75*
G02*
X218775000Y-122150000I75000J0D01*
G01*
X218925000Y-122150000D01*
G75*
G02*
X219000000Y-122225000I0J-75000D01*
G01*
X219000000Y-123625000D01*
G75*
G02*
X218925000Y-123700000I-75000J0D01*
G01*
X218775000Y-123700000D01*
G75*
G02*
X218700000Y-123625000I0J75000D01*
G01*
G37*
G36*
G01*
X220000000Y-124925000D02*
X220000000Y-124775000D01*
G75*
G02*
X220075000Y-124700000I75000J0D01*
G01*
X221475000Y-124700000D01*
G75*
G02*
X221550000Y-124775000I0J-75000D01*
G01*
X221550000Y-124925000D01*
G75*
G02*
X221475000Y-125000000I-75000J0D01*
G01*
X220075000Y-125000000D01*
G75*
G02*
X220000000Y-124925000I0J75000D01*
G01*
G37*
G36*
G01*
X220000000Y-125425000D02*
X220000000Y-125275000D01*
G75*
G02*
X220075000Y-125200000I75000J0D01*
G01*
X221475000Y-125200000D01*
G75*
G02*
X221550000Y-125275000I0J-75000D01*
G01*
X221550000Y-125425000D01*
G75*
G02*
X221475000Y-125500000I-75000J0D01*
G01*
X220075000Y-125500000D01*
G75*
G02*
X220000000Y-125425000I0J75000D01*
G01*
G37*
G36*
G01*
X220000000Y-125925000D02*
X220000000Y-125775000D01*
G75*
G02*
X220075000Y-125700000I75000J0D01*
G01*
X221475000Y-125700000D01*
G75*
G02*
X221550000Y-125775000I0J-75000D01*
G01*
X221550000Y-125925000D01*
G75*
G02*
X221475000Y-126000000I-75000J0D01*
G01*
X220075000Y-126000000D01*
G75*
G02*
X220000000Y-125925000I0J75000D01*
G01*
G37*
G36*
G01*
X220000000Y-126425000D02*
X220000000Y-126275000D01*
G75*
G02*
X220075000Y-126200000I75000J0D01*
G01*
X221475000Y-126200000D01*
G75*
G02*
X221550000Y-126275000I0J-75000D01*
G01*
X221550000Y-126425000D01*
G75*
G02*
X221475000Y-126500000I-75000J0D01*
G01*
X220075000Y-126500000D01*
G75*
G02*
X220000000Y-126425000I0J75000D01*
G01*
G37*
G36*
G01*
X220000000Y-126925000D02*
X220000000Y-126775000D01*
G75*
G02*
X220075000Y-126700000I75000J0D01*
G01*
X221475000Y-126700000D01*
G75*
G02*
X221550000Y-126775000I0J-75000D01*
G01*
X221550000Y-126925000D01*
G75*
G02*
X221475000Y-127000000I-75000J0D01*
G01*
X220075000Y-127000000D01*
G75*
G02*
X220000000Y-126925000I0J75000D01*
G01*
G37*
G36*
G01*
X220000000Y-127425000D02*
X220000000Y-127275000D01*
G75*
G02*
X220075000Y-127200000I75000J0D01*
G01*
X221475000Y-127200000D01*
G75*
G02*
X221550000Y-127275000I0J-75000D01*
G01*
X221550000Y-127425000D01*
G75*
G02*
X221475000Y-127500000I-75000J0D01*
G01*
X220075000Y-127500000D01*
G75*
G02*
X220000000Y-127425000I0J75000D01*
G01*
G37*
G36*
G01*
X220000000Y-127925000D02*
X220000000Y-127775000D01*
G75*
G02*
X220075000Y-127700000I75000J0D01*
G01*
X221475000Y-127700000D01*
G75*
G02*
X221550000Y-127775000I0J-75000D01*
G01*
X221550000Y-127925000D01*
G75*
G02*
X221475000Y-128000000I-75000J0D01*
G01*
X220075000Y-128000000D01*
G75*
G02*
X220000000Y-127925000I0J75000D01*
G01*
G37*
G36*
G01*
X220000000Y-128425000D02*
X220000000Y-128275000D01*
G75*
G02*
X220075000Y-128200000I75000J0D01*
G01*
X221475000Y-128200000D01*
G75*
G02*
X221550000Y-128275000I0J-75000D01*
G01*
X221550000Y-128425000D01*
G75*
G02*
X221475000Y-128500000I-75000J0D01*
G01*
X220075000Y-128500000D01*
G75*
G02*
X220000000Y-128425000I0J75000D01*
G01*
G37*
G36*
G01*
X220000000Y-128925000D02*
X220000000Y-128775000D01*
G75*
G02*
X220075000Y-128700000I75000J0D01*
G01*
X221475000Y-128700000D01*
G75*
G02*
X221550000Y-128775000I0J-75000D01*
G01*
X221550000Y-128925000D01*
G75*
G02*
X221475000Y-129000000I-75000J0D01*
G01*
X220075000Y-129000000D01*
G75*
G02*
X220000000Y-128925000I0J75000D01*
G01*
G37*
G36*
G01*
X220000000Y-129425000D02*
X220000000Y-129275000D01*
G75*
G02*
X220075000Y-129200000I75000J0D01*
G01*
X221475000Y-129200000D01*
G75*
G02*
X221550000Y-129275000I0J-75000D01*
G01*
X221550000Y-129425000D01*
G75*
G02*
X221475000Y-129500000I-75000J0D01*
G01*
X220075000Y-129500000D01*
G75*
G02*
X220000000Y-129425000I0J75000D01*
G01*
G37*
G36*
G01*
X220000000Y-129925000D02*
X220000000Y-129775000D01*
G75*
G02*
X220075000Y-129700000I75000J0D01*
G01*
X221475000Y-129700000D01*
G75*
G02*
X221550000Y-129775000I0J-75000D01*
G01*
X221550000Y-129925000D01*
G75*
G02*
X221475000Y-130000000I-75000J0D01*
G01*
X220075000Y-130000000D01*
G75*
G02*
X220000000Y-129925000I0J75000D01*
G01*
G37*
G36*
G01*
X220000000Y-130425000D02*
X220000000Y-130275000D01*
G75*
G02*
X220075000Y-130200000I75000J0D01*
G01*
X221475000Y-130200000D01*
G75*
G02*
X221550000Y-130275000I0J-75000D01*
G01*
X221550000Y-130425000D01*
G75*
G02*
X221475000Y-130500000I-75000J0D01*
G01*
X220075000Y-130500000D01*
G75*
G02*
X220000000Y-130425000I0J75000D01*
G01*
G37*
G36*
G01*
X220000000Y-130925000D02*
X220000000Y-130775000D01*
G75*
G02*
X220075000Y-130700000I75000J0D01*
G01*
X221475000Y-130700000D01*
G75*
G02*
X221550000Y-130775000I0J-75000D01*
G01*
X221550000Y-130925000D01*
G75*
G02*
X221475000Y-131000000I-75000J0D01*
G01*
X220075000Y-131000000D01*
G75*
G02*
X220000000Y-130925000I0J75000D01*
G01*
G37*
G36*
G01*
X220000000Y-131425000D02*
X220000000Y-131275000D01*
G75*
G02*
X220075000Y-131200000I75000J0D01*
G01*
X221475000Y-131200000D01*
G75*
G02*
X221550000Y-131275000I0J-75000D01*
G01*
X221550000Y-131425000D01*
G75*
G02*
X221475000Y-131500000I-75000J0D01*
G01*
X220075000Y-131500000D01*
G75*
G02*
X220000000Y-131425000I0J75000D01*
G01*
G37*
G36*
G01*
X220000000Y-131925000D02*
X220000000Y-131775000D01*
G75*
G02*
X220075000Y-131700000I75000J0D01*
G01*
X221475000Y-131700000D01*
G75*
G02*
X221550000Y-131775000I0J-75000D01*
G01*
X221550000Y-131925000D01*
G75*
G02*
X221475000Y-132000000I-75000J0D01*
G01*
X220075000Y-132000000D01*
G75*
G02*
X220000000Y-131925000I0J75000D01*
G01*
G37*
G36*
G01*
X220000000Y-132425000D02*
X220000000Y-132275000D01*
G75*
G02*
X220075000Y-132200000I75000J0D01*
G01*
X221475000Y-132200000D01*
G75*
G02*
X221550000Y-132275000I0J-75000D01*
G01*
X221550000Y-132425000D01*
G75*
G02*
X221475000Y-132500000I-75000J0D01*
G01*
X220075000Y-132500000D01*
G75*
G02*
X220000000Y-132425000I0J75000D01*
G01*
G37*
G36*
G01*
X218700000Y-134975000D02*
X218700000Y-133575000D01*
G75*
G02*
X218775000Y-133500000I75000J0D01*
G01*
X218925000Y-133500000D01*
G75*
G02*
X219000000Y-133575000I0J-75000D01*
G01*
X219000000Y-134975000D01*
G75*
G02*
X218925000Y-135050000I-75000J0D01*
G01*
X218775000Y-135050000D01*
G75*
G02*
X218700000Y-134975000I0J75000D01*
G01*
G37*
G36*
G01*
X218200000Y-134975000D02*
X218200000Y-133575000D01*
G75*
G02*
X218275000Y-133500000I75000J0D01*
G01*
X218425000Y-133500000D01*
G75*
G02*
X218500000Y-133575000I0J-75000D01*
G01*
X218500000Y-134975000D01*
G75*
G02*
X218425000Y-135050000I-75000J0D01*
G01*
X218275000Y-135050000D01*
G75*
G02*
X218200000Y-134975000I0J75000D01*
G01*
G37*
G36*
G01*
X217700000Y-134975000D02*
X217700000Y-133575000D01*
G75*
G02*
X217775000Y-133500000I75000J0D01*
G01*
X217925000Y-133500000D01*
G75*
G02*
X218000000Y-133575000I0J-75000D01*
G01*
X218000000Y-134975000D01*
G75*
G02*
X217925000Y-135050000I-75000J0D01*
G01*
X217775000Y-135050000D01*
G75*
G02*
X217700000Y-134975000I0J75000D01*
G01*
G37*
G36*
G01*
X217200000Y-134975000D02*
X217200000Y-133575000D01*
G75*
G02*
X217275000Y-133500000I75000J0D01*
G01*
X217425000Y-133500000D01*
G75*
G02*
X217500000Y-133575000I0J-75000D01*
G01*
X217500000Y-134975000D01*
G75*
G02*
X217425000Y-135050000I-75000J0D01*
G01*
X217275000Y-135050000D01*
G75*
G02*
X217200000Y-134975000I0J75000D01*
G01*
G37*
G36*
G01*
X216700000Y-134975000D02*
X216700000Y-133575000D01*
G75*
G02*
X216775000Y-133500000I75000J0D01*
G01*
X216925000Y-133500000D01*
G75*
G02*
X217000000Y-133575000I0J-75000D01*
G01*
X217000000Y-134975000D01*
G75*
G02*
X216925000Y-135050000I-75000J0D01*
G01*
X216775000Y-135050000D01*
G75*
G02*
X216700000Y-134975000I0J75000D01*
G01*
G37*
G36*
G01*
X216200000Y-134975000D02*
X216200000Y-133575000D01*
G75*
G02*
X216275000Y-133500000I75000J0D01*
G01*
X216425000Y-133500000D01*
G75*
G02*
X216500000Y-133575000I0J-75000D01*
G01*
X216500000Y-134975000D01*
G75*
G02*
X216425000Y-135050000I-75000J0D01*
G01*
X216275000Y-135050000D01*
G75*
G02*
X216200000Y-134975000I0J75000D01*
G01*
G37*
G36*
G01*
X215700000Y-134975000D02*
X215700000Y-133575000D01*
G75*
G02*
X215775000Y-133500000I75000J0D01*
G01*
X215925000Y-133500000D01*
G75*
G02*
X216000000Y-133575000I0J-75000D01*
G01*
X216000000Y-134975000D01*
G75*
G02*
X215925000Y-135050000I-75000J0D01*
G01*
X215775000Y-135050000D01*
G75*
G02*
X215700000Y-134975000I0J75000D01*
G01*
G37*
G36*
G01*
X215200000Y-134975000D02*
X215200000Y-133575000D01*
G75*
G02*
X215275000Y-133500000I75000J0D01*
G01*
X215425000Y-133500000D01*
G75*
G02*
X215500000Y-133575000I0J-75000D01*
G01*
X215500000Y-134975000D01*
G75*
G02*
X215425000Y-135050000I-75000J0D01*
G01*
X215275000Y-135050000D01*
G75*
G02*
X215200000Y-134975000I0J75000D01*
G01*
G37*
G36*
G01*
X214700000Y-134975000D02*
X214700000Y-133575000D01*
G75*
G02*
X214775000Y-133500000I75000J0D01*
G01*
X214925000Y-133500000D01*
G75*
G02*
X215000000Y-133575000I0J-75000D01*
G01*
X215000000Y-134975000D01*
G75*
G02*
X214925000Y-135050000I-75000J0D01*
G01*
X214775000Y-135050000D01*
G75*
G02*
X214700000Y-134975000I0J75000D01*
G01*
G37*
G36*
G01*
X214200000Y-134975000D02*
X214200000Y-133575000D01*
G75*
G02*
X214275000Y-133500000I75000J0D01*
G01*
X214425000Y-133500000D01*
G75*
G02*
X214500000Y-133575000I0J-75000D01*
G01*
X214500000Y-134975000D01*
G75*
G02*
X214425000Y-135050000I-75000J0D01*
G01*
X214275000Y-135050000D01*
G75*
G02*
X214200000Y-134975000I0J75000D01*
G01*
G37*
G36*
G01*
X213700000Y-134975000D02*
X213700000Y-133575000D01*
G75*
G02*
X213775000Y-133500000I75000J0D01*
G01*
X213925000Y-133500000D01*
G75*
G02*
X214000000Y-133575000I0J-75000D01*
G01*
X214000000Y-134975000D01*
G75*
G02*
X213925000Y-135050000I-75000J0D01*
G01*
X213775000Y-135050000D01*
G75*
G02*
X213700000Y-134975000I0J75000D01*
G01*
G37*
G36*
G01*
X213200000Y-134975000D02*
X213200000Y-133575000D01*
G75*
G02*
X213275000Y-133500000I75000J0D01*
G01*
X213425000Y-133500000D01*
G75*
G02*
X213500000Y-133575000I0J-75000D01*
G01*
X213500000Y-134975000D01*
G75*
G02*
X213425000Y-135050000I-75000J0D01*
G01*
X213275000Y-135050000D01*
G75*
G02*
X213200000Y-134975000I0J75000D01*
G01*
G37*
G36*
G01*
X212700000Y-134975000D02*
X212700000Y-133575000D01*
G75*
G02*
X212775000Y-133500000I75000J0D01*
G01*
X212925000Y-133500000D01*
G75*
G02*
X213000000Y-133575000I0J-75000D01*
G01*
X213000000Y-134975000D01*
G75*
G02*
X212925000Y-135050000I-75000J0D01*
G01*
X212775000Y-135050000D01*
G75*
G02*
X212700000Y-134975000I0J75000D01*
G01*
G37*
G36*
G01*
X212200000Y-134975000D02*
X212200000Y-133575000D01*
G75*
G02*
X212275000Y-133500000I75000J0D01*
G01*
X212425000Y-133500000D01*
G75*
G02*
X212500000Y-133575000I0J-75000D01*
G01*
X212500000Y-134975000D01*
G75*
G02*
X212425000Y-135050000I-75000J0D01*
G01*
X212275000Y-135050000D01*
G75*
G02*
X212200000Y-134975000I0J75000D01*
G01*
G37*
G36*
G01*
X211700000Y-134975000D02*
X211700000Y-133575000D01*
G75*
G02*
X211775000Y-133500000I75000J0D01*
G01*
X211925000Y-133500000D01*
G75*
G02*
X212000000Y-133575000I0J-75000D01*
G01*
X212000000Y-134975000D01*
G75*
G02*
X211925000Y-135050000I-75000J0D01*
G01*
X211775000Y-135050000D01*
G75*
G02*
X211700000Y-134975000I0J75000D01*
G01*
G37*
G36*
G01*
X211200000Y-134975000D02*
X211200000Y-133575000D01*
G75*
G02*
X211275000Y-133500000I75000J0D01*
G01*
X211425000Y-133500000D01*
G75*
G02*
X211500000Y-133575000I0J-75000D01*
G01*
X211500000Y-134975000D01*
G75*
G02*
X211425000Y-135050000I-75000J0D01*
G01*
X211275000Y-135050000D01*
G75*
G02*
X211200000Y-134975000I0J75000D01*
G01*
G37*
G36*
G01*
X208650000Y-132425000D02*
X208650000Y-132275000D01*
G75*
G02*
X208725000Y-132200000I75000J0D01*
G01*
X210125000Y-132200000D01*
G75*
G02*
X210200000Y-132275000I0J-75000D01*
G01*
X210200000Y-132425000D01*
G75*
G02*
X210125000Y-132500000I-75000J0D01*
G01*
X208725000Y-132500000D01*
G75*
G02*
X208650000Y-132425000I0J75000D01*
G01*
G37*
G36*
G01*
X208650000Y-131925000D02*
X208650000Y-131775000D01*
G75*
G02*
X208725000Y-131700000I75000J0D01*
G01*
X210125000Y-131700000D01*
G75*
G02*
X210200000Y-131775000I0J-75000D01*
G01*
X210200000Y-131925000D01*
G75*
G02*
X210125000Y-132000000I-75000J0D01*
G01*
X208725000Y-132000000D01*
G75*
G02*
X208650000Y-131925000I0J75000D01*
G01*
G37*
G36*
G01*
X208650000Y-131425000D02*
X208650000Y-131275000D01*
G75*
G02*
X208725000Y-131200000I75000J0D01*
G01*
X210125000Y-131200000D01*
G75*
G02*
X210200000Y-131275000I0J-75000D01*
G01*
X210200000Y-131425000D01*
G75*
G02*
X210125000Y-131500000I-75000J0D01*
G01*
X208725000Y-131500000D01*
G75*
G02*
X208650000Y-131425000I0J75000D01*
G01*
G37*
G36*
G01*
X208650000Y-130925000D02*
X208650000Y-130775000D01*
G75*
G02*
X208725000Y-130700000I75000J0D01*
G01*
X210125000Y-130700000D01*
G75*
G02*
X210200000Y-130775000I0J-75000D01*
G01*
X210200000Y-130925000D01*
G75*
G02*
X210125000Y-131000000I-75000J0D01*
G01*
X208725000Y-131000000D01*
G75*
G02*
X208650000Y-130925000I0J75000D01*
G01*
G37*
G36*
G01*
X208650000Y-130425000D02*
X208650000Y-130275000D01*
G75*
G02*
X208725000Y-130200000I75000J0D01*
G01*
X210125000Y-130200000D01*
G75*
G02*
X210200000Y-130275000I0J-75000D01*
G01*
X210200000Y-130425000D01*
G75*
G02*
X210125000Y-130500000I-75000J0D01*
G01*
X208725000Y-130500000D01*
G75*
G02*
X208650000Y-130425000I0J75000D01*
G01*
G37*
G36*
G01*
X208650000Y-129925000D02*
X208650000Y-129775000D01*
G75*
G02*
X208725000Y-129700000I75000J0D01*
G01*
X210125000Y-129700000D01*
G75*
G02*
X210200000Y-129775000I0J-75000D01*
G01*
X210200000Y-129925000D01*
G75*
G02*
X210125000Y-130000000I-75000J0D01*
G01*
X208725000Y-130000000D01*
G75*
G02*
X208650000Y-129925000I0J75000D01*
G01*
G37*
G36*
G01*
X208650000Y-129425000D02*
X208650000Y-129275000D01*
G75*
G02*
X208725000Y-129200000I75000J0D01*
G01*
X210125000Y-129200000D01*
G75*
G02*
X210200000Y-129275000I0J-75000D01*
G01*
X210200000Y-129425000D01*
G75*
G02*
X210125000Y-129500000I-75000J0D01*
G01*
X208725000Y-129500000D01*
G75*
G02*
X208650000Y-129425000I0J75000D01*
G01*
G37*
G36*
G01*
X208650000Y-128925000D02*
X208650000Y-128775000D01*
G75*
G02*
X208725000Y-128700000I75000J0D01*
G01*
X210125000Y-128700000D01*
G75*
G02*
X210200000Y-128775000I0J-75000D01*
G01*
X210200000Y-128925000D01*
G75*
G02*
X210125000Y-129000000I-75000J0D01*
G01*
X208725000Y-129000000D01*
G75*
G02*
X208650000Y-128925000I0J75000D01*
G01*
G37*
G36*
G01*
X208650000Y-128425000D02*
X208650000Y-128275000D01*
G75*
G02*
X208725000Y-128200000I75000J0D01*
G01*
X210125000Y-128200000D01*
G75*
G02*
X210200000Y-128275000I0J-75000D01*
G01*
X210200000Y-128425000D01*
G75*
G02*
X210125000Y-128500000I-75000J0D01*
G01*
X208725000Y-128500000D01*
G75*
G02*
X208650000Y-128425000I0J75000D01*
G01*
G37*
G36*
G01*
X208650000Y-127925000D02*
X208650000Y-127775000D01*
G75*
G02*
X208725000Y-127700000I75000J0D01*
G01*
X210125000Y-127700000D01*
G75*
G02*
X210200000Y-127775000I0J-75000D01*
G01*
X210200000Y-127925000D01*
G75*
G02*
X210125000Y-128000000I-75000J0D01*
G01*
X208725000Y-128000000D01*
G75*
G02*
X208650000Y-127925000I0J75000D01*
G01*
G37*
G36*
G01*
X208650000Y-127425000D02*
X208650000Y-127275000D01*
G75*
G02*
X208725000Y-127200000I75000J0D01*
G01*
X210125000Y-127200000D01*
G75*
G02*
X210200000Y-127275000I0J-75000D01*
G01*
X210200000Y-127425000D01*
G75*
G02*
X210125000Y-127500000I-75000J0D01*
G01*
X208725000Y-127500000D01*
G75*
G02*
X208650000Y-127425000I0J75000D01*
G01*
G37*
G36*
G01*
X208650000Y-126925000D02*
X208650000Y-126775000D01*
G75*
G02*
X208725000Y-126700000I75000J0D01*
G01*
X210125000Y-126700000D01*
G75*
G02*
X210200000Y-126775000I0J-75000D01*
G01*
X210200000Y-126925000D01*
G75*
G02*
X210125000Y-127000000I-75000J0D01*
G01*
X208725000Y-127000000D01*
G75*
G02*
X208650000Y-126925000I0J75000D01*
G01*
G37*
G36*
G01*
X208650000Y-126425000D02*
X208650000Y-126275000D01*
G75*
G02*
X208725000Y-126200000I75000J0D01*
G01*
X210125000Y-126200000D01*
G75*
G02*
X210200000Y-126275000I0J-75000D01*
G01*
X210200000Y-126425000D01*
G75*
G02*
X210125000Y-126500000I-75000J0D01*
G01*
X208725000Y-126500000D01*
G75*
G02*
X208650000Y-126425000I0J75000D01*
G01*
G37*
G36*
G01*
X208650000Y-125925000D02*
X208650000Y-125775000D01*
G75*
G02*
X208725000Y-125700000I75000J0D01*
G01*
X210125000Y-125700000D01*
G75*
G02*
X210200000Y-125775000I0J-75000D01*
G01*
X210200000Y-125925000D01*
G75*
G02*
X210125000Y-126000000I-75000J0D01*
G01*
X208725000Y-126000000D01*
G75*
G02*
X208650000Y-125925000I0J75000D01*
G01*
G37*
G36*
G01*
X208650000Y-125425000D02*
X208650000Y-125275000D01*
G75*
G02*
X208725000Y-125200000I75000J0D01*
G01*
X210125000Y-125200000D01*
G75*
G02*
X210200000Y-125275000I0J-75000D01*
G01*
X210200000Y-125425000D01*
G75*
G02*
X210125000Y-125500000I-75000J0D01*
G01*
X208725000Y-125500000D01*
G75*
G02*
X208650000Y-125425000I0J75000D01*
G01*
G37*
G36*
G01*
X208650000Y-124925000D02*
X208650000Y-124775000D01*
G75*
G02*
X208725000Y-124700000I75000J0D01*
G01*
X210125000Y-124700000D01*
G75*
G02*
X210200000Y-124775000I0J-75000D01*
G01*
X210200000Y-124925000D01*
G75*
G02*
X210125000Y-125000000I-75000J0D01*
G01*
X208725000Y-125000000D01*
G75*
G02*
X208650000Y-124925000I0J75000D01*
G01*
G37*
%TD*%
D19*
%TO.C,TP7*%
X244750000Y-138000000D03*
%TD*%
%TO.C,TP6*%
X244750000Y-104000000D03*
%TD*%
%TO.C,TP5*%
X250750000Y-138000000D03*
%TD*%
%TO.C,TP4*%
X250750000Y-104000000D03*
%TD*%
D20*
%TO.C,U3*%
X236950000Y-118000000D03*
X236950000Y-113400000D03*
X236950000Y-115700000D03*
D21*
X230650000Y-115700000D03*
%TD*%
%TO.C,U2*%
G36*
G01*
X223700000Y-108255000D02*
X223700000Y-108555000D01*
G75*
G02*
X223550000Y-108705000I-150000J0D01*
G01*
X222200000Y-108705000D01*
G75*
G02*
X222050000Y-108555000I0J150000D01*
G01*
X222050000Y-108255000D01*
G75*
G02*
X222200000Y-108105000I150000J0D01*
G01*
X223550000Y-108105000D01*
G75*
G02*
X223700000Y-108255000I0J-150000D01*
G01*
G37*
G36*
G01*
X223700000Y-106985000D02*
X223700000Y-107285000D01*
G75*
G02*
X223550000Y-107435000I-150000J0D01*
G01*
X222200000Y-107435000D01*
G75*
G02*
X222050000Y-107285000I0J150000D01*
G01*
X222050000Y-106985000D01*
G75*
G02*
X222200000Y-106835000I150000J0D01*
G01*
X223550000Y-106835000D01*
G75*
G02*
X223700000Y-106985000I0J-150000D01*
G01*
G37*
G36*
G01*
X223700000Y-105715000D02*
X223700000Y-106015000D01*
G75*
G02*
X223550000Y-106165000I-150000J0D01*
G01*
X222200000Y-106165000D01*
G75*
G02*
X222050000Y-106015000I0J150000D01*
G01*
X222050000Y-105715000D01*
G75*
G02*
X222200000Y-105565000I150000J0D01*
G01*
X223550000Y-105565000D01*
G75*
G02*
X223700000Y-105715000I0J-150000D01*
G01*
G37*
G36*
G01*
X223700000Y-104445000D02*
X223700000Y-104745000D01*
G75*
G02*
X223550000Y-104895000I-150000J0D01*
G01*
X222200000Y-104895000D01*
G75*
G02*
X222050000Y-104745000I0J150000D01*
G01*
X222050000Y-104445000D01*
G75*
G02*
X222200000Y-104295000I150000J0D01*
G01*
X223550000Y-104295000D01*
G75*
G02*
X223700000Y-104445000I0J-150000D01*
G01*
G37*
G36*
G01*
X228950000Y-104445000D02*
X228950000Y-104745000D01*
G75*
G02*
X228800000Y-104895000I-150000J0D01*
G01*
X227450000Y-104895000D01*
G75*
G02*
X227300000Y-104745000I0J150000D01*
G01*
X227300000Y-104445000D01*
G75*
G02*
X227450000Y-104295000I150000J0D01*
G01*
X228800000Y-104295000D01*
G75*
G02*
X228950000Y-104445000I0J-150000D01*
G01*
G37*
G36*
G01*
X228950000Y-105715000D02*
X228950000Y-106015000D01*
G75*
G02*
X228800000Y-106165000I-150000J0D01*
G01*
X227450000Y-106165000D01*
G75*
G02*
X227300000Y-106015000I0J150000D01*
G01*
X227300000Y-105715000D01*
G75*
G02*
X227450000Y-105565000I150000J0D01*
G01*
X228800000Y-105565000D01*
G75*
G02*
X228950000Y-105715000I0J-150000D01*
G01*
G37*
G36*
G01*
X228950000Y-106985000D02*
X228950000Y-107285000D01*
G75*
G02*
X228800000Y-107435000I-150000J0D01*
G01*
X227450000Y-107435000D01*
G75*
G02*
X227300000Y-107285000I0J150000D01*
G01*
X227300000Y-106985000D01*
G75*
G02*
X227450000Y-106835000I150000J0D01*
G01*
X228800000Y-106835000D01*
G75*
G02*
X228950000Y-106985000I0J-150000D01*
G01*
G37*
G36*
G01*
X228950000Y-108255000D02*
X228950000Y-108555000D01*
G75*
G02*
X228800000Y-108705000I-150000J0D01*
G01*
X227450000Y-108705000D01*
G75*
G02*
X227300000Y-108555000I0J150000D01*
G01*
X227300000Y-108255000D01*
G75*
G02*
X227450000Y-108105000I150000J0D01*
G01*
X228800000Y-108105000D01*
G75*
G02*
X228950000Y-108255000I0J-150000D01*
G01*
G37*
%TD*%
D19*
%TO.C,TP3*%
X273250000Y-131500000D03*
%TD*%
%TO.C,TP2*%
X273400000Y-121000000D03*
%TD*%
%TO.C,TP1*%
X273400000Y-110500000D03*
%TD*%
D22*
%TO.C,L1*%
X211500000Y-106500000D03*
X219500000Y-106500000D03*
%TD*%
D23*
%TO.C,D1*%
X203500000Y-103000000D03*
X207500000Y-103000000D03*
%TD*%
%TO.C,C21*%
G36*
G01*
X227349999Y-116700000D02*
X228650001Y-116700000D01*
G75*
G02*
X228900000Y-116949999I0J-249999D01*
G01*
X228900000Y-117600001D01*
G75*
G02*
X228650001Y-117850000I-249999J0D01*
G01*
X227349999Y-117850000D01*
G75*
G02*
X227100000Y-117600001I0J249999D01*
G01*
X227100000Y-116949999D01*
G75*
G02*
X227349999Y-116700000I249999J0D01*
G01*
G37*
G36*
G01*
X227349999Y-113750000D02*
X228650001Y-113750000D01*
G75*
G02*
X228900000Y-113999999I0J-249999D01*
G01*
X228900000Y-114650001D01*
G75*
G02*
X228650001Y-114900000I-249999J0D01*
G01*
X227349999Y-114900000D01*
G75*
G02*
X227100000Y-114650001I0J249999D01*
G01*
X227100000Y-113999999D01*
G75*
G02*
X227349999Y-113750000I249999J0D01*
G01*
G37*
%TD*%
%TO.C,C20*%
G36*
G01*
X229650000Y-111150001D02*
X229650000Y-109849999D01*
G75*
G02*
X229899999Y-109600000I249999J0D01*
G01*
X230550001Y-109600000D01*
G75*
G02*
X230800000Y-109849999I0J-249999D01*
G01*
X230800000Y-111150001D01*
G75*
G02*
X230550001Y-111400000I-249999J0D01*
G01*
X229899999Y-111400000D01*
G75*
G02*
X229650000Y-111150001I0J249999D01*
G01*
G37*
G36*
G01*
X226700000Y-111150001D02*
X226700000Y-109849999D01*
G75*
G02*
X226949999Y-109600000I249999J0D01*
G01*
X227600001Y-109600000D01*
G75*
G02*
X227850000Y-109849999I0J-249999D01*
G01*
X227850000Y-111150001D01*
G75*
G02*
X227600001Y-111400000I-249999J0D01*
G01*
X226949999Y-111400000D01*
G75*
G02*
X226700000Y-111150001I0J249999D01*
G01*
G37*
%TD*%
%TO.C,C19*%
G36*
G01*
X206050000Y-109050000D02*
X204950000Y-109050000D01*
G75*
G02*
X204700000Y-108800000I0J250000D01*
G01*
X204700000Y-105800000D01*
G75*
G02*
X204950000Y-105550000I250000J0D01*
G01*
X206050000Y-105550000D01*
G75*
G02*
X206300000Y-105800000I0J-250000D01*
G01*
X206300000Y-108800000D01*
G75*
G02*
X206050000Y-109050000I-250000J0D01*
G01*
G37*
G36*
G01*
X206050000Y-114450000D02*
X204950000Y-114450000D01*
G75*
G02*
X204700000Y-114200000I0J250000D01*
G01*
X204700000Y-111200000D01*
G75*
G02*
X204950000Y-110950000I250000J0D01*
G01*
X206050000Y-110950000D01*
G75*
G02*
X206300000Y-111200000I0J-250000D01*
G01*
X206300000Y-114200000D01*
G75*
G02*
X206050000Y-114450000I-250000J0D01*
G01*
G37*
%TD*%
%TO.C,C18*%
G36*
G01*
X223025000Y-112200000D02*
X223975000Y-112200000D01*
G75*
G02*
X224225000Y-112450000I0J-250000D01*
G01*
X224225000Y-112950000D01*
G75*
G02*
X223975000Y-113200000I-250000J0D01*
G01*
X223025000Y-113200000D01*
G75*
G02*
X222775000Y-112950000I0J250000D01*
G01*
X222775000Y-112450000D01*
G75*
G02*
X223025000Y-112200000I250000J0D01*
G01*
G37*
G36*
G01*
X223025000Y-110300000D02*
X223975000Y-110300000D01*
G75*
G02*
X224225000Y-110550000I0J-250000D01*
G01*
X224225000Y-111050000D01*
G75*
G02*
X223975000Y-111300000I-250000J0D01*
G01*
X223025000Y-111300000D01*
G75*
G02*
X222775000Y-111050000I0J250000D01*
G01*
X222775000Y-110550000D01*
G75*
G02*
X223025000Y-110300000I250000J0D01*
G01*
G37*
%TD*%
%TO.C,C17*%
G36*
G01*
X227950000Y-102975000D02*
X227950000Y-102025000D01*
G75*
G02*
X228200000Y-101775000I250000J0D01*
G01*
X228700000Y-101775000D01*
G75*
G02*
X228950000Y-102025000I0J-250000D01*
G01*
X228950000Y-102975000D01*
G75*
G02*
X228700000Y-103225000I-250000J0D01*
G01*
X228200000Y-103225000D01*
G75*
G02*
X227950000Y-102975000I0J250000D01*
G01*
G37*
G36*
G01*
X226050000Y-102975000D02*
X226050000Y-102025000D01*
G75*
G02*
X226300000Y-101775000I250000J0D01*
G01*
X226800000Y-101775000D01*
G75*
G02*
X227050000Y-102025000I0J-250000D01*
G01*
X227050000Y-102975000D01*
G75*
G02*
X226800000Y-103225000I-250000J0D01*
G01*
X226300000Y-103225000D01*
G75*
G02*
X226050000Y-102975000I0J250000D01*
G01*
G37*
%TD*%
%TO.C,C16*%
G36*
G01*
X223950000Y-102975000D02*
X223950000Y-102025000D01*
G75*
G02*
X224200000Y-101775000I250000J0D01*
G01*
X224700000Y-101775000D01*
G75*
G02*
X224950000Y-102025000I0J-250000D01*
G01*
X224950000Y-102975000D01*
G75*
G02*
X224700000Y-103225000I-250000J0D01*
G01*
X224200000Y-103225000D01*
G75*
G02*
X223950000Y-102975000I0J250000D01*
G01*
G37*
G36*
G01*
X222050000Y-102975000D02*
X222050000Y-102025000D01*
G75*
G02*
X222300000Y-101775000I250000J0D01*
G01*
X222800000Y-101775000D01*
G75*
G02*
X223050000Y-102025000I0J-250000D01*
G01*
X223050000Y-102975000D01*
G75*
G02*
X222800000Y-103225000I-250000J0D01*
G01*
X222300000Y-103225000D01*
G75*
G02*
X222050000Y-102975000I0J250000D01*
G01*
G37*
%TD*%
D24*
%TO.C,H4*%
X273250000Y-103750000D03*
%TD*%
%TO.C,H3*%
X273250000Y-138250000D03*
%TD*%
%TO.C,H2*%
X198750000Y-103750000D03*
%TD*%
%TO.C,H1*%
X198750000Y-138250000D03*
%TD*%
D25*
%TO.C,U1*%
X245800000Y-120750000D03*
D26*
X249975501Y-118000000D03*
X249975501Y-118499999D03*
X249975501Y-119000001D03*
X249975501Y-119500000D03*
X249975501Y-119999999D03*
X249975501Y-120500000D03*
X249975501Y-121000000D03*
X249975501Y-121500001D03*
X249975501Y-122000000D03*
X249975501Y-122499999D03*
X249975501Y-123000001D03*
X249975501Y-123500000D03*
D27*
X248550000Y-124925501D03*
X248050001Y-124925501D03*
X247549999Y-124925501D03*
X247050000Y-124925501D03*
X246550001Y-124925501D03*
X246050000Y-124925501D03*
X245550000Y-124925501D03*
X245049999Y-124925501D03*
X244550000Y-124925501D03*
X244050001Y-124925501D03*
X243549999Y-124925501D03*
X243050000Y-124925501D03*
D26*
X241624499Y-123500000D03*
X241624499Y-123000001D03*
X241624499Y-122499999D03*
X241624499Y-122000000D03*
X241624499Y-121500001D03*
X241624499Y-121000000D03*
X241624499Y-120500000D03*
X241624499Y-119999999D03*
X241624499Y-119500000D03*
X241624499Y-119000001D03*
X241624499Y-118499999D03*
X241624499Y-118000000D03*
D27*
X243050000Y-116574499D03*
X243549999Y-116574499D03*
X244050001Y-116574499D03*
X244550000Y-116574499D03*
X245049999Y-116574499D03*
X245550000Y-116574499D03*
X246050000Y-116574499D03*
X246550001Y-116574499D03*
X247050000Y-116574499D03*
X247549999Y-116574499D03*
X248050001Y-116574499D03*
X248550000Y-116574499D03*
%TD*%
%TO.C,R16*%
G36*
G01*
X240725000Y-128075000D02*
X241275000Y-128075000D01*
G75*
G02*
X241475000Y-128275000I0J-200000D01*
G01*
X241475000Y-128675000D01*
G75*
G02*
X241275000Y-128875000I-200000J0D01*
G01*
X240725000Y-128875000D01*
G75*
G02*
X240525000Y-128675000I0J200000D01*
G01*
X240525000Y-128275000D01*
G75*
G02*
X240725000Y-128075000I200000J0D01*
G01*
G37*
G36*
G01*
X240725000Y-126425000D02*
X241275000Y-126425000D01*
G75*
G02*
X241475000Y-126625000I0J-200000D01*
G01*
X241475000Y-127025000D01*
G75*
G02*
X241275000Y-127225000I-200000J0D01*
G01*
X240725000Y-127225000D01*
G75*
G02*
X240525000Y-127025000I0J200000D01*
G01*
X240525000Y-126625000D01*
G75*
G02*
X240725000Y-126425000I200000J0D01*
G01*
G37*
%TD*%
%TO.C,R15*%
G36*
G01*
X246975000Y-108275000D02*
X246975000Y-107725000D01*
G75*
G02*
X247175000Y-107525000I200000J0D01*
G01*
X247575000Y-107525000D01*
G75*
G02*
X247775000Y-107725000I0J-200000D01*
G01*
X247775000Y-108275000D01*
G75*
G02*
X247575000Y-108475000I-200000J0D01*
G01*
X247175000Y-108475000D01*
G75*
G02*
X246975000Y-108275000I0J200000D01*
G01*
G37*
G36*
G01*
X245325000Y-108275000D02*
X245325000Y-107725000D01*
G75*
G02*
X245525000Y-107525000I200000J0D01*
G01*
X245925000Y-107525000D01*
G75*
G02*
X246125000Y-107725000I0J-200000D01*
G01*
X246125000Y-108275000D01*
G75*
G02*
X245925000Y-108475000I-200000J0D01*
G01*
X245525000Y-108475000D01*
G75*
G02*
X245325000Y-108275000I0J200000D01*
G01*
G37*
%TD*%
%TO.C,R14*%
G36*
G01*
X250475000Y-108275000D02*
X250475000Y-107725000D01*
G75*
G02*
X250675000Y-107525000I200000J0D01*
G01*
X251075000Y-107525000D01*
G75*
G02*
X251275000Y-107725000I0J-200000D01*
G01*
X251275000Y-108275000D01*
G75*
G02*
X251075000Y-108475000I-200000J0D01*
G01*
X250675000Y-108475000D01*
G75*
G02*
X250475000Y-108275000I0J200000D01*
G01*
G37*
G36*
G01*
X248825000Y-108275000D02*
X248825000Y-107725000D01*
G75*
G02*
X249025000Y-107525000I200000J0D01*
G01*
X249425000Y-107525000D01*
G75*
G02*
X249625000Y-107725000I0J-200000D01*
G01*
X249625000Y-108275000D01*
G75*
G02*
X249425000Y-108475000I-200000J0D01*
G01*
X249025000Y-108475000D01*
G75*
G02*
X248825000Y-108275000I0J200000D01*
G01*
G37*
%TD*%
%TO.C,R13*%
G36*
G01*
X246975000Y-110275000D02*
X246975000Y-109725000D01*
G75*
G02*
X247175000Y-109525000I200000J0D01*
G01*
X247575000Y-109525000D01*
G75*
G02*
X247775000Y-109725000I0J-200000D01*
G01*
X247775000Y-110275000D01*
G75*
G02*
X247575000Y-110475000I-200000J0D01*
G01*
X247175000Y-110475000D01*
G75*
G02*
X246975000Y-110275000I0J200000D01*
G01*
G37*
G36*
G01*
X245325000Y-110275000D02*
X245325000Y-109725000D01*
G75*
G02*
X245525000Y-109525000I200000J0D01*
G01*
X245925000Y-109525000D01*
G75*
G02*
X246125000Y-109725000I0J-200000D01*
G01*
X246125000Y-110275000D01*
G75*
G02*
X245925000Y-110475000I-200000J0D01*
G01*
X245525000Y-110475000D01*
G75*
G02*
X245325000Y-110275000I0J200000D01*
G01*
G37*
%TD*%
%TO.C,R12*%
G36*
G01*
X253325000Y-125025000D02*
X253875000Y-125025000D01*
G75*
G02*
X254075000Y-125225000I0J-200000D01*
G01*
X254075000Y-125625000D01*
G75*
G02*
X253875000Y-125825000I-200000J0D01*
G01*
X253325000Y-125825000D01*
G75*
G02*
X253125000Y-125625000I0J200000D01*
G01*
X253125000Y-125225000D01*
G75*
G02*
X253325000Y-125025000I200000J0D01*
G01*
G37*
G36*
G01*
X253325000Y-123375000D02*
X253875000Y-123375000D01*
G75*
G02*
X254075000Y-123575000I0J-200000D01*
G01*
X254075000Y-123975000D01*
G75*
G02*
X253875000Y-124175000I-200000J0D01*
G01*
X253325000Y-124175000D01*
G75*
G02*
X253125000Y-123975000I0J200000D01*
G01*
X253125000Y-123575000D01*
G75*
G02*
X253325000Y-123375000I200000J0D01*
G01*
G37*
%TD*%
%TO.C,R11*%
G36*
G01*
X267325000Y-135350000D02*
X270175000Y-135350000D01*
G75*
G02*
X270425000Y-135600000I0J-250000D01*
G01*
X270425000Y-136325000D01*
G75*
G02*
X270175000Y-136575000I-250000J0D01*
G01*
X267325000Y-136575000D01*
G75*
G02*
X267075000Y-136325000I0J250000D01*
G01*
X267075000Y-135600000D01*
G75*
G02*
X267325000Y-135350000I250000J0D01*
G01*
G37*
G36*
G01*
X267325000Y-129425000D02*
X270175000Y-129425000D01*
G75*
G02*
X270425000Y-129675000I0J-250000D01*
G01*
X270425000Y-130400000D01*
G75*
G02*
X270175000Y-130650000I-250000J0D01*
G01*
X267325000Y-130650000D01*
G75*
G02*
X267075000Y-130400000I0J250000D01*
G01*
X267075000Y-129675000D01*
G75*
G02*
X267325000Y-129425000I250000J0D01*
G01*
G37*
%TD*%
%TO.C,R10*%
G36*
G01*
X256325000Y-137725000D02*
X256325000Y-138275000D01*
G75*
G02*
X256125000Y-138475000I-200000J0D01*
G01*
X255725000Y-138475000D01*
G75*
G02*
X255525000Y-138275000I0J200000D01*
G01*
X255525000Y-137725000D01*
G75*
G02*
X255725000Y-137525000I200000J0D01*
G01*
X256125000Y-137525000D01*
G75*
G02*
X256325000Y-137725000I0J-200000D01*
G01*
G37*
G36*
G01*
X257975000Y-137725000D02*
X257975000Y-138275000D01*
G75*
G02*
X257775000Y-138475000I-200000J0D01*
G01*
X257375000Y-138475000D01*
G75*
G02*
X257175000Y-138275000I0J200000D01*
G01*
X257175000Y-137725000D01*
G75*
G02*
X257375000Y-137525000I200000J0D01*
G01*
X257775000Y-137525000D01*
G75*
G02*
X257975000Y-137725000I0J-200000D01*
G01*
G37*
%TD*%
%TO.C,R9*%
G36*
G01*
X256325000Y-127725000D02*
X256325000Y-128275000D01*
G75*
G02*
X256125000Y-128475000I-200000J0D01*
G01*
X255725000Y-128475000D01*
G75*
G02*
X255525000Y-128275000I0J200000D01*
G01*
X255525000Y-127725000D01*
G75*
G02*
X255725000Y-127525000I200000J0D01*
G01*
X256125000Y-127525000D01*
G75*
G02*
X256325000Y-127725000I0J-200000D01*
G01*
G37*
G36*
G01*
X257975000Y-127725000D02*
X257975000Y-128275000D01*
G75*
G02*
X257775000Y-128475000I-200000J0D01*
G01*
X257375000Y-128475000D01*
G75*
G02*
X257175000Y-128275000I0J200000D01*
G01*
X257175000Y-127725000D01*
G75*
G02*
X257375000Y-127525000I200000J0D01*
G01*
X257775000Y-127525000D01*
G75*
G02*
X257975000Y-127725000I0J-200000D01*
G01*
G37*
%TD*%
%TO.C,R8*%
G36*
G01*
X253325000Y-121425000D02*
X253875000Y-121425000D01*
G75*
G02*
X254075000Y-121625000I0J-200000D01*
G01*
X254075000Y-122025000D01*
G75*
G02*
X253875000Y-122225000I-200000J0D01*
G01*
X253325000Y-122225000D01*
G75*
G02*
X253125000Y-122025000I0J200000D01*
G01*
X253125000Y-121625000D01*
G75*
G02*
X253325000Y-121425000I200000J0D01*
G01*
G37*
G36*
G01*
X253325000Y-119775000D02*
X253875000Y-119775000D01*
G75*
G02*
X254075000Y-119975000I0J-200000D01*
G01*
X254075000Y-120375000D01*
G75*
G02*
X253875000Y-120575000I-200000J0D01*
G01*
X253325000Y-120575000D01*
G75*
G02*
X253125000Y-120375000I0J200000D01*
G01*
X253125000Y-119975000D01*
G75*
G02*
X253325000Y-119775000I200000J0D01*
G01*
G37*
%TD*%
%TO.C,R7*%
G36*
G01*
X267325000Y-123350000D02*
X270175000Y-123350000D01*
G75*
G02*
X270425000Y-123600000I0J-250000D01*
G01*
X270425000Y-124325000D01*
G75*
G02*
X270175000Y-124575000I-250000J0D01*
G01*
X267325000Y-124575000D01*
G75*
G02*
X267075000Y-124325000I0J250000D01*
G01*
X267075000Y-123600000D01*
G75*
G02*
X267325000Y-123350000I250000J0D01*
G01*
G37*
G36*
G01*
X267325000Y-117425000D02*
X270175000Y-117425000D01*
G75*
G02*
X270425000Y-117675000I0J-250000D01*
G01*
X270425000Y-118400000D01*
G75*
G02*
X270175000Y-118650000I-250000J0D01*
G01*
X267325000Y-118650000D01*
G75*
G02*
X267075000Y-118400000I0J250000D01*
G01*
X267075000Y-117675000D01*
G75*
G02*
X267325000Y-117425000I250000J0D01*
G01*
G37*
%TD*%
%TO.C,R6*%
G36*
G01*
X256325000Y-125725000D02*
X256325000Y-126275000D01*
G75*
G02*
X256125000Y-126475000I-200000J0D01*
G01*
X255725000Y-126475000D01*
G75*
G02*
X255525000Y-126275000I0J200000D01*
G01*
X255525000Y-125725000D01*
G75*
G02*
X255725000Y-125525000I200000J0D01*
G01*
X256125000Y-125525000D01*
G75*
G02*
X256325000Y-125725000I0J-200000D01*
G01*
G37*
G36*
G01*
X257975000Y-125725000D02*
X257975000Y-126275000D01*
G75*
G02*
X257775000Y-126475000I-200000J0D01*
G01*
X257375000Y-126475000D01*
G75*
G02*
X257175000Y-126275000I0J200000D01*
G01*
X257175000Y-125725000D01*
G75*
G02*
X257375000Y-125525000I200000J0D01*
G01*
X257775000Y-125525000D01*
G75*
G02*
X257975000Y-125725000I0J-200000D01*
G01*
G37*
%TD*%
%TO.C,R5*%
G36*
G01*
X256325000Y-115725000D02*
X256325000Y-116275000D01*
G75*
G02*
X256125000Y-116475000I-200000J0D01*
G01*
X255725000Y-116475000D01*
G75*
G02*
X255525000Y-116275000I0J200000D01*
G01*
X255525000Y-115725000D01*
G75*
G02*
X255725000Y-115525000I200000J0D01*
G01*
X256125000Y-115525000D01*
G75*
G02*
X256325000Y-115725000I0J-200000D01*
G01*
G37*
G36*
G01*
X257975000Y-115725000D02*
X257975000Y-116275000D01*
G75*
G02*
X257775000Y-116475000I-200000J0D01*
G01*
X257375000Y-116475000D01*
G75*
G02*
X257175000Y-116275000I0J200000D01*
G01*
X257175000Y-115725000D01*
G75*
G02*
X257375000Y-115525000I200000J0D01*
G01*
X257775000Y-115525000D01*
G75*
G02*
X257975000Y-115725000I0J-200000D01*
G01*
G37*
%TD*%
%TO.C,R4*%
G36*
G01*
X253325000Y-114175000D02*
X253875000Y-114175000D01*
G75*
G02*
X254075000Y-114375000I0J-200000D01*
G01*
X254075000Y-114775000D01*
G75*
G02*
X253875000Y-114975000I-200000J0D01*
G01*
X253325000Y-114975000D01*
G75*
G02*
X253125000Y-114775000I0J200000D01*
G01*
X253125000Y-114375000D01*
G75*
G02*
X253325000Y-114175000I200000J0D01*
G01*
G37*
G36*
G01*
X253325000Y-112525000D02*
X253875000Y-112525000D01*
G75*
G02*
X254075000Y-112725000I0J-200000D01*
G01*
X254075000Y-113125000D01*
G75*
G02*
X253875000Y-113325000I-200000J0D01*
G01*
X253325000Y-113325000D01*
G75*
G02*
X253125000Y-113125000I0J200000D01*
G01*
X253125000Y-112725000D01*
G75*
G02*
X253325000Y-112525000I200000J0D01*
G01*
G37*
%TD*%
%TO.C,R3*%
G36*
G01*
X267325000Y-111350000D02*
X270175000Y-111350000D01*
G75*
G02*
X270425000Y-111600000I0J-250000D01*
G01*
X270425000Y-112325000D01*
G75*
G02*
X270175000Y-112575000I-250000J0D01*
G01*
X267325000Y-112575000D01*
G75*
G02*
X267075000Y-112325000I0J250000D01*
G01*
X267075000Y-111600000D01*
G75*
G02*
X267325000Y-111350000I250000J0D01*
G01*
G37*
G36*
G01*
X267325000Y-105425000D02*
X270175000Y-105425000D01*
G75*
G02*
X270425000Y-105675000I0J-250000D01*
G01*
X270425000Y-106400000D01*
G75*
G02*
X270175000Y-106650000I-250000J0D01*
G01*
X267325000Y-106650000D01*
G75*
G02*
X267075000Y-106400000I0J250000D01*
G01*
X267075000Y-105675000D01*
G75*
G02*
X267325000Y-105425000I250000J0D01*
G01*
G37*
%TD*%
%TO.C,R2*%
G36*
G01*
X256325000Y-113725000D02*
X256325000Y-114275000D01*
G75*
G02*
X256125000Y-114475000I-200000J0D01*
G01*
X255725000Y-114475000D01*
G75*
G02*
X255525000Y-114275000I0J200000D01*
G01*
X255525000Y-113725000D01*
G75*
G02*
X255725000Y-113525000I200000J0D01*
G01*
X256125000Y-113525000D01*
G75*
G02*
X256325000Y-113725000I0J-200000D01*
G01*
G37*
G36*
G01*
X257975000Y-113725000D02*
X257975000Y-114275000D01*
G75*
G02*
X257775000Y-114475000I-200000J0D01*
G01*
X257375000Y-114475000D01*
G75*
G02*
X257175000Y-114275000I0J200000D01*
G01*
X257175000Y-113725000D01*
G75*
G02*
X257375000Y-113525000I200000J0D01*
G01*
X257775000Y-113525000D01*
G75*
G02*
X257975000Y-113725000I0J-200000D01*
G01*
G37*
%TD*%
%TO.C,R1*%
G36*
G01*
X256325000Y-103725000D02*
X256325000Y-104275000D01*
G75*
G02*
X256125000Y-104475000I-200000J0D01*
G01*
X255725000Y-104475000D01*
G75*
G02*
X255525000Y-104275000I0J200000D01*
G01*
X255525000Y-103725000D01*
G75*
G02*
X255725000Y-103525000I200000J0D01*
G01*
X256125000Y-103525000D01*
G75*
G02*
X256325000Y-103725000I0J-200000D01*
G01*
G37*
G36*
G01*
X257975000Y-103725000D02*
X257975000Y-104275000D01*
G75*
G02*
X257775000Y-104475000I-200000J0D01*
G01*
X257375000Y-104475000D01*
G75*
G02*
X257175000Y-104275000I0J200000D01*
G01*
X257175000Y-103725000D01*
G75*
G02*
X257375000Y-103525000I200000J0D01*
G01*
X257775000Y-103525000D01*
G75*
G02*
X257975000Y-103725000I0J-200000D01*
G01*
G37*
%TD*%
D28*
%TO.C,Q6*%
G36*
X266075000Y-134395000D02*
G01*
X265275000Y-134395000D01*
X265275000Y-135065000D01*
X266075000Y-135065000D01*
X266075000Y-135665000D01*
X265275000Y-135665000D01*
X265275000Y-136335000D01*
X266075000Y-136335000D01*
X266075000Y-136935000D01*
X265275000Y-136935000D01*
X265275000Y-137605000D01*
X266075000Y-137605000D01*
X266075000Y-138205000D01*
X261525000Y-138205000D01*
X261525000Y-133795000D01*
X266075000Y-133795000D01*
X266075000Y-134395000D01*
G37*
D29*
X259850000Y-137905000D03*
X259850000Y-136635000D03*
X259850000Y-135365000D03*
X259850000Y-134095000D03*
%TD*%
D28*
%TO.C,Q5*%
G36*
X259425000Y-131605000D02*
G01*
X260225000Y-131605000D01*
X260225000Y-130935000D01*
X259425000Y-130935000D01*
X259425000Y-130335000D01*
X260225000Y-130335000D01*
X260225000Y-129665000D01*
X259425000Y-129665000D01*
X259425000Y-129065000D01*
X260225000Y-129065000D01*
X260225000Y-128395000D01*
X259425000Y-128395000D01*
X259425000Y-127795000D01*
X263975000Y-127795000D01*
X263975000Y-132205000D01*
X259425000Y-132205000D01*
X259425000Y-131605000D01*
G37*
D29*
X265650000Y-128095000D03*
X265650000Y-129365000D03*
X265650000Y-130635000D03*
X265650000Y-131905000D03*
%TD*%
D28*
%TO.C,Q4*%
G36*
X266075000Y-122395000D02*
G01*
X265275000Y-122395000D01*
X265275000Y-123065000D01*
X266075000Y-123065000D01*
X266075000Y-123665000D01*
X265275000Y-123665000D01*
X265275000Y-124335000D01*
X266075000Y-124335000D01*
X266075000Y-124935000D01*
X265275000Y-124935000D01*
X265275000Y-125605000D01*
X266075000Y-125605000D01*
X266075000Y-126205000D01*
X261525000Y-126205000D01*
X261525000Y-121795000D01*
X266075000Y-121795000D01*
X266075000Y-122395000D01*
G37*
D29*
X259850000Y-125905000D03*
X259850000Y-124635000D03*
X259850000Y-123365000D03*
X259850000Y-122095000D03*
%TD*%
D28*
%TO.C,Q3*%
G36*
X259425000Y-119605000D02*
G01*
X260225000Y-119605000D01*
X260225000Y-118935000D01*
X259425000Y-118935000D01*
X259425000Y-118335000D01*
X260225000Y-118335000D01*
X260225000Y-117665000D01*
X259425000Y-117665000D01*
X259425000Y-117065000D01*
X260225000Y-117065000D01*
X260225000Y-116395000D01*
X259425000Y-116395000D01*
X259425000Y-115795000D01*
X263975000Y-115795000D01*
X263975000Y-120205000D01*
X259425000Y-120205000D01*
X259425000Y-119605000D01*
G37*
D29*
X265650000Y-116095000D03*
X265650000Y-117365000D03*
X265650000Y-118635000D03*
X265650000Y-119905000D03*
%TD*%
D28*
%TO.C,Q2*%
G36*
X266075000Y-110395000D02*
G01*
X265275000Y-110395000D01*
X265275000Y-111065000D01*
X266075000Y-111065000D01*
X266075000Y-111665000D01*
X265275000Y-111665000D01*
X265275000Y-112335000D01*
X266075000Y-112335000D01*
X266075000Y-112935000D01*
X265275000Y-112935000D01*
X265275000Y-113605000D01*
X266075000Y-113605000D01*
X266075000Y-114205000D01*
X261525000Y-114205000D01*
X261525000Y-109795000D01*
X266075000Y-109795000D01*
X266075000Y-110395000D01*
G37*
D29*
X259850000Y-113905000D03*
X259850000Y-112635000D03*
X259850000Y-111365000D03*
X259850000Y-110095000D03*
%TD*%
D28*
%TO.C,Q1*%
G36*
X259425000Y-107605000D02*
G01*
X260225000Y-107605000D01*
X260225000Y-106935000D01*
X259425000Y-106935000D01*
X259425000Y-106335000D01*
X260225000Y-106335000D01*
X260225000Y-105665000D01*
X259425000Y-105665000D01*
X259425000Y-105065000D01*
X260225000Y-105065000D01*
X260225000Y-104395000D01*
X259425000Y-104395000D01*
X259425000Y-103795000D01*
X263975000Y-103795000D01*
X263975000Y-108205000D01*
X259425000Y-108205000D01*
X259425000Y-107605000D01*
G37*
D29*
X265650000Y-104095000D03*
X265650000Y-105365000D03*
X265650000Y-106635000D03*
X265650000Y-107905000D03*
%TD*%
%TO.C,D2*%
G36*
G01*
X238743750Y-128000000D02*
X239256250Y-128000000D01*
G75*
G02*
X239475000Y-128218750I0J-218750D01*
G01*
X239475000Y-128656250D01*
G75*
G02*
X239256250Y-128875000I-218750J0D01*
G01*
X238743750Y-128875000D01*
G75*
G02*
X238525000Y-128656250I0J218750D01*
G01*
X238525000Y-128218750D01*
G75*
G02*
X238743750Y-128000000I218750J0D01*
G01*
G37*
G36*
G01*
X238743750Y-126425000D02*
X239256250Y-126425000D01*
G75*
G02*
X239475000Y-126643750I0J-218750D01*
G01*
X239475000Y-127081250D01*
G75*
G02*
X239256250Y-127300000I-218750J0D01*
G01*
X238743750Y-127300000D01*
G75*
G02*
X238525000Y-127081250I0J218750D01*
G01*
X238525000Y-126643750D01*
G75*
G02*
X238743750Y-126425000I218750J0D01*
G01*
G37*
%TD*%
%TO.C,C26*%
G36*
G01*
X269125000Y-128250000D02*
X269125000Y-127750000D01*
G75*
G02*
X269350000Y-127525000I225000J0D01*
G01*
X269800000Y-127525000D01*
G75*
G02*
X270025000Y-127750000I0J-225000D01*
G01*
X270025000Y-128250000D01*
G75*
G02*
X269800000Y-128475000I-225000J0D01*
G01*
X269350000Y-128475000D01*
G75*
G02*
X269125000Y-128250000I0J225000D01*
G01*
G37*
G36*
G01*
X267575000Y-128250000D02*
X267575000Y-127750000D01*
G75*
G02*
X267800000Y-127525000I225000J0D01*
G01*
X268250000Y-127525000D01*
G75*
G02*
X268475000Y-127750000I0J-225000D01*
G01*
X268475000Y-128250000D01*
G75*
G02*
X268250000Y-128475000I-225000J0D01*
G01*
X267800000Y-128475000D01*
G75*
G02*
X267575000Y-128250000I0J225000D01*
G01*
G37*
%TD*%
%TO.C,C25*%
G36*
G01*
X269075000Y-116250000D02*
X269075000Y-115750000D01*
G75*
G02*
X269300000Y-115525000I225000J0D01*
G01*
X269750000Y-115525000D01*
G75*
G02*
X269975000Y-115750000I0J-225000D01*
G01*
X269975000Y-116250000D01*
G75*
G02*
X269750000Y-116475000I-225000J0D01*
G01*
X269300000Y-116475000D01*
G75*
G02*
X269075000Y-116250000I0J225000D01*
G01*
G37*
G36*
G01*
X267525000Y-116250000D02*
X267525000Y-115750000D01*
G75*
G02*
X267750000Y-115525000I225000J0D01*
G01*
X268200000Y-115525000D01*
G75*
G02*
X268425000Y-115750000I0J-225000D01*
G01*
X268425000Y-116250000D01*
G75*
G02*
X268200000Y-116475000I-225000J0D01*
G01*
X267750000Y-116475000D01*
G75*
G02*
X267525000Y-116250000I0J225000D01*
G01*
G37*
%TD*%
%TO.C,C24*%
G36*
G01*
X269075000Y-104250000D02*
X269075000Y-103750000D01*
G75*
G02*
X269300000Y-103525000I225000J0D01*
G01*
X269750000Y-103525000D01*
G75*
G02*
X269975000Y-103750000I0J-225000D01*
G01*
X269975000Y-104250000D01*
G75*
G02*
X269750000Y-104475000I-225000J0D01*
G01*
X269300000Y-104475000D01*
G75*
G02*
X269075000Y-104250000I0J225000D01*
G01*
G37*
G36*
G01*
X267525000Y-104250000D02*
X267525000Y-103750000D01*
G75*
G02*
X267750000Y-103525000I225000J0D01*
G01*
X268200000Y-103525000D01*
G75*
G02*
X268425000Y-103750000I0J-225000D01*
G01*
X268425000Y-104250000D01*
G75*
G02*
X268200000Y-104475000I-225000J0D01*
G01*
X267750000Y-104475000D01*
G75*
G02*
X267525000Y-104250000I0J225000D01*
G01*
G37*
%TD*%
D30*
%TO.C,C23*%
X238000000Y-103327856D03*
D31*
X234000000Y-109672144D03*
D30*
X236000000Y-104000000D03*
D31*
X236000000Y-109000000D03*
%TD*%
D30*
%TO.C,C22*%
X234000000Y-138672144D03*
D31*
X238000000Y-132327856D03*
D30*
X236000000Y-138000000D03*
D31*
X236000000Y-133000000D03*
%TD*%
%TO.C,C14*%
G36*
G01*
X249450000Y-131225000D02*
X249450000Y-130275000D01*
G75*
G02*
X249700000Y-130025000I250000J0D01*
G01*
X250200000Y-130025000D01*
G75*
G02*
X250450000Y-130275000I0J-250000D01*
G01*
X250450000Y-131225000D01*
G75*
G02*
X250200000Y-131475000I-250000J0D01*
G01*
X249700000Y-131475000D01*
G75*
G02*
X249450000Y-131225000I0J250000D01*
G01*
G37*
G36*
G01*
X247550000Y-131225000D02*
X247550000Y-130275000D01*
G75*
G02*
X247800000Y-130025000I250000J0D01*
G01*
X248300000Y-130025000D01*
G75*
G02*
X248550000Y-130275000I0J-250000D01*
G01*
X248550000Y-131225000D01*
G75*
G02*
X248300000Y-131475000I-250000J0D01*
G01*
X247800000Y-131475000D01*
G75*
G02*
X247550000Y-131225000I0J250000D01*
G01*
G37*
%TD*%
%TO.C,C13*%
G36*
G01*
X241550000Y-130275000D02*
X241550000Y-131225000D01*
G75*
G02*
X241300000Y-131475000I-250000J0D01*
G01*
X240800000Y-131475000D01*
G75*
G02*
X240550000Y-131225000I0J250000D01*
G01*
X240550000Y-130275000D01*
G75*
G02*
X240800000Y-130025000I250000J0D01*
G01*
X241300000Y-130025000D01*
G75*
G02*
X241550000Y-130275000I0J-250000D01*
G01*
G37*
G36*
G01*
X243450000Y-130275000D02*
X243450000Y-131225000D01*
G75*
G02*
X243200000Y-131475000I-250000J0D01*
G01*
X242700000Y-131475000D01*
G75*
G02*
X242450000Y-131225000I0J250000D01*
G01*
X242450000Y-130275000D01*
G75*
G02*
X242700000Y-130025000I250000J0D01*
G01*
X243200000Y-130025000D01*
G75*
G02*
X243450000Y-130275000I0J-250000D01*
G01*
G37*
%TD*%
%TO.C,C12*%
G36*
G01*
X248550000Y-127775000D02*
X248550000Y-128725000D01*
G75*
G02*
X248300000Y-128975000I-250000J0D01*
G01*
X247800000Y-128975000D01*
G75*
G02*
X247550000Y-128725000I0J250000D01*
G01*
X247550000Y-127775000D01*
G75*
G02*
X247800000Y-127525000I250000J0D01*
G01*
X248300000Y-127525000D01*
G75*
G02*
X248550000Y-127775000I0J-250000D01*
G01*
G37*
G36*
G01*
X250450000Y-127775000D02*
X250450000Y-128725000D01*
G75*
G02*
X250200000Y-128975000I-250000J0D01*
G01*
X249700000Y-128975000D01*
G75*
G02*
X249450000Y-128725000I0J250000D01*
G01*
X249450000Y-127775000D01*
G75*
G02*
X249700000Y-127525000I250000J0D01*
G01*
X250200000Y-127525000D01*
G75*
G02*
X250450000Y-127775000I0J-250000D01*
G01*
G37*
%TD*%
%TO.C,C11*%
G36*
G01*
X245925000Y-128500000D02*
X245925000Y-128000000D01*
G75*
G02*
X246150000Y-127775000I225000J0D01*
G01*
X246600000Y-127775000D01*
G75*
G02*
X246825000Y-128000000I0J-225000D01*
G01*
X246825000Y-128500000D01*
G75*
G02*
X246600000Y-128725000I-225000J0D01*
G01*
X246150000Y-128725000D01*
G75*
G02*
X245925000Y-128500000I0J225000D01*
G01*
G37*
G36*
G01*
X244375000Y-128500000D02*
X244375000Y-128000000D01*
G75*
G02*
X244600000Y-127775000I225000J0D01*
G01*
X245050000Y-127775000D01*
G75*
G02*
X245275000Y-128000000I0J-225000D01*
G01*
X245275000Y-128500000D01*
G75*
G02*
X245050000Y-128725000I-225000J0D01*
G01*
X244600000Y-128725000D01*
G75*
G02*
X244375000Y-128500000I0J225000D01*
G01*
G37*
%TD*%
%TO.C,C10*%
G36*
G01*
X253350000Y-128325000D02*
X253850000Y-128325000D01*
G75*
G02*
X254075000Y-128550000I0J-225000D01*
G01*
X254075000Y-129000000D01*
G75*
G02*
X253850000Y-129225000I-225000J0D01*
G01*
X253350000Y-129225000D01*
G75*
G02*
X253125000Y-129000000I0J225000D01*
G01*
X253125000Y-128550000D01*
G75*
G02*
X253350000Y-128325000I225000J0D01*
G01*
G37*
G36*
G01*
X253350000Y-126775000D02*
X253850000Y-126775000D01*
G75*
G02*
X254075000Y-127000000I0J-225000D01*
G01*
X254075000Y-127450000D01*
G75*
G02*
X253850000Y-127675000I-225000J0D01*
G01*
X253350000Y-127675000D01*
G75*
G02*
X253125000Y-127450000I0J225000D01*
G01*
X253125000Y-127000000D01*
G75*
G02*
X253350000Y-126775000I225000J0D01*
G01*
G37*
%TD*%
%TO.C,C9*%
G36*
G01*
X253850000Y-116925000D02*
X253350000Y-116925000D01*
G75*
G02*
X253125000Y-116700000I0J225000D01*
G01*
X253125000Y-116250000D01*
G75*
G02*
X253350000Y-116025000I225000J0D01*
G01*
X253850000Y-116025000D01*
G75*
G02*
X254075000Y-116250000I0J-225000D01*
G01*
X254075000Y-116700000D01*
G75*
G02*
X253850000Y-116925000I-225000J0D01*
G01*
G37*
G36*
G01*
X253850000Y-118475000D02*
X253350000Y-118475000D01*
G75*
G02*
X253125000Y-118250000I0J225000D01*
G01*
X253125000Y-117800000D01*
G75*
G02*
X253350000Y-117575000I225000J0D01*
G01*
X253850000Y-117575000D01*
G75*
G02*
X254075000Y-117800000I0J-225000D01*
G01*
X254075000Y-118250000D01*
G75*
G02*
X253850000Y-118475000I-225000J0D01*
G01*
G37*
%TD*%
%TO.C,C8*%
G36*
G01*
X253850000Y-109925000D02*
X253350000Y-109925000D01*
G75*
G02*
X253125000Y-109700000I0J225000D01*
G01*
X253125000Y-109250000D01*
G75*
G02*
X253350000Y-109025000I225000J0D01*
G01*
X253850000Y-109025000D01*
G75*
G02*
X254075000Y-109250000I0J-225000D01*
G01*
X254075000Y-109700000D01*
G75*
G02*
X253850000Y-109925000I-225000J0D01*
G01*
G37*
G36*
G01*
X253850000Y-111475000D02*
X253350000Y-111475000D01*
G75*
G02*
X253125000Y-111250000I0J225000D01*
G01*
X253125000Y-110800000D01*
G75*
G02*
X253350000Y-110575000I225000J0D01*
G01*
X253850000Y-110575000D01*
G75*
G02*
X254075000Y-110800000I0J-225000D01*
G01*
X254075000Y-111250000D01*
G75*
G02*
X253850000Y-111475000I-225000J0D01*
G01*
G37*
%TD*%
%TO.C,C7*%
G36*
G01*
X239250000Y-119675000D02*
X238750000Y-119675000D01*
G75*
G02*
X238525000Y-119450000I0J225000D01*
G01*
X238525000Y-119000000D01*
G75*
G02*
X238750000Y-118775000I225000J0D01*
G01*
X239250000Y-118775000D01*
G75*
G02*
X239475000Y-119000000I0J-225000D01*
G01*
X239475000Y-119450000D01*
G75*
G02*
X239250000Y-119675000I-225000J0D01*
G01*
G37*
G36*
G01*
X239250000Y-121225000D02*
X238750000Y-121225000D01*
G75*
G02*
X238525000Y-121000000I0J225000D01*
G01*
X238525000Y-120550000D01*
G75*
G02*
X238750000Y-120325000I225000J0D01*
G01*
X239250000Y-120325000D01*
G75*
G02*
X239475000Y-120550000I0J-225000D01*
G01*
X239475000Y-121000000D01*
G75*
G02*
X239250000Y-121225000I-225000J0D01*
G01*
G37*
%TD*%
%TO.C,C6*%
G36*
G01*
X250375000Y-110250000D02*
X250375000Y-109750000D01*
G75*
G02*
X250600000Y-109525000I225000J0D01*
G01*
X251050000Y-109525000D01*
G75*
G02*
X251275000Y-109750000I0J-225000D01*
G01*
X251275000Y-110250000D01*
G75*
G02*
X251050000Y-110475000I-225000J0D01*
G01*
X250600000Y-110475000D01*
G75*
G02*
X250375000Y-110250000I0J225000D01*
G01*
G37*
G36*
G01*
X248825000Y-110250000D02*
X248825000Y-109750000D01*
G75*
G02*
X249050000Y-109525000I225000J0D01*
G01*
X249500000Y-109525000D01*
G75*
G02*
X249725000Y-109750000I0J-225000D01*
G01*
X249725000Y-110250000D01*
G75*
G02*
X249500000Y-110475000I-225000J0D01*
G01*
X249050000Y-110475000D01*
G75*
G02*
X248825000Y-110250000I0J225000D01*
G01*
G37*
%TD*%
%TO.C,C5*%
G36*
G01*
X249750000Y-111525000D02*
X249750000Y-112475000D01*
G75*
G02*
X249500000Y-112725000I-250000J0D01*
G01*
X249000000Y-112725000D01*
G75*
G02*
X248750000Y-112475000I0J250000D01*
G01*
X248750000Y-111525000D01*
G75*
G02*
X249000000Y-111275000I250000J0D01*
G01*
X249500000Y-111275000D01*
G75*
G02*
X249750000Y-111525000I0J-250000D01*
G01*
G37*
G36*
G01*
X251650000Y-111525000D02*
X251650000Y-112475000D01*
G75*
G02*
X251400000Y-112725000I-250000J0D01*
G01*
X250900000Y-112725000D01*
G75*
G02*
X250650000Y-112475000I0J250000D01*
G01*
X250650000Y-111525000D01*
G75*
G02*
X250900000Y-111275000I250000J0D01*
G01*
X251400000Y-111275000D01*
G75*
G02*
X251650000Y-111525000I0J-250000D01*
G01*
G37*
%TD*%
%TO.C,C4*%
G36*
G01*
X246850000Y-112475000D02*
X246850000Y-111525000D01*
G75*
G02*
X247100000Y-111275000I250000J0D01*
G01*
X247600000Y-111275000D01*
G75*
G02*
X247850000Y-111525000I0J-250000D01*
G01*
X247850000Y-112475000D01*
G75*
G02*
X247600000Y-112725000I-250000J0D01*
G01*
X247100000Y-112725000D01*
G75*
G02*
X246850000Y-112475000I0J250000D01*
G01*
G37*
G36*
G01*
X244950000Y-112475000D02*
X244950000Y-111525000D01*
G75*
G02*
X245200000Y-111275000I250000J0D01*
G01*
X245700000Y-111275000D01*
G75*
G02*
X245950000Y-111525000I0J-250000D01*
G01*
X245950000Y-112475000D01*
G75*
G02*
X245700000Y-112725000I-250000J0D01*
G01*
X245200000Y-112725000D01*
G75*
G02*
X244950000Y-112475000I0J250000D01*
G01*
G37*
%TD*%
%TO.C,C3*%
G36*
G01*
X256099999Y-133900000D02*
X257400001Y-133900000D01*
G75*
G02*
X257650000Y-134149999I0J-249999D01*
G01*
X257650000Y-134800001D01*
G75*
G02*
X257400001Y-135050000I-249999J0D01*
G01*
X256099999Y-135050000D01*
G75*
G02*
X255850000Y-134800001I0J249999D01*
G01*
X255850000Y-134149999D01*
G75*
G02*
X256099999Y-133900000I249999J0D01*
G01*
G37*
G36*
G01*
X256099999Y-130950000D02*
X257400001Y-130950000D01*
G75*
G02*
X257650000Y-131199999I0J-249999D01*
G01*
X257650000Y-131850001D01*
G75*
G02*
X257400001Y-132100000I-249999J0D01*
G01*
X256099999Y-132100000D01*
G75*
G02*
X255850000Y-131850001I0J249999D01*
G01*
X255850000Y-131199999D01*
G75*
G02*
X256099999Y-130950000I249999J0D01*
G01*
G37*
%TD*%
%TO.C,C2*%
G36*
G01*
X256099999Y-121900000D02*
X257400001Y-121900000D01*
G75*
G02*
X257650000Y-122149999I0J-249999D01*
G01*
X257650000Y-122800001D01*
G75*
G02*
X257400001Y-123050000I-249999J0D01*
G01*
X256099999Y-123050000D01*
G75*
G02*
X255850000Y-122800001I0J249999D01*
G01*
X255850000Y-122149999D01*
G75*
G02*
X256099999Y-121900000I249999J0D01*
G01*
G37*
G36*
G01*
X256099999Y-118950000D02*
X257400001Y-118950000D01*
G75*
G02*
X257650000Y-119199999I0J-249999D01*
G01*
X257650000Y-119850001D01*
G75*
G02*
X257400001Y-120100000I-249999J0D01*
G01*
X256099999Y-120100000D01*
G75*
G02*
X255850000Y-119850001I0J249999D01*
G01*
X255850000Y-119199999D01*
G75*
G02*
X256099999Y-118950000I249999J0D01*
G01*
G37*
%TD*%
%TO.C,C1*%
G36*
G01*
X256099999Y-109900000D02*
X257400001Y-109900000D01*
G75*
G02*
X257650000Y-110149999I0J-249999D01*
G01*
X257650000Y-110800001D01*
G75*
G02*
X257400001Y-111050000I-249999J0D01*
G01*
X256099999Y-111050000D01*
G75*
G02*
X255850000Y-110800001I0J249999D01*
G01*
X255850000Y-110149999D01*
G75*
G02*
X256099999Y-109900000I249999J0D01*
G01*
G37*
G36*
G01*
X256099999Y-106950000D02*
X257400001Y-106950000D01*
G75*
G02*
X257650000Y-107199999I0J-249999D01*
G01*
X257650000Y-107850001D01*
G75*
G02*
X257400001Y-108100000I-249999J0D01*
G01*
X256099999Y-108100000D01*
G75*
G02*
X255850000Y-107850001I0J249999D01*
G01*
X255850000Y-107199999D01*
G75*
G02*
X256099999Y-106950000I249999J0D01*
G01*
G37*
%TD*%
M02*
