%TF.GenerationSoftware,KiCad,Pcbnew,(5.1.10)-1*%
%TF.CreationDate,2021-11-06T00:48:36+01:00*%
%TF.ProjectId,xESC,78455343-2e6b-4696-9361-645f70636258,rev?*%
%TF.SameCoordinates,Original*%
%TF.FileFunction,Soldermask,Bot*%
%TF.FilePolarity,Negative*%
%FSLAX46Y46*%
G04 Gerber Fmt 4.6, Leading zero omitted, Abs format (unit mm)*
G04 Created by KiCad (PCBNEW (5.1.10)-1) date 2021-11-06 00:48:36*
%MOMM*%
%LPD*%
G01*
G04 APERTURE LIST*
%ADD10C,0.100000*%
%ADD11R,1.560000X0.650000*%
%ADD12R,0.900000X0.800000*%
%ADD13R,1.500000X1.500000*%
%ADD14C,3.800000*%
%ADD15O,1.700000X1.700000*%
%ADD16R,1.700000X1.700000*%
%ADD17R,1.600000X1.600000*%
%ADD18C,1.600000*%
%ADD19R,0.850000X0.500000*%
G04 APERTURE END LIST*
D10*
G36*
X193008000Y-32925000D02*
G01*
X191484000Y-32925000D01*
X191484020Y-29811540D01*
X193008020Y-29811540D01*
X193008000Y-32925000D01*
G37*
X193008000Y-32925000D02*
X191484000Y-32925000D01*
X191484020Y-29811540D01*
X193008020Y-29811540D01*
X193008000Y-32925000D01*
G36*
X195548000Y-32925000D02*
G01*
X194024000Y-32925000D01*
X194024020Y-29811540D01*
X195548020Y-29811540D01*
X195548000Y-32925000D01*
G37*
X195548000Y-32925000D02*
X194024000Y-32925000D01*
X194024020Y-29811540D01*
X195548020Y-29811540D01*
X195548000Y-32925000D01*
G36*
X198088000Y-32925000D02*
G01*
X196564000Y-32925000D01*
X196564020Y-29811540D01*
X198088020Y-29811540D01*
X198088000Y-32925000D01*
G37*
X198088000Y-32925000D02*
X196564000Y-32925000D01*
X196564020Y-29811540D01*
X198088020Y-29811540D01*
X198088000Y-32925000D01*
G36*
X200628000Y-32925000D02*
G01*
X199104000Y-32925000D01*
X199104020Y-29811540D01*
X200628020Y-29811540D01*
X200628000Y-32925000D01*
G37*
X200628000Y-32925000D02*
X199104000Y-32925000D01*
X199104020Y-29811540D01*
X200628020Y-29811540D01*
X200628000Y-32925000D01*
G36*
X203168000Y-32925000D02*
G01*
X201644000Y-32925000D01*
X201644020Y-29811540D01*
X203168020Y-29811540D01*
X203168000Y-32925000D01*
G37*
X203168000Y-32925000D02*
X201644000Y-32925000D01*
X201644020Y-29811540D01*
X203168020Y-29811540D01*
X203168000Y-32925000D01*
G36*
X205708000Y-32925000D02*
G01*
X204184000Y-32925000D01*
X204184020Y-29811540D01*
X205708020Y-29811540D01*
X205708000Y-32925000D01*
G37*
X205708000Y-32925000D02*
X204184000Y-32925000D01*
X204184020Y-29811540D01*
X205708020Y-29811540D01*
X205708000Y-32925000D01*
G36*
X208248000Y-32925000D02*
G01*
X206724000Y-32925000D01*
X206724020Y-29811540D01*
X208248020Y-29811540D01*
X208248000Y-32925000D01*
G37*
X208248000Y-32925000D02*
X206724000Y-32925000D01*
X206724020Y-29811540D01*
X208248020Y-29811540D01*
X208248000Y-32925000D01*
G36*
X175750000Y-34000000D02*
G01*
X171250000Y-34000000D01*
X171250000Y-30500000D01*
X175750000Y-30500000D01*
X175750000Y-34000000D01*
G37*
X175750000Y-34000000D02*
X171250000Y-34000000D01*
X171250000Y-30500000D01*
X175750000Y-30500000D01*
X175750000Y-34000000D01*
G36*
X175750000Y-59500000D02*
G01*
X171250000Y-59500000D01*
X171250000Y-56000000D01*
X175750000Y-56000000D01*
X175750000Y-59500000D01*
G37*
X175750000Y-59500000D02*
X171250000Y-59500000D01*
X171250000Y-56000000D01*
X175750000Y-56000000D01*
X175750000Y-59500000D01*
G36*
X159500000Y-53250000D02*
G01*
X155750000Y-53250000D01*
X155750000Y-48750000D01*
X159500000Y-48750000D01*
X159500000Y-53250000D01*
G37*
X159500000Y-53250000D02*
X155750000Y-53250000D01*
X155750000Y-48750000D01*
X159500000Y-48750000D01*
X159500000Y-53250000D01*
G36*
X159500000Y-47250000D02*
G01*
X155750000Y-47250000D01*
X155750000Y-42750000D01*
X159500000Y-42750000D01*
X159500000Y-47250000D01*
G37*
X159500000Y-47250000D02*
X155750000Y-47250000D01*
X155750000Y-42750000D01*
X159500000Y-42750000D01*
X159500000Y-47250000D01*
G36*
X166750000Y-59500000D02*
G01*
X162250000Y-59500000D01*
X162250000Y-55250000D01*
X166750000Y-55250000D01*
X166750000Y-59500000D01*
G37*
X166750000Y-59500000D02*
X162250000Y-59500000D01*
X162250000Y-55250000D01*
X166750000Y-55250000D01*
X166750000Y-59500000D01*
G36*
X166750000Y-34750000D02*
G01*
X162250000Y-34750000D01*
X162250000Y-30500000D01*
X166750000Y-30500000D01*
X166750000Y-34750000D01*
G37*
X166750000Y-34750000D02*
X162250000Y-34750000D01*
X162250000Y-30500000D01*
X166750000Y-30500000D01*
X166750000Y-34750000D01*
G36*
X159500000Y-41250000D02*
G01*
X155750000Y-41250000D01*
X155750000Y-36750000D01*
X159500000Y-36750000D01*
X159500000Y-41250000D01*
G37*
X159500000Y-41250000D02*
X155750000Y-41250000D01*
X155750000Y-36750000D01*
X159500000Y-36750000D01*
X159500000Y-41250000D01*
D11*
%TO.C,U3*%
X180551226Y-39000105D03*
X180551226Y-37100105D03*
X177851226Y-37100105D03*
X177851226Y-38050105D03*
X177851226Y-39000105D03*
%TD*%
%TO.C,R20*%
G36*
G01*
X180390001Y-42390000D02*
X179489999Y-42390000D01*
G75*
G02*
X179240000Y-42140001I0J249999D01*
G01*
X179240000Y-41614999D01*
G75*
G02*
X179489999Y-41365000I249999J0D01*
G01*
X180390001Y-41365000D01*
G75*
G02*
X180640000Y-41614999I0J-249999D01*
G01*
X180640000Y-42140001D01*
G75*
G02*
X180390001Y-42390000I-249999J0D01*
G01*
G37*
G36*
G01*
X180390001Y-44215000D02*
X179489999Y-44215000D01*
G75*
G02*
X179240000Y-43965001I0J249999D01*
G01*
X179240000Y-43439999D01*
G75*
G02*
X179489999Y-43190000I249999J0D01*
G01*
X180390001Y-43190000D01*
G75*
G02*
X180640000Y-43439999I0J-249999D01*
G01*
X180640000Y-43965001D01*
G75*
G02*
X180390001Y-44215000I-249999J0D01*
G01*
G37*
%TD*%
%TO.C,R19*%
G36*
G01*
X180390001Y-46800000D02*
X179489999Y-46800000D01*
G75*
G02*
X179240000Y-46550001I0J249999D01*
G01*
X179240000Y-46024999D01*
G75*
G02*
X179489999Y-45775000I249999J0D01*
G01*
X180390001Y-45775000D01*
G75*
G02*
X180640000Y-46024999I0J-249999D01*
G01*
X180640000Y-46550001D01*
G75*
G02*
X180390001Y-46800000I-249999J0D01*
G01*
G37*
G36*
G01*
X180390001Y-48625000D02*
X179489999Y-48625000D01*
G75*
G02*
X179240000Y-48375001I0J249999D01*
G01*
X179240000Y-47849999D01*
G75*
G02*
X179489999Y-47600000I249999J0D01*
G01*
X180390001Y-47600000D01*
G75*
G02*
X180640000Y-47849999I0J-249999D01*
G01*
X180640000Y-48375001D01*
G75*
G02*
X180390001Y-48625000I-249999J0D01*
G01*
G37*
%TD*%
D12*
%TO.C,D3*%
X168100000Y-56600000D03*
X170100000Y-57550000D03*
X170100000Y-55650000D03*
%TD*%
D13*
%TO.C,TP9*%
X194800000Y-32000000D03*
%TD*%
%TO.C,D2*%
G36*
G01*
X188850000Y-34650001D02*
X188850000Y-33749999D01*
G75*
G02*
X189099999Y-33500000I249999J0D01*
G01*
X189750001Y-33500000D01*
G75*
G02*
X190000000Y-33749999I0J-249999D01*
G01*
X190000000Y-34650001D01*
G75*
G02*
X189750001Y-34900000I-249999J0D01*
G01*
X189099999Y-34900000D01*
G75*
G02*
X188850000Y-34650001I0J249999D01*
G01*
G37*
G36*
G01*
X186800000Y-34650001D02*
X186800000Y-33749999D01*
G75*
G02*
X187049999Y-33500000I249999J0D01*
G01*
X187700001Y-33500000D01*
G75*
G02*
X187950000Y-33749999I0J-249999D01*
G01*
X187950000Y-34650001D01*
G75*
G02*
X187700001Y-34900000I-249999J0D01*
G01*
X187049999Y-34900000D01*
G75*
G02*
X186800000Y-34650001I0J249999D01*
G01*
G37*
%TD*%
D14*
%TO.C,H4*%
X158000000Y-57250000D03*
%TD*%
%TO.C,H3*%
X211500000Y-57250000D03*
%TD*%
%TO.C,H2*%
X211500000Y-32750000D03*
%TD*%
%TO.C,H1*%
X158000000Y-32750000D03*
%TD*%
D13*
%TO.C,TP8*%
X197300000Y-32000000D03*
%TD*%
%TO.C,TP6*%
X192200000Y-32000000D03*
%TD*%
%TO.C,TP5*%
X202400000Y-32000000D03*
%TD*%
%TO.C,TP4*%
X199872600Y-31978600D03*
%TD*%
%TO.C,TP3*%
X204965300Y-31978600D03*
%TD*%
D15*
%TO.C,J4*%
X202420000Y-34300000D03*
X204960000Y-34300000D03*
D16*
X207500000Y-34300000D03*
%TD*%
%TO.C,R18*%
G36*
G01*
X199100000Y-37049999D02*
X199100000Y-37950001D01*
G75*
G02*
X198850001Y-38200000I-249999J0D01*
G01*
X198149999Y-38200000D01*
G75*
G02*
X197900000Y-37950001I0J249999D01*
G01*
X197900000Y-37049999D01*
G75*
G02*
X198149999Y-36800000I249999J0D01*
G01*
X198850001Y-36800000D01*
G75*
G02*
X199100000Y-37049999I0J-249999D01*
G01*
G37*
G36*
G01*
X201100000Y-37049999D02*
X201100000Y-37950001D01*
G75*
G02*
X200850001Y-38200000I-249999J0D01*
G01*
X200149999Y-38200000D01*
G75*
G02*
X199900000Y-37950001I0J249999D01*
G01*
X199900000Y-37049999D01*
G75*
G02*
X200149999Y-36800000I249999J0D01*
G01*
X200850001Y-36800000D01*
G75*
G02*
X201100000Y-37049999I0J-249999D01*
G01*
G37*
%TD*%
%TO.C,R17*%
G36*
G01*
X199100000Y-39549999D02*
X199100000Y-40450001D01*
G75*
G02*
X198850001Y-40700000I-249999J0D01*
G01*
X198149999Y-40700000D01*
G75*
G02*
X197900000Y-40450001I0J249999D01*
G01*
X197900000Y-39549999D01*
G75*
G02*
X198149999Y-39300000I249999J0D01*
G01*
X198850001Y-39300000D01*
G75*
G02*
X199100000Y-39549999I0J-249999D01*
G01*
G37*
G36*
G01*
X201100000Y-39549999D02*
X201100000Y-40450001D01*
G75*
G02*
X200850001Y-40700000I-249999J0D01*
G01*
X200149999Y-40700000D01*
G75*
G02*
X199900000Y-40450001I0J249999D01*
G01*
X199900000Y-39549999D01*
G75*
G02*
X200149999Y-39300000I249999J0D01*
G01*
X200850001Y-39300000D01*
G75*
G02*
X201100000Y-39549999I0J-249999D01*
G01*
G37*
%TD*%
D15*
%TO.C,J3*%
X208600000Y-37390000D03*
X206060000Y-37390000D03*
D16*
X203520000Y-37390000D03*
%TD*%
D15*
%TO.C,J2*%
X208600000Y-39930000D03*
X206060000Y-39930000D03*
D16*
X203520000Y-39930000D03*
%TD*%
D15*
%TO.C,J1*%
X208600000Y-42470000D03*
X208600000Y-45010000D03*
X208600000Y-47550000D03*
X208600000Y-50090000D03*
D16*
X208600000Y-52630000D03*
%TD*%
D17*
%TO.C,C10*%
X171500000Y-49500000D03*
D18*
X175000000Y-49500000D03*
%TD*%
%TO.C,R13*%
G36*
G01*
X205549998Y-45975000D02*
X206450002Y-45975000D01*
G75*
G02*
X206700000Y-46224998I0J-249998D01*
G01*
X206700000Y-46750002D01*
G75*
G02*
X206450002Y-47000000I-249998J0D01*
G01*
X205549998Y-47000000D01*
G75*
G02*
X205300000Y-46750002I0J249998D01*
G01*
X205300000Y-46224998D01*
G75*
G02*
X205549998Y-45975000I249998J0D01*
G01*
G37*
G36*
G01*
X205549998Y-47800000D02*
X206450002Y-47800000D01*
G75*
G02*
X206700000Y-48049998I0J-249998D01*
G01*
X206700000Y-48575002D01*
G75*
G02*
X206450002Y-48825000I-249998J0D01*
G01*
X205549998Y-48825000D01*
G75*
G02*
X205300000Y-48575002I0J249998D01*
G01*
X205300000Y-48049998D01*
G75*
G02*
X205549998Y-47800000I249998J0D01*
G01*
G37*
%TD*%
%TO.C,C16*%
G36*
G01*
X203975000Y-49025000D02*
X203025000Y-49025000D01*
G75*
G02*
X202775000Y-48775000I0J250000D01*
G01*
X202775000Y-48100000D01*
G75*
G02*
X203025000Y-47850000I250000J0D01*
G01*
X203975000Y-47850000D01*
G75*
G02*
X204225000Y-48100000I0J-250000D01*
G01*
X204225000Y-48775000D01*
G75*
G02*
X203975000Y-49025000I-250000J0D01*
G01*
G37*
G36*
G01*
X203975000Y-46950000D02*
X203025000Y-46950000D01*
G75*
G02*
X202775000Y-46700000I0J250000D01*
G01*
X202775000Y-46025000D01*
G75*
G02*
X203025000Y-45775000I250000J0D01*
G01*
X203975000Y-45775000D01*
G75*
G02*
X204225000Y-46025000I0J-250000D01*
G01*
X204225000Y-46700000D01*
G75*
G02*
X203975000Y-46950000I-250000J0D01*
G01*
G37*
%TD*%
%TO.C,C17*%
G36*
G01*
X203975000Y-53025000D02*
X203025000Y-53025000D01*
G75*
G02*
X202775000Y-52775000I0J250000D01*
G01*
X202775000Y-52100000D01*
G75*
G02*
X203025000Y-51850000I250000J0D01*
G01*
X203975000Y-51850000D01*
G75*
G02*
X204225000Y-52100000I0J-250000D01*
G01*
X204225000Y-52775000D01*
G75*
G02*
X203975000Y-53025000I-250000J0D01*
G01*
G37*
G36*
G01*
X203975000Y-50950000D02*
X203025000Y-50950000D01*
G75*
G02*
X202775000Y-50700000I0J250000D01*
G01*
X202775000Y-50025000D01*
G75*
G02*
X203025000Y-49775000I250000J0D01*
G01*
X203975000Y-49775000D01*
G75*
G02*
X204225000Y-50025000I0J-250000D01*
G01*
X204225000Y-50700000D01*
G75*
G02*
X203975000Y-50950000I-250000J0D01*
G01*
G37*
%TD*%
%TO.C,R14*%
G36*
G01*
X205549998Y-49975000D02*
X206450002Y-49975000D01*
G75*
G02*
X206700000Y-50224998I0J-249998D01*
G01*
X206700000Y-50750002D01*
G75*
G02*
X206450002Y-51000000I-249998J0D01*
G01*
X205549998Y-51000000D01*
G75*
G02*
X205300000Y-50750002I0J249998D01*
G01*
X205300000Y-50224998D01*
G75*
G02*
X205549998Y-49975000I249998J0D01*
G01*
G37*
G36*
G01*
X205549998Y-51800000D02*
X206450002Y-51800000D01*
G75*
G02*
X206700000Y-52049998I0J-249998D01*
G01*
X206700000Y-52575002D01*
G75*
G02*
X206450002Y-52825000I-249998J0D01*
G01*
X205549998Y-52825000D01*
G75*
G02*
X205300000Y-52575002I0J249998D01*
G01*
X205300000Y-52049998D01*
G75*
G02*
X205549998Y-51800000I249998J0D01*
G01*
G37*
%TD*%
D17*
%TO.C,C20*%
X171500000Y-40500000D03*
D18*
X175000000Y-40500000D03*
%TD*%
%TO.C,C15*%
G36*
G01*
X203975000Y-45125000D02*
X203025000Y-45125000D01*
G75*
G02*
X202775000Y-44875000I0J250000D01*
G01*
X202775000Y-44200000D01*
G75*
G02*
X203025000Y-43950000I250000J0D01*
G01*
X203975000Y-43950000D01*
G75*
G02*
X204225000Y-44200000I0J-250000D01*
G01*
X204225000Y-44875000D01*
G75*
G02*
X203975000Y-45125000I-250000J0D01*
G01*
G37*
G36*
G01*
X203975000Y-43050000D02*
X203025000Y-43050000D01*
G75*
G02*
X202775000Y-42800000I0J250000D01*
G01*
X202775000Y-42125000D01*
G75*
G02*
X203025000Y-41875000I250000J0D01*
G01*
X203975000Y-41875000D01*
G75*
G02*
X204225000Y-42125000I0J-250000D01*
G01*
X204225000Y-42800000D01*
G75*
G02*
X203975000Y-43050000I-250000J0D01*
G01*
G37*
%TD*%
%TO.C,R15*%
G36*
G01*
X186975000Y-32450002D02*
X186975000Y-31549998D01*
G75*
G02*
X187224998Y-31300000I249998J0D01*
G01*
X187750002Y-31300000D01*
G75*
G02*
X188000000Y-31549998I0J-249998D01*
G01*
X188000000Y-32450002D01*
G75*
G02*
X187750002Y-32700000I-249998J0D01*
G01*
X187224998Y-32700000D01*
G75*
G02*
X186975000Y-32450002I0J249998D01*
G01*
G37*
G36*
G01*
X188800000Y-32450002D02*
X188800000Y-31549998D01*
G75*
G02*
X189049998Y-31300000I249998J0D01*
G01*
X189575002Y-31300000D01*
G75*
G02*
X189825000Y-31549998I0J-249998D01*
G01*
X189825000Y-32450002D01*
G75*
G02*
X189575002Y-32700000I-249998J0D01*
G01*
X189049998Y-32700000D01*
G75*
G02*
X188800000Y-32450002I0J249998D01*
G01*
G37*
%TD*%
%TO.C,R12*%
G36*
G01*
X205549998Y-42075000D02*
X206450002Y-42075000D01*
G75*
G02*
X206700000Y-42324998I0J-249998D01*
G01*
X206700000Y-42850002D01*
G75*
G02*
X206450002Y-43100000I-249998J0D01*
G01*
X205549998Y-43100000D01*
G75*
G02*
X205300000Y-42850002I0J249998D01*
G01*
X205300000Y-42324998D01*
G75*
G02*
X205549998Y-42075000I249998J0D01*
G01*
G37*
G36*
G01*
X205549998Y-43900000D02*
X206450002Y-43900000D01*
G75*
G02*
X206700000Y-44149998I0J-249998D01*
G01*
X206700000Y-44675002D01*
G75*
G02*
X206450002Y-44925000I-249998J0D01*
G01*
X205549998Y-44925000D01*
G75*
G02*
X205300000Y-44675002I0J249998D01*
G01*
X205300000Y-44149998D01*
G75*
G02*
X205549998Y-43900000I249998J0D01*
G01*
G37*
%TD*%
%TO.C,R11*%
G36*
G01*
X180625000Y-34349998D02*
X180625000Y-35250002D01*
G75*
G02*
X180375002Y-35500000I-249998J0D01*
G01*
X179849998Y-35500000D01*
G75*
G02*
X179600000Y-35250002I0J249998D01*
G01*
X179600000Y-34349998D01*
G75*
G02*
X179849998Y-34100000I249998J0D01*
G01*
X180375002Y-34100000D01*
G75*
G02*
X180625000Y-34349998I0J-249998D01*
G01*
G37*
G36*
G01*
X178800000Y-34349998D02*
X178800000Y-35250002D01*
G75*
G02*
X178550002Y-35500000I-249998J0D01*
G01*
X178024998Y-35500000D01*
G75*
G02*
X177775000Y-35250002I0J249998D01*
G01*
X177775000Y-34349998D01*
G75*
G02*
X178024998Y-34100000I249998J0D01*
G01*
X178550002Y-34100000D01*
G75*
G02*
X178800000Y-34349998I0J-249998D01*
G01*
G37*
%TD*%
%TO.C,R10*%
G36*
G01*
X177775000Y-33250002D02*
X177775000Y-32349998D01*
G75*
G02*
X178024998Y-32100000I249998J0D01*
G01*
X178550002Y-32100000D01*
G75*
G02*
X178800000Y-32349998I0J-249998D01*
G01*
X178800000Y-33250002D01*
G75*
G02*
X178550002Y-33500000I-249998J0D01*
G01*
X178024998Y-33500000D01*
G75*
G02*
X177775000Y-33250002I0J249998D01*
G01*
G37*
G36*
G01*
X179600000Y-33250002D02*
X179600000Y-32349998D01*
G75*
G02*
X179849998Y-32100000I249998J0D01*
G01*
X180375002Y-32100000D01*
G75*
G02*
X180625000Y-32349998I0J-249998D01*
G01*
X180625000Y-33250002D01*
G75*
G02*
X180375002Y-33500000I-249998J0D01*
G01*
X179849998Y-33500000D01*
G75*
G02*
X179600000Y-33250002I0J249998D01*
G01*
G37*
%TD*%
%TO.C,R8*%
G36*
G01*
X198225000Y-44149998D02*
X198225000Y-45050002D01*
G75*
G02*
X197975002Y-45300000I-249998J0D01*
G01*
X197449998Y-45300000D01*
G75*
G02*
X197200000Y-45050002I0J249998D01*
G01*
X197200000Y-44149998D01*
G75*
G02*
X197449998Y-43900000I249998J0D01*
G01*
X197975002Y-43900000D01*
G75*
G02*
X198225000Y-44149998I0J-249998D01*
G01*
G37*
G36*
G01*
X196400000Y-44149998D02*
X196400000Y-45050002D01*
G75*
G02*
X196150002Y-45300000I-249998J0D01*
G01*
X195624998Y-45300000D01*
G75*
G02*
X195375000Y-45050002I0J249998D01*
G01*
X195375000Y-44149998D01*
G75*
G02*
X195624998Y-43900000I249998J0D01*
G01*
X196150002Y-43900000D01*
G75*
G02*
X196400000Y-44149998I0J-249998D01*
G01*
G37*
%TD*%
%TO.C,R7*%
G36*
G01*
X168750000Y-46425001D02*
X168750000Y-43574999D01*
G75*
G02*
X168999999Y-43325000I249999J0D01*
G01*
X169900001Y-43325000D01*
G75*
G02*
X170150000Y-43574999I0J-249999D01*
G01*
X170150000Y-46425001D01*
G75*
G02*
X169900001Y-46675000I-249999J0D01*
G01*
X168999999Y-46675000D01*
G75*
G02*
X168750000Y-46425001I0J249999D01*
G01*
G37*
G36*
G01*
X174850000Y-46425001D02*
X174850000Y-43574999D01*
G75*
G02*
X175099999Y-43325000I249999J0D01*
G01*
X176000001Y-43325000D01*
G75*
G02*
X176250000Y-43574999I0J-249999D01*
G01*
X176250000Y-46425001D01*
G75*
G02*
X176000001Y-46675000I-249999J0D01*
G01*
X175099999Y-46675000D01*
G75*
G02*
X174850000Y-46425001I0J249999D01*
G01*
G37*
%TD*%
D19*
%TO.C,Q4*%
X166900000Y-49095000D03*
X166900000Y-50365000D03*
X166900000Y-51635000D03*
X166900000Y-52905000D03*
D10*
G36*
X160675000Y-52605000D02*
G01*
X161475000Y-52605000D01*
X161475000Y-51935000D01*
X160675000Y-51935000D01*
X160675000Y-51335000D01*
X161475000Y-51335000D01*
X161475000Y-50665000D01*
X160675000Y-50665000D01*
X160675000Y-50065000D01*
X161475000Y-50065000D01*
X161475000Y-49395000D01*
X160675000Y-49395000D01*
X160675000Y-48795000D01*
X165225000Y-48795000D01*
X165225000Y-53205000D01*
X160675000Y-53205000D01*
X160675000Y-52605000D01*
G37*
%TD*%
D19*
%TO.C,Q2*%
X166900000Y-37095000D03*
X166900000Y-38365000D03*
X166900000Y-39635000D03*
X166900000Y-40905000D03*
D10*
G36*
X160675000Y-40605000D02*
G01*
X161475000Y-40605000D01*
X161475000Y-39935000D01*
X160675000Y-39935000D01*
X160675000Y-39335000D01*
X161475000Y-39335000D01*
X161475000Y-38665000D01*
X160675000Y-38665000D01*
X160675000Y-38065000D01*
X161475000Y-38065000D01*
X161475000Y-37395000D01*
X160675000Y-37395000D01*
X160675000Y-36795000D01*
X165225000Y-36795000D01*
X165225000Y-41205000D01*
X160675000Y-41205000D01*
X160675000Y-40605000D01*
G37*
%TD*%
D19*
%TO.C,Q6*%
X166850000Y-43095000D03*
X166850000Y-44365000D03*
X166850000Y-45635000D03*
X166850000Y-46905000D03*
D10*
G36*
X160625000Y-46605000D02*
G01*
X161425000Y-46605000D01*
X161425000Y-45935000D01*
X160625000Y-45935000D01*
X160625000Y-45335000D01*
X161425000Y-45335000D01*
X161425000Y-44665000D01*
X160625000Y-44665000D01*
X160625000Y-44065000D01*
X161425000Y-44065000D01*
X161425000Y-43395000D01*
X160625000Y-43395000D01*
X160625000Y-42795000D01*
X165175000Y-42795000D01*
X165175000Y-47205000D01*
X160625000Y-47205000D01*
X160625000Y-46605000D01*
G37*
%TD*%
M02*
