M48
; DRILL file {KiCad (5.1.10)-1} date 11/06/21 00:48:27
; FORMAT={-:-/ absolute / inch / decimal}
; #@! TF.CreationDate,2021-11-06T00:48:27+01:00
; #@! TF.GenerationSoftware,Kicad,Pcbnew,(5.1.10)-1
; #@! TF.FileFunction,Plated,1,2,PTH
FMAT,2
INCH
T1C0.0118
T2C0.0315
T3C0.0394
T4C0.0866
%
G90
G05
T1
X6.1811Y-1.4567
X6.1811Y-1.4961
X6.1811Y-1.5354
X6.1811Y-1.5748
X6.1811Y-1.6142
X6.1811Y-1.6929
X6.1811Y-1.7323
X6.1811Y-1.7717
X6.1811Y-1.811
X6.1811Y-1.8504
X6.1811Y-1.9291
X6.1811Y-1.9685
X6.1811Y-2.0079
X6.1811Y-2.0472
X6.1811Y-2.0866
X6.2205Y-1.4567
X6.2205Y-1.4961
X6.2205Y-1.5354
X6.2205Y-1.5748
X6.2205Y-1.6142
X6.2205Y-1.6929
X6.2205Y-1.7323
X6.2205Y-1.7717
X6.2205Y-1.811
X6.2205Y-1.8504
X6.2205Y-1.9291
X6.2205Y-1.9685
X6.2205Y-2.0079
X6.2205Y-2.0472
X6.2205Y-2.0866
X6.2598Y-1.4567
X6.2598Y-1.4961
X6.2598Y-1.5354
X6.2598Y-1.5748
X6.2598Y-1.6142
X6.2598Y-1.6929
X6.2598Y-1.7323
X6.2598Y-1.7717
X6.2598Y-1.811
X6.2598Y-1.8504
X6.2598Y-1.9291
X6.2598Y-1.9685
X6.2598Y-2.0079
X6.2598Y-2.0472
X6.2598Y-2.0866
X6.2992Y-1.4567
X6.2992Y-1.4961
X6.2992Y-1.5354
X6.2992Y-1.5748
X6.2992Y-1.6142
X6.2992Y-1.6929
X6.2992Y-1.7323
X6.2992Y-1.7717
X6.2992Y-1.811
X6.2992Y-1.8504
X6.2992Y-1.9291
X6.2992Y-1.9685
X6.2992Y-2.0079
X6.2992Y-2.0472
X6.2992Y-2.0866
X6.3622Y-1.6535
X6.3622Y-1.8898
X6.3622Y-2.126
X6.3976Y-1.2402
X6.3976Y-1.2795
X6.3976Y-1.3189
X6.3976Y-1.3583
X6.3976Y-2.185
X6.3976Y-2.2244
X6.3976Y-2.2638
X6.3976Y-2.3031
X6.437Y-1.2402
X6.437Y-1.2795
X6.437Y-1.3189
X6.437Y-1.3583
X6.437Y-2.185
X6.437Y-2.2244
X6.437Y-2.2638
X6.437Y-2.3031
X6.4764Y-1.2402
X6.4764Y-1.2795
X6.4764Y-1.3189
X6.4764Y-1.3583
X6.4764Y-2.185
X6.4764Y-2.2244
X6.4764Y-2.2638
X6.4764Y-2.3031
X6.5118Y-1.6535
X6.5157Y-1.2402
X6.5157Y-1.2795
X6.5157Y-1.3189
X6.5157Y-1.3583
X6.5157Y-2.185
X6.5157Y-2.2244
X6.5157Y-2.2638
X6.5157Y-2.3031
X6.5542Y-1.8976
X6.5551Y-1.2402
X6.5551Y-1.2795
X6.5551Y-1.3189
X6.5551Y-1.3583
X6.5551Y-2.185
X6.5551Y-2.2244
X6.5551Y-2.2638
X6.5551Y-2.3031
X6.6142Y-1.6535
X6.6142Y-1.7008
X6.629Y-2.0935
X6.6299Y-1.8661
X6.6299Y-1.9134
X6.6702Y-2.1269
X6.7165Y-2.126
X6.752Y-1.2402
X6.752Y-1.2795
X6.752Y-1.3189
X6.752Y-1.3583
X6.752Y-1.4961
X6.752Y-2.185
X6.752Y-2.2244
X6.752Y-2.2638
X6.752Y-2.3031
X6.7717Y-1.5354
X6.7913Y-1.2402
X6.7913Y-1.2795
X6.7913Y-1.3189
X6.7913Y-1.3583
X6.7913Y-1.4961
X6.7913Y-2.185
X6.7913Y-2.2244
X6.7913Y-2.2638
X6.7913Y-2.3031
X6.8031Y-2.0315
X6.811Y-1.5354
X6.8189Y-1.7795
X6.8307Y-1.2402
X6.8307Y-1.2795
X6.8307Y-1.3189
X6.8307Y-1.3583
X6.8307Y-1.4961
X6.8307Y-2.185
X6.8307Y-2.2244
X6.8307Y-2.2638
X6.8307Y-2.3031
X6.8504Y-1.5354
X6.8701Y-1.2402
X6.8701Y-1.2795
X6.8701Y-1.3189
X6.8701Y-1.3583
X6.8701Y-1.4961
X6.8701Y-2.185
X6.8701Y-2.2244
X6.8701Y-2.2638
X6.8701Y-2.3031
X6.8898Y-1.5354
X6.9094Y-1.2402
X6.9094Y-1.2795
X6.9094Y-1.3189
X6.9094Y-1.3583
X6.9094Y-2.185
X6.9094Y-2.2244
X6.9094Y-2.2638
X6.9094Y-2.3031
X6.9291Y-2.063
X6.9606Y-2.063
X6.9843Y-2.1417
X6.9921Y-1.7008
X6.9921Y-1.9213
X6.9921Y-2.063
X7.1102Y-1.9528
X7.1654Y-1.6815
X7.1654Y-2.2205
X7.1654Y-2.2913
X7.1669Y-1.9761
X7.1685Y-1.5957
X7.1732Y-1.3071
X7.2047Y-1.4409
X7.2126Y-1.4961
X7.2598Y-1.6378
X7.2835Y-1.4252
X7.2835Y-1.5118
X7.3025Y-2.0627
X7.313Y-2.1063
X7.315Y-1.5591
X7.3228Y-1.6772
X7.3386Y-1.4094
X7.3543Y-1.8976
X7.3967Y-1.7958
X7.3971Y-1.9718
X7.4073Y-1.4702
X7.4252Y-1.7559
X7.434Y-2.003
X7.4469Y-1.9677
X7.4648Y-1.5403
X7.4724Y-1.4918
X7.4724Y-1.8366
X7.4813Y-1.5915
X7.4971Y-1.8612
X7.5218Y-1.6483
X7.5433Y-1.811
X7.5445Y-1.6789
X7.5512Y-1.6299
X7.5512Y-1.7637
X7.5734Y-1.8205
X7.5748Y-1.4961
X7.5906Y-2.0787
X7.5984Y-1.5354
X7.6299Y-2.0394
X7.6299Y-2.0787
X7.6299Y-2.1181
X7.6378Y-1.5429
X7.6378Y-1.4961
X7.6402Y-1.5902
X7.6693Y-1.8661
X7.6693Y-2.0
X7.6693Y-2.0394
X7.6693Y-2.0787
X7.6693Y-2.1181
X7.6693Y-2.1575
X7.6732Y-1.8346
X7.689Y-1.5512
X7.6929Y-1.3543
X7.7087Y-2.0394
X7.7087Y-2.0787
X7.7087Y-2.1181
X7.7244Y-1.8583
X7.7417Y-1.3873
X7.748Y-2.0787
X7.7523Y-1.6929
X7.7549Y-2.2598
X7.7835Y-1.6969
X7.7932Y-1.8297
X7.8031Y-2.2835
X7.8139Y-1.8836
X7.8141Y-1.6591
X7.8158Y-1.6946
X7.8291Y-2.1515
X7.8508Y-2.1743
X7.8516Y-1.9475
X7.8537Y-1.912
X7.8583Y-1.9921
X7.8661Y-2.2677
X7.8661Y-1.685
X7.8733Y-2.126
X7.874Y-2.0709
X7.8741Y-1.7913
X7.9033Y-2.201
X7.937Y-1.5197
X8.0551Y-2.1654
X8.0551Y-2.252
X8.063Y-1.8661
X8.063Y-2.0236
X8.0669Y-1.6299
X8.1575Y-2.2835
T2
X6.752Y-1.5945
X6.752Y-1.9488
X6.8898Y-1.5945
X6.8898Y-1.9488
T3
X7.9693Y-1.3504
X8.0126Y-1.472
X8.0126Y-1.572
X8.0693Y-1.3504
X8.1126Y-1.472
X8.1126Y-1.572
X8.1693Y-1.3504
X8.2126Y-1.472
X8.2126Y-1.572
X8.2126Y-1.672
X8.2126Y-1.772
X8.2126Y-1.872
X8.2126Y-1.972
X8.2126Y-2.072
T4
X6.2205Y-1.2894
X6.2205Y-2.2539
X8.3268Y-1.2894
X8.3268Y-2.2539
T0
M30
