%TF.GenerationSoftware,KiCad,Pcbnew,(5.1.10)-1*%
%TF.CreationDate,2021-11-06T00:48:36+01:00*%
%TF.ProjectId,xESC,78455343-2e6b-4696-9361-645f70636258,rev?*%
%TF.SameCoordinates,Original*%
%TF.FileFunction,Legend,Bot*%
%TF.FilePolarity,Positive*%
%FSLAX46Y46*%
G04 Gerber Fmt 4.6, Leading zero omitted, Abs format (unit mm)*
G04 Created by KiCad (PCBNEW (5.1.10)-1) date 2021-11-06 00:48:36*
%MOMM*%
%LPD*%
G01*
G04 APERTURE LIST*
%ADD10C,0.150000*%
%ADD11C,0.120000*%
%ADD12C,0.010000*%
G04 APERTURE END LIST*
D10*
X186616666Y-39966666D02*
X187116666Y-39966666D01*
X187216666Y-39933333D01*
X187283333Y-39866666D01*
X187316666Y-39766666D01*
X187316666Y-39700000D01*
X187316666Y-40633333D02*
X187316666Y-40300000D01*
X186616666Y-40300000D01*
X187250000Y-41266666D02*
X187283333Y-41233333D01*
X187316666Y-41133333D01*
X187316666Y-41066666D01*
X187283333Y-40966666D01*
X187216666Y-40900000D01*
X187150000Y-40866666D01*
X187016666Y-40833333D01*
X186916666Y-40833333D01*
X186783333Y-40866666D01*
X186716666Y-40900000D01*
X186650000Y-40966666D01*
X186616666Y-41066666D01*
X186616666Y-41133333D01*
X186650000Y-41233333D01*
X186683333Y-41266666D01*
X186616666Y-41766666D02*
X187116666Y-41766666D01*
X187216666Y-41733333D01*
X187283333Y-41666666D01*
X187316666Y-41566666D01*
X187316666Y-41500000D01*
X187316666Y-42433333D02*
X187316666Y-42100000D01*
X186616666Y-42100000D01*
X187250000Y-43066666D02*
X187283333Y-43033333D01*
X187316666Y-42933333D01*
X187316666Y-42866666D01*
X187283333Y-42766666D01*
X187216666Y-42700000D01*
X187150000Y-42666666D01*
X187016666Y-42633333D01*
X186916666Y-42633333D01*
X186783333Y-42666666D01*
X186716666Y-42700000D01*
X186650000Y-42766666D01*
X186616666Y-42866666D01*
X186616666Y-42933333D01*
X186650000Y-43033333D01*
X186683333Y-43066666D01*
X186616666Y-43566666D02*
X187116666Y-43566666D01*
X187216666Y-43533333D01*
X187283333Y-43466666D01*
X187316666Y-43366666D01*
X187316666Y-43300000D01*
X187316666Y-44233333D02*
X187316666Y-43900000D01*
X186616666Y-43900000D01*
X187250000Y-44866666D02*
X187283333Y-44833333D01*
X187316666Y-44733333D01*
X187316666Y-44666666D01*
X187283333Y-44566666D01*
X187216666Y-44500000D01*
X187150000Y-44466666D01*
X187016666Y-44433333D01*
X186916666Y-44433333D01*
X186783333Y-44466666D01*
X186716666Y-44500000D01*
X186650000Y-44566666D01*
X186616666Y-44666666D01*
X186616666Y-44733333D01*
X186650000Y-44833333D01*
X186683333Y-44866666D01*
X186616666Y-45366666D02*
X187116666Y-45366666D01*
X187216666Y-45333333D01*
X187283333Y-45266666D01*
X187316666Y-45166666D01*
X187316666Y-45100000D01*
X187316666Y-46033333D02*
X187316666Y-45700000D01*
X186616666Y-45700000D01*
X187250000Y-46666666D02*
X187283333Y-46633333D01*
X187316666Y-46533333D01*
X187316666Y-46466666D01*
X187283333Y-46366666D01*
X187216666Y-46300000D01*
X187150000Y-46266666D01*
X187016666Y-46233333D01*
X186916666Y-46233333D01*
X186783333Y-46266666D01*
X186716666Y-46300000D01*
X186650000Y-46366666D01*
X186616666Y-46466666D01*
X186616666Y-46533333D01*
X186650000Y-46633333D01*
X186683333Y-46666666D01*
X203418928Y-56057142D02*
X203204642Y-56657142D01*
X202990357Y-56057142D01*
X202176071Y-56657142D02*
X202690357Y-56657142D01*
X202433214Y-56657142D02*
X202433214Y-55757142D01*
X202518928Y-55885714D01*
X202604642Y-55971428D01*
X202690357Y-56014285D01*
X201790357Y-56571428D02*
X201747500Y-56614285D01*
X201790357Y-56657142D01*
X201833214Y-56614285D01*
X201790357Y-56571428D01*
X201790357Y-56657142D01*
X201190357Y-55757142D02*
X201104642Y-55757142D01*
X201018928Y-55800000D01*
X200976071Y-55842857D01*
X200933214Y-55928571D01*
X200890357Y-56100000D01*
X200890357Y-56314285D01*
X200933214Y-56485714D01*
X200976071Y-56571428D01*
X201018928Y-56614285D01*
X201104642Y-56657142D01*
X201190357Y-56657142D01*
X201276071Y-56614285D01*
X201318928Y-56571428D01*
X201361785Y-56485714D01*
X201404642Y-56314285D01*
X201404642Y-56100000D01*
X201361785Y-55928571D01*
X201318928Y-55842857D01*
X201276071Y-55800000D01*
X201190357Y-55757142D01*
X199818928Y-56314285D02*
X199133214Y-56314285D01*
X197590357Y-56657142D02*
X198018928Y-56657142D01*
X198018928Y-55757142D01*
X197290357Y-56657142D02*
X197290357Y-56057142D01*
X197290357Y-55757142D02*
X197333214Y-55800000D01*
X197290357Y-55842857D01*
X197247500Y-55800000D01*
X197290357Y-55757142D01*
X197290357Y-55842857D01*
X196476071Y-56614285D02*
X196561785Y-56657142D01*
X196733214Y-56657142D01*
X196818928Y-56614285D01*
X196861785Y-56571428D01*
X196904642Y-56485714D01*
X196904642Y-56228571D01*
X196861785Y-56142857D01*
X196818928Y-56100000D01*
X196733214Y-56057142D01*
X196561785Y-56057142D01*
X196476071Y-56100000D01*
X195747500Y-56614285D02*
X195833214Y-56657142D01*
X196004642Y-56657142D01*
X196090357Y-56614285D01*
X196133214Y-56528571D01*
X196133214Y-56185714D01*
X196090357Y-56100000D01*
X196004642Y-56057142D01*
X195833214Y-56057142D01*
X195747500Y-56100000D01*
X195704642Y-56185714D01*
X195704642Y-56271428D01*
X196133214Y-56357142D01*
X195318928Y-56057142D02*
X195318928Y-56657142D01*
X195318928Y-56142857D02*
X195276071Y-56100000D01*
X195190357Y-56057142D01*
X195061785Y-56057142D01*
X194976071Y-56100000D01*
X194933214Y-56185714D01*
X194933214Y-56657142D01*
X194547500Y-56614285D02*
X194461785Y-56657142D01*
X194290357Y-56657142D01*
X194204642Y-56614285D01*
X194161785Y-56528571D01*
X194161785Y-56485714D01*
X194204642Y-56400000D01*
X194290357Y-56357142D01*
X194418928Y-56357142D01*
X194504642Y-56314285D01*
X194547500Y-56228571D01*
X194547500Y-56185714D01*
X194504642Y-56100000D01*
X194418928Y-56057142D01*
X194290357Y-56057142D01*
X194204642Y-56100000D01*
X193433214Y-56614285D02*
X193518928Y-56657142D01*
X193690357Y-56657142D01*
X193776071Y-56614285D01*
X193818928Y-56528571D01*
X193818928Y-56185714D01*
X193776071Y-56100000D01*
X193690357Y-56057142D01*
X193518928Y-56057142D01*
X193433214Y-56100000D01*
X193390357Y-56185714D01*
X193390357Y-56271428D01*
X193818928Y-56357142D01*
X191804642Y-56571428D02*
X191847500Y-56614285D01*
X191976071Y-56657142D01*
X192061785Y-56657142D01*
X192190357Y-56614285D01*
X192276071Y-56528571D01*
X192318928Y-56442857D01*
X192361785Y-56271428D01*
X192361785Y-56142857D01*
X192318928Y-55971428D01*
X192276071Y-55885714D01*
X192190357Y-55800000D01*
X192061785Y-55757142D01*
X191976071Y-55757142D01*
X191847500Y-55800000D01*
X191804642Y-55842857D01*
X190904642Y-56571428D02*
X190947500Y-56614285D01*
X191076071Y-56657142D01*
X191161785Y-56657142D01*
X191290357Y-56614285D01*
X191376071Y-56528571D01*
X191418928Y-56442857D01*
X191461785Y-56271428D01*
X191461785Y-56142857D01*
X191418928Y-55971428D01*
X191376071Y-55885714D01*
X191290357Y-55800000D01*
X191161785Y-55757142D01*
X191076071Y-55757142D01*
X190947500Y-55800000D01*
X190904642Y-55842857D01*
X189533214Y-56185714D02*
X189404642Y-56228571D01*
X189361785Y-56271428D01*
X189318928Y-56357142D01*
X189318928Y-56485714D01*
X189361785Y-56571428D01*
X189404642Y-56614285D01*
X189490357Y-56657142D01*
X189833214Y-56657142D01*
X189833214Y-55757142D01*
X189533214Y-55757142D01*
X189447500Y-55800000D01*
X189404642Y-55842857D01*
X189361785Y-55928571D01*
X189361785Y-56014285D01*
X189404642Y-56100000D01*
X189447500Y-56142857D01*
X189533214Y-56185714D01*
X189833214Y-56185714D01*
X188761785Y-56228571D02*
X188761785Y-56657142D01*
X189061785Y-55757142D02*
X188761785Y-56228571D01*
X188461785Y-55757142D01*
X188161785Y-56314285D02*
X187476071Y-56314285D01*
X187047500Y-56657142D02*
X187047500Y-55757142D01*
X186533214Y-56657142D01*
X186533214Y-55757142D01*
X185590357Y-56571428D02*
X185633214Y-56614285D01*
X185761785Y-56657142D01*
X185847500Y-56657142D01*
X185976071Y-56614285D01*
X186061785Y-56528571D01*
X186104642Y-56442857D01*
X186147500Y-56271428D01*
X186147500Y-56142857D01*
X186104642Y-55971428D01*
X186061785Y-55885714D01*
X185976071Y-55800000D01*
X185847500Y-55757142D01*
X185761785Y-55757142D01*
X185633214Y-55800000D01*
X185590357Y-55842857D01*
X185204642Y-56314285D02*
X184518928Y-56314285D01*
X184133214Y-56614285D02*
X184004642Y-56657142D01*
X183790357Y-56657142D01*
X183704642Y-56614285D01*
X183661785Y-56571428D01*
X183618928Y-56485714D01*
X183618928Y-56400000D01*
X183661785Y-56314285D01*
X183704642Y-56271428D01*
X183790357Y-56228571D01*
X183961785Y-56185714D01*
X184047500Y-56142857D01*
X184090357Y-56100000D01*
X184133214Y-56014285D01*
X184133214Y-55928571D01*
X184090357Y-55842857D01*
X184047500Y-55800000D01*
X183961785Y-55757142D01*
X183747500Y-55757142D01*
X183618928Y-55800000D01*
X183276071Y-56400000D02*
X182847500Y-56400000D01*
X183361785Y-56657142D02*
X183061785Y-55757142D01*
X182761785Y-56657142D01*
X181390357Y-56057142D02*
X181390357Y-56657142D01*
X181604642Y-55714285D02*
X181818928Y-56357142D01*
X181261785Y-56357142D01*
X180918928Y-56571428D02*
X180876071Y-56614285D01*
X180918928Y-56657142D01*
X180961785Y-56614285D01*
X180918928Y-56571428D01*
X180918928Y-56657142D01*
X180318928Y-55757142D02*
X180233214Y-55757142D01*
X180147500Y-55800000D01*
X180104642Y-55842857D01*
X180061785Y-55928571D01*
X180018928Y-56100000D01*
X180018928Y-56314285D01*
X180061785Y-56485714D01*
X180104642Y-56571428D01*
X180147500Y-56614285D01*
X180233214Y-56657142D01*
X180318928Y-56657142D01*
X180404642Y-56614285D01*
X180447500Y-56571428D01*
X180490357Y-56485714D01*
X180533214Y-56314285D01*
X180533214Y-56100000D01*
X180490357Y-55928571D01*
X180447500Y-55842857D01*
X180404642Y-55800000D01*
X180318928Y-55757142D01*
X207876071Y-58157142D02*
X207876071Y-57257142D01*
X207490357Y-58157142D02*
X207490357Y-57685714D01*
X207533214Y-57600000D01*
X207618928Y-57557142D01*
X207747500Y-57557142D01*
X207833214Y-57600000D01*
X207876071Y-57642857D01*
X207190357Y-57557142D02*
X206847500Y-57557142D01*
X207061785Y-57257142D02*
X207061785Y-58028571D01*
X207018928Y-58114285D01*
X206933214Y-58157142D01*
X206847500Y-58157142D01*
X206676071Y-57557142D02*
X206333214Y-57557142D01*
X206547500Y-57257142D02*
X206547500Y-58028571D01*
X206504642Y-58114285D01*
X206418928Y-58157142D01*
X206333214Y-58157142D01*
X206033214Y-57557142D02*
X206033214Y-58457142D01*
X206033214Y-57600000D02*
X205947500Y-57557142D01*
X205776071Y-57557142D01*
X205690357Y-57600000D01*
X205647500Y-57642857D01*
X205604642Y-57728571D01*
X205604642Y-57985714D01*
X205647500Y-58071428D01*
X205690357Y-58114285D01*
X205776071Y-58157142D01*
X205947500Y-58157142D01*
X206033214Y-58114285D01*
X205261785Y-58114285D02*
X205176071Y-58157142D01*
X205004642Y-58157142D01*
X204918928Y-58114285D01*
X204876071Y-58028571D01*
X204876071Y-57985714D01*
X204918928Y-57900000D01*
X205004642Y-57857142D01*
X205133214Y-57857142D01*
X205218928Y-57814285D01*
X205261785Y-57728571D01*
X205261785Y-57685714D01*
X205218928Y-57600000D01*
X205133214Y-57557142D01*
X205004642Y-57557142D01*
X204918928Y-57600000D01*
X204490357Y-58071428D02*
X204447500Y-58114285D01*
X204490357Y-58157142D01*
X204533214Y-58114285D01*
X204490357Y-58071428D01*
X204490357Y-58157142D01*
X204490357Y-57600000D02*
X204447500Y-57642857D01*
X204490357Y-57685714D01*
X204533214Y-57642857D01*
X204490357Y-57600000D01*
X204490357Y-57685714D01*
X203418928Y-57214285D02*
X204190357Y-58371428D01*
X202476071Y-57214285D02*
X203247500Y-58371428D01*
X201790357Y-57557142D02*
X201790357Y-58285714D01*
X201833214Y-58371428D01*
X201876071Y-58414285D01*
X201961785Y-58457142D01*
X202090357Y-58457142D01*
X202176071Y-58414285D01*
X201790357Y-58114285D02*
X201876071Y-58157142D01*
X202047500Y-58157142D01*
X202133214Y-58114285D01*
X202176071Y-58071428D01*
X202218928Y-57985714D01*
X202218928Y-57728571D01*
X202176071Y-57642857D01*
X202133214Y-57600000D01*
X202047500Y-57557142D01*
X201876071Y-57557142D01*
X201790357Y-57600000D01*
X201361785Y-58157142D02*
X201361785Y-57557142D01*
X201361785Y-57257142D02*
X201404642Y-57300000D01*
X201361785Y-57342857D01*
X201318928Y-57300000D01*
X201361785Y-57257142D01*
X201361785Y-57342857D01*
X201061785Y-57557142D02*
X200718928Y-57557142D01*
X200933214Y-57257142D02*
X200933214Y-58028571D01*
X200890357Y-58114285D01*
X200804642Y-58157142D01*
X200718928Y-58157142D01*
X200418928Y-58157142D02*
X200418928Y-57257142D01*
X200033214Y-58157142D02*
X200033214Y-57685714D01*
X200076071Y-57600000D01*
X200161785Y-57557142D01*
X200290357Y-57557142D01*
X200376071Y-57600000D01*
X200418928Y-57642857D01*
X199218928Y-57557142D02*
X199218928Y-58157142D01*
X199604642Y-57557142D02*
X199604642Y-58028571D01*
X199561785Y-58114285D01*
X199476071Y-58157142D01*
X199347500Y-58157142D01*
X199261785Y-58114285D01*
X199218928Y-58071428D01*
X198790357Y-58157142D02*
X198790357Y-57257142D01*
X198790357Y-57600000D02*
X198704642Y-57557142D01*
X198533214Y-57557142D01*
X198447500Y-57600000D01*
X198404642Y-57642857D01*
X198361785Y-57728571D01*
X198361785Y-57985714D01*
X198404642Y-58071428D01*
X198447500Y-58114285D01*
X198533214Y-58157142D01*
X198704642Y-58157142D01*
X198790357Y-58114285D01*
X197976071Y-58071428D02*
X197933214Y-58114285D01*
X197976071Y-58157142D01*
X198018928Y-58114285D01*
X197976071Y-58071428D01*
X197976071Y-58157142D01*
X197161785Y-58114285D02*
X197247500Y-58157142D01*
X197418928Y-58157142D01*
X197504642Y-58114285D01*
X197547500Y-58071428D01*
X197590357Y-57985714D01*
X197590357Y-57728571D01*
X197547500Y-57642857D01*
X197504642Y-57600000D01*
X197418928Y-57557142D01*
X197247500Y-57557142D01*
X197161785Y-57600000D01*
X196647500Y-58157142D02*
X196733214Y-58114285D01*
X196776071Y-58071428D01*
X196818928Y-57985714D01*
X196818928Y-57728571D01*
X196776071Y-57642857D01*
X196733214Y-57600000D01*
X196647500Y-57557142D01*
X196518928Y-57557142D01*
X196433214Y-57600000D01*
X196390357Y-57642857D01*
X196347500Y-57728571D01*
X196347500Y-57985714D01*
X196390357Y-58071428D01*
X196433214Y-58114285D01*
X196518928Y-58157142D01*
X196647500Y-58157142D01*
X195961785Y-58157142D02*
X195961785Y-57557142D01*
X195961785Y-57642857D02*
X195918928Y-57600000D01*
X195833214Y-57557142D01*
X195704642Y-57557142D01*
X195618928Y-57600000D01*
X195576071Y-57685714D01*
X195576071Y-58157142D01*
X195576071Y-57685714D02*
X195533214Y-57600000D01*
X195447500Y-57557142D01*
X195318928Y-57557142D01*
X195233214Y-57600000D01*
X195190357Y-57685714D01*
X195190357Y-58157142D01*
X194118928Y-57214285D02*
X194890357Y-58371428D01*
X193304642Y-58071428D02*
X193347500Y-58114285D01*
X193476071Y-58157142D01*
X193561785Y-58157142D01*
X193690357Y-58114285D01*
X193776071Y-58028571D01*
X193818928Y-57942857D01*
X193861785Y-57771428D01*
X193861785Y-57642857D01*
X193818928Y-57471428D01*
X193776071Y-57385714D01*
X193690357Y-57300000D01*
X193561785Y-57257142D01*
X193476071Y-57257142D01*
X193347500Y-57300000D01*
X193304642Y-57342857D01*
X192790357Y-58157142D02*
X192876071Y-58114285D01*
X192918928Y-58028571D01*
X192918928Y-57257142D01*
X192104642Y-58114285D02*
X192190357Y-58157142D01*
X192361785Y-58157142D01*
X192447500Y-58114285D01*
X192490357Y-58028571D01*
X192490357Y-57685714D01*
X192447500Y-57600000D01*
X192361785Y-57557142D01*
X192190357Y-57557142D01*
X192104642Y-57600000D01*
X192061785Y-57685714D01*
X192061785Y-57771428D01*
X192490357Y-57857142D01*
X191676071Y-58157142D02*
X191676071Y-57557142D01*
X191676071Y-57642857D02*
X191633214Y-57600000D01*
X191547500Y-57557142D01*
X191418928Y-57557142D01*
X191333214Y-57600000D01*
X191290357Y-57685714D01*
X191290357Y-58157142D01*
X191290357Y-57685714D02*
X191247500Y-57600000D01*
X191161785Y-57557142D01*
X191033214Y-57557142D01*
X190947500Y-57600000D01*
X190904642Y-57685714D01*
X190904642Y-58157142D01*
X190133214Y-58114285D02*
X190218928Y-58157142D01*
X190390357Y-58157142D01*
X190476071Y-58114285D01*
X190518928Y-58028571D01*
X190518928Y-57685714D01*
X190476071Y-57600000D01*
X190390357Y-57557142D01*
X190218928Y-57557142D01*
X190133214Y-57600000D01*
X190090357Y-57685714D01*
X190090357Y-57771428D01*
X190518928Y-57857142D01*
X189704642Y-57557142D02*
X189704642Y-58157142D01*
X189704642Y-57642857D02*
X189661785Y-57600000D01*
X189576071Y-57557142D01*
X189447500Y-57557142D01*
X189361785Y-57600000D01*
X189318928Y-57685714D01*
X189318928Y-58157142D01*
X188933214Y-58114285D02*
X188847500Y-58157142D01*
X188676071Y-58157142D01*
X188590357Y-58114285D01*
X188547500Y-58028571D01*
X188547500Y-57985714D01*
X188590357Y-57900000D01*
X188676071Y-57857142D01*
X188804642Y-57857142D01*
X188890357Y-57814285D01*
X188933214Y-57728571D01*
X188933214Y-57685714D01*
X188890357Y-57600000D01*
X188804642Y-57557142D01*
X188676071Y-57557142D01*
X188590357Y-57600000D01*
X188161785Y-57685714D02*
X187861785Y-57685714D01*
X187733214Y-58157142D02*
X188161785Y-58157142D01*
X188161785Y-57257142D01*
X187733214Y-57257142D01*
X187218928Y-58157142D02*
X187304642Y-58114285D01*
X187347500Y-58028571D01*
X187347500Y-57257142D01*
X187004642Y-57557142D02*
X186661785Y-57557142D01*
X186876071Y-58157142D02*
X186876071Y-57385714D01*
X186833214Y-57300000D01*
X186747500Y-57257142D01*
X186661785Y-57257142D01*
X186233214Y-58157142D02*
X186318928Y-58114285D01*
X186361785Y-58028571D01*
X186361785Y-57257142D01*
X185547500Y-58114285D02*
X185633214Y-58157142D01*
X185804642Y-58157142D01*
X185890357Y-58114285D01*
X185933214Y-58028571D01*
X185933214Y-57685714D01*
X185890357Y-57600000D01*
X185804642Y-57557142D01*
X185633214Y-57557142D01*
X185547500Y-57600000D01*
X185504642Y-57685714D01*
X185504642Y-57771428D01*
X185933214Y-57857142D01*
X185118928Y-58157142D02*
X185118928Y-57557142D01*
X185118928Y-57257142D02*
X185161785Y-57300000D01*
X185118928Y-57342857D01*
X185076071Y-57300000D01*
X185118928Y-57257142D01*
X185118928Y-57342857D01*
X184690357Y-57557142D02*
X184690357Y-58157142D01*
X184690357Y-57642857D02*
X184647500Y-57600000D01*
X184561785Y-57557142D01*
X184433214Y-57557142D01*
X184347500Y-57600000D01*
X184304642Y-57685714D01*
X184304642Y-58157142D01*
X183233214Y-57214285D02*
X184004642Y-58371428D01*
X183018928Y-58157142D02*
X182547500Y-57557142D01*
X183018928Y-57557142D02*
X182547500Y-58157142D01*
X182204642Y-57685714D02*
X181904642Y-57685714D01*
X181776071Y-58157142D02*
X182204642Y-58157142D01*
X182204642Y-57257142D01*
X181776071Y-57257142D01*
X181433214Y-58114285D02*
X181304642Y-58157142D01*
X181090357Y-58157142D01*
X181004642Y-58114285D01*
X180961785Y-58071428D01*
X180918928Y-57985714D01*
X180918928Y-57900000D01*
X180961785Y-57814285D01*
X181004642Y-57771428D01*
X181090357Y-57728571D01*
X181261785Y-57685714D01*
X181347500Y-57642857D01*
X181390357Y-57600000D01*
X181433214Y-57514285D01*
X181433214Y-57428571D01*
X181390357Y-57342857D01*
X181347500Y-57300000D01*
X181261785Y-57257142D01*
X181047500Y-57257142D01*
X180918928Y-57300000D01*
X180018928Y-58071428D02*
X180061785Y-58114285D01*
X180190357Y-58157142D01*
X180276071Y-58157142D01*
X180404642Y-58114285D01*
X180490357Y-58028571D01*
X180533214Y-57942857D01*
X180576071Y-57771428D01*
X180576071Y-57642857D01*
X180533214Y-57471428D01*
X180490357Y-57385714D01*
X180404642Y-57300000D01*
X180276071Y-57257142D01*
X180190357Y-57257142D01*
X180061785Y-57300000D01*
X180018928Y-57342857D01*
X212290595Y-52000000D02*
X212385833Y-51952380D01*
X212528690Y-51952380D01*
X212671547Y-52000000D01*
X212766785Y-52095238D01*
X212814404Y-52190476D01*
X212862023Y-52380952D01*
X212862023Y-52523809D01*
X212814404Y-52714285D01*
X212766785Y-52809523D01*
X212671547Y-52904761D01*
X212528690Y-52952380D01*
X212433452Y-52952380D01*
X212290595Y-52904761D01*
X212242976Y-52857142D01*
X212242976Y-52523809D01*
X212433452Y-52523809D01*
X211814404Y-52952380D02*
X211814404Y-51952380D01*
X211242976Y-52952380D01*
X211242976Y-51952380D01*
X210766785Y-52952380D02*
X210766785Y-51952380D01*
X210528690Y-51952380D01*
X210385833Y-52000000D01*
X210290595Y-52095238D01*
X210242976Y-52190476D01*
X210195357Y-52380952D01*
X210195357Y-52523809D01*
X210242976Y-52714285D01*
X210290595Y-52809523D01*
X210385833Y-52904761D01*
X210528690Y-52952380D01*
X210766785Y-52952380D01*
X212814404Y-49452380D02*
X212814404Y-50261904D01*
X212766785Y-50357142D01*
X212719166Y-50404761D01*
X212623928Y-50452380D01*
X212433452Y-50452380D01*
X212338214Y-50404761D01*
X212290595Y-50357142D01*
X212242976Y-50261904D01*
X212242976Y-49452380D01*
X212957261Y-46952380D02*
X212623928Y-47952380D01*
X212290595Y-46952380D01*
X212909642Y-44452380D02*
X212671547Y-45452380D01*
X212481071Y-44738095D01*
X212290595Y-45452380D01*
X212052500Y-44452380D01*
X212338214Y-41952380D02*
X212814404Y-41952380D01*
X212862023Y-42428571D01*
X212814404Y-42380952D01*
X212719166Y-42333333D01*
X212481071Y-42333333D01*
X212385833Y-42380952D01*
X212338214Y-42428571D01*
X212290595Y-42523809D01*
X212290595Y-42761904D01*
X212338214Y-42857142D01*
X212385833Y-42904761D01*
X212481071Y-42952380D01*
X212719166Y-42952380D01*
X212814404Y-42904761D01*
X212862023Y-42857142D01*
X212004880Y-41952380D02*
X211671547Y-42952380D01*
X211338214Y-41952380D01*
X212814404Y-40452380D02*
X212814404Y-39452380D01*
X212433452Y-39452380D01*
X212338214Y-39500000D01*
X212290595Y-39547619D01*
X212242976Y-39642857D01*
X212242976Y-39785714D01*
X212290595Y-39880952D01*
X212338214Y-39928571D01*
X212433452Y-39976190D01*
X212814404Y-39976190D01*
X211909642Y-39452380D02*
X211671547Y-40452380D01*
X211481071Y-39738095D01*
X211290595Y-40452380D01*
X211052500Y-39452380D01*
X210671547Y-40452380D02*
X210671547Y-39452380D01*
X210338214Y-40166666D01*
X210004880Y-39452380D01*
X210004880Y-40452380D01*
X212862023Y-37666666D02*
X212385833Y-37666666D01*
X212957261Y-37952380D02*
X212623928Y-36952380D01*
X212290595Y-37952380D01*
X211957261Y-37952380D02*
X211957261Y-36952380D01*
X211481071Y-37952380D02*
X211481071Y-36952380D01*
X210909642Y-37952380D01*
X210909642Y-36952380D01*
X176500000Y-56738095D02*
X176452380Y-56642857D01*
X176452380Y-56500000D01*
X176500000Y-56357142D01*
X176595238Y-56261904D01*
X176690476Y-56214285D01*
X176880952Y-56166666D01*
X177023809Y-56166666D01*
X177214285Y-56214285D01*
X177309523Y-56261904D01*
X177404761Y-56357142D01*
X177452380Y-56500000D01*
X177452380Y-56595238D01*
X177404761Y-56738095D01*
X177357142Y-56785714D01*
X177023809Y-56785714D01*
X177023809Y-56595238D01*
X177452380Y-57214285D02*
X176452380Y-57214285D01*
X177452380Y-57785714D01*
X176452380Y-57785714D01*
X177452380Y-58261904D02*
X176452380Y-58261904D01*
X176452380Y-58500000D01*
X176500000Y-58642857D01*
X176595238Y-58738095D01*
X176690476Y-58785714D01*
X176880952Y-58833333D01*
X177023809Y-58833333D01*
X177214285Y-58785714D01*
X177309523Y-58738095D01*
X177404761Y-58642857D01*
X177452380Y-58500000D01*
X177452380Y-58261904D01*
X160452380Y-57047619D02*
X161452380Y-57380952D01*
X160452380Y-57714285D01*
X161071428Y-58047619D02*
X161071428Y-58809523D01*
X161452380Y-58428571D02*
X160690476Y-58428571D01*
X167452380Y-31047619D02*
X168452380Y-31380952D01*
X167452380Y-31714285D01*
X168071428Y-32047619D02*
X168071428Y-32809523D01*
X168452380Y-32428571D02*
X167690476Y-32428571D01*
X176500000Y-31738095D02*
X176452380Y-31642857D01*
X176452380Y-31500000D01*
X176500000Y-31357142D01*
X176595238Y-31261904D01*
X176690476Y-31214285D01*
X176880952Y-31166666D01*
X177023809Y-31166666D01*
X177214285Y-31214285D01*
X177309523Y-31261904D01*
X177404761Y-31357142D01*
X177452380Y-31500000D01*
X177452380Y-31595238D01*
X177404761Y-31738095D01*
X177357142Y-31785714D01*
X177023809Y-31785714D01*
X177023809Y-31595238D01*
X177452380Y-32214285D02*
X176452380Y-32214285D01*
X177452380Y-32785714D01*
X176452380Y-32785714D01*
X177452380Y-33261904D02*
X176452380Y-33261904D01*
X176452380Y-33500000D01*
X176500000Y-33642857D01*
X176595238Y-33738095D01*
X176690476Y-33785714D01*
X176880952Y-33833333D01*
X177023809Y-33833333D01*
X177214285Y-33785714D01*
X177309523Y-33738095D01*
X177404761Y-33642857D01*
X177452380Y-33500000D01*
X177452380Y-33261904D01*
D11*
%TO.C,U3*%
X178301226Y-36440105D02*
X180101226Y-36440105D01*
X180101226Y-39660105D02*
X177651226Y-39660105D01*
%TO.C,R20*%
X179205000Y-43017064D02*
X179205000Y-42562936D01*
X180675000Y-43017064D02*
X180675000Y-42562936D01*
%TO.C,R19*%
X179205000Y-47427064D02*
X179205000Y-46972936D01*
X180675000Y-47427064D02*
X180675000Y-46972936D01*
%TO.C,D3*%
X168340000Y-58180000D02*
X169800000Y-58180000D01*
X168340000Y-55020000D02*
X170500000Y-55020000D01*
X168340000Y-55020000D02*
X168340000Y-55950000D01*
X168340000Y-58180000D02*
X168340000Y-57250000D01*
D12*
%TO.C,G\u002A\u002A\u002A*%
G36*
X187988222Y-49488222D02*
G01*
X189201778Y-49488222D01*
X189201778Y-49234222D01*
X187762444Y-49234222D01*
X187762444Y-50673556D01*
X187988222Y-50673556D01*
X187988222Y-49488222D01*
G37*
X187988222Y-49488222D02*
X189201778Y-49488222D01*
X189201778Y-49234222D01*
X187762444Y-49234222D01*
X187762444Y-50673556D01*
X187988222Y-50673556D01*
X187988222Y-49488222D01*
G36*
X193181111Y-49234222D02*
G01*
X191741778Y-49234222D01*
X191741778Y-49460000D01*
X192955333Y-49460000D01*
X192955333Y-50673556D01*
X193181111Y-50673556D01*
X193181111Y-49234222D01*
G37*
X193181111Y-49234222D02*
X191741778Y-49234222D01*
X191741778Y-49460000D01*
X192955333Y-49460000D01*
X192955333Y-50673556D01*
X193181111Y-50673556D01*
X193181111Y-49234222D01*
G36*
X191036086Y-50716025D02*
G01*
X191600388Y-50152252D01*
X191515745Y-50067608D01*
X191431102Y-49982965D01*
X190951440Y-50462005D01*
X190471778Y-50941044D01*
X189998753Y-50468633D01*
X189865205Y-50335903D01*
X189744925Y-50217586D01*
X189643623Y-50119200D01*
X189567009Y-50046262D01*
X189520792Y-50004288D01*
X189509783Y-49996222D01*
X189481372Y-50014672D01*
X189434595Y-50059295D01*
X189432475Y-50061541D01*
X189389487Y-50114984D01*
X189371120Y-50153066D01*
X189371111Y-50153535D01*
X189390329Y-50179711D01*
X189444562Y-50240187D01*
X189528678Y-50329585D01*
X189637542Y-50442529D01*
X189766024Y-50573643D01*
X189908989Y-50717550D01*
X189921448Y-50730003D01*
X190471784Y-51279797D01*
X191036086Y-50716025D01*
G37*
X191036086Y-50716025D02*
X191600388Y-50152252D01*
X191515745Y-50067608D01*
X191431102Y-49982965D01*
X190951440Y-50462005D01*
X190471778Y-50941044D01*
X189998753Y-50468633D01*
X189865205Y-50335903D01*
X189744925Y-50217586D01*
X189643623Y-50119200D01*
X189567009Y-50046262D01*
X189520792Y-50004288D01*
X189509783Y-49996222D01*
X189481372Y-50014672D01*
X189434595Y-50059295D01*
X189432475Y-50061541D01*
X189389487Y-50114984D01*
X189371120Y-50153066D01*
X189371111Y-50153535D01*
X189390329Y-50179711D01*
X189444562Y-50240187D01*
X189528678Y-50329585D01*
X189637542Y-50442529D01*
X189766024Y-50573643D01*
X189908989Y-50717550D01*
X189921448Y-50730003D01*
X190471784Y-51279797D01*
X191036086Y-50716025D01*
G36*
X188705031Y-53024989D02*
G01*
X188766483Y-52970715D01*
X188856738Y-52886539D01*
X188970377Y-52777600D01*
X189101980Y-52649037D01*
X189246126Y-52505989D01*
X189258222Y-52493889D01*
X189808012Y-51943556D01*
X189258222Y-51393222D01*
X189113294Y-51249223D01*
X188980470Y-51119292D01*
X188865170Y-51008567D01*
X188772813Y-50922188D01*
X188708818Y-50865293D01*
X188678607Y-50843021D01*
X188677802Y-50842889D01*
X188639322Y-50861811D01*
X188586119Y-50908007D01*
X188580004Y-50914386D01*
X188512836Y-50985883D01*
X188991051Y-51464719D01*
X189469266Y-51943556D01*
X188512836Y-52901228D01*
X188580004Y-52972725D01*
X188633511Y-53021052D01*
X188674802Y-53043938D01*
X188677802Y-53044222D01*
X188705031Y-53024989D01*
G37*
X188705031Y-53024989D02*
X188766483Y-52970715D01*
X188856738Y-52886539D01*
X188970377Y-52777600D01*
X189101980Y-52649037D01*
X189246126Y-52505989D01*
X189258222Y-52493889D01*
X189808012Y-51943556D01*
X189258222Y-51393222D01*
X189113294Y-51249223D01*
X188980470Y-51119292D01*
X188865170Y-51008567D01*
X188772813Y-50922188D01*
X188708818Y-50865293D01*
X188678607Y-50843021D01*
X188677802Y-50842889D01*
X188639322Y-50861811D01*
X188586119Y-50908007D01*
X188580004Y-50914386D01*
X188512836Y-50985883D01*
X188991051Y-51464719D01*
X189469266Y-51943556D01*
X188512836Y-52901228D01*
X188580004Y-52972725D01*
X188633511Y-53021052D01*
X188674802Y-53043938D01*
X188677802Y-53044222D01*
X188705031Y-53024989D01*
G36*
X192304233Y-53025300D02*
G01*
X192357436Y-52979105D01*
X192363551Y-52972725D01*
X192430719Y-52901228D01*
X191474289Y-51943556D01*
X191952504Y-51464719D01*
X192430719Y-50985883D01*
X192363551Y-50914386D01*
X192310044Y-50866059D01*
X192268753Y-50843173D01*
X192265753Y-50842889D01*
X192238524Y-50862122D01*
X192177072Y-50916396D01*
X192086817Y-51000572D01*
X191973178Y-51109511D01*
X191841575Y-51238074D01*
X191697429Y-51381122D01*
X191685333Y-51393222D01*
X191135543Y-51943556D01*
X191685333Y-52493889D01*
X191830261Y-52637888D01*
X191963085Y-52767819D01*
X192078385Y-52878544D01*
X192170742Y-52964924D01*
X192234737Y-53021819D01*
X192264948Y-53044090D01*
X192265753Y-53044222D01*
X192304233Y-53025300D01*
G37*
X192304233Y-53025300D02*
X192357436Y-52979105D01*
X192363551Y-52972725D01*
X192430719Y-52901228D01*
X191474289Y-51943556D01*
X191952504Y-51464719D01*
X192430719Y-50985883D01*
X192363551Y-50914386D01*
X192310044Y-50866059D01*
X192268753Y-50843173D01*
X192265753Y-50842889D01*
X192238524Y-50862122D01*
X192177072Y-50916396D01*
X192086817Y-51000572D01*
X191973178Y-51109511D01*
X191841575Y-51238074D01*
X191697429Y-51381122D01*
X191685333Y-51393222D01*
X191135543Y-51943556D01*
X191685333Y-52493889D01*
X191830261Y-52637888D01*
X191963085Y-52767819D01*
X192078385Y-52878544D01*
X192170742Y-52964924D01*
X192234737Y-53021819D01*
X192264948Y-53044090D01*
X192265753Y-53044222D01*
X192304233Y-53025300D01*
G36*
X191516026Y-53848530D02*
G01*
X191602215Y-53765956D01*
X191044317Y-53207533D01*
X190899079Y-53062663D01*
X190766888Y-52931769D01*
X190652946Y-52819927D01*
X190562460Y-52732214D01*
X190500633Y-52673706D01*
X190472671Y-52649479D01*
X190471771Y-52649111D01*
X190448788Y-52668283D01*
X190391281Y-52722388D01*
X190304498Y-52806308D01*
X190193689Y-52914925D01*
X190064102Y-53043122D01*
X189920987Y-53185781D01*
X189908101Y-53198676D01*
X189359078Y-53748241D01*
X189441650Y-53834428D01*
X189524223Y-53920615D01*
X189998000Y-53447452D01*
X190471778Y-52974289D01*
X190950807Y-53452697D01*
X191429837Y-53931105D01*
X191516026Y-53848530D01*
G37*
X191516026Y-53848530D02*
X191602215Y-53765956D01*
X191044317Y-53207533D01*
X190899079Y-53062663D01*
X190766888Y-52931769D01*
X190652946Y-52819927D01*
X190562460Y-52732214D01*
X190500633Y-52673706D01*
X190472671Y-52649479D01*
X190471771Y-52649111D01*
X190448788Y-52668283D01*
X190391281Y-52722388D01*
X190304498Y-52806308D01*
X190193689Y-52914925D01*
X190064102Y-53043122D01*
X189920987Y-53185781D01*
X189908101Y-53198676D01*
X189359078Y-53748241D01*
X189441650Y-53834428D01*
X189524223Y-53920615D01*
X189998000Y-53447452D01*
X190471778Y-52974289D01*
X190950807Y-53452697D01*
X191429837Y-53931105D01*
X191516026Y-53848530D01*
G36*
X189201778Y-54427111D02*
G01*
X187988222Y-54427111D01*
X187988222Y-53241778D01*
X187762444Y-53241778D01*
X187762444Y-54652889D01*
X189201778Y-54652889D01*
X189201778Y-54427111D01*
G37*
X189201778Y-54427111D02*
X187988222Y-54427111D01*
X187988222Y-53241778D01*
X187762444Y-53241778D01*
X187762444Y-54652889D01*
X189201778Y-54652889D01*
X189201778Y-54427111D01*
G36*
X193181111Y-53241778D02*
G01*
X192955333Y-53241778D01*
X192955333Y-54427111D01*
X191741778Y-54427111D01*
X191741778Y-54652889D01*
X193181111Y-54652889D01*
X193181111Y-53241778D01*
G37*
X193181111Y-53241778D02*
X192955333Y-53241778D01*
X192955333Y-54427111D01*
X191741778Y-54427111D01*
X191741778Y-54652889D01*
X193181111Y-54652889D01*
X193181111Y-53241778D01*
%TO.C,REF\u002A\u002A*%
G36*
X185177906Y-52041158D02*
G01*
X185145381Y-52053736D01*
X185095807Y-52078712D01*
X185024626Y-52117876D01*
X185019084Y-52120988D01*
X184953526Y-52158476D01*
X184898202Y-52191319D01*
X184858545Y-52216205D01*
X184839988Y-52229820D01*
X184839469Y-52230487D01*
X184843952Y-52249390D01*
X184864514Y-52291605D01*
X184899817Y-52354832D01*
X184948520Y-52436772D01*
X185009282Y-52535122D01*
X185080764Y-52647585D01*
X185098555Y-52675165D01*
X185144907Y-52751699D01*
X185178658Y-52817556D01*
X185196847Y-52866782D01*
X185198714Y-52876507D01*
X185197885Y-52919312D01*
X185188606Y-52987209D01*
X185172032Y-53075843D01*
X185149320Y-53180859D01*
X185121627Y-53297902D01*
X185090110Y-53422616D01*
X185055925Y-53550645D01*
X185020229Y-53677634D01*
X184984179Y-53799228D01*
X184948932Y-53911072D01*
X184915644Y-54008810D01*
X184885472Y-54088087D01*
X184864439Y-54135122D01*
X184839663Y-54185225D01*
X184816270Y-54233168D01*
X184815003Y-54235793D01*
X184776301Y-54284220D01*
X184719816Y-54316828D01*
X184654061Y-54332454D01*
X184587549Y-54329937D01*
X184528795Y-54308114D01*
X184495742Y-54279382D01*
X184448141Y-54200583D01*
X184413261Y-54102378D01*
X184394123Y-53994779D01*
X184391412Y-53933780D01*
X184402330Y-53819935D01*
X184434376Y-53725660D01*
X184489274Y-53646379D01*
X184506393Y-53628733D01*
X184557339Y-53579235D01*
X184560837Y-53229362D01*
X184564336Y-52879489D01*
X184475182Y-52744531D01*
X184433346Y-52683445D01*
X184393055Y-52628493D01*
X184360057Y-52587336D01*
X184345874Y-52572192D01*
X184305719Y-52534810D01*
X184251335Y-52564098D01*
X184216961Y-52585084D01*
X184198154Y-52601378D01*
X184196951Y-52604307D01*
X184184097Y-52616728D01*
X184162104Y-52625977D01*
X184140850Y-52634313D01*
X184108306Y-52650149D01*
X184061678Y-52675033D01*
X183998171Y-52710509D01*
X183914992Y-52758123D01*
X183809347Y-52819422D01*
X183751938Y-52852932D01*
X183684406Y-52893071D01*
X183640115Y-52921659D01*
X183615145Y-52942039D01*
X183605577Y-52957553D01*
X183607492Y-52971546D01*
X183609089Y-52974796D01*
X183624624Y-52995266D01*
X183657864Y-53033665D01*
X183704938Y-53085696D01*
X183761972Y-53147066D01*
X183811300Y-53199090D01*
X183924970Y-53322567D01*
X184013895Y-53429591D01*
X184078866Y-53521240D01*
X184120679Y-53598588D01*
X184134783Y-53637866D01*
X184140608Y-53672249D01*
X184146625Y-53730899D01*
X184152304Y-53807117D01*
X184157116Y-53894202D01*
X184159381Y-53949268D01*
X184162541Y-54044464D01*
X184163931Y-54114062D01*
X184163142Y-54163409D01*
X184159765Y-54197854D01*
X184153392Y-54222743D01*
X184143613Y-54243425D01*
X184135933Y-54256053D01*
X184091579Y-54304726D01*
X184034426Y-54338645D01*
X183974292Y-54353438D01*
X183929227Y-54348086D01*
X183888424Y-54324930D01*
X183837276Y-54283462D01*
X183782958Y-54230912D01*
X183732643Y-54174516D01*
X183693506Y-54121505D01*
X183679095Y-54095889D01*
X183657509Y-54060814D01*
X183618247Y-54007389D01*
X183564898Y-53939789D01*
X183501048Y-53862190D01*
X183430285Y-53778768D01*
X183356196Y-53693698D01*
X183282368Y-53611155D01*
X183212389Y-53535316D01*
X183149845Y-53470356D01*
X183100740Y-53422669D01*
X183046221Y-53375032D01*
X183000358Y-53339908D01*
X182968189Y-53320949D01*
X182957511Y-53318864D01*
X182941147Y-53327274D01*
X182900329Y-53349846D01*
X182837414Y-53385224D01*
X182754756Y-53432054D01*
X182654711Y-53488981D01*
X182539634Y-53554649D01*
X182411881Y-53627703D01*
X182273806Y-53706788D01*
X182127766Y-53790548D01*
X181976116Y-53877629D01*
X181821210Y-53966676D01*
X181665405Y-54056332D01*
X181511056Y-54145243D01*
X181360518Y-54232054D01*
X181216146Y-54315409D01*
X181080296Y-54393954D01*
X180955323Y-54466333D01*
X180843583Y-54531190D01*
X180747430Y-54587171D01*
X180669221Y-54632920D01*
X180611311Y-54667083D01*
X180576054Y-54688304D01*
X180565835Y-54694963D01*
X180579598Y-54696280D01*
X180622896Y-54697559D01*
X180694286Y-54698796D01*
X180792327Y-54699983D01*
X180915578Y-54701115D01*
X181062597Y-54702186D01*
X181231943Y-54703189D01*
X181422174Y-54704119D01*
X181631849Y-54704968D01*
X181859527Y-54705732D01*
X182103765Y-54706403D01*
X182363123Y-54706976D01*
X182636159Y-54707444D01*
X182921432Y-54707802D01*
X183217500Y-54708042D01*
X183522921Y-54708159D01*
X183651076Y-54708171D01*
X186751030Y-54708171D01*
X186529947Y-54324847D01*
X186483144Y-54243680D01*
X186422898Y-54139166D01*
X186351222Y-54014801D01*
X186270131Y-53874082D01*
X186181638Y-53720503D01*
X186087760Y-53557562D01*
X185990509Y-53388754D01*
X185891900Y-53217575D01*
X185793947Y-53047521D01*
X185769175Y-53004512D01*
X185678848Y-52847857D01*
X185592711Y-52698803D01*
X185512058Y-52559568D01*
X185438184Y-52432371D01*
X185372383Y-52319432D01*
X185315950Y-52222968D01*
X185270179Y-52145200D01*
X185236365Y-52088346D01*
X185215802Y-52054625D01*
X185210047Y-52046040D01*
X185197942Y-52039189D01*
X185177906Y-52041158D01*
G37*
X185177906Y-52041158D02*
X185145381Y-52053736D01*
X185095807Y-52078712D01*
X185024626Y-52117876D01*
X185019084Y-52120988D01*
X184953526Y-52158476D01*
X184898202Y-52191319D01*
X184858545Y-52216205D01*
X184839988Y-52229820D01*
X184839469Y-52230487D01*
X184843952Y-52249390D01*
X184864514Y-52291605D01*
X184899817Y-52354832D01*
X184948520Y-52436772D01*
X185009282Y-52535122D01*
X185080764Y-52647585D01*
X185098555Y-52675165D01*
X185144907Y-52751699D01*
X185178658Y-52817556D01*
X185196847Y-52866782D01*
X185198714Y-52876507D01*
X185197885Y-52919312D01*
X185188606Y-52987209D01*
X185172032Y-53075843D01*
X185149320Y-53180859D01*
X185121627Y-53297902D01*
X185090110Y-53422616D01*
X185055925Y-53550645D01*
X185020229Y-53677634D01*
X184984179Y-53799228D01*
X184948932Y-53911072D01*
X184915644Y-54008810D01*
X184885472Y-54088087D01*
X184864439Y-54135122D01*
X184839663Y-54185225D01*
X184816270Y-54233168D01*
X184815003Y-54235793D01*
X184776301Y-54284220D01*
X184719816Y-54316828D01*
X184654061Y-54332454D01*
X184587549Y-54329937D01*
X184528795Y-54308114D01*
X184495742Y-54279382D01*
X184448141Y-54200583D01*
X184413261Y-54102378D01*
X184394123Y-53994779D01*
X184391412Y-53933780D01*
X184402330Y-53819935D01*
X184434376Y-53725660D01*
X184489274Y-53646379D01*
X184506393Y-53628733D01*
X184557339Y-53579235D01*
X184560837Y-53229362D01*
X184564336Y-52879489D01*
X184475182Y-52744531D01*
X184433346Y-52683445D01*
X184393055Y-52628493D01*
X184360057Y-52587336D01*
X184345874Y-52572192D01*
X184305719Y-52534810D01*
X184251335Y-52564098D01*
X184216961Y-52585084D01*
X184198154Y-52601378D01*
X184196951Y-52604307D01*
X184184097Y-52616728D01*
X184162104Y-52625977D01*
X184140850Y-52634313D01*
X184108306Y-52650149D01*
X184061678Y-52675033D01*
X183998171Y-52710509D01*
X183914992Y-52758123D01*
X183809347Y-52819422D01*
X183751938Y-52852932D01*
X183684406Y-52893071D01*
X183640115Y-52921659D01*
X183615145Y-52942039D01*
X183605577Y-52957553D01*
X183607492Y-52971546D01*
X183609089Y-52974796D01*
X183624624Y-52995266D01*
X183657864Y-53033665D01*
X183704938Y-53085696D01*
X183761972Y-53147066D01*
X183811300Y-53199090D01*
X183924970Y-53322567D01*
X184013895Y-53429591D01*
X184078866Y-53521240D01*
X184120679Y-53598588D01*
X184134783Y-53637866D01*
X184140608Y-53672249D01*
X184146625Y-53730899D01*
X184152304Y-53807117D01*
X184157116Y-53894202D01*
X184159381Y-53949268D01*
X184162541Y-54044464D01*
X184163931Y-54114062D01*
X184163142Y-54163409D01*
X184159765Y-54197854D01*
X184153392Y-54222743D01*
X184143613Y-54243425D01*
X184135933Y-54256053D01*
X184091579Y-54304726D01*
X184034426Y-54338645D01*
X183974292Y-54353438D01*
X183929227Y-54348086D01*
X183888424Y-54324930D01*
X183837276Y-54283462D01*
X183782958Y-54230912D01*
X183732643Y-54174516D01*
X183693506Y-54121505D01*
X183679095Y-54095889D01*
X183657509Y-54060814D01*
X183618247Y-54007389D01*
X183564898Y-53939789D01*
X183501048Y-53862190D01*
X183430285Y-53778768D01*
X183356196Y-53693698D01*
X183282368Y-53611155D01*
X183212389Y-53535316D01*
X183149845Y-53470356D01*
X183100740Y-53422669D01*
X183046221Y-53375032D01*
X183000358Y-53339908D01*
X182968189Y-53320949D01*
X182957511Y-53318864D01*
X182941147Y-53327274D01*
X182900329Y-53349846D01*
X182837414Y-53385224D01*
X182754756Y-53432054D01*
X182654711Y-53488981D01*
X182539634Y-53554649D01*
X182411881Y-53627703D01*
X182273806Y-53706788D01*
X182127766Y-53790548D01*
X181976116Y-53877629D01*
X181821210Y-53966676D01*
X181665405Y-54056332D01*
X181511056Y-54145243D01*
X181360518Y-54232054D01*
X181216146Y-54315409D01*
X181080296Y-54393954D01*
X180955323Y-54466333D01*
X180843583Y-54531190D01*
X180747430Y-54587171D01*
X180669221Y-54632920D01*
X180611311Y-54667083D01*
X180576054Y-54688304D01*
X180565835Y-54694963D01*
X180579598Y-54696280D01*
X180622896Y-54697559D01*
X180694286Y-54698796D01*
X180792327Y-54699983D01*
X180915578Y-54701115D01*
X181062597Y-54702186D01*
X181231943Y-54703189D01*
X181422174Y-54704119D01*
X181631849Y-54704968D01*
X181859527Y-54705732D01*
X182103765Y-54706403D01*
X182363123Y-54706976D01*
X182636159Y-54707444D01*
X182921432Y-54707802D01*
X183217500Y-54708042D01*
X183522921Y-54708159D01*
X183651076Y-54708171D01*
X186751030Y-54708171D01*
X186529947Y-54324847D01*
X186483144Y-54243680D01*
X186422898Y-54139166D01*
X186351222Y-54014801D01*
X186270131Y-53874082D01*
X186181638Y-53720503D01*
X186087760Y-53557562D01*
X185990509Y-53388754D01*
X185891900Y-53217575D01*
X185793947Y-53047521D01*
X185769175Y-53004512D01*
X185678848Y-52847857D01*
X185592711Y-52698803D01*
X185512058Y-52559568D01*
X185438184Y-52432371D01*
X185372383Y-52319432D01*
X185315950Y-52222968D01*
X185270179Y-52145200D01*
X185236365Y-52088346D01*
X185215802Y-52054625D01*
X185210047Y-52046040D01*
X185197942Y-52039189D01*
X185177906Y-52041158D01*
G36*
X181512472Y-51984619D02*
G01*
X181501092Y-52003693D01*
X181475512Y-52047421D01*
X181436998Y-52113619D01*
X181386814Y-52200102D01*
X181326225Y-52304685D01*
X181256497Y-52425183D01*
X181178893Y-52559412D01*
X181094680Y-52705187D01*
X181005121Y-52860323D01*
X180913002Y-53020000D01*
X180818924Y-53183117D01*
X180728598Y-53339709D01*
X180643335Y-53487506D01*
X180564443Y-53624240D01*
X180493231Y-53747642D01*
X180431009Y-53855444D01*
X180379087Y-53945377D01*
X180338772Y-54015173D01*
X180311376Y-54062564D01*
X180298493Y-54084786D01*
X180277493Y-54122330D01*
X180266075Y-54145831D01*
X180265449Y-54149920D01*
X180279364Y-54142242D01*
X180318059Y-54120203D01*
X180379513Y-54084971D01*
X180461702Y-54037711D01*
X180562604Y-53979589D01*
X180680195Y-53911771D01*
X180812454Y-53835424D01*
X180957358Y-53751714D01*
X181112883Y-53661806D01*
X181277008Y-53566867D01*
X181339451Y-53530732D01*
X181506513Y-53434083D01*
X181665926Y-53341938D01*
X181815645Y-53255475D01*
X181953624Y-53175871D01*
X182077815Y-53104305D01*
X182186173Y-53041955D01*
X182276652Y-52989998D01*
X182347204Y-52949613D01*
X182395785Y-52921978D01*
X182420346Y-52908272D01*
X182422915Y-52906974D01*
X182415431Y-52895220D01*
X182389386Y-52863795D01*
X182347441Y-52815594D01*
X182292254Y-52753510D01*
X182226483Y-52680439D01*
X182152788Y-52599276D01*
X182073827Y-52512916D01*
X181992260Y-52424253D01*
X181910746Y-52336182D01*
X181831943Y-52251599D01*
X181758510Y-52173397D01*
X181693107Y-52104472D01*
X181638392Y-52047719D01*
X181597023Y-52006032D01*
X181582836Y-51992363D01*
X181535820Y-51948201D01*
X181512472Y-51984619D01*
G37*
X181512472Y-51984619D02*
X181501092Y-52003693D01*
X181475512Y-52047421D01*
X181436998Y-52113619D01*
X181386814Y-52200102D01*
X181326225Y-52304685D01*
X181256497Y-52425183D01*
X181178893Y-52559412D01*
X181094680Y-52705187D01*
X181005121Y-52860323D01*
X180913002Y-53020000D01*
X180818924Y-53183117D01*
X180728598Y-53339709D01*
X180643335Y-53487506D01*
X180564443Y-53624240D01*
X180493231Y-53747642D01*
X180431009Y-53855444D01*
X180379087Y-53945377D01*
X180338772Y-54015173D01*
X180311376Y-54062564D01*
X180298493Y-54084786D01*
X180277493Y-54122330D01*
X180266075Y-54145831D01*
X180265449Y-54149920D01*
X180279364Y-54142242D01*
X180318059Y-54120203D01*
X180379513Y-54084971D01*
X180461702Y-54037711D01*
X180562604Y-53979589D01*
X180680195Y-53911771D01*
X180812454Y-53835424D01*
X180957358Y-53751714D01*
X181112883Y-53661806D01*
X181277008Y-53566867D01*
X181339451Y-53530732D01*
X181506513Y-53434083D01*
X181665926Y-53341938D01*
X181815645Y-53255475D01*
X181953624Y-53175871D01*
X182077815Y-53104305D01*
X182186173Y-53041955D01*
X182276652Y-52989998D01*
X182347204Y-52949613D01*
X182395785Y-52921978D01*
X182420346Y-52908272D01*
X182422915Y-52906974D01*
X182415431Y-52895220D01*
X182389386Y-52863795D01*
X182347441Y-52815594D01*
X182292254Y-52753510D01*
X182226483Y-52680439D01*
X182152788Y-52599276D01*
X182073827Y-52512916D01*
X181992260Y-52424253D01*
X181910746Y-52336182D01*
X181831943Y-52251599D01*
X181758510Y-52173397D01*
X181693107Y-52104472D01*
X181638392Y-52047719D01*
X181597023Y-52006032D01*
X181582836Y-51992363D01*
X181535820Y-51948201D01*
X181512472Y-51984619D01*
G36*
X183335957Y-48835835D02*
G01*
X183312935Y-48873245D01*
X183277466Y-48932514D01*
X183231004Y-49011118D01*
X183175004Y-49106538D01*
X183110919Y-49216250D01*
X183040204Y-49337734D01*
X182964313Y-49468468D01*
X182884701Y-49605930D01*
X182802822Y-49747598D01*
X182720130Y-49890951D01*
X182638079Y-50033467D01*
X182558124Y-50172624D01*
X182481719Y-50305901D01*
X182410318Y-50430776D01*
X182345376Y-50544727D01*
X182288347Y-50645233D01*
X182240685Y-50729772D01*
X182203845Y-50795822D01*
X182179280Y-50840862D01*
X182168446Y-50862370D01*
X182168049Y-50863714D01*
X182181499Y-50881965D01*
X182218886Y-50909882D01*
X182275765Y-50944725D01*
X182347688Y-50983754D01*
X182422985Y-51020843D01*
X182525440Y-51065817D01*
X182633183Y-51106226D01*
X182749927Y-51142969D01*
X182879382Y-51176942D01*
X183025260Y-51209044D01*
X183191274Y-51240173D01*
X183381134Y-51271227D01*
X183577531Y-51300145D01*
X183748166Y-51325800D01*
X183891455Y-51351198D01*
X184010992Y-51377602D01*
X184110370Y-51406273D01*
X184193182Y-51438473D01*
X184263022Y-51475465D01*
X184323482Y-51518512D01*
X184378155Y-51568875D01*
X184395786Y-51587583D01*
X184434000Y-51631139D01*
X184462268Y-51666682D01*
X184475382Y-51687583D01*
X184475732Y-51689297D01*
X184480320Y-51699806D01*
X184496242Y-51699924D01*
X184526734Y-51688254D01*
X184575032Y-51663396D01*
X184644373Y-51623952D01*
X184692561Y-51595587D01*
X184764417Y-51551247D01*
X184820258Y-51513279D01*
X184856333Y-51484416D01*
X184868887Y-51467388D01*
X184868879Y-51467264D01*
X184861094Y-51451037D01*
X184839108Y-51410400D01*
X184804197Y-51347567D01*
X184757637Y-51264752D01*
X184700705Y-51164172D01*
X184634677Y-51048040D01*
X184560828Y-50918571D01*
X184480436Y-50777980D01*
X184394776Y-50628482D01*
X184305124Y-50472292D01*
X184212757Y-50311624D01*
X184118951Y-50148693D01*
X184024982Y-49985713D01*
X183932126Y-49824900D01*
X183841660Y-49668468D01*
X183754859Y-49518633D01*
X183673000Y-49377608D01*
X183597359Y-49247609D01*
X183529213Y-49130849D01*
X183469837Y-49029545D01*
X183420507Y-48945911D01*
X183382500Y-48882162D01*
X183357093Y-48840511D01*
X183345560Y-48823175D01*
X183345077Y-48822805D01*
X183335957Y-48835835D01*
G37*
X183335957Y-48835835D02*
X183312935Y-48873245D01*
X183277466Y-48932514D01*
X183231004Y-49011118D01*
X183175004Y-49106538D01*
X183110919Y-49216250D01*
X183040204Y-49337734D01*
X182964313Y-49468468D01*
X182884701Y-49605930D01*
X182802822Y-49747598D01*
X182720130Y-49890951D01*
X182638079Y-50033467D01*
X182558124Y-50172624D01*
X182481719Y-50305901D01*
X182410318Y-50430776D01*
X182345376Y-50544727D01*
X182288347Y-50645233D01*
X182240685Y-50729772D01*
X182203845Y-50795822D01*
X182179280Y-50840862D01*
X182168446Y-50862370D01*
X182168049Y-50863714D01*
X182181499Y-50881965D01*
X182218886Y-50909882D01*
X182275765Y-50944725D01*
X182347688Y-50983754D01*
X182422985Y-51020843D01*
X182525440Y-51065817D01*
X182633183Y-51106226D01*
X182749927Y-51142969D01*
X182879382Y-51176942D01*
X183025260Y-51209044D01*
X183191274Y-51240173D01*
X183381134Y-51271227D01*
X183577531Y-51300145D01*
X183748166Y-51325800D01*
X183891455Y-51351198D01*
X184010992Y-51377602D01*
X184110370Y-51406273D01*
X184193182Y-51438473D01*
X184263022Y-51475465D01*
X184323482Y-51518512D01*
X184378155Y-51568875D01*
X184395786Y-51587583D01*
X184434000Y-51631139D01*
X184462268Y-51666682D01*
X184475382Y-51687583D01*
X184475732Y-51689297D01*
X184480320Y-51699806D01*
X184496242Y-51699924D01*
X184526734Y-51688254D01*
X184575032Y-51663396D01*
X184644373Y-51623952D01*
X184692561Y-51595587D01*
X184764417Y-51551247D01*
X184820258Y-51513279D01*
X184856333Y-51484416D01*
X184868887Y-51467388D01*
X184868879Y-51467264D01*
X184861094Y-51451037D01*
X184839108Y-51410400D01*
X184804197Y-51347567D01*
X184757637Y-51264752D01*
X184700705Y-51164172D01*
X184634677Y-51048040D01*
X184560828Y-50918571D01*
X184480436Y-50777980D01*
X184394776Y-50628482D01*
X184305124Y-50472292D01*
X184212757Y-50311624D01*
X184118951Y-50148693D01*
X184024982Y-49985713D01*
X183932126Y-49824900D01*
X183841660Y-49668468D01*
X183754859Y-49518633D01*
X183673000Y-49377608D01*
X183597359Y-49247609D01*
X183529213Y-49130849D01*
X183469837Y-49029545D01*
X183420507Y-48945911D01*
X183382500Y-48882162D01*
X183357093Y-48840511D01*
X183345560Y-48823175D01*
X183345077Y-48822805D01*
X183335957Y-48835835D01*
D11*
%TO.C,D2*%
X189400000Y-35160000D02*
X186540000Y-35160000D01*
X186540000Y-35160000D02*
X186540000Y-33240000D01*
X186540000Y-33240000D02*
X189400000Y-33240000D01*
%TO.C,R18*%
X199727064Y-38235000D02*
X199272936Y-38235000D01*
X199727064Y-36765000D02*
X199272936Y-36765000D01*
%TO.C,R17*%
X199727064Y-40735000D02*
X199272936Y-40735000D01*
X199727064Y-39265000D02*
X199272936Y-39265000D01*
%TO.C,R13*%
X206735000Y-47172936D02*
X206735000Y-47627064D01*
X205265000Y-47172936D02*
X205265000Y-47627064D01*
%TO.C,C16*%
X202765000Y-47661252D02*
X202765000Y-47138748D01*
X204235000Y-47661252D02*
X204235000Y-47138748D01*
%TO.C,C17*%
X202765000Y-51661252D02*
X202765000Y-51138748D01*
X204235000Y-51661252D02*
X204235000Y-51138748D01*
%TO.C,R14*%
X206735000Y-51172936D02*
X206735000Y-51627064D01*
X205265000Y-51172936D02*
X205265000Y-51627064D01*
%TO.C,C15*%
X202765000Y-43761252D02*
X202765000Y-43238748D01*
X204235000Y-43761252D02*
X204235000Y-43238748D01*
%TO.C,R15*%
X188172936Y-31265000D02*
X188627064Y-31265000D01*
X188172936Y-32735000D02*
X188627064Y-32735000D01*
%TO.C,R12*%
X206735000Y-43272936D02*
X206735000Y-43727064D01*
X205265000Y-43272936D02*
X205265000Y-43727064D01*
%TO.C,R11*%
X179427064Y-34065000D02*
X178972936Y-34065000D01*
X179427064Y-35535000D02*
X178972936Y-35535000D01*
%TO.C,R10*%
X178972936Y-33535000D02*
X179427064Y-33535000D01*
X178972936Y-32065000D02*
X179427064Y-32065000D01*
%TO.C,R8*%
X197027064Y-43865000D02*
X196572936Y-43865000D01*
X197027064Y-45335000D02*
X196572936Y-45335000D01*
%TO.C,R7*%
X170322936Y-43290000D02*
X174677064Y-43290000D01*
X170322936Y-46710000D02*
X174677064Y-46710000D01*
%TO.C,Q4*%
X160940000Y-48615000D02*
X160940000Y-48315000D01*
X160940000Y-53385000D02*
X160940000Y-53685000D01*
X167060000Y-53335000D02*
X167060000Y-53685000D01*
X160940000Y-48315000D02*
X167060000Y-48315000D01*
X160940000Y-53685000D02*
X167060000Y-53685000D01*
%TO.C,Q2*%
X160940000Y-36615000D02*
X160940000Y-36315000D01*
X160940000Y-41385000D02*
X160940000Y-41685000D01*
X167060000Y-41335000D02*
X167060000Y-41685000D01*
X160940000Y-36315000D02*
X167060000Y-36315000D01*
X160940000Y-41685000D02*
X167060000Y-41685000D01*
%TO.C,Q6*%
X160890000Y-42615000D02*
X160890000Y-42315000D01*
X160890000Y-47385000D02*
X160890000Y-47685000D01*
X167010000Y-47335000D02*
X167010000Y-47685000D01*
X160890000Y-42315000D02*
X167010000Y-42315000D01*
X160890000Y-47685000D02*
X167010000Y-47685000D01*
%TO.C,U3*%
D10*
X179963130Y-40402485D02*
X179963130Y-41212009D01*
X179915511Y-41307247D01*
X179867892Y-41354866D01*
X179772654Y-41402485D01*
X179582178Y-41402485D01*
X179486940Y-41354866D01*
X179439321Y-41307247D01*
X179391702Y-41212009D01*
X179391702Y-40402485D01*
X179010749Y-40402485D02*
X178391702Y-40402485D01*
X178725035Y-40783438D01*
X178582178Y-40783438D01*
X178486940Y-40831057D01*
X178439321Y-40878676D01*
X178391702Y-40973914D01*
X178391702Y-41212009D01*
X178439321Y-41307247D01*
X178486940Y-41354866D01*
X178582178Y-41402485D01*
X178867892Y-41402485D01*
X178963130Y-41354866D01*
X179010749Y-41307247D01*
%TO.C,R20*%
X182042380Y-42147142D02*
X181566190Y-41813809D01*
X182042380Y-41575714D02*
X181042380Y-41575714D01*
X181042380Y-41956666D01*
X181090000Y-42051904D01*
X181137619Y-42099523D01*
X181232857Y-42147142D01*
X181375714Y-42147142D01*
X181470952Y-42099523D01*
X181518571Y-42051904D01*
X181566190Y-41956666D01*
X181566190Y-41575714D01*
X181137619Y-42528095D02*
X181090000Y-42575714D01*
X181042380Y-42670952D01*
X181042380Y-42909047D01*
X181090000Y-43004285D01*
X181137619Y-43051904D01*
X181232857Y-43099523D01*
X181328095Y-43099523D01*
X181470952Y-43051904D01*
X182042380Y-42480476D01*
X182042380Y-43099523D01*
X181042380Y-43718571D02*
X181042380Y-43813809D01*
X181090000Y-43909047D01*
X181137619Y-43956666D01*
X181232857Y-44004285D01*
X181423333Y-44051904D01*
X181661428Y-44051904D01*
X181851904Y-44004285D01*
X181947142Y-43956666D01*
X181994761Y-43909047D01*
X182042380Y-43813809D01*
X182042380Y-43718571D01*
X181994761Y-43623333D01*
X181947142Y-43575714D01*
X181851904Y-43528095D01*
X181661428Y-43480476D01*
X181423333Y-43480476D01*
X181232857Y-43528095D01*
X181137619Y-43575714D01*
X181090000Y-43623333D01*
X181042380Y-43718571D01*
%TO.C,R19*%
X182042380Y-46557142D02*
X181566190Y-46223809D01*
X182042380Y-45985714D02*
X181042380Y-45985714D01*
X181042380Y-46366666D01*
X181090000Y-46461904D01*
X181137619Y-46509523D01*
X181232857Y-46557142D01*
X181375714Y-46557142D01*
X181470952Y-46509523D01*
X181518571Y-46461904D01*
X181566190Y-46366666D01*
X181566190Y-45985714D01*
X182042380Y-47509523D02*
X182042380Y-46938095D01*
X182042380Y-47223809D02*
X181042380Y-47223809D01*
X181185238Y-47128571D01*
X181280476Y-47033333D01*
X181328095Y-46938095D01*
X182042380Y-47985714D02*
X182042380Y-48176190D01*
X181994761Y-48271428D01*
X181947142Y-48319047D01*
X181804285Y-48414285D01*
X181613809Y-48461904D01*
X181232857Y-48461904D01*
X181137619Y-48414285D01*
X181090000Y-48366666D01*
X181042380Y-48271428D01*
X181042380Y-48080952D01*
X181090000Y-47985714D01*
X181137619Y-47938095D01*
X181232857Y-47890476D01*
X181470952Y-47890476D01*
X181566190Y-47938095D01*
X181613809Y-47985714D01*
X181661428Y-48080952D01*
X181661428Y-48271428D01*
X181613809Y-48366666D01*
X181566190Y-48414285D01*
X181470952Y-48461904D01*
%TO.C,D3*%
X169838095Y-54552380D02*
X169838095Y-53552380D01*
X169600000Y-53552380D01*
X169457142Y-53600000D01*
X169361904Y-53695238D01*
X169314285Y-53790476D01*
X169266666Y-53980952D01*
X169266666Y-54123809D01*
X169314285Y-54314285D01*
X169361904Y-54409523D01*
X169457142Y-54504761D01*
X169600000Y-54552380D01*
X169838095Y-54552380D01*
X168933333Y-53552380D02*
X168314285Y-53552380D01*
X168647619Y-53933333D01*
X168504761Y-53933333D01*
X168409523Y-53980952D01*
X168361904Y-54028571D01*
X168314285Y-54123809D01*
X168314285Y-54361904D01*
X168361904Y-54457142D01*
X168409523Y-54504761D01*
X168504761Y-54552380D01*
X168790476Y-54552380D01*
X168885714Y-54504761D01*
X168933333Y-54457142D01*
%TO.C,D2*%
X186202380Y-33511904D02*
X185202380Y-33511904D01*
X185202380Y-33750000D01*
X185250000Y-33892857D01*
X185345238Y-33988095D01*
X185440476Y-34035714D01*
X185630952Y-34083333D01*
X185773809Y-34083333D01*
X185964285Y-34035714D01*
X186059523Y-33988095D01*
X186154761Y-33892857D01*
X186202380Y-33750000D01*
X186202380Y-33511904D01*
X185297619Y-34464285D02*
X185250000Y-34511904D01*
X185202380Y-34607142D01*
X185202380Y-34845238D01*
X185250000Y-34940476D01*
X185297619Y-34988095D01*
X185392857Y-35035714D01*
X185488095Y-35035714D01*
X185630952Y-34988095D01*
X186202380Y-34416666D01*
X186202380Y-35035714D01*
%TO.C,R18*%
X196892857Y-37952380D02*
X197226190Y-37476190D01*
X197464285Y-37952380D02*
X197464285Y-36952380D01*
X197083333Y-36952380D01*
X196988095Y-37000000D01*
X196940476Y-37047619D01*
X196892857Y-37142857D01*
X196892857Y-37285714D01*
X196940476Y-37380952D01*
X196988095Y-37428571D01*
X197083333Y-37476190D01*
X197464285Y-37476190D01*
X195940476Y-37952380D02*
X196511904Y-37952380D01*
X196226190Y-37952380D02*
X196226190Y-36952380D01*
X196321428Y-37095238D01*
X196416666Y-37190476D01*
X196511904Y-37238095D01*
X195369047Y-37380952D02*
X195464285Y-37333333D01*
X195511904Y-37285714D01*
X195559523Y-37190476D01*
X195559523Y-37142857D01*
X195511904Y-37047619D01*
X195464285Y-37000000D01*
X195369047Y-36952380D01*
X195178571Y-36952380D01*
X195083333Y-37000000D01*
X195035714Y-37047619D01*
X194988095Y-37142857D01*
X194988095Y-37190476D01*
X195035714Y-37285714D01*
X195083333Y-37333333D01*
X195178571Y-37380952D01*
X195369047Y-37380952D01*
X195464285Y-37428571D01*
X195511904Y-37476190D01*
X195559523Y-37571428D01*
X195559523Y-37761904D01*
X195511904Y-37857142D01*
X195464285Y-37904761D01*
X195369047Y-37952380D01*
X195178571Y-37952380D01*
X195083333Y-37904761D01*
X195035714Y-37857142D01*
X194988095Y-37761904D01*
X194988095Y-37571428D01*
X195035714Y-37476190D01*
X195083333Y-37428571D01*
X195178571Y-37380952D01*
%TO.C,R17*%
X196892857Y-40452380D02*
X197226190Y-39976190D01*
X197464285Y-40452380D02*
X197464285Y-39452380D01*
X197083333Y-39452380D01*
X196988095Y-39500000D01*
X196940476Y-39547619D01*
X196892857Y-39642857D01*
X196892857Y-39785714D01*
X196940476Y-39880952D01*
X196988095Y-39928571D01*
X197083333Y-39976190D01*
X197464285Y-39976190D01*
X195940476Y-40452380D02*
X196511904Y-40452380D01*
X196226190Y-40452380D02*
X196226190Y-39452380D01*
X196321428Y-39595238D01*
X196416666Y-39690476D01*
X196511904Y-39738095D01*
X195607142Y-39452380D02*
X194940476Y-39452380D01*
X195369047Y-40452380D01*
%TO.C,R15*%
X186142857Y-32452380D02*
X186476190Y-31976190D01*
X186714285Y-32452380D02*
X186714285Y-31452380D01*
X186333333Y-31452380D01*
X186238095Y-31500000D01*
X186190476Y-31547619D01*
X186142857Y-31642857D01*
X186142857Y-31785714D01*
X186190476Y-31880952D01*
X186238095Y-31928571D01*
X186333333Y-31976190D01*
X186714285Y-31976190D01*
X185190476Y-32452380D02*
X185761904Y-32452380D01*
X185476190Y-32452380D02*
X185476190Y-31452380D01*
X185571428Y-31595238D01*
X185666666Y-31690476D01*
X185761904Y-31738095D01*
X184285714Y-31452380D02*
X184761904Y-31452380D01*
X184809523Y-31928571D01*
X184761904Y-31880952D01*
X184666666Y-31833333D01*
X184428571Y-31833333D01*
X184333333Y-31880952D01*
X184285714Y-31928571D01*
X184238095Y-32023809D01*
X184238095Y-32261904D01*
X184285714Y-32357142D01*
X184333333Y-32404761D01*
X184428571Y-32452380D01*
X184666666Y-32452380D01*
X184761904Y-32404761D01*
X184809523Y-32357142D01*
%TO.C,R11*%
X183392857Y-35202380D02*
X183726190Y-34726190D01*
X183964285Y-35202380D02*
X183964285Y-34202380D01*
X183583333Y-34202380D01*
X183488095Y-34250000D01*
X183440476Y-34297619D01*
X183392857Y-34392857D01*
X183392857Y-34535714D01*
X183440476Y-34630952D01*
X183488095Y-34678571D01*
X183583333Y-34726190D01*
X183964285Y-34726190D01*
X182440476Y-35202380D02*
X183011904Y-35202380D01*
X182726190Y-35202380D02*
X182726190Y-34202380D01*
X182821428Y-34345238D01*
X182916666Y-34440476D01*
X183011904Y-34488095D01*
X181488095Y-35202380D02*
X182059523Y-35202380D01*
X181773809Y-35202380D02*
X181773809Y-34202380D01*
X181869047Y-34345238D01*
X181964285Y-34440476D01*
X182059523Y-34488095D01*
%TO.C,R10*%
X183392857Y-33202380D02*
X183726190Y-32726190D01*
X183964285Y-33202380D02*
X183964285Y-32202380D01*
X183583333Y-32202380D01*
X183488095Y-32250000D01*
X183440476Y-32297619D01*
X183392857Y-32392857D01*
X183392857Y-32535714D01*
X183440476Y-32630952D01*
X183488095Y-32678571D01*
X183583333Y-32726190D01*
X183964285Y-32726190D01*
X182440476Y-33202380D02*
X183011904Y-33202380D01*
X182726190Y-33202380D02*
X182726190Y-32202380D01*
X182821428Y-32345238D01*
X182916666Y-32440476D01*
X183011904Y-32488095D01*
X181821428Y-32202380D02*
X181726190Y-32202380D01*
X181630952Y-32250000D01*
X181583333Y-32297619D01*
X181535714Y-32392857D01*
X181488095Y-32583333D01*
X181488095Y-32821428D01*
X181535714Y-33011904D01*
X181583333Y-33107142D01*
X181630952Y-33154761D01*
X181726190Y-33202380D01*
X181821428Y-33202380D01*
X181916666Y-33154761D01*
X181964285Y-33107142D01*
X182011904Y-33011904D01*
X182059523Y-32821428D01*
X182059523Y-32583333D01*
X182011904Y-32392857D01*
X181964285Y-32297619D01*
X181916666Y-32250000D01*
X181821428Y-32202380D01*
%TO.C,R8*%
X196966666Y-43402380D02*
X197300000Y-42926190D01*
X197538095Y-43402380D02*
X197538095Y-42402380D01*
X197157142Y-42402380D01*
X197061904Y-42450000D01*
X197014285Y-42497619D01*
X196966666Y-42592857D01*
X196966666Y-42735714D01*
X197014285Y-42830952D01*
X197061904Y-42878571D01*
X197157142Y-42926190D01*
X197538095Y-42926190D01*
X196395238Y-42830952D02*
X196490476Y-42783333D01*
X196538095Y-42735714D01*
X196585714Y-42640476D01*
X196585714Y-42592857D01*
X196538095Y-42497619D01*
X196490476Y-42450000D01*
X196395238Y-42402380D01*
X196204761Y-42402380D01*
X196109523Y-42450000D01*
X196061904Y-42497619D01*
X196014285Y-42592857D01*
X196014285Y-42640476D01*
X196061904Y-42735714D01*
X196109523Y-42783333D01*
X196204761Y-42830952D01*
X196395238Y-42830952D01*
X196490476Y-42878571D01*
X196538095Y-42926190D01*
X196585714Y-43021428D01*
X196585714Y-43211904D01*
X196538095Y-43307142D01*
X196490476Y-43354761D01*
X196395238Y-43402380D01*
X196204761Y-43402380D01*
X196109523Y-43354761D01*
X196061904Y-43307142D01*
X196014285Y-43211904D01*
X196014285Y-43021428D01*
X196061904Y-42926190D01*
X196109523Y-42878571D01*
X196204761Y-42830952D01*
%TO.C,R7*%
X172666666Y-48072380D02*
X173000000Y-47596190D01*
X173238095Y-48072380D02*
X173238095Y-47072380D01*
X172857142Y-47072380D01*
X172761904Y-47120000D01*
X172714285Y-47167619D01*
X172666666Y-47262857D01*
X172666666Y-47405714D01*
X172714285Y-47500952D01*
X172761904Y-47548571D01*
X172857142Y-47596190D01*
X173238095Y-47596190D01*
X172333333Y-47072380D02*
X171666666Y-47072380D01*
X172095238Y-48072380D01*
%TD*%
M02*
