%TF.GenerationSoftware,KiCad,Pcbnew,(5.1.10)-1*%
%TF.CreationDate,2021-11-06T00:44:08+01:00*%
%TF.ProjectId,AS5047D_breakout,41533530-3437-4445-9f62-7265616b6f75,rev?*%
%TF.SameCoordinates,Original*%
%TF.FileFunction,Paste,Top*%
%TF.FilePolarity,Positive*%
%FSLAX46Y46*%
G04 Gerber Fmt 4.6, Leading zero omitted, Abs format (unit mm)*
G04 Created by KiCad (PCBNEW (5.1.10)-1) date 2021-11-06 00:44:08*
%MOMM*%
%LPD*%
G01*
G04 APERTURE LIST*
G04 APERTURE END LIST*
%TO.C,C2*%
G36*
G01*
X237950000Y-97525000D02*
X237950000Y-98475000D01*
G75*
G02*
X237700000Y-98725000I-250000J0D01*
G01*
X237025000Y-98725000D01*
G75*
G02*
X236775000Y-98475000I0J250000D01*
G01*
X236775000Y-97525000D01*
G75*
G02*
X237025000Y-97275000I250000J0D01*
G01*
X237700000Y-97275000D01*
G75*
G02*
X237950000Y-97525000I0J-250000D01*
G01*
G37*
G36*
G01*
X240025000Y-97525000D02*
X240025000Y-98475000D01*
G75*
G02*
X239775000Y-98725000I-250000J0D01*
G01*
X239100000Y-98725000D01*
G75*
G02*
X238850000Y-98475000I0J250000D01*
G01*
X238850000Y-97525000D01*
G75*
G02*
X239100000Y-97275000I250000J0D01*
G01*
X239775000Y-97275000D01*
G75*
G02*
X240025000Y-97525000I0J-250000D01*
G01*
G37*
%TD*%
%TO.C,C1*%
G36*
G01*
X245450000Y-98475000D02*
X245450000Y-97525000D01*
G75*
G02*
X245700000Y-97275000I250000J0D01*
G01*
X246375000Y-97275000D01*
G75*
G02*
X246625000Y-97525000I0J-250000D01*
G01*
X246625000Y-98475000D01*
G75*
G02*
X246375000Y-98725000I-250000J0D01*
G01*
X245700000Y-98725000D01*
G75*
G02*
X245450000Y-98475000I0J250000D01*
G01*
G37*
G36*
G01*
X243375000Y-98475000D02*
X243375000Y-97525000D01*
G75*
G02*
X243625000Y-97275000I250000J0D01*
G01*
X244300000Y-97275000D01*
G75*
G02*
X244550000Y-97525000I0J-250000D01*
G01*
X244550000Y-98475000D01*
G75*
G02*
X244300000Y-98725000I-250000J0D01*
G01*
X243625000Y-98725000D01*
G75*
G02*
X243375000Y-98475000I0J250000D01*
G01*
G37*
%TD*%
%TO.C,U1*%
G36*
G01*
X243375000Y-106200000D02*
X243375000Y-106000000D01*
G75*
G02*
X243475000Y-105900000I100000J0D01*
G01*
X244750000Y-105900000D01*
G75*
G02*
X244850000Y-106000000I0J-100000D01*
G01*
X244850000Y-106200000D01*
G75*
G02*
X244750000Y-106300000I-100000J0D01*
G01*
X243475000Y-106300000D01*
G75*
G02*
X243375000Y-106200000I0J100000D01*
G01*
G37*
G36*
G01*
X243375000Y-106850000D02*
X243375000Y-106650000D01*
G75*
G02*
X243475000Y-106550000I100000J0D01*
G01*
X244750000Y-106550000D01*
G75*
G02*
X244850000Y-106650000I0J-100000D01*
G01*
X244850000Y-106850000D01*
G75*
G02*
X244750000Y-106950000I-100000J0D01*
G01*
X243475000Y-106950000D01*
G75*
G02*
X243375000Y-106850000I0J100000D01*
G01*
G37*
G36*
G01*
X243375000Y-107500000D02*
X243375000Y-107300000D01*
G75*
G02*
X243475000Y-107200000I100000J0D01*
G01*
X244750000Y-107200000D01*
G75*
G02*
X244850000Y-107300000I0J-100000D01*
G01*
X244850000Y-107500000D01*
G75*
G02*
X244750000Y-107600000I-100000J0D01*
G01*
X243475000Y-107600000D01*
G75*
G02*
X243375000Y-107500000I0J100000D01*
G01*
G37*
G36*
G01*
X243375000Y-108150000D02*
X243375000Y-107950000D01*
G75*
G02*
X243475000Y-107850000I100000J0D01*
G01*
X244750000Y-107850000D01*
G75*
G02*
X244850000Y-107950000I0J-100000D01*
G01*
X244850000Y-108150000D01*
G75*
G02*
X244750000Y-108250000I-100000J0D01*
G01*
X243475000Y-108250000D01*
G75*
G02*
X243375000Y-108150000I0J100000D01*
G01*
G37*
G36*
G01*
X243375000Y-108800000D02*
X243375000Y-108600000D01*
G75*
G02*
X243475000Y-108500000I100000J0D01*
G01*
X244750000Y-108500000D01*
G75*
G02*
X244850000Y-108600000I0J-100000D01*
G01*
X244850000Y-108800000D01*
G75*
G02*
X244750000Y-108900000I-100000J0D01*
G01*
X243475000Y-108900000D01*
G75*
G02*
X243375000Y-108800000I0J100000D01*
G01*
G37*
G36*
G01*
X243375000Y-109450000D02*
X243375000Y-109250000D01*
G75*
G02*
X243475000Y-109150000I100000J0D01*
G01*
X244750000Y-109150000D01*
G75*
G02*
X244850000Y-109250000I0J-100000D01*
G01*
X244850000Y-109450000D01*
G75*
G02*
X244750000Y-109550000I-100000J0D01*
G01*
X243475000Y-109550000D01*
G75*
G02*
X243375000Y-109450000I0J100000D01*
G01*
G37*
G36*
G01*
X243375000Y-110100000D02*
X243375000Y-109900000D01*
G75*
G02*
X243475000Y-109800000I100000J0D01*
G01*
X244750000Y-109800000D01*
G75*
G02*
X244850000Y-109900000I0J-100000D01*
G01*
X244850000Y-110100000D01*
G75*
G02*
X244750000Y-110200000I-100000J0D01*
G01*
X243475000Y-110200000D01*
G75*
G02*
X243375000Y-110100000I0J100000D01*
G01*
G37*
G36*
G01*
X237650000Y-110100000D02*
X237650000Y-109900000D01*
G75*
G02*
X237750000Y-109800000I100000J0D01*
G01*
X239025000Y-109800000D01*
G75*
G02*
X239125000Y-109900000I0J-100000D01*
G01*
X239125000Y-110100000D01*
G75*
G02*
X239025000Y-110200000I-100000J0D01*
G01*
X237750000Y-110200000D01*
G75*
G02*
X237650000Y-110100000I0J100000D01*
G01*
G37*
G36*
G01*
X237650000Y-109450000D02*
X237650000Y-109250000D01*
G75*
G02*
X237750000Y-109150000I100000J0D01*
G01*
X239025000Y-109150000D01*
G75*
G02*
X239125000Y-109250000I0J-100000D01*
G01*
X239125000Y-109450000D01*
G75*
G02*
X239025000Y-109550000I-100000J0D01*
G01*
X237750000Y-109550000D01*
G75*
G02*
X237650000Y-109450000I0J100000D01*
G01*
G37*
G36*
G01*
X237650000Y-108800000D02*
X237650000Y-108600000D01*
G75*
G02*
X237750000Y-108500000I100000J0D01*
G01*
X239025000Y-108500000D01*
G75*
G02*
X239125000Y-108600000I0J-100000D01*
G01*
X239125000Y-108800000D01*
G75*
G02*
X239025000Y-108900000I-100000J0D01*
G01*
X237750000Y-108900000D01*
G75*
G02*
X237650000Y-108800000I0J100000D01*
G01*
G37*
G36*
G01*
X237650000Y-108150000D02*
X237650000Y-107950000D01*
G75*
G02*
X237750000Y-107850000I100000J0D01*
G01*
X239025000Y-107850000D01*
G75*
G02*
X239125000Y-107950000I0J-100000D01*
G01*
X239125000Y-108150000D01*
G75*
G02*
X239025000Y-108250000I-100000J0D01*
G01*
X237750000Y-108250000D01*
G75*
G02*
X237650000Y-108150000I0J100000D01*
G01*
G37*
G36*
G01*
X237650000Y-107500000D02*
X237650000Y-107300000D01*
G75*
G02*
X237750000Y-107200000I100000J0D01*
G01*
X239025000Y-107200000D01*
G75*
G02*
X239125000Y-107300000I0J-100000D01*
G01*
X239125000Y-107500000D01*
G75*
G02*
X239025000Y-107600000I-100000J0D01*
G01*
X237750000Y-107600000D01*
G75*
G02*
X237650000Y-107500000I0J100000D01*
G01*
G37*
G36*
G01*
X237650000Y-106850000D02*
X237650000Y-106650000D01*
G75*
G02*
X237750000Y-106550000I100000J0D01*
G01*
X239025000Y-106550000D01*
G75*
G02*
X239125000Y-106650000I0J-100000D01*
G01*
X239125000Y-106850000D01*
G75*
G02*
X239025000Y-106950000I-100000J0D01*
G01*
X237750000Y-106950000D01*
G75*
G02*
X237650000Y-106850000I0J100000D01*
G01*
G37*
G36*
G01*
X237650000Y-106200000D02*
X237650000Y-106000000D01*
G75*
G02*
X237750000Y-105900000I100000J0D01*
G01*
X239025000Y-105900000D01*
G75*
G02*
X239125000Y-106000000I0J-100000D01*
G01*
X239125000Y-106200000D01*
G75*
G02*
X239025000Y-106300000I-100000J0D01*
G01*
X237750000Y-106300000D01*
G75*
G02*
X237650000Y-106200000I0J100000D01*
G01*
G37*
%TD*%
M02*
