%TF.GenerationSoftware,KiCad,Pcbnew,6.0.5+dfsg-1~bpo11+1*%
%TF.CreationDate,2022-07-20T16:51:46+00:00*%
%TF.ProjectId,xESC2,78455343-322e-46b6-9963-61645f706362,rev?*%
%TF.SameCoordinates,Original*%
%TF.FileFunction,Legend,Bot*%
%TF.FilePolarity,Positive*%
%FSLAX46Y46*%
G04 Gerber Fmt 4.6, Leading zero omitted, Abs format (unit mm)*
G04 Created by KiCad (PCBNEW 6.0.5+dfsg-1~bpo11+1) date 2022-07-20 16:51:46*
%MOMM*%
%LPD*%
G01*
G04 APERTURE LIST*
%ADD10C,0.150000*%
%ADD11C,0.120000*%
%ADD12C,0.100000*%
G04 APERTURE END LIST*
D10*
%TO.C,U1*%
X250033380Y-123830799D02*
X250271476Y-123830799D01*
X250176238Y-123592703D02*
X250271476Y-123830799D01*
X250176238Y-124068894D01*
X250461952Y-123687941D02*
X250271476Y-123830799D01*
X250461952Y-123973656D01*
X250033380Y-123830799D02*
X250271476Y-123830799D01*
X250176238Y-123592703D02*
X250271476Y-123830799D01*
X250176238Y-124068894D01*
X250461952Y-123687941D02*
X250271476Y-123830799D01*
X250461952Y-123973656D01*
%TO.C,C24*%
X260542857Y-126187142D02*
X260590476Y-126234761D01*
X260733333Y-126282380D01*
X260828571Y-126282380D01*
X260971428Y-126234761D01*
X261066666Y-126139523D01*
X261114285Y-126044285D01*
X261161904Y-125853809D01*
X261161904Y-125710952D01*
X261114285Y-125520476D01*
X261066666Y-125425238D01*
X260971428Y-125330000D01*
X260828571Y-125282380D01*
X260733333Y-125282380D01*
X260590476Y-125330000D01*
X260542857Y-125377619D01*
X260161904Y-125377619D02*
X260114285Y-125330000D01*
X260019047Y-125282380D01*
X259780952Y-125282380D01*
X259685714Y-125330000D01*
X259638095Y-125377619D01*
X259590476Y-125472857D01*
X259590476Y-125568095D01*
X259638095Y-125710952D01*
X260209523Y-126282380D01*
X259590476Y-126282380D01*
X258733333Y-125615714D02*
X258733333Y-126282380D01*
X258971428Y-125234761D02*
X259209523Y-125949047D01*
X258590476Y-125949047D01*
%TO.C,U2*%
X240361904Y-106752380D02*
X240361904Y-107561904D01*
X240314285Y-107657142D01*
X240266666Y-107704761D01*
X240171428Y-107752380D01*
X239980952Y-107752380D01*
X239885714Y-107704761D01*
X239838095Y-107657142D01*
X239790476Y-107561904D01*
X239790476Y-106752380D01*
X239361904Y-106847619D02*
X239314285Y-106800000D01*
X239219047Y-106752380D01*
X238980952Y-106752380D01*
X238885714Y-106800000D01*
X238838095Y-106847619D01*
X238790476Y-106942857D01*
X238790476Y-107038095D01*
X238838095Y-107180952D01*
X239409523Y-107752380D01*
X238790476Y-107752380D01*
%TO.C,FID4*%
X276571428Y-131328571D02*
X276904761Y-131328571D01*
X276904761Y-131852380D02*
X276904761Y-130852380D01*
X276428571Y-130852380D01*
X276047619Y-131852380D02*
X276047619Y-130852380D01*
X275571428Y-131852380D02*
X275571428Y-130852380D01*
X275333333Y-130852380D01*
X275190476Y-130900000D01*
X275095238Y-130995238D01*
X275047619Y-131090476D01*
X275000000Y-131280952D01*
X275000000Y-131423809D01*
X275047619Y-131614285D01*
X275095238Y-131709523D01*
X275190476Y-131804761D01*
X275333333Y-131852380D01*
X275571428Y-131852380D01*
X274142857Y-131185714D02*
X274142857Y-131852380D01*
X274380952Y-130804761D02*
X274619047Y-131519047D01*
X274000000Y-131519047D01*
%TO.C,FID6*%
X232471428Y-126728571D02*
X232804761Y-126728571D01*
X232804761Y-127252380D02*
X232804761Y-126252380D01*
X232328571Y-126252380D01*
X231947619Y-127252380D02*
X231947619Y-126252380D01*
X231471428Y-127252380D02*
X231471428Y-126252380D01*
X231233333Y-126252380D01*
X231090476Y-126300000D01*
X230995238Y-126395238D01*
X230947619Y-126490476D01*
X230900000Y-126680952D01*
X230900000Y-126823809D01*
X230947619Y-127014285D01*
X230995238Y-127109523D01*
X231090476Y-127204761D01*
X231233333Y-127252380D01*
X231471428Y-127252380D01*
X230042857Y-126252380D02*
X230233333Y-126252380D01*
X230328571Y-126300000D01*
X230376190Y-126347619D01*
X230471428Y-126490476D01*
X230519047Y-126680952D01*
X230519047Y-127061904D01*
X230471428Y-127157142D01*
X230423809Y-127204761D01*
X230328571Y-127252380D01*
X230138095Y-127252380D01*
X230042857Y-127204761D01*
X229995238Y-127157142D01*
X229947619Y-127061904D01*
X229947619Y-126823809D01*
X229995238Y-126728571D01*
X230042857Y-126680952D01*
X230138095Y-126633333D01*
X230328571Y-126633333D01*
X230423809Y-126680952D01*
X230471428Y-126728571D01*
X230519047Y-126823809D01*
%TO.C,FID7*%
X276571428Y-109328571D02*
X276904761Y-109328571D01*
X276904761Y-109852380D02*
X276904761Y-108852380D01*
X276428571Y-108852380D01*
X276047619Y-109852380D02*
X276047619Y-108852380D01*
X275571428Y-109852380D02*
X275571428Y-108852380D01*
X275333333Y-108852380D01*
X275190476Y-108900000D01*
X275095238Y-108995238D01*
X275047619Y-109090476D01*
X275000000Y-109280952D01*
X275000000Y-109423809D01*
X275047619Y-109614285D01*
X275095238Y-109709523D01*
X275190476Y-109804761D01*
X275333333Y-109852380D01*
X275571428Y-109852380D01*
X274666666Y-108852380D02*
X274000000Y-108852380D01*
X274428571Y-109852380D01*
%TO.C,FID8*%
X233871428Y-109228571D02*
X234204761Y-109228571D01*
X234204761Y-109752380D02*
X234204761Y-108752380D01*
X233728571Y-108752380D01*
X233347619Y-109752380D02*
X233347619Y-108752380D01*
X232871428Y-109752380D02*
X232871428Y-108752380D01*
X232633333Y-108752380D01*
X232490476Y-108800000D01*
X232395238Y-108895238D01*
X232347619Y-108990476D01*
X232300000Y-109180952D01*
X232300000Y-109323809D01*
X232347619Y-109514285D01*
X232395238Y-109609523D01*
X232490476Y-109704761D01*
X232633333Y-109752380D01*
X232871428Y-109752380D01*
X231728571Y-109180952D02*
X231823809Y-109133333D01*
X231871428Y-109085714D01*
X231919047Y-108990476D01*
X231919047Y-108942857D01*
X231871428Y-108847619D01*
X231823809Y-108800000D01*
X231728571Y-108752380D01*
X231538095Y-108752380D01*
X231442857Y-108800000D01*
X231395238Y-108847619D01*
X231347619Y-108942857D01*
X231347619Y-108990476D01*
X231395238Y-109085714D01*
X231442857Y-109133333D01*
X231538095Y-109180952D01*
X231728571Y-109180952D01*
X231823809Y-109228571D01*
X231871428Y-109276190D01*
X231919047Y-109371428D01*
X231919047Y-109561904D01*
X231871428Y-109657142D01*
X231823809Y-109704761D01*
X231728571Y-109752380D01*
X231538095Y-109752380D01*
X231442857Y-109704761D01*
X231395238Y-109657142D01*
X231347619Y-109561904D01*
X231347619Y-109371428D01*
X231395238Y-109276190D01*
X231442857Y-109228571D01*
X231538095Y-109180952D01*
D11*
%TO.C,R4*%
X256437258Y-124922500D02*
X255962742Y-124922500D01*
X256437258Y-123877500D02*
X255962742Y-123877500D01*
%TO.C,C4*%
X245738748Y-125965000D02*
X246261252Y-125965000D01*
X245738748Y-127435000D02*
X246261252Y-127435000D01*
%TO.C,C5*%
X250061252Y-125965000D02*
X249538748Y-125965000D01*
X250061252Y-127435000D02*
X249538748Y-127435000D01*
%TO.C,C6*%
X249509420Y-128190000D02*
X249790580Y-128190000D01*
X249509420Y-129210000D02*
X249790580Y-129210000D01*
%TO.C,C15*%
X242840580Y-127940000D02*
X242559420Y-127940000D01*
X242840580Y-128960000D02*
X242559420Y-128960000D01*
%TO.C,C11*%
X245059420Y-109940000D02*
X245340580Y-109940000D01*
X245059420Y-110960000D02*
X245340580Y-110960000D01*
%TO.C,C13*%
X241765000Y-110561252D02*
X241765000Y-110038748D01*
X243235000Y-110561252D02*
X243235000Y-110038748D01*
%TO.C,C25*%
X259759420Y-115890000D02*
X260040580Y-115890000D01*
X259759420Y-116910000D02*
X260040580Y-116910000D01*
%TO.C,C26*%
X259759420Y-112910000D02*
X260040580Y-112910000D01*
X259759420Y-111890000D02*
X260040580Y-111890000D01*
%TO.C,R5*%
X256437258Y-118922500D02*
X255962742Y-118922500D01*
X256437258Y-117877500D02*
X255962742Y-117877500D01*
%TO.C,R6*%
X256437258Y-120922500D02*
X255962742Y-120922500D01*
X256437258Y-119877500D02*
X255962742Y-119877500D01*
%TO.C,C27*%
X239340580Y-128960000D02*
X239059420Y-128960000D01*
X239340580Y-127940000D02*
X239059420Y-127940000D01*
%TO.C,R7*%
X270314564Y-116690000D02*
X265960436Y-116690000D01*
X270314564Y-120110000D02*
X265960436Y-120110000D01*
%TO.C,C28*%
X235840580Y-127940000D02*
X235559420Y-127940000D01*
X235840580Y-128960000D02*
X235559420Y-128960000D01*
%TO.C,R8*%
X256437258Y-115877500D02*
X255962742Y-115877500D01*
X256437258Y-116922500D02*
X255962742Y-116922500D01*
%TO.C,R9*%
X256437258Y-109877500D02*
X255962742Y-109877500D01*
X256437258Y-110922500D02*
X255962742Y-110922500D01*
%TO.C,R10*%
X256437258Y-107877500D02*
X255962742Y-107877500D01*
X256437258Y-108922500D02*
X255962742Y-108922500D01*
%TO.C,R11*%
X270277064Y-112110000D02*
X265922936Y-112110000D01*
X270277064Y-108690000D02*
X265922936Y-108690000D01*
%TO.C,R13*%
X245912742Y-129222500D02*
X246387258Y-129222500D01*
X245912742Y-128177500D02*
X246387258Y-128177500D01*
%TO.C,R14*%
X249412742Y-131222500D02*
X249887258Y-131222500D01*
X249412742Y-130177500D02*
X249887258Y-130177500D01*
%TO.C,R15*%
X245912742Y-131222500D02*
X246387258Y-131222500D01*
X245912742Y-130177500D02*
X246387258Y-130177500D01*
%TO.C,R17*%
X242462742Y-124727500D02*
X242937258Y-124727500D01*
X242462742Y-125772500D02*
X242937258Y-125772500D01*
%TO.C,R18*%
X242937258Y-127372500D02*
X242462742Y-127372500D01*
X242937258Y-126327500D02*
X242462742Y-126327500D01*
%TO.C,R19*%
X238962742Y-125772500D02*
X239437258Y-125772500D01*
X238962742Y-124727500D02*
X239437258Y-124727500D01*
%TO.C,R20*%
X239437258Y-127372500D02*
X238962742Y-127372500D01*
X239437258Y-126327500D02*
X238962742Y-126327500D01*
%TO.C,R21*%
X235462742Y-124727500D02*
X235937258Y-124727500D01*
X235462742Y-125772500D02*
X235937258Y-125772500D01*
%TO.C,R22*%
X235937258Y-126327500D02*
X235462742Y-126327500D01*
X235937258Y-127372500D02*
X235462742Y-127372500D01*
%TO.C,R29*%
X244962742Y-108177500D02*
X245437258Y-108177500D01*
X244962742Y-109222500D02*
X245437258Y-109222500D01*
%TO.C,R2*%
X256437258Y-127877500D02*
X255962742Y-127877500D01*
X256437258Y-128922500D02*
X255962742Y-128922500D01*
%TO.C,R3*%
X270314564Y-124690000D02*
X265960436Y-124690000D01*
X270314564Y-128110000D02*
X265960436Y-128110000D01*
%TO.C,C12*%
X249261252Y-111335000D02*
X248738748Y-111335000D01*
X249261252Y-109865000D02*
X248738748Y-109865000D01*
%TO.C,C14*%
X248738748Y-107865000D02*
X249261252Y-107865000D01*
X248738748Y-109335000D02*
X249261252Y-109335000D01*
%TO.C,C29*%
X260040580Y-125890000D02*
X259759420Y-125890000D01*
X260040580Y-126910000D02*
X259759420Y-126910000D01*
%TO.C,C30*%
X260040580Y-117890000D02*
X259759420Y-117890000D01*
X260040580Y-118910000D02*
X259759420Y-118910000D01*
%TO.C,R25*%
X263522500Y-119362742D02*
X263522500Y-119837258D01*
X262477500Y-119362742D02*
X262477500Y-119837258D01*
%TO.C,C31*%
X260040580Y-110910000D02*
X259759420Y-110910000D01*
X260040580Y-109890000D02*
X259759420Y-109890000D01*
%TO.C,R24*%
X260137258Y-127877500D02*
X259662742Y-127877500D01*
X260137258Y-128922500D02*
X259662742Y-128922500D01*
%TO.C,R28*%
X260137258Y-108922500D02*
X259662742Y-108922500D01*
X260137258Y-107877500D02*
X259662742Y-107877500D01*
%TO.C,R23*%
X263522500Y-126162742D02*
X263522500Y-126637258D01*
X262477500Y-126162742D02*
X262477500Y-126637258D01*
%TO.C,R26*%
X260137258Y-119877500D02*
X259662742Y-119877500D01*
X260137258Y-120922500D02*
X259662742Y-120922500D01*
%TO.C,C21*%
X235911252Y-107990000D02*
X234488748Y-107990000D01*
X235911252Y-109810000D02*
X234488748Y-109810000D01*
%TO.C,C20*%
X235911252Y-112210000D02*
X234488748Y-112210000D01*
X235911252Y-110390000D02*
X234488748Y-110390000D01*
%TO.C,J5*%
X231060000Y-104370000D02*
X229730000Y-104370000D01*
X229730000Y-104370000D02*
X229730000Y-105700000D01*
X232330000Y-104370000D02*
X232330000Y-107030000D01*
X232330000Y-104370000D02*
X237470000Y-104370000D01*
X237470000Y-104370000D02*
X237470000Y-107030000D01*
X232330000Y-107030000D02*
X237470000Y-107030000D01*
%TO.C,C9*%
X253290000Y-118259420D02*
X253290000Y-118540580D01*
X254310000Y-118259420D02*
X254310000Y-118540580D01*
%TO.C,C8*%
X254310000Y-126259420D02*
X254310000Y-126540580D01*
X253290000Y-126259420D02*
X253290000Y-126540580D01*
%TO.C,C10*%
X253290000Y-110540580D02*
X253290000Y-110259420D01*
X254310000Y-110540580D02*
X254310000Y-110259420D01*
%TO.C,U1*%
X243977560Y-121982200D02*
X243567800Y-121982200D01*
X243567800Y-114717800D02*
X243977560Y-114717800D01*
X250422440Y-114717800D02*
X250832200Y-114717800D01*
X250832200Y-114717800D02*
X250832200Y-115127560D01*
X250832200Y-121982200D02*
X250422440Y-121982200D01*
X243567800Y-121982200D02*
X243567800Y-121572440D01*
X243567800Y-115127560D02*
X243567800Y-114717800D01*
X250832200Y-121572440D02*
X250832200Y-121982200D01*
G36*
X245640501Y-123703799D02*
G01*
X245259501Y-123703799D01*
X245259501Y-123449799D01*
X245640501Y-123449799D01*
X245640501Y-123703799D01*
G37*
D12*
X245640501Y-123703799D02*
X245259501Y-123703799D01*
X245259501Y-123449799D01*
X245640501Y-123449799D01*
X245640501Y-123703799D01*
G36*
X242100201Y-117790499D02*
G01*
X241846201Y-117790499D01*
X241846201Y-117409499D01*
X242100201Y-117409499D01*
X242100201Y-117790499D01*
G37*
X242100201Y-117790499D02*
X241846201Y-117790499D01*
X241846201Y-117409499D01*
X242100201Y-117409499D01*
X242100201Y-117790499D01*
G36*
X247140501Y-113250201D02*
G01*
X246759500Y-113250201D01*
X246759500Y-112996201D01*
X247140501Y-112996201D01*
X247140501Y-113250201D01*
G37*
X247140501Y-113250201D02*
X246759500Y-113250201D01*
X246759500Y-112996201D01*
X247140501Y-112996201D01*
X247140501Y-113250201D01*
G36*
X252553799Y-117290500D02*
G01*
X252299799Y-117290500D01*
X252299799Y-116909500D01*
X252553799Y-116909500D01*
X252553799Y-117290500D01*
G37*
X252553799Y-117290500D02*
X252299799Y-117290500D01*
X252299799Y-116909500D01*
X252553799Y-116909500D01*
X252553799Y-117290500D01*
D11*
%TO.C,R1*%
X256437258Y-125877500D02*
X255962742Y-125877500D01*
X256437258Y-126922500D02*
X255962742Y-126922500D01*
%TO.C,R27*%
X263522500Y-109237258D02*
X263522500Y-108762742D01*
X262477500Y-109237258D02*
X262477500Y-108762742D01*
%TO.C,R12*%
X256437258Y-112922500D02*
X255962742Y-112922500D01*
X256437258Y-111877500D02*
X255962742Y-111877500D01*
%TO.C,J1*%
X237350000Y-104370000D02*
X237350000Y-105700000D01*
X239950000Y-104370000D02*
X252710000Y-104370000D01*
X239950000Y-104370000D02*
X239950000Y-107030000D01*
X238680000Y-104370000D02*
X237350000Y-104370000D01*
X252710000Y-104370000D02*
X252710000Y-107030000D01*
X239950000Y-107030000D02*
X252710000Y-107030000D01*
%TO.C,J4*%
X242550000Y-129770000D02*
X242550000Y-132430000D01*
X232330000Y-129770000D02*
X232330000Y-132430000D01*
X231060000Y-129770000D02*
X229730000Y-129770000D01*
X232330000Y-132430000D02*
X242550000Y-132430000D01*
X229730000Y-129770000D02*
X229730000Y-131100000D01*
X232330000Y-129770000D02*
X242550000Y-129770000D01*
%TO.C,C24*%
X259759420Y-124910000D02*
X260040580Y-124910000D01*
X259759420Y-123890000D02*
X260040580Y-123890000D01*
%TO.C,C7*%
X237940580Y-120890000D02*
X237659420Y-120890000D01*
X237940580Y-121910000D02*
X237659420Y-121910000D01*
%TO.C,U2*%
X238700000Y-108590000D02*
X241150000Y-108590000D01*
X240500000Y-111810000D02*
X238700000Y-111810000D01*
%TO.C,U5*%
X233440000Y-116400000D02*
X233440000Y-114450000D01*
X233440000Y-116400000D02*
X233440000Y-118350000D01*
X238560000Y-116400000D02*
X238560000Y-119850000D01*
X238560000Y-116400000D02*
X238560000Y-114450000D01*
%TO.C,R41*%
X263522500Y-112237258D02*
X263522500Y-111762742D01*
X262477500Y-112237258D02*
X262477500Y-111762742D01*
%TO.C,TH1*%
X263522500Y-116837258D02*
X263522500Y-116362742D01*
X262477500Y-116837258D02*
X262477500Y-116362742D01*
%TO.C,J9*%
X262750000Y-104370000D02*
X262750000Y-105700000D01*
X265350000Y-104370000D02*
X265350000Y-107030000D01*
X264080000Y-104370000D02*
X262750000Y-104370000D01*
X265350000Y-107030000D02*
X278110000Y-107030000D01*
X278110000Y-104370000D02*
X278110000Y-107030000D01*
X265350000Y-104370000D02*
X278110000Y-104370000D01*
%TO.C,J10*%
X278110000Y-129770000D02*
X278110000Y-132430000D01*
X262750000Y-129770000D02*
X262750000Y-131100000D01*
X264080000Y-129770000D02*
X262750000Y-129770000D01*
X265350000Y-129770000D02*
X278110000Y-129770000D01*
X265350000Y-129770000D02*
X265350000Y-132430000D01*
X265350000Y-132430000D02*
X278110000Y-132430000D01*
%TO.C,J8*%
X278110000Y-113380000D02*
X278110000Y-108180000D01*
X272910000Y-113380000D02*
X274240000Y-113380000D01*
X272910000Y-112050000D02*
X272910000Y-113380000D01*
X272910000Y-108180000D02*
X278110000Y-108180000D01*
X272910000Y-110780000D02*
X272910000Y-108180000D01*
X275510000Y-113380000D02*
X278110000Y-113380000D01*
X275510000Y-110780000D02*
X275510000Y-113380000D01*
X272910000Y-110780000D02*
X275510000Y-110780000D01*
%TO.C,J7*%
X275510000Y-118400000D02*
X275510000Y-121000000D01*
X272910000Y-118400000D02*
X275510000Y-118400000D01*
X272910000Y-121000000D02*
X274240000Y-121000000D01*
X278110000Y-121000000D02*
X278110000Y-115800000D01*
X272910000Y-118400000D02*
X272910000Y-115800000D01*
X272910000Y-115800000D02*
X278110000Y-115800000D01*
X275510000Y-121000000D02*
X278110000Y-121000000D01*
X272910000Y-119670000D02*
X272910000Y-121000000D01*
%TO.C,J6*%
X278110000Y-128620000D02*
X278110000Y-123420000D01*
X272910000Y-126020000D02*
X272910000Y-123420000D01*
X272910000Y-128620000D02*
X274240000Y-128620000D01*
X275510000Y-126020000D02*
X275510000Y-128620000D01*
X272910000Y-123420000D02*
X278110000Y-123420000D01*
X272910000Y-127290000D02*
X272910000Y-128620000D01*
X275510000Y-128620000D02*
X278110000Y-128620000D01*
X272910000Y-126020000D02*
X275510000Y-126020000D01*
%TO.C,R36*%
X234737258Y-120877500D02*
X234262742Y-120877500D01*
X234737258Y-121922500D02*
X234262742Y-121922500D01*
%TD*%
M02*
