%TF.GenerationSoftware,KiCad,Pcbnew,6.0.5+dfsg-1~bpo11+1*%
%TF.CreationDate,2022-07-20T16:51:46+00:00*%
%TF.ProjectId,xESC2,78455343-322e-46b6-9963-61645f706362,rev?*%
%TF.SameCoordinates,Original*%
%TF.FileFunction,Plated,1,4,PTH,Mixed*%
%TF.FilePolarity,Positive*%
%FSLAX46Y46*%
G04 Gerber Fmt 4.6, Leading zero omitted, Abs format (unit mm)*
G04 Created by KiCad (PCBNEW 6.0.5+dfsg-1~bpo11+1) date 2022-07-20 16:51:46*
%MOMM*%
%LPD*%
G01*
G04 APERTURE LIST*
%TA.AperFunction,ViaDrill*%
%ADD10C,0.200000*%
%TD*%
G04 aperture for slot hole*
%TA.AperFunction,ComponentDrill*%
%ADD11O,1.200000X0.500000*%
%TD*%
%TA.AperFunction,ComponentDrill*%
%ADD12C,1.000000*%
%TD*%
G04 APERTURE END LIST*
D10*
X234300000Y-117300000D03*
X235300000Y-116599988D03*
X235800000Y-109199996D03*
X235925000Y-117350000D03*
X236000000Y-120300000D03*
X236700000Y-117274992D03*
X236800000Y-122650000D03*
X237125000Y-115425000D03*
X237500000Y-124900000D03*
X237618806Y-122418814D03*
X237781022Y-109356020D03*
X238425000Y-123750000D03*
X238700000Y-107600000D03*
X239200000Y-124900000D03*
X239562496Y-119062496D03*
X239778390Y-112516207D03*
X239925000Y-124300000D03*
X239957484Y-117800000D03*
X239975000Y-120075000D03*
X240000000Y-105000000D03*
X240147324Y-118595058D03*
X240300000Y-107500000D03*
X240600000Y-112000000D03*
X240788495Y-117729116D03*
X241209500Y-119368936D03*
X241325000Y-121125000D03*
X241597615Y-117380242D03*
X241625000Y-118450000D03*
X241800000Y-108000000D03*
X242043877Y-121956256D03*
X242200000Y-129900000D03*
X242450000Y-104900000D03*
X242600000Y-126500010D03*
X242662500Y-114337500D03*
X242750000Y-121975000D03*
X242799986Y-130300000D03*
X242800000Y-131400000D03*
X243350000Y-107950000D03*
X243400000Y-114400000D03*
X243599989Y-121999989D03*
X243615510Y-122900000D03*
X243749998Y-123625000D03*
X243750000Y-113700000D03*
X243975000Y-111249986D03*
X244124996Y-113010034D03*
X244150000Y-120450000D03*
X244400000Y-130600000D03*
X244500000Y-125300006D03*
X245200000Y-109100000D03*
X245200000Y-116200000D03*
X245200000Y-118200000D03*
X245200000Y-120200000D03*
X245200000Y-125600000D03*
X245375000Y-106825000D03*
X246000000Y-126500000D03*
X246799997Y-109045992D03*
X246975000Y-110931024D03*
X247200000Y-116200000D03*
X247200000Y-118200000D03*
X247200000Y-120200000D03*
X247325000Y-106775000D03*
X247525000Y-105000000D03*
X247665504Y-125448854D03*
X247850000Y-132350000D03*
X248200004Y-111800000D03*
X248290510Y-125128626D03*
X248500000Y-109600000D03*
X248581335Y-124078617D03*
X249000000Y-109100000D03*
X249000000Y-110100000D03*
X249000000Y-119800000D03*
X249068234Y-124794146D03*
X249550000Y-107300000D03*
X249725000Y-126447987D03*
X249800000Y-127299994D03*
X249858665Y-125606123D03*
X250239939Y-124817009D03*
X250525000Y-112800000D03*
X250974998Y-122975000D03*
X250974998Y-125349645D03*
X250975000Y-111200000D03*
X251041416Y-114410852D03*
X251155479Y-121665452D03*
X251375000Y-122350000D03*
X251434499Y-124467716D03*
X252050000Y-128850000D03*
X252392339Y-126782661D03*
X252425009Y-114600000D03*
X252475000Y-125650000D03*
X253600000Y-107500000D03*
X253684490Y-123005611D03*
X253800000Y-121000000D03*
X254000000Y-131600000D03*
X254200000Y-114300000D03*
X254300000Y-115300000D03*
X254400000Y-129200000D03*
X254600000Y-107400000D03*
X254650000Y-126900000D03*
X255000000Y-114400000D03*
X255050000Y-122900000D03*
X256400000Y-113900000D03*
X256400000Y-114900000D03*
X256400000Y-121900000D03*
X256400000Y-122900000D03*
X257000000Y-104902010D03*
X257000000Y-106900000D03*
X257000000Y-129900000D03*
X257000000Y-131900000D03*
X257400000Y-114400000D03*
X257400000Y-122400000D03*
X257500000Y-105900000D03*
X257500000Y-130900000D03*
X258400000Y-113900000D03*
X258400000Y-114900000D03*
X258400000Y-121900000D03*
X258400000Y-122900000D03*
X258500000Y-104900000D03*
X258500000Y-106900000D03*
X258500000Y-129900000D03*
X258500000Y-131900000D03*
X259000000Y-105900000D03*
X259000000Y-130900000D03*
X259400000Y-114400000D03*
X259400000Y-122400000D03*
X260000000Y-104900000D03*
X260000000Y-106900000D03*
X260000000Y-129900000D03*
X260000000Y-131900000D03*
X260400000Y-113900000D03*
X260400000Y-114900000D03*
X260400000Y-121900000D03*
X260400000Y-122900000D03*
X260709490Y-127400000D03*
X260775000Y-119425000D03*
X260822611Y-111744521D03*
X261299980Y-113900000D03*
X261300000Y-129550000D03*
X261481190Y-107081190D03*
X261550000Y-132175000D03*
X261556308Y-115395181D03*
X261675000Y-122150000D03*
X261825016Y-114575000D03*
X262400001Y-122700000D03*
X262649980Y-106349980D03*
X262674996Y-107250000D03*
X262700000Y-121400000D03*
X262700000Y-129200000D03*
X263000000Y-113900000D03*
X263000000Y-115025008D03*
X263000000Y-116799998D03*
X263200000Y-121900000D03*
X263200000Y-129700000D03*
X263300000Y-123700000D03*
X263625000Y-107200000D03*
X263700000Y-121400000D03*
X263700000Y-129200000D03*
X264200000Y-121900000D03*
X264200000Y-129700000D03*
X264400000Y-107600000D03*
X264400000Y-115600000D03*
X264400000Y-123600000D03*
X264700000Y-113400000D03*
X264700000Y-121400000D03*
X264700000Y-129200000D03*
X264900000Y-107100000D03*
X264900000Y-115100000D03*
X264900000Y-123100000D03*
X265200000Y-113900000D03*
X265200000Y-121900000D03*
X265200000Y-129700000D03*
X265400000Y-107600000D03*
X265400000Y-115600000D03*
X265400000Y-123600000D03*
X265700000Y-113400000D03*
X265700000Y-121400000D03*
X265700000Y-129200000D03*
X265900000Y-107100000D03*
X265900000Y-115100000D03*
X265900000Y-123100000D03*
X266200000Y-113900000D03*
X266200000Y-121900000D03*
X266200000Y-129700000D03*
X266400000Y-107600000D03*
X266400000Y-115600000D03*
X266400000Y-123600000D03*
X266700000Y-113400000D03*
X266700000Y-121400000D03*
X266700000Y-129200000D03*
X266900000Y-107100000D03*
X266900000Y-115100000D03*
X266900000Y-123100000D03*
X267200000Y-113900000D03*
X267200000Y-121900000D03*
X267200000Y-129700000D03*
X267400000Y-107600000D03*
X267400000Y-115600000D03*
X267400000Y-123600000D03*
X267700000Y-113400000D03*
X267700000Y-121400000D03*
X267700000Y-129200000D03*
X267900000Y-107100000D03*
X267900000Y-115100000D03*
X267900000Y-123100000D03*
X268200000Y-113900000D03*
X268200000Y-121900000D03*
X268200000Y-129700000D03*
X268400000Y-107600000D03*
X268400000Y-115600000D03*
X268400000Y-123600000D03*
X269000000Y-122500000D03*
X269500000Y-115000000D03*
X269500000Y-122000000D03*
X269500000Y-123000000D03*
X270000000Y-114500000D03*
X270000000Y-122500000D03*
X270500000Y-114000000D03*
X270500000Y-115000000D03*
X270500000Y-122000000D03*
X270500000Y-123000000D03*
X271000000Y-114500000D03*
X271000000Y-122500000D03*
X271500000Y-114000000D03*
X271500000Y-115000000D03*
X271500000Y-122000000D03*
X271500000Y-123000000D03*
X272000000Y-114500000D03*
X272000000Y-122500000D03*
X272500000Y-114000000D03*
X272500000Y-115000000D03*
X272500000Y-122000000D03*
X272500000Y-123000000D03*
X273000000Y-114500000D03*
X273000000Y-122500000D03*
X273500000Y-114000000D03*
X273500000Y-115000000D03*
X273500000Y-122000000D03*
X273500000Y-123000000D03*
X274000000Y-114500000D03*
X274000000Y-122500000D03*
X274500000Y-114000000D03*
X274500000Y-115000000D03*
X274500000Y-122000000D03*
X274500000Y-123000000D03*
X275000000Y-114500000D03*
X275000000Y-122500000D03*
D11*
%TO.C,J2*%
X230600000Y-121975000D03*
X230600000Y-127625000D03*
D12*
%TO.C,J5*%
X231060000Y-105700000D03*
%TO.C,J3*%
X231060000Y-108240000D03*
X231060000Y-110780000D03*
X231060000Y-113320000D03*
X231060000Y-115860000D03*
X231060000Y-118400000D03*
%TO.C,J4*%
X231060000Y-131100000D03*
%TO.C,J5*%
X233600000Y-105700000D03*
%TO.C,J4*%
X233600000Y-131100000D03*
%TO.C,J5*%
X236140000Y-105700000D03*
%TO.C,J4*%
X236140000Y-131100000D03*
%TO.C,J1*%
X238680000Y-105700000D03*
%TO.C,J4*%
X238680000Y-131100000D03*
%TO.C,J1*%
X241220000Y-105700000D03*
%TO.C,J4*%
X241220000Y-131100000D03*
%TO.C,J1*%
X243760000Y-105700000D03*
X246300000Y-105700000D03*
X248840000Y-105700000D03*
X251380000Y-105700000D03*
%TO.C,J9*%
X264080000Y-105700000D03*
%TO.C,J10*%
X264080000Y-131100000D03*
%TO.C,J9*%
X266620000Y-105700000D03*
%TO.C,J10*%
X266620000Y-131100000D03*
%TO.C,J9*%
X269160000Y-105700000D03*
%TO.C,J10*%
X269160000Y-131100000D03*
%TO.C,J9*%
X271700000Y-105700000D03*
%TO.C,J10*%
X271700000Y-131100000D03*
%TO.C,J9*%
X274240000Y-105700000D03*
%TO.C,J8*%
X274240000Y-109510000D03*
X274240000Y-112050000D03*
%TO.C,J7*%
X274240000Y-117130000D03*
X274240000Y-119670000D03*
%TO.C,J6*%
X274240000Y-124750000D03*
X274240000Y-127290000D03*
%TO.C,J10*%
X274240000Y-131100000D03*
%TO.C,J9*%
X276780000Y-105700000D03*
%TO.C,J8*%
X276780000Y-109510000D03*
X276780000Y-112050000D03*
%TO.C,J7*%
X276780000Y-117130000D03*
X276780000Y-119670000D03*
%TO.C,J6*%
X276780000Y-124750000D03*
X276780000Y-127290000D03*
%TO.C,J10*%
X276780000Y-131100000D03*
M02*
