%TF.GenerationSoftware,KiCad,Pcbnew,6.0.5+dfsg-1~bpo11+1*%
%TF.CreationDate,2022-07-20T16:51:46+00:00*%
%TF.ProjectId,xESC2,78455343-322e-46b6-9963-61645f706362,rev?*%
%TF.SameCoordinates,Original*%
%TF.FileFunction,Legend,Top*%
%TF.FilePolarity,Positive*%
%FSLAX46Y46*%
G04 Gerber Fmt 4.6, Leading zero omitted, Abs format (unit mm)*
G04 Created by KiCad (PCBNEW 6.0.5+dfsg-1~bpo11+1) date 2022-07-20 16:51:46*
%MOMM*%
%LPD*%
G01*
G04 APERTURE LIST*
%ADD10C,0.150000*%
%ADD11C,0.120000*%
%ADD12C,0.127000*%
%ADD13C,0.200000*%
G04 APERTURE END LIST*
D10*
X257409523Y-130597380D02*
X257933333Y-129930714D01*
X257409523Y-129930714D02*
X257933333Y-130597380D01*
X258314285Y-130073571D02*
X258647619Y-130073571D01*
X258790476Y-130597380D02*
X258314285Y-130597380D01*
X258314285Y-129597380D01*
X258790476Y-129597380D01*
X259171428Y-130549761D02*
X259314285Y-130597380D01*
X259552380Y-130597380D01*
X259647619Y-130549761D01*
X259695238Y-130502142D01*
X259742857Y-130406904D01*
X259742857Y-130311666D01*
X259695238Y-130216428D01*
X259647619Y-130168809D01*
X259552380Y-130121190D01*
X259361904Y-130073571D01*
X259266666Y-130025952D01*
X259219047Y-129978333D01*
X259171428Y-129883095D01*
X259171428Y-129787857D01*
X259219047Y-129692619D01*
X259266666Y-129645000D01*
X259361904Y-129597380D01*
X259600000Y-129597380D01*
X259742857Y-129645000D01*
X260742857Y-130502142D02*
X260695238Y-130549761D01*
X260552380Y-130597380D01*
X260457142Y-130597380D01*
X260314285Y-130549761D01*
X260219047Y-130454523D01*
X260171428Y-130359285D01*
X260123809Y-130168809D01*
X260123809Y-130025952D01*
X260171428Y-129835476D01*
X260219047Y-129740238D01*
X260314285Y-129645000D01*
X260457142Y-129597380D01*
X260552380Y-129597380D01*
X260695238Y-129645000D01*
X260742857Y-129692619D01*
X255790476Y-132207380D02*
X255790476Y-131540714D01*
X255790476Y-131635952D02*
X255838095Y-131588333D01*
X255933333Y-131540714D01*
X256076190Y-131540714D01*
X256171428Y-131588333D01*
X256219047Y-131683571D01*
X256219047Y-132207380D01*
X256219047Y-131683571D02*
X256266666Y-131588333D01*
X256361904Y-131540714D01*
X256504761Y-131540714D01*
X256600000Y-131588333D01*
X256647619Y-131683571D01*
X256647619Y-132207380D01*
X257123809Y-132207380D02*
X257123809Y-131540714D01*
X257123809Y-131207380D02*
X257076190Y-131255000D01*
X257123809Y-131302619D01*
X257171428Y-131255000D01*
X257123809Y-131207380D01*
X257123809Y-131302619D01*
X257600000Y-131540714D02*
X257600000Y-132207380D01*
X257600000Y-131635952D02*
X257647619Y-131588333D01*
X257742857Y-131540714D01*
X257885714Y-131540714D01*
X257980952Y-131588333D01*
X258028571Y-131683571D01*
X258028571Y-132207380D01*
X258504761Y-132207380D02*
X258504761Y-131540714D01*
X258504761Y-131207380D02*
X258457142Y-131255000D01*
X258504761Y-131302619D01*
X258552380Y-131255000D01*
X258504761Y-131207380D01*
X258504761Y-131302619D01*
X259647619Y-131540714D02*
X259885714Y-132207380D01*
X260123809Y-131540714D01*
X261028571Y-132207380D02*
X260457142Y-132207380D01*
X260742857Y-132207380D02*
X260742857Y-131207380D01*
X260647619Y-131350238D01*
X260552380Y-131445476D01*
X260457142Y-131493095D01*
X261457142Y-132112142D02*
X261504761Y-132159761D01*
X261457142Y-132207380D01*
X261409523Y-132159761D01*
X261457142Y-132112142D01*
X261457142Y-132207380D01*
X262457142Y-132207380D02*
X261885714Y-132207380D01*
X262171428Y-132207380D02*
X262171428Y-131207380D01*
X262076190Y-131350238D01*
X261980952Y-131445476D01*
X261885714Y-131493095D01*
%TO.C,FID1*%
X274428571Y-127328571D02*
X274095238Y-127328571D01*
X274095238Y-127852380D02*
X274095238Y-126852380D01*
X274571428Y-126852380D01*
X274952380Y-127852380D02*
X274952380Y-126852380D01*
X275428571Y-127852380D02*
X275428571Y-126852380D01*
X275666666Y-126852380D01*
X275809523Y-126900000D01*
X275904761Y-126995238D01*
X275952380Y-127090476D01*
X276000000Y-127280952D01*
X276000000Y-127423809D01*
X275952380Y-127614285D01*
X275904761Y-127709523D01*
X275809523Y-127804761D01*
X275666666Y-127852380D01*
X275428571Y-127852380D01*
X276952380Y-127852380D02*
X276380952Y-127852380D01*
X276666666Y-127852380D02*
X276666666Y-126852380D01*
X276571428Y-126995238D01*
X276476190Y-127090476D01*
X276380952Y-127138095D01*
%TO.C,FID2*%
X274428571Y-105328571D02*
X274095238Y-105328571D01*
X274095238Y-105852380D02*
X274095238Y-104852380D01*
X274571428Y-104852380D01*
X274952380Y-105852380D02*
X274952380Y-104852380D01*
X275428571Y-105852380D02*
X275428571Y-104852380D01*
X275666666Y-104852380D01*
X275809523Y-104900000D01*
X275904761Y-104995238D01*
X275952380Y-105090476D01*
X276000000Y-105280952D01*
X276000000Y-105423809D01*
X275952380Y-105614285D01*
X275904761Y-105709523D01*
X275809523Y-105804761D01*
X275666666Y-105852380D01*
X275428571Y-105852380D01*
X276380952Y-104947619D02*
X276428571Y-104900000D01*
X276523809Y-104852380D01*
X276761904Y-104852380D01*
X276857142Y-104900000D01*
X276904761Y-104947619D01*
X276952380Y-105042857D01*
X276952380Y-105138095D01*
X276904761Y-105280952D01*
X276333333Y-105852380D01*
X276952380Y-105852380D01*
%TO.C,FID3*%
X233828571Y-127728571D02*
X233495238Y-127728571D01*
X233495238Y-128252380D02*
X233495238Y-127252380D01*
X233971428Y-127252380D01*
X234352380Y-128252380D02*
X234352380Y-127252380D01*
X234828571Y-128252380D02*
X234828571Y-127252380D01*
X235066666Y-127252380D01*
X235209523Y-127300000D01*
X235304761Y-127395238D01*
X235352380Y-127490476D01*
X235400000Y-127680952D01*
X235400000Y-127823809D01*
X235352380Y-128014285D01*
X235304761Y-128109523D01*
X235209523Y-128204761D01*
X235066666Y-128252380D01*
X234828571Y-128252380D01*
X235733333Y-127252380D02*
X236352380Y-127252380D01*
X236019047Y-127633333D01*
X236161904Y-127633333D01*
X236257142Y-127680952D01*
X236304761Y-127728571D01*
X236352380Y-127823809D01*
X236352380Y-128061904D01*
X236304761Y-128157142D01*
X236257142Y-128204761D01*
X236161904Y-128252380D01*
X235876190Y-128252380D01*
X235780952Y-128204761D01*
X235733333Y-128157142D01*
%TO.C,FID5*%
X231728571Y-105228571D02*
X231395238Y-105228571D01*
X231395238Y-105752380D02*
X231395238Y-104752380D01*
X231871428Y-104752380D01*
X232252380Y-105752380D02*
X232252380Y-104752380D01*
X232728571Y-105752380D02*
X232728571Y-104752380D01*
X232966666Y-104752380D01*
X233109523Y-104800000D01*
X233204761Y-104895238D01*
X233252380Y-104990476D01*
X233300000Y-105180952D01*
X233300000Y-105323809D01*
X233252380Y-105514285D01*
X233204761Y-105609523D01*
X233109523Y-105704761D01*
X232966666Y-105752380D01*
X232728571Y-105752380D01*
X234204761Y-104752380D02*
X233728571Y-104752380D01*
X233680952Y-105228571D01*
X233728571Y-105180952D01*
X233823809Y-105133333D01*
X234061904Y-105133333D01*
X234157142Y-105180952D01*
X234204761Y-105228571D01*
X234252380Y-105323809D01*
X234252380Y-105561904D01*
X234204761Y-105657142D01*
X234157142Y-105704761D01*
X234061904Y-105752380D01*
X233823809Y-105752380D01*
X233728571Y-105704761D01*
X233680952Y-105657142D01*
D11*
%TO.C,C32*%
X236010000Y-127540580D02*
X236010000Y-127259420D01*
X234990000Y-127540580D02*
X234990000Y-127259420D01*
%TO.C,C33*%
X242010000Y-127259420D02*
X242010000Y-127540580D01*
X240990000Y-127259420D02*
X240990000Y-127540580D01*
%TO.C,C34*%
X234690580Y-115210000D02*
X234409420Y-115210000D01*
X234690580Y-114190000D02*
X234409420Y-114190000D01*
%TO.C,C35*%
X250665000Y-108938748D02*
X250665000Y-109461252D01*
X252135000Y-108938748D02*
X252135000Y-109461252D01*
%TO.C,C37*%
X244470000Y-128559420D02*
X244470000Y-128840580D01*
X243450000Y-128559420D02*
X243450000Y-128840580D01*
%TO.C,C38*%
X247225000Y-128971252D02*
X247225000Y-128448748D01*
X248695000Y-128971252D02*
X248695000Y-128448748D01*
%TO.C,C40*%
X251710000Y-112940580D02*
X251710000Y-112659420D01*
X250690000Y-112940580D02*
X250690000Y-112659420D01*
%TO.C,C41*%
X235290000Y-121859420D02*
X235290000Y-122140580D01*
X236310000Y-121859420D02*
X236310000Y-122140580D01*
%TO.C,C42*%
X250310000Y-128759420D02*
X250310000Y-129040580D01*
X249290000Y-128759420D02*
X249290000Y-129040580D01*
%TO.C,C39*%
X245145000Y-128971252D02*
X245145000Y-128448748D01*
X246615000Y-128971252D02*
X246615000Y-128448748D01*
%TO.C,R16*%
X253802742Y-132282500D02*
X254277258Y-132282500D01*
X253802742Y-131237500D02*
X254277258Y-131237500D01*
%TO.C,D2*%
X252555000Y-129425000D02*
X252555000Y-130895000D01*
X252555000Y-130895000D02*
X254840000Y-130895000D01*
X254840000Y-129425000D02*
X252555000Y-129425000D01*
%TO.C,J3*%
X229730000Y-109510000D02*
X229730000Y-119730000D01*
X232390000Y-109510000D02*
X232390000Y-119730000D01*
X229730000Y-109510000D02*
X232390000Y-109510000D01*
X229730000Y-119730000D02*
X232390000Y-119730000D01*
X229730000Y-106910000D02*
X231060000Y-106910000D01*
X229730000Y-108240000D02*
X229730000Y-106910000D01*
%TO.C,D4*%
X252135000Y-129700000D02*
X252135000Y-127415000D01*
X252135000Y-127415000D02*
X250665000Y-127415000D01*
X250665000Y-127415000D02*
X250665000Y-129700000D01*
%TO.C,D5*%
X249325000Y-131025000D02*
X247040000Y-131025000D01*
X247040000Y-132495000D02*
X249325000Y-132495000D01*
X249325000Y-132495000D02*
X249325000Y-131025000D01*
%TO.C,R37*%
X250702742Y-132282500D02*
X251177258Y-132282500D01*
X250702742Y-131237500D02*
X251177258Y-131237500D01*
%TO.C,R38*%
X244502742Y-132282500D02*
X244977258Y-132282500D01*
X244502742Y-131237500D02*
X244977258Y-131237500D01*
%TO.C,R39*%
X254662742Y-106422500D02*
X255137258Y-106422500D01*
X254662742Y-105377500D02*
X255137258Y-105377500D01*
%TO.C,R40*%
X260762742Y-106422500D02*
X261237258Y-106422500D01*
X260762742Y-105377500D02*
X261237258Y-105377500D01*
%TO.C,U4*%
X245071751Y-124954880D02*
X244400000Y-125626631D01*
X251626631Y-118400000D02*
X250954880Y-117728249D01*
X237845120Y-119071751D02*
X236897597Y-120019275D01*
X250954880Y-119071751D02*
X251626631Y-118400000D01*
X244400000Y-125626631D02*
X243728249Y-124954880D01*
X237845120Y-117728249D02*
X237173369Y-118400000D01*
X243728249Y-111845120D02*
X244400000Y-111173369D01*
X244400000Y-111173369D02*
X245071751Y-111845120D01*
X237173369Y-118400000D02*
X237845120Y-119071751D01*
%TO.C,C1*%
X253090000Y-127111252D02*
X253090000Y-125688748D01*
X254910000Y-127111252D02*
X254910000Y-125688748D01*
%TO.C,C2*%
X254910000Y-119111252D02*
X254910000Y-117688748D01*
X253090000Y-119111252D02*
X253090000Y-117688748D01*
%TO.C,Q1*%
X255940000Y-123715000D02*
X262060000Y-123715000D01*
X255940000Y-129085000D02*
X262060000Y-129085000D01*
X262060000Y-124065000D02*
X262060000Y-123715000D01*
X255940000Y-124015000D02*
X255940000Y-123715000D01*
X255940000Y-128785000D02*
X255940000Y-129085000D01*
%TO.C,Q3*%
X255940000Y-120785000D02*
X255940000Y-121085000D01*
X255940000Y-115715000D02*
X262060000Y-115715000D01*
X262060000Y-116065000D02*
X262060000Y-115715000D01*
X255940000Y-116015000D02*
X255940000Y-115715000D01*
X255940000Y-121085000D02*
X262060000Y-121085000D01*
%TO.C,Q5*%
X255940000Y-108015000D02*
X255940000Y-107715000D01*
X255940000Y-112785000D02*
X255940000Y-113085000D01*
X255940000Y-107715000D02*
X262060000Y-107715000D01*
X255940000Y-113085000D02*
X262060000Y-113085000D01*
X262060000Y-108065000D02*
X262060000Y-107715000D01*
D12*
%TO.C,J2*%
X231950000Y-120820000D02*
X229150000Y-120820000D01*
X231950000Y-128780000D02*
X229150000Y-128780000D01*
X229150000Y-120900000D02*
X229150000Y-128700000D01*
D13*
X234650000Y-123500000D02*
G75*
G03*
X234650000Y-123500000I-100000J0D01*
G01*
D11*
%TO.C,D3*%
X235200000Y-115750000D02*
X233200000Y-115750000D01*
X233200000Y-115750000D02*
X233200000Y-119650000D01*
X235200000Y-115750000D02*
X235200000Y-119650000D01*
%TO.C,R32*%
X245622500Y-109337258D02*
X245622500Y-108862742D01*
X244577500Y-109337258D02*
X244577500Y-108862742D01*
%TO.C,R31*%
X246277500Y-109337258D02*
X246277500Y-108862742D01*
X247322500Y-109337258D02*
X247322500Y-108862742D01*
%TO.C,Q6*%
X264940000Y-112785000D02*
X264940000Y-113085000D01*
X264940000Y-113085000D02*
X271060000Y-113085000D01*
X264940000Y-107715000D02*
X271060000Y-107715000D01*
X271060000Y-108065000D02*
X271060000Y-107715000D01*
X264940000Y-108015000D02*
X264940000Y-107715000D01*
%TO.C,Q4*%
X264940000Y-120785000D02*
X264940000Y-121085000D01*
X264940000Y-121085000D02*
X271060000Y-121085000D01*
X271060000Y-116065000D02*
X271060000Y-115715000D01*
X264940000Y-116015000D02*
X264940000Y-115715000D01*
X264940000Y-115715000D02*
X271060000Y-115715000D01*
%TO.C,Q2*%
X271060000Y-124065000D02*
X271060000Y-123715000D01*
X264940000Y-129085000D02*
X271060000Y-129085000D01*
X264940000Y-123715000D02*
X271060000Y-123715000D01*
X264940000Y-124015000D02*
X264940000Y-123715000D01*
X264940000Y-128785000D02*
X264940000Y-129085000D01*
%TO.C,C3*%
X253090000Y-111111252D02*
X253090000Y-109688748D01*
X254910000Y-111111252D02*
X254910000Y-109688748D01*
%TO.C,Y1*%
X236500000Y-129050000D02*
X240500000Y-129050000D01*
X236500000Y-125750000D02*
X236500000Y-129050000D01*
%TO.C,C36*%
X242388748Y-110385000D02*
X242911252Y-110385000D01*
X242388748Y-108915000D02*
X242911252Y-108915000D01*
%TO.C,C43*%
X240710000Y-109340580D02*
X240710000Y-109059420D01*
X239690000Y-109340580D02*
X239690000Y-109059420D01*
%TO.C,R33*%
X234877500Y-108962742D02*
X234877500Y-109437258D01*
X235922500Y-108962742D02*
X235922500Y-109437258D01*
%TO.C,R34*%
X236477500Y-108962742D02*
X236477500Y-109437258D01*
X237522500Y-108962742D02*
X237522500Y-109437258D01*
%TO.C,C44*%
X234310000Y-112159420D02*
X234310000Y-112440580D01*
X233290000Y-112159420D02*
X233290000Y-112440580D01*
%TO.C,C45*%
X235910000Y-112159420D02*
X235910000Y-112440580D01*
X234890000Y-112159420D02*
X234890000Y-112440580D01*
%TO.C,C46*%
X236490000Y-112159420D02*
X236490000Y-112440580D01*
X237510000Y-112159420D02*
X237510000Y-112440580D01*
%TO.C,R35*%
X239122500Y-108962742D02*
X239122500Y-109437258D01*
X238077500Y-108962742D02*
X238077500Y-109437258D01*
%TO.C,R30*%
X233277500Y-108962742D02*
X233277500Y-109437258D01*
X234322500Y-108962742D02*
X234322500Y-109437258D01*
%TO.C,C47*%
X238090000Y-112159420D02*
X238090000Y-112440580D01*
X239110000Y-112159420D02*
X239110000Y-112440580D01*
%TD*%
M02*
