%TF.GenerationSoftware,KiCad,Pcbnew,8.0.4+1*%
%TF.CreationDate,2024-10-07T15:19:18+00:00*%
%TF.ProjectId,xESC2,78455343-322e-46b6-9963-61645f706362,rev?*%
%TF.SameCoordinates,Original*%
%TF.FileFunction,Drillmap*%
%TF.FilePolarity,Positive*%
%FSLAX45Y45*%
G04 Gerber Fmt 4.5, Leading zero omitted, Abs format (unit mm)*
G04 Created by KiCad (PCBNEW 8.0.4+1) date 2024-10-07 15:19:18*
%MOMM*%
%LPD*%
G01*
G04 APERTURE LIST*
%ADD10C,0.050000*%
%ADD11C,0.200000*%
G04 APERTURE END LIST*
D10*
X22900000Y-10390000D02*
X27850000Y-10390000D01*
X27850000Y-10390000D02*
X27850000Y-13290000D01*
X22900000Y-13290000D02*
X22900000Y-10390000D01*
X27850000Y-13290000D02*
X22900000Y-13290000D01*
D11*
X23158277Y-13603984D02*
X23158277Y-13403984D01*
X23158277Y-13403984D02*
X23205896Y-13403984D01*
X23205896Y-13403984D02*
X23234467Y-13413508D01*
X23234467Y-13413508D02*
X23253515Y-13432555D01*
X23253515Y-13432555D02*
X23263039Y-13451603D01*
X23263039Y-13451603D02*
X23272562Y-13489698D01*
X23272562Y-13489698D02*
X23272562Y-13518269D01*
X23272562Y-13518269D02*
X23263039Y-13556365D01*
X23263039Y-13556365D02*
X23253515Y-13575412D01*
X23253515Y-13575412D02*
X23234467Y-13594460D01*
X23234467Y-13594460D02*
X23205896Y-13603984D01*
X23205896Y-13603984D02*
X23158277Y-13603984D01*
X23358277Y-13603984D02*
X23358277Y-13470650D01*
X23358277Y-13508746D02*
X23367801Y-13489698D01*
X23367801Y-13489698D02*
X23377324Y-13480174D01*
X23377324Y-13480174D02*
X23396372Y-13470650D01*
X23396372Y-13470650D02*
X23415420Y-13470650D01*
X23482086Y-13603984D02*
X23482086Y-13470650D01*
X23482086Y-13403984D02*
X23472562Y-13413508D01*
X23472562Y-13413508D02*
X23482086Y-13423031D01*
X23482086Y-13423031D02*
X23491610Y-13413508D01*
X23491610Y-13413508D02*
X23482086Y-13403984D01*
X23482086Y-13403984D02*
X23482086Y-13423031D01*
X23605896Y-13603984D02*
X23586848Y-13594460D01*
X23586848Y-13594460D02*
X23577324Y-13575412D01*
X23577324Y-13575412D02*
X23577324Y-13403984D01*
X23710658Y-13603984D02*
X23691610Y-13594460D01*
X23691610Y-13594460D02*
X23682086Y-13575412D01*
X23682086Y-13575412D02*
X23682086Y-13403984D01*
X23939229Y-13603984D02*
X23939229Y-13403984D01*
X23939229Y-13403984D02*
X24005896Y-13546841D01*
X24005896Y-13546841D02*
X24072562Y-13403984D01*
X24072562Y-13403984D02*
X24072562Y-13603984D01*
X24253515Y-13603984D02*
X24253515Y-13499222D01*
X24253515Y-13499222D02*
X24243991Y-13480174D01*
X24243991Y-13480174D02*
X24224943Y-13470650D01*
X24224943Y-13470650D02*
X24186848Y-13470650D01*
X24186848Y-13470650D02*
X24167801Y-13480174D01*
X24253515Y-13594460D02*
X24234467Y-13603984D01*
X24234467Y-13603984D02*
X24186848Y-13603984D01*
X24186848Y-13603984D02*
X24167801Y-13594460D01*
X24167801Y-13594460D02*
X24158277Y-13575412D01*
X24158277Y-13575412D02*
X24158277Y-13556365D01*
X24158277Y-13556365D02*
X24167801Y-13537317D01*
X24167801Y-13537317D02*
X24186848Y-13527793D01*
X24186848Y-13527793D02*
X24234467Y-13527793D01*
X24234467Y-13527793D02*
X24253515Y-13518269D01*
X24348753Y-13470650D02*
X24348753Y-13670650D01*
X24348753Y-13480174D02*
X24367801Y-13470650D01*
X24367801Y-13470650D02*
X24405896Y-13470650D01*
X24405896Y-13470650D02*
X24424943Y-13480174D01*
X24424943Y-13480174D02*
X24434467Y-13489698D01*
X24434467Y-13489698D02*
X24443991Y-13508746D01*
X24443991Y-13508746D02*
X24443991Y-13565888D01*
X24443991Y-13565888D02*
X24434467Y-13584936D01*
X24434467Y-13584936D02*
X24424943Y-13594460D01*
X24424943Y-13594460D02*
X24405896Y-13603984D01*
X24405896Y-13603984D02*
X24367801Y-13603984D01*
X24367801Y-13603984D02*
X24348753Y-13594460D01*
X24529705Y-13584936D02*
X24539229Y-13594460D01*
X24539229Y-13594460D02*
X24529705Y-13603984D01*
X24529705Y-13603984D02*
X24520182Y-13594460D01*
X24520182Y-13594460D02*
X24529705Y-13584936D01*
X24529705Y-13584936D02*
X24529705Y-13603984D01*
X24529705Y-13480174D02*
X24539229Y-13489698D01*
X24539229Y-13489698D02*
X24529705Y-13499222D01*
X24529705Y-13499222D02*
X24520182Y-13489698D01*
X24520182Y-13489698D02*
X24529705Y-13480174D01*
X24529705Y-13480174D02*
X24529705Y-13499222D01*
M02*
