M48
; DRILL file KiCad 10.0.5-unknown-202607221313~667fa36054~ubuntu25.10.1 date 2026-08-25T13:17:37
; FORMAT={-:-/ absolute / metric / decimal}
; #@! TF.CreationDate,2026-08-25T13:17:37+00:00
; #@! TF.GenerationSoftware,Kicad,Pcbnew,10.0.5-unknown-202607221313~667fa36054~ubuntu25.10.1
; #@! TF.FileFunction,Plated,1,4,PTH
FMAT,2
METRIC
; #@! TA.AperFunction,Plated,PTH,ViaDrill
T1C0.200
; #@! TA.AperFunction,Plated,PTH,ViaDrill
T2C0.300
; #@! TA.AperFunction,Plated,PTH,ComponentDrill
T3C0.600
; #@! TA.AperFunction,Plated,PTH,ComponentDrill
T4C1.000
%
G90
G05
T1
X123.4Y-98.75
X123.4Y-105.4
X124.581Y-102.619
X124.6Y-100.125
X124.6Y-100.702
X124.6Y-101.35
X124.6Y-103.35
X124.6Y-104.05
X125.8Y-105.4
X126.05Y-98.75
X126.9Y-98.15
X126.9Y-99.188
X126.9Y-100.225
X126.9Y-101.262
X126.9Y-102.3
X127.357Y-94.617
X127.707Y-103.167
X128.457Y-92.817
X128.782Y-88.667
X128.807Y-84.642
X128.982Y-93.967
X129.074Y-97.209
X129.25Y-98.15
X129.3Y-104.5
X129.3Y-105.4
X129.357Y-93.467
X129.907Y-88.992
X129.907Y-89.542
X130.057Y-103.917
X130.06Y-93.279
X130.091Y-98.159
X130.35Y-103.15
X130.632Y-89.542
X130.757Y-99.092
X130.757Y-100.967
X130.976Y-105.252
X131.357Y-102.267
X131.457Y-101.617
X131.507Y-100.967
X131.557Y-85.248
X131.757Y-100.217
X131.907Y-89.542
X132.6Y-106.6
X132.619Y-96.38
X133.014Y-95.117
X133.032Y-97.392
X133.057Y-82.317
X133.204Y-95.913
X133.357Y-105.667
X133.454Y-102.133
X133.607Y-85.217
X133.845Y-95.047
X133.935Y-89.62
X133.957Y-98.367
X134.257Y-105.667
X134.266Y-96.686
X134.432Y-106.617
X134.654Y-94.698
X134.682Y-95.767
X134.757Y-99.292
X134.837Y-98.417
X135.107Y-87.517
X135.307Y-105.617
X135.507Y-82.217
X135.507Y-85.217
X135.719Y-91.655
X135.826Y-90.961
X135.857Y-87.917
X135.957Y-99.274
X136.457Y-91.717
X136.532Y-88.342
X136.609Y-90.31
X136.657Y-99.274
X136.807Y-100.942
X136.807Y-91.017
X136.807Y-100.167
X137.157Y-90.492
X137.275Y-106.475
X137.657Y-103.517
X137.9Y-109.524
X138.0Y-107.1
X138.1Y-106.3
X138.138Y-83.949
X138.257Y-93.517
X138.257Y-95.517
X138.257Y-97.517
X138.257Y-102.917
X138.957Y-107.867
X139.257Y-93.517
X139.257Y-97.517
X139.513Y-103.449
X139.557Y-109.667
X139.6Y-108.4
X139.7Y-105.6
X139.7Y-106.467
X139.882Y-86.042
X140.032Y-88.249
X140.257Y-93.517
X140.257Y-95.517
X140.257Y-97.517
X140.357Y-88.767
X140.382Y-84.092
X140.582Y-82.317
X140.7Y-104.3
X140.767Y-89.173
X141.032Y-102.867
X141.057Y-98.417
X141.144Y-89.61
X141.557Y-86.917
X141.557Y-95.417
X141.557Y-96.917
X141.638Y-101.396
X142.057Y-86.417
X142.057Y-87.417
X142.4Y-104.8
X142.607Y-84.617
X142.707Y-102.467
X142.9Y-103.7
X142.957Y-96.117
X143.407Y-102.117
X143.5Y-106.3
X143.582Y-90.117
X144.0Y-104.7
X144.032Y-100.292
X144.032Y-88.517
X144.098Y-91.728
X144.107Y-102.117
X144.212Y-98.983
X144.3Y-106.0
X144.432Y-99.667
X144.6Y-103.5
X144.7Y-84.7
X145.449Y-104.1
X145.482Y-91.917
X145.532Y-102.967
X146.057Y-108.417
X146.057Y-109.667
X146.657Y-85.217
X146.741Y-100.323
X146.857Y-98.317
X146.857Y-99.167
X147.057Y-101.867
X147.2Y-83.1
X147.257Y-91.617
X147.357Y-92.617
X147.457Y-85.017
X147.457Y-106.317
X147.707Y-104.217
X148.007Y-109.667
X148.057Y-91.717
X148.107Y-100.217
X149.457Y-91.217
X149.457Y-92.217
X149.457Y-99.217
X149.457Y-100.217
X150.057Y-82.22
X150.057Y-84.217
X150.057Y-107.417
X150.057Y-109.417
X150.457Y-91.717
X150.457Y-99.717
X150.557Y-83.217
X150.557Y-108.417
X151.457Y-91.217
X151.457Y-92.217
X151.457Y-99.217
X151.457Y-100.217
X151.557Y-82.217
X151.557Y-84.217
X151.557Y-107.417
X151.557Y-109.417
X152.057Y-83.217
X152.057Y-108.417
X152.457Y-91.717
X152.457Y-99.717
X153.057Y-82.217
X153.057Y-84.217
X153.057Y-107.417
X153.057Y-109.417
X153.457Y-91.217
X153.457Y-92.217
X153.457Y-99.217
X153.457Y-100.217
X153.766Y-104.717
X153.832Y-96.742
X153.879Y-89.062
X154.357Y-91.217
X154.613Y-92.713
X154.782Y-91.792
X154.807Y-99.567
X154.957Y-84.699
X154.957Y-93.812
X154.957Y-101.462
X155.157Y-85.533
X155.407Y-90.767
X156.007Y-101.133
X156.057Y-91.217
X156.057Y-92.343
X156.057Y-93.917
X156.107Y-99.567
X156.457Y-84.717
X157.857Y-91.867
X157.857Y-99.567
X158.957Y-91.867
X158.957Y-99.567
X160.057Y-91.867
X160.057Y-99.567
X161.455Y-92.917
X161.455Y-98.567
X161.455Y-100.567
X161.455Y-106.117
X162.707Y-85.317
X162.757Y-101.067
X162.907Y-93.367
X163.007Y-91.867
X164.057Y-91.667
X164.059Y-99.308
X164.557Y-92.167
X164.559Y-99.808
X165.057Y-91.667
X165.059Y-99.308
X165.557Y-92.167
X165.559Y-99.808
X166.057Y-91.667
X166.059Y-99.308
X166.557Y-92.167
X166.559Y-99.808
X167.057Y-91.667
X167.059Y-99.308
X167.557Y-92.167
X167.559Y-99.808
X168.057Y-91.667
X168.059Y-99.308
X168.557Y-92.167
X168.557Y-99.817
X169.057Y-91.667
X169.057Y-99.317
X169.557Y-92.167
X169.557Y-99.817
X170.057Y-91.667
X170.057Y-99.317
X170.557Y-92.167
X170.557Y-99.817
X171.057Y-91.667
X171.057Y-99.317
T2
X157.257Y-86.717
X157.257Y-88.017
X157.257Y-89.367
X157.257Y-94.417
X157.257Y-95.717
X157.257Y-97.067
X157.257Y-102.067
X157.257Y-103.317
X157.257Y-104.717
X157.857Y-85.317
X157.857Y-90.717
X157.857Y-93.017
X157.857Y-98.417
X157.857Y-100.667
X157.857Y-106.067
X158.939Y-85.317
X158.957Y-90.717
X158.957Y-93.017
X158.957Y-98.417
X158.957Y-100.667
X158.957Y-106.067
X160.02Y-85.317
X160.057Y-90.717
X160.057Y-93.017
X160.057Y-98.417
X160.057Y-100.667
X160.057Y-106.067
X163.007Y-86.867
X163.007Y-88.017
X163.007Y-89.317
X163.007Y-90.567
X163.007Y-94.489
X163.007Y-95.717
X163.007Y-96.967
X163.007Y-98.417
X163.007Y-102.217
X163.007Y-103.367
X163.007Y-104.667
X163.007Y-106.067
X164.857Y-86.817
X164.857Y-88.017
X164.857Y-89.317
X164.857Y-94.517
X164.857Y-95.717
X164.857Y-96.917
X164.857Y-102.117
X164.857Y-103.267
X164.857Y-104.367
T4
X124.117Y-83.017
X124.117Y-85.557
X124.117Y-88.097
X124.117Y-90.637
X124.117Y-93.177
X124.117Y-95.717
X124.117Y-108.417
X126.657Y-83.017
X126.657Y-108.417
X129.197Y-83.017
X129.197Y-108.417
X131.737Y-83.017
X131.737Y-108.417
X134.277Y-83.017
X134.277Y-108.417
X136.817Y-83.017
X139.357Y-83.017
X141.897Y-83.017
X144.437Y-83.017
X157.137Y-83.017
X157.137Y-108.417
X159.677Y-83.017
X159.677Y-108.417
X162.217Y-83.017
X162.217Y-108.417
X164.757Y-83.017
X164.757Y-108.417
X167.297Y-83.017
X167.297Y-86.827
X167.297Y-89.367
X167.297Y-94.447
X167.297Y-96.987
X167.297Y-102.067
X167.297Y-104.607
X167.297Y-108.417
X169.837Y-83.017
X169.837Y-86.827
X169.837Y-89.367
X169.837Y-94.447
X169.837Y-96.987
X169.837Y-102.067
X169.837Y-104.607
X169.837Y-108.417
T3
X124.8Y-97.76G85X124.4Y-97.76
G05
X124.8Y-106.44G85X124.4Y-106.44
G05
M30
