G04 #@! TF.GenerationSoftware,KiCad,Pcbnew,10.0.5-unknown-202607221313~667fa36054~ubuntu25.10.1*
G04 #@! TF.CreationDate,2026-08-25T13:17:36+00:00*
G04 #@! TF.ProjectId,xESC2,78455343-322e-46b6-9963-61645f706362,rev?*
G04 #@! TF.SameCoordinates,Original*
G04 #@! TF.FileFunction,Soldermask,Bot*
G04 #@! TF.FilePolarity,Negative*
%FSLAX46Y46*%
G04 Gerber Fmt 4.6, Leading zero omitted, Abs format (unit mm)*
G04 Created by KiCad (PCBNEW 10.0.5-unknown-202607221313~667fa36054~ubuntu25.10.1) date 2026-08-25 13:17:36*
%MOMM*%
%LPD*%
G01*
G04 APERTURE LIST*
%ADD10O,1.550000X0.900000*%
%ADD11R,1.700000X1.700000*%
%ADD12O,1.700000X1.700000*%
%ADD13R,0.279400X1.340599*%
%ADD14R,1.340599X0.279400*%
%ADD15R,5.003800X5.003800*%
%ADD16R,1.060000X0.650000*%
%ADD17R,1.600000X3.900000*%
G04 APERTURE END LIST*
D10*
X124600000Y-97760000D03*
X124600000Y-106440000D03*
G36*
G01*
X150481839Y-101442499D02*
X150481839Y-101992499D01*
G75*
G02*
X150281839Y-102192499I-200000J0D01*
G01*
X149881839Y-102192499D01*
G75*
G02*
X149681839Y-101992499I0J200000D01*
G01*
X149681839Y-101442499D01*
G75*
G02*
X149881839Y-101242499I200000J0D01*
G01*
X150281839Y-101242499D01*
G75*
G02*
X150481839Y-101442499I0J-200000D01*
G01*
G37*
G36*
G01*
X148831839Y-101442499D02*
X148831839Y-101992499D01*
G75*
G02*
X148631839Y-102192499I-200000J0D01*
G01*
X148231839Y-102192499D01*
G75*
G02*
X148031839Y-101992499I0J200000D01*
G01*
X148031839Y-101442499D01*
G75*
G02*
X148231839Y-101242499I200000J0D01*
G01*
X148631839Y-101242499D01*
G75*
G02*
X148831839Y-101442499I0J-200000D01*
G01*
G37*
G36*
G01*
X139236839Y-101657499D02*
X139576839Y-101657499D01*
G75*
G02*
X139716839Y-101797499I0J-140000D01*
G01*
X139716839Y-102077499D01*
G75*
G02*
X139576839Y-102217499I-140000J0D01*
G01*
X139236839Y-102217499D01*
G75*
G02*
X139096839Y-102077499I0J140000D01*
G01*
X139096839Y-101797499D01*
G75*
G02*
X139236839Y-101657499I140000J0D01*
G01*
G37*
G36*
G01*
X139236839Y-102617499D02*
X139576839Y-102617499D01*
G75*
G02*
X139716839Y-102757499I0J-140000D01*
G01*
X139716839Y-103037499D01*
G75*
G02*
X139576839Y-103177499I-140000J0D01*
G01*
X139236839Y-103177499D01*
G75*
G02*
X139096839Y-103037499I0J140000D01*
G01*
X139096839Y-102757499D01*
G75*
G02*
X139236839Y-102617499I140000J0D01*
G01*
G37*
G36*
G01*
X135226839Y-101277499D02*
X134886839Y-101277499D01*
G75*
G02*
X134746839Y-101137499I0J140000D01*
G01*
X134746839Y-100857499D01*
G75*
G02*
X134886839Y-100717499I140000J0D01*
G01*
X135226839Y-100717499D01*
G75*
G02*
X135366839Y-100857499I0J-140000D01*
G01*
X135366839Y-101137499D01*
G75*
G02*
X135226839Y-101277499I-140000J0D01*
G01*
G37*
G36*
G01*
X135226839Y-100317499D02*
X134886839Y-100317499D01*
G75*
G02*
X134746839Y-100177499I0J140000D01*
G01*
X134746839Y-99897499D01*
G75*
G02*
X134886839Y-99757499I140000J0D01*
G01*
X135226839Y-99757499D01*
G75*
G02*
X135366839Y-99897499I0J-140000D01*
G01*
X135366839Y-100177499D01*
G75*
G02*
X135226839Y-100317499I-140000J0D01*
G01*
G37*
G36*
G01*
X136581839Y-87567499D02*
X136581839Y-87067499D01*
G75*
G02*
X136806839Y-86842499I225000J0D01*
G01*
X137256839Y-86842499D01*
G75*
G02*
X137481839Y-87067499I0J-225000D01*
G01*
X137481839Y-87567499D01*
G75*
G02*
X137256839Y-87792499I-225000J0D01*
G01*
X136806839Y-87792499D01*
G75*
G02*
X136581839Y-87567499I0J225000D01*
G01*
G37*
G36*
G01*
X138131839Y-87567499D02*
X138131839Y-87067499D01*
G75*
G02*
X138356839Y-86842499I225000J0D01*
G01*
X138806839Y-86842499D01*
G75*
G02*
X139031839Y-87067499I0J-225000D01*
G01*
X139031839Y-87567499D01*
G75*
G02*
X138806839Y-87792499I-225000J0D01*
G01*
X138356839Y-87792499D01*
G75*
G02*
X138131839Y-87567499I0J225000D01*
G01*
G37*
G36*
G01*
X151731839Y-93967499D02*
X151731839Y-93467499D01*
G75*
G02*
X151956839Y-93242499I225000J0D01*
G01*
X152406839Y-93242499D01*
G75*
G02*
X152631839Y-93467499I0J-225000D01*
G01*
X152631839Y-93967499D01*
G75*
G02*
X152406839Y-94192499I-225000J0D01*
G01*
X151956839Y-94192499D01*
G75*
G02*
X151731839Y-93967499I0J225000D01*
G01*
G37*
G36*
G01*
X153281839Y-93967499D02*
X153281839Y-93467499D01*
G75*
G02*
X153506839Y-93242499I225000J0D01*
G01*
X153956839Y-93242499D01*
G75*
G02*
X154181839Y-93467499I0J-225000D01*
G01*
X154181839Y-93967499D01*
G75*
G02*
X153956839Y-94192499I-225000J0D01*
G01*
X153506839Y-94192499D01*
G75*
G02*
X153281839Y-93967499I0J225000D01*
G01*
G37*
G36*
G01*
X151731839Y-89967499D02*
X151731839Y-89467499D01*
G75*
G02*
X151956839Y-89242499I225000J0D01*
G01*
X152406839Y-89242499D01*
G75*
G02*
X152631839Y-89467499I0J-225000D01*
G01*
X152631839Y-89967499D01*
G75*
G02*
X152406839Y-90192499I-225000J0D01*
G01*
X151956839Y-90192499D01*
G75*
G02*
X151731839Y-89967499I0J225000D01*
G01*
G37*
G36*
G01*
X153281839Y-89967499D02*
X153281839Y-89467499D01*
G75*
G02*
X153506839Y-89242499I225000J0D01*
G01*
X153956839Y-89242499D01*
G75*
G02*
X154181839Y-89467499I0J-225000D01*
G01*
X154181839Y-89967499D01*
G75*
G02*
X153956839Y-90192499I-225000J0D01*
G01*
X153506839Y-90192499D01*
G75*
G02*
X153281839Y-89967499I0J225000D01*
G01*
G37*
G36*
G01*
X150481839Y-95442499D02*
X150481839Y-95992499D01*
G75*
G02*
X150281839Y-96192499I-200000J0D01*
G01*
X149881839Y-96192499D01*
G75*
G02*
X149681839Y-95992499I0J200000D01*
G01*
X149681839Y-95442499D01*
G75*
G02*
X149881839Y-95242499I200000J0D01*
G01*
X150281839Y-95242499D01*
G75*
G02*
X150481839Y-95442499I0J-200000D01*
G01*
G37*
G36*
G01*
X148831839Y-95442499D02*
X148831839Y-95992499D01*
G75*
G02*
X148631839Y-96192499I-200000J0D01*
G01*
X148231839Y-96192499D01*
G75*
G02*
X148031839Y-95992499I0J200000D01*
G01*
X148031839Y-95442499D01*
G75*
G02*
X148231839Y-95242499I200000J0D01*
G01*
X148631839Y-95242499D01*
G75*
G02*
X148831839Y-95442499I0J-200000D01*
G01*
G37*
G36*
G01*
X150481839Y-97442499D02*
X150481839Y-97992499D01*
G75*
G02*
X150281839Y-98192499I-200000J0D01*
G01*
X149881839Y-98192499D01*
G75*
G02*
X149681839Y-97992499I0J200000D01*
G01*
X149681839Y-97442499D01*
G75*
G02*
X149881839Y-97242499I200000J0D01*
G01*
X150281839Y-97242499D01*
G75*
G02*
X150481839Y-97442499I0J-200000D01*
G01*
G37*
G36*
G01*
X148831839Y-97442499D02*
X148831839Y-97992499D01*
G75*
G02*
X148631839Y-98192499I-200000J0D01*
G01*
X148231839Y-98192499D01*
G75*
G02*
X148031839Y-97992499I0J200000D01*
G01*
X148031839Y-97442499D01*
G75*
G02*
X148231839Y-97242499I200000J0D01*
G01*
X148631839Y-97242499D01*
G75*
G02*
X148831839Y-97442499I0J-200000D01*
G01*
G37*
G36*
G01*
X165031839Y-94292498D02*
X165031839Y-97142500D01*
G75*
G02*
X164781840Y-97392499I-249999J0D01*
G01*
X164056838Y-97392499D01*
G75*
G02*
X163806839Y-97142500I0J249999D01*
G01*
X163806839Y-94292498D01*
G75*
G02*
X164056838Y-94042499I249999J0D01*
G01*
X164781840Y-94042499D01*
G75*
G02*
X165031839Y-94292498I0J-249999D01*
G01*
G37*
G36*
G01*
X159106839Y-94292498D02*
X159106839Y-97142500D01*
G75*
G02*
X158856840Y-97392499I-249999J0D01*
G01*
X158131838Y-97392499D01*
G75*
G02*
X157881839Y-97142500I0J249999D01*
G01*
X157881839Y-94292498D01*
G75*
G02*
X158131838Y-94042499I249999J0D01*
G01*
X158856840Y-94042499D01*
G75*
G02*
X159106839Y-94292498I0J-249999D01*
G01*
G37*
G36*
G01*
X150481839Y-93442499D02*
X150481839Y-93992499D01*
G75*
G02*
X150281839Y-94192499I-200000J0D01*
G01*
X149881839Y-94192499D01*
G75*
G02*
X149681839Y-93992499I0J200000D01*
G01*
X149681839Y-93442499D01*
G75*
G02*
X149881839Y-93242499I200000J0D01*
G01*
X150281839Y-93242499D01*
G75*
G02*
X150481839Y-93442499I0J-200000D01*
G01*
G37*
G36*
G01*
X148831839Y-93442499D02*
X148831839Y-93992499D01*
G75*
G02*
X148631839Y-94192499I-200000J0D01*
G01*
X148231839Y-94192499D01*
G75*
G02*
X148031839Y-93992499I0J200000D01*
G01*
X148031839Y-93442499D01*
G75*
G02*
X148231839Y-93242499I200000J0D01*
G01*
X148631839Y-93242499D01*
G75*
G02*
X148831839Y-93442499I0J-200000D01*
G01*
G37*
G36*
G01*
X150481839Y-87442499D02*
X150481839Y-87992499D01*
G75*
G02*
X150281839Y-88192499I-200000J0D01*
G01*
X149881839Y-88192499D01*
G75*
G02*
X149681839Y-87992499I0J200000D01*
G01*
X149681839Y-87442499D01*
G75*
G02*
X149881839Y-87242499I200000J0D01*
G01*
X150281839Y-87242499D01*
G75*
G02*
X150481839Y-87442499I0J-200000D01*
G01*
G37*
G36*
G01*
X148831839Y-87442499D02*
X148831839Y-87992499D01*
G75*
G02*
X148631839Y-88192499I-200000J0D01*
G01*
X148231839Y-88192499D01*
G75*
G02*
X148031839Y-87992499I0J200000D01*
G01*
X148031839Y-87442499D01*
G75*
G02*
X148231839Y-87242499I200000J0D01*
G01*
X148631839Y-87242499D01*
G75*
G02*
X148831839Y-87442499I0J-200000D01*
G01*
G37*
G36*
G01*
X150481839Y-85442499D02*
X150481839Y-85992499D01*
G75*
G02*
X150281839Y-86192499I-200000J0D01*
G01*
X149881839Y-86192499D01*
G75*
G02*
X149681839Y-85992499I0J200000D01*
G01*
X149681839Y-85442499D01*
G75*
G02*
X149881839Y-85242499I200000J0D01*
G01*
X150281839Y-85242499D01*
G75*
G02*
X150481839Y-85442499I0J-200000D01*
G01*
G37*
G36*
G01*
X148831839Y-85442499D02*
X148831839Y-85992499D01*
G75*
G02*
X148631839Y-86192499I-200000J0D01*
G01*
X148231839Y-86192499D01*
G75*
G02*
X148031839Y-85992499I0J200000D01*
G01*
X148031839Y-85442499D01*
G75*
G02*
X148231839Y-85242499I200000J0D01*
G01*
X148631839Y-85242499D01*
G75*
G02*
X148831839Y-85442499I0J-200000D01*
G01*
G37*
G36*
G01*
X165031839Y-86592498D02*
X165031839Y-89442500D01*
G75*
G02*
X164781840Y-89692499I-249999J0D01*
G01*
X164056838Y-89692499D01*
G75*
G02*
X163806839Y-89442500I0J249999D01*
G01*
X163806839Y-86592498D01*
G75*
G02*
X164056838Y-86342499I249999J0D01*
G01*
X164781840Y-86342499D01*
G75*
G02*
X165031839Y-86592498I0J-249999D01*
G01*
G37*
G36*
G01*
X159106839Y-86592498D02*
X159106839Y-89442500D01*
G75*
G02*
X158856840Y-89692499I-249999J0D01*
G01*
X158131838Y-89692499D01*
G75*
G02*
X157881839Y-89442500I0J249999D01*
G01*
X157881839Y-86592498D01*
G75*
G02*
X158131838Y-86342499I249999J0D01*
G01*
X158856840Y-86342499D01*
G75*
G02*
X159106839Y-86592498I0J-249999D01*
G01*
G37*
G36*
G01*
X136836839Y-104482499D02*
X136836839Y-104852499D01*
G75*
G02*
X136701839Y-104987499I-135000J0D01*
G01*
X136431839Y-104987499D01*
G75*
G02*
X136296839Y-104852499I0J135000D01*
G01*
X136296839Y-104482499D01*
G75*
G02*
X136431839Y-104347499I135000J0D01*
G01*
X136701839Y-104347499D01*
G75*
G02*
X136836839Y-104482499I0J-135000D01*
G01*
G37*
G36*
G01*
X135816839Y-104482499D02*
X135816839Y-104852499D01*
G75*
G02*
X135681839Y-104987499I-135000J0D01*
G01*
X135411839Y-104987499D01*
G75*
G02*
X135276839Y-104852499I0J135000D01*
G01*
X135276839Y-104482499D01*
G75*
G02*
X135411839Y-104347499I135000J0D01*
G01*
X135681839Y-104347499D01*
G75*
G02*
X135816839Y-104482499I0J-135000D01*
G01*
G37*
G36*
G01*
X136836839Y-103382499D02*
X136836839Y-103752499D01*
G75*
G02*
X136701839Y-103887499I-135000J0D01*
G01*
X136431839Y-103887499D01*
G75*
G02*
X136296839Y-103752499I0J135000D01*
G01*
X136296839Y-103382499D01*
G75*
G02*
X136431839Y-103247499I135000J0D01*
G01*
X136701839Y-103247499D01*
G75*
G02*
X136836839Y-103382499I0J-135000D01*
G01*
G37*
G36*
G01*
X135816839Y-103382499D02*
X135816839Y-103752499D01*
G75*
G02*
X135681839Y-103887499I-135000J0D01*
G01*
X135411839Y-103887499D01*
G75*
G02*
X135276839Y-103752499I0J135000D01*
G01*
X135276839Y-103382499D01*
G75*
G02*
X135411839Y-103247499I135000J0D01*
G01*
X135681839Y-103247499D01*
G75*
G02*
X135816839Y-103382499I0J-135000D01*
G01*
G37*
G36*
G01*
X136836839Y-102282499D02*
X136836839Y-102652499D01*
G75*
G02*
X136701839Y-102787499I-135000J0D01*
G01*
X136431839Y-102787499D01*
G75*
G02*
X136296839Y-102652499I0J135000D01*
G01*
X136296839Y-102282499D01*
G75*
G02*
X136431839Y-102147499I135000J0D01*
G01*
X136701839Y-102147499D01*
G75*
G02*
X136836839Y-102282499I0J-135000D01*
G01*
G37*
G36*
G01*
X135816839Y-102282499D02*
X135816839Y-102652499D01*
G75*
G02*
X135681839Y-102787499I-135000J0D01*
G01*
X135411839Y-102787499D01*
G75*
G02*
X135276839Y-102652499I0J135000D01*
G01*
X135276839Y-102282499D01*
G75*
G02*
X135411839Y-102147499I135000J0D01*
G01*
X135681839Y-102147499D01*
G75*
G02*
X135816839Y-102282499I0J-135000D01*
G01*
G37*
G36*
G01*
X135291839Y-89797498D02*
X134921839Y-89797498D01*
G75*
G02*
X134786839Y-89662498I0J135000D01*
G01*
X134786839Y-89392498D01*
G75*
G02*
X134921839Y-89257498I135000J0D01*
G01*
X135291839Y-89257498D01*
G75*
G02*
X135426839Y-89392498I0J-135000D01*
G01*
X135426839Y-89662498D01*
G75*
G02*
X135291839Y-89797498I-135000J0D01*
G01*
G37*
G36*
G01*
X135291839Y-88777500D02*
X134921839Y-88777500D01*
G75*
G02*
X134786839Y-88642500I0J135000D01*
G01*
X134786839Y-88372500D01*
G75*
G02*
X134921839Y-88237500I135000J0D01*
G01*
X135291839Y-88237500D01*
G75*
G02*
X135426839Y-88372500I0J-135000D01*
G01*
X135426839Y-88642500D01*
G75*
G02*
X135291839Y-88777500I-135000J0D01*
G01*
G37*
G36*
G01*
X150481839Y-105442499D02*
X150481839Y-105992499D01*
G75*
G02*
X150281839Y-106192499I-200000J0D01*
G01*
X149881839Y-106192499D01*
G75*
G02*
X149681839Y-105992499I0J200000D01*
G01*
X149681839Y-105442499D01*
G75*
G02*
X149881839Y-105242499I200000J0D01*
G01*
X150281839Y-105242499D01*
G75*
G02*
X150481839Y-105442499I0J-200000D01*
G01*
G37*
G36*
G01*
X148831839Y-105442499D02*
X148831839Y-105992499D01*
G75*
G02*
X148631839Y-106192499I-200000J0D01*
G01*
X148231839Y-106192499D01*
G75*
G02*
X148031839Y-105992499I0J200000D01*
G01*
X148031839Y-105442499D01*
G75*
G02*
X148231839Y-105242499I200000J0D01*
G01*
X148631839Y-105242499D01*
G75*
G02*
X148831839Y-105442499I0J-200000D01*
G01*
G37*
G36*
G01*
X165031839Y-101842498D02*
X165031839Y-104692500D01*
G75*
G02*
X164781840Y-104942499I-249999J0D01*
G01*
X164056838Y-104942499D01*
G75*
G02*
X163806839Y-104692500I0J249999D01*
G01*
X163806839Y-101842498D01*
G75*
G02*
X164056838Y-101592499I249999J0D01*
G01*
X164781840Y-101592499D01*
G75*
G02*
X165031839Y-101842498I0J-249999D01*
G01*
G37*
G36*
G01*
X159106839Y-101842498D02*
X159106839Y-104692500D01*
G75*
G02*
X158856840Y-104942499I-249999J0D01*
G01*
X158131838Y-104942499D01*
G75*
G02*
X157881839Y-104692500I0J249999D01*
G01*
X157881839Y-101842498D01*
G75*
G02*
X158131838Y-101592499I249999J0D01*
G01*
X158856840Y-101592499D01*
G75*
G02*
X159106839Y-101842498I0J-249999D01*
G01*
G37*
G36*
G01*
X143506839Y-87442499D02*
X143506839Y-88392499D01*
G75*
G02*
X143256839Y-88642499I-250000J0D01*
G01*
X142756839Y-88642499D01*
G75*
G02*
X142506839Y-88392499I0J250000D01*
G01*
X142506839Y-87442499D01*
G75*
G02*
X142756839Y-87192499I250000J0D01*
G01*
X143256839Y-87192499D01*
G75*
G02*
X143506839Y-87442499I0J-250000D01*
G01*
G37*
G36*
G01*
X141606839Y-87442499D02*
X141606839Y-88392499D01*
G75*
G02*
X141356839Y-88642499I-250000J0D01*
G01*
X140856839Y-88642499D01*
G75*
G02*
X140606839Y-88392499I0J250000D01*
G01*
X140606839Y-87442499D01*
G75*
G02*
X140856839Y-87192499I250000J0D01*
G01*
X141356839Y-87192499D01*
G75*
G02*
X141606839Y-87442499I0J-250000D01*
G01*
G37*
G36*
G01*
X140606839Y-86392499D02*
X140606839Y-85442499D01*
G75*
G02*
X140856839Y-85192499I250000J0D01*
G01*
X141356839Y-85192499D01*
G75*
G02*
X141606839Y-85442499I0J-250000D01*
G01*
X141606839Y-86392499D01*
G75*
G02*
X141356839Y-86642499I-250000J0D01*
G01*
X140856839Y-86642499D01*
G75*
G02*
X140606839Y-86392499I0J250000D01*
G01*
G37*
G36*
G01*
X142506839Y-86392499D02*
X142506839Y-85442499D01*
G75*
G02*
X142756839Y-85192499I250000J0D01*
G01*
X143256839Y-85192499D01*
G75*
G02*
X143506839Y-85442499I0J-250000D01*
G01*
X143506839Y-86392499D01*
G75*
G02*
X143256839Y-86642499I-250000J0D01*
G01*
X142756839Y-86642499D01*
G75*
G02*
X142506839Y-86392499I0J250000D01*
G01*
G37*
G36*
G01*
X154181839Y-103467499D02*
X154181839Y-103967499D01*
G75*
G02*
X153956839Y-104192499I-225000J0D01*
G01*
X153506839Y-104192499D01*
G75*
G02*
X153281839Y-103967499I0J225000D01*
G01*
X153281839Y-103467499D01*
G75*
G02*
X153506839Y-103242499I225000J0D01*
G01*
X153956839Y-103242499D01*
G75*
G02*
X154181839Y-103467499I0J-225000D01*
G01*
G37*
G36*
G01*
X152631839Y-103467499D02*
X152631839Y-103967499D01*
G75*
G02*
X152406839Y-104192499I-225000J0D01*
G01*
X151956839Y-104192499D01*
G75*
G02*
X151731839Y-103967499I0J225000D01*
G01*
X151731839Y-103467499D01*
G75*
G02*
X151956839Y-103242499I225000J0D01*
G01*
X152406839Y-103242499D01*
G75*
G02*
X152631839Y-103467499I0J-225000D01*
G01*
G37*
G36*
G01*
X154181839Y-95467499D02*
X154181839Y-95967499D01*
G75*
G02*
X153956839Y-96192499I-225000J0D01*
G01*
X153506839Y-96192499D01*
G75*
G02*
X153281839Y-95967499I0J225000D01*
G01*
X153281839Y-95467499D01*
G75*
G02*
X153506839Y-95242499I225000J0D01*
G01*
X153956839Y-95242499D01*
G75*
G02*
X154181839Y-95467499I0J-225000D01*
G01*
G37*
G36*
G01*
X152631839Y-95467499D02*
X152631839Y-95967499D01*
G75*
G02*
X152406839Y-96192499I-225000J0D01*
G01*
X151956839Y-96192499D01*
G75*
G02*
X151731839Y-95967499I0J225000D01*
G01*
X151731839Y-95467499D01*
G75*
G02*
X151956839Y-95242499I225000J0D01*
G01*
X152406839Y-95242499D01*
G75*
G02*
X152631839Y-95467499I0J-225000D01*
G01*
G37*
G36*
G01*
X155781839Y-95692499D02*
X156331839Y-95692499D01*
G75*
G02*
X156531839Y-95892499I0J-200000D01*
G01*
X156531839Y-96292499D01*
G75*
G02*
X156331839Y-96492499I-200000J0D01*
G01*
X155781839Y-96492499D01*
G75*
G02*
X155581839Y-96292499I0J200000D01*
G01*
X155581839Y-95892499D01*
G75*
G02*
X155781839Y-95692499I200000J0D01*
G01*
G37*
G36*
G01*
X155781839Y-97342499D02*
X156331839Y-97342499D01*
G75*
G02*
X156531839Y-97542499I0J-200000D01*
G01*
X156531839Y-97942499D01*
G75*
G02*
X156331839Y-98142499I-200000J0D01*
G01*
X155781839Y-98142499D01*
G75*
G02*
X155581839Y-97942499I0J200000D01*
G01*
X155581839Y-97542499D01*
G75*
G02*
X155781839Y-97342499I200000J0D01*
G01*
G37*
G36*
G01*
X154181839Y-87467499D02*
X154181839Y-87967499D01*
G75*
G02*
X153956839Y-88192499I-225000J0D01*
G01*
X153506839Y-88192499D01*
G75*
G02*
X153281839Y-87967499I0J225000D01*
G01*
X153281839Y-87467499D01*
G75*
G02*
X153506839Y-87242499I225000J0D01*
G01*
X153956839Y-87242499D01*
G75*
G02*
X154181839Y-87467499I0J-225000D01*
G01*
G37*
G36*
G01*
X152631839Y-87467499D02*
X152631839Y-87967499D01*
G75*
G02*
X152406839Y-88192499I-225000J0D01*
G01*
X151956839Y-88192499D01*
G75*
G02*
X151731839Y-87967499I0J225000D01*
G01*
X151731839Y-87467499D01*
G75*
G02*
X151956839Y-87242499I225000J0D01*
G01*
X152406839Y-87242499D01*
G75*
G02*
X152631839Y-87467499I0J-225000D01*
G01*
G37*
G36*
G01*
X154181839Y-105442499D02*
X154181839Y-105992499D01*
G75*
G02*
X153981839Y-106192499I-200000J0D01*
G01*
X153581839Y-106192499D01*
G75*
G02*
X153381839Y-105992499I0J200000D01*
G01*
X153381839Y-105442499D01*
G75*
G02*
X153581839Y-105242499I200000J0D01*
G01*
X153981839Y-105242499D01*
G75*
G02*
X154181839Y-105442499I0J-200000D01*
G01*
G37*
G36*
G01*
X152531839Y-105442499D02*
X152531839Y-105992499D01*
G75*
G02*
X152331839Y-106192499I-200000J0D01*
G01*
X151931839Y-106192499D01*
G75*
G02*
X151731839Y-105992499I0J200000D01*
G01*
X151731839Y-105442499D01*
G75*
G02*
X151931839Y-105242499I200000J0D01*
G01*
X152331839Y-105242499D01*
G75*
G02*
X152531839Y-105442499I0J-200000D01*
G01*
G37*
G36*
G01*
X154181839Y-85442499D02*
X154181839Y-85992499D01*
G75*
G02*
X153981839Y-86192499I-200000J0D01*
G01*
X153581839Y-86192499D01*
G75*
G02*
X153381839Y-85992499I0J200000D01*
G01*
X153381839Y-85442499D01*
G75*
G02*
X153581839Y-85242499I200000J0D01*
G01*
X153981839Y-85242499D01*
G75*
G02*
X154181839Y-85442499I0J-200000D01*
G01*
G37*
G36*
G01*
X152531839Y-85442499D02*
X152531839Y-85992499D01*
G75*
G02*
X152331839Y-86192499I-200000J0D01*
G01*
X151931839Y-86192499D01*
G75*
G02*
X151731839Y-85992499I0J200000D01*
G01*
X151731839Y-85442499D01*
G75*
G02*
X151931839Y-85242499I200000J0D01*
G01*
X152331839Y-85242499D01*
G75*
G02*
X152531839Y-85442499I0J-200000D01*
G01*
G37*
G36*
G01*
X155781839Y-102492499D02*
X156331839Y-102492499D01*
G75*
G02*
X156531839Y-102692499I0J-200000D01*
G01*
X156531839Y-103092499D01*
G75*
G02*
X156331839Y-103292499I-200000J0D01*
G01*
X155781839Y-103292499D01*
G75*
G02*
X155581839Y-103092499I0J200000D01*
G01*
X155581839Y-102692499D01*
G75*
G02*
X155781839Y-102492499I200000J0D01*
G01*
G37*
G36*
G01*
X155781839Y-104142499D02*
X156331839Y-104142499D01*
G75*
G02*
X156531839Y-104342499I0J-200000D01*
G01*
X156531839Y-104742499D01*
G75*
G02*
X156331839Y-104942499I-200000J0D01*
G01*
X155781839Y-104942499D01*
G75*
G02*
X155581839Y-104742499I0J200000D01*
G01*
X155581839Y-104342499D01*
G75*
G02*
X155781839Y-104142499I200000J0D01*
G01*
G37*
G36*
G01*
X154181839Y-97442499D02*
X154181839Y-97992499D01*
G75*
G02*
X153981839Y-98192499I-200000J0D01*
G01*
X153581839Y-98192499D01*
G75*
G02*
X153381839Y-97992499I0J200000D01*
G01*
X153381839Y-97442499D01*
G75*
G02*
X153581839Y-97242499I200000J0D01*
G01*
X153981839Y-97242499D01*
G75*
G02*
X154181839Y-97442499I0J-200000D01*
G01*
G37*
G36*
G01*
X152531839Y-97442499D02*
X152531839Y-97992499D01*
G75*
G02*
X152331839Y-98192499I-200000J0D01*
G01*
X151931839Y-98192499D01*
G75*
G02*
X151731839Y-97992499I0J200000D01*
G01*
X151731839Y-97442499D01*
G75*
G02*
X151931839Y-97242499I200000J0D01*
G01*
X152331839Y-97242499D01*
G75*
G02*
X152531839Y-97442499I0J-200000D01*
G01*
G37*
G36*
G01*
X130156839Y-87767499D02*
X129656839Y-87767499D01*
G75*
G02*
X129431839Y-87542499I0J225000D01*
G01*
X129431839Y-87092499D01*
G75*
G02*
X129656839Y-86867499I225000J0D01*
G01*
X130156839Y-86867499D01*
G75*
G02*
X130381839Y-87092499I0J-225000D01*
G01*
X130381839Y-87542499D01*
G75*
G02*
X130156839Y-87767499I-225000J0D01*
G01*
G37*
G36*
G01*
X130156839Y-86217499D02*
X129656839Y-86217499D01*
G75*
G02*
X129431839Y-85992499I0J225000D01*
G01*
X129431839Y-85542499D01*
G75*
G02*
X129656839Y-85317499I225000J0D01*
G01*
X130156839Y-85317499D01*
G75*
G02*
X130381839Y-85542499I0J-225000D01*
G01*
X130381839Y-85992499D01*
G75*
G02*
X130156839Y-86217499I-225000J0D01*
G01*
G37*
G36*
G01*
X132231839Y-91017499D02*
X132231839Y-90517499D01*
G75*
G02*
X132456839Y-90292499I225000J0D01*
G01*
X132906839Y-90292499D01*
G75*
G02*
X133131839Y-90517499I0J-225000D01*
G01*
X133131839Y-91017499D01*
G75*
G02*
X132906839Y-91242499I-225000J0D01*
G01*
X132456839Y-91242499D01*
G75*
G02*
X132231839Y-91017499I0J225000D01*
G01*
G37*
G36*
G01*
X133781839Y-91017499D02*
X133781839Y-90517499D01*
G75*
G02*
X134006839Y-90292499I225000J0D01*
G01*
X134456839Y-90292499D01*
G75*
G02*
X134681839Y-90517499I0J-225000D01*
G01*
X134681839Y-91017499D01*
G75*
G02*
X134456839Y-91242499I-225000J0D01*
G01*
X134006839Y-91242499D01*
G75*
G02*
X133781839Y-91017499I0J225000D01*
G01*
G37*
D11*
X124116839Y-85557499D03*
D12*
X124116839Y-88097499D03*
X124116839Y-90637499D03*
X124116839Y-93177499D03*
X124116839Y-95717499D03*
D11*
X124116839Y-83017499D03*
D12*
X126656839Y-83017499D03*
X129196839Y-83017499D03*
G36*
G01*
X146606839Y-94492499D02*
X147106839Y-94492499D01*
G75*
G02*
X147331839Y-94717499I0J-225000D01*
G01*
X147331839Y-95167499D01*
G75*
G02*
X147106839Y-95392499I-225000J0D01*
G01*
X146606839Y-95392499D01*
G75*
G02*
X146381839Y-95167499I0J225000D01*
G01*
X146381839Y-94717499D01*
G75*
G02*
X146606839Y-94492499I225000J0D01*
G01*
G37*
G36*
G01*
X146606839Y-96042499D02*
X147106839Y-96042499D01*
G75*
G02*
X147331839Y-96267499I0J-225000D01*
G01*
X147331839Y-96717499D01*
G75*
G02*
X147106839Y-96942499I-225000J0D01*
G01*
X146606839Y-96942499D01*
G75*
G02*
X146381839Y-96717499I0J225000D01*
G01*
X146381839Y-96267499D01*
G75*
G02*
X146606839Y-96042499I225000J0D01*
G01*
G37*
G36*
G01*
X146606839Y-102492499D02*
X147106839Y-102492499D01*
G75*
G02*
X147331839Y-102717499I0J-225000D01*
G01*
X147331839Y-103167499D01*
G75*
G02*
X147106839Y-103392499I-225000J0D01*
G01*
X146606839Y-103392499D01*
G75*
G02*
X146381839Y-103167499I0J225000D01*
G01*
X146381839Y-102717499D01*
G75*
G02*
X146606839Y-102492499I225000J0D01*
G01*
G37*
G36*
G01*
X146606839Y-104042499D02*
X147106839Y-104042499D01*
G75*
G02*
X147331839Y-104267499I0J-225000D01*
G01*
X147331839Y-104717499D01*
G75*
G02*
X147106839Y-104942499I-225000J0D01*
G01*
X146606839Y-104942499D01*
G75*
G02*
X146381839Y-104717499I0J225000D01*
G01*
X146381839Y-104267499D01*
G75*
G02*
X146606839Y-104042499I225000J0D01*
G01*
G37*
G36*
G01*
X147106839Y-88942499D02*
X146606839Y-88942499D01*
G75*
G02*
X146381839Y-88717499I0J225000D01*
G01*
X146381839Y-88267499D01*
G75*
G02*
X146606839Y-88042499I225000J0D01*
G01*
X147106839Y-88042499D01*
G75*
G02*
X147331839Y-88267499I0J-225000D01*
G01*
X147331839Y-88717499D01*
G75*
G02*
X147106839Y-88942499I-225000J0D01*
G01*
G37*
G36*
G01*
X147106839Y-87392499D02*
X146606839Y-87392499D01*
G75*
G02*
X146381839Y-87167499I0J225000D01*
G01*
X146381839Y-86717499D01*
G75*
G02*
X146606839Y-86492499I225000J0D01*
G01*
X147106839Y-86492499D01*
G75*
G02*
X147331839Y-86717499I0J-225000D01*
G01*
X147331839Y-87167499D01*
G75*
G02*
X147106839Y-87392499I-225000J0D01*
G01*
G37*
D13*
X143006839Y-99843000D03*
X142506840Y-99843000D03*
X142006838Y-99843000D03*
X141506839Y-99843000D03*
X141006840Y-99843000D03*
X140506839Y-99843000D03*
X140006839Y-99843000D03*
X139506838Y-99843000D03*
X139006839Y-99843000D03*
X138506840Y-99843000D03*
X138006838Y-99843000D03*
X137506839Y-99843000D03*
D14*
X136081338Y-98417499D03*
X136081338Y-97917500D03*
X136081338Y-97417498D03*
X136081338Y-96917499D03*
X136081338Y-96417500D03*
X136081338Y-95917499D03*
X136081338Y-95417499D03*
X136081338Y-94917498D03*
X136081338Y-94417499D03*
X136081338Y-93917500D03*
X136081338Y-93417498D03*
X136081338Y-92917499D03*
D13*
X137506839Y-91491998D03*
X138006838Y-91491998D03*
X138506840Y-91491998D03*
X139006839Y-91491998D03*
X139506838Y-91491998D03*
X140006839Y-91491998D03*
X140506839Y-91491998D03*
X141006840Y-91491998D03*
X141506839Y-91491998D03*
X142006838Y-91491998D03*
X142506840Y-91491998D03*
X143006839Y-91491998D03*
D14*
X144432340Y-92917499D03*
X144432340Y-93417498D03*
X144432340Y-93917500D03*
X144432340Y-94417499D03*
X144432340Y-94917498D03*
X144432340Y-95417499D03*
X144432340Y-95917499D03*
X144432340Y-96417500D03*
X144432340Y-96917499D03*
X144432340Y-97417498D03*
X144432340Y-97917500D03*
X144432340Y-98417499D03*
D15*
X140256839Y-95667499D03*
G36*
G01*
X150481839Y-103442499D02*
X150481839Y-103992499D01*
G75*
G02*
X150281839Y-104192499I-200000J0D01*
G01*
X149881839Y-104192499D01*
G75*
G02*
X149681839Y-103992499I0J200000D01*
G01*
X149681839Y-103442499D01*
G75*
G02*
X149881839Y-103242499I200000J0D01*
G01*
X150281839Y-103242499D01*
G75*
G02*
X150481839Y-103442499I0J-200000D01*
G01*
G37*
G36*
G01*
X148831839Y-103442499D02*
X148831839Y-103992499D01*
G75*
G02*
X148631839Y-104192499I-200000J0D01*
G01*
X148231839Y-104192499D01*
G75*
G02*
X148031839Y-103992499I0J200000D01*
G01*
X148031839Y-103442499D01*
G75*
G02*
X148231839Y-103242499I200000J0D01*
G01*
X148631839Y-103242499D01*
G75*
G02*
X148831839Y-103442499I0J-200000D01*
G01*
G37*
G36*
G01*
X156331839Y-87542499D02*
X155781839Y-87542499D01*
G75*
G02*
X155581839Y-87342499I0J200000D01*
G01*
X155581839Y-86942499D01*
G75*
G02*
X155781839Y-86742499I200000J0D01*
G01*
X156331839Y-86742499D01*
G75*
G02*
X156531839Y-86942499I0J-200000D01*
G01*
X156531839Y-87342499D01*
G75*
G02*
X156331839Y-87542499I-200000J0D01*
G01*
G37*
G36*
G01*
X156331839Y-85892499D02*
X155781839Y-85892499D01*
G75*
G02*
X155581839Y-85692499I0J200000D01*
G01*
X155581839Y-85292499D01*
G75*
G02*
X155781839Y-85092499I200000J0D01*
G01*
X156331839Y-85092499D01*
G75*
G02*
X156531839Y-85292499I0J-200000D01*
G01*
X156531839Y-85692499D01*
G75*
G02*
X156331839Y-85892499I-200000J0D01*
G01*
G37*
G36*
G01*
X128579999Y-104765000D02*
X128579999Y-105135000D01*
G75*
G02*
X128444999Y-105270000I-135000J0D01*
G01*
X128174999Y-105270000D01*
G75*
G02*
X128039999Y-105135000I0J135000D01*
G01*
X128039999Y-104765000D01*
G75*
G02*
X128174999Y-104630000I135000J0D01*
G01*
X128444999Y-104630000D01*
G75*
G02*
X128579999Y-104765000I0J-135000D01*
G01*
G37*
G36*
G01*
X127560001Y-104765000D02*
X127560001Y-105135000D01*
G75*
G02*
X127425001Y-105270000I-135000J0D01*
G01*
X127155001Y-105270000D01*
G75*
G02*
X127020001Y-105135000I0J135000D01*
G01*
X127020001Y-104765000D01*
G75*
G02*
X127155001Y-104630000I135000J0D01*
G01*
X127425001Y-104630000D01*
G75*
G02*
X127560001Y-104765000I0J-135000D01*
G01*
G37*
G36*
G01*
X150481839Y-89442499D02*
X150481839Y-89992499D01*
G75*
G02*
X150281839Y-90192499I-200000J0D01*
G01*
X149881839Y-90192499D01*
G75*
G02*
X149681839Y-89992499I0J200000D01*
G01*
X149681839Y-89442499D01*
G75*
G02*
X149881839Y-89242499I200000J0D01*
G01*
X150281839Y-89242499D01*
G75*
G02*
X150481839Y-89442499I0J-200000D01*
G01*
G37*
G36*
G01*
X148831839Y-89442499D02*
X148831839Y-89992499D01*
G75*
G02*
X148631839Y-90192499I-200000J0D01*
G01*
X148231839Y-90192499D01*
G75*
G02*
X148031839Y-89992499I0J200000D01*
G01*
X148031839Y-89442499D01*
G75*
G02*
X148231839Y-89242499I200000J0D01*
G01*
X148631839Y-89242499D01*
G75*
G02*
X148831839Y-89442499I0J-200000D01*
G01*
G37*
D11*
X131736839Y-83017499D03*
D12*
X134276839Y-83017499D03*
X136816839Y-83017499D03*
X139356839Y-83017499D03*
X141896839Y-83017499D03*
X144436839Y-83017499D03*
D11*
X124116839Y-108417499D03*
D12*
X126656839Y-108417499D03*
X129196839Y-108417499D03*
X131736839Y-108417499D03*
X134276839Y-108417499D03*
G36*
G01*
X151731839Y-101967499D02*
X151731839Y-101467499D01*
G75*
G02*
X151956839Y-101242499I225000J0D01*
G01*
X152406839Y-101242499D01*
G75*
G02*
X152631839Y-101467499I0J-225000D01*
G01*
X152631839Y-101967499D01*
G75*
G02*
X152406839Y-102192499I-225000J0D01*
G01*
X151956839Y-102192499D01*
G75*
G02*
X151731839Y-101967499I0J225000D01*
G01*
G37*
G36*
G01*
X153281839Y-101967499D02*
X153281839Y-101467499D01*
G75*
G02*
X153506839Y-101242499I225000J0D01*
G01*
X153956839Y-101242499D01*
G75*
G02*
X154181839Y-101467499I0J-225000D01*
G01*
X154181839Y-101967499D01*
G75*
G02*
X153956839Y-102192499I-225000J0D01*
G01*
X153506839Y-102192499D01*
G75*
G02*
X153281839Y-101967499I0J225000D01*
G01*
G37*
G36*
G01*
X133060000Y-98380000D02*
X133060000Y-98720000D01*
G75*
G02*
X132920000Y-98860000I-140000J0D01*
G01*
X132640000Y-98860000D01*
G75*
G02*
X132500000Y-98720000I0J140000D01*
G01*
X132500000Y-98380000D01*
G75*
G02*
X132640000Y-98240000I140000J0D01*
G01*
X132920000Y-98240000D01*
G75*
G02*
X133060000Y-98380000I0J-140000D01*
G01*
G37*
G36*
G01*
X132100000Y-98380000D02*
X132100000Y-98720000D01*
G75*
G02*
X131960000Y-98860000I-140000J0D01*
G01*
X131680000Y-98860000D01*
G75*
G02*
X131540000Y-98720000I0J140000D01*
G01*
X131540000Y-98380000D01*
G75*
G02*
X131680000Y-98240000I140000J0D01*
G01*
X131960000Y-98240000D01*
G75*
G02*
X132100000Y-98380000I0J-140000D01*
G01*
G37*
D16*
X133756839Y-86567499D03*
X133756839Y-87517499D03*
X133756839Y-88467499D03*
X131556839Y-88467499D03*
X131556839Y-86567499D03*
G36*
G01*
X131111839Y-97167499D02*
X130811839Y-97167499D01*
G75*
G02*
X130661839Y-97017499I0J150000D01*
G01*
X130661839Y-95367499D01*
G75*
G02*
X130811839Y-95217499I150000J0D01*
G01*
X131111839Y-95217499D01*
G75*
G02*
X131261839Y-95367499I0J-150000D01*
G01*
X131261839Y-97017499D01*
G75*
G02*
X131111839Y-97167499I-150000J0D01*
G01*
G37*
G36*
G01*
X129841839Y-97167499D02*
X129541839Y-97167499D01*
G75*
G02*
X129391839Y-97017499I0J150000D01*
G01*
X129391839Y-95367499D01*
G75*
G02*
X129541839Y-95217499I150000J0D01*
G01*
X129841839Y-95217499D01*
G75*
G02*
X129991839Y-95367499I0J-150000D01*
G01*
X129991839Y-97017499D01*
G75*
G02*
X129841839Y-97167499I-150000J0D01*
G01*
G37*
G36*
G01*
X128571839Y-97167499D02*
X128271839Y-97167499D01*
G75*
G02*
X128121839Y-97017499I0J150000D01*
G01*
X128121839Y-95367499D01*
G75*
G02*
X128271839Y-95217499I150000J0D01*
G01*
X128571839Y-95217499D01*
G75*
G02*
X128721839Y-95367499I0J-150000D01*
G01*
X128721839Y-97017499D01*
G75*
G02*
X128571839Y-97167499I-150000J0D01*
G01*
G37*
G36*
G01*
X127301839Y-97167499D02*
X127001839Y-97167499D01*
G75*
G02*
X126851839Y-97017499I0J150000D01*
G01*
X126851839Y-95367499D01*
G75*
G02*
X127001839Y-95217499I150000J0D01*
G01*
X127301839Y-95217499D01*
G75*
G02*
X127451839Y-95367499I0J-150000D01*
G01*
X127451839Y-97017499D01*
G75*
G02*
X127301839Y-97167499I-150000J0D01*
G01*
G37*
G36*
G01*
X127301839Y-92217499D02*
X127001839Y-92217499D01*
G75*
G02*
X126851839Y-92067499I0J150000D01*
G01*
X126851839Y-90417499D01*
G75*
G02*
X127001839Y-90267499I150000J0D01*
G01*
X127301839Y-90267499D01*
G75*
G02*
X127451839Y-90417499I0J-150000D01*
G01*
X127451839Y-92067499D01*
G75*
G02*
X127301839Y-92217499I-150000J0D01*
G01*
G37*
G36*
G01*
X128571839Y-92217499D02*
X128271839Y-92217499D01*
G75*
G02*
X128121839Y-92067499I0J150000D01*
G01*
X128121839Y-90417499D01*
G75*
G02*
X128271839Y-90267499I150000J0D01*
G01*
X128571839Y-90267499D01*
G75*
G02*
X128721839Y-90417499I0J-150000D01*
G01*
X128721839Y-92067499D01*
G75*
G02*
X128571839Y-92217499I-150000J0D01*
G01*
G37*
G36*
G01*
X129841839Y-92217499D02*
X129541839Y-92217499D01*
G75*
G02*
X129391839Y-92067499I0J150000D01*
G01*
X129391839Y-90417499D01*
G75*
G02*
X129541839Y-90267499I150000J0D01*
G01*
X129841839Y-90267499D01*
G75*
G02*
X129991839Y-90417499I0J-150000D01*
G01*
X129991839Y-92067499D01*
G75*
G02*
X129841839Y-92217499I-150000J0D01*
G01*
G37*
G36*
G01*
X131111839Y-92217499D02*
X130811839Y-92217499D01*
G75*
G02*
X130661839Y-92067499I0J150000D01*
G01*
X130661839Y-90417499D01*
G75*
G02*
X130811839Y-90267499I150000J0D01*
G01*
X131111839Y-90267499D01*
G75*
G02*
X131261839Y-90417499I0J-150000D01*
G01*
X131261839Y-92067499D01*
G75*
G02*
X131111839Y-92217499I-150000J0D01*
G01*
G37*
G36*
G01*
X156241839Y-90097499D02*
X155871839Y-90097499D01*
G75*
G02*
X155736839Y-89962499I0J135000D01*
G01*
X155736839Y-89692499D01*
G75*
G02*
X155871839Y-89557499I135000J0D01*
G01*
X156241839Y-89557499D01*
G75*
G02*
X156376839Y-89692499I0J-135000D01*
G01*
X156376839Y-89962499D01*
G75*
G02*
X156241839Y-90097499I-135000J0D01*
G01*
G37*
G36*
G01*
X156241839Y-89077499D02*
X155871839Y-89077499D01*
G75*
G02*
X155736839Y-88942499I0J135000D01*
G01*
X155736839Y-88672499D01*
G75*
G02*
X155871839Y-88537499I135000J0D01*
G01*
X156241839Y-88537499D01*
G75*
G02*
X156376839Y-88672499I0J-135000D01*
G01*
X156376839Y-88942499D01*
G75*
G02*
X156241839Y-89077499I-135000J0D01*
G01*
G37*
G36*
G01*
X156331839Y-95142499D02*
X155781839Y-95142499D01*
G75*
G02*
X155581839Y-94942499I0J200000D01*
G01*
X155581839Y-94542499D01*
G75*
G02*
X155781839Y-94342499I200000J0D01*
G01*
X156331839Y-94342499D01*
G75*
G02*
X156531839Y-94542499I0J-200000D01*
G01*
X156531839Y-94942499D01*
G75*
G02*
X156331839Y-95142499I-200000J0D01*
G01*
G37*
G36*
G01*
X156331839Y-93492499D02*
X155781839Y-93492499D01*
G75*
G02*
X155581839Y-93292499I0J200000D01*
G01*
X155581839Y-92892499D01*
G75*
G02*
X155781839Y-92692499I200000J0D01*
G01*
X156331839Y-92692499D01*
G75*
G02*
X156531839Y-92892499I0J-200000D01*
G01*
X156531839Y-93292499D01*
G75*
G02*
X156331839Y-93492499I-200000J0D01*
G01*
G37*
D11*
X157136839Y-83017499D03*
D12*
X159676839Y-83017499D03*
X162216839Y-83017499D03*
X164756839Y-83017499D03*
X167296839Y-83017499D03*
X169836839Y-83017499D03*
D11*
X157136839Y-108417499D03*
D12*
X159676839Y-108417499D03*
X162216839Y-108417499D03*
X164756839Y-108417499D03*
X167296839Y-108417499D03*
X169836839Y-108417499D03*
D11*
X167296839Y-89367499D03*
D12*
X169836839Y-89367499D03*
X167296839Y-86827499D03*
X169836839Y-86827499D03*
D11*
X167296839Y-96987499D03*
D12*
X169836839Y-96987499D03*
X167296839Y-94447499D03*
X169836839Y-94447499D03*
D11*
X167296839Y-104607499D03*
D12*
X169836839Y-104607499D03*
X167296839Y-102067499D03*
X169836839Y-102067499D03*
G36*
G01*
X128836839Y-89232499D02*
X128836839Y-89602499D01*
G75*
G02*
X128701839Y-89737499I-135000J0D01*
G01*
X128431839Y-89737499D01*
G75*
G02*
X128296839Y-89602499I0J135000D01*
G01*
X128296839Y-89232499D01*
G75*
G02*
X128431839Y-89097499I135000J0D01*
G01*
X128701839Y-89097499D01*
G75*
G02*
X128836839Y-89232499I0J-135000D01*
G01*
G37*
G36*
G01*
X127816839Y-89232499D02*
X127816839Y-89602499D01*
G75*
G02*
X127681839Y-89737499I-135000J0D01*
G01*
X127411839Y-89737499D01*
G75*
G02*
X127276839Y-89602499I0J135000D01*
G01*
X127276839Y-89232499D01*
G75*
G02*
X127411839Y-89097499I135000J0D01*
G01*
X127681839Y-89097499D01*
G75*
G02*
X127816839Y-89232499I0J-135000D01*
G01*
G37*
G36*
G01*
X125615000Y-99410000D02*
X125985000Y-99410000D01*
G75*
G02*
X126120000Y-99545000I0J-135000D01*
G01*
X126120000Y-99815000D01*
G75*
G02*
X125985000Y-99950000I-135000J0D01*
G01*
X125615000Y-99950000D01*
G75*
G02*
X125480000Y-99815000I0J135000D01*
G01*
X125480000Y-99545000D01*
G75*
G02*
X125615000Y-99410000I135000J0D01*
G01*
G37*
G36*
G01*
X125615000Y-100430000D02*
X125985000Y-100430000D01*
G75*
G02*
X126120000Y-100565000I0J-135000D01*
G01*
X126120000Y-100835000D01*
G75*
G02*
X125985000Y-100970000I-135000J0D01*
G01*
X125615000Y-100970000D01*
G75*
G02*
X125480000Y-100835000I0J135000D01*
G01*
X125480000Y-100565000D01*
G75*
G02*
X125615000Y-100430000I135000J0D01*
G01*
G37*
G36*
G01*
X136196839Y-89237499D02*
X136196839Y-88897499D01*
G75*
G02*
X136336839Y-88757499I140000J0D01*
G01*
X136616839Y-88757499D01*
G75*
G02*
X136756839Y-88897499I0J-140000D01*
G01*
X136756839Y-89237499D01*
G75*
G02*
X136616839Y-89377499I-140000J0D01*
G01*
X136336839Y-89377499D01*
G75*
G02*
X136196839Y-89237499I0J140000D01*
G01*
G37*
G36*
G01*
X137156839Y-89237499D02*
X137156839Y-88897499D01*
G75*
G02*
X137296839Y-88757499I140000J0D01*
G01*
X137576839Y-88757499D01*
G75*
G02*
X137716839Y-88897499I0J-140000D01*
G01*
X137716839Y-89237499D01*
G75*
G02*
X137576839Y-89377499I-140000J0D01*
G01*
X137296839Y-89377499D01*
G75*
G02*
X137156839Y-89237499I0J140000D01*
G01*
G37*
G36*
G01*
X141666839Y-101947499D02*
X141666839Y-102287499D01*
G75*
G02*
X141526839Y-102427499I-140000J0D01*
G01*
X141246839Y-102427499D01*
G75*
G02*
X141106839Y-102287499I0J140000D01*
G01*
X141106839Y-101947499D01*
G75*
G02*
X141246839Y-101807499I140000J0D01*
G01*
X141526839Y-101807499D01*
G75*
G02*
X141666839Y-101947499I0J-140000D01*
G01*
G37*
G36*
G01*
X140706839Y-101947499D02*
X140706839Y-102287499D01*
G75*
G02*
X140566839Y-102427499I-140000J0D01*
G01*
X140286839Y-102427499D01*
G75*
G02*
X140146839Y-102287499I0J140000D01*
G01*
X140146839Y-101947499D01*
G75*
G02*
X140286839Y-101807499I140000J0D01*
G01*
X140566839Y-101807499D01*
G75*
G02*
X140706839Y-101947499I0J-140000D01*
G01*
G37*
G36*
G01*
X131056839Y-104617499D02*
X131056839Y-104417499D01*
G75*
G02*
X131156839Y-104317499I100000J0D01*
G01*
X132281839Y-104317499D01*
G75*
G02*
X132381839Y-104417499I0J-100000D01*
G01*
X132381839Y-104617499D01*
G75*
G02*
X132281839Y-104717499I-100000J0D01*
G01*
X131156839Y-104717499D01*
G75*
G02*
X131056839Y-104617499I0J100000D01*
G01*
G37*
G36*
G01*
X131056839Y-103967499D02*
X131056839Y-103767499D01*
G75*
G02*
X131156839Y-103667499I100000J0D01*
G01*
X132281839Y-103667499D01*
G75*
G02*
X132381839Y-103767499I0J-100000D01*
G01*
X132381839Y-103967499D01*
G75*
G02*
X132281839Y-104067499I-100000J0D01*
G01*
X131156839Y-104067499D01*
G75*
G02*
X131056839Y-103967499I0J100000D01*
G01*
G37*
G36*
G01*
X131056839Y-103317499D02*
X131056839Y-103117499D01*
G75*
G02*
X131156839Y-103017499I100000J0D01*
G01*
X132281839Y-103017499D01*
G75*
G02*
X132381839Y-103117499I0J-100000D01*
G01*
X132381839Y-103317499D01*
G75*
G02*
X132281839Y-103417499I-100000J0D01*
G01*
X131156839Y-103417499D01*
G75*
G02*
X131056839Y-103317499I0J100000D01*
G01*
G37*
G36*
G01*
X132831839Y-103317499D02*
X132831839Y-103117499D01*
G75*
G02*
X132931839Y-103017499I100000J0D01*
G01*
X134056839Y-103017499D01*
G75*
G02*
X134156839Y-103117499I0J-100000D01*
G01*
X134156839Y-103317499D01*
G75*
G02*
X134056839Y-103417499I-100000J0D01*
G01*
X132931839Y-103417499D01*
G75*
G02*
X132831839Y-103317499I0J100000D01*
G01*
G37*
G36*
G01*
X132831839Y-103967499D02*
X132831839Y-103767499D01*
G75*
G02*
X132931839Y-103667499I100000J0D01*
G01*
X134056839Y-103667499D01*
G75*
G02*
X134156839Y-103767499I0J-100000D01*
G01*
X134156839Y-103967499D01*
G75*
G02*
X134056839Y-104067499I-100000J0D01*
G01*
X132931839Y-104067499D01*
G75*
G02*
X132831839Y-103967499I0J100000D01*
G01*
G37*
G36*
G01*
X132831839Y-104617499D02*
X132831839Y-104417499D01*
G75*
G02*
X132931839Y-104317499I100000J0D01*
G01*
X134056839Y-104317499D01*
G75*
G02*
X134156839Y-104417499I0J-100000D01*
G01*
X134156839Y-104617499D01*
G75*
G02*
X134056839Y-104717499I-100000J0D01*
G01*
X132931839Y-104717499D01*
G75*
G02*
X132831839Y-104617499I0J100000D01*
G01*
G37*
G36*
G01*
X144349999Y-103225000D02*
X144349999Y-104175000D01*
G75*
G02*
X144099999Y-104425000I-250000J0D01*
G01*
X143599999Y-104425000D01*
G75*
G02*
X143349999Y-104175000I0J250000D01*
G01*
X143349999Y-103225000D01*
G75*
G02*
X143599999Y-102975000I250000J0D01*
G01*
X144099999Y-102975000D01*
G75*
G02*
X144349999Y-103225000I0J-250000D01*
G01*
G37*
G36*
G01*
X142450001Y-103225000D02*
X142450001Y-104175000D01*
G75*
G02*
X142200001Y-104425000I-250000J0D01*
G01*
X141700001Y-104425000D01*
G75*
G02*
X141450001Y-104175000I0J250000D01*
G01*
X141450001Y-103225000D01*
G75*
G02*
X141700001Y-102975000I250000J0D01*
G01*
X142200001Y-102975000D01*
G75*
G02*
X142450001Y-103225000I0J-250000D01*
G01*
G37*
D17*
X143856839Y-107017499D03*
X140856839Y-107017499D03*
G36*
G01*
X139116839Y-107622499D02*
X138796839Y-107622499D01*
G75*
G02*
X138636839Y-107462499I0J160000D01*
G01*
X138636839Y-107067499D01*
G75*
G02*
X138796839Y-106907499I160000J0D01*
G01*
X139116839Y-106907499D01*
G75*
G02*
X139276839Y-107067499I0J-160000D01*
G01*
X139276839Y-107462499D01*
G75*
G02*
X139116839Y-107622499I-160000J0D01*
G01*
G37*
G36*
G01*
X139116839Y-106427499D02*
X138796839Y-106427499D01*
G75*
G02*
X138636839Y-106267499I0J160000D01*
G01*
X138636839Y-105872499D01*
G75*
G02*
X138796839Y-105712499I160000J0D01*
G01*
X139116839Y-105712499D01*
G75*
G02*
X139276839Y-105872499I0J-160000D01*
G01*
X139276839Y-106267499D01*
G75*
G02*
X139116839Y-106427499I-160000J0D01*
G01*
G37*
G36*
G01*
X132621839Y-99737499D02*
X132991839Y-99737499D01*
G75*
G02*
X133126839Y-99872499I0J-135000D01*
G01*
X133126839Y-100142499D01*
G75*
G02*
X132991839Y-100277499I-135000J0D01*
G01*
X132621839Y-100277499D01*
G75*
G02*
X132486839Y-100142499I0J135000D01*
G01*
X132486839Y-99872499D01*
G75*
G02*
X132621839Y-99737499I135000J0D01*
G01*
G37*
G36*
G01*
X132621839Y-100757499D02*
X132991839Y-100757499D01*
G75*
G02*
X133126839Y-100892499I0J-135000D01*
G01*
X133126839Y-101162499D01*
G75*
G02*
X132991839Y-101297499I-135000J0D01*
G01*
X132621839Y-101297499D01*
G75*
G02*
X132486839Y-101162499I0J135000D01*
G01*
X132486839Y-100892499D01*
G75*
G02*
X132621839Y-100757499I135000J0D01*
G01*
G37*
G36*
G01*
X125985000Y-104630000D02*
X125615000Y-104630000D01*
G75*
G02*
X125480000Y-104495000I0J135000D01*
G01*
X125480000Y-104225000D01*
G75*
G02*
X125615000Y-104090000I135000J0D01*
G01*
X125985000Y-104090000D01*
G75*
G02*
X126120000Y-104225000I0J-135000D01*
G01*
X126120000Y-104495000D01*
G75*
G02*
X125985000Y-104630000I-135000J0D01*
G01*
G37*
G36*
G01*
X125985000Y-103610000D02*
X125615000Y-103610000D01*
G75*
G02*
X125480000Y-103475000I0J135000D01*
G01*
X125480000Y-103205000D01*
G75*
G02*
X125615000Y-103070000I135000J0D01*
G01*
X125985000Y-103070000D01*
G75*
G02*
X126120000Y-103205000I0J-135000D01*
G01*
X126120000Y-103475000D01*
G75*
G02*
X125985000Y-103610000I-135000J0D01*
G01*
G37*
G36*
G01*
X139180000Y-108415000D02*
X139180000Y-108785000D01*
G75*
G02*
X139045000Y-108920000I-135000J0D01*
G01*
X138775000Y-108920000D01*
G75*
G02*
X138640000Y-108785000I0J135000D01*
G01*
X138640000Y-108415000D01*
G75*
G02*
X138775000Y-108280000I135000J0D01*
G01*
X139045000Y-108280000D01*
G75*
G02*
X139180000Y-108415000I0J-135000D01*
G01*
G37*
G36*
G01*
X138160000Y-108415000D02*
X138160000Y-108785000D01*
G75*
G02*
X138025000Y-108920000I-135000J0D01*
G01*
X137755000Y-108920000D01*
G75*
G02*
X137620000Y-108785000I0J135000D01*
G01*
X137620000Y-108415000D01*
G75*
G02*
X137755000Y-108280000I135000J0D01*
G01*
X138025000Y-108280000D01*
G75*
G02*
X138160000Y-108415000I0J-135000D01*
G01*
G37*
G36*
G01*
X134141839Y-101297499D02*
X133771839Y-101297499D01*
G75*
G02*
X133636839Y-101162499I0J135000D01*
G01*
X133636839Y-100892499D01*
G75*
G02*
X133771839Y-100757499I135000J0D01*
G01*
X134141839Y-100757499D01*
G75*
G02*
X134276839Y-100892499I0J-135000D01*
G01*
X134276839Y-101162499D01*
G75*
G02*
X134141839Y-101297499I-135000J0D01*
G01*
G37*
G36*
G01*
X134141839Y-100277499D02*
X133771839Y-100277499D01*
G75*
G02*
X133636839Y-100142499I0J135000D01*
G01*
X133636839Y-99872499D01*
G75*
G02*
X133771839Y-99737499I135000J0D01*
G01*
X134141839Y-99737499D01*
G75*
G02*
X134276839Y-99872499I0J-135000D01*
G01*
X134276839Y-100142499D01*
G75*
G02*
X134141839Y-100277499I-135000J0D01*
G01*
G37*
M02*
