%TF.GenerationSoftware,KiCad,Pcbnew,10.0.5-unknown-202607221313~667fa36054~ubuntu25.10.1*%
%TF.CreationDate,2026-07-30T22:10:57+00:00*%
%TF.ProjectId,xESC2,78455343-322e-46b6-9963-61645f706362,rev?*%
%TF.SameCoordinates,Original*%
%TF.FileFunction,Drillmap*%
%TF.FilePolarity,Positive*%
%FSLAX45Y45*%
G04 Gerber Fmt 4.5, Leading zero omitted, Abs format (unit mm)*
G04 Created by KiCad (PCBNEW 10.0.5-unknown-202607221313~667fa36054~ubuntu25.10.1) date 2026-07-30 22:10:57*
%MOMM*%
%LPD*%
G01*
G04 APERTURE LIST*
%ADD10C,0.050000*%
%ADD11C,0.200000*%
G04 APERTURE END LIST*
D10*
X12205684Y-8121750D02*
X17155684Y-8121750D01*
X12205684Y-11021750D02*
X12205684Y-8121750D01*
X17155684Y-8121750D02*
X17155684Y-11021750D01*
X17155684Y-11021750D02*
X12205684Y-11021750D01*
D11*
X12463961Y-11335734D02*
X12463961Y-11135734D01*
X12463961Y-11135734D02*
X12511580Y-11135734D01*
X12511580Y-11135734D02*
X12540151Y-11145258D01*
X12540151Y-11145258D02*
X12559199Y-11164305D01*
X12559199Y-11164305D02*
X12568723Y-11183353D01*
X12568723Y-11183353D02*
X12578246Y-11221448D01*
X12578246Y-11221448D02*
X12578246Y-11250019D01*
X12578246Y-11250019D02*
X12568723Y-11288115D01*
X12568723Y-11288115D02*
X12559199Y-11307162D01*
X12559199Y-11307162D02*
X12540151Y-11326210D01*
X12540151Y-11326210D02*
X12511580Y-11335734D01*
X12511580Y-11335734D02*
X12463961Y-11335734D01*
X12663961Y-11335734D02*
X12663961Y-11202400D01*
X12663961Y-11240496D02*
X12673484Y-11221448D01*
X12673484Y-11221448D02*
X12683008Y-11211924D01*
X12683008Y-11211924D02*
X12702056Y-11202400D01*
X12702056Y-11202400D02*
X12721104Y-11202400D01*
X12787770Y-11335734D02*
X12787770Y-11202400D01*
X12787770Y-11135734D02*
X12778246Y-11145258D01*
X12778246Y-11145258D02*
X12787770Y-11154781D01*
X12787770Y-11154781D02*
X12797294Y-11145258D01*
X12797294Y-11145258D02*
X12787770Y-11135734D01*
X12787770Y-11135734D02*
X12787770Y-11154781D01*
X12911580Y-11335734D02*
X12892532Y-11326210D01*
X12892532Y-11326210D02*
X12883008Y-11307162D01*
X12883008Y-11307162D02*
X12883008Y-11135734D01*
X13016342Y-11335734D02*
X12997294Y-11326210D01*
X12997294Y-11326210D02*
X12987770Y-11307162D01*
X12987770Y-11307162D02*
X12987770Y-11135734D01*
X13244913Y-11335734D02*
X13244913Y-11135734D01*
X13244913Y-11135734D02*
X13311580Y-11278591D01*
X13311580Y-11278591D02*
X13378246Y-11135734D01*
X13378246Y-11135734D02*
X13378246Y-11335734D01*
X13559199Y-11335734D02*
X13559199Y-11230972D01*
X13559199Y-11230972D02*
X13549675Y-11211924D01*
X13549675Y-11211924D02*
X13530627Y-11202400D01*
X13530627Y-11202400D02*
X13492532Y-11202400D01*
X13492532Y-11202400D02*
X13473484Y-11211924D01*
X13559199Y-11326210D02*
X13540151Y-11335734D01*
X13540151Y-11335734D02*
X13492532Y-11335734D01*
X13492532Y-11335734D02*
X13473484Y-11326210D01*
X13473484Y-11326210D02*
X13463961Y-11307162D01*
X13463961Y-11307162D02*
X13463961Y-11288115D01*
X13463961Y-11288115D02*
X13473484Y-11269067D01*
X13473484Y-11269067D02*
X13492532Y-11259543D01*
X13492532Y-11259543D02*
X13540151Y-11259543D01*
X13540151Y-11259543D02*
X13559199Y-11250019D01*
X13654437Y-11202400D02*
X13654437Y-11402400D01*
X13654437Y-11211924D02*
X13673484Y-11202400D01*
X13673484Y-11202400D02*
X13711580Y-11202400D01*
X13711580Y-11202400D02*
X13730627Y-11211924D01*
X13730627Y-11211924D02*
X13740151Y-11221448D01*
X13740151Y-11221448D02*
X13749675Y-11240496D01*
X13749675Y-11240496D02*
X13749675Y-11297638D01*
X13749675Y-11297638D02*
X13740151Y-11316686D01*
X13740151Y-11316686D02*
X13730627Y-11326210D01*
X13730627Y-11326210D02*
X13711580Y-11335734D01*
X13711580Y-11335734D02*
X13673484Y-11335734D01*
X13673484Y-11335734D02*
X13654437Y-11326210D01*
X13835389Y-11316686D02*
X13844913Y-11326210D01*
X13844913Y-11326210D02*
X13835389Y-11335734D01*
X13835389Y-11335734D02*
X13825865Y-11326210D01*
X13825865Y-11326210D02*
X13835389Y-11316686D01*
X13835389Y-11316686D02*
X13835389Y-11335734D01*
X13835389Y-11211924D02*
X13844913Y-11221448D01*
X13844913Y-11221448D02*
X13835389Y-11230972D01*
X13835389Y-11230972D02*
X13825865Y-11221448D01*
X13825865Y-11221448D02*
X13835389Y-11211924D01*
X13835389Y-11211924D02*
X13835389Y-11230972D01*
M02*
