%TF.GenerationSoftware,KiCad,Pcbnew,10.0.5-unknown-202607221313~667fa36054~ubuntu25.10.1*%
%TF.CreationDate,2026-07-30T22:10:57+00:00*%
%TF.ProjectId,xESC2,78455343-322e-46b6-9963-61645f706362,rev?*%
%TF.SameCoordinates,Original*%
%TF.FileFunction,Drillmap*%
%TF.FilePolarity,Positive*%
%FSLAX45Y45*%
G04 Gerber Fmt 4.5, Leading zero omitted, Abs format (unit mm)*
G04 Created by KiCad (PCBNEW 10.0.5-unknown-202607221313~667fa36054~ubuntu25.10.1) date 2026-07-30 22:10:57*
%MOMM*%
%LPD*%
G01*
G04 APERTURE LIST*
%ADD10C,0.050000*%
%ADD11C,0.200000*%
%ADD12C,0.100000*%
G04 APERTURE END LIST*
D10*
X12205684Y-8121750D02*
X17155684Y-8121750D01*
X12205684Y-11021750D02*
X12205684Y-8121750D01*
X17155684Y-8121750D02*
X17155684Y-11021750D01*
X17155684Y-11021750D02*
X12205684Y-11021750D01*
D11*
D12*
X12680684Y-9779250D02*
X12700684Y-9799250D01*
X12700684Y-9779250D02*
X12680684Y-9799250D01*
X12680684Y-9866750D02*
X12700684Y-9886750D01*
X12700684Y-9866750D02*
X12680684Y-9886750D01*
X12680684Y-10085250D02*
X12700684Y-10105250D01*
X12700684Y-10085250D02*
X12680684Y-10105250D01*
X12680684Y-10187250D02*
X12700684Y-10207250D01*
X12700684Y-10187250D02*
X12680684Y-10207250D01*
X12725684Y-9451750D02*
X12745684Y-9471750D01*
X12745684Y-9451750D02*
X12725684Y-9471750D01*
X12760684Y-10306750D02*
X12780684Y-10326750D01*
X12780684Y-10306750D02*
X12760684Y-10326750D01*
X12770684Y-9779250D02*
X12790684Y-9799250D01*
X12790684Y-9779250D02*
X12770684Y-9799250D01*
X12830684Y-10586750D02*
X12850684Y-10606750D01*
X12850684Y-10586750D02*
X12830684Y-10606750D01*
X12835684Y-9271750D02*
X12855684Y-9291750D01*
X12855684Y-9271750D02*
X12835684Y-9291750D01*
X12860684Y-9779250D02*
X12880684Y-9799250D01*
X12880684Y-9779250D02*
X12860684Y-9799250D01*
X12868184Y-8856750D02*
X12888184Y-8876750D01*
X12888184Y-8856750D02*
X12868184Y-8876750D01*
X12870684Y-8454250D02*
X12890684Y-8474250D01*
X12890684Y-8454250D02*
X12870684Y-8474250D01*
X12884289Y-10481905D02*
X12904289Y-10501905D01*
X12904289Y-10481905D02*
X12884289Y-10501905D01*
X12888184Y-9386750D02*
X12908184Y-9406750D01*
X12908184Y-9386750D02*
X12888184Y-9406750D01*
X12925684Y-9336750D02*
X12945684Y-9356750D01*
X12945684Y-9336750D02*
X12925684Y-9356750D01*
X12940684Y-9754250D02*
X12960684Y-9774250D01*
X12960684Y-9754250D02*
X12940684Y-9774250D01*
X12980684Y-8889250D02*
X13000684Y-8909250D01*
X13000684Y-8889250D02*
X12980684Y-8909250D01*
X12980684Y-8944250D02*
X13000684Y-8964250D01*
X13000684Y-8944250D02*
X12980684Y-8964250D01*
X12995684Y-10381750D02*
X13015684Y-10401750D01*
X13015684Y-10381750D02*
X12995684Y-10401750D01*
X12996044Y-9317910D02*
X13016044Y-9337910D01*
X13016044Y-9317910D02*
X12996044Y-9337910D01*
X13000684Y-9811750D02*
X13020684Y-9831750D01*
X13020684Y-9811750D02*
X13000684Y-9831750D01*
X13050684Y-10271750D02*
X13070684Y-10291750D01*
X13070684Y-10271750D02*
X13050684Y-10291750D01*
X13053184Y-8944250D02*
X13073184Y-8964250D01*
X13073184Y-8944250D02*
X13053184Y-8964250D01*
X13065684Y-9899250D02*
X13085684Y-9919250D01*
X13085684Y-9899250D02*
X13065684Y-9919250D01*
X13065684Y-10086750D02*
X13085684Y-10106750D01*
X13085684Y-10086750D02*
X13065684Y-10106750D01*
X13087564Y-10515200D02*
X13107564Y-10535200D01*
X13107564Y-10515200D02*
X13087564Y-10535200D01*
X13125684Y-10216750D02*
X13145684Y-10236750D01*
X13145684Y-10216750D02*
X13125684Y-10236750D01*
X13135684Y-10151750D02*
X13155684Y-10171750D01*
X13155684Y-10151750D02*
X13135684Y-10171750D01*
X13140684Y-10086750D02*
X13160684Y-10106750D01*
X13160684Y-10086750D02*
X13140684Y-10106750D01*
X13145684Y-8514750D02*
X13165684Y-8534750D01*
X13165684Y-8514750D02*
X13145684Y-8534750D01*
X13165684Y-10011750D02*
X13185684Y-10031750D01*
X13185684Y-10011750D02*
X13165684Y-10031750D01*
X13180684Y-8944250D02*
X13200684Y-8964250D01*
X13200684Y-8944250D02*
X13180684Y-8964250D01*
X13250000Y-10650000D02*
X13270000Y-10670000D01*
X13270000Y-10650000D02*
X13250000Y-10670000D01*
X13251933Y-9628000D02*
X13271933Y-9648000D01*
X13271933Y-9628000D02*
X13251933Y-9648000D01*
X13291432Y-9501750D02*
X13311432Y-9521750D01*
X13311432Y-9501750D02*
X13291432Y-9521750D01*
X13293184Y-9729250D02*
X13313184Y-9749250D01*
X13313184Y-9729250D02*
X13293184Y-9749250D01*
X13295684Y-8221750D02*
X13315684Y-8241750D01*
X13315684Y-8221750D02*
X13295684Y-8241750D01*
X13310416Y-9581256D02*
X13330416Y-9601256D01*
X13330416Y-9581256D02*
X13310416Y-9601256D01*
X13325684Y-10556750D02*
X13345684Y-10576750D01*
X13345684Y-10556750D02*
X13325684Y-10576750D01*
X13335373Y-10203300D02*
X13355373Y-10223300D01*
X13355373Y-10203300D02*
X13335373Y-10223300D01*
X13350684Y-8511750D02*
X13370684Y-8531750D01*
X13370684Y-8511750D02*
X13350684Y-8531750D01*
X13374533Y-9494662D02*
X13394533Y-9514662D01*
X13394533Y-9494662D02*
X13374533Y-9514662D01*
X13383460Y-8952026D02*
X13403460Y-8972026D01*
X13403460Y-8952026D02*
X13383460Y-8972026D01*
X13385684Y-9826750D02*
X13405684Y-9846750D01*
X13405684Y-9826750D02*
X13385684Y-9846750D01*
X13415684Y-10556750D02*
X13435684Y-10576750D01*
X13435684Y-10556750D02*
X13415684Y-10576750D01*
X13416634Y-9658644D02*
X13436634Y-9678644D01*
X13436634Y-9658644D02*
X13416634Y-9678644D01*
X13433184Y-10651750D02*
X13453184Y-10671750D01*
X13453184Y-10651750D02*
X13433184Y-10671750D01*
X13455445Y-9459774D02*
X13475445Y-9479774D01*
X13475445Y-9459774D02*
X13455445Y-9479774D01*
X13458184Y-9566750D02*
X13478184Y-9586750D01*
X13478184Y-9566750D02*
X13458184Y-9586750D01*
X13465684Y-9919250D02*
X13485684Y-9939250D01*
X13485684Y-9919250D02*
X13465684Y-9939250D01*
X13473734Y-9831750D02*
X13493734Y-9851750D01*
X13493734Y-9831750D02*
X13473734Y-9851750D01*
X13500684Y-8741750D02*
X13520684Y-8761750D01*
X13520684Y-8741750D02*
X13500684Y-8761750D01*
X13520684Y-10551750D02*
X13540684Y-10571750D01*
X13540684Y-10551750D02*
X13520684Y-10571750D01*
X13540684Y-8211750D02*
X13560684Y-8231750D01*
X13560684Y-8211750D02*
X13540684Y-8231750D01*
X13540684Y-8511750D02*
X13560684Y-8531750D01*
X13560684Y-8511750D02*
X13540684Y-8531750D01*
X13561934Y-9155500D02*
X13581934Y-9175500D01*
X13581934Y-9155500D02*
X13561934Y-9175500D01*
X13572554Y-9086120D02*
X13592554Y-9106120D01*
X13592554Y-9086120D02*
X13572554Y-9106120D01*
X13575684Y-8781750D02*
X13595684Y-8801750D01*
X13595684Y-8781750D02*
X13575684Y-8801750D01*
X13585684Y-9917376D02*
X13605684Y-9937376D01*
X13605684Y-9917376D02*
X13585684Y-9937376D01*
X13635684Y-9161750D02*
X13655684Y-9181750D01*
X13655684Y-9161750D02*
X13635684Y-9181750D01*
X13643184Y-8824250D02*
X13663184Y-8844250D01*
X13663184Y-8824250D02*
X13643184Y-8844250D01*
X13650945Y-9021004D02*
X13670945Y-9041004D01*
X13670945Y-9021004D02*
X13650945Y-9041004D01*
X13655684Y-9917350D02*
X13675684Y-9937350D01*
X13675684Y-9917350D02*
X13655684Y-9937350D01*
X13670684Y-10084250D02*
X13690684Y-10104250D01*
X13690684Y-10084250D02*
X13670684Y-10104250D01*
X13670684Y-9091750D02*
X13690684Y-9111750D01*
X13690684Y-9091750D02*
X13670684Y-9111750D01*
X13670684Y-10006750D02*
X13690684Y-10026750D01*
X13690684Y-10006750D02*
X13670684Y-10026750D01*
X13705684Y-9039250D02*
X13725684Y-9059250D01*
X13725684Y-9039250D02*
X13705684Y-9059250D01*
X13717467Y-10637467D02*
X13737467Y-10657467D01*
X13737467Y-10637467D02*
X13717467Y-10657467D01*
X13755684Y-10341750D02*
X13775684Y-10361750D01*
X13775684Y-10341750D02*
X13755684Y-10361750D01*
X13780000Y-10942450D02*
X13800000Y-10962450D01*
X13800000Y-10942450D02*
X13780000Y-10962450D01*
X13790000Y-10700000D02*
X13810000Y-10720000D01*
X13810000Y-10700000D02*
X13790000Y-10720000D01*
X13800000Y-10620000D02*
X13820000Y-10640000D01*
X13820000Y-10620000D02*
X13800000Y-10640000D01*
X13803814Y-8384880D02*
X13823814Y-8404880D01*
X13823814Y-8384880D02*
X13803814Y-8404880D01*
X13815684Y-9341750D02*
X13835684Y-9361750D01*
X13835684Y-9341750D02*
X13815684Y-9361750D01*
X13815684Y-9541750D02*
X13835684Y-9561750D01*
X13835684Y-9541750D02*
X13815684Y-9561750D01*
X13815684Y-9741750D02*
X13835684Y-9761750D01*
X13835684Y-9741750D02*
X13815684Y-9761750D01*
X13815684Y-10281750D02*
X13835684Y-10301750D01*
X13835684Y-10281750D02*
X13815684Y-10301750D01*
X13885684Y-10776750D02*
X13905684Y-10796750D01*
X13905684Y-10776750D02*
X13885684Y-10796750D01*
X13915684Y-9341750D02*
X13935684Y-9361750D01*
X13935684Y-9341750D02*
X13915684Y-9361750D01*
X13915684Y-9741750D02*
X13935684Y-9761750D01*
X13935684Y-9741750D02*
X13915684Y-9761750D01*
X13941314Y-10334880D02*
X13961314Y-10354880D01*
X13961314Y-10334880D02*
X13941314Y-10354880D01*
X13945684Y-10956750D02*
X13965684Y-10976750D01*
X13965684Y-10956750D02*
X13945684Y-10976750D01*
X13950000Y-10830000D02*
X13970000Y-10850000D01*
X13970000Y-10830000D02*
X13950000Y-10850000D01*
X13960000Y-10550000D02*
X13980000Y-10570000D01*
X13980000Y-10550000D02*
X13960000Y-10570000D01*
X13960000Y-10636750D02*
X13980000Y-10656750D01*
X13980000Y-10636750D02*
X13960000Y-10656750D01*
X13978184Y-8594250D02*
X13998184Y-8614250D01*
X13998184Y-8594250D02*
X13978184Y-8614250D01*
X13993184Y-8814852D02*
X14013184Y-8834852D01*
X14013184Y-8814852D02*
X13993184Y-8834852D01*
X14015684Y-9341750D02*
X14035684Y-9361750D01*
X14035684Y-9341750D02*
X14015684Y-9361750D01*
X14015684Y-9541750D02*
X14035684Y-9561750D01*
X14035684Y-9541750D02*
X14015684Y-9561750D01*
X14015684Y-9741750D02*
X14035684Y-9761750D01*
X14035684Y-9741750D02*
X14015684Y-9761750D01*
X14025684Y-8866750D02*
X14045684Y-8886750D01*
X14045684Y-8866750D02*
X14025684Y-8886750D01*
X14028184Y-8399250D02*
X14048184Y-8419250D01*
X14048184Y-8399250D02*
X14028184Y-8419250D01*
X14048184Y-8221750D02*
X14068184Y-8241750D01*
X14068184Y-8221750D02*
X14048184Y-8241750D01*
X14060000Y-10420000D02*
X14080000Y-10440000D01*
X14080000Y-10420000D02*
X14060000Y-10440000D01*
X14066745Y-8907287D02*
X14086745Y-8927287D01*
X14086745Y-8907287D02*
X14066745Y-8927287D01*
X14093184Y-10276750D02*
X14113184Y-10296750D01*
X14113184Y-10276750D02*
X14093184Y-10296750D01*
X14095684Y-9831750D02*
X14115684Y-9851750D01*
X14115684Y-9831750D02*
X14095684Y-9851750D01*
X14104368Y-8951034D02*
X14124368Y-8971034D01*
X14124368Y-8951034D02*
X14104368Y-8971034D01*
X14145684Y-8681750D02*
X14165684Y-8701750D01*
X14165684Y-8681750D02*
X14145684Y-8701750D01*
X14145684Y-9531750D02*
X14165684Y-9551750D01*
X14165684Y-9531750D02*
X14145684Y-9551750D01*
X14145684Y-9681750D02*
X14165684Y-9701750D01*
X14165684Y-9681750D02*
X14145684Y-9701750D01*
X14153817Y-10129612D02*
X14173817Y-10149612D01*
X14173817Y-10129612D02*
X14153817Y-10149612D01*
X14195684Y-8631750D02*
X14215684Y-8651750D01*
X14215684Y-8631750D02*
X14195684Y-8651750D01*
X14195684Y-8731750D02*
X14215684Y-8751750D01*
X14215684Y-8731750D02*
X14195684Y-8751750D01*
X14230000Y-10470000D02*
X14250000Y-10490000D01*
X14250000Y-10470000D02*
X14230000Y-10490000D01*
X14250684Y-8451750D02*
X14270684Y-8471750D01*
X14270684Y-8451750D02*
X14250684Y-8471750D01*
X14260684Y-10236750D02*
X14280684Y-10256750D01*
X14280684Y-10236750D02*
X14260684Y-10256750D01*
X14280000Y-10360000D02*
X14300000Y-10380000D01*
X14300000Y-10360000D02*
X14280000Y-10380000D01*
X14285684Y-9601750D02*
X14305684Y-9621750D01*
X14305684Y-9601750D02*
X14285684Y-9621750D01*
X14330684Y-10201750D02*
X14350684Y-10221750D01*
X14350684Y-10201750D02*
X14330684Y-10221750D01*
X14340000Y-10620000D02*
X14360000Y-10640000D01*
X14360000Y-10620000D02*
X14340000Y-10640000D01*
X14348184Y-9001750D02*
X14368184Y-9021750D01*
X14368184Y-9001750D02*
X14348184Y-9021750D01*
X14390000Y-10460000D02*
X14410000Y-10480000D01*
X14410000Y-10460000D02*
X14390000Y-10480000D01*
X14393184Y-10019250D02*
X14413184Y-10039250D01*
X14413184Y-10019250D02*
X14393184Y-10039250D01*
X14393184Y-8841750D02*
X14413184Y-8861750D01*
X14413184Y-8841750D02*
X14393184Y-8861750D01*
X14399825Y-9162835D02*
X14419825Y-9182835D01*
X14419825Y-9162835D02*
X14399825Y-9182835D01*
X14400684Y-10201750D02*
X14420684Y-10221750D01*
X14420684Y-10201750D02*
X14400684Y-10221750D01*
X14411232Y-9888295D02*
X14431232Y-9908295D01*
X14431232Y-9888295D02*
X14411232Y-9908295D01*
X14420000Y-10590000D02*
X14440000Y-10610000D01*
X14440000Y-10590000D02*
X14420000Y-10610000D01*
X14433184Y-9956750D02*
X14453184Y-9976750D01*
X14453184Y-9956750D02*
X14433184Y-9976750D01*
X14450000Y-10340000D02*
X14470000Y-10360000D01*
X14470000Y-10340000D02*
X14450000Y-10360000D01*
X14460000Y-8460000D02*
X14480000Y-8480000D01*
X14480000Y-8460000D02*
X14460000Y-8480000D01*
X14534918Y-10400016D02*
X14554918Y-10420016D01*
X14554918Y-10400016D02*
X14534918Y-10420016D01*
X14538185Y-9181750D02*
X14558185Y-9201750D01*
X14558185Y-9181750D02*
X14538185Y-9201750D01*
X14543184Y-10286750D02*
X14563184Y-10306750D01*
X14563184Y-10286750D02*
X14543184Y-10306750D01*
X14595684Y-10831750D02*
X14615684Y-10851750D01*
X14615684Y-10831750D02*
X14595684Y-10851750D01*
X14595684Y-10956750D02*
X14615684Y-10976750D01*
X14615684Y-10956750D02*
X14595684Y-10976750D01*
X14655684Y-8511750D02*
X14675684Y-8531750D01*
X14675684Y-8511750D02*
X14655684Y-8531750D01*
X14664133Y-10022311D02*
X14684133Y-10042311D01*
X14684133Y-10022311D02*
X14664133Y-10042311D01*
X14675684Y-9821750D02*
X14695684Y-9841750D01*
X14695684Y-9821750D02*
X14675684Y-9841750D01*
X14675684Y-9906750D02*
X14695684Y-9926750D01*
X14695684Y-9906750D02*
X14675684Y-9926750D01*
X14695684Y-10176750D02*
X14715684Y-10196750D01*
X14715684Y-10176750D02*
X14695684Y-10196750D01*
X14710000Y-8300000D02*
X14730000Y-8320000D01*
X14730000Y-8300000D02*
X14710000Y-8320000D01*
X14715684Y-9151750D02*
X14735684Y-9171750D01*
X14735684Y-9151750D02*
X14715684Y-9171750D01*
X14725684Y-9251750D02*
X14745684Y-9271750D01*
X14745684Y-9251750D02*
X14725684Y-9271750D01*
X14735684Y-8491750D02*
X14755684Y-8511750D01*
X14755684Y-8491750D02*
X14735684Y-8511750D01*
X14735684Y-10621750D02*
X14755684Y-10641750D01*
X14755684Y-10621750D02*
X14735684Y-10641750D01*
X14760684Y-10411750D02*
X14780684Y-10431750D01*
X14780684Y-10411750D02*
X14760684Y-10431750D01*
X14790684Y-10956750D02*
X14810684Y-10976750D01*
X14810684Y-10956750D02*
X14790684Y-10976750D01*
X14795684Y-9161750D02*
X14815684Y-9181750D01*
X14815684Y-9161750D02*
X14795684Y-9181750D01*
X14800684Y-10011750D02*
X14820684Y-10031750D01*
X14820684Y-10011750D02*
X14800684Y-10031750D01*
X14935684Y-9111750D02*
X14955684Y-9131750D01*
X14955684Y-9111750D02*
X14935684Y-9131750D01*
X14935684Y-9211750D02*
X14955684Y-9231750D01*
X14955684Y-9211750D02*
X14935684Y-9231750D01*
X14935684Y-9911750D02*
X14955684Y-9931750D01*
X14955684Y-9911750D02*
X14935684Y-9931750D01*
X14935684Y-10011750D02*
X14955684Y-10031750D01*
X14955684Y-10011750D02*
X14935684Y-10031750D01*
X14995684Y-8211951D02*
X15015684Y-8231951D01*
X15015684Y-8211951D02*
X14995684Y-8231951D01*
X14995684Y-8411750D02*
X15015684Y-8431750D01*
X15015684Y-8411750D02*
X14995684Y-8431750D01*
X14995684Y-10731750D02*
X15015684Y-10751750D01*
X15015684Y-10731750D02*
X14995684Y-10751750D01*
X14995684Y-10931750D02*
X15015684Y-10951750D01*
X15015684Y-10931750D02*
X14995684Y-10951750D01*
X15035684Y-9161750D02*
X15055684Y-9181750D01*
X15055684Y-9161750D02*
X15035684Y-9181750D01*
X15035684Y-9961750D02*
X15055684Y-9981750D01*
X15055684Y-9961750D02*
X15035684Y-9981750D01*
X15045684Y-8311750D02*
X15065684Y-8331750D01*
X15065684Y-8311750D02*
X15045684Y-8331750D01*
X15045684Y-10831750D02*
X15065684Y-10851750D01*
X15065684Y-10831750D02*
X15045684Y-10851750D01*
X15135684Y-9111750D02*
X15155684Y-9131750D01*
X15155684Y-9111750D02*
X15135684Y-9131750D01*
X15135684Y-9211750D02*
X15155684Y-9231750D01*
X15155684Y-9211750D02*
X15135684Y-9231750D01*
X15135684Y-9911750D02*
X15155684Y-9931750D01*
X15155684Y-9911750D02*
X15135684Y-9931750D01*
X15135684Y-10011750D02*
X15155684Y-10031750D01*
X15155684Y-10011750D02*
X15135684Y-10031750D01*
X15145684Y-8211750D02*
X15165684Y-8231750D01*
X15165684Y-8211750D02*
X15145684Y-8231750D01*
X15145684Y-8411750D02*
X15165684Y-8431750D01*
X15165684Y-8411750D02*
X15145684Y-8431750D01*
X15145684Y-10731750D02*
X15165684Y-10751750D01*
X15165684Y-10731750D02*
X15145684Y-10751750D01*
X15145684Y-10931750D02*
X15165684Y-10951750D01*
X15165684Y-10931750D02*
X15145684Y-10951750D01*
X15195684Y-8311750D02*
X15215684Y-8331750D01*
X15215684Y-8311750D02*
X15195684Y-8331750D01*
X15195684Y-10831750D02*
X15215684Y-10851750D01*
X15215684Y-10831750D02*
X15195684Y-10851750D01*
X15235684Y-9161750D02*
X15255684Y-9181750D01*
X15255684Y-9161750D02*
X15235684Y-9181750D01*
X15235684Y-9961750D02*
X15255684Y-9981750D01*
X15255684Y-9961750D02*
X15235684Y-9981750D01*
X15295684Y-8211750D02*
X15315684Y-8231750D01*
X15315684Y-8211750D02*
X15295684Y-8231750D01*
X15295684Y-8411750D02*
X15315684Y-8431750D01*
X15315684Y-8411750D02*
X15295684Y-8431750D01*
X15295684Y-10731750D02*
X15315684Y-10751750D01*
X15315684Y-10731750D02*
X15295684Y-10751750D01*
X15295684Y-10931750D02*
X15315684Y-10951750D01*
X15315684Y-10931750D02*
X15295684Y-10951750D01*
X15335684Y-9111750D02*
X15355684Y-9131750D01*
X15355684Y-9111750D02*
X15335684Y-9131750D01*
X15335684Y-9211750D02*
X15355684Y-9231750D01*
X15355684Y-9211750D02*
X15335684Y-9231750D01*
X15335684Y-9911750D02*
X15355684Y-9931750D01*
X15355684Y-9911750D02*
X15335684Y-9931750D01*
X15335684Y-10011750D02*
X15355684Y-10031750D01*
X15355684Y-10011750D02*
X15335684Y-10031750D01*
X15366633Y-10461750D02*
X15386633Y-10481750D01*
X15386633Y-10461750D02*
X15366633Y-10481750D01*
X15373184Y-9664250D02*
X15393184Y-9684250D01*
X15393184Y-9664250D02*
X15373184Y-9684250D01*
X15377945Y-8896202D02*
X15397945Y-8916202D01*
X15397945Y-8896202D02*
X15377945Y-8916202D01*
X15425682Y-9111750D02*
X15445682Y-9131750D01*
X15445682Y-9111750D02*
X15425682Y-9131750D01*
X15451315Y-9261268D02*
X15471315Y-9281268D01*
X15471315Y-9261268D02*
X15451315Y-9281268D01*
X15468185Y-9169249D02*
X15488185Y-9189249D01*
X15488185Y-9169249D02*
X15468185Y-9189249D01*
X15470684Y-9946750D02*
X15490684Y-9966750D01*
X15490684Y-9946750D02*
X15470684Y-9966750D01*
X15485684Y-8459870D02*
X15505684Y-8479870D01*
X15505684Y-8459870D02*
X15485684Y-8479870D01*
X15485684Y-9371250D02*
X15505684Y-9391250D01*
X15505684Y-9371250D02*
X15485684Y-9391250D01*
X15485684Y-10136250D02*
X15505684Y-10156250D01*
X15505684Y-10136250D02*
X15485684Y-10156250D01*
X15505684Y-8543300D02*
X15525684Y-8563300D01*
X15525684Y-8543300D02*
X15505684Y-8563300D01*
X15530684Y-9066750D02*
X15550684Y-9086750D01*
X15550684Y-9066750D02*
X15530684Y-9086750D01*
X15590684Y-10103300D02*
X15610684Y-10123300D01*
X15610684Y-10103300D02*
X15590684Y-10123300D01*
X15595684Y-9111750D02*
X15615684Y-9131750D01*
X15615684Y-9111750D02*
X15595684Y-9131750D01*
X15595684Y-9224251D02*
X15615684Y-9244251D01*
X15615684Y-9224251D02*
X15595684Y-9244251D01*
X15595684Y-9381750D02*
X15615684Y-9401750D01*
X15615684Y-9381750D02*
X15595684Y-9401750D01*
X15600684Y-9946750D02*
X15620684Y-9966750D01*
X15620684Y-9946750D02*
X15600684Y-9966750D01*
X15635684Y-8461750D02*
X15655684Y-8481750D01*
X15655684Y-8461750D02*
X15635684Y-8481750D01*
X15775684Y-9176750D02*
X15795684Y-9196750D01*
X15795684Y-9176750D02*
X15775684Y-9196750D01*
X15775684Y-9946750D02*
X15795684Y-9966750D01*
X15795684Y-9946750D02*
X15775684Y-9966750D01*
X15885684Y-9176750D02*
X15905684Y-9196750D01*
X15905684Y-9176750D02*
X15885684Y-9196750D01*
X15885684Y-9946750D02*
X15905684Y-9966750D01*
X15905684Y-9946750D02*
X15885684Y-9966750D01*
X15995684Y-9176750D02*
X16015684Y-9196750D01*
X16015684Y-9176750D02*
X15995684Y-9196750D01*
X15995684Y-9946750D02*
X16015684Y-9966750D01*
X16015684Y-9946750D02*
X15995684Y-9966750D01*
X16135484Y-9281750D02*
X16155484Y-9301750D01*
X16155484Y-9281750D02*
X16135484Y-9301750D01*
X16135484Y-9846750D02*
X16155484Y-9866750D01*
X16155484Y-9846750D02*
X16135484Y-9866750D01*
X16135484Y-10046750D02*
X16155484Y-10066750D01*
X16155484Y-10046750D02*
X16135484Y-10066750D01*
X16135484Y-10601750D02*
X16155484Y-10621750D01*
X16155484Y-10601750D02*
X16135484Y-10621750D01*
X16260684Y-8521750D02*
X16280684Y-8541750D01*
X16280684Y-8521750D02*
X16260684Y-8541750D01*
X16265684Y-10096750D02*
X16285684Y-10116750D01*
X16285684Y-10096750D02*
X16265684Y-10116750D01*
X16280684Y-9326750D02*
X16300684Y-9346750D01*
X16300684Y-9326750D02*
X16280684Y-9346750D01*
X16290684Y-9176750D02*
X16310684Y-9196750D01*
X16310684Y-9176750D02*
X16290684Y-9196750D01*
X16395684Y-9156750D02*
X16415684Y-9176750D01*
X16415684Y-9156750D02*
X16395684Y-9176750D01*
X16395888Y-9920760D02*
X16415888Y-9940760D01*
X16415888Y-9920760D02*
X16395888Y-9940760D01*
X16445684Y-9206750D02*
X16465684Y-9226750D01*
X16465684Y-9206750D02*
X16445684Y-9226750D01*
X16445888Y-9970760D02*
X16465888Y-9990760D01*
X16465888Y-9970760D02*
X16445888Y-9990760D01*
X16495684Y-9156750D02*
X16515684Y-9176750D01*
X16515684Y-9156750D02*
X16495684Y-9176750D01*
X16495888Y-9920760D02*
X16515888Y-9940760D01*
X16515888Y-9920760D02*
X16495888Y-9940760D01*
X16545684Y-9206750D02*
X16565684Y-9226750D01*
X16565684Y-9206750D02*
X16545684Y-9226750D01*
X16545888Y-9970760D02*
X16565888Y-9990760D01*
X16565888Y-9970760D02*
X16545888Y-9990760D01*
X16595684Y-9156750D02*
X16615684Y-9176750D01*
X16615684Y-9156750D02*
X16595684Y-9176750D01*
X16595888Y-9920760D02*
X16615888Y-9940760D01*
X16615888Y-9920760D02*
X16595888Y-9940760D01*
X16645684Y-9206750D02*
X16665684Y-9226750D01*
X16665684Y-9206750D02*
X16645684Y-9226750D01*
X16645888Y-9970760D02*
X16665888Y-9990760D01*
X16665888Y-9970760D02*
X16645888Y-9990760D01*
X16695684Y-9156750D02*
X16715684Y-9176750D01*
X16715684Y-9156750D02*
X16695684Y-9176750D01*
X16695888Y-9920760D02*
X16715888Y-9940760D01*
X16715888Y-9920760D02*
X16695888Y-9940760D01*
X16745684Y-9206750D02*
X16765684Y-9226750D01*
X16765684Y-9206750D02*
X16745684Y-9226750D01*
X16745888Y-9970760D02*
X16765888Y-9990760D01*
X16765888Y-9970760D02*
X16745888Y-9990760D01*
X16795684Y-9156750D02*
X16815684Y-9176750D01*
X16815684Y-9156750D02*
X16795684Y-9176750D01*
X16795888Y-9920760D02*
X16815888Y-9940760D01*
X16815888Y-9920760D02*
X16795888Y-9940760D01*
X16845684Y-9206750D02*
X16865684Y-9226750D01*
X16865684Y-9206750D02*
X16845684Y-9226750D01*
X16845684Y-9971750D02*
X16865684Y-9991750D01*
X16865684Y-9971750D02*
X16845684Y-9991750D01*
X16895684Y-9156750D02*
X16915684Y-9176750D01*
X16915684Y-9156750D02*
X16895684Y-9176750D01*
X16895684Y-9921750D02*
X16915684Y-9941750D01*
X16915684Y-9921750D02*
X16895684Y-9941750D01*
X16945684Y-9206750D02*
X16965684Y-9226750D01*
X16965684Y-9206750D02*
X16945684Y-9226750D01*
X16945684Y-9971750D02*
X16965684Y-9991750D01*
X16965684Y-9971750D02*
X16945684Y-9991750D01*
X16995684Y-9156750D02*
X17015684Y-9176750D01*
X17015684Y-9156750D02*
X16995684Y-9176750D01*
X16995684Y-9921750D02*
X17015684Y-9941750D01*
X17015684Y-9921750D02*
X16995684Y-9941750D01*
X17045684Y-9206750D02*
X17065684Y-9226750D01*
X17065684Y-9206750D02*
X17045684Y-9226750D01*
X17045684Y-9971750D02*
X17065684Y-9991750D01*
X17065684Y-9971750D02*
X17045684Y-9991750D01*
X17095684Y-9156750D02*
X17115684Y-9176750D01*
X17115684Y-9156750D02*
X17095684Y-9176750D01*
X17095684Y-9921750D02*
X17115684Y-9941750D01*
X17115684Y-9921750D02*
X17095684Y-9941750D01*
X15740684Y-8671750D02*
G75*
G02*
X15710684Y-8671750I-15000J0D01*
G01*
X15710684Y-8671750D02*
G75*
G02*
X15740684Y-8671750I15000J0D01*
G01*
X15740684Y-8801750D02*
G75*
G02*
X15710684Y-8801750I-15000J0D01*
G01*
X15710684Y-8801750D02*
G75*
G02*
X15740684Y-8801750I15000J0D01*
G01*
X15740684Y-8936750D02*
G75*
G02*
X15710684Y-8936750I-15000J0D01*
G01*
X15710684Y-8936750D02*
G75*
G02*
X15740684Y-8936750I15000J0D01*
G01*
X15740684Y-9441750D02*
G75*
G02*
X15710684Y-9441750I-15000J0D01*
G01*
X15710684Y-9441750D02*
G75*
G02*
X15740684Y-9441750I15000J0D01*
G01*
X15740684Y-9571750D02*
G75*
G02*
X15710684Y-9571750I-15000J0D01*
G01*
X15710684Y-9571750D02*
G75*
G02*
X15740684Y-9571750I15000J0D01*
G01*
X15740684Y-9706750D02*
G75*
G02*
X15710684Y-9706750I-15000J0D01*
G01*
X15710684Y-9706750D02*
G75*
G02*
X15740684Y-9706750I15000J0D01*
G01*
X15740684Y-10206750D02*
G75*
G02*
X15710684Y-10206750I-15000J0D01*
G01*
X15710684Y-10206750D02*
G75*
G02*
X15740684Y-10206750I15000J0D01*
G01*
X15740684Y-10331750D02*
G75*
G02*
X15710684Y-10331750I-15000J0D01*
G01*
X15710684Y-10331750D02*
G75*
G02*
X15740684Y-10331750I15000J0D01*
G01*
X15740684Y-10471750D02*
G75*
G02*
X15710684Y-10471750I-15000J0D01*
G01*
X15710684Y-10471750D02*
G75*
G02*
X15740684Y-10471750I15000J0D01*
G01*
X15800684Y-8531750D02*
G75*
G02*
X15770684Y-8531750I-15000J0D01*
G01*
X15770684Y-8531750D02*
G75*
G02*
X15800684Y-8531750I15000J0D01*
G01*
X15800684Y-9071750D02*
G75*
G02*
X15770684Y-9071750I-15000J0D01*
G01*
X15770684Y-9071750D02*
G75*
G02*
X15800684Y-9071750I15000J0D01*
G01*
X15800684Y-9301750D02*
G75*
G02*
X15770684Y-9301750I-15000J0D01*
G01*
X15770684Y-9301750D02*
G75*
G02*
X15800684Y-9301750I15000J0D01*
G01*
X15800684Y-9841750D02*
G75*
G02*
X15770684Y-9841750I-15000J0D01*
G01*
X15770684Y-9841750D02*
G75*
G02*
X15800684Y-9841750I15000J0D01*
G01*
X15800684Y-10066750D02*
G75*
G02*
X15770684Y-10066750I-15000J0D01*
G01*
X15770684Y-10066750D02*
G75*
G02*
X15800684Y-10066750I15000J0D01*
G01*
X15800684Y-10606750D02*
G75*
G02*
X15770684Y-10606750I-15000J0D01*
G01*
X15770684Y-10606750D02*
G75*
G02*
X15800684Y-10606750I15000J0D01*
G01*
X15908851Y-8531750D02*
G75*
G02*
X15878851Y-8531750I-15000J0D01*
G01*
X15878851Y-8531750D02*
G75*
G02*
X15908851Y-8531750I15000J0D01*
G01*
X15910684Y-9071750D02*
G75*
G02*
X15880684Y-9071750I-15000J0D01*
G01*
X15880684Y-9071750D02*
G75*
G02*
X15910684Y-9071750I15000J0D01*
G01*
X15910684Y-9301750D02*
G75*
G02*
X15880684Y-9301750I-15000J0D01*
G01*
X15880684Y-9301750D02*
G75*
G02*
X15910684Y-9301750I15000J0D01*
G01*
X15910684Y-9841750D02*
G75*
G02*
X15880684Y-9841750I-15000J0D01*
G01*
X15880684Y-9841750D02*
G75*
G02*
X15910684Y-9841750I15000J0D01*
G01*
X15910684Y-10066750D02*
G75*
G02*
X15880684Y-10066750I-15000J0D01*
G01*
X15880684Y-10066750D02*
G75*
G02*
X15910684Y-10066750I15000J0D01*
G01*
X15910684Y-10606750D02*
G75*
G02*
X15880684Y-10606750I-15000J0D01*
G01*
X15880684Y-10606750D02*
G75*
G02*
X15910684Y-10606750I15000J0D01*
G01*
X16017017Y-8531750D02*
G75*
G02*
X15987017Y-8531750I-15000J0D01*
G01*
X15987017Y-8531750D02*
G75*
G02*
X16017017Y-8531750I15000J0D01*
G01*
X16020684Y-9071750D02*
G75*
G02*
X15990684Y-9071750I-15000J0D01*
G01*
X15990684Y-9071750D02*
G75*
G02*
X16020684Y-9071750I15000J0D01*
G01*
X16020684Y-9301750D02*
G75*
G02*
X15990684Y-9301750I-15000J0D01*
G01*
X15990684Y-9301750D02*
G75*
G02*
X16020684Y-9301750I15000J0D01*
G01*
X16020684Y-9841750D02*
G75*
G02*
X15990684Y-9841750I-15000J0D01*
G01*
X15990684Y-9841750D02*
G75*
G02*
X16020684Y-9841750I15000J0D01*
G01*
X16020684Y-10066750D02*
G75*
G02*
X15990684Y-10066750I-15000J0D01*
G01*
X15990684Y-10066750D02*
G75*
G02*
X16020684Y-10066750I15000J0D01*
G01*
X16020684Y-10606750D02*
G75*
G02*
X15990684Y-10606750I-15000J0D01*
G01*
X15990684Y-10606750D02*
G75*
G02*
X16020684Y-10606750I15000J0D01*
G01*
X16315684Y-8686750D02*
G75*
G02*
X16285684Y-8686750I-15000J0D01*
G01*
X16285684Y-8686750D02*
G75*
G02*
X16315684Y-8686750I15000J0D01*
G01*
X16315684Y-8801750D02*
G75*
G02*
X16285684Y-8801750I-15000J0D01*
G01*
X16285684Y-8801750D02*
G75*
G02*
X16315684Y-8801750I15000J0D01*
G01*
X16315684Y-8931750D02*
G75*
G02*
X16285684Y-8931750I-15000J0D01*
G01*
X16285684Y-8931750D02*
G75*
G02*
X16315684Y-8931750I15000J0D01*
G01*
X16315684Y-9056750D02*
G75*
G02*
X16285684Y-9056750I-15000J0D01*
G01*
X16285684Y-9056750D02*
G75*
G02*
X16315684Y-9056750I15000J0D01*
G01*
X16315684Y-9448950D02*
G75*
G02*
X16285684Y-9448950I-15000J0D01*
G01*
X16285684Y-9448950D02*
G75*
G02*
X16315684Y-9448950I15000J0D01*
G01*
X16315684Y-9571750D02*
G75*
G02*
X16285684Y-9571750I-15000J0D01*
G01*
X16285684Y-9571750D02*
G75*
G02*
X16315684Y-9571750I15000J0D01*
G01*
X16315684Y-9696750D02*
G75*
G02*
X16285684Y-9696750I-15000J0D01*
G01*
X16285684Y-9696750D02*
G75*
G02*
X16315684Y-9696750I15000J0D01*
G01*
X16315684Y-9841750D02*
G75*
G02*
X16285684Y-9841750I-15000J0D01*
G01*
X16285684Y-9841750D02*
G75*
G02*
X16315684Y-9841750I15000J0D01*
G01*
X16315684Y-10221750D02*
G75*
G02*
X16285684Y-10221750I-15000J0D01*
G01*
X16285684Y-10221750D02*
G75*
G02*
X16315684Y-10221750I15000J0D01*
G01*
X16315684Y-10336750D02*
G75*
G02*
X16285684Y-10336750I-15000J0D01*
G01*
X16285684Y-10336750D02*
G75*
G02*
X16315684Y-10336750I15000J0D01*
G01*
X16315684Y-10466750D02*
G75*
G02*
X16285684Y-10466750I-15000J0D01*
G01*
X16285684Y-10466750D02*
G75*
G02*
X16315684Y-10466750I15000J0D01*
G01*
X16315684Y-10606750D02*
G75*
G02*
X16285684Y-10606750I-15000J0D01*
G01*
X16285684Y-10606750D02*
G75*
G02*
X16315684Y-10606750I15000J0D01*
G01*
X16500684Y-8681750D02*
G75*
G02*
X16470684Y-8681750I-15000J0D01*
G01*
X16470684Y-8681750D02*
G75*
G02*
X16500684Y-8681750I15000J0D01*
G01*
X16500684Y-8801750D02*
G75*
G02*
X16470684Y-8801750I-15000J0D01*
G01*
X16470684Y-8801750D02*
G75*
G02*
X16500684Y-8801750I15000J0D01*
G01*
X16500684Y-8931750D02*
G75*
G02*
X16470684Y-8931750I-15000J0D01*
G01*
X16470684Y-8931750D02*
G75*
G02*
X16500684Y-8931750I15000J0D01*
G01*
X16500684Y-9451750D02*
G75*
G02*
X16470684Y-9451750I-15000J0D01*
G01*
X16470684Y-9451750D02*
G75*
G02*
X16500684Y-9451750I15000J0D01*
G01*
X16500684Y-9571750D02*
G75*
G02*
X16470684Y-9571750I-15000J0D01*
G01*
X16470684Y-9571750D02*
G75*
G02*
X16500684Y-9571750I15000J0D01*
G01*
X16500684Y-9691750D02*
G75*
G02*
X16470684Y-9691750I-15000J0D01*
G01*
X16470684Y-9691750D02*
G75*
G02*
X16500684Y-9691750I15000J0D01*
G01*
X16500684Y-10211750D02*
G75*
G02*
X16470684Y-10211750I-15000J0D01*
G01*
X16470684Y-10211750D02*
G75*
G02*
X16500684Y-10211750I15000J0D01*
G01*
X16500684Y-10326750D02*
G75*
G02*
X16470684Y-10326750I-15000J0D01*
G01*
X16470684Y-10326750D02*
G75*
G02*
X16500684Y-10326750I15000J0D01*
G01*
X16500684Y-10436750D02*
G75*
G02*
X16470684Y-10436750I-15000J0D01*
G01*
X16470684Y-10436750D02*
G75*
G02*
X16500684Y-10436750I15000J0D01*
G01*
X12397684Y-9889250D02*
X12397684Y-9924250D01*
X12380184Y-9906750D02*
X12415184Y-9906750D01*
X12447684Y-9889250D02*
X12347684Y-9889250D01*
X12347684Y-9924250D02*
G75*
G02*
X12347684Y-9889250I0J17500D01*
G01*
X12347684Y-9924250D02*
X12447684Y-9924250D01*
X12447684Y-9924250D02*
G75*
G03*
X12447684Y-9889250I0J17500D01*
G01*
X12397684Y-10604250D02*
X12397684Y-10639250D01*
X12380184Y-10621750D02*
X12415184Y-10621750D01*
X12447684Y-10604250D02*
X12347684Y-10604250D01*
X12347684Y-10639250D02*
G75*
G02*
X12347684Y-10604250I0J17500D01*
G01*
X12347684Y-10639250D02*
X12447684Y-10639250D01*
X12447684Y-10639250D02*
G75*
G03*
X12447684Y-10604250I0J17500D01*
G01*
X12343240Y-10214806D02*
X12343240Y-10183693D01*
X12312127Y-10183693D01*
X12312127Y-10214806D01*
X12343240Y-10214806D01*
X12343240Y-10344806D02*
X12343240Y-10313693D01*
X12312127Y-10313693D01*
X12312127Y-10344806D01*
X12343240Y-10344806D01*
X12443240Y-10149806D02*
X12443240Y-10118693D01*
X12412127Y-10118693D01*
X12412127Y-10149806D01*
X12443240Y-10149806D01*
X12443240Y-10279806D02*
X12443240Y-10248693D01*
X12412127Y-10248693D01*
X12412127Y-10279806D01*
X12443240Y-10279806D01*
X12443240Y-10409806D02*
X12443240Y-10378693D01*
X12412127Y-10378693D01*
X12412127Y-10409806D01*
X12443240Y-10409806D01*
X12411684Y-8351750D02*
X12461684Y-8301750D01*
X12411684Y-8251750D01*
X12361684Y-8301750D01*
X12411684Y-8351750D01*
X12411684Y-8605750D02*
X12461684Y-8555750D01*
X12411684Y-8505750D01*
X12361684Y-8555750D01*
X12411684Y-8605750D01*
X12411684Y-8859750D02*
X12461684Y-8809750D01*
X12411684Y-8759750D01*
X12361684Y-8809750D01*
X12411684Y-8859750D01*
X12411684Y-9113750D02*
X12461684Y-9063750D01*
X12411684Y-9013750D01*
X12361684Y-9063750D01*
X12411684Y-9113750D01*
X12411684Y-9367750D02*
X12461684Y-9317750D01*
X12411684Y-9267750D01*
X12361684Y-9317750D01*
X12411684Y-9367750D01*
X12411684Y-9621750D02*
X12461684Y-9571750D01*
X12411684Y-9521750D01*
X12361684Y-9571750D01*
X12411684Y-9621750D01*
X12411684Y-10891750D02*
X12461684Y-10841750D01*
X12411684Y-10791750D01*
X12361684Y-10841750D01*
X12411684Y-10891750D01*
X12665684Y-8351750D02*
X12715684Y-8301750D01*
X12665684Y-8251750D01*
X12615684Y-8301750D01*
X12665684Y-8351750D01*
X12665684Y-10891750D02*
X12715684Y-10841750D01*
X12665684Y-10791750D01*
X12615684Y-10841750D01*
X12665684Y-10891750D01*
X12919684Y-8351750D02*
X12969684Y-8301750D01*
X12919684Y-8251750D01*
X12869684Y-8301750D01*
X12919684Y-8351750D01*
X12919684Y-10891750D02*
X12969684Y-10841750D01*
X12919684Y-10791750D01*
X12869684Y-10841750D01*
X12919684Y-10891750D01*
X13173684Y-8351750D02*
X13223684Y-8301750D01*
X13173684Y-8251750D01*
X13123684Y-8301750D01*
X13173684Y-8351750D01*
X13173684Y-10891750D02*
X13223684Y-10841750D01*
X13173684Y-10791750D01*
X13123684Y-10841750D01*
X13173684Y-10891750D01*
X13427684Y-8351750D02*
X13477684Y-8301750D01*
X13427684Y-8251750D01*
X13377684Y-8301750D01*
X13427684Y-8351750D01*
X13427684Y-10891750D02*
X13477684Y-10841750D01*
X13427684Y-10791750D01*
X13377684Y-10841750D01*
X13427684Y-10891750D01*
X13681684Y-8351750D02*
X13731684Y-8301750D01*
X13681684Y-8251750D01*
X13631684Y-8301750D01*
X13681684Y-8351750D01*
X13935684Y-8351750D02*
X13985684Y-8301750D01*
X13935684Y-8251750D01*
X13885684Y-8301750D01*
X13935684Y-8351750D01*
X14189684Y-8351750D02*
X14239684Y-8301750D01*
X14189684Y-8251750D01*
X14139684Y-8301750D01*
X14189684Y-8351750D01*
X14443684Y-8351750D02*
X14493684Y-8301750D01*
X14443684Y-8251750D01*
X14393684Y-8301750D01*
X14443684Y-8351750D01*
X15713684Y-8351750D02*
X15763684Y-8301750D01*
X15713684Y-8251750D01*
X15663684Y-8301750D01*
X15713684Y-8351750D01*
X15713684Y-10891750D02*
X15763684Y-10841750D01*
X15713684Y-10791750D01*
X15663684Y-10841750D01*
X15713684Y-10891750D01*
X15967684Y-8351750D02*
X16017684Y-8301750D01*
X15967684Y-8251750D01*
X15917684Y-8301750D01*
X15967684Y-8351750D01*
X15967684Y-10891750D02*
X16017684Y-10841750D01*
X15967684Y-10791750D01*
X15917684Y-10841750D01*
X15967684Y-10891750D01*
X16221684Y-8351750D02*
X16271684Y-8301750D01*
X16221684Y-8251750D01*
X16171684Y-8301750D01*
X16221684Y-8351750D01*
X16221684Y-10891750D02*
X16271684Y-10841750D01*
X16221684Y-10791750D01*
X16171684Y-10841750D01*
X16221684Y-10891750D01*
X16475684Y-8351750D02*
X16525684Y-8301750D01*
X16475684Y-8251750D01*
X16425684Y-8301750D01*
X16475684Y-8351750D01*
X16475684Y-10891750D02*
X16525684Y-10841750D01*
X16475684Y-10791750D01*
X16425684Y-10841750D01*
X16475684Y-10891750D01*
X16729684Y-8351750D02*
X16779684Y-8301750D01*
X16729684Y-8251750D01*
X16679684Y-8301750D01*
X16729684Y-8351750D01*
X16729684Y-8732750D02*
X16779684Y-8682750D01*
X16729684Y-8632750D01*
X16679684Y-8682750D01*
X16729684Y-8732750D01*
X16729684Y-8986750D02*
X16779684Y-8936750D01*
X16729684Y-8886750D01*
X16679684Y-8936750D01*
X16729684Y-8986750D01*
X16729684Y-9494750D02*
X16779684Y-9444750D01*
X16729684Y-9394750D01*
X16679684Y-9444750D01*
X16729684Y-9494750D01*
X16729684Y-9748750D02*
X16779684Y-9698750D01*
X16729684Y-9648750D01*
X16679684Y-9698750D01*
X16729684Y-9748750D01*
X16729684Y-10256750D02*
X16779684Y-10206750D01*
X16729684Y-10156750D01*
X16679684Y-10206750D01*
X16729684Y-10256750D01*
X16729684Y-10510750D02*
X16779684Y-10460750D01*
X16729684Y-10410750D01*
X16679684Y-10460750D01*
X16729684Y-10510750D01*
X16729684Y-10891750D02*
X16779684Y-10841750D01*
X16729684Y-10791750D01*
X16679684Y-10841750D01*
X16729684Y-10891750D01*
X16983684Y-8351750D02*
X17033684Y-8301750D01*
X16983684Y-8251750D01*
X16933684Y-8301750D01*
X16983684Y-8351750D01*
X16983684Y-8732750D02*
X17033684Y-8682750D01*
X16983684Y-8632750D01*
X16933684Y-8682750D01*
X16983684Y-8732750D01*
X16983684Y-8986750D02*
X17033684Y-8936750D01*
X16983684Y-8886750D01*
X16933684Y-8936750D01*
X16983684Y-8986750D01*
X16983684Y-9494750D02*
X17033684Y-9444750D01*
X16983684Y-9394750D01*
X16933684Y-9444750D01*
X16983684Y-9494750D01*
X16983684Y-9748750D02*
X17033684Y-9698750D01*
X16983684Y-9648750D01*
X16933684Y-9698750D01*
X16983684Y-9748750D01*
X16983684Y-10256750D02*
X17033684Y-10206750D01*
X16983684Y-10156750D01*
X16933684Y-10206750D01*
X16983684Y-10256750D01*
X16983684Y-10510750D02*
X17033684Y-10460750D01*
X16983684Y-10410750D01*
X16933684Y-10460750D01*
X16983684Y-10510750D01*
X16983684Y-10891750D02*
X17033684Y-10841750D01*
X16983684Y-10791750D01*
X16933684Y-10841750D01*
X16983684Y-10891750D01*
D11*
X12463961Y-11335734D02*
X12463961Y-11135734D01*
X12463961Y-11135734D02*
X12511580Y-11135734D01*
X12511580Y-11135734D02*
X12540151Y-11145258D01*
X12540151Y-11145258D02*
X12559199Y-11164305D01*
X12559199Y-11164305D02*
X12568723Y-11183353D01*
X12568723Y-11183353D02*
X12578246Y-11221448D01*
X12578246Y-11221448D02*
X12578246Y-11250019D01*
X12578246Y-11250019D02*
X12568723Y-11288115D01*
X12568723Y-11288115D02*
X12559199Y-11307162D01*
X12559199Y-11307162D02*
X12540151Y-11326210D01*
X12540151Y-11326210D02*
X12511580Y-11335734D01*
X12511580Y-11335734D02*
X12463961Y-11335734D01*
X12663961Y-11335734D02*
X12663961Y-11202400D01*
X12663961Y-11240496D02*
X12673484Y-11221448D01*
X12673484Y-11221448D02*
X12683008Y-11211924D01*
X12683008Y-11211924D02*
X12702056Y-11202400D01*
X12702056Y-11202400D02*
X12721104Y-11202400D01*
X12787770Y-11335734D02*
X12787770Y-11202400D01*
X12787770Y-11135734D02*
X12778246Y-11145258D01*
X12778246Y-11145258D02*
X12787770Y-11154781D01*
X12787770Y-11154781D02*
X12797294Y-11145258D01*
X12797294Y-11145258D02*
X12787770Y-11135734D01*
X12787770Y-11135734D02*
X12787770Y-11154781D01*
X12911580Y-11335734D02*
X12892532Y-11326210D01*
X12892532Y-11326210D02*
X12883008Y-11307162D01*
X12883008Y-11307162D02*
X12883008Y-11135734D01*
X13016342Y-11335734D02*
X12997294Y-11326210D01*
X12997294Y-11326210D02*
X12987770Y-11307162D01*
X12987770Y-11307162D02*
X12987770Y-11135734D01*
X13244913Y-11335734D02*
X13244913Y-11135734D01*
X13244913Y-11135734D02*
X13311580Y-11278591D01*
X13311580Y-11278591D02*
X13378246Y-11135734D01*
X13378246Y-11135734D02*
X13378246Y-11335734D01*
X13559199Y-11335734D02*
X13559199Y-11230972D01*
X13559199Y-11230972D02*
X13549675Y-11211924D01*
X13549675Y-11211924D02*
X13530627Y-11202400D01*
X13530627Y-11202400D02*
X13492532Y-11202400D01*
X13492532Y-11202400D02*
X13473484Y-11211924D01*
X13559199Y-11326210D02*
X13540151Y-11335734D01*
X13540151Y-11335734D02*
X13492532Y-11335734D01*
X13492532Y-11335734D02*
X13473484Y-11326210D01*
X13473484Y-11326210D02*
X13463961Y-11307162D01*
X13463961Y-11307162D02*
X13463961Y-11288115D01*
X13463961Y-11288115D02*
X13473484Y-11269067D01*
X13473484Y-11269067D02*
X13492532Y-11259543D01*
X13492532Y-11259543D02*
X13540151Y-11259543D01*
X13540151Y-11259543D02*
X13559199Y-11250019D01*
X13654437Y-11202400D02*
X13654437Y-11402400D01*
X13654437Y-11211924D02*
X13673484Y-11202400D01*
X13673484Y-11202400D02*
X13711580Y-11202400D01*
X13711580Y-11202400D02*
X13730627Y-11211924D01*
X13730627Y-11211924D02*
X13740151Y-11221448D01*
X13740151Y-11221448D02*
X13749675Y-11240496D01*
X13749675Y-11240496D02*
X13749675Y-11297638D01*
X13749675Y-11297638D02*
X13740151Y-11316686D01*
X13740151Y-11316686D02*
X13730627Y-11326210D01*
X13730627Y-11326210D02*
X13711580Y-11335734D01*
X13711580Y-11335734D02*
X13673484Y-11335734D01*
X13673484Y-11335734D02*
X13654437Y-11326210D01*
X13835389Y-11316686D02*
X13844913Y-11326210D01*
X13844913Y-11326210D02*
X13835389Y-11335734D01*
X13835389Y-11335734D02*
X13825865Y-11326210D01*
X13825865Y-11326210D02*
X13835389Y-11316686D01*
X13835389Y-11316686D02*
X13835389Y-11335734D01*
X13835389Y-11211924D02*
X13844913Y-11221448D01*
X13844913Y-11221448D02*
X13835389Y-11230972D01*
X13835389Y-11230972D02*
X13825865Y-11221448D01*
X13825865Y-11221448D02*
X13835389Y-11211924D01*
X13835389Y-11211924D02*
X13835389Y-11230972D01*
D12*
X12183184Y-11654250D02*
X12203184Y-11674250D01*
X12203184Y-11654250D02*
X12183184Y-11674250D01*
D11*
X12502056Y-11555734D02*
X12521104Y-11555734D01*
X12521104Y-11555734D02*
X12540151Y-11565257D01*
X12540151Y-11565257D02*
X12549675Y-11574781D01*
X12549675Y-11574781D02*
X12559199Y-11593829D01*
X12559199Y-11593829D02*
X12568723Y-11631924D01*
X12568723Y-11631924D02*
X12568723Y-11679543D01*
X12568723Y-11679543D02*
X12559199Y-11717638D01*
X12559199Y-11717638D02*
X12549675Y-11736686D01*
X12549675Y-11736686D02*
X12540151Y-11746210D01*
X12540151Y-11746210D02*
X12521104Y-11755734D01*
X12521104Y-11755734D02*
X12502056Y-11755734D01*
X12502056Y-11755734D02*
X12483008Y-11746210D01*
X12483008Y-11746210D02*
X12473484Y-11736686D01*
X12473484Y-11736686D02*
X12463961Y-11717638D01*
X12463961Y-11717638D02*
X12454437Y-11679543D01*
X12454437Y-11679543D02*
X12454437Y-11631924D01*
X12454437Y-11631924D02*
X12463961Y-11593829D01*
X12463961Y-11593829D02*
X12473484Y-11574781D01*
X12473484Y-11574781D02*
X12483008Y-11565257D01*
X12483008Y-11565257D02*
X12502056Y-11555734D01*
X12654437Y-11736686D02*
X12663961Y-11746210D01*
X12663961Y-11746210D02*
X12654437Y-11755734D01*
X12654437Y-11755734D02*
X12644913Y-11746210D01*
X12644913Y-11746210D02*
X12654437Y-11736686D01*
X12654437Y-11736686D02*
X12654437Y-11755734D01*
X12740151Y-11574781D02*
X12749675Y-11565257D01*
X12749675Y-11565257D02*
X12768723Y-11555734D01*
X12768723Y-11555734D02*
X12816342Y-11555734D01*
X12816342Y-11555734D02*
X12835389Y-11565257D01*
X12835389Y-11565257D02*
X12844913Y-11574781D01*
X12844913Y-11574781D02*
X12854437Y-11593829D01*
X12854437Y-11593829D02*
X12854437Y-11612876D01*
X12854437Y-11612876D02*
X12844913Y-11641448D01*
X12844913Y-11641448D02*
X12730627Y-11755734D01*
X12730627Y-11755734D02*
X12854437Y-11755734D01*
X12978246Y-11555734D02*
X12997294Y-11555734D01*
X12997294Y-11555734D02*
X13016342Y-11565257D01*
X13016342Y-11565257D02*
X13025865Y-11574781D01*
X13025865Y-11574781D02*
X13035389Y-11593829D01*
X13035389Y-11593829D02*
X13044913Y-11631924D01*
X13044913Y-11631924D02*
X13044913Y-11679543D01*
X13044913Y-11679543D02*
X13035389Y-11717638D01*
X13035389Y-11717638D02*
X13025865Y-11736686D01*
X13025865Y-11736686D02*
X13016342Y-11746210D01*
X13016342Y-11746210D02*
X12997294Y-11755734D01*
X12997294Y-11755734D02*
X12978246Y-11755734D01*
X12978246Y-11755734D02*
X12959199Y-11746210D01*
X12959199Y-11746210D02*
X12949675Y-11736686D01*
X12949675Y-11736686D02*
X12940151Y-11717638D01*
X12940151Y-11717638D02*
X12930627Y-11679543D01*
X12930627Y-11679543D02*
X12930627Y-11631924D01*
X12930627Y-11631924D02*
X12940151Y-11593829D01*
X12940151Y-11593829D02*
X12949675Y-11574781D01*
X12949675Y-11574781D02*
X12959199Y-11565257D01*
X12959199Y-11565257D02*
X12978246Y-11555734D01*
X13168723Y-11555734D02*
X13187770Y-11555734D01*
X13187770Y-11555734D02*
X13206818Y-11565257D01*
X13206818Y-11565257D02*
X13216342Y-11574781D01*
X13216342Y-11574781D02*
X13225865Y-11593829D01*
X13225865Y-11593829D02*
X13235389Y-11631924D01*
X13235389Y-11631924D02*
X13235389Y-11679543D01*
X13235389Y-11679543D02*
X13225865Y-11717638D01*
X13225865Y-11717638D02*
X13216342Y-11736686D01*
X13216342Y-11736686D02*
X13206818Y-11746210D01*
X13206818Y-11746210D02*
X13187770Y-11755734D01*
X13187770Y-11755734D02*
X13168723Y-11755734D01*
X13168723Y-11755734D02*
X13149675Y-11746210D01*
X13149675Y-11746210D02*
X13140151Y-11736686D01*
X13140151Y-11736686D02*
X13130627Y-11717638D01*
X13130627Y-11717638D02*
X13121104Y-11679543D01*
X13121104Y-11679543D02*
X13121104Y-11631924D01*
X13121104Y-11631924D02*
X13130627Y-11593829D01*
X13130627Y-11593829D02*
X13140151Y-11574781D01*
X13140151Y-11574781D02*
X13149675Y-11565257D01*
X13149675Y-11565257D02*
X13168723Y-11555734D01*
X13321104Y-11755734D02*
X13321104Y-11622400D01*
X13321104Y-11641448D02*
X13330627Y-11631924D01*
X13330627Y-11631924D02*
X13349675Y-11622400D01*
X13349675Y-11622400D02*
X13378246Y-11622400D01*
X13378246Y-11622400D02*
X13397294Y-11631924D01*
X13397294Y-11631924D02*
X13406818Y-11650972D01*
X13406818Y-11650972D02*
X13406818Y-11755734D01*
X13406818Y-11650972D02*
X13416342Y-11631924D01*
X13416342Y-11631924D02*
X13435389Y-11622400D01*
X13435389Y-11622400D02*
X13463961Y-11622400D01*
X13463961Y-11622400D02*
X13483008Y-11631924D01*
X13483008Y-11631924D02*
X13492532Y-11650972D01*
X13492532Y-11650972D02*
X13492532Y-11755734D01*
X13587770Y-11755734D02*
X13587770Y-11622400D01*
X13587770Y-11641448D02*
X13597294Y-11631924D01*
X13597294Y-11631924D02*
X13616342Y-11622400D01*
X13616342Y-11622400D02*
X13644913Y-11622400D01*
X13644913Y-11622400D02*
X13663961Y-11631924D01*
X13663961Y-11631924D02*
X13673485Y-11650972D01*
X13673485Y-11650972D02*
X13673485Y-11755734D01*
X13673485Y-11650972D02*
X13683008Y-11631924D01*
X13683008Y-11631924D02*
X13702056Y-11622400D01*
X13702056Y-11622400D02*
X13730627Y-11622400D01*
X13730627Y-11622400D02*
X13749675Y-11631924D01*
X13749675Y-11631924D02*
X13759199Y-11650972D01*
X13759199Y-11650972D02*
X13759199Y-11755734D01*
X14149675Y-11546210D02*
X13978247Y-11803353D01*
X14406818Y-11555734D02*
X14425866Y-11555734D01*
X14425866Y-11555734D02*
X14444913Y-11565257D01*
X14444913Y-11565257D02*
X14454437Y-11574781D01*
X14454437Y-11574781D02*
X14463961Y-11593829D01*
X14463961Y-11593829D02*
X14473485Y-11631924D01*
X14473485Y-11631924D02*
X14473485Y-11679543D01*
X14473485Y-11679543D02*
X14463961Y-11717638D01*
X14463961Y-11717638D02*
X14454437Y-11736686D01*
X14454437Y-11736686D02*
X14444913Y-11746210D01*
X14444913Y-11746210D02*
X14425866Y-11755734D01*
X14425866Y-11755734D02*
X14406818Y-11755734D01*
X14406818Y-11755734D02*
X14387770Y-11746210D01*
X14387770Y-11746210D02*
X14378247Y-11736686D01*
X14378247Y-11736686D02*
X14368723Y-11717638D01*
X14368723Y-11717638D02*
X14359199Y-11679543D01*
X14359199Y-11679543D02*
X14359199Y-11631924D01*
X14359199Y-11631924D02*
X14368723Y-11593829D01*
X14368723Y-11593829D02*
X14378247Y-11574781D01*
X14378247Y-11574781D02*
X14387770Y-11565257D01*
X14387770Y-11565257D02*
X14406818Y-11555734D01*
X14559199Y-11736686D02*
X14568723Y-11746210D01*
X14568723Y-11746210D02*
X14559199Y-11755734D01*
X14559199Y-11755734D02*
X14549675Y-11746210D01*
X14549675Y-11746210D02*
X14559199Y-11736686D01*
X14559199Y-11736686D02*
X14559199Y-11755734D01*
X14692532Y-11555734D02*
X14711580Y-11555734D01*
X14711580Y-11555734D02*
X14730628Y-11565257D01*
X14730628Y-11565257D02*
X14740151Y-11574781D01*
X14740151Y-11574781D02*
X14749675Y-11593829D01*
X14749675Y-11593829D02*
X14759199Y-11631924D01*
X14759199Y-11631924D02*
X14759199Y-11679543D01*
X14759199Y-11679543D02*
X14749675Y-11717638D01*
X14749675Y-11717638D02*
X14740151Y-11736686D01*
X14740151Y-11736686D02*
X14730628Y-11746210D01*
X14730628Y-11746210D02*
X14711580Y-11755734D01*
X14711580Y-11755734D02*
X14692532Y-11755734D01*
X14692532Y-11755734D02*
X14673485Y-11746210D01*
X14673485Y-11746210D02*
X14663961Y-11736686D01*
X14663961Y-11736686D02*
X14654437Y-11717638D01*
X14654437Y-11717638D02*
X14644913Y-11679543D01*
X14644913Y-11679543D02*
X14644913Y-11631924D01*
X14644913Y-11631924D02*
X14654437Y-11593829D01*
X14654437Y-11593829D02*
X14663961Y-11574781D01*
X14663961Y-11574781D02*
X14673485Y-11565257D01*
X14673485Y-11565257D02*
X14692532Y-11555734D01*
X14883008Y-11555734D02*
X14902056Y-11555734D01*
X14902056Y-11555734D02*
X14921104Y-11565257D01*
X14921104Y-11565257D02*
X14930628Y-11574781D01*
X14930628Y-11574781D02*
X14940151Y-11593829D01*
X14940151Y-11593829D02*
X14949675Y-11631924D01*
X14949675Y-11631924D02*
X14949675Y-11679543D01*
X14949675Y-11679543D02*
X14940151Y-11717638D01*
X14940151Y-11717638D02*
X14930628Y-11736686D01*
X14930628Y-11736686D02*
X14921104Y-11746210D01*
X14921104Y-11746210D02*
X14902056Y-11755734D01*
X14902056Y-11755734D02*
X14883008Y-11755734D01*
X14883008Y-11755734D02*
X14863961Y-11746210D01*
X14863961Y-11746210D02*
X14854437Y-11736686D01*
X14854437Y-11736686D02*
X14844913Y-11717638D01*
X14844913Y-11717638D02*
X14835389Y-11679543D01*
X14835389Y-11679543D02*
X14835389Y-11631924D01*
X14835389Y-11631924D02*
X14844913Y-11593829D01*
X14844913Y-11593829D02*
X14854437Y-11574781D01*
X14854437Y-11574781D02*
X14863961Y-11565257D01*
X14863961Y-11565257D02*
X14883008Y-11555734D01*
X15016342Y-11555734D02*
X15149675Y-11555734D01*
X15149675Y-11555734D02*
X15063961Y-11755734D01*
X15235389Y-11755734D02*
X15273485Y-11755734D01*
X15273485Y-11755734D02*
X15292532Y-11746210D01*
X15292532Y-11746210D02*
X15302056Y-11736686D01*
X15302056Y-11736686D02*
X15321104Y-11708115D01*
X15321104Y-11708115D02*
X15330628Y-11670019D01*
X15330628Y-11670019D02*
X15330628Y-11593829D01*
X15330628Y-11593829D02*
X15321104Y-11574781D01*
X15321104Y-11574781D02*
X15311580Y-11565257D01*
X15311580Y-11565257D02*
X15292532Y-11555734D01*
X15292532Y-11555734D02*
X15254437Y-11555734D01*
X15254437Y-11555734D02*
X15235389Y-11565257D01*
X15235389Y-11565257D02*
X15225866Y-11574781D01*
X15225866Y-11574781D02*
X15216342Y-11593829D01*
X15216342Y-11593829D02*
X15216342Y-11641448D01*
X15216342Y-11641448D02*
X15225866Y-11660496D01*
X15225866Y-11660496D02*
X15235389Y-11670019D01*
X15235389Y-11670019D02*
X15254437Y-11679543D01*
X15254437Y-11679543D02*
X15292532Y-11679543D01*
X15292532Y-11679543D02*
X15311580Y-11670019D01*
X15311580Y-11670019D02*
X15321104Y-11660496D01*
X15321104Y-11660496D02*
X15330628Y-11641448D01*
X15406818Y-11555734D02*
X15406818Y-11593829D01*
X15483009Y-11555734D02*
X15483009Y-11593829D01*
X15778247Y-11831924D02*
X15768723Y-11822400D01*
X15768723Y-11822400D02*
X15749675Y-11793829D01*
X15749675Y-11793829D02*
X15740151Y-11774781D01*
X15740151Y-11774781D02*
X15730628Y-11746210D01*
X15730628Y-11746210D02*
X15721104Y-11698591D01*
X15721104Y-11698591D02*
X15721104Y-11660496D01*
X15721104Y-11660496D02*
X15730628Y-11612876D01*
X15730628Y-11612876D02*
X15740151Y-11584305D01*
X15740151Y-11584305D02*
X15749675Y-11565257D01*
X15749675Y-11565257D02*
X15768723Y-11536686D01*
X15768723Y-11536686D02*
X15778247Y-11527162D01*
X15844913Y-11574781D02*
X15854437Y-11565257D01*
X15854437Y-11565257D02*
X15873485Y-11555734D01*
X15873485Y-11555734D02*
X15921104Y-11555734D01*
X15921104Y-11555734D02*
X15940151Y-11565257D01*
X15940151Y-11565257D02*
X15949675Y-11574781D01*
X15949675Y-11574781D02*
X15959199Y-11593829D01*
X15959199Y-11593829D02*
X15959199Y-11612876D01*
X15959199Y-11612876D02*
X15949675Y-11641448D01*
X15949675Y-11641448D02*
X15835390Y-11755734D01*
X15835390Y-11755734D02*
X15959199Y-11755734D01*
X16025866Y-11555734D02*
X16149675Y-11555734D01*
X16149675Y-11555734D02*
X16083009Y-11631924D01*
X16083009Y-11631924D02*
X16111580Y-11631924D01*
X16111580Y-11631924D02*
X16130628Y-11641448D01*
X16130628Y-11641448D02*
X16140151Y-11650972D01*
X16140151Y-11650972D02*
X16149675Y-11670019D01*
X16149675Y-11670019D02*
X16149675Y-11717638D01*
X16149675Y-11717638D02*
X16140151Y-11736686D01*
X16140151Y-11736686D02*
X16130628Y-11746210D01*
X16130628Y-11746210D02*
X16111580Y-11755734D01*
X16111580Y-11755734D02*
X16054437Y-11755734D01*
X16054437Y-11755734D02*
X16035390Y-11746210D01*
X16035390Y-11746210D02*
X16025866Y-11736686D01*
X16330628Y-11555734D02*
X16235390Y-11555734D01*
X16235390Y-11555734D02*
X16225866Y-11650972D01*
X16225866Y-11650972D02*
X16235390Y-11641448D01*
X16235390Y-11641448D02*
X16254437Y-11631924D01*
X16254437Y-11631924D02*
X16302056Y-11631924D01*
X16302056Y-11631924D02*
X16321104Y-11641448D01*
X16321104Y-11641448D02*
X16330628Y-11650972D01*
X16330628Y-11650972D02*
X16340151Y-11670019D01*
X16340151Y-11670019D02*
X16340151Y-11717638D01*
X16340151Y-11717638D02*
X16330628Y-11736686D01*
X16330628Y-11736686D02*
X16321104Y-11746210D01*
X16321104Y-11746210D02*
X16302056Y-11755734D01*
X16302056Y-11755734D02*
X16254437Y-11755734D01*
X16254437Y-11755734D02*
X16235390Y-11746210D01*
X16235390Y-11746210D02*
X16225866Y-11736686D01*
X16578247Y-11755734D02*
X16578247Y-11555734D01*
X16663961Y-11755734D02*
X16663961Y-11650972D01*
X16663961Y-11650972D02*
X16654437Y-11631924D01*
X16654437Y-11631924D02*
X16635390Y-11622400D01*
X16635390Y-11622400D02*
X16606818Y-11622400D01*
X16606818Y-11622400D02*
X16587771Y-11631924D01*
X16587771Y-11631924D02*
X16578247Y-11641448D01*
X16787771Y-11755734D02*
X16768723Y-11746210D01*
X16768723Y-11746210D02*
X16759199Y-11736686D01*
X16759199Y-11736686D02*
X16749675Y-11717638D01*
X16749675Y-11717638D02*
X16749675Y-11660496D01*
X16749675Y-11660496D02*
X16759199Y-11641448D01*
X16759199Y-11641448D02*
X16768723Y-11631924D01*
X16768723Y-11631924D02*
X16787771Y-11622400D01*
X16787771Y-11622400D02*
X16816342Y-11622400D01*
X16816342Y-11622400D02*
X16835390Y-11631924D01*
X16835390Y-11631924D02*
X16844914Y-11641448D01*
X16844914Y-11641448D02*
X16854437Y-11660496D01*
X16854437Y-11660496D02*
X16854437Y-11717638D01*
X16854437Y-11717638D02*
X16844914Y-11736686D01*
X16844914Y-11736686D02*
X16835390Y-11746210D01*
X16835390Y-11746210D02*
X16816342Y-11755734D01*
X16816342Y-11755734D02*
X16787771Y-11755734D01*
X16968723Y-11755734D02*
X16949675Y-11746210D01*
X16949675Y-11746210D02*
X16940152Y-11727162D01*
X16940152Y-11727162D02*
X16940152Y-11555734D01*
X17121104Y-11746210D02*
X17102056Y-11755734D01*
X17102056Y-11755734D02*
X17063961Y-11755734D01*
X17063961Y-11755734D02*
X17044914Y-11746210D01*
X17044914Y-11746210D02*
X17035390Y-11727162D01*
X17035390Y-11727162D02*
X17035390Y-11650972D01*
X17035390Y-11650972D02*
X17044914Y-11631924D01*
X17044914Y-11631924D02*
X17063961Y-11622400D01*
X17063961Y-11622400D02*
X17102056Y-11622400D01*
X17102056Y-11622400D02*
X17121104Y-11631924D01*
X17121104Y-11631924D02*
X17130628Y-11650972D01*
X17130628Y-11650972D02*
X17130628Y-11670019D01*
X17130628Y-11670019D02*
X17035390Y-11689067D01*
X17206818Y-11746210D02*
X17225866Y-11755734D01*
X17225866Y-11755734D02*
X17263961Y-11755734D01*
X17263961Y-11755734D02*
X17283009Y-11746210D01*
X17283009Y-11746210D02*
X17292533Y-11727162D01*
X17292533Y-11727162D02*
X17292533Y-11717638D01*
X17292533Y-11717638D02*
X17283009Y-11698591D01*
X17283009Y-11698591D02*
X17263961Y-11689067D01*
X17263961Y-11689067D02*
X17235390Y-11689067D01*
X17235390Y-11689067D02*
X17216342Y-11679543D01*
X17216342Y-11679543D02*
X17206818Y-11660496D01*
X17206818Y-11660496D02*
X17206818Y-11650972D01*
X17206818Y-11650972D02*
X17216342Y-11631924D01*
X17216342Y-11631924D02*
X17235390Y-11622400D01*
X17235390Y-11622400D02*
X17263961Y-11622400D01*
X17263961Y-11622400D02*
X17283009Y-11631924D01*
X17359199Y-11831924D02*
X17368723Y-11822400D01*
X17368723Y-11822400D02*
X17387771Y-11793829D01*
X17387771Y-11793829D02*
X17397295Y-11774781D01*
X17397295Y-11774781D02*
X17406818Y-11746210D01*
X17406818Y-11746210D02*
X17416342Y-11698591D01*
X17416342Y-11698591D02*
X17416342Y-11660496D01*
X17416342Y-11660496D02*
X17406818Y-11612876D01*
X17406818Y-11612876D02*
X17397295Y-11584305D01*
X17397295Y-11584305D02*
X17387771Y-11565257D01*
X17387771Y-11565257D02*
X17368723Y-11536686D01*
X17368723Y-11536686D02*
X17359199Y-11527162D01*
D12*
X12203184Y-11928250D02*
G75*
G02*
X12173184Y-11928250I-15000J0D01*
G01*
X12173184Y-11928250D02*
G75*
G02*
X12203184Y-11928250I15000J0D01*
G01*
D11*
X12502056Y-11819734D02*
X12521104Y-11819734D01*
X12521104Y-11819734D02*
X12540151Y-11829257D01*
X12540151Y-11829257D02*
X12549675Y-11838781D01*
X12549675Y-11838781D02*
X12559199Y-11857829D01*
X12559199Y-11857829D02*
X12568723Y-11895924D01*
X12568723Y-11895924D02*
X12568723Y-11943543D01*
X12568723Y-11943543D02*
X12559199Y-11981638D01*
X12559199Y-11981638D02*
X12549675Y-12000686D01*
X12549675Y-12000686D02*
X12540151Y-12010210D01*
X12540151Y-12010210D02*
X12521104Y-12019734D01*
X12521104Y-12019734D02*
X12502056Y-12019734D01*
X12502056Y-12019734D02*
X12483008Y-12010210D01*
X12483008Y-12010210D02*
X12473484Y-12000686D01*
X12473484Y-12000686D02*
X12463961Y-11981638D01*
X12463961Y-11981638D02*
X12454437Y-11943543D01*
X12454437Y-11943543D02*
X12454437Y-11895924D01*
X12454437Y-11895924D02*
X12463961Y-11857829D01*
X12463961Y-11857829D02*
X12473484Y-11838781D01*
X12473484Y-11838781D02*
X12483008Y-11829257D01*
X12483008Y-11829257D02*
X12502056Y-11819734D01*
X12654437Y-12000686D02*
X12663961Y-12010210D01*
X12663961Y-12010210D02*
X12654437Y-12019734D01*
X12654437Y-12019734D02*
X12644913Y-12010210D01*
X12644913Y-12010210D02*
X12654437Y-12000686D01*
X12654437Y-12000686D02*
X12654437Y-12019734D01*
X12730627Y-11819734D02*
X12854437Y-11819734D01*
X12854437Y-11819734D02*
X12787770Y-11895924D01*
X12787770Y-11895924D02*
X12816342Y-11895924D01*
X12816342Y-11895924D02*
X12835389Y-11905448D01*
X12835389Y-11905448D02*
X12844913Y-11914972D01*
X12844913Y-11914972D02*
X12854437Y-11934019D01*
X12854437Y-11934019D02*
X12854437Y-11981638D01*
X12854437Y-11981638D02*
X12844913Y-12000686D01*
X12844913Y-12000686D02*
X12835389Y-12010210D01*
X12835389Y-12010210D02*
X12816342Y-12019734D01*
X12816342Y-12019734D02*
X12759199Y-12019734D01*
X12759199Y-12019734D02*
X12740151Y-12010210D01*
X12740151Y-12010210D02*
X12730627Y-12000686D01*
X12978246Y-11819734D02*
X12997294Y-11819734D01*
X12997294Y-11819734D02*
X13016342Y-11829257D01*
X13016342Y-11829257D02*
X13025865Y-11838781D01*
X13025865Y-11838781D02*
X13035389Y-11857829D01*
X13035389Y-11857829D02*
X13044913Y-11895924D01*
X13044913Y-11895924D02*
X13044913Y-11943543D01*
X13044913Y-11943543D02*
X13035389Y-11981638D01*
X13035389Y-11981638D02*
X13025865Y-12000686D01*
X13025865Y-12000686D02*
X13016342Y-12010210D01*
X13016342Y-12010210D02*
X12997294Y-12019734D01*
X12997294Y-12019734D02*
X12978246Y-12019734D01*
X12978246Y-12019734D02*
X12959199Y-12010210D01*
X12959199Y-12010210D02*
X12949675Y-12000686D01*
X12949675Y-12000686D02*
X12940151Y-11981638D01*
X12940151Y-11981638D02*
X12930627Y-11943543D01*
X12930627Y-11943543D02*
X12930627Y-11895924D01*
X12930627Y-11895924D02*
X12940151Y-11857829D01*
X12940151Y-11857829D02*
X12949675Y-11838781D01*
X12949675Y-11838781D02*
X12959199Y-11829257D01*
X12959199Y-11829257D02*
X12978246Y-11819734D01*
X13168723Y-11819734D02*
X13187770Y-11819734D01*
X13187770Y-11819734D02*
X13206818Y-11829257D01*
X13206818Y-11829257D02*
X13216342Y-11838781D01*
X13216342Y-11838781D02*
X13225865Y-11857829D01*
X13225865Y-11857829D02*
X13235389Y-11895924D01*
X13235389Y-11895924D02*
X13235389Y-11943543D01*
X13235389Y-11943543D02*
X13225865Y-11981638D01*
X13225865Y-11981638D02*
X13216342Y-12000686D01*
X13216342Y-12000686D02*
X13206818Y-12010210D01*
X13206818Y-12010210D02*
X13187770Y-12019734D01*
X13187770Y-12019734D02*
X13168723Y-12019734D01*
X13168723Y-12019734D02*
X13149675Y-12010210D01*
X13149675Y-12010210D02*
X13140151Y-12000686D01*
X13140151Y-12000686D02*
X13130627Y-11981638D01*
X13130627Y-11981638D02*
X13121104Y-11943543D01*
X13121104Y-11943543D02*
X13121104Y-11895924D01*
X13121104Y-11895924D02*
X13130627Y-11857829D01*
X13130627Y-11857829D02*
X13140151Y-11838781D01*
X13140151Y-11838781D02*
X13149675Y-11829257D01*
X13149675Y-11829257D02*
X13168723Y-11819734D01*
X13321104Y-12019734D02*
X13321104Y-11886400D01*
X13321104Y-11905448D02*
X13330627Y-11895924D01*
X13330627Y-11895924D02*
X13349675Y-11886400D01*
X13349675Y-11886400D02*
X13378246Y-11886400D01*
X13378246Y-11886400D02*
X13397294Y-11895924D01*
X13397294Y-11895924D02*
X13406818Y-11914972D01*
X13406818Y-11914972D02*
X13406818Y-12019734D01*
X13406818Y-11914972D02*
X13416342Y-11895924D01*
X13416342Y-11895924D02*
X13435389Y-11886400D01*
X13435389Y-11886400D02*
X13463961Y-11886400D01*
X13463961Y-11886400D02*
X13483008Y-11895924D01*
X13483008Y-11895924D02*
X13492532Y-11914972D01*
X13492532Y-11914972D02*
X13492532Y-12019734D01*
X13587770Y-12019734D02*
X13587770Y-11886400D01*
X13587770Y-11905448D02*
X13597294Y-11895924D01*
X13597294Y-11895924D02*
X13616342Y-11886400D01*
X13616342Y-11886400D02*
X13644913Y-11886400D01*
X13644913Y-11886400D02*
X13663961Y-11895924D01*
X13663961Y-11895924D02*
X13673485Y-11914972D01*
X13673485Y-11914972D02*
X13673485Y-12019734D01*
X13673485Y-11914972D02*
X13683008Y-11895924D01*
X13683008Y-11895924D02*
X13702056Y-11886400D01*
X13702056Y-11886400D02*
X13730627Y-11886400D01*
X13730627Y-11886400D02*
X13749675Y-11895924D01*
X13749675Y-11895924D02*
X13759199Y-11914972D01*
X13759199Y-11914972D02*
X13759199Y-12019734D01*
X14149675Y-11810210D02*
X13978247Y-12067353D01*
X14406818Y-11819734D02*
X14425866Y-11819734D01*
X14425866Y-11819734D02*
X14444913Y-11829257D01*
X14444913Y-11829257D02*
X14454437Y-11838781D01*
X14454437Y-11838781D02*
X14463961Y-11857829D01*
X14463961Y-11857829D02*
X14473485Y-11895924D01*
X14473485Y-11895924D02*
X14473485Y-11943543D01*
X14473485Y-11943543D02*
X14463961Y-11981638D01*
X14463961Y-11981638D02*
X14454437Y-12000686D01*
X14454437Y-12000686D02*
X14444913Y-12010210D01*
X14444913Y-12010210D02*
X14425866Y-12019734D01*
X14425866Y-12019734D02*
X14406818Y-12019734D01*
X14406818Y-12019734D02*
X14387770Y-12010210D01*
X14387770Y-12010210D02*
X14378247Y-12000686D01*
X14378247Y-12000686D02*
X14368723Y-11981638D01*
X14368723Y-11981638D02*
X14359199Y-11943543D01*
X14359199Y-11943543D02*
X14359199Y-11895924D01*
X14359199Y-11895924D02*
X14368723Y-11857829D01*
X14368723Y-11857829D02*
X14378247Y-11838781D01*
X14378247Y-11838781D02*
X14387770Y-11829257D01*
X14387770Y-11829257D02*
X14406818Y-11819734D01*
X14559199Y-12000686D02*
X14568723Y-12010210D01*
X14568723Y-12010210D02*
X14559199Y-12019734D01*
X14559199Y-12019734D02*
X14549675Y-12010210D01*
X14549675Y-12010210D02*
X14559199Y-12000686D01*
X14559199Y-12000686D02*
X14559199Y-12019734D01*
X14692532Y-11819734D02*
X14711580Y-11819734D01*
X14711580Y-11819734D02*
X14730628Y-11829257D01*
X14730628Y-11829257D02*
X14740151Y-11838781D01*
X14740151Y-11838781D02*
X14749675Y-11857829D01*
X14749675Y-11857829D02*
X14759199Y-11895924D01*
X14759199Y-11895924D02*
X14759199Y-11943543D01*
X14759199Y-11943543D02*
X14749675Y-11981638D01*
X14749675Y-11981638D02*
X14740151Y-12000686D01*
X14740151Y-12000686D02*
X14730628Y-12010210D01*
X14730628Y-12010210D02*
X14711580Y-12019734D01*
X14711580Y-12019734D02*
X14692532Y-12019734D01*
X14692532Y-12019734D02*
X14673485Y-12010210D01*
X14673485Y-12010210D02*
X14663961Y-12000686D01*
X14663961Y-12000686D02*
X14654437Y-11981638D01*
X14654437Y-11981638D02*
X14644913Y-11943543D01*
X14644913Y-11943543D02*
X14644913Y-11895924D01*
X14644913Y-11895924D02*
X14654437Y-11857829D01*
X14654437Y-11857829D02*
X14663961Y-11838781D01*
X14663961Y-11838781D02*
X14673485Y-11829257D01*
X14673485Y-11829257D02*
X14692532Y-11819734D01*
X14949675Y-12019734D02*
X14835389Y-12019734D01*
X14892532Y-12019734D02*
X14892532Y-11819734D01*
X14892532Y-11819734D02*
X14873485Y-11848305D01*
X14873485Y-11848305D02*
X14854437Y-11867353D01*
X14854437Y-11867353D02*
X14835389Y-11876876D01*
X15140151Y-12019734D02*
X15025866Y-12019734D01*
X15083008Y-12019734D02*
X15083008Y-11819734D01*
X15083008Y-11819734D02*
X15063961Y-11848305D01*
X15063961Y-11848305D02*
X15044913Y-11867353D01*
X15044913Y-11867353D02*
X15025866Y-11876876D01*
X15254437Y-11905448D02*
X15235389Y-11895924D01*
X15235389Y-11895924D02*
X15225866Y-11886400D01*
X15225866Y-11886400D02*
X15216342Y-11867353D01*
X15216342Y-11867353D02*
X15216342Y-11857829D01*
X15216342Y-11857829D02*
X15225866Y-11838781D01*
X15225866Y-11838781D02*
X15235389Y-11829257D01*
X15235389Y-11829257D02*
X15254437Y-11819734D01*
X15254437Y-11819734D02*
X15292532Y-11819734D01*
X15292532Y-11819734D02*
X15311580Y-11829257D01*
X15311580Y-11829257D02*
X15321104Y-11838781D01*
X15321104Y-11838781D02*
X15330628Y-11857829D01*
X15330628Y-11857829D02*
X15330628Y-11867353D01*
X15330628Y-11867353D02*
X15321104Y-11886400D01*
X15321104Y-11886400D02*
X15311580Y-11895924D01*
X15311580Y-11895924D02*
X15292532Y-11905448D01*
X15292532Y-11905448D02*
X15254437Y-11905448D01*
X15254437Y-11905448D02*
X15235389Y-11914972D01*
X15235389Y-11914972D02*
X15225866Y-11924496D01*
X15225866Y-11924496D02*
X15216342Y-11943543D01*
X15216342Y-11943543D02*
X15216342Y-11981638D01*
X15216342Y-11981638D02*
X15225866Y-12000686D01*
X15225866Y-12000686D02*
X15235389Y-12010210D01*
X15235389Y-12010210D02*
X15254437Y-12019734D01*
X15254437Y-12019734D02*
X15292532Y-12019734D01*
X15292532Y-12019734D02*
X15311580Y-12010210D01*
X15311580Y-12010210D02*
X15321104Y-12000686D01*
X15321104Y-12000686D02*
X15330628Y-11981638D01*
X15330628Y-11981638D02*
X15330628Y-11943543D01*
X15330628Y-11943543D02*
X15321104Y-11924496D01*
X15321104Y-11924496D02*
X15311580Y-11914972D01*
X15311580Y-11914972D02*
X15292532Y-11905448D01*
X15406818Y-11819734D02*
X15406818Y-11857829D01*
X15483009Y-11819734D02*
X15483009Y-11857829D01*
X15778247Y-12095924D02*
X15768723Y-12086400D01*
X15768723Y-12086400D02*
X15749675Y-12057829D01*
X15749675Y-12057829D02*
X15740151Y-12038781D01*
X15740151Y-12038781D02*
X15730628Y-12010210D01*
X15730628Y-12010210D02*
X15721104Y-11962591D01*
X15721104Y-11962591D02*
X15721104Y-11924496D01*
X15721104Y-11924496D02*
X15730628Y-11876876D01*
X15730628Y-11876876D02*
X15740151Y-11848305D01*
X15740151Y-11848305D02*
X15749675Y-11829257D01*
X15749675Y-11829257D02*
X15768723Y-11800686D01*
X15768723Y-11800686D02*
X15778247Y-11791162D01*
X15940151Y-11886400D02*
X15940151Y-12019734D01*
X15892532Y-11810210D02*
X15844913Y-11953067D01*
X15844913Y-11953067D02*
X15968723Y-11953067D01*
X16073485Y-11905448D02*
X16054437Y-11895924D01*
X16054437Y-11895924D02*
X16044913Y-11886400D01*
X16044913Y-11886400D02*
X16035390Y-11867353D01*
X16035390Y-11867353D02*
X16035390Y-11857829D01*
X16035390Y-11857829D02*
X16044913Y-11838781D01*
X16044913Y-11838781D02*
X16054437Y-11829257D01*
X16054437Y-11829257D02*
X16073485Y-11819734D01*
X16073485Y-11819734D02*
X16111580Y-11819734D01*
X16111580Y-11819734D02*
X16130628Y-11829257D01*
X16130628Y-11829257D02*
X16140151Y-11838781D01*
X16140151Y-11838781D02*
X16149675Y-11857829D01*
X16149675Y-11857829D02*
X16149675Y-11867353D01*
X16149675Y-11867353D02*
X16140151Y-11886400D01*
X16140151Y-11886400D02*
X16130628Y-11895924D01*
X16130628Y-11895924D02*
X16111580Y-11905448D01*
X16111580Y-11905448D02*
X16073485Y-11905448D01*
X16073485Y-11905448D02*
X16054437Y-11914972D01*
X16054437Y-11914972D02*
X16044913Y-11924496D01*
X16044913Y-11924496D02*
X16035390Y-11943543D01*
X16035390Y-11943543D02*
X16035390Y-11981638D01*
X16035390Y-11981638D02*
X16044913Y-12000686D01*
X16044913Y-12000686D02*
X16054437Y-12010210D01*
X16054437Y-12010210D02*
X16073485Y-12019734D01*
X16073485Y-12019734D02*
X16111580Y-12019734D01*
X16111580Y-12019734D02*
X16130628Y-12010210D01*
X16130628Y-12010210D02*
X16140151Y-12000686D01*
X16140151Y-12000686D02*
X16149675Y-11981638D01*
X16149675Y-11981638D02*
X16149675Y-11943543D01*
X16149675Y-11943543D02*
X16140151Y-11924496D01*
X16140151Y-11924496D02*
X16130628Y-11914972D01*
X16130628Y-11914972D02*
X16111580Y-11905448D01*
X16387771Y-12019734D02*
X16387771Y-11819734D01*
X16473485Y-12019734D02*
X16473485Y-11914972D01*
X16473485Y-11914972D02*
X16463961Y-11895924D01*
X16463961Y-11895924D02*
X16444913Y-11886400D01*
X16444913Y-11886400D02*
X16416342Y-11886400D01*
X16416342Y-11886400D02*
X16397294Y-11895924D01*
X16397294Y-11895924D02*
X16387771Y-11905448D01*
X16597294Y-12019734D02*
X16578247Y-12010210D01*
X16578247Y-12010210D02*
X16568723Y-12000686D01*
X16568723Y-12000686D02*
X16559199Y-11981638D01*
X16559199Y-11981638D02*
X16559199Y-11924496D01*
X16559199Y-11924496D02*
X16568723Y-11905448D01*
X16568723Y-11905448D02*
X16578247Y-11895924D01*
X16578247Y-11895924D02*
X16597294Y-11886400D01*
X16597294Y-11886400D02*
X16625866Y-11886400D01*
X16625866Y-11886400D02*
X16644913Y-11895924D01*
X16644913Y-11895924D02*
X16654437Y-11905448D01*
X16654437Y-11905448D02*
X16663961Y-11924496D01*
X16663961Y-11924496D02*
X16663961Y-11981638D01*
X16663961Y-11981638D02*
X16654437Y-12000686D01*
X16654437Y-12000686D02*
X16644913Y-12010210D01*
X16644913Y-12010210D02*
X16625866Y-12019734D01*
X16625866Y-12019734D02*
X16597294Y-12019734D01*
X16778247Y-12019734D02*
X16759199Y-12010210D01*
X16759199Y-12010210D02*
X16749675Y-11991162D01*
X16749675Y-11991162D02*
X16749675Y-11819734D01*
X16930628Y-12010210D02*
X16911580Y-12019734D01*
X16911580Y-12019734D02*
X16873485Y-12019734D01*
X16873485Y-12019734D02*
X16854437Y-12010210D01*
X16854437Y-12010210D02*
X16844914Y-11991162D01*
X16844914Y-11991162D02*
X16844914Y-11914972D01*
X16844914Y-11914972D02*
X16854437Y-11895924D01*
X16854437Y-11895924D02*
X16873485Y-11886400D01*
X16873485Y-11886400D02*
X16911580Y-11886400D01*
X16911580Y-11886400D02*
X16930628Y-11895924D01*
X16930628Y-11895924D02*
X16940152Y-11914972D01*
X16940152Y-11914972D02*
X16940152Y-11934019D01*
X16940152Y-11934019D02*
X16844914Y-11953067D01*
X17016342Y-12010210D02*
X17035390Y-12019734D01*
X17035390Y-12019734D02*
X17073485Y-12019734D01*
X17073485Y-12019734D02*
X17092533Y-12010210D01*
X17092533Y-12010210D02*
X17102056Y-11991162D01*
X17102056Y-11991162D02*
X17102056Y-11981638D01*
X17102056Y-11981638D02*
X17092533Y-11962591D01*
X17092533Y-11962591D02*
X17073485Y-11953067D01*
X17073485Y-11953067D02*
X17044914Y-11953067D01*
X17044914Y-11953067D02*
X17025866Y-11943543D01*
X17025866Y-11943543D02*
X17016342Y-11924496D01*
X17016342Y-11924496D02*
X17016342Y-11914972D01*
X17016342Y-11914972D02*
X17025866Y-11895924D01*
X17025866Y-11895924D02*
X17044914Y-11886400D01*
X17044914Y-11886400D02*
X17073485Y-11886400D01*
X17073485Y-11886400D02*
X17092533Y-11895924D01*
X17168723Y-12095924D02*
X17178247Y-12086400D01*
X17178247Y-12086400D02*
X17197295Y-12057829D01*
X17197295Y-12057829D02*
X17206818Y-12038781D01*
X17206818Y-12038781D02*
X17216342Y-12010210D01*
X17216342Y-12010210D02*
X17225866Y-11962591D01*
X17225866Y-11962591D02*
X17225866Y-11924496D01*
X17225866Y-11924496D02*
X17216342Y-11876876D01*
X17216342Y-11876876D02*
X17206818Y-11848305D01*
X17206818Y-11848305D02*
X17197295Y-11829257D01*
X17197295Y-11829257D02*
X17178247Y-11800686D01*
X17178247Y-11800686D02*
X17168723Y-11791162D01*
D12*
X12185684Y-12174750D02*
X12185684Y-12209750D01*
X12168184Y-12192250D02*
X12203184Y-12192250D01*
D11*
X12502056Y-12083734D02*
X12521104Y-12083734D01*
X12521104Y-12083734D02*
X12540151Y-12093257D01*
X12540151Y-12093257D02*
X12549675Y-12102781D01*
X12549675Y-12102781D02*
X12559199Y-12121829D01*
X12559199Y-12121829D02*
X12568723Y-12159924D01*
X12568723Y-12159924D02*
X12568723Y-12207543D01*
X12568723Y-12207543D02*
X12559199Y-12245638D01*
X12559199Y-12245638D02*
X12549675Y-12264686D01*
X12549675Y-12264686D02*
X12540151Y-12274210D01*
X12540151Y-12274210D02*
X12521104Y-12283734D01*
X12521104Y-12283734D02*
X12502056Y-12283734D01*
X12502056Y-12283734D02*
X12483008Y-12274210D01*
X12483008Y-12274210D02*
X12473484Y-12264686D01*
X12473484Y-12264686D02*
X12463961Y-12245638D01*
X12463961Y-12245638D02*
X12454437Y-12207543D01*
X12454437Y-12207543D02*
X12454437Y-12159924D01*
X12454437Y-12159924D02*
X12463961Y-12121829D01*
X12463961Y-12121829D02*
X12473484Y-12102781D01*
X12473484Y-12102781D02*
X12483008Y-12093257D01*
X12483008Y-12093257D02*
X12502056Y-12083734D01*
X12654437Y-12264686D02*
X12663961Y-12274210D01*
X12663961Y-12274210D02*
X12654437Y-12283734D01*
X12654437Y-12283734D02*
X12644913Y-12274210D01*
X12644913Y-12274210D02*
X12654437Y-12264686D01*
X12654437Y-12264686D02*
X12654437Y-12283734D01*
X12730627Y-12083734D02*
X12854437Y-12083734D01*
X12854437Y-12083734D02*
X12787770Y-12159924D01*
X12787770Y-12159924D02*
X12816342Y-12159924D01*
X12816342Y-12159924D02*
X12835389Y-12169448D01*
X12835389Y-12169448D02*
X12844913Y-12178972D01*
X12844913Y-12178972D02*
X12854437Y-12198019D01*
X12854437Y-12198019D02*
X12854437Y-12245638D01*
X12854437Y-12245638D02*
X12844913Y-12264686D01*
X12844913Y-12264686D02*
X12835389Y-12274210D01*
X12835389Y-12274210D02*
X12816342Y-12283734D01*
X12816342Y-12283734D02*
X12759199Y-12283734D01*
X12759199Y-12283734D02*
X12740151Y-12274210D01*
X12740151Y-12274210D02*
X12730627Y-12264686D01*
X13035389Y-12083734D02*
X12940151Y-12083734D01*
X12940151Y-12083734D02*
X12930627Y-12178972D01*
X12930627Y-12178972D02*
X12940151Y-12169448D01*
X12940151Y-12169448D02*
X12959199Y-12159924D01*
X12959199Y-12159924D02*
X13006818Y-12159924D01*
X13006818Y-12159924D02*
X13025865Y-12169448D01*
X13025865Y-12169448D02*
X13035389Y-12178972D01*
X13035389Y-12178972D02*
X13044913Y-12198019D01*
X13044913Y-12198019D02*
X13044913Y-12245638D01*
X13044913Y-12245638D02*
X13035389Y-12264686D01*
X13035389Y-12264686D02*
X13025865Y-12274210D01*
X13025865Y-12274210D02*
X13006818Y-12283734D01*
X13006818Y-12283734D02*
X12959199Y-12283734D01*
X12959199Y-12283734D02*
X12940151Y-12274210D01*
X12940151Y-12274210D02*
X12930627Y-12264686D01*
X13168723Y-12083734D02*
X13187770Y-12083734D01*
X13187770Y-12083734D02*
X13206818Y-12093257D01*
X13206818Y-12093257D02*
X13216342Y-12102781D01*
X13216342Y-12102781D02*
X13225865Y-12121829D01*
X13225865Y-12121829D02*
X13235389Y-12159924D01*
X13235389Y-12159924D02*
X13235389Y-12207543D01*
X13235389Y-12207543D02*
X13225865Y-12245638D01*
X13225865Y-12245638D02*
X13216342Y-12264686D01*
X13216342Y-12264686D02*
X13206818Y-12274210D01*
X13206818Y-12274210D02*
X13187770Y-12283734D01*
X13187770Y-12283734D02*
X13168723Y-12283734D01*
X13168723Y-12283734D02*
X13149675Y-12274210D01*
X13149675Y-12274210D02*
X13140151Y-12264686D01*
X13140151Y-12264686D02*
X13130627Y-12245638D01*
X13130627Y-12245638D02*
X13121104Y-12207543D01*
X13121104Y-12207543D02*
X13121104Y-12159924D01*
X13121104Y-12159924D02*
X13130627Y-12121829D01*
X13130627Y-12121829D02*
X13140151Y-12102781D01*
X13140151Y-12102781D02*
X13149675Y-12093257D01*
X13149675Y-12093257D02*
X13168723Y-12083734D01*
X13321104Y-12283734D02*
X13321104Y-12150400D01*
X13321104Y-12169448D02*
X13330627Y-12159924D01*
X13330627Y-12159924D02*
X13349675Y-12150400D01*
X13349675Y-12150400D02*
X13378246Y-12150400D01*
X13378246Y-12150400D02*
X13397294Y-12159924D01*
X13397294Y-12159924D02*
X13406818Y-12178972D01*
X13406818Y-12178972D02*
X13406818Y-12283734D01*
X13406818Y-12178972D02*
X13416342Y-12159924D01*
X13416342Y-12159924D02*
X13435389Y-12150400D01*
X13435389Y-12150400D02*
X13463961Y-12150400D01*
X13463961Y-12150400D02*
X13483008Y-12159924D01*
X13483008Y-12159924D02*
X13492532Y-12178972D01*
X13492532Y-12178972D02*
X13492532Y-12283734D01*
X13587770Y-12283734D02*
X13587770Y-12150400D01*
X13587770Y-12169448D02*
X13597294Y-12159924D01*
X13597294Y-12159924D02*
X13616342Y-12150400D01*
X13616342Y-12150400D02*
X13644913Y-12150400D01*
X13644913Y-12150400D02*
X13663961Y-12159924D01*
X13663961Y-12159924D02*
X13673485Y-12178972D01*
X13673485Y-12178972D02*
X13673485Y-12283734D01*
X13673485Y-12178972D02*
X13683008Y-12159924D01*
X13683008Y-12159924D02*
X13702056Y-12150400D01*
X13702056Y-12150400D02*
X13730627Y-12150400D01*
X13730627Y-12150400D02*
X13749675Y-12159924D01*
X13749675Y-12159924D02*
X13759199Y-12178972D01*
X13759199Y-12178972D02*
X13759199Y-12283734D01*
X14149675Y-12074210D02*
X13978247Y-12331353D01*
X14406818Y-12083734D02*
X14425866Y-12083734D01*
X14425866Y-12083734D02*
X14444913Y-12093257D01*
X14444913Y-12093257D02*
X14454437Y-12102781D01*
X14454437Y-12102781D02*
X14463961Y-12121829D01*
X14463961Y-12121829D02*
X14473485Y-12159924D01*
X14473485Y-12159924D02*
X14473485Y-12207543D01*
X14473485Y-12207543D02*
X14463961Y-12245638D01*
X14463961Y-12245638D02*
X14454437Y-12264686D01*
X14454437Y-12264686D02*
X14444913Y-12274210D01*
X14444913Y-12274210D02*
X14425866Y-12283734D01*
X14425866Y-12283734D02*
X14406818Y-12283734D01*
X14406818Y-12283734D02*
X14387770Y-12274210D01*
X14387770Y-12274210D02*
X14378247Y-12264686D01*
X14378247Y-12264686D02*
X14368723Y-12245638D01*
X14368723Y-12245638D02*
X14359199Y-12207543D01*
X14359199Y-12207543D02*
X14359199Y-12159924D01*
X14359199Y-12159924D02*
X14368723Y-12121829D01*
X14368723Y-12121829D02*
X14378247Y-12102781D01*
X14378247Y-12102781D02*
X14387770Y-12093257D01*
X14387770Y-12093257D02*
X14406818Y-12083734D01*
X14559199Y-12264686D02*
X14568723Y-12274210D01*
X14568723Y-12274210D02*
X14559199Y-12283734D01*
X14559199Y-12283734D02*
X14549675Y-12274210D01*
X14549675Y-12274210D02*
X14559199Y-12264686D01*
X14559199Y-12264686D02*
X14559199Y-12283734D01*
X14692532Y-12083734D02*
X14711580Y-12083734D01*
X14711580Y-12083734D02*
X14730628Y-12093257D01*
X14730628Y-12093257D02*
X14740151Y-12102781D01*
X14740151Y-12102781D02*
X14749675Y-12121829D01*
X14749675Y-12121829D02*
X14759199Y-12159924D01*
X14759199Y-12159924D02*
X14759199Y-12207543D01*
X14759199Y-12207543D02*
X14749675Y-12245638D01*
X14749675Y-12245638D02*
X14740151Y-12264686D01*
X14740151Y-12264686D02*
X14730628Y-12274210D01*
X14730628Y-12274210D02*
X14711580Y-12283734D01*
X14711580Y-12283734D02*
X14692532Y-12283734D01*
X14692532Y-12283734D02*
X14673485Y-12274210D01*
X14673485Y-12274210D02*
X14663961Y-12264686D01*
X14663961Y-12264686D02*
X14654437Y-12245638D01*
X14654437Y-12245638D02*
X14644913Y-12207543D01*
X14644913Y-12207543D02*
X14644913Y-12159924D01*
X14644913Y-12159924D02*
X14654437Y-12121829D01*
X14654437Y-12121829D02*
X14663961Y-12102781D01*
X14663961Y-12102781D02*
X14673485Y-12093257D01*
X14673485Y-12093257D02*
X14692532Y-12083734D01*
X14949675Y-12283734D02*
X14835389Y-12283734D01*
X14892532Y-12283734D02*
X14892532Y-12083734D01*
X14892532Y-12083734D02*
X14873485Y-12112305D01*
X14873485Y-12112305D02*
X14854437Y-12131353D01*
X14854437Y-12131353D02*
X14835389Y-12140876D01*
X15016342Y-12083734D02*
X15140151Y-12083734D01*
X15140151Y-12083734D02*
X15073485Y-12159924D01*
X15073485Y-12159924D02*
X15102056Y-12159924D01*
X15102056Y-12159924D02*
X15121104Y-12169448D01*
X15121104Y-12169448D02*
X15130628Y-12178972D01*
X15130628Y-12178972D02*
X15140151Y-12198019D01*
X15140151Y-12198019D02*
X15140151Y-12245638D01*
X15140151Y-12245638D02*
X15130628Y-12264686D01*
X15130628Y-12264686D02*
X15121104Y-12274210D01*
X15121104Y-12274210D02*
X15102056Y-12283734D01*
X15102056Y-12283734D02*
X15044913Y-12283734D01*
X15044913Y-12283734D02*
X15025866Y-12274210D01*
X15025866Y-12274210D02*
X15016342Y-12264686D01*
X15254437Y-12169448D02*
X15235389Y-12159924D01*
X15235389Y-12159924D02*
X15225866Y-12150400D01*
X15225866Y-12150400D02*
X15216342Y-12131353D01*
X15216342Y-12131353D02*
X15216342Y-12121829D01*
X15216342Y-12121829D02*
X15225866Y-12102781D01*
X15225866Y-12102781D02*
X15235389Y-12093257D01*
X15235389Y-12093257D02*
X15254437Y-12083734D01*
X15254437Y-12083734D02*
X15292532Y-12083734D01*
X15292532Y-12083734D02*
X15311580Y-12093257D01*
X15311580Y-12093257D02*
X15321104Y-12102781D01*
X15321104Y-12102781D02*
X15330628Y-12121829D01*
X15330628Y-12121829D02*
X15330628Y-12131353D01*
X15330628Y-12131353D02*
X15321104Y-12150400D01*
X15321104Y-12150400D02*
X15311580Y-12159924D01*
X15311580Y-12159924D02*
X15292532Y-12169448D01*
X15292532Y-12169448D02*
X15254437Y-12169448D01*
X15254437Y-12169448D02*
X15235389Y-12178972D01*
X15235389Y-12178972D02*
X15225866Y-12188496D01*
X15225866Y-12188496D02*
X15216342Y-12207543D01*
X15216342Y-12207543D02*
X15216342Y-12245638D01*
X15216342Y-12245638D02*
X15225866Y-12264686D01*
X15225866Y-12264686D02*
X15235389Y-12274210D01*
X15235389Y-12274210D02*
X15254437Y-12283734D01*
X15254437Y-12283734D02*
X15292532Y-12283734D01*
X15292532Y-12283734D02*
X15311580Y-12274210D01*
X15311580Y-12274210D02*
X15321104Y-12264686D01*
X15321104Y-12264686D02*
X15330628Y-12245638D01*
X15330628Y-12245638D02*
X15330628Y-12207543D01*
X15330628Y-12207543D02*
X15321104Y-12188496D01*
X15321104Y-12188496D02*
X15311580Y-12178972D01*
X15311580Y-12178972D02*
X15292532Y-12169448D01*
X15406818Y-12083734D02*
X15406818Y-12121829D01*
X15483009Y-12083734D02*
X15483009Y-12121829D01*
X15778247Y-12359924D02*
X15768723Y-12350400D01*
X15768723Y-12350400D02*
X15749675Y-12321829D01*
X15749675Y-12321829D02*
X15740151Y-12302781D01*
X15740151Y-12302781D02*
X15730628Y-12274210D01*
X15730628Y-12274210D02*
X15721104Y-12226591D01*
X15721104Y-12226591D02*
X15721104Y-12188496D01*
X15721104Y-12188496D02*
X15730628Y-12140876D01*
X15730628Y-12140876D02*
X15740151Y-12112305D01*
X15740151Y-12112305D02*
X15749675Y-12093257D01*
X15749675Y-12093257D02*
X15768723Y-12064686D01*
X15768723Y-12064686D02*
X15778247Y-12055162D01*
X15892532Y-12083734D02*
X15911580Y-12083734D01*
X15911580Y-12083734D02*
X15930628Y-12093257D01*
X15930628Y-12093257D02*
X15940151Y-12102781D01*
X15940151Y-12102781D02*
X15949675Y-12121829D01*
X15949675Y-12121829D02*
X15959199Y-12159924D01*
X15959199Y-12159924D02*
X15959199Y-12207543D01*
X15959199Y-12207543D02*
X15949675Y-12245638D01*
X15949675Y-12245638D02*
X15940151Y-12264686D01*
X15940151Y-12264686D02*
X15930628Y-12274210D01*
X15930628Y-12274210D02*
X15911580Y-12283734D01*
X15911580Y-12283734D02*
X15892532Y-12283734D01*
X15892532Y-12283734D02*
X15873485Y-12274210D01*
X15873485Y-12274210D02*
X15863961Y-12264686D01*
X15863961Y-12264686D02*
X15854437Y-12245638D01*
X15854437Y-12245638D02*
X15844913Y-12207543D01*
X15844913Y-12207543D02*
X15844913Y-12159924D01*
X15844913Y-12159924D02*
X15854437Y-12121829D01*
X15854437Y-12121829D02*
X15863961Y-12102781D01*
X15863961Y-12102781D02*
X15873485Y-12093257D01*
X15873485Y-12093257D02*
X15892532Y-12083734D01*
X16197294Y-12283734D02*
X16197294Y-12083734D01*
X16283009Y-12283734D02*
X16283009Y-12178972D01*
X16283009Y-12178972D02*
X16273485Y-12159924D01*
X16273485Y-12159924D02*
X16254437Y-12150400D01*
X16254437Y-12150400D02*
X16225866Y-12150400D01*
X16225866Y-12150400D02*
X16206818Y-12159924D01*
X16206818Y-12159924D02*
X16197294Y-12169448D01*
X16406818Y-12283734D02*
X16387771Y-12274210D01*
X16387771Y-12274210D02*
X16378247Y-12264686D01*
X16378247Y-12264686D02*
X16368723Y-12245638D01*
X16368723Y-12245638D02*
X16368723Y-12188496D01*
X16368723Y-12188496D02*
X16378247Y-12169448D01*
X16378247Y-12169448D02*
X16387771Y-12159924D01*
X16387771Y-12159924D02*
X16406818Y-12150400D01*
X16406818Y-12150400D02*
X16435390Y-12150400D01*
X16435390Y-12150400D02*
X16454437Y-12159924D01*
X16454437Y-12159924D02*
X16463961Y-12169448D01*
X16463961Y-12169448D02*
X16473485Y-12188496D01*
X16473485Y-12188496D02*
X16473485Y-12245638D01*
X16473485Y-12245638D02*
X16463961Y-12264686D01*
X16463961Y-12264686D02*
X16454437Y-12274210D01*
X16454437Y-12274210D02*
X16435390Y-12283734D01*
X16435390Y-12283734D02*
X16406818Y-12283734D01*
X16587771Y-12283734D02*
X16568723Y-12274210D01*
X16568723Y-12274210D02*
X16559199Y-12255162D01*
X16559199Y-12255162D02*
X16559199Y-12083734D01*
X16740152Y-12274210D02*
X16721104Y-12283734D01*
X16721104Y-12283734D02*
X16683009Y-12283734D01*
X16683009Y-12283734D02*
X16663961Y-12274210D01*
X16663961Y-12274210D02*
X16654437Y-12255162D01*
X16654437Y-12255162D02*
X16654437Y-12178972D01*
X16654437Y-12178972D02*
X16663961Y-12159924D01*
X16663961Y-12159924D02*
X16683009Y-12150400D01*
X16683009Y-12150400D02*
X16721104Y-12150400D01*
X16721104Y-12150400D02*
X16740152Y-12159924D01*
X16740152Y-12159924D02*
X16749675Y-12178972D01*
X16749675Y-12178972D02*
X16749675Y-12198019D01*
X16749675Y-12198019D02*
X16654437Y-12217067D01*
X16825866Y-12274210D02*
X16844914Y-12283734D01*
X16844914Y-12283734D02*
X16883009Y-12283734D01*
X16883009Y-12283734D02*
X16902056Y-12274210D01*
X16902056Y-12274210D02*
X16911580Y-12255162D01*
X16911580Y-12255162D02*
X16911580Y-12245638D01*
X16911580Y-12245638D02*
X16902056Y-12226591D01*
X16902056Y-12226591D02*
X16883009Y-12217067D01*
X16883009Y-12217067D02*
X16854437Y-12217067D01*
X16854437Y-12217067D02*
X16835390Y-12207543D01*
X16835390Y-12207543D02*
X16825866Y-12188496D01*
X16825866Y-12188496D02*
X16825866Y-12178972D01*
X16825866Y-12178972D02*
X16835390Y-12159924D01*
X16835390Y-12159924D02*
X16854437Y-12150400D01*
X16854437Y-12150400D02*
X16883009Y-12150400D01*
X16883009Y-12150400D02*
X16902056Y-12159924D01*
X17149676Y-12207543D02*
X17302057Y-12207543D01*
X17225866Y-12283734D02*
X17225866Y-12131353D01*
X17540152Y-12102781D02*
X17549676Y-12093257D01*
X17549676Y-12093257D02*
X17568723Y-12083734D01*
X17568723Y-12083734D02*
X17616342Y-12083734D01*
X17616342Y-12083734D02*
X17635390Y-12093257D01*
X17635390Y-12093257D02*
X17644914Y-12102781D01*
X17644914Y-12102781D02*
X17654437Y-12121829D01*
X17654437Y-12121829D02*
X17654437Y-12140876D01*
X17654437Y-12140876D02*
X17644914Y-12169448D01*
X17644914Y-12169448D02*
X17530628Y-12283734D01*
X17530628Y-12283734D02*
X17654437Y-12283734D01*
X17883009Y-12274210D02*
X17902057Y-12283734D01*
X17902057Y-12283734D02*
X17940152Y-12283734D01*
X17940152Y-12283734D02*
X17959199Y-12274210D01*
X17959199Y-12274210D02*
X17968723Y-12255162D01*
X17968723Y-12255162D02*
X17968723Y-12245638D01*
X17968723Y-12245638D02*
X17959199Y-12226591D01*
X17959199Y-12226591D02*
X17940152Y-12217067D01*
X17940152Y-12217067D02*
X17911580Y-12217067D01*
X17911580Y-12217067D02*
X17892533Y-12207543D01*
X17892533Y-12207543D02*
X17883009Y-12188496D01*
X17883009Y-12188496D02*
X17883009Y-12178972D01*
X17883009Y-12178972D02*
X17892533Y-12159924D01*
X17892533Y-12159924D02*
X17911580Y-12150400D01*
X17911580Y-12150400D02*
X17940152Y-12150400D01*
X17940152Y-12150400D02*
X17959199Y-12159924D01*
X18083009Y-12283734D02*
X18063961Y-12274210D01*
X18063961Y-12274210D02*
X18054438Y-12255162D01*
X18054438Y-12255162D02*
X18054438Y-12083734D01*
X18187771Y-12283734D02*
X18168723Y-12274210D01*
X18168723Y-12274210D02*
X18159199Y-12264686D01*
X18159199Y-12264686D02*
X18149676Y-12245638D01*
X18149676Y-12245638D02*
X18149676Y-12188496D01*
X18149676Y-12188496D02*
X18159199Y-12169448D01*
X18159199Y-12169448D02*
X18168723Y-12159924D01*
X18168723Y-12159924D02*
X18187771Y-12150400D01*
X18187771Y-12150400D02*
X18216342Y-12150400D01*
X18216342Y-12150400D02*
X18235390Y-12159924D01*
X18235390Y-12159924D02*
X18244914Y-12169448D01*
X18244914Y-12169448D02*
X18254438Y-12188496D01*
X18254438Y-12188496D02*
X18254438Y-12245638D01*
X18254438Y-12245638D02*
X18244914Y-12264686D01*
X18244914Y-12264686D02*
X18235390Y-12274210D01*
X18235390Y-12274210D02*
X18216342Y-12283734D01*
X18216342Y-12283734D02*
X18187771Y-12283734D01*
X18311580Y-12150400D02*
X18387771Y-12150400D01*
X18340152Y-12083734D02*
X18340152Y-12255162D01*
X18340152Y-12255162D02*
X18349676Y-12274210D01*
X18349676Y-12274210D02*
X18368723Y-12283734D01*
X18368723Y-12283734D02*
X18387771Y-12283734D01*
X18444914Y-12274210D02*
X18463961Y-12283734D01*
X18463961Y-12283734D02*
X18502057Y-12283734D01*
X18502057Y-12283734D02*
X18521104Y-12274210D01*
X18521104Y-12274210D02*
X18530628Y-12255162D01*
X18530628Y-12255162D02*
X18530628Y-12245638D01*
X18530628Y-12245638D02*
X18521104Y-12226591D01*
X18521104Y-12226591D02*
X18502057Y-12217067D01*
X18502057Y-12217067D02*
X18473485Y-12217067D01*
X18473485Y-12217067D02*
X18454438Y-12207543D01*
X18454438Y-12207543D02*
X18444914Y-12188496D01*
X18444914Y-12188496D02*
X18444914Y-12178972D01*
X18444914Y-12178972D02*
X18454438Y-12159924D01*
X18454438Y-12159924D02*
X18473485Y-12150400D01*
X18473485Y-12150400D02*
X18502057Y-12150400D01*
X18502057Y-12150400D02*
X18521104Y-12159924D01*
X18597295Y-12359924D02*
X18606819Y-12350400D01*
X18606819Y-12350400D02*
X18625866Y-12321829D01*
X18625866Y-12321829D02*
X18635390Y-12302781D01*
X18635390Y-12302781D02*
X18644914Y-12274210D01*
X18644914Y-12274210D02*
X18654438Y-12226591D01*
X18654438Y-12226591D02*
X18654438Y-12188496D01*
X18654438Y-12188496D02*
X18644914Y-12140876D01*
X18644914Y-12140876D02*
X18635390Y-12112305D01*
X18635390Y-12112305D02*
X18625866Y-12093257D01*
X18625866Y-12093257D02*
X18606819Y-12064686D01*
X18606819Y-12064686D02*
X18597295Y-12055162D01*
D12*
X12196740Y-12471806D02*
X12196740Y-12440693D01*
X12165627Y-12440693D01*
X12165627Y-12471806D01*
X12196740Y-12471806D01*
D11*
X12502056Y-12347734D02*
X12521104Y-12347734D01*
X12521104Y-12347734D02*
X12540151Y-12357257D01*
X12540151Y-12357257D02*
X12549675Y-12366781D01*
X12549675Y-12366781D02*
X12559199Y-12385829D01*
X12559199Y-12385829D02*
X12568723Y-12423924D01*
X12568723Y-12423924D02*
X12568723Y-12471543D01*
X12568723Y-12471543D02*
X12559199Y-12509638D01*
X12559199Y-12509638D02*
X12549675Y-12528686D01*
X12549675Y-12528686D02*
X12540151Y-12538210D01*
X12540151Y-12538210D02*
X12521104Y-12547734D01*
X12521104Y-12547734D02*
X12502056Y-12547734D01*
X12502056Y-12547734D02*
X12483008Y-12538210D01*
X12483008Y-12538210D02*
X12473484Y-12528686D01*
X12473484Y-12528686D02*
X12463961Y-12509638D01*
X12463961Y-12509638D02*
X12454437Y-12471543D01*
X12454437Y-12471543D02*
X12454437Y-12423924D01*
X12454437Y-12423924D02*
X12463961Y-12385829D01*
X12463961Y-12385829D02*
X12473484Y-12366781D01*
X12473484Y-12366781D02*
X12483008Y-12357257D01*
X12483008Y-12357257D02*
X12502056Y-12347734D01*
X12654437Y-12528686D02*
X12663961Y-12538210D01*
X12663961Y-12538210D02*
X12654437Y-12547734D01*
X12654437Y-12547734D02*
X12644913Y-12538210D01*
X12644913Y-12538210D02*
X12654437Y-12528686D01*
X12654437Y-12528686D02*
X12654437Y-12547734D01*
X12835389Y-12414400D02*
X12835389Y-12547734D01*
X12787770Y-12338210D02*
X12740151Y-12481067D01*
X12740151Y-12481067D02*
X12863961Y-12481067D01*
X13025865Y-12414400D02*
X13025865Y-12547734D01*
X12978246Y-12338210D02*
X12930627Y-12481067D01*
X12930627Y-12481067D02*
X13054437Y-12481067D01*
X13168723Y-12347734D02*
X13187770Y-12347734D01*
X13187770Y-12347734D02*
X13206818Y-12357257D01*
X13206818Y-12357257D02*
X13216342Y-12366781D01*
X13216342Y-12366781D02*
X13225865Y-12385829D01*
X13225865Y-12385829D02*
X13235389Y-12423924D01*
X13235389Y-12423924D02*
X13235389Y-12471543D01*
X13235389Y-12471543D02*
X13225865Y-12509638D01*
X13225865Y-12509638D02*
X13216342Y-12528686D01*
X13216342Y-12528686D02*
X13206818Y-12538210D01*
X13206818Y-12538210D02*
X13187770Y-12547734D01*
X13187770Y-12547734D02*
X13168723Y-12547734D01*
X13168723Y-12547734D02*
X13149675Y-12538210D01*
X13149675Y-12538210D02*
X13140151Y-12528686D01*
X13140151Y-12528686D02*
X13130627Y-12509638D01*
X13130627Y-12509638D02*
X13121104Y-12471543D01*
X13121104Y-12471543D02*
X13121104Y-12423924D01*
X13121104Y-12423924D02*
X13130627Y-12385829D01*
X13130627Y-12385829D02*
X13140151Y-12366781D01*
X13140151Y-12366781D02*
X13149675Y-12357257D01*
X13149675Y-12357257D02*
X13168723Y-12347734D01*
X13321104Y-12547734D02*
X13321104Y-12414400D01*
X13321104Y-12433448D02*
X13330627Y-12423924D01*
X13330627Y-12423924D02*
X13349675Y-12414400D01*
X13349675Y-12414400D02*
X13378246Y-12414400D01*
X13378246Y-12414400D02*
X13397294Y-12423924D01*
X13397294Y-12423924D02*
X13406818Y-12442972D01*
X13406818Y-12442972D02*
X13406818Y-12547734D01*
X13406818Y-12442972D02*
X13416342Y-12423924D01*
X13416342Y-12423924D02*
X13435389Y-12414400D01*
X13435389Y-12414400D02*
X13463961Y-12414400D01*
X13463961Y-12414400D02*
X13483008Y-12423924D01*
X13483008Y-12423924D02*
X13492532Y-12442972D01*
X13492532Y-12442972D02*
X13492532Y-12547734D01*
X13587770Y-12547734D02*
X13587770Y-12414400D01*
X13587770Y-12433448D02*
X13597294Y-12423924D01*
X13597294Y-12423924D02*
X13616342Y-12414400D01*
X13616342Y-12414400D02*
X13644913Y-12414400D01*
X13644913Y-12414400D02*
X13663961Y-12423924D01*
X13663961Y-12423924D02*
X13673485Y-12442972D01*
X13673485Y-12442972D02*
X13673485Y-12547734D01*
X13673485Y-12442972D02*
X13683008Y-12423924D01*
X13683008Y-12423924D02*
X13702056Y-12414400D01*
X13702056Y-12414400D02*
X13730627Y-12414400D01*
X13730627Y-12414400D02*
X13749675Y-12423924D01*
X13749675Y-12423924D02*
X13759199Y-12442972D01*
X13759199Y-12442972D02*
X13759199Y-12547734D01*
X14149675Y-12338210D02*
X13978247Y-12595353D01*
X14406818Y-12347734D02*
X14425866Y-12347734D01*
X14425866Y-12347734D02*
X14444913Y-12357257D01*
X14444913Y-12357257D02*
X14454437Y-12366781D01*
X14454437Y-12366781D02*
X14463961Y-12385829D01*
X14463961Y-12385829D02*
X14473485Y-12423924D01*
X14473485Y-12423924D02*
X14473485Y-12471543D01*
X14473485Y-12471543D02*
X14463961Y-12509638D01*
X14463961Y-12509638D02*
X14454437Y-12528686D01*
X14454437Y-12528686D02*
X14444913Y-12538210D01*
X14444913Y-12538210D02*
X14425866Y-12547734D01*
X14425866Y-12547734D02*
X14406818Y-12547734D01*
X14406818Y-12547734D02*
X14387770Y-12538210D01*
X14387770Y-12538210D02*
X14378247Y-12528686D01*
X14378247Y-12528686D02*
X14368723Y-12509638D01*
X14368723Y-12509638D02*
X14359199Y-12471543D01*
X14359199Y-12471543D02*
X14359199Y-12423924D01*
X14359199Y-12423924D02*
X14368723Y-12385829D01*
X14368723Y-12385829D02*
X14378247Y-12366781D01*
X14378247Y-12366781D02*
X14387770Y-12357257D01*
X14387770Y-12357257D02*
X14406818Y-12347734D01*
X14559199Y-12528686D02*
X14568723Y-12538210D01*
X14568723Y-12538210D02*
X14559199Y-12547734D01*
X14559199Y-12547734D02*
X14549675Y-12538210D01*
X14549675Y-12538210D02*
X14559199Y-12528686D01*
X14559199Y-12528686D02*
X14559199Y-12547734D01*
X14692532Y-12347734D02*
X14711580Y-12347734D01*
X14711580Y-12347734D02*
X14730628Y-12357257D01*
X14730628Y-12357257D02*
X14740151Y-12366781D01*
X14740151Y-12366781D02*
X14749675Y-12385829D01*
X14749675Y-12385829D02*
X14759199Y-12423924D01*
X14759199Y-12423924D02*
X14759199Y-12471543D01*
X14759199Y-12471543D02*
X14749675Y-12509638D01*
X14749675Y-12509638D02*
X14740151Y-12528686D01*
X14740151Y-12528686D02*
X14730628Y-12538210D01*
X14730628Y-12538210D02*
X14711580Y-12547734D01*
X14711580Y-12547734D02*
X14692532Y-12547734D01*
X14692532Y-12547734D02*
X14673485Y-12538210D01*
X14673485Y-12538210D02*
X14663961Y-12528686D01*
X14663961Y-12528686D02*
X14654437Y-12509638D01*
X14654437Y-12509638D02*
X14644913Y-12471543D01*
X14644913Y-12471543D02*
X14644913Y-12423924D01*
X14644913Y-12423924D02*
X14654437Y-12385829D01*
X14654437Y-12385829D02*
X14663961Y-12366781D01*
X14663961Y-12366781D02*
X14673485Y-12357257D01*
X14673485Y-12357257D02*
X14692532Y-12347734D01*
X14949675Y-12547734D02*
X14835389Y-12547734D01*
X14892532Y-12547734D02*
X14892532Y-12347734D01*
X14892532Y-12347734D02*
X14873485Y-12376305D01*
X14873485Y-12376305D02*
X14854437Y-12395353D01*
X14854437Y-12395353D02*
X14835389Y-12404876D01*
X15016342Y-12347734D02*
X15149675Y-12347734D01*
X15149675Y-12347734D02*
X15063961Y-12547734D01*
X15206818Y-12347734D02*
X15330628Y-12347734D01*
X15330628Y-12347734D02*
X15263961Y-12423924D01*
X15263961Y-12423924D02*
X15292532Y-12423924D01*
X15292532Y-12423924D02*
X15311580Y-12433448D01*
X15311580Y-12433448D02*
X15321104Y-12442972D01*
X15321104Y-12442972D02*
X15330628Y-12462019D01*
X15330628Y-12462019D02*
X15330628Y-12509638D01*
X15330628Y-12509638D02*
X15321104Y-12528686D01*
X15321104Y-12528686D02*
X15311580Y-12538210D01*
X15311580Y-12538210D02*
X15292532Y-12547734D01*
X15292532Y-12547734D02*
X15235389Y-12547734D01*
X15235389Y-12547734D02*
X15216342Y-12538210D01*
X15216342Y-12538210D02*
X15206818Y-12528686D01*
X15406818Y-12347734D02*
X15406818Y-12385829D01*
X15483009Y-12347734D02*
X15483009Y-12385829D01*
X15778247Y-12623924D02*
X15768723Y-12614400D01*
X15768723Y-12614400D02*
X15749675Y-12585829D01*
X15749675Y-12585829D02*
X15740151Y-12566781D01*
X15740151Y-12566781D02*
X15730628Y-12538210D01*
X15730628Y-12538210D02*
X15721104Y-12490591D01*
X15721104Y-12490591D02*
X15721104Y-12452496D01*
X15721104Y-12452496D02*
X15730628Y-12404876D01*
X15730628Y-12404876D02*
X15740151Y-12376305D01*
X15740151Y-12376305D02*
X15749675Y-12357257D01*
X15749675Y-12357257D02*
X15768723Y-12328686D01*
X15768723Y-12328686D02*
X15778247Y-12319162D01*
X15949675Y-12347734D02*
X15854437Y-12347734D01*
X15854437Y-12347734D02*
X15844913Y-12442972D01*
X15844913Y-12442972D02*
X15854437Y-12433448D01*
X15854437Y-12433448D02*
X15873485Y-12423924D01*
X15873485Y-12423924D02*
X15921104Y-12423924D01*
X15921104Y-12423924D02*
X15940151Y-12433448D01*
X15940151Y-12433448D02*
X15949675Y-12442972D01*
X15949675Y-12442972D02*
X15959199Y-12462019D01*
X15959199Y-12462019D02*
X15959199Y-12509638D01*
X15959199Y-12509638D02*
X15949675Y-12528686D01*
X15949675Y-12528686D02*
X15940151Y-12538210D01*
X15940151Y-12538210D02*
X15921104Y-12547734D01*
X15921104Y-12547734D02*
X15873485Y-12547734D01*
X15873485Y-12547734D02*
X15854437Y-12538210D01*
X15854437Y-12538210D02*
X15844913Y-12528686D01*
X16197294Y-12547734D02*
X16197294Y-12347734D01*
X16283009Y-12547734D02*
X16283009Y-12442972D01*
X16283009Y-12442972D02*
X16273485Y-12423924D01*
X16273485Y-12423924D02*
X16254437Y-12414400D01*
X16254437Y-12414400D02*
X16225866Y-12414400D01*
X16225866Y-12414400D02*
X16206818Y-12423924D01*
X16206818Y-12423924D02*
X16197294Y-12433448D01*
X16406818Y-12547734D02*
X16387771Y-12538210D01*
X16387771Y-12538210D02*
X16378247Y-12528686D01*
X16378247Y-12528686D02*
X16368723Y-12509638D01*
X16368723Y-12509638D02*
X16368723Y-12452496D01*
X16368723Y-12452496D02*
X16378247Y-12433448D01*
X16378247Y-12433448D02*
X16387771Y-12423924D01*
X16387771Y-12423924D02*
X16406818Y-12414400D01*
X16406818Y-12414400D02*
X16435390Y-12414400D01*
X16435390Y-12414400D02*
X16454437Y-12423924D01*
X16454437Y-12423924D02*
X16463961Y-12433448D01*
X16463961Y-12433448D02*
X16473485Y-12452496D01*
X16473485Y-12452496D02*
X16473485Y-12509638D01*
X16473485Y-12509638D02*
X16463961Y-12528686D01*
X16463961Y-12528686D02*
X16454437Y-12538210D01*
X16454437Y-12538210D02*
X16435390Y-12547734D01*
X16435390Y-12547734D02*
X16406818Y-12547734D01*
X16587771Y-12547734D02*
X16568723Y-12538210D01*
X16568723Y-12538210D02*
X16559199Y-12519162D01*
X16559199Y-12519162D02*
X16559199Y-12347734D01*
X16740152Y-12538210D02*
X16721104Y-12547734D01*
X16721104Y-12547734D02*
X16683009Y-12547734D01*
X16683009Y-12547734D02*
X16663961Y-12538210D01*
X16663961Y-12538210D02*
X16654437Y-12519162D01*
X16654437Y-12519162D02*
X16654437Y-12442972D01*
X16654437Y-12442972D02*
X16663961Y-12423924D01*
X16663961Y-12423924D02*
X16683009Y-12414400D01*
X16683009Y-12414400D02*
X16721104Y-12414400D01*
X16721104Y-12414400D02*
X16740152Y-12423924D01*
X16740152Y-12423924D02*
X16749675Y-12442972D01*
X16749675Y-12442972D02*
X16749675Y-12462019D01*
X16749675Y-12462019D02*
X16654437Y-12481067D01*
X16825866Y-12538210D02*
X16844914Y-12547734D01*
X16844914Y-12547734D02*
X16883009Y-12547734D01*
X16883009Y-12547734D02*
X16902056Y-12538210D01*
X16902056Y-12538210D02*
X16911580Y-12519162D01*
X16911580Y-12519162D02*
X16911580Y-12509638D01*
X16911580Y-12509638D02*
X16902056Y-12490591D01*
X16902056Y-12490591D02*
X16883009Y-12481067D01*
X16883009Y-12481067D02*
X16854437Y-12481067D01*
X16854437Y-12481067D02*
X16835390Y-12471543D01*
X16835390Y-12471543D02*
X16825866Y-12452496D01*
X16825866Y-12452496D02*
X16825866Y-12442972D01*
X16825866Y-12442972D02*
X16835390Y-12423924D01*
X16835390Y-12423924D02*
X16854437Y-12414400D01*
X16854437Y-12414400D02*
X16883009Y-12414400D01*
X16883009Y-12414400D02*
X16902056Y-12423924D01*
X16978247Y-12623924D02*
X16987771Y-12614400D01*
X16987771Y-12614400D02*
X17006818Y-12585829D01*
X17006818Y-12585829D02*
X17016342Y-12566781D01*
X17016342Y-12566781D02*
X17025866Y-12538210D01*
X17025866Y-12538210D02*
X17035390Y-12490591D01*
X17035390Y-12490591D02*
X17035390Y-12452496D01*
X17035390Y-12452496D02*
X17025866Y-12404876D01*
X17025866Y-12404876D02*
X17016342Y-12376305D01*
X17016342Y-12376305D02*
X17006818Y-12357257D01*
X17006818Y-12357257D02*
X16987771Y-12328686D01*
X16987771Y-12328686D02*
X16978247Y-12319162D01*
D12*
X12153184Y-12770250D02*
X12203184Y-12720250D01*
X12153184Y-12670250D01*
X12103184Y-12720250D01*
X12153184Y-12770250D01*
D11*
X12568723Y-12811734D02*
X12454437Y-12811734D01*
X12511580Y-12811734D02*
X12511580Y-12611734D01*
X12511580Y-12611734D02*
X12492532Y-12640305D01*
X12492532Y-12640305D02*
X12473484Y-12659353D01*
X12473484Y-12659353D02*
X12454437Y-12668876D01*
X12654437Y-12792686D02*
X12663961Y-12802210D01*
X12663961Y-12802210D02*
X12654437Y-12811734D01*
X12654437Y-12811734D02*
X12644913Y-12802210D01*
X12644913Y-12802210D02*
X12654437Y-12792686D01*
X12654437Y-12792686D02*
X12654437Y-12811734D01*
X12787770Y-12611734D02*
X12806818Y-12611734D01*
X12806818Y-12611734D02*
X12825865Y-12621257D01*
X12825865Y-12621257D02*
X12835389Y-12630781D01*
X12835389Y-12630781D02*
X12844913Y-12649829D01*
X12844913Y-12649829D02*
X12854437Y-12687924D01*
X12854437Y-12687924D02*
X12854437Y-12735543D01*
X12854437Y-12735543D02*
X12844913Y-12773638D01*
X12844913Y-12773638D02*
X12835389Y-12792686D01*
X12835389Y-12792686D02*
X12825865Y-12802210D01*
X12825865Y-12802210D02*
X12806818Y-12811734D01*
X12806818Y-12811734D02*
X12787770Y-12811734D01*
X12787770Y-12811734D02*
X12768723Y-12802210D01*
X12768723Y-12802210D02*
X12759199Y-12792686D01*
X12759199Y-12792686D02*
X12749675Y-12773638D01*
X12749675Y-12773638D02*
X12740151Y-12735543D01*
X12740151Y-12735543D02*
X12740151Y-12687924D01*
X12740151Y-12687924D02*
X12749675Y-12649829D01*
X12749675Y-12649829D02*
X12759199Y-12630781D01*
X12759199Y-12630781D02*
X12768723Y-12621257D01*
X12768723Y-12621257D02*
X12787770Y-12611734D01*
X12978246Y-12611734D02*
X12997294Y-12611734D01*
X12997294Y-12611734D02*
X13016342Y-12621257D01*
X13016342Y-12621257D02*
X13025865Y-12630781D01*
X13025865Y-12630781D02*
X13035389Y-12649829D01*
X13035389Y-12649829D02*
X13044913Y-12687924D01*
X13044913Y-12687924D02*
X13044913Y-12735543D01*
X13044913Y-12735543D02*
X13035389Y-12773638D01*
X13035389Y-12773638D02*
X13025865Y-12792686D01*
X13025865Y-12792686D02*
X13016342Y-12802210D01*
X13016342Y-12802210D02*
X12997294Y-12811734D01*
X12997294Y-12811734D02*
X12978246Y-12811734D01*
X12978246Y-12811734D02*
X12959199Y-12802210D01*
X12959199Y-12802210D02*
X12949675Y-12792686D01*
X12949675Y-12792686D02*
X12940151Y-12773638D01*
X12940151Y-12773638D02*
X12930627Y-12735543D01*
X12930627Y-12735543D02*
X12930627Y-12687924D01*
X12930627Y-12687924D02*
X12940151Y-12649829D01*
X12940151Y-12649829D02*
X12949675Y-12630781D01*
X12949675Y-12630781D02*
X12959199Y-12621257D01*
X12959199Y-12621257D02*
X12978246Y-12611734D01*
X13168723Y-12611734D02*
X13187770Y-12611734D01*
X13187770Y-12611734D02*
X13206818Y-12621257D01*
X13206818Y-12621257D02*
X13216342Y-12630781D01*
X13216342Y-12630781D02*
X13225865Y-12649829D01*
X13225865Y-12649829D02*
X13235389Y-12687924D01*
X13235389Y-12687924D02*
X13235389Y-12735543D01*
X13235389Y-12735543D02*
X13225865Y-12773638D01*
X13225865Y-12773638D02*
X13216342Y-12792686D01*
X13216342Y-12792686D02*
X13206818Y-12802210D01*
X13206818Y-12802210D02*
X13187770Y-12811734D01*
X13187770Y-12811734D02*
X13168723Y-12811734D01*
X13168723Y-12811734D02*
X13149675Y-12802210D01*
X13149675Y-12802210D02*
X13140151Y-12792686D01*
X13140151Y-12792686D02*
X13130627Y-12773638D01*
X13130627Y-12773638D02*
X13121104Y-12735543D01*
X13121104Y-12735543D02*
X13121104Y-12687924D01*
X13121104Y-12687924D02*
X13130627Y-12649829D01*
X13130627Y-12649829D02*
X13140151Y-12630781D01*
X13140151Y-12630781D02*
X13149675Y-12621257D01*
X13149675Y-12621257D02*
X13168723Y-12611734D01*
X13321104Y-12811734D02*
X13321104Y-12678400D01*
X13321104Y-12697448D02*
X13330627Y-12687924D01*
X13330627Y-12687924D02*
X13349675Y-12678400D01*
X13349675Y-12678400D02*
X13378246Y-12678400D01*
X13378246Y-12678400D02*
X13397294Y-12687924D01*
X13397294Y-12687924D02*
X13406818Y-12706972D01*
X13406818Y-12706972D02*
X13406818Y-12811734D01*
X13406818Y-12706972D02*
X13416342Y-12687924D01*
X13416342Y-12687924D02*
X13435389Y-12678400D01*
X13435389Y-12678400D02*
X13463961Y-12678400D01*
X13463961Y-12678400D02*
X13483008Y-12687924D01*
X13483008Y-12687924D02*
X13492532Y-12706972D01*
X13492532Y-12706972D02*
X13492532Y-12811734D01*
X13587770Y-12811734D02*
X13587770Y-12678400D01*
X13587770Y-12697448D02*
X13597294Y-12687924D01*
X13597294Y-12687924D02*
X13616342Y-12678400D01*
X13616342Y-12678400D02*
X13644913Y-12678400D01*
X13644913Y-12678400D02*
X13663961Y-12687924D01*
X13663961Y-12687924D02*
X13673485Y-12706972D01*
X13673485Y-12706972D02*
X13673485Y-12811734D01*
X13673485Y-12706972D02*
X13683008Y-12687924D01*
X13683008Y-12687924D02*
X13702056Y-12678400D01*
X13702056Y-12678400D02*
X13730627Y-12678400D01*
X13730627Y-12678400D02*
X13749675Y-12687924D01*
X13749675Y-12687924D02*
X13759199Y-12706972D01*
X13759199Y-12706972D02*
X13759199Y-12811734D01*
X14149675Y-12602210D02*
X13978247Y-12859353D01*
X14406818Y-12611734D02*
X14425866Y-12611734D01*
X14425866Y-12611734D02*
X14444913Y-12621257D01*
X14444913Y-12621257D02*
X14454437Y-12630781D01*
X14454437Y-12630781D02*
X14463961Y-12649829D01*
X14463961Y-12649829D02*
X14473485Y-12687924D01*
X14473485Y-12687924D02*
X14473485Y-12735543D01*
X14473485Y-12735543D02*
X14463961Y-12773638D01*
X14463961Y-12773638D02*
X14454437Y-12792686D01*
X14454437Y-12792686D02*
X14444913Y-12802210D01*
X14444913Y-12802210D02*
X14425866Y-12811734D01*
X14425866Y-12811734D02*
X14406818Y-12811734D01*
X14406818Y-12811734D02*
X14387770Y-12802210D01*
X14387770Y-12802210D02*
X14378247Y-12792686D01*
X14378247Y-12792686D02*
X14368723Y-12773638D01*
X14368723Y-12773638D02*
X14359199Y-12735543D01*
X14359199Y-12735543D02*
X14359199Y-12687924D01*
X14359199Y-12687924D02*
X14368723Y-12649829D01*
X14368723Y-12649829D02*
X14378247Y-12630781D01*
X14378247Y-12630781D02*
X14387770Y-12621257D01*
X14387770Y-12621257D02*
X14406818Y-12611734D01*
X14559199Y-12792686D02*
X14568723Y-12802210D01*
X14568723Y-12802210D02*
X14559199Y-12811734D01*
X14559199Y-12811734D02*
X14549675Y-12802210D01*
X14549675Y-12802210D02*
X14559199Y-12792686D01*
X14559199Y-12792686D02*
X14559199Y-12811734D01*
X14692532Y-12611734D02*
X14711580Y-12611734D01*
X14711580Y-12611734D02*
X14730628Y-12621257D01*
X14730628Y-12621257D02*
X14740151Y-12630781D01*
X14740151Y-12630781D02*
X14749675Y-12649829D01*
X14749675Y-12649829D02*
X14759199Y-12687924D01*
X14759199Y-12687924D02*
X14759199Y-12735543D01*
X14759199Y-12735543D02*
X14749675Y-12773638D01*
X14749675Y-12773638D02*
X14740151Y-12792686D01*
X14740151Y-12792686D02*
X14730628Y-12802210D01*
X14730628Y-12802210D02*
X14711580Y-12811734D01*
X14711580Y-12811734D02*
X14692532Y-12811734D01*
X14692532Y-12811734D02*
X14673485Y-12802210D01*
X14673485Y-12802210D02*
X14663961Y-12792686D01*
X14663961Y-12792686D02*
X14654437Y-12773638D01*
X14654437Y-12773638D02*
X14644913Y-12735543D01*
X14644913Y-12735543D02*
X14644913Y-12687924D01*
X14644913Y-12687924D02*
X14654437Y-12649829D01*
X14654437Y-12649829D02*
X14663961Y-12630781D01*
X14663961Y-12630781D02*
X14673485Y-12621257D01*
X14673485Y-12621257D02*
X14692532Y-12611734D01*
X14825866Y-12611734D02*
X14949675Y-12611734D01*
X14949675Y-12611734D02*
X14883008Y-12687924D01*
X14883008Y-12687924D02*
X14911580Y-12687924D01*
X14911580Y-12687924D02*
X14930628Y-12697448D01*
X14930628Y-12697448D02*
X14940151Y-12706972D01*
X14940151Y-12706972D02*
X14949675Y-12726019D01*
X14949675Y-12726019D02*
X14949675Y-12773638D01*
X14949675Y-12773638D02*
X14940151Y-12792686D01*
X14940151Y-12792686D02*
X14930628Y-12802210D01*
X14930628Y-12802210D02*
X14911580Y-12811734D01*
X14911580Y-12811734D02*
X14854437Y-12811734D01*
X14854437Y-12811734D02*
X14835389Y-12802210D01*
X14835389Y-12802210D02*
X14825866Y-12792686D01*
X15044913Y-12811734D02*
X15083008Y-12811734D01*
X15083008Y-12811734D02*
X15102056Y-12802210D01*
X15102056Y-12802210D02*
X15111580Y-12792686D01*
X15111580Y-12792686D02*
X15130628Y-12764115D01*
X15130628Y-12764115D02*
X15140151Y-12726019D01*
X15140151Y-12726019D02*
X15140151Y-12649829D01*
X15140151Y-12649829D02*
X15130628Y-12630781D01*
X15130628Y-12630781D02*
X15121104Y-12621257D01*
X15121104Y-12621257D02*
X15102056Y-12611734D01*
X15102056Y-12611734D02*
X15063961Y-12611734D01*
X15063961Y-12611734D02*
X15044913Y-12621257D01*
X15044913Y-12621257D02*
X15035389Y-12630781D01*
X15035389Y-12630781D02*
X15025866Y-12649829D01*
X15025866Y-12649829D02*
X15025866Y-12697448D01*
X15025866Y-12697448D02*
X15035389Y-12716496D01*
X15035389Y-12716496D02*
X15044913Y-12726019D01*
X15044913Y-12726019D02*
X15063961Y-12735543D01*
X15063961Y-12735543D02*
X15102056Y-12735543D01*
X15102056Y-12735543D02*
X15121104Y-12726019D01*
X15121104Y-12726019D02*
X15130628Y-12716496D01*
X15130628Y-12716496D02*
X15140151Y-12697448D01*
X15311580Y-12678400D02*
X15311580Y-12811734D01*
X15263961Y-12602210D02*
X15216342Y-12745067D01*
X15216342Y-12745067D02*
X15340151Y-12745067D01*
X15406818Y-12611734D02*
X15406818Y-12649829D01*
X15483009Y-12611734D02*
X15483009Y-12649829D01*
X15778247Y-12887924D02*
X15768723Y-12878400D01*
X15768723Y-12878400D02*
X15749675Y-12849829D01*
X15749675Y-12849829D02*
X15740151Y-12830781D01*
X15740151Y-12830781D02*
X15730628Y-12802210D01*
X15730628Y-12802210D02*
X15721104Y-12754591D01*
X15721104Y-12754591D02*
X15721104Y-12716496D01*
X15721104Y-12716496D02*
X15730628Y-12668876D01*
X15730628Y-12668876D02*
X15740151Y-12640305D01*
X15740151Y-12640305D02*
X15749675Y-12621257D01*
X15749675Y-12621257D02*
X15768723Y-12592686D01*
X15768723Y-12592686D02*
X15778247Y-12583162D01*
X15940151Y-12678400D02*
X15940151Y-12811734D01*
X15892532Y-12602210D02*
X15844913Y-12745067D01*
X15844913Y-12745067D02*
X15968723Y-12745067D01*
X16025866Y-12611734D02*
X16149675Y-12611734D01*
X16149675Y-12611734D02*
X16083009Y-12687924D01*
X16083009Y-12687924D02*
X16111580Y-12687924D01*
X16111580Y-12687924D02*
X16130628Y-12697448D01*
X16130628Y-12697448D02*
X16140151Y-12706972D01*
X16140151Y-12706972D02*
X16149675Y-12726019D01*
X16149675Y-12726019D02*
X16149675Y-12773638D01*
X16149675Y-12773638D02*
X16140151Y-12792686D01*
X16140151Y-12792686D02*
X16130628Y-12802210D01*
X16130628Y-12802210D02*
X16111580Y-12811734D01*
X16111580Y-12811734D02*
X16054437Y-12811734D01*
X16054437Y-12811734D02*
X16035390Y-12802210D01*
X16035390Y-12802210D02*
X16025866Y-12792686D01*
X16387771Y-12811734D02*
X16387771Y-12611734D01*
X16473485Y-12811734D02*
X16473485Y-12706972D01*
X16473485Y-12706972D02*
X16463961Y-12687924D01*
X16463961Y-12687924D02*
X16444913Y-12678400D01*
X16444913Y-12678400D02*
X16416342Y-12678400D01*
X16416342Y-12678400D02*
X16397294Y-12687924D01*
X16397294Y-12687924D02*
X16387771Y-12697448D01*
X16597294Y-12811734D02*
X16578247Y-12802210D01*
X16578247Y-12802210D02*
X16568723Y-12792686D01*
X16568723Y-12792686D02*
X16559199Y-12773638D01*
X16559199Y-12773638D02*
X16559199Y-12716496D01*
X16559199Y-12716496D02*
X16568723Y-12697448D01*
X16568723Y-12697448D02*
X16578247Y-12687924D01*
X16578247Y-12687924D02*
X16597294Y-12678400D01*
X16597294Y-12678400D02*
X16625866Y-12678400D01*
X16625866Y-12678400D02*
X16644913Y-12687924D01*
X16644913Y-12687924D02*
X16654437Y-12697448D01*
X16654437Y-12697448D02*
X16663961Y-12716496D01*
X16663961Y-12716496D02*
X16663961Y-12773638D01*
X16663961Y-12773638D02*
X16654437Y-12792686D01*
X16654437Y-12792686D02*
X16644913Y-12802210D01*
X16644913Y-12802210D02*
X16625866Y-12811734D01*
X16625866Y-12811734D02*
X16597294Y-12811734D01*
X16778247Y-12811734D02*
X16759199Y-12802210D01*
X16759199Y-12802210D02*
X16749675Y-12783162D01*
X16749675Y-12783162D02*
X16749675Y-12611734D01*
X16930628Y-12802210D02*
X16911580Y-12811734D01*
X16911580Y-12811734D02*
X16873485Y-12811734D01*
X16873485Y-12811734D02*
X16854437Y-12802210D01*
X16854437Y-12802210D02*
X16844914Y-12783162D01*
X16844914Y-12783162D02*
X16844914Y-12706972D01*
X16844914Y-12706972D02*
X16854437Y-12687924D01*
X16854437Y-12687924D02*
X16873485Y-12678400D01*
X16873485Y-12678400D02*
X16911580Y-12678400D01*
X16911580Y-12678400D02*
X16930628Y-12687924D01*
X16930628Y-12687924D02*
X16940152Y-12706972D01*
X16940152Y-12706972D02*
X16940152Y-12726019D01*
X16940152Y-12726019D02*
X16844914Y-12745067D01*
X17016342Y-12802210D02*
X17035390Y-12811734D01*
X17035390Y-12811734D02*
X17073485Y-12811734D01*
X17073485Y-12811734D02*
X17092533Y-12802210D01*
X17092533Y-12802210D02*
X17102056Y-12783162D01*
X17102056Y-12783162D02*
X17102056Y-12773638D01*
X17102056Y-12773638D02*
X17092533Y-12754591D01*
X17092533Y-12754591D02*
X17073485Y-12745067D01*
X17073485Y-12745067D02*
X17044914Y-12745067D01*
X17044914Y-12745067D02*
X17025866Y-12735543D01*
X17025866Y-12735543D02*
X17016342Y-12716496D01*
X17016342Y-12716496D02*
X17016342Y-12706972D01*
X17016342Y-12706972D02*
X17025866Y-12687924D01*
X17025866Y-12687924D02*
X17044914Y-12678400D01*
X17044914Y-12678400D02*
X17073485Y-12678400D01*
X17073485Y-12678400D02*
X17092533Y-12687924D01*
X17168723Y-12887924D02*
X17178247Y-12878400D01*
X17178247Y-12878400D02*
X17197295Y-12849829D01*
X17197295Y-12849829D02*
X17206818Y-12830781D01*
X17206818Y-12830781D02*
X17216342Y-12802210D01*
X17216342Y-12802210D02*
X17225866Y-12754591D01*
X17225866Y-12754591D02*
X17225866Y-12716496D01*
X17225866Y-12716496D02*
X17216342Y-12668876D01*
X17216342Y-12668876D02*
X17206818Y-12640305D01*
X17206818Y-12640305D02*
X17197295Y-12621257D01*
X17197295Y-12621257D02*
X17178247Y-12592686D01*
X17178247Y-12592686D02*
X17168723Y-12583162D01*
M02*
