G04 #@! TF.GenerationSoftware,KiCad,Pcbnew,10.0.5-unknown-202607221313~667fa36054~ubuntu25.10.1*
G04 #@! TF.CreationDate,2026-07-30T22:10:57+00:00*
G04 #@! TF.ProjectId,xESC2,78455343-322e-46b6-9963-61645f706362,rev?*
G04 #@! TF.SameCoordinates,Original*
G04 #@! TF.FileFunction,Legend,Bot*
G04 #@! TF.FilePolarity,Positive*
%FSLAX46Y46*%
G04 Gerber Fmt 4.6, Leading zero omitted, Abs format (unit mm)*
G04 Created by KiCad (PCBNEW 10.0.5-unknown-202607221313~667fa36054~ubuntu25.10.1) date 2026-07-30 22:10:57*
%MOMM*%
%LPD*%
G01*
G04 APERTURE LIST*
%ADD10C,0.150000*%
%ADD11C,0.120000*%
%ADD12C,0.100000*%
%ADD13C,0.200000*%
%ADD14C,0.060000*%
%ADD15R,0.840000X0.840000*%
%ADD16C,0.840000*%
%ADD17O,1.850000X0.850000*%
%ADD18R,1.700000X1.700000*%
%ADD19O,1.700000X1.700000*%
%ADD20R,0.279400X1.340599*%
%ADD21R,1.340599X0.279400*%
%ADD22R,5.003800X5.003800*%
%ADD23R,1.060000X0.650000*%
%ADD24R,1.600000X3.900000*%
G04 APERTURE END LIST*
D10*
X143092658Y-101148298D02*
X143330753Y-101148298D01*
X143235515Y-100910203D02*
X143330753Y-101148298D01*
X143330753Y-101148298D02*
X143235515Y-101386393D01*
X143521229Y-101005441D02*
X143330753Y-101148298D01*
X143330753Y-101148298D02*
X143521229Y-101291155D01*
X143092658Y-101148298D02*
X143330753Y-101148298D01*
X143235515Y-100910203D02*
X143330753Y-101148298D01*
X143330753Y-101148298D02*
X143235515Y-101386393D01*
X143521229Y-101005441D02*
X143330753Y-101148298D01*
X143330753Y-101148298D02*
X143521229Y-101291155D01*
D11*
X149494097Y-101194999D02*
X149019581Y-101194999D01*
X149494097Y-102239999D02*
X149019581Y-102239999D01*
X139046839Y-102309663D02*
X139046839Y-102525335D01*
X139766839Y-102309663D02*
X139766839Y-102525335D01*
X134696839Y-100625335D02*
X134696839Y-100409663D01*
X135416839Y-100625335D02*
X135416839Y-100409663D01*
X137666259Y-86807499D02*
X137947419Y-86807499D01*
X137666259Y-87827499D02*
X137947419Y-87827499D01*
X152816259Y-93207499D02*
X153097419Y-93207499D01*
X152816259Y-94227499D02*
X153097419Y-94227499D01*
X152816259Y-89207499D02*
X153097419Y-89207499D01*
X152816259Y-90227499D02*
X153097419Y-90227499D01*
X149494097Y-95194999D02*
X149019581Y-95194999D01*
X149494097Y-96239999D02*
X149019581Y-96239999D01*
X149494097Y-97194999D02*
X149019581Y-97194999D01*
X149494097Y-98239999D02*
X149019581Y-98239999D01*
X163633903Y-94007499D02*
X159279775Y-94007499D01*
X163633903Y-97427499D02*
X159279775Y-97427499D01*
X149494097Y-93194999D02*
X149019581Y-93194999D01*
X149494097Y-94239999D02*
X149019581Y-94239999D01*
X149494097Y-87194999D02*
X149019581Y-87194999D01*
X149494097Y-88239999D02*
X149019581Y-88239999D01*
X149494097Y-85194999D02*
X149019581Y-85194999D01*
X149494097Y-86239999D02*
X149019581Y-86239999D01*
X163633903Y-86307499D02*
X159279775Y-86307499D01*
X163633903Y-89727499D02*
X159279775Y-89727499D01*
X136210480Y-104287499D02*
X135903198Y-104287499D01*
X136210480Y-105047499D02*
X135903198Y-105047499D01*
X136210480Y-103187499D02*
X135903198Y-103187499D01*
X136210480Y-103947499D02*
X135903198Y-103947499D01*
X136210480Y-102087499D02*
X135903198Y-102087499D01*
X136210480Y-102847499D02*
X135903198Y-102847499D01*
X134726839Y-89171140D02*
X134726839Y-88863858D01*
X135486839Y-89171140D02*
X135486839Y-88863858D01*
X149494097Y-105194999D02*
X149019581Y-105194999D01*
X149494097Y-106239999D02*
X149019581Y-106239999D01*
X163633903Y-101557499D02*
X159279775Y-101557499D01*
X163633903Y-104977499D02*
X159279775Y-104977499D01*
X142318091Y-87182499D02*
X141795587Y-87182499D01*
X142318091Y-88652499D02*
X141795587Y-88652499D01*
X141795587Y-85182499D02*
X142318091Y-85182499D01*
X141795587Y-86652499D02*
X142318091Y-86652499D01*
X153097419Y-103207499D02*
X152816259Y-103207499D01*
X153097419Y-104227499D02*
X152816259Y-104227499D01*
X153097419Y-95207499D02*
X152816259Y-95207499D01*
X153097419Y-96227499D02*
X152816259Y-96227499D01*
X155534339Y-96680241D02*
X155534339Y-97154757D01*
X156579339Y-96680241D02*
X156579339Y-97154757D01*
X153097419Y-87207499D02*
X152816259Y-87207499D01*
X153097419Y-88227499D02*
X152816259Y-88227499D01*
X153194097Y-105194999D02*
X152719581Y-105194999D01*
X153194097Y-106239999D02*
X152719581Y-106239999D01*
X153194097Y-85194999D02*
X152719581Y-85194999D01*
X153194097Y-86239999D02*
X152719581Y-86239999D01*
X155534339Y-103480241D02*
X155534339Y-103954757D01*
X156579339Y-103480241D02*
X156579339Y-103954757D01*
X153194097Y-97194999D02*
X152719581Y-97194999D01*
X153194097Y-98239999D02*
X152719581Y-98239999D01*
X129396839Y-86683080D02*
X129396839Y-86401918D01*
X130416839Y-86683080D02*
X130416839Y-86401918D01*
X133316258Y-90257499D02*
X133597420Y-90257499D01*
X133316258Y-91277499D02*
X133597420Y-91277499D01*
X122786839Y-86827499D02*
X122786839Y-97047499D01*
X125446839Y-84227499D02*
X124116839Y-84227499D01*
X125446839Y-85557499D02*
X125446839Y-84227499D01*
X125446839Y-86827499D02*
X122786839Y-86827499D01*
X125446839Y-86827499D02*
X125446839Y-97047499D01*
X125446839Y-97047499D02*
X122786839Y-97047499D01*
X122786839Y-81687499D02*
X122786839Y-83017499D01*
X124116839Y-81687499D02*
X122786839Y-81687499D01*
X125386839Y-81687499D02*
X125386839Y-84347499D01*
X125386839Y-81687499D02*
X130526839Y-81687499D01*
X125386839Y-84347499D02*
X130526839Y-84347499D01*
X130526839Y-81687499D02*
X130526839Y-84347499D01*
X146346839Y-95576919D02*
X146346839Y-95858079D01*
X147366839Y-95576919D02*
X147366839Y-95858079D01*
X146346839Y-103576919D02*
X146346839Y-103858079D01*
X147366839Y-103576919D02*
X147366839Y-103858079D01*
X146346839Y-87858079D02*
X146346839Y-87576919D01*
X147366839Y-87858079D02*
X147366839Y-87576919D01*
X136624639Y-92035299D02*
X137034399Y-92035299D01*
X136624639Y-92445059D02*
X136624639Y-92035299D01*
X136624639Y-99299699D02*
X136624639Y-98889939D01*
X137034399Y-99299699D02*
X136624639Y-99299699D01*
X143479279Y-92035299D02*
X143889039Y-92035299D01*
X143889039Y-92035299D02*
X143889039Y-92445059D01*
X143889039Y-98889939D02*
X143889039Y-99299699D01*
X143889039Y-99299699D02*
X143479279Y-99299699D01*
D12*
X135157040Y-95107998D02*
X134903040Y-95107998D01*
X134903040Y-94726998D01*
X135157040Y-94726998D01*
X135157040Y-95107998D01*
G36*
X135157040Y-95107998D02*
G01*
X134903040Y-95107998D01*
X134903040Y-94726998D01*
X135157040Y-94726998D01*
X135157040Y-95107998D01*
G37*
X138697340Y-101021298D02*
X138316340Y-101021298D01*
X138316340Y-100767298D01*
X138697340Y-100767298D01*
X138697340Y-101021298D01*
G36*
X138697340Y-101021298D02*
G01*
X138316340Y-101021298D01*
X138316340Y-100767298D01*
X138697340Y-100767298D01*
X138697340Y-101021298D01*
G37*
X140197340Y-90313700D02*
X139816339Y-90313700D01*
X139816339Y-90567700D01*
X140197340Y-90567700D01*
X140197340Y-90313700D01*
G36*
X140197340Y-90567700D02*
G01*
X139816339Y-90567700D01*
X139816339Y-90313700D01*
X140197340Y-90313700D01*
X140197340Y-90567700D01*
G37*
X145356638Y-94607999D02*
X145610638Y-94607999D01*
X145610638Y-94226999D01*
X145356638Y-94226999D01*
X145356638Y-94607999D01*
G36*
X145610638Y-94607999D02*
G01*
X145356638Y-94607999D01*
X145356638Y-94226999D01*
X145610638Y-94226999D01*
X145610638Y-94607999D01*
G37*
D11*
X149494097Y-103194999D02*
X149019581Y-103194999D01*
X149494097Y-104239999D02*
X149019581Y-104239999D01*
X155534339Y-86554757D02*
X155534339Y-86080241D01*
X156579339Y-86554757D02*
X156579339Y-86080241D01*
X149494097Y-89194999D02*
X149019581Y-89194999D01*
X149494097Y-90239999D02*
X149019581Y-90239999D01*
X130406839Y-81687499D02*
X130406839Y-83017499D01*
X131736839Y-81687499D02*
X130406839Y-81687499D01*
X133006839Y-81687499D02*
X133006839Y-84347499D01*
X133006839Y-81687499D02*
X145766839Y-81687499D01*
X133006839Y-84347499D02*
X145766839Y-84347499D01*
X145766839Y-81687499D02*
X145766839Y-84347499D01*
X122786839Y-107087499D02*
X122786839Y-108417499D01*
X124116839Y-107087499D02*
X122786839Y-107087499D01*
X125386839Y-107087499D02*
X125386839Y-109747499D01*
X125386839Y-107087499D02*
X135606839Y-107087499D01*
X125386839Y-109747499D02*
X135606839Y-109747499D01*
X135606839Y-107087499D02*
X135606839Y-109747499D01*
X152816259Y-101207499D02*
X153097419Y-101207499D01*
X152816259Y-102227499D02*
X153097419Y-102227499D01*
X132064675Y-98157499D02*
X131849003Y-98157499D01*
X132064675Y-98877499D02*
X131849003Y-98877499D01*
X131756839Y-85907499D02*
X134206839Y-85907499D01*
X133556839Y-89127499D02*
X131756839Y-89127499D01*
X126496839Y-93717499D02*
X126496839Y-91767499D01*
X126496839Y-93717499D02*
X126496839Y-95667499D01*
X131616839Y-93717499D02*
X131616839Y-91767499D01*
X131616839Y-93717499D02*
X131616839Y-97167499D01*
X155676839Y-89471140D02*
X155676839Y-89163858D01*
X156436839Y-89471140D02*
X156436839Y-89163858D01*
X155534339Y-94154757D02*
X155534339Y-93680241D01*
X156579339Y-94154757D02*
X156579339Y-93680241D01*
X155806839Y-81687499D02*
X155806839Y-83017499D01*
X157136839Y-81687499D02*
X155806839Y-81687499D01*
X158406839Y-81687499D02*
X158406839Y-84347499D01*
X158406839Y-81687499D02*
X171166839Y-81687499D01*
X158406839Y-84347499D02*
X171166839Y-84347499D01*
X171166839Y-81687499D02*
X171166839Y-84347499D01*
X155806839Y-107087499D02*
X155806839Y-108417499D01*
X157136839Y-107087499D02*
X155806839Y-107087499D01*
X158406839Y-107087499D02*
X158406839Y-109747499D01*
X158406839Y-107087499D02*
X171166839Y-107087499D01*
X158406839Y-109747499D02*
X171166839Y-109747499D01*
X171166839Y-107087499D02*
X171166839Y-109747499D01*
X165966839Y-85497499D02*
X171166839Y-85497499D01*
X165966839Y-88097499D02*
X165966839Y-85497499D01*
X165966839Y-88097499D02*
X168566839Y-88097499D01*
X165966839Y-89367499D02*
X165966839Y-90697499D01*
X165966839Y-90697499D02*
X167296839Y-90697499D01*
X168566839Y-88097499D02*
X168566839Y-90697499D01*
X168566839Y-90697499D02*
X171166839Y-90697499D01*
X171166839Y-90697499D02*
X171166839Y-85497499D01*
X165966839Y-93117499D02*
X171166839Y-93117499D01*
X165966839Y-95717499D02*
X165966839Y-93117499D01*
X165966839Y-95717499D02*
X168566839Y-95717499D01*
X165966839Y-96987499D02*
X165966839Y-98317499D01*
X165966839Y-98317499D02*
X167296839Y-98317499D01*
X168566839Y-95717499D02*
X168566839Y-98317499D01*
X168566839Y-98317499D02*
X171166839Y-98317499D01*
X171166839Y-98317499D02*
X171166839Y-93117499D01*
X165966839Y-100737499D02*
X171166839Y-100737499D01*
X165966839Y-103337499D02*
X165966839Y-100737499D01*
X165966839Y-103337499D02*
X168566839Y-103337499D01*
X165966839Y-104607499D02*
X165966839Y-105937499D01*
X165966839Y-105937499D02*
X167296839Y-105937499D01*
X168566839Y-103337499D02*
X168566839Y-105937499D01*
X168566839Y-105937499D02*
X171166839Y-105937499D01*
X171166839Y-105937499D02*
X171166839Y-100737499D01*
X128210480Y-89037499D02*
X127903198Y-89037499D01*
X128210480Y-89797499D02*
X127903198Y-89797499D01*
X136849003Y-88707499D02*
X137064675Y-88707499D01*
X136849003Y-89427499D02*
X137064675Y-89427499D01*
X141014675Y-101757499D02*
X140799003Y-101757499D01*
X141014675Y-102477499D02*
X140799003Y-102477499D01*
X132007587Y-104977499D02*
X133341839Y-104977499D01*
X133341839Y-102757499D02*
X131871839Y-102757499D01*
X131716839Y-104987499D02*
X131576839Y-105177499D01*
X131856839Y-105177499D01*
X131716839Y-104987499D01*
G36*
X131856839Y-105177499D02*
G01*
X131576839Y-105177499D01*
X131716839Y-104987499D01*
X131856839Y-105177499D01*
G37*
X143161253Y-102965000D02*
X142638747Y-102965000D01*
X143161253Y-104435000D02*
X142638747Y-104435000D01*
D13*
X144356839Y-104917499D02*
X140356839Y-104917499D01*
X144356839Y-109117499D02*
X140356839Y-109117499D01*
D14*
X144386839Y-109017499D02*
G75*
G02*
X144326839Y-109017499I-30000J0D01*
G01*
X144326839Y-109017499D02*
G75*
G02*
X144386839Y-109017499I30000J0D01*
G01*
D11*
X138576838Y-106835120D02*
X138576838Y-106499878D01*
X139336840Y-106835120D02*
X139336840Y-106499878D01*
X132426839Y-100363858D02*
X132426839Y-100671140D01*
X133186839Y-100363858D02*
X133186839Y-100671140D01*
X138553641Y-108220000D02*
X138246359Y-108220000D01*
X138553641Y-108980000D02*
X138246359Y-108980000D01*
X133576839Y-100671140D02*
X133576839Y-100363858D01*
X134336839Y-100671140D02*
X134336839Y-100363858D01*
%LPC*%
D15*
X124276839Y-101342499D03*
D16*
X123276839Y-101992499D03*
X124276839Y-102642499D03*
X123276839Y-103292499D03*
X124276839Y-103942499D03*
D17*
X123976839Y-99067499D03*
X123976839Y-106217499D03*
G36*
G01*
X150481839Y-101442499D02*
X150481839Y-101992499D01*
G75*
G02*
X150281839Y-102192499I-200000J0D01*
G01*
X149881839Y-102192499D01*
G75*
G02*
X149681839Y-101992499I0J200000D01*
G01*
X149681839Y-101442499D01*
G75*
G02*
X149881839Y-101242499I200000J0D01*
G01*
X150281839Y-101242499D01*
G75*
G02*
X150481839Y-101442499I0J-200000D01*
G01*
G37*
G36*
G01*
X148831839Y-101442499D02*
X148831839Y-101992499D01*
G75*
G02*
X148631839Y-102192499I-200000J0D01*
G01*
X148231839Y-102192499D01*
G75*
G02*
X148031839Y-101992499I0J200000D01*
G01*
X148031839Y-101442499D01*
G75*
G02*
X148231839Y-101242499I200000J0D01*
G01*
X148631839Y-101242499D01*
G75*
G02*
X148831839Y-101442499I0J-200000D01*
G01*
G37*
G36*
G01*
X139236839Y-101657499D02*
X139576839Y-101657499D01*
G75*
G02*
X139716839Y-101797499I0J-140000D01*
G01*
X139716839Y-102077499D01*
G75*
G02*
X139576839Y-102217499I-140000J0D01*
G01*
X139236839Y-102217499D01*
G75*
G02*
X139096839Y-102077499I0J140000D01*
G01*
X139096839Y-101797499D01*
G75*
G02*
X139236839Y-101657499I140000J0D01*
G01*
G37*
G36*
G01*
X139236839Y-102617499D02*
X139576839Y-102617499D01*
G75*
G02*
X139716839Y-102757499I0J-140000D01*
G01*
X139716839Y-103037499D01*
G75*
G02*
X139576839Y-103177499I-140000J0D01*
G01*
X139236839Y-103177499D01*
G75*
G02*
X139096839Y-103037499I0J140000D01*
G01*
X139096839Y-102757499D01*
G75*
G02*
X139236839Y-102617499I140000J0D01*
G01*
G37*
G36*
G01*
X135226839Y-101277499D02*
X134886839Y-101277499D01*
G75*
G02*
X134746839Y-101137499I0J140000D01*
G01*
X134746839Y-100857499D01*
G75*
G02*
X134886839Y-100717499I140000J0D01*
G01*
X135226839Y-100717499D01*
G75*
G02*
X135366839Y-100857499I0J-140000D01*
G01*
X135366839Y-101137499D01*
G75*
G02*
X135226839Y-101277499I-140000J0D01*
G01*
G37*
G36*
G01*
X135226839Y-100317499D02*
X134886839Y-100317499D01*
G75*
G02*
X134746839Y-100177499I0J140000D01*
G01*
X134746839Y-99897499D01*
G75*
G02*
X134886839Y-99757499I140000J0D01*
G01*
X135226839Y-99757499D01*
G75*
G02*
X135366839Y-99897499I0J-140000D01*
G01*
X135366839Y-100177499D01*
G75*
G02*
X135226839Y-100317499I-140000J0D01*
G01*
G37*
G36*
G01*
X136581839Y-87567499D02*
X136581839Y-87067499D01*
G75*
G02*
X136806839Y-86842499I225000J0D01*
G01*
X137256839Y-86842499D01*
G75*
G02*
X137481839Y-87067499I0J-225000D01*
G01*
X137481839Y-87567499D01*
G75*
G02*
X137256839Y-87792499I-225000J0D01*
G01*
X136806839Y-87792499D01*
G75*
G02*
X136581839Y-87567499I0J225000D01*
G01*
G37*
G36*
G01*
X138131839Y-87567499D02*
X138131839Y-87067499D01*
G75*
G02*
X138356839Y-86842499I225000J0D01*
G01*
X138806839Y-86842499D01*
G75*
G02*
X139031839Y-87067499I0J-225000D01*
G01*
X139031839Y-87567499D01*
G75*
G02*
X138806839Y-87792499I-225000J0D01*
G01*
X138356839Y-87792499D01*
G75*
G02*
X138131839Y-87567499I0J225000D01*
G01*
G37*
G36*
G01*
X151731839Y-93967499D02*
X151731839Y-93467499D01*
G75*
G02*
X151956839Y-93242499I225000J0D01*
G01*
X152406839Y-93242499D01*
G75*
G02*
X152631839Y-93467499I0J-225000D01*
G01*
X152631839Y-93967499D01*
G75*
G02*
X152406839Y-94192499I-225000J0D01*
G01*
X151956839Y-94192499D01*
G75*
G02*
X151731839Y-93967499I0J225000D01*
G01*
G37*
G36*
G01*
X153281839Y-93967499D02*
X153281839Y-93467499D01*
G75*
G02*
X153506839Y-93242499I225000J0D01*
G01*
X153956839Y-93242499D01*
G75*
G02*
X154181839Y-93467499I0J-225000D01*
G01*
X154181839Y-93967499D01*
G75*
G02*
X153956839Y-94192499I-225000J0D01*
G01*
X153506839Y-94192499D01*
G75*
G02*
X153281839Y-93967499I0J225000D01*
G01*
G37*
G36*
G01*
X151731839Y-89967499D02*
X151731839Y-89467499D01*
G75*
G02*
X151956839Y-89242499I225000J0D01*
G01*
X152406839Y-89242499D01*
G75*
G02*
X152631839Y-89467499I0J-225000D01*
G01*
X152631839Y-89967499D01*
G75*
G02*
X152406839Y-90192499I-225000J0D01*
G01*
X151956839Y-90192499D01*
G75*
G02*
X151731839Y-89967499I0J225000D01*
G01*
G37*
G36*
G01*
X153281839Y-89967499D02*
X153281839Y-89467499D01*
G75*
G02*
X153506839Y-89242499I225000J0D01*
G01*
X153956839Y-89242499D01*
G75*
G02*
X154181839Y-89467499I0J-225000D01*
G01*
X154181839Y-89967499D01*
G75*
G02*
X153956839Y-90192499I-225000J0D01*
G01*
X153506839Y-90192499D01*
G75*
G02*
X153281839Y-89967499I0J225000D01*
G01*
G37*
G36*
G01*
X150481839Y-95442499D02*
X150481839Y-95992499D01*
G75*
G02*
X150281839Y-96192499I-200000J0D01*
G01*
X149881839Y-96192499D01*
G75*
G02*
X149681839Y-95992499I0J200000D01*
G01*
X149681839Y-95442499D01*
G75*
G02*
X149881839Y-95242499I200000J0D01*
G01*
X150281839Y-95242499D01*
G75*
G02*
X150481839Y-95442499I0J-200000D01*
G01*
G37*
G36*
G01*
X148831839Y-95442499D02*
X148831839Y-95992499D01*
G75*
G02*
X148631839Y-96192499I-200000J0D01*
G01*
X148231839Y-96192499D01*
G75*
G02*
X148031839Y-95992499I0J200000D01*
G01*
X148031839Y-95442499D01*
G75*
G02*
X148231839Y-95242499I200000J0D01*
G01*
X148631839Y-95242499D01*
G75*
G02*
X148831839Y-95442499I0J-200000D01*
G01*
G37*
G36*
G01*
X150481839Y-97442499D02*
X150481839Y-97992499D01*
G75*
G02*
X150281839Y-98192499I-200000J0D01*
G01*
X149881839Y-98192499D01*
G75*
G02*
X149681839Y-97992499I0J200000D01*
G01*
X149681839Y-97442499D01*
G75*
G02*
X149881839Y-97242499I200000J0D01*
G01*
X150281839Y-97242499D01*
G75*
G02*
X150481839Y-97442499I0J-200000D01*
G01*
G37*
G36*
G01*
X148831839Y-97442499D02*
X148831839Y-97992499D01*
G75*
G02*
X148631839Y-98192499I-200000J0D01*
G01*
X148231839Y-98192499D01*
G75*
G02*
X148031839Y-97992499I0J200000D01*
G01*
X148031839Y-97442499D01*
G75*
G02*
X148231839Y-97242499I200000J0D01*
G01*
X148631839Y-97242499D01*
G75*
G02*
X148831839Y-97442499I0J-200000D01*
G01*
G37*
G36*
G01*
X165031839Y-94292498D02*
X165031839Y-97142500D01*
G75*
G02*
X164781840Y-97392499I-249999J0D01*
G01*
X164056838Y-97392499D01*
G75*
G02*
X163806839Y-97142500I0J249999D01*
G01*
X163806839Y-94292498D01*
G75*
G02*
X164056838Y-94042499I249999J0D01*
G01*
X164781840Y-94042499D01*
G75*
G02*
X165031839Y-94292498I0J-249999D01*
G01*
G37*
G36*
G01*
X159106839Y-94292498D02*
X159106839Y-97142500D01*
G75*
G02*
X158856840Y-97392499I-249999J0D01*
G01*
X158131838Y-97392499D01*
G75*
G02*
X157881839Y-97142500I0J249999D01*
G01*
X157881839Y-94292498D01*
G75*
G02*
X158131838Y-94042499I249999J0D01*
G01*
X158856840Y-94042499D01*
G75*
G02*
X159106839Y-94292498I0J-249999D01*
G01*
G37*
G36*
G01*
X150481839Y-93442499D02*
X150481839Y-93992499D01*
G75*
G02*
X150281839Y-94192499I-200000J0D01*
G01*
X149881839Y-94192499D01*
G75*
G02*
X149681839Y-93992499I0J200000D01*
G01*
X149681839Y-93442499D01*
G75*
G02*
X149881839Y-93242499I200000J0D01*
G01*
X150281839Y-93242499D01*
G75*
G02*
X150481839Y-93442499I0J-200000D01*
G01*
G37*
G36*
G01*
X148831839Y-93442499D02*
X148831839Y-93992499D01*
G75*
G02*
X148631839Y-94192499I-200000J0D01*
G01*
X148231839Y-94192499D01*
G75*
G02*
X148031839Y-93992499I0J200000D01*
G01*
X148031839Y-93442499D01*
G75*
G02*
X148231839Y-93242499I200000J0D01*
G01*
X148631839Y-93242499D01*
G75*
G02*
X148831839Y-93442499I0J-200000D01*
G01*
G37*
G36*
G01*
X150481839Y-87442499D02*
X150481839Y-87992499D01*
G75*
G02*
X150281839Y-88192499I-200000J0D01*
G01*
X149881839Y-88192499D01*
G75*
G02*
X149681839Y-87992499I0J200000D01*
G01*
X149681839Y-87442499D01*
G75*
G02*
X149881839Y-87242499I200000J0D01*
G01*
X150281839Y-87242499D01*
G75*
G02*
X150481839Y-87442499I0J-200000D01*
G01*
G37*
G36*
G01*
X148831839Y-87442499D02*
X148831839Y-87992499D01*
G75*
G02*
X148631839Y-88192499I-200000J0D01*
G01*
X148231839Y-88192499D01*
G75*
G02*
X148031839Y-87992499I0J200000D01*
G01*
X148031839Y-87442499D01*
G75*
G02*
X148231839Y-87242499I200000J0D01*
G01*
X148631839Y-87242499D01*
G75*
G02*
X148831839Y-87442499I0J-200000D01*
G01*
G37*
G36*
G01*
X150481839Y-85442499D02*
X150481839Y-85992499D01*
G75*
G02*
X150281839Y-86192499I-200000J0D01*
G01*
X149881839Y-86192499D01*
G75*
G02*
X149681839Y-85992499I0J200000D01*
G01*
X149681839Y-85442499D01*
G75*
G02*
X149881839Y-85242499I200000J0D01*
G01*
X150281839Y-85242499D01*
G75*
G02*
X150481839Y-85442499I0J-200000D01*
G01*
G37*
G36*
G01*
X148831839Y-85442499D02*
X148831839Y-85992499D01*
G75*
G02*
X148631839Y-86192499I-200000J0D01*
G01*
X148231839Y-86192499D01*
G75*
G02*
X148031839Y-85992499I0J200000D01*
G01*
X148031839Y-85442499D01*
G75*
G02*
X148231839Y-85242499I200000J0D01*
G01*
X148631839Y-85242499D01*
G75*
G02*
X148831839Y-85442499I0J-200000D01*
G01*
G37*
G36*
G01*
X165031839Y-86592498D02*
X165031839Y-89442500D01*
G75*
G02*
X164781840Y-89692499I-249999J0D01*
G01*
X164056838Y-89692499D01*
G75*
G02*
X163806839Y-89442500I0J249999D01*
G01*
X163806839Y-86592498D01*
G75*
G02*
X164056838Y-86342499I249999J0D01*
G01*
X164781840Y-86342499D01*
G75*
G02*
X165031839Y-86592498I0J-249999D01*
G01*
G37*
G36*
G01*
X159106839Y-86592498D02*
X159106839Y-89442500D01*
G75*
G02*
X158856840Y-89692499I-249999J0D01*
G01*
X158131838Y-89692499D01*
G75*
G02*
X157881839Y-89442500I0J249999D01*
G01*
X157881839Y-86592498D01*
G75*
G02*
X158131838Y-86342499I249999J0D01*
G01*
X158856840Y-86342499D01*
G75*
G02*
X159106839Y-86592498I0J-249999D01*
G01*
G37*
G36*
G01*
X136836839Y-104482499D02*
X136836839Y-104852499D01*
G75*
G02*
X136701839Y-104987499I-135000J0D01*
G01*
X136431839Y-104987499D01*
G75*
G02*
X136296839Y-104852499I0J135000D01*
G01*
X136296839Y-104482499D01*
G75*
G02*
X136431839Y-104347499I135000J0D01*
G01*
X136701839Y-104347499D01*
G75*
G02*
X136836839Y-104482499I0J-135000D01*
G01*
G37*
G36*
G01*
X135816839Y-104482499D02*
X135816839Y-104852499D01*
G75*
G02*
X135681839Y-104987499I-135000J0D01*
G01*
X135411839Y-104987499D01*
G75*
G02*
X135276839Y-104852499I0J135000D01*
G01*
X135276839Y-104482499D01*
G75*
G02*
X135411839Y-104347499I135000J0D01*
G01*
X135681839Y-104347499D01*
G75*
G02*
X135816839Y-104482499I0J-135000D01*
G01*
G37*
G36*
G01*
X136836839Y-103382499D02*
X136836839Y-103752499D01*
G75*
G02*
X136701839Y-103887499I-135000J0D01*
G01*
X136431839Y-103887499D01*
G75*
G02*
X136296839Y-103752499I0J135000D01*
G01*
X136296839Y-103382499D01*
G75*
G02*
X136431839Y-103247499I135000J0D01*
G01*
X136701839Y-103247499D01*
G75*
G02*
X136836839Y-103382499I0J-135000D01*
G01*
G37*
G36*
G01*
X135816839Y-103382499D02*
X135816839Y-103752499D01*
G75*
G02*
X135681839Y-103887499I-135000J0D01*
G01*
X135411839Y-103887499D01*
G75*
G02*
X135276839Y-103752499I0J135000D01*
G01*
X135276839Y-103382499D01*
G75*
G02*
X135411839Y-103247499I135000J0D01*
G01*
X135681839Y-103247499D01*
G75*
G02*
X135816839Y-103382499I0J-135000D01*
G01*
G37*
G36*
G01*
X136836839Y-102282499D02*
X136836839Y-102652499D01*
G75*
G02*
X136701839Y-102787499I-135000J0D01*
G01*
X136431839Y-102787499D01*
G75*
G02*
X136296839Y-102652499I0J135000D01*
G01*
X136296839Y-102282499D01*
G75*
G02*
X136431839Y-102147499I135000J0D01*
G01*
X136701839Y-102147499D01*
G75*
G02*
X136836839Y-102282499I0J-135000D01*
G01*
G37*
G36*
G01*
X135816839Y-102282499D02*
X135816839Y-102652499D01*
G75*
G02*
X135681839Y-102787499I-135000J0D01*
G01*
X135411839Y-102787499D01*
G75*
G02*
X135276839Y-102652499I0J135000D01*
G01*
X135276839Y-102282499D01*
G75*
G02*
X135411839Y-102147499I135000J0D01*
G01*
X135681839Y-102147499D01*
G75*
G02*
X135816839Y-102282499I0J-135000D01*
G01*
G37*
G36*
G01*
X135291839Y-89797498D02*
X134921839Y-89797498D01*
G75*
G02*
X134786839Y-89662498I0J135000D01*
G01*
X134786839Y-89392498D01*
G75*
G02*
X134921839Y-89257498I135000J0D01*
G01*
X135291839Y-89257498D01*
G75*
G02*
X135426839Y-89392498I0J-135000D01*
G01*
X135426839Y-89662498D01*
G75*
G02*
X135291839Y-89797498I-135000J0D01*
G01*
G37*
G36*
G01*
X135291839Y-88777500D02*
X134921839Y-88777500D01*
G75*
G02*
X134786839Y-88642500I0J135000D01*
G01*
X134786839Y-88372500D01*
G75*
G02*
X134921839Y-88237500I135000J0D01*
G01*
X135291839Y-88237500D01*
G75*
G02*
X135426839Y-88372500I0J-135000D01*
G01*
X135426839Y-88642500D01*
G75*
G02*
X135291839Y-88777500I-135000J0D01*
G01*
G37*
G36*
G01*
X150481839Y-105442499D02*
X150481839Y-105992499D01*
G75*
G02*
X150281839Y-106192499I-200000J0D01*
G01*
X149881839Y-106192499D01*
G75*
G02*
X149681839Y-105992499I0J200000D01*
G01*
X149681839Y-105442499D01*
G75*
G02*
X149881839Y-105242499I200000J0D01*
G01*
X150281839Y-105242499D01*
G75*
G02*
X150481839Y-105442499I0J-200000D01*
G01*
G37*
G36*
G01*
X148831839Y-105442499D02*
X148831839Y-105992499D01*
G75*
G02*
X148631839Y-106192499I-200000J0D01*
G01*
X148231839Y-106192499D01*
G75*
G02*
X148031839Y-105992499I0J200000D01*
G01*
X148031839Y-105442499D01*
G75*
G02*
X148231839Y-105242499I200000J0D01*
G01*
X148631839Y-105242499D01*
G75*
G02*
X148831839Y-105442499I0J-200000D01*
G01*
G37*
G36*
G01*
X165031839Y-101842498D02*
X165031839Y-104692500D01*
G75*
G02*
X164781840Y-104942499I-249999J0D01*
G01*
X164056838Y-104942499D01*
G75*
G02*
X163806839Y-104692500I0J249999D01*
G01*
X163806839Y-101842498D01*
G75*
G02*
X164056838Y-101592499I249999J0D01*
G01*
X164781840Y-101592499D01*
G75*
G02*
X165031839Y-101842498I0J-249999D01*
G01*
G37*
G36*
G01*
X159106839Y-101842498D02*
X159106839Y-104692500D01*
G75*
G02*
X158856840Y-104942499I-249999J0D01*
G01*
X158131838Y-104942499D01*
G75*
G02*
X157881839Y-104692500I0J249999D01*
G01*
X157881839Y-101842498D01*
G75*
G02*
X158131838Y-101592499I249999J0D01*
G01*
X158856840Y-101592499D01*
G75*
G02*
X159106839Y-101842498I0J-249999D01*
G01*
G37*
G36*
G01*
X143506839Y-87442499D02*
X143506839Y-88392499D01*
G75*
G02*
X143256839Y-88642499I-250000J0D01*
G01*
X142756839Y-88642499D01*
G75*
G02*
X142506839Y-88392499I0J250000D01*
G01*
X142506839Y-87442499D01*
G75*
G02*
X142756839Y-87192499I250000J0D01*
G01*
X143256839Y-87192499D01*
G75*
G02*
X143506839Y-87442499I0J-250000D01*
G01*
G37*
G36*
G01*
X141606839Y-87442499D02*
X141606839Y-88392499D01*
G75*
G02*
X141356839Y-88642499I-250000J0D01*
G01*
X140856839Y-88642499D01*
G75*
G02*
X140606839Y-88392499I0J250000D01*
G01*
X140606839Y-87442499D01*
G75*
G02*
X140856839Y-87192499I250000J0D01*
G01*
X141356839Y-87192499D01*
G75*
G02*
X141606839Y-87442499I0J-250000D01*
G01*
G37*
G36*
G01*
X140606839Y-86392499D02*
X140606839Y-85442499D01*
G75*
G02*
X140856839Y-85192499I250000J0D01*
G01*
X141356839Y-85192499D01*
G75*
G02*
X141606839Y-85442499I0J-250000D01*
G01*
X141606839Y-86392499D01*
G75*
G02*
X141356839Y-86642499I-250000J0D01*
G01*
X140856839Y-86642499D01*
G75*
G02*
X140606839Y-86392499I0J250000D01*
G01*
G37*
G36*
G01*
X142506839Y-86392499D02*
X142506839Y-85442499D01*
G75*
G02*
X142756839Y-85192499I250000J0D01*
G01*
X143256839Y-85192499D01*
G75*
G02*
X143506839Y-85442499I0J-250000D01*
G01*
X143506839Y-86392499D01*
G75*
G02*
X143256839Y-86642499I-250000J0D01*
G01*
X142756839Y-86642499D01*
G75*
G02*
X142506839Y-86392499I0J250000D01*
G01*
G37*
G36*
G01*
X154181839Y-103467499D02*
X154181839Y-103967499D01*
G75*
G02*
X153956839Y-104192499I-225000J0D01*
G01*
X153506839Y-104192499D01*
G75*
G02*
X153281839Y-103967499I0J225000D01*
G01*
X153281839Y-103467499D01*
G75*
G02*
X153506839Y-103242499I225000J0D01*
G01*
X153956839Y-103242499D01*
G75*
G02*
X154181839Y-103467499I0J-225000D01*
G01*
G37*
G36*
G01*
X152631839Y-103467499D02*
X152631839Y-103967499D01*
G75*
G02*
X152406839Y-104192499I-225000J0D01*
G01*
X151956839Y-104192499D01*
G75*
G02*
X151731839Y-103967499I0J225000D01*
G01*
X151731839Y-103467499D01*
G75*
G02*
X151956839Y-103242499I225000J0D01*
G01*
X152406839Y-103242499D01*
G75*
G02*
X152631839Y-103467499I0J-225000D01*
G01*
G37*
G36*
G01*
X154181839Y-95467499D02*
X154181839Y-95967499D01*
G75*
G02*
X153956839Y-96192499I-225000J0D01*
G01*
X153506839Y-96192499D01*
G75*
G02*
X153281839Y-95967499I0J225000D01*
G01*
X153281839Y-95467499D01*
G75*
G02*
X153506839Y-95242499I225000J0D01*
G01*
X153956839Y-95242499D01*
G75*
G02*
X154181839Y-95467499I0J-225000D01*
G01*
G37*
G36*
G01*
X152631839Y-95467499D02*
X152631839Y-95967499D01*
G75*
G02*
X152406839Y-96192499I-225000J0D01*
G01*
X151956839Y-96192499D01*
G75*
G02*
X151731839Y-95967499I0J225000D01*
G01*
X151731839Y-95467499D01*
G75*
G02*
X151956839Y-95242499I225000J0D01*
G01*
X152406839Y-95242499D01*
G75*
G02*
X152631839Y-95467499I0J-225000D01*
G01*
G37*
G36*
G01*
X155781839Y-95692499D02*
X156331839Y-95692499D01*
G75*
G02*
X156531839Y-95892499I0J-200000D01*
G01*
X156531839Y-96292499D01*
G75*
G02*
X156331839Y-96492499I-200000J0D01*
G01*
X155781839Y-96492499D01*
G75*
G02*
X155581839Y-96292499I0J200000D01*
G01*
X155581839Y-95892499D01*
G75*
G02*
X155781839Y-95692499I200000J0D01*
G01*
G37*
G36*
G01*
X155781839Y-97342499D02*
X156331839Y-97342499D01*
G75*
G02*
X156531839Y-97542499I0J-200000D01*
G01*
X156531839Y-97942499D01*
G75*
G02*
X156331839Y-98142499I-200000J0D01*
G01*
X155781839Y-98142499D01*
G75*
G02*
X155581839Y-97942499I0J200000D01*
G01*
X155581839Y-97542499D01*
G75*
G02*
X155781839Y-97342499I200000J0D01*
G01*
G37*
G36*
G01*
X154181839Y-87467499D02*
X154181839Y-87967499D01*
G75*
G02*
X153956839Y-88192499I-225000J0D01*
G01*
X153506839Y-88192499D01*
G75*
G02*
X153281839Y-87967499I0J225000D01*
G01*
X153281839Y-87467499D01*
G75*
G02*
X153506839Y-87242499I225000J0D01*
G01*
X153956839Y-87242499D01*
G75*
G02*
X154181839Y-87467499I0J-225000D01*
G01*
G37*
G36*
G01*
X152631839Y-87467499D02*
X152631839Y-87967499D01*
G75*
G02*
X152406839Y-88192499I-225000J0D01*
G01*
X151956839Y-88192499D01*
G75*
G02*
X151731839Y-87967499I0J225000D01*
G01*
X151731839Y-87467499D01*
G75*
G02*
X151956839Y-87242499I225000J0D01*
G01*
X152406839Y-87242499D01*
G75*
G02*
X152631839Y-87467499I0J-225000D01*
G01*
G37*
G36*
G01*
X154181839Y-105442499D02*
X154181839Y-105992499D01*
G75*
G02*
X153981839Y-106192499I-200000J0D01*
G01*
X153581839Y-106192499D01*
G75*
G02*
X153381839Y-105992499I0J200000D01*
G01*
X153381839Y-105442499D01*
G75*
G02*
X153581839Y-105242499I200000J0D01*
G01*
X153981839Y-105242499D01*
G75*
G02*
X154181839Y-105442499I0J-200000D01*
G01*
G37*
G36*
G01*
X152531839Y-105442499D02*
X152531839Y-105992499D01*
G75*
G02*
X152331839Y-106192499I-200000J0D01*
G01*
X151931839Y-106192499D01*
G75*
G02*
X151731839Y-105992499I0J200000D01*
G01*
X151731839Y-105442499D01*
G75*
G02*
X151931839Y-105242499I200000J0D01*
G01*
X152331839Y-105242499D01*
G75*
G02*
X152531839Y-105442499I0J-200000D01*
G01*
G37*
G36*
G01*
X154181839Y-85442499D02*
X154181839Y-85992499D01*
G75*
G02*
X153981839Y-86192499I-200000J0D01*
G01*
X153581839Y-86192499D01*
G75*
G02*
X153381839Y-85992499I0J200000D01*
G01*
X153381839Y-85442499D01*
G75*
G02*
X153581839Y-85242499I200000J0D01*
G01*
X153981839Y-85242499D01*
G75*
G02*
X154181839Y-85442499I0J-200000D01*
G01*
G37*
G36*
G01*
X152531839Y-85442499D02*
X152531839Y-85992499D01*
G75*
G02*
X152331839Y-86192499I-200000J0D01*
G01*
X151931839Y-86192499D01*
G75*
G02*
X151731839Y-85992499I0J200000D01*
G01*
X151731839Y-85442499D01*
G75*
G02*
X151931839Y-85242499I200000J0D01*
G01*
X152331839Y-85242499D01*
G75*
G02*
X152531839Y-85442499I0J-200000D01*
G01*
G37*
G36*
G01*
X155781839Y-102492499D02*
X156331839Y-102492499D01*
G75*
G02*
X156531839Y-102692499I0J-200000D01*
G01*
X156531839Y-103092499D01*
G75*
G02*
X156331839Y-103292499I-200000J0D01*
G01*
X155781839Y-103292499D01*
G75*
G02*
X155581839Y-103092499I0J200000D01*
G01*
X155581839Y-102692499D01*
G75*
G02*
X155781839Y-102492499I200000J0D01*
G01*
G37*
G36*
G01*
X155781839Y-104142499D02*
X156331839Y-104142499D01*
G75*
G02*
X156531839Y-104342499I0J-200000D01*
G01*
X156531839Y-104742499D01*
G75*
G02*
X156331839Y-104942499I-200000J0D01*
G01*
X155781839Y-104942499D01*
G75*
G02*
X155581839Y-104742499I0J200000D01*
G01*
X155581839Y-104342499D01*
G75*
G02*
X155781839Y-104142499I200000J0D01*
G01*
G37*
G36*
G01*
X154181839Y-97442499D02*
X154181839Y-97992499D01*
G75*
G02*
X153981839Y-98192499I-200000J0D01*
G01*
X153581839Y-98192499D01*
G75*
G02*
X153381839Y-97992499I0J200000D01*
G01*
X153381839Y-97442499D01*
G75*
G02*
X153581839Y-97242499I200000J0D01*
G01*
X153981839Y-97242499D01*
G75*
G02*
X154181839Y-97442499I0J-200000D01*
G01*
G37*
G36*
G01*
X152531839Y-97442499D02*
X152531839Y-97992499D01*
G75*
G02*
X152331839Y-98192499I-200000J0D01*
G01*
X151931839Y-98192499D01*
G75*
G02*
X151731839Y-97992499I0J200000D01*
G01*
X151731839Y-97442499D01*
G75*
G02*
X151931839Y-97242499I200000J0D01*
G01*
X152331839Y-97242499D01*
G75*
G02*
X152531839Y-97442499I0J-200000D01*
G01*
G37*
G36*
G01*
X130156839Y-87767499D02*
X129656839Y-87767499D01*
G75*
G02*
X129431839Y-87542499I0J225000D01*
G01*
X129431839Y-87092499D01*
G75*
G02*
X129656839Y-86867499I225000J0D01*
G01*
X130156839Y-86867499D01*
G75*
G02*
X130381839Y-87092499I0J-225000D01*
G01*
X130381839Y-87542499D01*
G75*
G02*
X130156839Y-87767499I-225000J0D01*
G01*
G37*
G36*
G01*
X130156839Y-86217499D02*
X129656839Y-86217499D01*
G75*
G02*
X129431839Y-85992499I0J225000D01*
G01*
X129431839Y-85542499D01*
G75*
G02*
X129656839Y-85317499I225000J0D01*
G01*
X130156839Y-85317499D01*
G75*
G02*
X130381839Y-85542499I0J-225000D01*
G01*
X130381839Y-85992499D01*
G75*
G02*
X130156839Y-86217499I-225000J0D01*
G01*
G37*
G36*
G01*
X132231839Y-91017499D02*
X132231839Y-90517499D01*
G75*
G02*
X132456839Y-90292499I225000J0D01*
G01*
X132906839Y-90292499D01*
G75*
G02*
X133131839Y-90517499I0J-225000D01*
G01*
X133131839Y-91017499D01*
G75*
G02*
X132906839Y-91242499I-225000J0D01*
G01*
X132456839Y-91242499D01*
G75*
G02*
X132231839Y-91017499I0J225000D01*
G01*
G37*
G36*
G01*
X133781839Y-91017499D02*
X133781839Y-90517499D01*
G75*
G02*
X134006839Y-90292499I225000J0D01*
G01*
X134456839Y-90292499D01*
G75*
G02*
X134681839Y-90517499I0J-225000D01*
G01*
X134681839Y-91017499D01*
G75*
G02*
X134456839Y-91242499I-225000J0D01*
G01*
X134006839Y-91242499D01*
G75*
G02*
X133781839Y-91017499I0J225000D01*
G01*
G37*
D18*
X124116839Y-85557499D03*
D19*
X124116839Y-88097499D03*
X124116839Y-90637499D03*
X124116839Y-93177499D03*
X124116839Y-95717499D03*
D18*
X124116839Y-83017499D03*
D19*
X126656839Y-83017499D03*
X129196839Y-83017499D03*
G36*
G01*
X146606839Y-94492499D02*
X147106839Y-94492499D01*
G75*
G02*
X147331839Y-94717499I0J-225000D01*
G01*
X147331839Y-95167499D01*
G75*
G02*
X147106839Y-95392499I-225000J0D01*
G01*
X146606839Y-95392499D01*
G75*
G02*
X146381839Y-95167499I0J225000D01*
G01*
X146381839Y-94717499D01*
G75*
G02*
X146606839Y-94492499I225000J0D01*
G01*
G37*
G36*
G01*
X146606839Y-96042499D02*
X147106839Y-96042499D01*
G75*
G02*
X147331839Y-96267499I0J-225000D01*
G01*
X147331839Y-96717499D01*
G75*
G02*
X147106839Y-96942499I-225000J0D01*
G01*
X146606839Y-96942499D01*
G75*
G02*
X146381839Y-96717499I0J225000D01*
G01*
X146381839Y-96267499D01*
G75*
G02*
X146606839Y-96042499I225000J0D01*
G01*
G37*
G36*
G01*
X146606839Y-102492499D02*
X147106839Y-102492499D01*
G75*
G02*
X147331839Y-102717499I0J-225000D01*
G01*
X147331839Y-103167499D01*
G75*
G02*
X147106839Y-103392499I-225000J0D01*
G01*
X146606839Y-103392499D01*
G75*
G02*
X146381839Y-103167499I0J225000D01*
G01*
X146381839Y-102717499D01*
G75*
G02*
X146606839Y-102492499I225000J0D01*
G01*
G37*
G36*
G01*
X146606839Y-104042499D02*
X147106839Y-104042499D01*
G75*
G02*
X147331839Y-104267499I0J-225000D01*
G01*
X147331839Y-104717499D01*
G75*
G02*
X147106839Y-104942499I-225000J0D01*
G01*
X146606839Y-104942499D01*
G75*
G02*
X146381839Y-104717499I0J225000D01*
G01*
X146381839Y-104267499D01*
G75*
G02*
X146606839Y-104042499I225000J0D01*
G01*
G37*
G36*
G01*
X147106839Y-88942499D02*
X146606839Y-88942499D01*
G75*
G02*
X146381839Y-88717499I0J225000D01*
G01*
X146381839Y-88267499D01*
G75*
G02*
X146606839Y-88042499I225000J0D01*
G01*
X147106839Y-88042499D01*
G75*
G02*
X147331839Y-88267499I0J-225000D01*
G01*
X147331839Y-88717499D01*
G75*
G02*
X147106839Y-88942499I-225000J0D01*
G01*
G37*
G36*
G01*
X147106839Y-87392499D02*
X146606839Y-87392499D01*
G75*
G02*
X146381839Y-87167499I0J225000D01*
G01*
X146381839Y-86717499D01*
G75*
G02*
X146606839Y-86492499I225000J0D01*
G01*
X147106839Y-86492499D01*
G75*
G02*
X147331839Y-86717499I0J-225000D01*
G01*
X147331839Y-87167499D01*
G75*
G02*
X147106839Y-87392499I-225000J0D01*
G01*
G37*
D20*
X143006839Y-99843000D03*
X142506840Y-99843000D03*
X142006838Y-99843000D03*
X141506839Y-99843000D03*
X141006840Y-99843000D03*
X140506839Y-99843000D03*
X140006839Y-99843000D03*
X139506838Y-99843000D03*
X139006839Y-99843000D03*
X138506840Y-99843000D03*
X138006838Y-99843000D03*
X137506839Y-99843000D03*
D21*
X136081338Y-98417499D03*
X136081338Y-97917500D03*
X136081338Y-97417498D03*
X136081338Y-96917499D03*
X136081338Y-96417500D03*
X136081338Y-95917499D03*
X136081338Y-95417499D03*
X136081338Y-94917498D03*
X136081338Y-94417499D03*
X136081338Y-93917500D03*
X136081338Y-93417498D03*
X136081338Y-92917499D03*
D20*
X137506839Y-91491998D03*
X138006838Y-91491998D03*
X138506840Y-91491998D03*
X139006839Y-91491998D03*
X139506838Y-91491998D03*
X140006839Y-91491998D03*
X140506839Y-91491998D03*
X141006840Y-91491998D03*
X141506839Y-91491998D03*
X142006838Y-91491998D03*
X142506840Y-91491998D03*
X143006839Y-91491998D03*
D21*
X144432340Y-92917499D03*
X144432340Y-93417498D03*
X144432340Y-93917500D03*
X144432340Y-94417499D03*
X144432340Y-94917498D03*
X144432340Y-95417499D03*
X144432340Y-95917499D03*
X144432340Y-96417500D03*
X144432340Y-96917499D03*
X144432340Y-97417498D03*
X144432340Y-97917500D03*
X144432340Y-98417499D03*
D22*
X140256839Y-95667499D03*
G36*
G01*
X150481839Y-103442499D02*
X150481839Y-103992499D01*
G75*
G02*
X150281839Y-104192499I-200000J0D01*
G01*
X149881839Y-104192499D01*
G75*
G02*
X149681839Y-103992499I0J200000D01*
G01*
X149681839Y-103442499D01*
G75*
G02*
X149881839Y-103242499I200000J0D01*
G01*
X150281839Y-103242499D01*
G75*
G02*
X150481839Y-103442499I0J-200000D01*
G01*
G37*
G36*
G01*
X148831839Y-103442499D02*
X148831839Y-103992499D01*
G75*
G02*
X148631839Y-104192499I-200000J0D01*
G01*
X148231839Y-104192499D01*
G75*
G02*
X148031839Y-103992499I0J200000D01*
G01*
X148031839Y-103442499D01*
G75*
G02*
X148231839Y-103242499I200000J0D01*
G01*
X148631839Y-103242499D01*
G75*
G02*
X148831839Y-103442499I0J-200000D01*
G01*
G37*
G36*
G01*
X156331839Y-87542499D02*
X155781839Y-87542499D01*
G75*
G02*
X155581839Y-87342499I0J200000D01*
G01*
X155581839Y-86942499D01*
G75*
G02*
X155781839Y-86742499I200000J0D01*
G01*
X156331839Y-86742499D01*
G75*
G02*
X156531839Y-86942499I0J-200000D01*
G01*
X156531839Y-87342499D01*
G75*
G02*
X156331839Y-87542499I-200000J0D01*
G01*
G37*
G36*
G01*
X156331839Y-85892499D02*
X155781839Y-85892499D01*
G75*
G02*
X155581839Y-85692499I0J200000D01*
G01*
X155581839Y-85292499D01*
G75*
G02*
X155781839Y-85092499I200000J0D01*
G01*
X156331839Y-85092499D01*
G75*
G02*
X156531839Y-85292499I0J-200000D01*
G01*
X156531839Y-85692499D01*
G75*
G02*
X156331839Y-85892499I-200000J0D01*
G01*
G37*
G36*
G01*
X150481839Y-89442499D02*
X150481839Y-89992499D01*
G75*
G02*
X150281839Y-90192499I-200000J0D01*
G01*
X149881839Y-90192499D01*
G75*
G02*
X149681839Y-89992499I0J200000D01*
G01*
X149681839Y-89442499D01*
G75*
G02*
X149881839Y-89242499I200000J0D01*
G01*
X150281839Y-89242499D01*
G75*
G02*
X150481839Y-89442499I0J-200000D01*
G01*
G37*
G36*
G01*
X148831839Y-89442499D02*
X148831839Y-89992499D01*
G75*
G02*
X148631839Y-90192499I-200000J0D01*
G01*
X148231839Y-90192499D01*
G75*
G02*
X148031839Y-89992499I0J200000D01*
G01*
X148031839Y-89442499D01*
G75*
G02*
X148231839Y-89242499I200000J0D01*
G01*
X148631839Y-89242499D01*
G75*
G02*
X148831839Y-89442499I0J-200000D01*
G01*
G37*
D18*
X131736839Y-83017499D03*
D19*
X134276839Y-83017499D03*
X136816839Y-83017499D03*
X139356839Y-83017499D03*
X141896839Y-83017499D03*
X144436839Y-83017499D03*
D18*
X124116839Y-108417499D03*
D19*
X126656839Y-108417499D03*
X129196839Y-108417499D03*
X131736839Y-108417499D03*
X134276839Y-108417499D03*
G36*
G01*
X151731839Y-101967499D02*
X151731839Y-101467499D01*
G75*
G02*
X151956839Y-101242499I225000J0D01*
G01*
X152406839Y-101242499D01*
G75*
G02*
X152631839Y-101467499I0J-225000D01*
G01*
X152631839Y-101967499D01*
G75*
G02*
X152406839Y-102192499I-225000J0D01*
G01*
X151956839Y-102192499D01*
G75*
G02*
X151731839Y-101967499I0J225000D01*
G01*
G37*
G36*
G01*
X153281839Y-101967499D02*
X153281839Y-101467499D01*
G75*
G02*
X153506839Y-101242499I225000J0D01*
G01*
X153956839Y-101242499D01*
G75*
G02*
X154181839Y-101467499I0J-225000D01*
G01*
X154181839Y-101967499D01*
G75*
G02*
X153956839Y-102192499I-225000J0D01*
G01*
X153506839Y-102192499D01*
G75*
G02*
X153281839Y-101967499I0J225000D01*
G01*
G37*
G36*
G01*
X132716839Y-98347499D02*
X132716839Y-98687499D01*
G75*
G02*
X132576839Y-98827499I-140000J0D01*
G01*
X132296839Y-98827499D01*
G75*
G02*
X132156839Y-98687499I0J140000D01*
G01*
X132156839Y-98347499D01*
G75*
G02*
X132296839Y-98207499I140000J0D01*
G01*
X132576839Y-98207499D01*
G75*
G02*
X132716839Y-98347499I0J-140000D01*
G01*
G37*
G36*
G01*
X131756839Y-98347499D02*
X131756839Y-98687499D01*
G75*
G02*
X131616839Y-98827499I-140000J0D01*
G01*
X131336839Y-98827499D01*
G75*
G02*
X131196839Y-98687499I0J140000D01*
G01*
X131196839Y-98347499D01*
G75*
G02*
X131336839Y-98207499I140000J0D01*
G01*
X131616839Y-98207499D01*
G75*
G02*
X131756839Y-98347499I0J-140000D01*
G01*
G37*
D23*
X133756839Y-86567499D03*
X133756839Y-87517499D03*
X133756839Y-88467499D03*
X131556839Y-88467499D03*
X131556839Y-86567499D03*
G36*
G01*
X131111839Y-97167499D02*
X130811839Y-97167499D01*
G75*
G02*
X130661839Y-97017499I0J150000D01*
G01*
X130661839Y-95367499D01*
G75*
G02*
X130811839Y-95217499I150000J0D01*
G01*
X131111839Y-95217499D01*
G75*
G02*
X131261839Y-95367499I0J-150000D01*
G01*
X131261839Y-97017499D01*
G75*
G02*
X131111839Y-97167499I-150000J0D01*
G01*
G37*
G36*
G01*
X129841839Y-97167499D02*
X129541839Y-97167499D01*
G75*
G02*
X129391839Y-97017499I0J150000D01*
G01*
X129391839Y-95367499D01*
G75*
G02*
X129541839Y-95217499I150000J0D01*
G01*
X129841839Y-95217499D01*
G75*
G02*
X129991839Y-95367499I0J-150000D01*
G01*
X129991839Y-97017499D01*
G75*
G02*
X129841839Y-97167499I-150000J0D01*
G01*
G37*
G36*
G01*
X128571839Y-97167499D02*
X128271839Y-97167499D01*
G75*
G02*
X128121839Y-97017499I0J150000D01*
G01*
X128121839Y-95367499D01*
G75*
G02*
X128271839Y-95217499I150000J0D01*
G01*
X128571839Y-95217499D01*
G75*
G02*
X128721839Y-95367499I0J-150000D01*
G01*
X128721839Y-97017499D01*
G75*
G02*
X128571839Y-97167499I-150000J0D01*
G01*
G37*
G36*
G01*
X127301839Y-97167499D02*
X127001839Y-97167499D01*
G75*
G02*
X126851839Y-97017499I0J150000D01*
G01*
X126851839Y-95367499D01*
G75*
G02*
X127001839Y-95217499I150000J0D01*
G01*
X127301839Y-95217499D01*
G75*
G02*
X127451839Y-95367499I0J-150000D01*
G01*
X127451839Y-97017499D01*
G75*
G02*
X127301839Y-97167499I-150000J0D01*
G01*
G37*
G36*
G01*
X127301839Y-92217499D02*
X127001839Y-92217499D01*
G75*
G02*
X126851839Y-92067499I0J150000D01*
G01*
X126851839Y-90417499D01*
G75*
G02*
X127001839Y-90267499I150000J0D01*
G01*
X127301839Y-90267499D01*
G75*
G02*
X127451839Y-90417499I0J-150000D01*
G01*
X127451839Y-92067499D01*
G75*
G02*
X127301839Y-92217499I-150000J0D01*
G01*
G37*
G36*
G01*
X128571839Y-92217499D02*
X128271839Y-92217499D01*
G75*
G02*
X128121839Y-92067499I0J150000D01*
G01*
X128121839Y-90417499D01*
G75*
G02*
X128271839Y-90267499I150000J0D01*
G01*
X128571839Y-90267499D01*
G75*
G02*
X128721839Y-90417499I0J-150000D01*
G01*
X128721839Y-92067499D01*
G75*
G02*
X128571839Y-92217499I-150000J0D01*
G01*
G37*
G36*
G01*
X129841839Y-92217499D02*
X129541839Y-92217499D01*
G75*
G02*
X129391839Y-92067499I0J150000D01*
G01*
X129391839Y-90417499D01*
G75*
G02*
X129541839Y-90267499I150000J0D01*
G01*
X129841839Y-90267499D01*
G75*
G02*
X129991839Y-90417499I0J-150000D01*
G01*
X129991839Y-92067499D01*
G75*
G02*
X129841839Y-92217499I-150000J0D01*
G01*
G37*
G36*
G01*
X131111839Y-92217499D02*
X130811839Y-92217499D01*
G75*
G02*
X130661839Y-92067499I0J150000D01*
G01*
X130661839Y-90417499D01*
G75*
G02*
X130811839Y-90267499I150000J0D01*
G01*
X131111839Y-90267499D01*
G75*
G02*
X131261839Y-90417499I0J-150000D01*
G01*
X131261839Y-92067499D01*
G75*
G02*
X131111839Y-92217499I-150000J0D01*
G01*
G37*
G36*
G01*
X156241839Y-90097499D02*
X155871839Y-90097499D01*
G75*
G02*
X155736839Y-89962499I0J135000D01*
G01*
X155736839Y-89692499D01*
G75*
G02*
X155871839Y-89557499I135000J0D01*
G01*
X156241839Y-89557499D01*
G75*
G02*
X156376839Y-89692499I0J-135000D01*
G01*
X156376839Y-89962499D01*
G75*
G02*
X156241839Y-90097499I-135000J0D01*
G01*
G37*
G36*
G01*
X156241839Y-89077499D02*
X155871839Y-89077499D01*
G75*
G02*
X155736839Y-88942499I0J135000D01*
G01*
X155736839Y-88672499D01*
G75*
G02*
X155871839Y-88537499I135000J0D01*
G01*
X156241839Y-88537499D01*
G75*
G02*
X156376839Y-88672499I0J-135000D01*
G01*
X156376839Y-88942499D01*
G75*
G02*
X156241839Y-89077499I-135000J0D01*
G01*
G37*
G36*
G01*
X156331839Y-95142499D02*
X155781839Y-95142499D01*
G75*
G02*
X155581839Y-94942499I0J200000D01*
G01*
X155581839Y-94542499D01*
G75*
G02*
X155781839Y-94342499I200000J0D01*
G01*
X156331839Y-94342499D01*
G75*
G02*
X156531839Y-94542499I0J-200000D01*
G01*
X156531839Y-94942499D01*
G75*
G02*
X156331839Y-95142499I-200000J0D01*
G01*
G37*
G36*
G01*
X156331839Y-93492499D02*
X155781839Y-93492499D01*
G75*
G02*
X155581839Y-93292499I0J200000D01*
G01*
X155581839Y-92892499D01*
G75*
G02*
X155781839Y-92692499I200000J0D01*
G01*
X156331839Y-92692499D01*
G75*
G02*
X156531839Y-92892499I0J-200000D01*
G01*
X156531839Y-93292499D01*
G75*
G02*
X156331839Y-93492499I-200000J0D01*
G01*
G37*
D18*
X157136839Y-83017499D03*
D19*
X159676839Y-83017499D03*
X162216839Y-83017499D03*
X164756839Y-83017499D03*
X167296839Y-83017499D03*
X169836839Y-83017499D03*
D18*
X157136839Y-108417499D03*
D19*
X159676839Y-108417499D03*
X162216839Y-108417499D03*
X164756839Y-108417499D03*
X167296839Y-108417499D03*
X169836839Y-108417499D03*
D18*
X167296839Y-89367499D03*
D19*
X169836839Y-89367499D03*
X167296839Y-86827499D03*
X169836839Y-86827499D03*
D18*
X167296839Y-96987499D03*
D19*
X169836839Y-96987499D03*
X167296839Y-94447499D03*
X169836839Y-94447499D03*
D18*
X167296839Y-104607499D03*
D19*
X169836839Y-104607499D03*
X167296839Y-102067499D03*
X169836839Y-102067499D03*
G36*
G01*
X128836839Y-89232499D02*
X128836839Y-89602499D01*
G75*
G02*
X128701839Y-89737499I-135000J0D01*
G01*
X128431839Y-89737499D01*
G75*
G02*
X128296839Y-89602499I0J135000D01*
G01*
X128296839Y-89232499D01*
G75*
G02*
X128431839Y-89097499I135000J0D01*
G01*
X128701839Y-89097499D01*
G75*
G02*
X128836839Y-89232499I0J-135000D01*
G01*
G37*
G36*
G01*
X127816839Y-89232499D02*
X127816839Y-89602499D01*
G75*
G02*
X127681839Y-89737499I-135000J0D01*
G01*
X127411839Y-89737499D01*
G75*
G02*
X127276839Y-89602499I0J135000D01*
G01*
X127276839Y-89232499D01*
G75*
G02*
X127411839Y-89097499I135000J0D01*
G01*
X127681839Y-89097499D01*
G75*
G02*
X127816839Y-89232499I0J-135000D01*
G01*
G37*
G36*
G01*
X136196839Y-89237499D02*
X136196839Y-88897499D01*
G75*
G02*
X136336839Y-88757499I140000J0D01*
G01*
X136616839Y-88757499D01*
G75*
G02*
X136756839Y-88897499I0J-140000D01*
G01*
X136756839Y-89237499D01*
G75*
G02*
X136616839Y-89377499I-140000J0D01*
G01*
X136336839Y-89377499D01*
G75*
G02*
X136196839Y-89237499I0J140000D01*
G01*
G37*
G36*
G01*
X137156839Y-89237499D02*
X137156839Y-88897499D01*
G75*
G02*
X137296839Y-88757499I140000J0D01*
G01*
X137576839Y-88757499D01*
G75*
G02*
X137716839Y-88897499I0J-140000D01*
G01*
X137716839Y-89237499D01*
G75*
G02*
X137576839Y-89377499I-140000J0D01*
G01*
X137296839Y-89377499D01*
G75*
G02*
X137156839Y-89237499I0J140000D01*
G01*
G37*
G36*
G01*
X141666839Y-101947499D02*
X141666839Y-102287499D01*
G75*
G02*
X141526839Y-102427499I-140000J0D01*
G01*
X141246839Y-102427499D01*
G75*
G02*
X141106839Y-102287499I0J140000D01*
G01*
X141106839Y-101947499D01*
G75*
G02*
X141246839Y-101807499I140000J0D01*
G01*
X141526839Y-101807499D01*
G75*
G02*
X141666839Y-101947499I0J-140000D01*
G01*
G37*
G36*
G01*
X140706839Y-101947499D02*
X140706839Y-102287499D01*
G75*
G02*
X140566839Y-102427499I-140000J0D01*
G01*
X140286839Y-102427499D01*
G75*
G02*
X140146839Y-102287499I0J140000D01*
G01*
X140146839Y-101947499D01*
G75*
G02*
X140286839Y-101807499I140000J0D01*
G01*
X140566839Y-101807499D01*
G75*
G02*
X140706839Y-101947499I0J-140000D01*
G01*
G37*
G36*
G01*
X131056839Y-104617499D02*
X131056839Y-104417499D01*
G75*
G02*
X131156839Y-104317499I100000J0D01*
G01*
X132281839Y-104317499D01*
G75*
G02*
X132381839Y-104417499I0J-100000D01*
G01*
X132381839Y-104617499D01*
G75*
G02*
X132281839Y-104717499I-100000J0D01*
G01*
X131156839Y-104717499D01*
G75*
G02*
X131056839Y-104617499I0J100000D01*
G01*
G37*
G36*
G01*
X131056839Y-103967499D02*
X131056839Y-103767499D01*
G75*
G02*
X131156839Y-103667499I100000J0D01*
G01*
X132281839Y-103667499D01*
G75*
G02*
X132381839Y-103767499I0J-100000D01*
G01*
X132381839Y-103967499D01*
G75*
G02*
X132281839Y-104067499I-100000J0D01*
G01*
X131156839Y-104067499D01*
G75*
G02*
X131056839Y-103967499I0J100000D01*
G01*
G37*
G36*
G01*
X131056839Y-103317499D02*
X131056839Y-103117499D01*
G75*
G02*
X131156839Y-103017499I100000J0D01*
G01*
X132281839Y-103017499D01*
G75*
G02*
X132381839Y-103117499I0J-100000D01*
G01*
X132381839Y-103317499D01*
G75*
G02*
X132281839Y-103417499I-100000J0D01*
G01*
X131156839Y-103417499D01*
G75*
G02*
X131056839Y-103317499I0J100000D01*
G01*
G37*
G36*
G01*
X132831839Y-103317499D02*
X132831839Y-103117499D01*
G75*
G02*
X132931839Y-103017499I100000J0D01*
G01*
X134056839Y-103017499D01*
G75*
G02*
X134156839Y-103117499I0J-100000D01*
G01*
X134156839Y-103317499D01*
G75*
G02*
X134056839Y-103417499I-100000J0D01*
G01*
X132931839Y-103417499D01*
G75*
G02*
X132831839Y-103317499I0J100000D01*
G01*
G37*
G36*
G01*
X132831839Y-103967499D02*
X132831839Y-103767499D01*
G75*
G02*
X132931839Y-103667499I100000J0D01*
G01*
X134056839Y-103667499D01*
G75*
G02*
X134156839Y-103767499I0J-100000D01*
G01*
X134156839Y-103967499D01*
G75*
G02*
X134056839Y-104067499I-100000J0D01*
G01*
X132931839Y-104067499D01*
G75*
G02*
X132831839Y-103967499I0J100000D01*
G01*
G37*
G36*
G01*
X132831839Y-104617499D02*
X132831839Y-104417499D01*
G75*
G02*
X132931839Y-104317499I100000J0D01*
G01*
X134056839Y-104317499D01*
G75*
G02*
X134156839Y-104417499I0J-100000D01*
G01*
X134156839Y-104617499D01*
G75*
G02*
X134056839Y-104717499I-100000J0D01*
G01*
X132931839Y-104717499D01*
G75*
G02*
X132831839Y-104617499I0J100000D01*
G01*
G37*
G36*
G01*
X144349999Y-103225000D02*
X144349999Y-104175000D01*
G75*
G02*
X144099999Y-104425000I-250000J0D01*
G01*
X143599999Y-104425000D01*
G75*
G02*
X143349999Y-104175000I0J250000D01*
G01*
X143349999Y-103225000D01*
G75*
G02*
X143599999Y-102975000I250000J0D01*
G01*
X144099999Y-102975000D01*
G75*
G02*
X144349999Y-103225000I0J-250000D01*
G01*
G37*
G36*
G01*
X142450001Y-103225000D02*
X142450001Y-104175000D01*
G75*
G02*
X142200001Y-104425000I-250000J0D01*
G01*
X141700001Y-104425000D01*
G75*
G02*
X141450001Y-104175000I0J250000D01*
G01*
X141450001Y-103225000D01*
G75*
G02*
X141700001Y-102975000I250000J0D01*
G01*
X142200001Y-102975000D01*
G75*
G02*
X142450001Y-103225000I0J-250000D01*
G01*
G37*
D24*
X143856839Y-107017499D03*
X140856839Y-107017499D03*
G36*
G01*
X139116839Y-107622499D02*
X138796839Y-107622499D01*
G75*
G02*
X138636839Y-107462499I0J160000D01*
G01*
X138636839Y-107067499D01*
G75*
G02*
X138796839Y-106907499I160000J0D01*
G01*
X139116839Y-106907499D01*
G75*
G02*
X139276839Y-107067499I0J-160000D01*
G01*
X139276839Y-107462499D01*
G75*
G02*
X139116839Y-107622499I-160000J0D01*
G01*
G37*
G36*
G01*
X139116839Y-106427499D02*
X138796839Y-106427499D01*
G75*
G02*
X138636839Y-106267499I0J160000D01*
G01*
X138636839Y-105872499D01*
G75*
G02*
X138796839Y-105712499I160000J0D01*
G01*
X139116839Y-105712499D01*
G75*
G02*
X139276839Y-105872499I0J-160000D01*
G01*
X139276839Y-106267499D01*
G75*
G02*
X139116839Y-106427499I-160000J0D01*
G01*
G37*
G36*
G01*
X132621839Y-99737499D02*
X132991839Y-99737499D01*
G75*
G02*
X133126839Y-99872499I0J-135000D01*
G01*
X133126839Y-100142499D01*
G75*
G02*
X132991839Y-100277499I-135000J0D01*
G01*
X132621839Y-100277499D01*
G75*
G02*
X132486839Y-100142499I0J135000D01*
G01*
X132486839Y-99872499D01*
G75*
G02*
X132621839Y-99737499I135000J0D01*
G01*
G37*
G36*
G01*
X132621839Y-100757499D02*
X132991839Y-100757499D01*
G75*
G02*
X133126839Y-100892499I0J-135000D01*
G01*
X133126839Y-101162499D01*
G75*
G02*
X132991839Y-101297499I-135000J0D01*
G01*
X132621839Y-101297499D01*
G75*
G02*
X132486839Y-101162499I0J135000D01*
G01*
X132486839Y-100892499D01*
G75*
G02*
X132621839Y-100757499I135000J0D01*
G01*
G37*
G36*
G01*
X139180000Y-108415000D02*
X139180000Y-108785000D01*
G75*
G02*
X139045000Y-108920000I-135000J0D01*
G01*
X138775000Y-108920000D01*
G75*
G02*
X138640000Y-108785000I0J135000D01*
G01*
X138640000Y-108415000D01*
G75*
G02*
X138775000Y-108280000I135000J0D01*
G01*
X139045000Y-108280000D01*
G75*
G02*
X139180000Y-108415000I0J-135000D01*
G01*
G37*
G36*
G01*
X138160000Y-108415000D02*
X138160000Y-108785000D01*
G75*
G02*
X138025000Y-108920000I-135000J0D01*
G01*
X137755000Y-108920000D01*
G75*
G02*
X137620000Y-108785000I0J135000D01*
G01*
X137620000Y-108415000D01*
G75*
G02*
X137755000Y-108280000I135000J0D01*
G01*
X138025000Y-108280000D01*
G75*
G02*
X138160000Y-108415000I0J-135000D01*
G01*
G37*
G36*
G01*
X134141839Y-101297499D02*
X133771839Y-101297499D01*
G75*
G02*
X133636839Y-101162499I0J135000D01*
G01*
X133636839Y-100892499D01*
G75*
G02*
X133771839Y-100757499I135000J0D01*
G01*
X134141839Y-100757499D01*
G75*
G02*
X134276839Y-100892499I0J-135000D01*
G01*
X134276839Y-101162499D01*
G75*
G02*
X134141839Y-101297499I-135000J0D01*
G01*
G37*
G36*
G01*
X134141839Y-100277499D02*
X133771839Y-100277499D01*
G75*
G02*
X133636839Y-100142499I0J135000D01*
G01*
X133636839Y-99872499D01*
G75*
G02*
X133771839Y-99737499I135000J0D01*
G01*
X134141839Y-99737499D01*
G75*
G02*
X134276839Y-99872499I0J-135000D01*
G01*
X134276839Y-100142499D01*
G75*
G02*
X134141839Y-100277499I-135000J0D01*
G01*
G37*
%LPD*%
M02*
