G04 #@! TF.GenerationSoftware,KiCad,Pcbnew,10.0.5-unknown-202607221313~667fa36054~ubuntu25.10.1*
G04 #@! TF.CreationDate,2026-07-30T21:55:44+00:00*
G04 #@! TF.ProjectId,xESC2,78455343-322e-46b6-9963-61645f706362,rev?*
G04 #@! TF.SameCoordinates,Original*
G04 #@! TF.FileFunction,Soldermask,Top*
G04 #@! TF.FilePolarity,Negative*
%FSLAX46Y46*%
G04 Gerber Fmt 4.6, Leading zero omitted, Abs format (unit mm)*
G04 Created by KiCad (PCBNEW 10.0.5-unknown-202607221313~667fa36054~ubuntu25.10.1) date 2026-07-30 21:55:44*
%MOMM*%
%LPD*%
G01*
G04 APERTURE LIST*
%ADD10R,1.200000X0.900000*%
%ADD11R,1.200000X1.400000*%
%ADD12R,1.100000X0.600000*%
%ADD13R,0.840000X0.840000*%
%ADD14C,0.840000*%
%ADD15O,1.850000X0.850000*%
%ADD16R,1.700000X1.700000*%
%ADD17O,1.700000X1.700000*%
G04 APERTURE END LIST*
G36*
G01*
X126436839Y-99182499D02*
X126776839Y-99182499D01*
G75*
G02*
X126916839Y-99322499I0J-140000D01*
G01*
X126916839Y-99602499D01*
G75*
G02*
X126776839Y-99742499I-140000J0D01*
G01*
X126436839Y-99742499D01*
G75*
G02*
X126296839Y-99602499I0J140000D01*
G01*
X126296839Y-99322499D01*
G75*
G02*
X126436839Y-99182499I140000J0D01*
G01*
G37*
G36*
G01*
X126436839Y-100142499D02*
X126776839Y-100142499D01*
G75*
G02*
X126916839Y-100282499I0J-140000D01*
G01*
X126916839Y-100562499D01*
G75*
G02*
X126776839Y-100702499I-140000J0D01*
G01*
X126436839Y-100702499D01*
G75*
G02*
X126296839Y-100562499I0J140000D01*
G01*
X126296839Y-100282499D01*
G75*
G02*
X126436839Y-100142499I140000J0D01*
G01*
G37*
G36*
G01*
X129941839Y-102997499D02*
X129941839Y-103337499D01*
G75*
G02*
X129801839Y-103477499I-140000J0D01*
G01*
X129521839Y-103477499D01*
G75*
G02*
X129381839Y-103337499I0J140000D01*
G01*
X129381839Y-102997499D01*
G75*
G02*
X129521839Y-102857499I140000J0D01*
G01*
X129801839Y-102857499D01*
G75*
G02*
X129941839Y-102997499I0J-140000D01*
G01*
G37*
G36*
G01*
X128981839Y-102997499D02*
X128981839Y-103337499D01*
G75*
G02*
X128841839Y-103477499I-140000J0D01*
G01*
X128561839Y-103477499D01*
G75*
G02*
X128421839Y-103337499I0J140000D01*
G01*
X128421839Y-102997499D01*
G75*
G02*
X128561839Y-102857499I140000J0D01*
G01*
X128841839Y-102857499D01*
G75*
G02*
X128981839Y-102997499I0J-140000D01*
G01*
G37*
G36*
G01*
X128016839Y-92147499D02*
X128016839Y-92487499D01*
G75*
G02*
X127876839Y-92627499I-140000J0D01*
G01*
X127596839Y-92627499D01*
G75*
G02*
X127456839Y-92487499I0J140000D01*
G01*
X127456839Y-92147499D01*
G75*
G02*
X127596839Y-92007499I140000J0D01*
G01*
X127876839Y-92007499D01*
G75*
G02*
X128016839Y-92147499I0J-140000D01*
G01*
G37*
G36*
G01*
X127056839Y-92147499D02*
X127056839Y-92487499D01*
G75*
G02*
X126916839Y-92627499I-140000J0D01*
G01*
X126636839Y-92627499D01*
G75*
G02*
X126496839Y-92487499I0J140000D01*
G01*
X126496839Y-92147499D01*
G75*
G02*
X126636839Y-92007499I140000J0D01*
G01*
X126916839Y-92007499D01*
G75*
G02*
X127056839Y-92147499I0J-140000D01*
G01*
G37*
G36*
G01*
X144006839Y-85517499D02*
X144506839Y-85517499D01*
G75*
G02*
X144731839Y-85742499I0J-225000D01*
G01*
X144731839Y-86192499D01*
G75*
G02*
X144506839Y-86417499I-225000J0D01*
G01*
X144006839Y-86417499D01*
G75*
G02*
X143781839Y-86192499I0J225000D01*
G01*
X143781839Y-85742499D01*
G75*
G02*
X144006839Y-85517499I225000J0D01*
G01*
G37*
G36*
G01*
X144006839Y-87067499D02*
X144506839Y-87067499D01*
G75*
G02*
X144731839Y-87292499I0J-225000D01*
G01*
X144731839Y-87742499D01*
G75*
G02*
X144506839Y-87967499I-225000J0D01*
G01*
X144006839Y-87967499D01*
G75*
G02*
X143781839Y-87742499I0J225000D01*
G01*
X143781839Y-87292499D01*
G75*
G02*
X144006839Y-87067499I225000J0D01*
G01*
G37*
G36*
G01*
X132996839Y-104137499D02*
X132996839Y-103797499D01*
G75*
G02*
X133136839Y-103657499I140000J0D01*
G01*
X133416839Y-103657499D01*
G75*
G02*
X133556839Y-103797499I0J-140000D01*
G01*
X133556839Y-104137499D01*
G75*
G02*
X133416839Y-104277499I-140000J0D01*
G01*
X133136839Y-104277499D01*
G75*
G02*
X132996839Y-104137499I0J140000D01*
G01*
G37*
G36*
G01*
X133956839Y-104137499D02*
X133956839Y-103797499D01*
G75*
G02*
X134096839Y-103657499I140000J0D01*
G01*
X134376839Y-103657499D01*
G75*
G02*
X134516839Y-103797499I0J-140000D01*
G01*
X134516839Y-104137499D01*
G75*
G02*
X134376839Y-104277499I-140000J0D01*
G01*
X134096839Y-104277499D01*
G75*
G02*
X133956839Y-104137499I0J140000D01*
G01*
G37*
G36*
G01*
X144426839Y-90877499D02*
X144086839Y-90877499D01*
G75*
G02*
X143946839Y-90737499I0J140000D01*
G01*
X143946839Y-90457499D01*
G75*
G02*
X144086839Y-90317499I140000J0D01*
G01*
X144426839Y-90317499D01*
G75*
G02*
X144566839Y-90457499I0J-140000D01*
G01*
X144566839Y-90737499D01*
G75*
G02*
X144426839Y-90877499I-140000J0D01*
G01*
G37*
G36*
G01*
X144426839Y-89917499D02*
X144086839Y-89917499D01*
G75*
G02*
X143946839Y-89777499I0J140000D01*
G01*
X143946839Y-89497499D01*
G75*
G02*
X144086839Y-89357499I140000J0D01*
G01*
X144426839Y-89357499D01*
G75*
G02*
X144566839Y-89497499I0J-140000D01*
G01*
X144566839Y-89777499D01*
G75*
G02*
X144426839Y-89917499I-140000J0D01*
G01*
G37*
G36*
G01*
X129966839Y-96297499D02*
X129966839Y-96637499D01*
G75*
G02*
X129826839Y-96777499I-140000J0D01*
G01*
X129546839Y-96777499D01*
G75*
G02*
X129406839Y-96637499I0J140000D01*
G01*
X129406839Y-96297499D01*
G75*
G02*
X129546839Y-96157499I140000J0D01*
G01*
X129826839Y-96157499D01*
G75*
G02*
X129966839Y-96297499I0J-140000D01*
G01*
G37*
G36*
G01*
X129006839Y-96297499D02*
X129006839Y-96637499D01*
G75*
G02*
X128866839Y-96777499I-140000J0D01*
G01*
X128586839Y-96777499D01*
G75*
G02*
X128446839Y-96637499I0J140000D01*
G01*
X128446839Y-96297499D01*
G75*
G02*
X128586839Y-96157499I140000J0D01*
G01*
X128866839Y-96157499D01*
G75*
G02*
X129006839Y-96297499I0J-140000D01*
G01*
G37*
G36*
G01*
X140616839Y-103847499D02*
X140616839Y-104187499D01*
G75*
G02*
X140476839Y-104327499I-140000J0D01*
G01*
X140196839Y-104327499D01*
G75*
G02*
X140056839Y-104187499I0J140000D01*
G01*
X140056839Y-103847499D01*
G75*
G02*
X140196839Y-103707499I140000J0D01*
G01*
X140476839Y-103707499D01*
G75*
G02*
X140616839Y-103847499I0J-140000D01*
G01*
G37*
G36*
G01*
X139656839Y-103847499D02*
X139656839Y-104187499D01*
G75*
G02*
X139516839Y-104327499I-140000J0D01*
G01*
X139236839Y-104327499D01*
G75*
G02*
X139096839Y-104187499I0J140000D01*
G01*
X139096839Y-103847499D01*
G75*
G02*
X139236839Y-103707499I140000J0D01*
G01*
X139516839Y-103707499D01*
G75*
G02*
X139656839Y-103847499I0J-140000D01*
G01*
G37*
G36*
G01*
X132996839Y-105112499D02*
X132996839Y-104772499D01*
G75*
G02*
X133136839Y-104632499I140000J0D01*
G01*
X133416839Y-104632499D01*
G75*
G02*
X133556839Y-104772499I0J-140000D01*
G01*
X133556839Y-105112499D01*
G75*
G02*
X133416839Y-105252499I-140000J0D01*
G01*
X133136839Y-105252499D01*
G75*
G02*
X132996839Y-105112499I0J140000D01*
G01*
G37*
G36*
G01*
X133956839Y-105112499D02*
X133956839Y-104772499D01*
G75*
G02*
X134096839Y-104632499I140000J0D01*
G01*
X134376839Y-104632499D01*
G75*
G02*
X134516839Y-104772499I0J-140000D01*
G01*
X134516839Y-105112499D01*
G75*
G02*
X134376839Y-105252499I-140000J0D01*
G01*
X134096839Y-105252499D01*
G75*
G02*
X133956839Y-105112499I0J140000D01*
G01*
G37*
G36*
G01*
X132091839Y-88447499D02*
X131721839Y-88447499D01*
G75*
G02*
X131586839Y-88312499I0J135000D01*
G01*
X131586839Y-88042499D01*
G75*
G02*
X131721839Y-87907499I135000J0D01*
G01*
X132091839Y-87907499D01*
G75*
G02*
X132226839Y-88042499I0J-135000D01*
G01*
X132226839Y-88312499D01*
G75*
G02*
X132091839Y-88447499I-135000J0D01*
G01*
G37*
G36*
G01*
X132091839Y-87427499D02*
X131721839Y-87427499D01*
G75*
G02*
X131586839Y-87292499I0J135000D01*
G01*
X131586839Y-87022499D01*
G75*
G02*
X131721839Y-86887499I135000J0D01*
G01*
X132091839Y-86887499D01*
G75*
G02*
X132226839Y-87022499I0J-135000D01*
G01*
X132226839Y-87292499D01*
G75*
G02*
X132091839Y-87427499I-135000J0D01*
G01*
G37*
G36*
G01*
X133538089Y-88842500D02*
X133025589Y-88842500D01*
G75*
G02*
X132806839Y-88623750I0J218750D01*
G01*
X132806839Y-88186250D01*
G75*
G02*
X133025589Y-87967500I218750J0D01*
G01*
X133538089Y-87967500D01*
G75*
G02*
X133756839Y-88186250I0J-218750D01*
G01*
X133756839Y-88623750D01*
G75*
G02*
X133538089Y-88842500I-218750J0D01*
G01*
G37*
G36*
G01*
X133538089Y-87267498D02*
X133025589Y-87267498D01*
G75*
G02*
X132806839Y-87048748I0J218750D01*
G01*
X132806839Y-86611248D01*
G75*
G02*
X133025589Y-86392498I218750J0D01*
G01*
X133538089Y-86392498D01*
G75*
G02*
X133756839Y-86611248I0J-218750D01*
G01*
X133756839Y-87048748D01*
G75*
G02*
X133538089Y-87267498I-218750J0D01*
G01*
G37*
G36*
G01*
X136450589Y-103642498D02*
X136963089Y-103642498D01*
G75*
G02*
X137181839Y-103861248I0J-218750D01*
G01*
X137181839Y-104298748D01*
G75*
G02*
X136963089Y-104517498I-218750J0D01*
G01*
X136450589Y-104517498D01*
G75*
G02*
X136231839Y-104298748I0J218750D01*
G01*
X136231839Y-103861248D01*
G75*
G02*
X136450589Y-103642498I218750J0D01*
G01*
G37*
G36*
G01*
X136450589Y-105217500D02*
X136963089Y-105217500D01*
G75*
G02*
X137181839Y-105436250I0J-218750D01*
G01*
X137181839Y-105873750D01*
G75*
G02*
X136963089Y-106092500I-218750J0D01*
G01*
X136450589Y-106092500D01*
G75*
G02*
X136231839Y-105873750I0J218750D01*
G01*
X136231839Y-105436250D01*
G75*
G02*
X136450589Y-105217500I218750J0D01*
G01*
G37*
G36*
G01*
X136956250Y-109342500D02*
X136443750Y-109342500D01*
G75*
G02*
X136225000Y-109123750I0J218750D01*
G01*
X136225000Y-108686250D01*
G75*
G02*
X136443750Y-108467500I218750J0D01*
G01*
X136956250Y-108467500D01*
G75*
G02*
X137175000Y-108686250I0J-218750D01*
G01*
X137175000Y-109123750D01*
G75*
G02*
X136956250Y-109342500I-218750J0D01*
G01*
G37*
G36*
G01*
X136956250Y-107767498D02*
X136443750Y-107767498D01*
G75*
G02*
X136225000Y-107548748I0J218750D01*
G01*
X136225000Y-107111248D01*
G75*
G02*
X136443750Y-106892498I218750J0D01*
G01*
X136956250Y-106892498D01*
G75*
G02*
X137175000Y-107111248I0J-218750D01*
G01*
X137175000Y-107548748D01*
G75*
G02*
X136956250Y-107767498I-218750J0D01*
G01*
G37*
G36*
G01*
X138191839Y-105672498D02*
X137821839Y-105672498D01*
G75*
G02*
X137686839Y-105537498I0J135000D01*
G01*
X137686839Y-105267498D01*
G75*
G02*
X137821839Y-105132498I135000J0D01*
G01*
X138191839Y-105132498D01*
G75*
G02*
X138326839Y-105267498I0J-135000D01*
G01*
X138326839Y-105537498D01*
G75*
G02*
X138191839Y-105672498I-135000J0D01*
G01*
G37*
G36*
G01*
X138191839Y-104652500D02*
X137821839Y-104652500D01*
G75*
G02*
X137686839Y-104517500I0J135000D01*
G01*
X137686839Y-104247500D01*
G75*
G02*
X137821839Y-104112500I135000J0D01*
G01*
X138191839Y-104112500D01*
G75*
G02*
X138326839Y-104247500I0J-135000D01*
G01*
X138326839Y-104517500D01*
G75*
G02*
X138191839Y-104652500I-135000J0D01*
G01*
G37*
G36*
G01*
X137796839Y-107612500D02*
X138166839Y-107612500D01*
G75*
G02*
X138301839Y-107747500I0J-135000D01*
G01*
X138301839Y-108017500D01*
G75*
G02*
X138166839Y-108152500I-135000J0D01*
G01*
X137796839Y-108152500D01*
G75*
G02*
X137661839Y-108017500I0J135000D01*
G01*
X137661839Y-107747500D01*
G75*
G02*
X137796839Y-107612500I135000J0D01*
G01*
G37*
G36*
G01*
X137796839Y-108632498D02*
X138166839Y-108632498D01*
G75*
G02*
X138301839Y-108767498I0J-135000D01*
G01*
X138301839Y-109037498D01*
G75*
G02*
X138166839Y-109172498I-135000J0D01*
G01*
X137796839Y-109172498D01*
G75*
G02*
X137661839Y-109037498I0J135000D01*
G01*
X137661839Y-108767498D01*
G75*
G02*
X137796839Y-108632498I135000J0D01*
G01*
G37*
G36*
G01*
X148381839Y-83642499D02*
X148381839Y-84192499D01*
G75*
G02*
X148181839Y-84392499I-200000J0D01*
G01*
X147781839Y-84392499D01*
G75*
G02*
X147581839Y-84192499I0J200000D01*
G01*
X147581839Y-83642499D01*
G75*
G02*
X147781839Y-83442499I200000J0D01*
G01*
X148181839Y-83442499D01*
G75*
G02*
X148381839Y-83642499I0J-200000D01*
G01*
G37*
G36*
G01*
X146731839Y-83642499D02*
X146731839Y-84192499D01*
G75*
G02*
X146531839Y-84392499I-200000J0D01*
G01*
X146131839Y-84392499D01*
G75*
G02*
X145931839Y-84192499I0J200000D01*
G01*
X145931839Y-83642499D01*
G75*
G02*
X146131839Y-83442499I200000J0D01*
G01*
X146531839Y-83442499D01*
G75*
G02*
X146731839Y-83642499I0J-200000D01*
G01*
G37*
G36*
G01*
X145931839Y-82592499D02*
X145931839Y-82042499D01*
G75*
G02*
X146131839Y-81842499I200000J0D01*
G01*
X146531839Y-81842499D01*
G75*
G02*
X146731839Y-82042499I0J-200000D01*
G01*
X146731839Y-82592499D01*
G75*
G02*
X146531839Y-82792499I-200000J0D01*
G01*
X146131839Y-82792499D01*
G75*
G02*
X145931839Y-82592499I0J200000D01*
G01*
G37*
G36*
G01*
X147581839Y-82592499D02*
X147581839Y-82042499D01*
G75*
G02*
X147781839Y-81842499I200000J0D01*
G01*
X148181839Y-81842499D01*
G75*
G02*
X148381839Y-82042499I0J-200000D01*
G01*
X148381839Y-82592499D01*
G75*
G02*
X148181839Y-82792499I-200000J0D01*
G01*
X147781839Y-82792499D01*
G75*
G02*
X147581839Y-82592499I0J200000D01*
G01*
G37*
G36*
G01*
X130297383Y-97679721D02*
X130191317Y-97573655D01*
G75*
G02*
X130191317Y-97467589I53033J53033D01*
G01*
X131181267Y-96477639D01*
G75*
G02*
X131287333Y-96477639I53033J-53033D01*
G01*
X131393399Y-96583705D01*
G75*
G02*
X131393399Y-96689771I-53033J-53033D01*
G01*
X130403449Y-97679721D01*
G75*
G02*
X130297383Y-97679721I-53033J53033D01*
G01*
G37*
G36*
G01*
X130650936Y-98033274D02*
X130544870Y-97927208D01*
G75*
G02*
X130544870Y-97821142I53033J53033D01*
G01*
X131534820Y-96831192D01*
G75*
G02*
X131640886Y-96831192I53033J-53033D01*
G01*
X131746952Y-96937258D01*
G75*
G02*
X131746952Y-97043324I-53033J-53033D01*
G01*
X130757002Y-98033274D01*
G75*
G02*
X130650936Y-98033274I-53033J53033D01*
G01*
G37*
G36*
G01*
X131004489Y-98386827D02*
X130898423Y-98280761D01*
G75*
G02*
X130898423Y-98174695I53033J53033D01*
G01*
X131888373Y-97184745D01*
G75*
G02*
X131994439Y-97184745I53033J-53033D01*
G01*
X132100505Y-97290811D01*
G75*
G02*
X132100505Y-97396877I-53033J-53033D01*
G01*
X131110555Y-98386827D01*
G75*
G02*
X131004489Y-98386827I-53033J53033D01*
G01*
G37*
G36*
G01*
X131358043Y-98740381D02*
X131251977Y-98634315D01*
G75*
G02*
X131251977Y-98528249I53033J53033D01*
G01*
X132241927Y-97538299D01*
G75*
G02*
X132347993Y-97538299I53033J-53033D01*
G01*
X132454059Y-97644365D01*
G75*
G02*
X132454059Y-97750431I-53033J-53033D01*
G01*
X131464109Y-98740381D01*
G75*
G02*
X131358043Y-98740381I-53033J53033D01*
G01*
G37*
G36*
G01*
X131711596Y-99093934D02*
X131605530Y-98987868D01*
G75*
G02*
X131605530Y-98881802I53033J53033D01*
G01*
X132595480Y-97891852D01*
G75*
G02*
X132701546Y-97891852I53033J-53033D01*
G01*
X132807612Y-97997918D01*
G75*
G02*
X132807612Y-98103984I-53033J-53033D01*
G01*
X131817662Y-99093934D01*
G75*
G02*
X131711596Y-99093934I-53033J53033D01*
G01*
G37*
G36*
G01*
X132065150Y-99447488D02*
X131959084Y-99341422D01*
G75*
G02*
X131959084Y-99235356I53033J53033D01*
G01*
X132949034Y-98245406D01*
G75*
G02*
X133055100Y-98245406I53033J-53033D01*
G01*
X133161166Y-98351472D01*
G75*
G02*
X133161166Y-98457538I-53033J-53033D01*
G01*
X132171216Y-99447488D01*
G75*
G02*
X132065150Y-99447488I-53033J53033D01*
G01*
G37*
G36*
G01*
X132418703Y-99801041D02*
X132312637Y-99694975D01*
G75*
G02*
X132312637Y-99588909I53033J53033D01*
G01*
X133302587Y-98598959D01*
G75*
G02*
X133408653Y-98598959I53033J-53033D01*
G01*
X133514719Y-98705025D01*
G75*
G02*
X133514719Y-98811091I-53033J-53033D01*
G01*
X132524769Y-99801041D01*
G75*
G02*
X132418703Y-99801041I-53033J53033D01*
G01*
G37*
G36*
G01*
X132772256Y-100154594D02*
X132666190Y-100048528D01*
G75*
G02*
X132666190Y-99942462I53033J53033D01*
G01*
X133656140Y-98952512D01*
G75*
G02*
X133762206Y-98952512I53033J-53033D01*
G01*
X133868272Y-99058578D01*
G75*
G02*
X133868272Y-99164644I-53033J-53033D01*
G01*
X132878322Y-100154594D01*
G75*
G02*
X132772256Y-100154594I-53033J53033D01*
G01*
G37*
G36*
G01*
X133125810Y-100508148D02*
X133019744Y-100402082D01*
G75*
G02*
X133019744Y-100296016I53033J53033D01*
G01*
X134009694Y-99306066D01*
G75*
G02*
X134115760Y-99306066I53033J-53033D01*
G01*
X134221826Y-99412132D01*
G75*
G02*
X134221826Y-99518198I-53033J-53033D01*
G01*
X133231876Y-100508148D01*
G75*
G02*
X133125810Y-100508148I-53033J53033D01*
G01*
G37*
G36*
G01*
X133479363Y-100861701D02*
X133373297Y-100755635D01*
G75*
G02*
X133373297Y-100649569I53033J53033D01*
G01*
X134363247Y-99659619D01*
G75*
G02*
X134469313Y-99659619I53033J-53033D01*
G01*
X134575379Y-99765685D01*
G75*
G02*
X134575379Y-99871751I-53033J-53033D01*
G01*
X133585429Y-100861701D01*
G75*
G02*
X133479363Y-100861701I-53033J53033D01*
G01*
G37*
G36*
G01*
X133832916Y-101215254D02*
X133726850Y-101109188D01*
G75*
G02*
X133726850Y-101003122I53033J53033D01*
G01*
X134716800Y-100013172D01*
G75*
G02*
X134822866Y-100013172I53033J-53033D01*
G01*
X134928932Y-100119238D01*
G75*
G02*
X134928932Y-100225304I-53033J-53033D01*
G01*
X133938982Y-101215254D01*
G75*
G02*
X133832916Y-101215254I-53033J53033D01*
G01*
G37*
G36*
G01*
X134186470Y-101568808D02*
X134080404Y-101462742D01*
G75*
G02*
X134080404Y-101356676I53033J53033D01*
G01*
X135070354Y-100366726D01*
G75*
G02*
X135176420Y-100366726I53033J-53033D01*
G01*
X135282486Y-100472792D01*
G75*
G02*
X135282486Y-100578858I-53033J-53033D01*
G01*
X134292536Y-101568808D01*
G75*
G02*
X134186470Y-101568808I-53033J53033D01*
G01*
G37*
G36*
G01*
X134540023Y-101922361D02*
X134433957Y-101816295D01*
G75*
G02*
X134433957Y-101710229I53033J53033D01*
G01*
X135423907Y-100720279D01*
G75*
G02*
X135529973Y-100720279I53033J-53033D01*
G01*
X135636039Y-100826345D01*
G75*
G02*
X135636039Y-100932411I-53033J-53033D01*
G01*
X134646089Y-101922361D01*
G75*
G02*
X134540023Y-101922361I-53033J53033D01*
G01*
G37*
G36*
G01*
X134893577Y-102275915D02*
X134787511Y-102169849D01*
G75*
G02*
X134787511Y-102063783I53033J53033D01*
G01*
X135777461Y-101073833D01*
G75*
G02*
X135883527Y-101073833I53033J-53033D01*
G01*
X135989593Y-101179899D01*
G75*
G02*
X135989593Y-101285965I-53033J-53033D01*
G01*
X134999643Y-102275915D01*
G75*
G02*
X134893577Y-102275915I-53033J53033D01*
G01*
G37*
G36*
G01*
X135247130Y-102629468D02*
X135141064Y-102523402D01*
G75*
G02*
X135141064Y-102417336I53033J53033D01*
G01*
X136131014Y-101427386D01*
G75*
G02*
X136237080Y-101427386I53033J-53033D01*
G01*
X136343146Y-101533452D01*
G75*
G02*
X136343146Y-101639518I-53033J-53033D01*
G01*
X135353196Y-102629468D01*
G75*
G02*
X135247130Y-102629468I-53033J53033D01*
G01*
G37*
G36*
G01*
X135600683Y-102983021D02*
X135494617Y-102876955D01*
G75*
G02*
X135494617Y-102770889I53033J53033D01*
G01*
X136484567Y-101780939D01*
G75*
G02*
X136590633Y-101780939I53033J-53033D01*
G01*
X136696699Y-101887005D01*
G75*
G02*
X136696699Y-101993071I-53033J-53033D01*
G01*
X135706749Y-102983021D01*
G75*
G02*
X135600683Y-102983021I-53033J53033D01*
G01*
G37*
G36*
G01*
X139206929Y-102983021D02*
X138216979Y-101993071D01*
G75*
G02*
X138216979Y-101887005I53033J53033D01*
G01*
X138323045Y-101780939D01*
G75*
G02*
X138429111Y-101780939I53033J-53033D01*
G01*
X139419061Y-102770889D01*
G75*
G02*
X139419061Y-102876955I-53033J-53033D01*
G01*
X139312995Y-102983021D01*
G75*
G02*
X139206929Y-102983021I-53033J53033D01*
G01*
G37*
G36*
G01*
X139560482Y-102629468D02*
X138570532Y-101639518D01*
G75*
G02*
X138570532Y-101533452I53033J53033D01*
G01*
X138676598Y-101427386D01*
G75*
G02*
X138782664Y-101427386I53033J-53033D01*
G01*
X139772614Y-102417336D01*
G75*
G02*
X139772614Y-102523402I-53033J-53033D01*
G01*
X139666548Y-102629468D01*
G75*
G02*
X139560482Y-102629468I-53033J53033D01*
G01*
G37*
G36*
G01*
X139914035Y-102275915D02*
X138924085Y-101285965D01*
G75*
G02*
X138924085Y-101179899I53033J53033D01*
G01*
X139030151Y-101073833D01*
G75*
G02*
X139136217Y-101073833I53033J-53033D01*
G01*
X140126167Y-102063783D01*
G75*
G02*
X140126167Y-102169849I-53033J-53033D01*
G01*
X140020101Y-102275915D01*
G75*
G02*
X139914035Y-102275915I-53033J53033D01*
G01*
G37*
G36*
G01*
X140267589Y-101922361D02*
X139277639Y-100932411D01*
G75*
G02*
X139277639Y-100826345I53033J53033D01*
G01*
X139383705Y-100720279D01*
G75*
G02*
X139489771Y-100720279I53033J-53033D01*
G01*
X140479721Y-101710229D01*
G75*
G02*
X140479721Y-101816295I-53033J-53033D01*
G01*
X140373655Y-101922361D01*
G75*
G02*
X140267589Y-101922361I-53033J53033D01*
G01*
G37*
G36*
G01*
X140621142Y-101568808D02*
X139631192Y-100578858D01*
G75*
G02*
X139631192Y-100472792I53033J53033D01*
G01*
X139737258Y-100366726D01*
G75*
G02*
X139843324Y-100366726I53033J-53033D01*
G01*
X140833274Y-101356676D01*
G75*
G02*
X140833274Y-101462742I-53033J-53033D01*
G01*
X140727208Y-101568808D01*
G75*
G02*
X140621142Y-101568808I-53033J53033D01*
G01*
G37*
G36*
G01*
X140974696Y-101215254D02*
X139984746Y-100225304D01*
G75*
G02*
X139984746Y-100119238I53033J53033D01*
G01*
X140090812Y-100013172D01*
G75*
G02*
X140196878Y-100013172I53033J-53033D01*
G01*
X141186828Y-101003122D01*
G75*
G02*
X141186828Y-101109188I-53033J-53033D01*
G01*
X141080762Y-101215254D01*
G75*
G02*
X140974696Y-101215254I-53033J53033D01*
G01*
G37*
G36*
G01*
X141328249Y-100861701D02*
X140338299Y-99871751D01*
G75*
G02*
X140338299Y-99765685I53033J53033D01*
G01*
X140444365Y-99659619D01*
G75*
G02*
X140550431Y-99659619I53033J-53033D01*
G01*
X141540381Y-100649569D01*
G75*
G02*
X141540381Y-100755635I-53033J-53033D01*
G01*
X141434315Y-100861701D01*
G75*
G02*
X141328249Y-100861701I-53033J53033D01*
G01*
G37*
G36*
G01*
X141681802Y-100508148D02*
X140691852Y-99518198D01*
G75*
G02*
X140691852Y-99412132I53033J53033D01*
G01*
X140797918Y-99306066D01*
G75*
G02*
X140903984Y-99306066I53033J-53033D01*
G01*
X141893934Y-100296016D01*
G75*
G02*
X141893934Y-100402082I-53033J-53033D01*
G01*
X141787868Y-100508148D01*
G75*
G02*
X141681802Y-100508148I-53033J53033D01*
G01*
G37*
G36*
G01*
X142035356Y-100154594D02*
X141045406Y-99164644D01*
G75*
G02*
X141045406Y-99058578I53033J53033D01*
G01*
X141151472Y-98952512D01*
G75*
G02*
X141257538Y-98952512I53033J-53033D01*
G01*
X142247488Y-99942462D01*
G75*
G02*
X142247488Y-100048528I-53033J-53033D01*
G01*
X142141422Y-100154594D01*
G75*
G02*
X142035356Y-100154594I-53033J53033D01*
G01*
G37*
G36*
G01*
X142388909Y-99801041D02*
X141398959Y-98811091D01*
G75*
G02*
X141398959Y-98705025I53033J53033D01*
G01*
X141505025Y-98598959D01*
G75*
G02*
X141611091Y-98598959I53033J-53033D01*
G01*
X142601041Y-99588909D01*
G75*
G02*
X142601041Y-99694975I-53033J-53033D01*
G01*
X142494975Y-99801041D01*
G75*
G02*
X142388909Y-99801041I-53033J53033D01*
G01*
G37*
G36*
G01*
X142742462Y-99447488D02*
X141752512Y-98457538D01*
G75*
G02*
X141752512Y-98351472I53033J53033D01*
G01*
X141858578Y-98245406D01*
G75*
G02*
X141964644Y-98245406I53033J-53033D01*
G01*
X142954594Y-99235356D01*
G75*
G02*
X142954594Y-99341422I-53033J-53033D01*
G01*
X142848528Y-99447488D01*
G75*
G02*
X142742462Y-99447488I-53033J53033D01*
G01*
G37*
G36*
G01*
X143096016Y-99093934D02*
X142106066Y-98103984D01*
G75*
G02*
X142106066Y-97997918I53033J53033D01*
G01*
X142212132Y-97891852D01*
G75*
G02*
X142318198Y-97891852I53033J-53033D01*
G01*
X143308148Y-98881802D01*
G75*
G02*
X143308148Y-98987868I-53033J-53033D01*
G01*
X143202082Y-99093934D01*
G75*
G02*
X143096016Y-99093934I-53033J53033D01*
G01*
G37*
G36*
G01*
X143449569Y-98740381D02*
X142459619Y-97750431D01*
G75*
G02*
X142459619Y-97644365I53033J53033D01*
G01*
X142565685Y-97538299D01*
G75*
G02*
X142671751Y-97538299I53033J-53033D01*
G01*
X143661701Y-98528249D01*
G75*
G02*
X143661701Y-98634315I-53033J-53033D01*
G01*
X143555635Y-98740381D01*
G75*
G02*
X143449569Y-98740381I-53033J53033D01*
G01*
G37*
G36*
G01*
X143803123Y-98386827D02*
X142813173Y-97396877D01*
G75*
G02*
X142813173Y-97290811I53033J53033D01*
G01*
X142919239Y-97184745D01*
G75*
G02*
X143025305Y-97184745I53033J-53033D01*
G01*
X144015255Y-98174695D01*
G75*
G02*
X144015255Y-98280761I-53033J-53033D01*
G01*
X143909189Y-98386827D01*
G75*
G02*
X143803123Y-98386827I-53033J53033D01*
G01*
G37*
G36*
G01*
X144156676Y-98033274D02*
X143166726Y-97043324D01*
G75*
G02*
X143166726Y-96937258I53033J53033D01*
G01*
X143272792Y-96831192D01*
G75*
G02*
X143378858Y-96831192I53033J-53033D01*
G01*
X144368808Y-97821142D01*
G75*
G02*
X144368808Y-97927208I-53033J-53033D01*
G01*
X144262742Y-98033274D01*
G75*
G02*
X144156676Y-98033274I-53033J53033D01*
G01*
G37*
G36*
G01*
X144510229Y-97679721D02*
X143520279Y-96689771D01*
G75*
G02*
X143520279Y-96583705I53033J53033D01*
G01*
X143626345Y-96477639D01*
G75*
G02*
X143732411Y-96477639I53033J-53033D01*
G01*
X144722361Y-97467589D01*
G75*
G02*
X144722361Y-97573655I-53033J-53033D01*
G01*
X144616295Y-97679721D01*
G75*
G02*
X144510229Y-97679721I-53033J53033D01*
G01*
G37*
G36*
G01*
X143626345Y-94957359D02*
X143520279Y-94851293D01*
G75*
G02*
X143520279Y-94745227I53033J53033D01*
G01*
X144510229Y-93755277D01*
G75*
G02*
X144616295Y-93755277I53033J-53033D01*
G01*
X144722361Y-93861343D01*
G75*
G02*
X144722361Y-93967409I-53033J-53033D01*
G01*
X143732411Y-94957359D01*
G75*
G02*
X143626345Y-94957359I-53033J53033D01*
G01*
G37*
G36*
G01*
X143272792Y-94603806D02*
X143166726Y-94497740D01*
G75*
G02*
X143166726Y-94391674I53033J53033D01*
G01*
X144156676Y-93401724D01*
G75*
G02*
X144262742Y-93401724I53033J-53033D01*
G01*
X144368808Y-93507790D01*
G75*
G02*
X144368808Y-93613856I-53033J-53033D01*
G01*
X143378858Y-94603806D01*
G75*
G02*
X143272792Y-94603806I-53033J53033D01*
G01*
G37*
G36*
G01*
X142919239Y-94250253D02*
X142813173Y-94144187D01*
G75*
G02*
X142813173Y-94038121I53033J53033D01*
G01*
X143803123Y-93048171D01*
G75*
G02*
X143909189Y-93048171I53033J-53033D01*
G01*
X144015255Y-93154237D01*
G75*
G02*
X144015255Y-93260303I-53033J-53033D01*
G01*
X143025305Y-94250253D01*
G75*
G02*
X142919239Y-94250253I-53033J53033D01*
G01*
G37*
G36*
G01*
X142565685Y-93896699D02*
X142459619Y-93790633D01*
G75*
G02*
X142459619Y-93684567I53033J53033D01*
G01*
X143449569Y-92694617D01*
G75*
G02*
X143555635Y-92694617I53033J-53033D01*
G01*
X143661701Y-92800683D01*
G75*
G02*
X143661701Y-92906749I-53033J-53033D01*
G01*
X142671751Y-93896699D01*
G75*
G02*
X142565685Y-93896699I-53033J53033D01*
G01*
G37*
G36*
G01*
X142212132Y-93543146D02*
X142106066Y-93437080D01*
G75*
G02*
X142106066Y-93331014I53033J53033D01*
G01*
X143096016Y-92341064D01*
G75*
G02*
X143202082Y-92341064I53033J-53033D01*
G01*
X143308148Y-92447130D01*
G75*
G02*
X143308148Y-92553196I-53033J-53033D01*
G01*
X142318198Y-93543146D01*
G75*
G02*
X142212132Y-93543146I-53033J53033D01*
G01*
G37*
G36*
G01*
X141858578Y-93189592D02*
X141752512Y-93083526D01*
G75*
G02*
X141752512Y-92977460I53033J53033D01*
G01*
X142742462Y-91987510D01*
G75*
G02*
X142848528Y-91987510I53033J-53033D01*
G01*
X142954594Y-92093576D01*
G75*
G02*
X142954594Y-92199642I-53033J-53033D01*
G01*
X141964644Y-93189592D01*
G75*
G02*
X141858578Y-93189592I-53033J53033D01*
G01*
G37*
G36*
G01*
X141505025Y-92836039D02*
X141398959Y-92729973D01*
G75*
G02*
X141398959Y-92623907I53033J53033D01*
G01*
X142388909Y-91633957D01*
G75*
G02*
X142494975Y-91633957I53033J-53033D01*
G01*
X142601041Y-91740023D01*
G75*
G02*
X142601041Y-91846089I-53033J-53033D01*
G01*
X141611091Y-92836039D01*
G75*
G02*
X141505025Y-92836039I-53033J53033D01*
G01*
G37*
G36*
G01*
X141151472Y-92482486D02*
X141045406Y-92376420D01*
G75*
G02*
X141045406Y-92270354I53033J53033D01*
G01*
X142035356Y-91280404D01*
G75*
G02*
X142141422Y-91280404I53033J-53033D01*
G01*
X142247488Y-91386470D01*
G75*
G02*
X142247488Y-91492536I-53033J-53033D01*
G01*
X141257538Y-92482486D01*
G75*
G02*
X141151472Y-92482486I-53033J53033D01*
G01*
G37*
G36*
G01*
X140797918Y-92128932D02*
X140691852Y-92022866D01*
G75*
G02*
X140691852Y-91916800I53033J53033D01*
G01*
X141681802Y-90926850D01*
G75*
G02*
X141787868Y-90926850I53033J-53033D01*
G01*
X141893934Y-91032916D01*
G75*
G02*
X141893934Y-91138982I-53033J-53033D01*
G01*
X140903984Y-92128932D01*
G75*
G02*
X140797918Y-92128932I-53033J53033D01*
G01*
G37*
G36*
G01*
X140444365Y-91775379D02*
X140338299Y-91669313D01*
G75*
G02*
X140338299Y-91563247I53033J53033D01*
G01*
X141328249Y-90573297D01*
G75*
G02*
X141434315Y-90573297I53033J-53033D01*
G01*
X141540381Y-90679363D01*
G75*
G02*
X141540381Y-90785429I-53033J-53033D01*
G01*
X140550431Y-91775379D01*
G75*
G02*
X140444365Y-91775379I-53033J53033D01*
G01*
G37*
G36*
G01*
X140090812Y-91421826D02*
X139984746Y-91315760D01*
G75*
G02*
X139984746Y-91209694I53033J53033D01*
G01*
X140974696Y-90219744D01*
G75*
G02*
X141080762Y-90219744I53033J-53033D01*
G01*
X141186828Y-90325810D01*
G75*
G02*
X141186828Y-90431876I-53033J-53033D01*
G01*
X140196878Y-91421826D01*
G75*
G02*
X140090812Y-91421826I-53033J53033D01*
G01*
G37*
G36*
G01*
X139737258Y-91068272D02*
X139631192Y-90962206D01*
G75*
G02*
X139631192Y-90856140I53033J53033D01*
G01*
X140621142Y-89866190D01*
G75*
G02*
X140727208Y-89866190I53033J-53033D01*
G01*
X140833274Y-89972256D01*
G75*
G02*
X140833274Y-90078322I-53033J-53033D01*
G01*
X139843324Y-91068272D01*
G75*
G02*
X139737258Y-91068272I-53033J53033D01*
G01*
G37*
G36*
G01*
X139383705Y-90714719D02*
X139277639Y-90608653D01*
G75*
G02*
X139277639Y-90502587I53033J53033D01*
G01*
X140267589Y-89512637D01*
G75*
G02*
X140373655Y-89512637I53033J-53033D01*
G01*
X140479721Y-89618703D01*
G75*
G02*
X140479721Y-89724769I-53033J-53033D01*
G01*
X139489771Y-90714719D01*
G75*
G02*
X139383705Y-90714719I-53033J53033D01*
G01*
G37*
G36*
G01*
X139030151Y-90361165D02*
X138924085Y-90255099D01*
G75*
G02*
X138924085Y-90149033I53033J53033D01*
G01*
X139914035Y-89159083D01*
G75*
G02*
X140020101Y-89159083I53033J-53033D01*
G01*
X140126167Y-89265149D01*
G75*
G02*
X140126167Y-89371215I-53033J-53033D01*
G01*
X139136217Y-90361165D01*
G75*
G02*
X139030151Y-90361165I-53033J53033D01*
G01*
G37*
G36*
G01*
X138676598Y-90007612D02*
X138570532Y-89901546D01*
G75*
G02*
X138570532Y-89795480I53033J53033D01*
G01*
X139560482Y-88805530D01*
G75*
G02*
X139666548Y-88805530I53033J-53033D01*
G01*
X139772614Y-88911596D01*
G75*
G02*
X139772614Y-89017662I-53033J-53033D01*
G01*
X138782664Y-90007612D01*
G75*
G02*
X138676598Y-90007612I-53033J53033D01*
G01*
G37*
G36*
G01*
X138323045Y-89654059D02*
X138216979Y-89547993D01*
G75*
G02*
X138216979Y-89441927I53033J53033D01*
G01*
X139206929Y-88451977D01*
G75*
G02*
X139312995Y-88451977I53033J-53033D01*
G01*
X139419061Y-88558043D01*
G75*
G02*
X139419061Y-88664109I-53033J-53033D01*
G01*
X138429111Y-89654059D01*
G75*
G02*
X138323045Y-89654059I-53033J53033D01*
G01*
G37*
G36*
G01*
X136484567Y-89654059D02*
X135494617Y-88664109D01*
G75*
G02*
X135494617Y-88558043I53033J53033D01*
G01*
X135600683Y-88451977D01*
G75*
G02*
X135706749Y-88451977I53033J-53033D01*
G01*
X136696699Y-89441927D01*
G75*
G02*
X136696699Y-89547993I-53033J-53033D01*
G01*
X136590633Y-89654059D01*
G75*
G02*
X136484567Y-89654059I-53033J53033D01*
G01*
G37*
G36*
G01*
X136131014Y-90007612D02*
X135141064Y-89017662D01*
G75*
G02*
X135141064Y-88911596I53033J53033D01*
G01*
X135247130Y-88805530D01*
G75*
G02*
X135353196Y-88805530I53033J-53033D01*
G01*
X136343146Y-89795480D01*
G75*
G02*
X136343146Y-89901546I-53033J-53033D01*
G01*
X136237080Y-90007612D01*
G75*
G02*
X136131014Y-90007612I-53033J53033D01*
G01*
G37*
G36*
G01*
X135777461Y-90361165D02*
X134787511Y-89371215D01*
G75*
G02*
X134787511Y-89265149I53033J53033D01*
G01*
X134893577Y-89159083D01*
G75*
G02*
X134999643Y-89159083I53033J-53033D01*
G01*
X135989593Y-90149033D01*
G75*
G02*
X135989593Y-90255099I-53033J-53033D01*
G01*
X135883527Y-90361165D01*
G75*
G02*
X135777461Y-90361165I-53033J53033D01*
G01*
G37*
G36*
G01*
X135423907Y-90714719D02*
X134433957Y-89724769D01*
G75*
G02*
X134433957Y-89618703I53033J53033D01*
G01*
X134540023Y-89512637D01*
G75*
G02*
X134646089Y-89512637I53033J-53033D01*
G01*
X135636039Y-90502587D01*
G75*
G02*
X135636039Y-90608653I-53033J-53033D01*
G01*
X135529973Y-90714719D01*
G75*
G02*
X135423907Y-90714719I-53033J53033D01*
G01*
G37*
G36*
G01*
X135070354Y-91068272D02*
X134080404Y-90078322D01*
G75*
G02*
X134080404Y-89972256I53033J53033D01*
G01*
X134186470Y-89866190D01*
G75*
G02*
X134292536Y-89866190I53033J-53033D01*
G01*
X135282486Y-90856140D01*
G75*
G02*
X135282486Y-90962206I-53033J-53033D01*
G01*
X135176420Y-91068272D01*
G75*
G02*
X135070354Y-91068272I-53033J53033D01*
G01*
G37*
G36*
G01*
X134716800Y-91421826D02*
X133726850Y-90431876D01*
G75*
G02*
X133726850Y-90325810I53033J53033D01*
G01*
X133832916Y-90219744D01*
G75*
G02*
X133938982Y-90219744I53033J-53033D01*
G01*
X134928932Y-91209694D01*
G75*
G02*
X134928932Y-91315760I-53033J-53033D01*
G01*
X134822866Y-91421826D01*
G75*
G02*
X134716800Y-91421826I-53033J53033D01*
G01*
G37*
G36*
G01*
X134363247Y-91775379D02*
X133373297Y-90785429D01*
G75*
G02*
X133373297Y-90679363I53033J53033D01*
G01*
X133479363Y-90573297D01*
G75*
G02*
X133585429Y-90573297I53033J-53033D01*
G01*
X134575379Y-91563247D01*
G75*
G02*
X134575379Y-91669313I-53033J-53033D01*
G01*
X134469313Y-91775379D01*
G75*
G02*
X134363247Y-91775379I-53033J53033D01*
G01*
G37*
G36*
G01*
X134009694Y-92128932D02*
X133019744Y-91138982D01*
G75*
G02*
X133019744Y-91032916I53033J53033D01*
G01*
X133125810Y-90926850D01*
G75*
G02*
X133231876Y-90926850I53033J-53033D01*
G01*
X134221826Y-91916800D01*
G75*
G02*
X134221826Y-92022866I-53033J-53033D01*
G01*
X134115760Y-92128932D01*
G75*
G02*
X134009694Y-92128932I-53033J53033D01*
G01*
G37*
G36*
G01*
X133656140Y-92482486D02*
X132666190Y-91492536D01*
G75*
G02*
X132666190Y-91386470I53033J53033D01*
G01*
X132772256Y-91280404D01*
G75*
G02*
X132878322Y-91280404I53033J-53033D01*
G01*
X133868272Y-92270354D01*
G75*
G02*
X133868272Y-92376420I-53033J-53033D01*
G01*
X133762206Y-92482486D01*
G75*
G02*
X133656140Y-92482486I-53033J53033D01*
G01*
G37*
G36*
G01*
X133302587Y-92836039D02*
X132312637Y-91846089D01*
G75*
G02*
X132312637Y-91740023I53033J53033D01*
G01*
X132418703Y-91633957D01*
G75*
G02*
X132524769Y-91633957I53033J-53033D01*
G01*
X133514719Y-92623907D01*
G75*
G02*
X133514719Y-92729973I-53033J-53033D01*
G01*
X133408653Y-92836039D01*
G75*
G02*
X133302587Y-92836039I-53033J53033D01*
G01*
G37*
G36*
G01*
X132949034Y-93189592D02*
X131959084Y-92199642D01*
G75*
G02*
X131959084Y-92093576I53033J53033D01*
G01*
X132065150Y-91987510D01*
G75*
G02*
X132171216Y-91987510I53033J-53033D01*
G01*
X133161166Y-92977460D01*
G75*
G02*
X133161166Y-93083526I-53033J-53033D01*
G01*
X133055100Y-93189592D01*
G75*
G02*
X132949034Y-93189592I-53033J53033D01*
G01*
G37*
G36*
G01*
X132595480Y-93543146D02*
X131605530Y-92553196D01*
G75*
G02*
X131605530Y-92447130I53033J53033D01*
G01*
X131711596Y-92341064D01*
G75*
G02*
X131817662Y-92341064I53033J-53033D01*
G01*
X132807612Y-93331014D01*
G75*
G02*
X132807612Y-93437080I-53033J-53033D01*
G01*
X132701546Y-93543146D01*
G75*
G02*
X132595480Y-93543146I-53033J53033D01*
G01*
G37*
G36*
G01*
X132241927Y-93896699D02*
X131251977Y-92906749D01*
G75*
G02*
X131251977Y-92800683I53033J53033D01*
G01*
X131358043Y-92694617D01*
G75*
G02*
X131464109Y-92694617I53033J-53033D01*
G01*
X132454059Y-93684567D01*
G75*
G02*
X132454059Y-93790633I-53033J-53033D01*
G01*
X132347993Y-93896699D01*
G75*
G02*
X132241927Y-93896699I-53033J53033D01*
G01*
G37*
G36*
G01*
X131888373Y-94250253D02*
X130898423Y-93260303D01*
G75*
G02*
X130898423Y-93154237I53033J53033D01*
G01*
X131004489Y-93048171D01*
G75*
G02*
X131110555Y-93048171I53033J-53033D01*
G01*
X132100505Y-94038121D01*
G75*
G02*
X132100505Y-94144187I-53033J-53033D01*
G01*
X131994439Y-94250253D01*
G75*
G02*
X131888373Y-94250253I-53033J53033D01*
G01*
G37*
G36*
G01*
X131534820Y-94603806D02*
X130544870Y-93613856D01*
G75*
G02*
X130544870Y-93507790I53033J53033D01*
G01*
X130650936Y-93401724D01*
G75*
G02*
X130757002Y-93401724I53033J-53033D01*
G01*
X131746952Y-94391674D01*
G75*
G02*
X131746952Y-94497740I-53033J-53033D01*
G01*
X131640886Y-94603806D01*
G75*
G02*
X131534820Y-94603806I-53033J53033D01*
G01*
G37*
G36*
G01*
X131181267Y-94957359D02*
X130191317Y-93967409D01*
G75*
G02*
X130191317Y-93861343I53033J53033D01*
G01*
X130297383Y-93755277D01*
G75*
G02*
X130403449Y-93755277I53033J-53033D01*
G01*
X131393399Y-94745227D01*
G75*
G02*
X131393399Y-94851293I-53033J-53033D01*
G01*
X131287333Y-94957359D01*
G75*
G02*
X131181267Y-94957359I-53033J53033D01*
G01*
G37*
G36*
G01*
X147706840Y-105767499D02*
X146406838Y-105767499D01*
G75*
G02*
X146156839Y-105517500I0J249999D01*
G01*
X146156839Y-104867498D01*
G75*
G02*
X146406838Y-104617499I249999J0D01*
G01*
X147706840Y-104617499D01*
G75*
G02*
X147956839Y-104867498I0J-249999D01*
G01*
X147956839Y-105517500D01*
G75*
G02*
X147706840Y-105767499I-249999J0D01*
G01*
G37*
G36*
G01*
X147706840Y-102817499D02*
X146406838Y-102817499D01*
G75*
G02*
X146156839Y-102567500I0J249999D01*
G01*
X146156839Y-101917498D01*
G75*
G02*
X146406838Y-101667499I249999J0D01*
G01*
X147706840Y-101667499D01*
G75*
G02*
X147956839Y-101917498I0J-249999D01*
G01*
X147956839Y-102567500D01*
G75*
G02*
X147706840Y-102817499I-249999J0D01*
G01*
G37*
G36*
G01*
X147706840Y-97767499D02*
X146406838Y-97767499D01*
G75*
G02*
X146156839Y-97517500I0J249999D01*
G01*
X146156839Y-96867498D01*
G75*
G02*
X146406838Y-96617499I249999J0D01*
G01*
X147706840Y-96617499D01*
G75*
G02*
X147956839Y-96867498I0J-249999D01*
G01*
X147956839Y-97517500D01*
G75*
G02*
X147706840Y-97767499I-249999J0D01*
G01*
G37*
G36*
G01*
X147706840Y-94817499D02*
X146406838Y-94817499D01*
G75*
G02*
X146156839Y-94567500I0J249999D01*
G01*
X146156839Y-93917498D01*
G75*
G02*
X146406838Y-93667499I249999J0D01*
G01*
X147706840Y-93667499D01*
G75*
G02*
X147956839Y-93917498I0J-249999D01*
G01*
X147956839Y-94567500D01*
G75*
G02*
X147706840Y-94817499I-249999J0D01*
G01*
G37*
G36*
X148731839Y-104972499D02*
G01*
X149531839Y-104972499D01*
X149531839Y-104302499D01*
X148731839Y-104302499D01*
X148731839Y-103702499D01*
X149531839Y-103702499D01*
X149531839Y-103032499D01*
X148731839Y-103032499D01*
X148731839Y-102432499D01*
X149531839Y-102432499D01*
X149531839Y-101762499D01*
X148731839Y-101762499D01*
X148731839Y-101162499D01*
X153281839Y-101162499D01*
X153281839Y-105572499D01*
X148731839Y-105572499D01*
X148731839Y-104972499D01*
G37*
G36*
G01*
X155381839Y-105147499D02*
X155381839Y-105397499D01*
G75*
G02*
X155256839Y-105522499I-125000J0D01*
G01*
X154656839Y-105522499D01*
G75*
G02*
X154531839Y-105397499I0J125000D01*
G01*
X154531839Y-105147499D01*
G75*
G02*
X154656839Y-105022499I125000J0D01*
G01*
X155256839Y-105022499D01*
G75*
G02*
X155381839Y-105147499I0J-125000D01*
G01*
G37*
G36*
G01*
X155381839Y-103877499D02*
X155381839Y-104127499D01*
G75*
G02*
X155256839Y-104252499I-125000J0D01*
G01*
X154656839Y-104252499D01*
G75*
G02*
X154531839Y-104127499I0J125000D01*
G01*
X154531839Y-103877499D01*
G75*
G02*
X154656839Y-103752499I125000J0D01*
G01*
X155256839Y-103752499D01*
G75*
G02*
X155381839Y-103877499I0J-125000D01*
G01*
G37*
G36*
G01*
X155381839Y-102607499D02*
X155381839Y-102857499D01*
G75*
G02*
X155256839Y-102982499I-125000J0D01*
G01*
X154656839Y-102982499D01*
G75*
G02*
X154531839Y-102857499I0J125000D01*
G01*
X154531839Y-102607499D01*
G75*
G02*
X154656839Y-102482499I125000J0D01*
G01*
X155256839Y-102482499D01*
G75*
G02*
X155381839Y-102607499I0J-125000D01*
G01*
G37*
G36*
G01*
X155381839Y-101337499D02*
X155381839Y-101587499D01*
G75*
G02*
X155256839Y-101712499I-125000J0D01*
G01*
X154656839Y-101712499D01*
G75*
G02*
X154531839Y-101587499I0J125000D01*
G01*
X154531839Y-101337499D01*
G75*
G02*
X154656839Y-101212499I125000J0D01*
G01*
X155256839Y-101212499D01*
G75*
G02*
X155381839Y-101337499I0J-125000D01*
G01*
G37*
G36*
X148731839Y-97322499D02*
G01*
X149531839Y-97322499D01*
X149531839Y-96652499D01*
X148731839Y-96652499D01*
X148731839Y-96052499D01*
X149531839Y-96052499D01*
X149531839Y-95382499D01*
X148731839Y-95382499D01*
X148731839Y-94782499D01*
X149531839Y-94782499D01*
X149531839Y-94112499D01*
X148731839Y-94112499D01*
X148731839Y-93512499D01*
X153281839Y-93512499D01*
X153281839Y-97922499D01*
X148731839Y-97922499D01*
X148731839Y-97322499D01*
G37*
G36*
G01*
X155381839Y-97497499D02*
X155381839Y-97747499D01*
G75*
G02*
X155256839Y-97872499I-125000J0D01*
G01*
X154656839Y-97872499D01*
G75*
G02*
X154531839Y-97747499I0J125000D01*
G01*
X154531839Y-97497499D01*
G75*
G02*
X154656839Y-97372499I125000J0D01*
G01*
X155256839Y-97372499D01*
G75*
G02*
X155381839Y-97497499I0J-125000D01*
G01*
G37*
G36*
G01*
X155381839Y-96227499D02*
X155381839Y-96477499D01*
G75*
G02*
X155256839Y-96602499I-125000J0D01*
G01*
X154656839Y-96602499D01*
G75*
G02*
X154531839Y-96477499I0J125000D01*
G01*
X154531839Y-96227499D01*
G75*
G02*
X154656839Y-96102499I125000J0D01*
G01*
X155256839Y-96102499D01*
G75*
G02*
X155381839Y-96227499I0J-125000D01*
G01*
G37*
G36*
G01*
X155381839Y-94957499D02*
X155381839Y-95207499D01*
G75*
G02*
X155256839Y-95332499I-125000J0D01*
G01*
X154656839Y-95332499D01*
G75*
G02*
X154531839Y-95207499I0J125000D01*
G01*
X154531839Y-94957499D01*
G75*
G02*
X154656839Y-94832499I125000J0D01*
G01*
X155256839Y-94832499D01*
G75*
G02*
X155381839Y-94957499I0J-125000D01*
G01*
G37*
G36*
G01*
X155381839Y-93687499D02*
X155381839Y-93937499D01*
G75*
G02*
X155256839Y-94062499I-125000J0D01*
G01*
X154656839Y-94062499D01*
G75*
G02*
X154531839Y-93937499I0J125000D01*
G01*
X154531839Y-93687499D01*
G75*
G02*
X154656839Y-93562499I125000J0D01*
G01*
X155256839Y-93562499D01*
G75*
G02*
X155381839Y-93687499I0J-125000D01*
G01*
G37*
G36*
X148731839Y-89622499D02*
G01*
X149531839Y-89622499D01*
X149531839Y-88952499D01*
X148731839Y-88952499D01*
X148731839Y-88352499D01*
X149531839Y-88352499D01*
X149531839Y-87682499D01*
X148731839Y-87682499D01*
X148731839Y-87082499D01*
X149531839Y-87082499D01*
X149531839Y-86412499D01*
X148731839Y-86412499D01*
X148731839Y-85812499D01*
X153281839Y-85812499D01*
X153281839Y-90222499D01*
X148731839Y-90222499D01*
X148731839Y-89622499D01*
G37*
G36*
G01*
X155381839Y-89797499D02*
X155381839Y-90047499D01*
G75*
G02*
X155256839Y-90172499I-125000J0D01*
G01*
X154656839Y-90172499D01*
G75*
G02*
X154531839Y-90047499I0J125000D01*
G01*
X154531839Y-89797499D01*
G75*
G02*
X154656839Y-89672499I125000J0D01*
G01*
X155256839Y-89672499D01*
G75*
G02*
X155381839Y-89797499I0J-125000D01*
G01*
G37*
G36*
G01*
X155381839Y-88527499D02*
X155381839Y-88777499D01*
G75*
G02*
X155256839Y-88902499I-125000J0D01*
G01*
X154656839Y-88902499D01*
G75*
G02*
X154531839Y-88777499I0J125000D01*
G01*
X154531839Y-88527499D01*
G75*
G02*
X154656839Y-88402499I125000J0D01*
G01*
X155256839Y-88402499D01*
G75*
G02*
X155381839Y-88527499I0J-125000D01*
G01*
G37*
G36*
G01*
X155381839Y-87257499D02*
X155381839Y-87507499D01*
G75*
G02*
X155256839Y-87632499I-125000J0D01*
G01*
X154656839Y-87632499D01*
G75*
G02*
X154531839Y-87507499I0J125000D01*
G01*
X154531839Y-87257499D01*
G75*
G02*
X154656839Y-87132499I125000J0D01*
G01*
X155256839Y-87132499D01*
G75*
G02*
X155381839Y-87257499I0J-125000D01*
G01*
G37*
G36*
G01*
X155381839Y-85987499D02*
X155381839Y-86237499D01*
G75*
G02*
X155256839Y-86362499I-125000J0D01*
G01*
X154656839Y-86362499D01*
G75*
G02*
X154531839Y-86237499I0J125000D01*
G01*
X154531839Y-85987499D01*
G75*
G02*
X154656839Y-85862499I125000J0D01*
G01*
X155256839Y-85862499D01*
G75*
G02*
X155381839Y-85987499I0J-125000D01*
G01*
G37*
D10*
X127006839Y-93667499D03*
X127006839Y-96967499D03*
G36*
G01*
X127936838Y-105782499D02*
X127936838Y-106152499D01*
G75*
G02*
X127801838Y-106287499I-135000J0D01*
G01*
X127531838Y-106287499D01*
G75*
G02*
X127396838Y-106152499I0J135000D01*
G01*
X127396838Y-105782499D01*
G75*
G02*
X127531838Y-105647499I135000J0D01*
G01*
X127801838Y-105647499D01*
G75*
G02*
X127936838Y-105782499I0J-135000D01*
G01*
G37*
G36*
G01*
X126916840Y-105782499D02*
X126916840Y-106152499D01*
G75*
G02*
X126781840Y-106287499I-135000J0D01*
G01*
X126511840Y-106287499D01*
G75*
G02*
X126376840Y-106152499I0J135000D01*
G01*
X126376840Y-105782499D01*
G75*
G02*
X126511840Y-105647499I135000J0D01*
G01*
X126781840Y-105647499D01*
G75*
G02*
X126916840Y-105782499I0J-135000D01*
G01*
G37*
G36*
G01*
X127946837Y-104732499D02*
X127946837Y-105102499D01*
G75*
G02*
X127811837Y-105237499I-135000J0D01*
G01*
X127541837Y-105237499D01*
G75*
G02*
X127406837Y-105102499I0J135000D01*
G01*
X127406837Y-104732499D01*
G75*
G02*
X127541837Y-104597499I135000J0D01*
G01*
X127811837Y-104597499D01*
G75*
G02*
X127946837Y-104732499I0J-135000D01*
G01*
G37*
G36*
G01*
X126926839Y-104732499D02*
X126926839Y-105102499D01*
G75*
G02*
X126791839Y-105237499I-135000J0D01*
G01*
X126521839Y-105237499D01*
G75*
G02*
X126386839Y-105102499I0J135000D01*
G01*
X126386839Y-104732499D01*
G75*
G02*
X126521839Y-104597499I135000J0D01*
G01*
X126791839Y-104597499D01*
G75*
G02*
X126926839Y-104732499I0J-135000D01*
G01*
G37*
G36*
X156781839Y-89622499D02*
G01*
X157581839Y-89622499D01*
X157581839Y-88952499D01*
X156781839Y-88952499D01*
X156781839Y-88352499D01*
X157581839Y-88352499D01*
X157581839Y-87682499D01*
X156781839Y-87682499D01*
X156781839Y-87082499D01*
X157581839Y-87082499D01*
X157581839Y-86412499D01*
X156781839Y-86412499D01*
X156781839Y-85812499D01*
X161331839Y-85812499D01*
X161331839Y-90222499D01*
X156781839Y-90222499D01*
X156781839Y-89622499D01*
G37*
G36*
G01*
X163431839Y-89797499D02*
X163431839Y-90047499D01*
G75*
G02*
X163306839Y-90172499I-125000J0D01*
G01*
X162706839Y-90172499D01*
G75*
G02*
X162581839Y-90047499I0J125000D01*
G01*
X162581839Y-89797499D01*
G75*
G02*
X162706839Y-89672499I125000J0D01*
G01*
X163306839Y-89672499D01*
G75*
G02*
X163431839Y-89797499I0J-125000D01*
G01*
G37*
G36*
G01*
X163431839Y-88527499D02*
X163431839Y-88777499D01*
G75*
G02*
X163306839Y-88902499I-125000J0D01*
G01*
X162706839Y-88902499D01*
G75*
G02*
X162581839Y-88777499I0J125000D01*
G01*
X162581839Y-88527499D01*
G75*
G02*
X162706839Y-88402499I125000J0D01*
G01*
X163306839Y-88402499D01*
G75*
G02*
X163431839Y-88527499I0J-125000D01*
G01*
G37*
G36*
G01*
X163431839Y-87257499D02*
X163431839Y-87507499D01*
G75*
G02*
X163306839Y-87632499I-125000J0D01*
G01*
X162706839Y-87632499D01*
G75*
G02*
X162581839Y-87507499I0J125000D01*
G01*
X162581839Y-87257499D01*
G75*
G02*
X162706839Y-87132499I125000J0D01*
G01*
X163306839Y-87132499D01*
G75*
G02*
X163431839Y-87257499I0J-125000D01*
G01*
G37*
G36*
G01*
X163431839Y-85987499D02*
X163431839Y-86237499D01*
G75*
G02*
X163306839Y-86362499I-125000J0D01*
G01*
X162706839Y-86362499D01*
G75*
G02*
X162581839Y-86237499I0J125000D01*
G01*
X162581839Y-85987499D01*
G75*
G02*
X162706839Y-85862499I125000J0D01*
G01*
X163306839Y-85862499D01*
G75*
G02*
X163431839Y-85987499I0J-125000D01*
G01*
G37*
G36*
X156781839Y-97322499D02*
G01*
X157581839Y-97322499D01*
X157581839Y-96652499D01*
X156781839Y-96652499D01*
X156781839Y-96052499D01*
X157581839Y-96052499D01*
X157581839Y-95382499D01*
X156781839Y-95382499D01*
X156781839Y-94782499D01*
X157581839Y-94782499D01*
X157581839Y-94112499D01*
X156781839Y-94112499D01*
X156781839Y-93512499D01*
X161331839Y-93512499D01*
X161331839Y-97922499D01*
X156781839Y-97922499D01*
X156781839Y-97322499D01*
G37*
G36*
G01*
X163431839Y-97497499D02*
X163431839Y-97747499D01*
G75*
G02*
X163306839Y-97872499I-125000J0D01*
G01*
X162706839Y-97872499D01*
G75*
G02*
X162581839Y-97747499I0J125000D01*
G01*
X162581839Y-97497499D01*
G75*
G02*
X162706839Y-97372499I125000J0D01*
G01*
X163306839Y-97372499D01*
G75*
G02*
X163431839Y-97497499I0J-125000D01*
G01*
G37*
G36*
G01*
X163431839Y-96227499D02*
X163431839Y-96477499D01*
G75*
G02*
X163306839Y-96602499I-125000J0D01*
G01*
X162706839Y-96602499D01*
G75*
G02*
X162581839Y-96477499I0J125000D01*
G01*
X162581839Y-96227499D01*
G75*
G02*
X162706839Y-96102499I125000J0D01*
G01*
X163306839Y-96102499D01*
G75*
G02*
X163431839Y-96227499I0J-125000D01*
G01*
G37*
G36*
G01*
X163431839Y-94957499D02*
X163431839Y-95207499D01*
G75*
G02*
X163306839Y-95332499I-125000J0D01*
G01*
X162706839Y-95332499D01*
G75*
G02*
X162581839Y-95207499I0J125000D01*
G01*
X162581839Y-94957499D01*
G75*
G02*
X162706839Y-94832499I125000J0D01*
G01*
X163306839Y-94832499D01*
G75*
G02*
X163431839Y-94957499I0J-125000D01*
G01*
G37*
G36*
G01*
X163431839Y-93687499D02*
X163431839Y-93937499D01*
G75*
G02*
X163306839Y-94062499I-125000J0D01*
G01*
X162706839Y-94062499D01*
G75*
G02*
X162581839Y-93937499I0J125000D01*
G01*
X162581839Y-93687499D01*
G75*
G02*
X162706839Y-93562499I125000J0D01*
G01*
X163306839Y-93562499D01*
G75*
G02*
X163431839Y-93687499I0J-125000D01*
G01*
G37*
G36*
X156781839Y-104972499D02*
G01*
X157581839Y-104972499D01*
X157581839Y-104302499D01*
X156781839Y-104302499D01*
X156781839Y-103702499D01*
X157581839Y-103702499D01*
X157581839Y-103032499D01*
X156781839Y-103032499D01*
X156781839Y-102432499D01*
X157581839Y-102432499D01*
X157581839Y-101762499D01*
X156781839Y-101762499D01*
X156781839Y-101162499D01*
X161331839Y-101162499D01*
X161331839Y-105572499D01*
X156781839Y-105572499D01*
X156781839Y-104972499D01*
G37*
G36*
G01*
X163431839Y-105147499D02*
X163431839Y-105397499D01*
G75*
G02*
X163306839Y-105522499I-125000J0D01*
G01*
X162706839Y-105522499D01*
G75*
G02*
X162581839Y-105397499I0J125000D01*
G01*
X162581839Y-105147499D01*
G75*
G02*
X162706839Y-105022499I125000J0D01*
G01*
X163306839Y-105022499D01*
G75*
G02*
X163431839Y-105147499I0J-125000D01*
G01*
G37*
G36*
G01*
X163431839Y-103877499D02*
X163431839Y-104127499D01*
G75*
G02*
X163306839Y-104252499I-125000J0D01*
G01*
X162706839Y-104252499D01*
G75*
G02*
X162581839Y-104127499I0J125000D01*
G01*
X162581839Y-103877499D01*
G75*
G02*
X162706839Y-103752499I125000J0D01*
G01*
X163306839Y-103752499D01*
G75*
G02*
X163431839Y-103877499I0J-125000D01*
G01*
G37*
G36*
G01*
X163431839Y-102607499D02*
X163431839Y-102857499D01*
G75*
G02*
X163306839Y-102982499I-125000J0D01*
G01*
X162706839Y-102982499D01*
G75*
G02*
X162581839Y-102857499I0J125000D01*
G01*
X162581839Y-102607499D01*
G75*
G02*
X162706839Y-102482499I125000J0D01*
G01*
X163306839Y-102482499D01*
G75*
G02*
X163431839Y-102607499I0J-125000D01*
G01*
G37*
G36*
G01*
X163431839Y-101337499D02*
X163431839Y-101587499D01*
G75*
G02*
X163306839Y-101712499I-125000J0D01*
G01*
X162706839Y-101712499D01*
G75*
G02*
X162581839Y-101587499I0J125000D01*
G01*
X162581839Y-101337499D01*
G75*
G02*
X162706839Y-101212499I125000J0D01*
G01*
X163306839Y-101212499D01*
G75*
G02*
X163431839Y-101337499I0J-125000D01*
G01*
G37*
G36*
G01*
X147706840Y-89767499D02*
X146406838Y-89767499D01*
G75*
G02*
X146156839Y-89517500I0J249999D01*
G01*
X146156839Y-88867498D01*
G75*
G02*
X146406838Y-88617499I249999J0D01*
G01*
X147706840Y-88617499D01*
G75*
G02*
X147956839Y-88867498I0J-249999D01*
G01*
X147956839Y-89517500D01*
G75*
G02*
X147706840Y-89767499I-249999J0D01*
G01*
G37*
G36*
G01*
X147706840Y-86817499D02*
X146406838Y-86817499D01*
G75*
G02*
X146156839Y-86567500I0J249999D01*
G01*
X146156839Y-85917498D01*
G75*
G02*
X146406838Y-85667499I249999J0D01*
G01*
X147706840Y-85667499D01*
G75*
G02*
X147956839Y-85917498I0J-249999D01*
G01*
X147956839Y-86567500D01*
G75*
G02*
X147706840Y-86817499I-249999J0D01*
G01*
G37*
D11*
X127981839Y-99467499D03*
X127981839Y-101667499D03*
X129681839Y-101667499D03*
X129681839Y-99467499D03*
G36*
G01*
X136281839Y-87217499D02*
X136281839Y-86717499D01*
G75*
G02*
X136506839Y-86492499I225000J0D01*
G01*
X136956839Y-86492499D01*
G75*
G02*
X137181839Y-86717499I0J-225000D01*
G01*
X137181839Y-87217499D01*
G75*
G02*
X136956839Y-87442499I-225000J0D01*
G01*
X136506839Y-87442499D01*
G75*
G02*
X136281839Y-87217499I0J225000D01*
G01*
G37*
G36*
G01*
X137831839Y-87217499D02*
X137831839Y-86717499D01*
G75*
G02*
X138056839Y-86492499I225000J0D01*
G01*
X138506839Y-86492499D01*
G75*
G02*
X138731839Y-86717499I0J-225000D01*
G01*
X138731839Y-87217499D01*
G75*
G02*
X138506839Y-87442499I-225000J0D01*
G01*
X138056839Y-87442499D01*
G75*
G02*
X137831839Y-87217499I0J225000D01*
G01*
G37*
G36*
G01*
X129966839Y-94747499D02*
X129966839Y-95087499D01*
G75*
G02*
X129826839Y-95227499I-140000J0D01*
G01*
X129546839Y-95227499D01*
G75*
G02*
X129406839Y-95087499I0J140000D01*
G01*
X129406839Y-94747499D01*
G75*
G02*
X129546839Y-94607499I140000J0D01*
G01*
X129826839Y-94607499D01*
G75*
G02*
X129966839Y-94747499I0J-140000D01*
G01*
G37*
G36*
G01*
X129006839Y-94747499D02*
X129006839Y-95087499D01*
G75*
G02*
X128866839Y-95227499I-140000J0D01*
G01*
X128586839Y-95227499D01*
G75*
G02*
X128446839Y-95087499I0J140000D01*
G01*
X128446839Y-94747499D01*
G75*
G02*
X128586839Y-94607499I140000J0D01*
G01*
X128866839Y-94607499D01*
G75*
G02*
X129006839Y-94747499I0J-140000D01*
G01*
G37*
G36*
G01*
X128616839Y-84977501D02*
X128986839Y-84977501D01*
G75*
G02*
X129121839Y-85112501I0J-135000D01*
G01*
X129121839Y-85382501D01*
G75*
G02*
X128986839Y-85517501I-135000J0D01*
G01*
X128616839Y-85517501D01*
G75*
G02*
X128481839Y-85382501I0J135000D01*
G01*
X128481839Y-85112501D01*
G75*
G02*
X128616839Y-84977501I135000J0D01*
G01*
G37*
G36*
G01*
X128616839Y-85997499D02*
X128986839Y-85997499D01*
G75*
G02*
X129121839Y-86132499I0J-135000D01*
G01*
X129121839Y-86402499D01*
G75*
G02*
X128986839Y-86537499I-135000J0D01*
G01*
X128616839Y-86537499D01*
G75*
G02*
X128481839Y-86402499I0J135000D01*
G01*
X128481839Y-86132499D01*
G75*
G02*
X128616839Y-85997499I135000J0D01*
G01*
G37*
G36*
G01*
X130696839Y-84977501D02*
X131066839Y-84977501D01*
G75*
G02*
X131201839Y-85112501I0J-135000D01*
G01*
X131201839Y-85382501D01*
G75*
G02*
X131066839Y-85517501I-135000J0D01*
G01*
X130696839Y-85517501D01*
G75*
G02*
X130561839Y-85382501I0J135000D01*
G01*
X130561839Y-85112501D01*
G75*
G02*
X130696839Y-84977501I135000J0D01*
G01*
G37*
G36*
G01*
X130696839Y-85997499D02*
X131066839Y-85997499D01*
G75*
G02*
X131201839Y-86132499I0J-135000D01*
G01*
X131201839Y-86402499D01*
G75*
G02*
X131066839Y-86537499I-135000J0D01*
G01*
X130696839Y-86537499D01*
G75*
G02*
X130561839Y-86402499I0J135000D01*
G01*
X130561839Y-86132499D01*
G75*
G02*
X130696839Y-85997499I135000J0D01*
G01*
G37*
G36*
G01*
X127586839Y-84997500D02*
X127926839Y-84997500D01*
G75*
G02*
X128066839Y-85137500I0J-140000D01*
G01*
X128066839Y-85417500D01*
G75*
G02*
X127926839Y-85557500I-140000J0D01*
G01*
X127586839Y-85557500D01*
G75*
G02*
X127446839Y-85417500I0J140000D01*
G01*
X127446839Y-85137500D01*
G75*
G02*
X127586839Y-84997500I140000J0D01*
G01*
G37*
G36*
G01*
X127586839Y-85957500D02*
X127926839Y-85957500D01*
G75*
G02*
X128066839Y-86097500I0J-140000D01*
G01*
X128066839Y-86377500D01*
G75*
G02*
X127926839Y-86517500I-140000J0D01*
G01*
X127586839Y-86517500D01*
G75*
G02*
X127446839Y-86377500I0J140000D01*
G01*
X127446839Y-86097500D01*
G75*
G02*
X127586839Y-85957500I140000J0D01*
G01*
G37*
G36*
G01*
X128636839Y-86907499D02*
X128976839Y-86907499D01*
G75*
G02*
X129116839Y-87047499I0J-140000D01*
G01*
X129116839Y-87327499D01*
G75*
G02*
X128976839Y-87467499I-140000J0D01*
G01*
X128636839Y-87467499D01*
G75*
G02*
X128496839Y-87327499I0J140000D01*
G01*
X128496839Y-87047499D01*
G75*
G02*
X128636839Y-86907499I140000J0D01*
G01*
G37*
G36*
G01*
X128636839Y-87867499D02*
X128976839Y-87867499D01*
G75*
G02*
X129116839Y-88007499I0J-140000D01*
G01*
X129116839Y-88287499D01*
G75*
G02*
X128976839Y-88427499I-140000J0D01*
G01*
X128636839Y-88427499D01*
G75*
G02*
X128496839Y-88287499I0J140000D01*
G01*
X128496839Y-88007499D01*
G75*
G02*
X128636839Y-87867499I140000J0D01*
G01*
G37*
G36*
G01*
X130711839Y-86907499D02*
X131051839Y-86907499D01*
G75*
G02*
X131191839Y-87047499I0J-140000D01*
G01*
X131191839Y-87327499D01*
G75*
G02*
X131051839Y-87467499I-140000J0D01*
G01*
X130711839Y-87467499D01*
G75*
G02*
X130571839Y-87327499I0J140000D01*
G01*
X130571839Y-87047499D01*
G75*
G02*
X130711839Y-86907499I140000J0D01*
G01*
G37*
G36*
G01*
X130711839Y-87867499D02*
X131051839Y-87867499D01*
G75*
G02*
X131191839Y-88007499I0J-140000D01*
G01*
X131191839Y-88287499D01*
G75*
G02*
X131051839Y-88427499I-140000J0D01*
G01*
X130711839Y-88427499D01*
G75*
G02*
X130571839Y-88287499I0J140000D01*
G01*
X130571839Y-88007499D01*
G75*
G02*
X130711839Y-87867499I140000J0D01*
G01*
G37*
G36*
G01*
X129671839Y-84977501D02*
X130041839Y-84977501D01*
G75*
G02*
X130176839Y-85112501I0J-135000D01*
G01*
X130176839Y-85382501D01*
G75*
G02*
X130041839Y-85517501I-135000J0D01*
G01*
X129671839Y-85517501D01*
G75*
G02*
X129536839Y-85382501I0J135000D01*
G01*
X129536839Y-85112501D01*
G75*
G02*
X129671839Y-84977501I135000J0D01*
G01*
G37*
G36*
G01*
X129671839Y-85997499D02*
X130041839Y-85997499D01*
G75*
G02*
X130176839Y-86132499I0J-135000D01*
G01*
X130176839Y-86402499D01*
G75*
G02*
X130041839Y-86537499I-135000J0D01*
G01*
X129671839Y-86537499D01*
G75*
G02*
X129536839Y-86402499I0J135000D01*
G01*
X129536839Y-86132499D01*
G75*
G02*
X129671839Y-85997499I135000J0D01*
G01*
G37*
G36*
G01*
X126896839Y-86537499D02*
X126526839Y-86537499D01*
G75*
G02*
X126391839Y-86402499I0J135000D01*
G01*
X126391839Y-86132499D01*
G75*
G02*
X126526839Y-85997499I135000J0D01*
G01*
X126896839Y-85997499D01*
G75*
G02*
X127031839Y-86132499I0J-135000D01*
G01*
X127031839Y-86402499D01*
G75*
G02*
X126896839Y-86537499I-135000J0D01*
G01*
G37*
G36*
G01*
X126896839Y-85517501D02*
X126526839Y-85517501D01*
G75*
G02*
X126391839Y-85382501I0J135000D01*
G01*
X126391839Y-85112501D01*
G75*
G02*
X126526839Y-84977501I135000J0D01*
G01*
X126896839Y-84977501D01*
G75*
G02*
X127031839Y-85112501I0J-135000D01*
G01*
X127031839Y-85382501D01*
G75*
G02*
X126896839Y-85517501I-135000J0D01*
G01*
G37*
G36*
G01*
X129686839Y-86907499D02*
X130026839Y-86907499D01*
G75*
G02*
X130166839Y-87047499I0J-140000D01*
G01*
X130166839Y-87327499D01*
G75*
G02*
X130026839Y-87467499I-140000J0D01*
G01*
X129686839Y-87467499D01*
G75*
G02*
X129546839Y-87327499I0J140000D01*
G01*
X129546839Y-87047499D01*
G75*
G02*
X129686839Y-86907499I140000J0D01*
G01*
G37*
G36*
G01*
X129686839Y-87867499D02*
X130026839Y-87867499D01*
G75*
G02*
X130166839Y-88007499I0J-140000D01*
G01*
X130166839Y-88287499D01*
G75*
G02*
X130026839Y-88427499I-140000J0D01*
G01*
X129686839Y-88427499D01*
G75*
G02*
X129546839Y-88287499I0J140000D01*
G01*
X129546839Y-88007499D01*
G75*
G02*
X129686839Y-87867499I140000J0D01*
G01*
G37*
D12*
X140506839Y-107050000D03*
X140506839Y-108000000D03*
X140506839Y-108950000D03*
X143206839Y-108950000D03*
X143206839Y-108000000D03*
X143206839Y-107050000D03*
G36*
G01*
X134516839Y-102797499D02*
X134516839Y-103137499D01*
G75*
G02*
X134376839Y-103277499I-140000J0D01*
G01*
X134096839Y-103277499D01*
G75*
G02*
X133956839Y-103137499I0J140000D01*
G01*
X133956839Y-102797499D01*
G75*
G02*
X134096839Y-102657499I140000J0D01*
G01*
X134376839Y-102657499D01*
G75*
G02*
X134516839Y-102797499I0J-140000D01*
G01*
G37*
G36*
G01*
X133556839Y-102797499D02*
X133556839Y-103137499D01*
G75*
G02*
X133416839Y-103277499I-140000J0D01*
G01*
X133136839Y-103277499D01*
G75*
G02*
X132996839Y-103137499I0J140000D01*
G01*
X132996839Y-102797499D01*
G75*
G02*
X133136839Y-102657499I140000J0D01*
G01*
X133416839Y-102657499D01*
G75*
G02*
X133556839Y-102797499I0J-140000D01*
G01*
G37*
G36*
G01*
X125481839Y-89792499D02*
X125481839Y-89242499D01*
G75*
G02*
X125681839Y-89042499I200000J0D01*
G01*
X126081839Y-89042499D01*
G75*
G02*
X126281839Y-89242499I0J-200000D01*
G01*
X126281839Y-89792499D01*
G75*
G02*
X126081839Y-89992499I-200000J0D01*
G01*
X125681839Y-89992499D01*
G75*
G02*
X125481839Y-89792499I0J200000D01*
G01*
G37*
G36*
G01*
X127131839Y-89792499D02*
X127131839Y-89242499D01*
G75*
G02*
X127331839Y-89042499I200000J0D01*
G01*
X127731839Y-89042499D01*
G75*
G02*
X127931839Y-89242499I0J-200000D01*
G01*
X127931839Y-89792499D01*
G75*
G02*
X127731839Y-89992499I-200000J0D01*
G01*
X127331839Y-89992499D01*
G75*
G02*
X127131839Y-89792499I0J200000D01*
G01*
G37*
G36*
G01*
X146581839Y-106867499D02*
X147531839Y-106867499D01*
G75*
G02*
X147781839Y-107117499I0J-250000D01*
G01*
X147781839Y-107617499D01*
G75*
G02*
X147531839Y-107867499I-250000J0D01*
G01*
X146581839Y-107867499D01*
G75*
G02*
X146331839Y-107617499I0J250000D01*
G01*
X146331839Y-107117499D01*
G75*
G02*
X146581839Y-106867499I250000J0D01*
G01*
G37*
G36*
G01*
X146581839Y-108767499D02*
X147531839Y-108767499D01*
G75*
G02*
X147781839Y-109017499I0J-250000D01*
G01*
X147781839Y-109517499D01*
G75*
G02*
X147531839Y-109767499I-250000J0D01*
G01*
X146581839Y-109767499D01*
G75*
G02*
X146331839Y-109517499I0J250000D01*
G01*
X146331839Y-109017499D01*
G75*
G02*
X146581839Y-108767499I250000J0D01*
G01*
G37*
G36*
G01*
X144581839Y-106867499D02*
X145531839Y-106867499D01*
G75*
G02*
X145781839Y-107117499I0J-250000D01*
G01*
X145781839Y-107617499D01*
G75*
G02*
X145531839Y-107867499I-250000J0D01*
G01*
X144581839Y-107867499D01*
G75*
G02*
X144331839Y-107617499I0J250000D01*
G01*
X144331839Y-107117499D01*
G75*
G02*
X144581839Y-106867499I250000J0D01*
G01*
G37*
G36*
G01*
X144581839Y-108767499D02*
X145531839Y-108767499D01*
G75*
G02*
X145781839Y-109017499I0J-250000D01*
G01*
X145781839Y-109517499D01*
G75*
G02*
X145531839Y-109767499I-250000J0D01*
G01*
X144581839Y-109767499D01*
G75*
G02*
X144331839Y-109517499I0J250000D01*
G01*
X144331839Y-109017499D01*
G75*
G02*
X144581839Y-108767499I250000J0D01*
G01*
G37*
D13*
X124276839Y-101342499D03*
D14*
X123276839Y-101992499D03*
X124276839Y-102642499D03*
X123276839Y-103292499D03*
X124276839Y-103942499D03*
D15*
X123976839Y-99067499D03*
X123976839Y-106217499D03*
G36*
G01*
X141046839Y-105970000D02*
X141046839Y-105630000D01*
G75*
G02*
X141186839Y-105490000I140000J0D01*
G01*
X141466839Y-105490000D01*
G75*
G02*
X141606839Y-105630000I0J-140000D01*
G01*
X141606839Y-105970000D01*
G75*
G02*
X141466839Y-106110000I-140000J0D01*
G01*
X141186839Y-106110000D01*
G75*
G02*
X141046839Y-105970000I0J140000D01*
G01*
G37*
G36*
G01*
X142006839Y-105970000D02*
X142006839Y-105630000D01*
G75*
G02*
X142146839Y-105490000I140000J0D01*
G01*
X142426839Y-105490000D01*
G75*
G02*
X142566839Y-105630000I0J-140000D01*
G01*
X142566839Y-105970000D01*
G75*
G02*
X142426839Y-106110000I-140000J0D01*
G01*
X142146839Y-106110000D01*
G75*
G02*
X142006839Y-105970000I0J140000D01*
G01*
G37*
G36*
G01*
X125481839Y-91342499D02*
X125481839Y-90792499D01*
G75*
G02*
X125681839Y-90592499I200000J0D01*
G01*
X126081839Y-90592499D01*
G75*
G02*
X126281839Y-90792499I0J-200000D01*
G01*
X126281839Y-91342499D01*
G75*
G02*
X126081839Y-91542499I-200000J0D01*
G01*
X125681839Y-91542499D01*
G75*
G02*
X125481839Y-91342499I0J200000D01*
G01*
G37*
G36*
G01*
X127131839Y-91342499D02*
X127131839Y-90792499D01*
G75*
G02*
X127331839Y-90592499I200000J0D01*
G01*
X127731839Y-90592499D01*
G75*
G02*
X127931839Y-90792499I0J-200000D01*
G01*
X127931839Y-91342499D01*
G75*
G02*
X127731839Y-91542499I-200000J0D01*
G01*
X127331839Y-91542499D01*
G75*
G02*
X127131839Y-91342499I0J200000D01*
G01*
G37*
D16*
X124116839Y-85557499D03*
D17*
X124116839Y-88097499D03*
X124116839Y-90637499D03*
X124116839Y-93177499D03*
X124116839Y-95717499D03*
D16*
X124116839Y-83017499D03*
D17*
X126656839Y-83017499D03*
X129196839Y-83017499D03*
D16*
X131736839Y-83017499D03*
D17*
X134276839Y-83017499D03*
X136816839Y-83017499D03*
X139356839Y-83017499D03*
X141896839Y-83017499D03*
X144436839Y-83017499D03*
D16*
X124116839Y-108417499D03*
D17*
X126656839Y-108417499D03*
X129196839Y-108417499D03*
X131736839Y-108417499D03*
X134276839Y-108417499D03*
D16*
X157136839Y-83017499D03*
D17*
X159676839Y-83017499D03*
X162216839Y-83017499D03*
X164756839Y-83017499D03*
X167296839Y-83017499D03*
X169836839Y-83017499D03*
D16*
X157136839Y-108417499D03*
D17*
X159676839Y-108417499D03*
X162216839Y-108417499D03*
X164756839Y-108417499D03*
X167296839Y-108417499D03*
X169836839Y-108417499D03*
D16*
X167296839Y-89367499D03*
D17*
X169836839Y-89367499D03*
X167296839Y-86827499D03*
X169836839Y-86827499D03*
D16*
X167296839Y-96987499D03*
D17*
X169836839Y-96987499D03*
X167296839Y-94447499D03*
X169836839Y-94447499D03*
D16*
X167296839Y-104607499D03*
D17*
X169836839Y-104607499D03*
X167296839Y-102067499D03*
X169836839Y-102067499D03*
M02*
