%TF.GenerationSoftware,KiCad,Pcbnew,8.0.4+1*%
%TF.CreationDate,2024-10-19T21:08:08+00:00*%
%TF.ProjectId,xESC2,78455343-322e-46b6-9963-61645f706362,rev?*%
%TF.SameCoordinates,Original*%
%TF.FileFunction,Drillmap*%
%TF.FilePolarity,Positive*%
%FSLAX45Y45*%
G04 Gerber Fmt 4.5, Leading zero omitted, Abs format (unit mm)*
G04 Created by KiCad (PCBNEW 8.0.4+1) date 2024-10-19 21:08:08*
%MOMM*%
%LPD*%
G01*
G04 APERTURE LIST*
%ADD10C,0.050000*%
%ADD11C,0.200000*%
%ADD12C,0.100000*%
G04 APERTURE END LIST*
D10*
X22900000Y-10390000D02*
X27850000Y-10390000D01*
X27850000Y-10390000D02*
X27850000Y-13290000D01*
X22900000Y-13290000D02*
X22900000Y-10390000D01*
X27850000Y-13290000D02*
X22900000Y-13290000D01*
D11*
D12*
X23420000Y-11720000D02*
X23440000Y-11740000D01*
X23440000Y-11720000D02*
X23420000Y-11740000D01*
X23520000Y-11649999D02*
X23540000Y-11669999D01*
X23540000Y-11649999D02*
X23520000Y-11669999D01*
X23570000Y-10910000D02*
X23590000Y-10930000D01*
X23590000Y-10910000D02*
X23570000Y-10930000D01*
X23582500Y-11725000D02*
X23602500Y-11745000D01*
X23602500Y-11725000D02*
X23582500Y-11745000D01*
X23590000Y-12020000D02*
X23610000Y-12040000D01*
X23610000Y-12020000D02*
X23590000Y-12040000D01*
X23660000Y-11717499D02*
X23680000Y-11737499D01*
X23680000Y-11717499D02*
X23660000Y-11737499D01*
X23670000Y-12255000D02*
X23690000Y-12275000D01*
X23690000Y-12255000D02*
X23670000Y-12275000D01*
X23690360Y-11586160D02*
X23710360Y-11606160D01*
X23710360Y-11586160D02*
X23690360Y-11606160D01*
X23740000Y-12480000D02*
X23760000Y-12500000D01*
X23760000Y-12480000D02*
X23740000Y-12500000D01*
X23751881Y-12231881D02*
X23771881Y-12251881D01*
X23771881Y-12231881D02*
X23751881Y-12251881D01*
X23768102Y-10925602D02*
X23788102Y-10945602D01*
X23788102Y-10925602D02*
X23768102Y-10945602D01*
X23832500Y-12365000D02*
X23852500Y-12385000D01*
X23852500Y-12365000D02*
X23832500Y-12385000D01*
X23860000Y-10750000D02*
X23880000Y-10770000D01*
X23880000Y-10750000D02*
X23860000Y-10770000D01*
X23910000Y-12480000D02*
X23930000Y-12500000D01*
X23930000Y-12480000D02*
X23910000Y-12500000D01*
X23946250Y-11896250D02*
X23966250Y-11916250D01*
X23966250Y-11896250D02*
X23946250Y-11916250D01*
X23967839Y-11241621D02*
X23987839Y-11261621D01*
X23987839Y-11241621D02*
X23967839Y-11261621D01*
X23982500Y-12420000D02*
X24002500Y-12440000D01*
X24002500Y-12420000D02*
X23982500Y-12440000D01*
X23985748Y-11770000D02*
X24005748Y-11790000D01*
X24005748Y-11770000D02*
X23985748Y-11790000D01*
X23987500Y-11997500D02*
X24007500Y-12017500D01*
X24007500Y-11997500D02*
X23987500Y-12017500D01*
X23990000Y-10490000D02*
X24010000Y-10510000D01*
X24010000Y-10490000D02*
X23990000Y-10510000D01*
X24004732Y-11849506D02*
X24024732Y-11869506D01*
X24024732Y-11849506D02*
X24004732Y-11869506D01*
X24020000Y-10740000D02*
X24040000Y-10760000D01*
X24040000Y-10740000D02*
X24020000Y-10760000D01*
X24050000Y-11190000D02*
X24070000Y-11210000D01*
X24070000Y-11190000D02*
X24050000Y-11210000D01*
X24068849Y-11762912D02*
X24088849Y-11782912D01*
X24088849Y-11762912D02*
X24068849Y-11782912D01*
X24110950Y-11926894D02*
X24130950Y-11946894D01*
X24130950Y-11926894D02*
X24110950Y-11946894D01*
X24122500Y-12102500D02*
X24142500Y-12122500D01*
X24142500Y-12102500D02*
X24122500Y-12122500D01*
X24149761Y-11728024D02*
X24169761Y-11748024D01*
X24169761Y-11728024D02*
X24149761Y-11748024D01*
X24152500Y-11835000D02*
X24172500Y-11855000D01*
X24172500Y-11835000D02*
X24152500Y-11855000D01*
X24170000Y-10790000D02*
X24190000Y-10810000D01*
X24190000Y-10790000D02*
X24170000Y-10810000D01*
X24194388Y-12185626D02*
X24214388Y-12205626D01*
X24214388Y-12185626D02*
X24194388Y-12205626D01*
X24210000Y-12980000D02*
X24230000Y-13000000D01*
X24230000Y-12980000D02*
X24210000Y-13000000D01*
X24235000Y-10480000D02*
X24255000Y-10500000D01*
X24255000Y-10480000D02*
X24235000Y-10500000D01*
X24250000Y-12640001D02*
X24270000Y-12660001D01*
X24270000Y-12640001D02*
X24250000Y-12660001D01*
X24256250Y-11423750D02*
X24276250Y-11443750D01*
X24276250Y-11423750D02*
X24256250Y-11443750D01*
X24265000Y-12187500D02*
X24285000Y-12207500D01*
X24285000Y-12187500D02*
X24265000Y-12207500D01*
X24269999Y-13020000D02*
X24289999Y-13040000D01*
X24289999Y-13020000D02*
X24269999Y-13040000D01*
X24270000Y-13130000D02*
X24290000Y-13150000D01*
X24290000Y-13130000D02*
X24270000Y-13150000D01*
X24325000Y-10785000D02*
X24345000Y-10805000D01*
X24345000Y-10785000D02*
X24325000Y-10805000D01*
X24330000Y-11430000D02*
X24350000Y-11450000D01*
X24350000Y-11430000D02*
X24330000Y-11450000D01*
X24349999Y-12189999D02*
X24369999Y-12209999D01*
X24369999Y-12189999D02*
X24349999Y-12209999D01*
X24351551Y-12280000D02*
X24371551Y-12300000D01*
X24371551Y-12280000D02*
X24351551Y-12300000D01*
X24365000Y-12352500D02*
X24385000Y-12372500D01*
X24385000Y-12352500D02*
X24365000Y-12372500D01*
X24365000Y-11360000D02*
X24385000Y-11380000D01*
X24385000Y-11360000D02*
X24365000Y-11380000D01*
X24387500Y-11114999D02*
X24407500Y-11134999D01*
X24407500Y-11114999D02*
X24387500Y-11134999D01*
X24402500Y-11291003D02*
X24422500Y-11311003D01*
X24422500Y-11291003D02*
X24402500Y-11311003D01*
X24405000Y-12035000D02*
X24425000Y-12055000D01*
X24425000Y-12035000D02*
X24405000Y-12055000D01*
X24430000Y-13050000D02*
X24450000Y-13070000D01*
X24450000Y-13050000D02*
X24430000Y-13070000D01*
X24440000Y-12520001D02*
X24460000Y-12540001D01*
X24460000Y-12520001D02*
X24440000Y-12540001D01*
X24510000Y-10900000D02*
X24530000Y-10920000D01*
X24530000Y-10900000D02*
X24510000Y-10920000D01*
X24510000Y-11610000D02*
X24530000Y-11630000D01*
X24530000Y-11610000D02*
X24510000Y-11630000D01*
X24510000Y-11810000D02*
X24530000Y-11830000D01*
X24530000Y-11810000D02*
X24510000Y-11830000D01*
X24510000Y-12010000D02*
X24530000Y-12030000D01*
X24530000Y-12010000D02*
X24510000Y-12030000D01*
X24510000Y-12550000D02*
X24530000Y-12570000D01*
X24530000Y-12550000D02*
X24510000Y-12570000D01*
X24527500Y-10672500D02*
X24547500Y-10692500D01*
X24547500Y-10672500D02*
X24527500Y-10692500D01*
X24590000Y-12640000D02*
X24610000Y-12660000D01*
X24610000Y-12640000D02*
X24590000Y-12660000D01*
X24610000Y-12010000D02*
X24630000Y-12030000D01*
X24630000Y-12010000D02*
X24610000Y-12030000D01*
X24670000Y-10894599D02*
X24690000Y-10914599D01*
X24690000Y-10894599D02*
X24670000Y-10914599D01*
X24687500Y-11083102D02*
X24707500Y-11103102D01*
X24707500Y-11083102D02*
X24687500Y-11103102D01*
X24710000Y-11610000D02*
X24730000Y-11630000D01*
X24730000Y-11610000D02*
X24710000Y-11630000D01*
X24710000Y-11810000D02*
X24730000Y-11830000D01*
X24730000Y-11810000D02*
X24710000Y-11830000D01*
X24710000Y-12010000D02*
X24730000Y-12030000D01*
X24730000Y-12010000D02*
X24710000Y-12030000D01*
X24722500Y-10667500D02*
X24742500Y-10687500D01*
X24742500Y-10667500D02*
X24722500Y-10687500D01*
X24742500Y-10490000D02*
X24762500Y-10510000D01*
X24762500Y-10490000D02*
X24742500Y-10510000D01*
X24756550Y-12534885D02*
X24776550Y-12554885D01*
X24776550Y-12534885D02*
X24756550Y-12554885D01*
X24775000Y-13225000D02*
X24795000Y-13245000D01*
X24795000Y-13225000D02*
X24775000Y-13245000D01*
X24810000Y-11170000D02*
X24830000Y-11190000D01*
X24830000Y-11170000D02*
X24810000Y-11190000D01*
X24819051Y-12502863D02*
X24839051Y-12522863D01*
X24839051Y-12502863D02*
X24819051Y-12522863D01*
X24840000Y-10950000D02*
X24860000Y-10970000D01*
X24860000Y-10950000D02*
X24840000Y-10970000D01*
X24840000Y-11800000D02*
X24860000Y-11820000D01*
X24860000Y-11800000D02*
X24840000Y-11820000D01*
X24848133Y-12397862D02*
X24868133Y-12417862D01*
X24868133Y-12397862D02*
X24848133Y-12417862D01*
X24890000Y-10900000D02*
X24910000Y-10920000D01*
X24910000Y-10900000D02*
X24890000Y-10920000D01*
X24890000Y-11000000D02*
X24910000Y-11020000D01*
X24910000Y-11000000D02*
X24890000Y-11020000D01*
X24890000Y-11970000D02*
X24910000Y-11990000D01*
X24910000Y-11970000D02*
X24890000Y-11990000D01*
X24896823Y-12469415D02*
X24916823Y-12489415D01*
X24916823Y-12469415D02*
X24896823Y-12489415D01*
X24945000Y-10720000D02*
X24965000Y-10740000D01*
X24965000Y-10720000D02*
X24945000Y-10740000D01*
X24962500Y-12634799D02*
X24982500Y-12654799D01*
X24982500Y-12634799D02*
X24962500Y-12654799D01*
X24970000Y-12719999D02*
X24990000Y-12739999D01*
X24990000Y-12719999D02*
X24970000Y-12739999D01*
X24975866Y-12550612D02*
X24995866Y-12570612D01*
X24995866Y-12550612D02*
X24975866Y-12570612D01*
X24980000Y-11870000D02*
X25000000Y-11890000D01*
X25000000Y-11870000D02*
X24980000Y-11890000D01*
X25013994Y-12471701D02*
X25033994Y-12491701D01*
X25033994Y-12471701D02*
X25013994Y-12491701D01*
X25042500Y-11270000D02*
X25062500Y-11290000D01*
X25062500Y-11270000D02*
X25042500Y-11290000D01*
X25087500Y-12287500D02*
X25107500Y-12307500D01*
X25107500Y-12287500D02*
X25087500Y-12307500D01*
X25087500Y-12524964D02*
X25107500Y-12544964D01*
X25107500Y-12524964D02*
X25087500Y-12544964D01*
X25087500Y-11110000D02*
X25107500Y-11130000D01*
X25107500Y-11110000D02*
X25087500Y-11130000D01*
X25094142Y-11431085D02*
X25114142Y-11451085D01*
X25114142Y-11431085D02*
X25094142Y-11451085D01*
X25105548Y-12156545D02*
X25125548Y-12176545D01*
X25125548Y-12156545D02*
X25105548Y-12176545D01*
X25127500Y-12225000D02*
X25147500Y-12245000D01*
X25147500Y-12225000D02*
X25127500Y-12245000D01*
X25133450Y-12436772D02*
X25153450Y-12456772D01*
X25153450Y-12436772D02*
X25133450Y-12456772D01*
X25195000Y-12875000D02*
X25215000Y-12895000D01*
X25215000Y-12875000D02*
X25195000Y-12895000D01*
X25229234Y-12668266D02*
X25249234Y-12688266D01*
X25249234Y-12668266D02*
X25229234Y-12688266D01*
X25232501Y-11450000D02*
X25252501Y-11470000D01*
X25252501Y-11450000D02*
X25232501Y-11470000D01*
X25237500Y-12555000D02*
X25257500Y-12575000D01*
X25257500Y-12555000D02*
X25237500Y-12575000D01*
X25350000Y-10740000D02*
X25370000Y-10760000D01*
X25370000Y-10740000D02*
X25350000Y-10760000D01*
X25358449Y-12290561D02*
X25378449Y-12310561D01*
X25378449Y-12290561D02*
X25358449Y-12310561D01*
X25370000Y-12090000D02*
X25390000Y-12110000D01*
X25390000Y-12090000D02*
X25370000Y-12110000D01*
X25390000Y-13150000D02*
X25410000Y-13170000D01*
X25410000Y-13150000D02*
X25390000Y-13170000D01*
X25410000Y-11420000D02*
X25430000Y-11440000D01*
X25430000Y-11420000D02*
X25410000Y-11440000D01*
X25420000Y-11520000D02*
X25440000Y-11540000D01*
X25440000Y-11520000D02*
X25420000Y-11540000D01*
X25430000Y-12910000D02*
X25450000Y-12930000D01*
X25450000Y-12910000D02*
X25430000Y-12930000D01*
X25450000Y-10730000D02*
X25470000Y-10750000D01*
X25470000Y-10730000D02*
X25450000Y-10750000D01*
X25455000Y-12680000D02*
X25475000Y-12700000D01*
X25475000Y-12680000D02*
X25455000Y-12700000D01*
X25490000Y-11430000D02*
X25510000Y-11450000D01*
X25510000Y-11430000D02*
X25490000Y-11450000D01*
X25495000Y-12280000D02*
X25515000Y-12300000D01*
X25515000Y-12280000D02*
X25495000Y-12300000D01*
X25630000Y-11380000D02*
X25650000Y-11400000D01*
X25650000Y-11380000D02*
X25630000Y-11400000D01*
X25630000Y-11480000D02*
X25650000Y-11500000D01*
X25650000Y-11480000D02*
X25630000Y-11500000D01*
X25630000Y-12180000D02*
X25650000Y-12200000D01*
X25650000Y-12180000D02*
X25630000Y-12200000D01*
X25630000Y-12280000D02*
X25650000Y-12300000D01*
X25650000Y-12280000D02*
X25630000Y-12300000D01*
X25690000Y-10480201D02*
X25710000Y-10500201D01*
X25710000Y-10480201D02*
X25690000Y-10500201D01*
X25690000Y-10680000D02*
X25710000Y-10700000D01*
X25710000Y-10680000D02*
X25690000Y-10700000D01*
X25690000Y-12980000D02*
X25710000Y-13000000D01*
X25710000Y-12980000D02*
X25690000Y-13000000D01*
X25690000Y-13180000D02*
X25710000Y-13200000D01*
X25710000Y-13180000D02*
X25690000Y-13200000D01*
X25730000Y-11430000D02*
X25750000Y-11450000D01*
X25750000Y-11430000D02*
X25730000Y-11450000D01*
X25730000Y-12230000D02*
X25750000Y-12250000D01*
X25750000Y-12230000D02*
X25730000Y-12250000D01*
X25740000Y-10580000D02*
X25760000Y-10600000D01*
X25760000Y-10580000D02*
X25740000Y-10600000D01*
X25740000Y-13080000D02*
X25760000Y-13100000D01*
X25760000Y-13080000D02*
X25740000Y-13100000D01*
X25830000Y-11380000D02*
X25850000Y-11400000D01*
X25850000Y-11380000D02*
X25830000Y-11400000D01*
X25830000Y-11480000D02*
X25850000Y-11500000D01*
X25850000Y-11480000D02*
X25830000Y-11500000D01*
X25830000Y-12180000D02*
X25850000Y-12200000D01*
X25850000Y-12180000D02*
X25830000Y-12200000D01*
X25830000Y-12280000D02*
X25850000Y-12300000D01*
X25850000Y-12280000D02*
X25830000Y-12300000D01*
X25840000Y-10480000D02*
X25860000Y-10500000D01*
X25860000Y-10480000D02*
X25840000Y-10500000D01*
X25840000Y-10680000D02*
X25860000Y-10700000D01*
X25860000Y-10680000D02*
X25840000Y-10700000D01*
X25840000Y-12980000D02*
X25860000Y-13000000D01*
X25860000Y-12980000D02*
X25840000Y-13000000D01*
X25840000Y-13180000D02*
X25860000Y-13200000D01*
X25860000Y-13180000D02*
X25840000Y-13200000D01*
X25890000Y-10580000D02*
X25910000Y-10600000D01*
X25910000Y-10580000D02*
X25890000Y-10600000D01*
X25890000Y-13080000D02*
X25910000Y-13100000D01*
X25910000Y-13080000D02*
X25890000Y-13100000D01*
X25930000Y-11430000D02*
X25950000Y-11450000D01*
X25950000Y-11430000D02*
X25930000Y-11450000D01*
X25930000Y-12230000D02*
X25950000Y-12250000D01*
X25950000Y-12230000D02*
X25930000Y-12250000D01*
X25990000Y-10480000D02*
X26010000Y-10500000D01*
X26010000Y-10480000D02*
X25990000Y-10500000D01*
X25990000Y-10680000D02*
X26010000Y-10700000D01*
X26010000Y-10680000D02*
X25990000Y-10700000D01*
X25990000Y-12980000D02*
X26010000Y-13000000D01*
X26010000Y-12980000D02*
X25990000Y-13000000D01*
X25990000Y-13180000D02*
X26010000Y-13200000D01*
X26010000Y-13180000D02*
X25990000Y-13200000D01*
X26030000Y-11380000D02*
X26050000Y-11400000D01*
X26050000Y-11380000D02*
X26030000Y-11400000D01*
X26030000Y-11480000D02*
X26050000Y-11500000D01*
X26050000Y-11480000D02*
X26030000Y-11500000D01*
X26030000Y-12180000D02*
X26050000Y-12200000D01*
X26050000Y-12180000D02*
X26030000Y-12200000D01*
X26030000Y-12280000D02*
X26050000Y-12300000D01*
X26050000Y-12280000D02*
X26030000Y-12300000D01*
X26060949Y-12730000D02*
X26080949Y-12750000D01*
X26080949Y-12730000D02*
X26060949Y-12750000D01*
X26067500Y-11932500D02*
X26087500Y-11952500D01*
X26087500Y-11932500D02*
X26067500Y-11952500D01*
X26072261Y-11164452D02*
X26092261Y-11184452D01*
X26092261Y-11164452D02*
X26072261Y-11184452D01*
X26119998Y-11380000D02*
X26139998Y-11400000D01*
X26139998Y-11380000D02*
X26119998Y-11400000D01*
X26120000Y-12945000D02*
X26140000Y-12965000D01*
X26140000Y-12945000D02*
X26120000Y-12965000D01*
X26138119Y-10698119D02*
X26158119Y-10718119D01*
X26158119Y-10698119D02*
X26138119Y-10718119D01*
X26145000Y-13190000D02*
X26165000Y-13210000D01*
X26165000Y-13190000D02*
X26145000Y-13210000D01*
X26145631Y-11529518D02*
X26165631Y-11549518D01*
X26165631Y-11529518D02*
X26145631Y-11549518D01*
X26157500Y-12205000D02*
X26177500Y-12225000D01*
X26177500Y-12205000D02*
X26157500Y-12225000D01*
X26172502Y-11447500D02*
X26192502Y-11467500D01*
X26192502Y-11447500D02*
X26172502Y-11467500D01*
X26230000Y-12260000D02*
X26250000Y-12280000D01*
X26250000Y-12260000D02*
X26230000Y-12280000D01*
X26254998Y-10624998D02*
X26274998Y-10644998D01*
X26274998Y-10624998D02*
X26254998Y-10644998D01*
X26257500Y-10715000D02*
X26277500Y-10735000D01*
X26277500Y-10715000D02*
X26257500Y-10735000D01*
X26260000Y-12130000D02*
X26280000Y-12150000D01*
X26280000Y-12130000D02*
X26260000Y-12150000D01*
X26260000Y-12910000D02*
X26280000Y-12930000D01*
X26280000Y-12910000D02*
X26260000Y-12930000D01*
X26290000Y-11380000D02*
X26310000Y-11400000D01*
X26310000Y-11380000D02*
X26290000Y-11400000D01*
X26290000Y-11492501D02*
X26310000Y-11512501D01*
X26310000Y-11492501D02*
X26290000Y-11512501D01*
X26290000Y-11670000D02*
X26310000Y-11690000D01*
X26310000Y-11670000D02*
X26290000Y-11690000D01*
X26310000Y-12180000D02*
X26330000Y-12200000D01*
X26330000Y-12180000D02*
X26310000Y-12200000D01*
X26310000Y-12960000D02*
X26330000Y-12980000D01*
X26330000Y-12960000D02*
X26310000Y-12980000D01*
X26320000Y-12360000D02*
X26340000Y-12380000D01*
X26340000Y-12360000D02*
X26320000Y-12380000D01*
X26352500Y-10710000D02*
X26372500Y-10730000D01*
X26372500Y-10710000D02*
X26352500Y-10730000D01*
X26360000Y-12130000D02*
X26380000Y-12150000D01*
X26380000Y-12130000D02*
X26360000Y-12150000D01*
X26360000Y-12910000D02*
X26380000Y-12930000D01*
X26380000Y-12910000D02*
X26360000Y-12930000D01*
X26410000Y-12180000D02*
X26430000Y-12200000D01*
X26430000Y-12180000D02*
X26410000Y-12200000D01*
X26410000Y-12960000D02*
X26430000Y-12980000D01*
X26430000Y-12960000D02*
X26410000Y-12980000D01*
X26430000Y-10750000D02*
X26450000Y-10770000D01*
X26450000Y-10750000D02*
X26430000Y-10770000D01*
X26430000Y-11550000D02*
X26450000Y-11570000D01*
X26450000Y-11550000D02*
X26430000Y-11570000D01*
X26430000Y-12350000D02*
X26450000Y-12370000D01*
X26450000Y-12350000D02*
X26430000Y-12370000D01*
X26460000Y-11330000D02*
X26480000Y-11350000D01*
X26480000Y-11330000D02*
X26460000Y-11350000D01*
X26460000Y-12130000D02*
X26480000Y-12150000D01*
X26480000Y-12130000D02*
X26460000Y-12150000D01*
X26460000Y-12910000D02*
X26480000Y-12930000D01*
X26480000Y-12910000D02*
X26460000Y-12930000D01*
X26480000Y-10700000D02*
X26500000Y-10720000D01*
X26500000Y-10700000D02*
X26480000Y-10720000D01*
X26480000Y-11500000D02*
X26500000Y-11520000D01*
X26500000Y-11500000D02*
X26480000Y-11520000D01*
X26480000Y-12300000D02*
X26500000Y-12320000D01*
X26500000Y-12300000D02*
X26480000Y-12320000D01*
X26510000Y-11380000D02*
X26530000Y-11400000D01*
X26530000Y-11380000D02*
X26510000Y-11400000D01*
X26510000Y-12180000D02*
X26530000Y-12200000D01*
X26530000Y-12180000D02*
X26510000Y-12200000D01*
X26510000Y-12960000D02*
X26530000Y-12980000D01*
X26530000Y-12960000D02*
X26510000Y-12980000D01*
X26530000Y-10750000D02*
X26550000Y-10770000D01*
X26550000Y-10750000D02*
X26530000Y-10770000D01*
X26530000Y-11550000D02*
X26550000Y-11570000D01*
X26550000Y-11550000D02*
X26530000Y-11570000D01*
X26530000Y-12350000D02*
X26550000Y-12370000D01*
X26550000Y-12350000D02*
X26530000Y-12370000D01*
X26560000Y-11330000D02*
X26580000Y-11350000D01*
X26580000Y-11330000D02*
X26560000Y-11350000D01*
X26560000Y-12130000D02*
X26580000Y-12150000D01*
X26580000Y-12130000D02*
X26560000Y-12150000D01*
X26560000Y-12910000D02*
X26580000Y-12930000D01*
X26580000Y-12910000D02*
X26560000Y-12930000D01*
X26580000Y-10700000D02*
X26600000Y-10720000D01*
X26600000Y-10700000D02*
X26580000Y-10720000D01*
X26580000Y-11500000D02*
X26600000Y-11520000D01*
X26600000Y-11500000D02*
X26580000Y-11520000D01*
X26580000Y-12300000D02*
X26600000Y-12320000D01*
X26600000Y-12300000D02*
X26580000Y-12320000D01*
X26610000Y-11380000D02*
X26630000Y-11400000D01*
X26630000Y-11380000D02*
X26610000Y-11400000D01*
X26610000Y-12180000D02*
X26630000Y-12200000D01*
X26630000Y-12180000D02*
X26610000Y-12200000D01*
X26610000Y-12960000D02*
X26630000Y-12980000D01*
X26630000Y-12960000D02*
X26610000Y-12980000D01*
X26630000Y-10750000D02*
X26650000Y-10770000D01*
X26650000Y-10750000D02*
X26630000Y-10770000D01*
X26630000Y-11550000D02*
X26650000Y-11570000D01*
X26650000Y-11550000D02*
X26630000Y-11570000D01*
X26630000Y-12350000D02*
X26650000Y-12370000D01*
X26650000Y-12350000D02*
X26630000Y-12370000D01*
X26660000Y-11330000D02*
X26680000Y-11350000D01*
X26680000Y-11330000D02*
X26660000Y-11350000D01*
X26660000Y-12130000D02*
X26680000Y-12150000D01*
X26680000Y-12130000D02*
X26660000Y-12150000D01*
X26660000Y-12910000D02*
X26680000Y-12930000D01*
X26680000Y-12910000D02*
X26660000Y-12930000D01*
X26680000Y-10700000D02*
X26700000Y-10720000D01*
X26700000Y-10700000D02*
X26680000Y-10720000D01*
X26680000Y-11500000D02*
X26700000Y-11520000D01*
X26700000Y-11500000D02*
X26680000Y-11520000D01*
X26680000Y-12300000D02*
X26700000Y-12320000D01*
X26700000Y-12300000D02*
X26680000Y-12320000D01*
X26710000Y-11380000D02*
X26730000Y-11400000D01*
X26730000Y-11380000D02*
X26710000Y-11400000D01*
X26710000Y-12180000D02*
X26730000Y-12200000D01*
X26730000Y-12180000D02*
X26710000Y-12200000D01*
X26710000Y-12960000D02*
X26730000Y-12980000D01*
X26730000Y-12960000D02*
X26710000Y-12980000D01*
X26730000Y-10750000D02*
X26750000Y-10770000D01*
X26750000Y-10750000D02*
X26730000Y-10770000D01*
X26730000Y-11550000D02*
X26750000Y-11570000D01*
X26750000Y-11550000D02*
X26730000Y-11570000D01*
X26730000Y-12350000D02*
X26750000Y-12370000D01*
X26750000Y-12350000D02*
X26730000Y-12370000D01*
X26760000Y-11330000D02*
X26780000Y-11350000D01*
X26780000Y-11330000D02*
X26760000Y-11350000D01*
X26760000Y-12130000D02*
X26780000Y-12150000D01*
X26780000Y-12130000D02*
X26760000Y-12150000D01*
X26760000Y-12910000D02*
X26780000Y-12930000D01*
X26780000Y-12910000D02*
X26760000Y-12930000D01*
X26780000Y-10700000D02*
X26800000Y-10720000D01*
X26800000Y-10700000D02*
X26780000Y-10720000D01*
X26780000Y-11500000D02*
X26800000Y-11520000D01*
X26800000Y-11500000D02*
X26780000Y-11520000D01*
X26780000Y-12300000D02*
X26800000Y-12320000D01*
X26800000Y-12300000D02*
X26780000Y-12320000D01*
X26810000Y-11380000D02*
X26830000Y-11400000D01*
X26830000Y-11380000D02*
X26810000Y-11400000D01*
X26810000Y-12180000D02*
X26830000Y-12200000D01*
X26830000Y-12180000D02*
X26810000Y-12200000D01*
X26810000Y-12960000D02*
X26830000Y-12980000D01*
X26830000Y-12960000D02*
X26810000Y-12980000D01*
X26830000Y-10750000D02*
X26850000Y-10770000D01*
X26850000Y-10750000D02*
X26830000Y-10770000D01*
X26830000Y-11550000D02*
X26850000Y-11570000D01*
X26850000Y-11550000D02*
X26830000Y-11570000D01*
X26830000Y-12350000D02*
X26850000Y-12370000D01*
X26850000Y-12350000D02*
X26830000Y-12370000D01*
X26890000Y-12240000D02*
X26910000Y-12260000D01*
X26910000Y-12240000D02*
X26890000Y-12260000D01*
X26940000Y-11490000D02*
X26960000Y-11510000D01*
X26960000Y-11490000D02*
X26940000Y-11510000D01*
X26940000Y-12190000D02*
X26960000Y-12210000D01*
X26960000Y-12190000D02*
X26940000Y-12210000D01*
X26940000Y-12290000D02*
X26960000Y-12310000D01*
X26960000Y-12290000D02*
X26940000Y-12310000D01*
X26990000Y-11440000D02*
X27010000Y-11460000D01*
X27010000Y-11440000D02*
X26990000Y-11460000D01*
X26990000Y-12240000D02*
X27010000Y-12260000D01*
X27010000Y-12240000D02*
X26990000Y-12260000D01*
X27040000Y-11390000D02*
X27060000Y-11410000D01*
X27060000Y-11390000D02*
X27040000Y-11410000D01*
X27040000Y-11490000D02*
X27060000Y-11510000D01*
X27060000Y-11490000D02*
X27040000Y-11510000D01*
X27040000Y-12190000D02*
X27060000Y-12210000D01*
X27060000Y-12190000D02*
X27040000Y-12210000D01*
X27040000Y-12290000D02*
X27060000Y-12310000D01*
X27060000Y-12290000D02*
X27040000Y-12310000D01*
X27090000Y-11440000D02*
X27110000Y-11460000D01*
X27110000Y-11440000D02*
X27090000Y-11460000D01*
X27090000Y-12240000D02*
X27110000Y-12260000D01*
X27110000Y-12240000D02*
X27090000Y-12260000D01*
X27140000Y-11390000D02*
X27160000Y-11410000D01*
X27160000Y-11390000D02*
X27140000Y-11410000D01*
X27140000Y-11490000D02*
X27160000Y-11510000D01*
X27160000Y-11490000D02*
X27140000Y-11510000D01*
X27140000Y-12190000D02*
X27160000Y-12210000D01*
X27160000Y-12190000D02*
X27140000Y-12210000D01*
X27140000Y-12290000D02*
X27160000Y-12310000D01*
X27160000Y-12290000D02*
X27140000Y-12310000D01*
X27190000Y-11440000D02*
X27210000Y-11460000D01*
X27210000Y-11440000D02*
X27190000Y-11460000D01*
X27190000Y-12240000D02*
X27210000Y-12260000D01*
X27210000Y-12240000D02*
X27190000Y-12260000D01*
X27240000Y-11390000D02*
X27260000Y-11410000D01*
X27260000Y-11390000D02*
X27240000Y-11410000D01*
X27240000Y-11490000D02*
X27260000Y-11510000D01*
X27260000Y-11490000D02*
X27240000Y-11510000D01*
X27240000Y-12190000D02*
X27260000Y-12210000D01*
X27260000Y-12190000D02*
X27240000Y-12210000D01*
X27240000Y-12290000D02*
X27260000Y-12310000D01*
X27260000Y-12290000D02*
X27240000Y-12310000D01*
X27290000Y-11440000D02*
X27310000Y-11460000D01*
X27310000Y-11440000D02*
X27290000Y-11460000D01*
X27290000Y-12240000D02*
X27310000Y-12260000D01*
X27310000Y-12240000D02*
X27290000Y-12260000D01*
X27340000Y-11390000D02*
X27360000Y-11410000D01*
X27360000Y-11390000D02*
X27340000Y-11410000D01*
X27340000Y-11490000D02*
X27360000Y-11510000D01*
X27360000Y-11490000D02*
X27340000Y-11510000D01*
X27340000Y-12190000D02*
X27360000Y-12210000D01*
X27360000Y-12190000D02*
X27340000Y-12210000D01*
X27340000Y-12290000D02*
X27360000Y-12310000D01*
X27360000Y-12290000D02*
X27340000Y-12310000D01*
X27390000Y-11440000D02*
X27410000Y-11460000D01*
X27410000Y-11440000D02*
X27390000Y-11460000D01*
X27390000Y-12240000D02*
X27410000Y-12260000D01*
X27410000Y-12240000D02*
X27390000Y-12260000D01*
X27440000Y-11390000D02*
X27460000Y-11410000D01*
X27460000Y-11390000D02*
X27440000Y-11410000D01*
X27440000Y-11490000D02*
X27460000Y-11510000D01*
X27460000Y-11490000D02*
X27440000Y-11510000D01*
X27440000Y-12190000D02*
X27460000Y-12210000D01*
X27460000Y-12190000D02*
X27440000Y-12210000D01*
X27440000Y-12290000D02*
X27460000Y-12310000D01*
X27460000Y-12290000D02*
X27440000Y-12310000D01*
X27490000Y-11440000D02*
X27510000Y-11460000D01*
X27510000Y-11440000D02*
X27490000Y-11460000D01*
X27490000Y-12240000D02*
X27510000Y-12260000D01*
X27510000Y-12240000D02*
X27490000Y-12260000D01*
X23117500Y-12175000D02*
G75*
G02*
X23082500Y-12175000I-17500J0D01*
G01*
X23082500Y-12175000D02*
G75*
G02*
X23117500Y-12175000I17500J0D01*
G01*
X23150000Y-12157500D02*
X23050000Y-12157500D01*
X23050000Y-12192500D02*
G75*
G02*
X23050000Y-12157500I0J17500D01*
G01*
X23050000Y-12192500D02*
X23150000Y-12192500D01*
X23150000Y-12192500D02*
G75*
G03*
X23150000Y-12157500I0J17500D01*
G01*
X23117500Y-12890000D02*
G75*
G02*
X23082500Y-12890000I-17500J0D01*
G01*
X23082500Y-12890000D02*
G75*
G02*
X23117500Y-12890000I17500J0D01*
G01*
X23150000Y-12872500D02*
X23050000Y-12872500D01*
X23050000Y-12907500D02*
G75*
G02*
X23050000Y-12872500I0J17500D01*
G01*
X23050000Y-12907500D02*
X23150000Y-12907500D01*
X23150000Y-12907500D02*
G75*
G03*
X23150000Y-12872500I0J17500D01*
G01*
X23022000Y-12445500D02*
X23022000Y-12489500D01*
X23000000Y-12467500D02*
X23044000Y-12467500D01*
X23022000Y-12575500D02*
X23022000Y-12619500D01*
X23000000Y-12597500D02*
X23044000Y-12597500D01*
X23122000Y-12380500D02*
X23122000Y-12424500D01*
X23100000Y-12402500D02*
X23144000Y-12402500D01*
X23122000Y-12510500D02*
X23122000Y-12554500D01*
X23100000Y-12532500D02*
X23144000Y-12532500D01*
X23122000Y-12640500D02*
X23122000Y-12684500D01*
X23100000Y-12662500D02*
X23144000Y-12662500D01*
X23141356Y-10605356D02*
X23141356Y-10534644D01*
X23070644Y-10534644D01*
X23070644Y-10605356D01*
X23141356Y-10605356D01*
X23141356Y-10859356D02*
X23141356Y-10788644D01*
X23070644Y-10788644D01*
X23070644Y-10859356D01*
X23141356Y-10859356D01*
X23141356Y-11113356D02*
X23141356Y-11042644D01*
X23070644Y-11042644D01*
X23070644Y-11113356D01*
X23141356Y-11113356D01*
X23141356Y-11367356D02*
X23141356Y-11296644D01*
X23070644Y-11296644D01*
X23070644Y-11367356D01*
X23141356Y-11367356D01*
X23141356Y-11621356D02*
X23141356Y-11550644D01*
X23070644Y-11550644D01*
X23070644Y-11621356D01*
X23141356Y-11621356D01*
X23141356Y-11875356D02*
X23141356Y-11804644D01*
X23070644Y-11804644D01*
X23070644Y-11875356D01*
X23141356Y-11875356D01*
X23141356Y-13145356D02*
X23141356Y-13074644D01*
X23070644Y-13074644D01*
X23070644Y-13145356D01*
X23141356Y-13145356D01*
X23395356Y-10605356D02*
X23395356Y-10534644D01*
X23324644Y-10534644D01*
X23324644Y-10605356D01*
X23395356Y-10605356D01*
X23395356Y-13145356D02*
X23395356Y-13074644D01*
X23324644Y-13074644D01*
X23324644Y-13145356D01*
X23395356Y-13145356D01*
X23649356Y-10605356D02*
X23649356Y-10534644D01*
X23578644Y-10534644D01*
X23578644Y-10605356D01*
X23649356Y-10605356D01*
X23649356Y-13145356D02*
X23649356Y-13074644D01*
X23578644Y-13074644D01*
X23578644Y-13145356D01*
X23649356Y-13145356D01*
X23903356Y-10605356D02*
X23903356Y-10534644D01*
X23832644Y-10534644D01*
X23832644Y-10605356D01*
X23903356Y-10605356D01*
X23903356Y-13145356D02*
X23903356Y-13074644D01*
X23832644Y-13074644D01*
X23832644Y-13145356D01*
X23903356Y-13145356D01*
X24157356Y-10605356D02*
X24157356Y-10534644D01*
X24086644Y-10534644D01*
X24086644Y-10605356D01*
X24157356Y-10605356D01*
X24157356Y-13145356D02*
X24157356Y-13074644D01*
X24086644Y-13074644D01*
X24086644Y-13145356D01*
X24157356Y-13145356D01*
X24411356Y-10605356D02*
X24411356Y-10534644D01*
X24340644Y-10534644D01*
X24340644Y-10605356D01*
X24411356Y-10605356D01*
X24665356Y-10605356D02*
X24665356Y-10534644D01*
X24594644Y-10534644D01*
X24594644Y-10605356D01*
X24665356Y-10605356D01*
X24919356Y-10605356D02*
X24919356Y-10534644D01*
X24848644Y-10534644D01*
X24848644Y-10605356D01*
X24919356Y-10605356D01*
X25173356Y-10605356D02*
X25173356Y-10534644D01*
X25102644Y-10534644D01*
X25102644Y-10605356D01*
X25173356Y-10605356D01*
X26443356Y-10605356D02*
X26443356Y-10534644D01*
X26372644Y-10534644D01*
X26372644Y-10605356D01*
X26443356Y-10605356D01*
X26443356Y-13145356D02*
X26443356Y-13074644D01*
X26372644Y-13074644D01*
X26372644Y-13145356D01*
X26443356Y-13145356D01*
X26697356Y-10605356D02*
X26697356Y-10534644D01*
X26626644Y-10534644D01*
X26626644Y-10605356D01*
X26697356Y-10605356D01*
X26697356Y-13145356D02*
X26697356Y-13074644D01*
X26626644Y-13074644D01*
X26626644Y-13145356D01*
X26697356Y-13145356D01*
X26951356Y-10605356D02*
X26951356Y-10534644D01*
X26880644Y-10534644D01*
X26880644Y-10605356D01*
X26951356Y-10605356D01*
X26951356Y-13145356D02*
X26951356Y-13074644D01*
X26880644Y-13074644D01*
X26880644Y-13145356D01*
X26951356Y-13145356D01*
X27205356Y-10605356D02*
X27205356Y-10534644D01*
X27134644Y-10534644D01*
X27134644Y-10605356D01*
X27205356Y-10605356D01*
X27205356Y-13145356D02*
X27205356Y-13074644D01*
X27134644Y-13074644D01*
X27134644Y-13145356D01*
X27205356Y-13145356D01*
X27459356Y-10605356D02*
X27459356Y-10534644D01*
X27388644Y-10534644D01*
X27388644Y-10605356D01*
X27459356Y-10605356D01*
X27459356Y-10986356D02*
X27459356Y-10915644D01*
X27388644Y-10915644D01*
X27388644Y-10986356D01*
X27459356Y-10986356D01*
X27459356Y-11240356D02*
X27459356Y-11169644D01*
X27388644Y-11169644D01*
X27388644Y-11240356D01*
X27459356Y-11240356D01*
X27459356Y-11748356D02*
X27459356Y-11677644D01*
X27388644Y-11677644D01*
X27388644Y-11748356D01*
X27459356Y-11748356D01*
X27459356Y-12002356D02*
X27459356Y-11931644D01*
X27388644Y-11931644D01*
X27388644Y-12002356D01*
X27459356Y-12002356D01*
X27459356Y-12510356D02*
X27459356Y-12439644D01*
X27388644Y-12439644D01*
X27388644Y-12510356D01*
X27459356Y-12510356D01*
X27459356Y-12764356D02*
X27459356Y-12693644D01*
X27388644Y-12693644D01*
X27388644Y-12764356D01*
X27459356Y-12764356D01*
X27459356Y-13145356D02*
X27459356Y-13074644D01*
X27388644Y-13074644D01*
X27388644Y-13145356D01*
X27459356Y-13145356D01*
X27713356Y-10605356D02*
X27713356Y-10534644D01*
X27642644Y-10534644D01*
X27642644Y-10605356D01*
X27713356Y-10605356D01*
X27713356Y-10986356D02*
X27713356Y-10915644D01*
X27642644Y-10915644D01*
X27642644Y-10986356D01*
X27713356Y-10986356D01*
X27713356Y-11240356D02*
X27713356Y-11169644D01*
X27642644Y-11169644D01*
X27642644Y-11240356D01*
X27713356Y-11240356D01*
X27713356Y-11748356D02*
X27713356Y-11677644D01*
X27642644Y-11677644D01*
X27642644Y-11748356D01*
X27713356Y-11748356D01*
X27713356Y-12002356D02*
X27713356Y-11931644D01*
X27642644Y-11931644D01*
X27642644Y-12002356D01*
X27713356Y-12002356D01*
X27713356Y-12510356D02*
X27713356Y-12439644D01*
X27642644Y-12439644D01*
X27642644Y-12510356D01*
X27713356Y-12510356D01*
X27713356Y-12764356D02*
X27713356Y-12693644D01*
X27642644Y-12693644D01*
X27642644Y-12764356D01*
X27713356Y-12764356D01*
X27713356Y-13145356D02*
X27713356Y-13074644D01*
X27642644Y-13074644D01*
X27642644Y-13145356D01*
X27713356Y-13145356D01*
D11*
X23158277Y-13603984D02*
X23158277Y-13403984D01*
X23158277Y-13403984D02*
X23205896Y-13403984D01*
X23205896Y-13403984D02*
X23234467Y-13413508D01*
X23234467Y-13413508D02*
X23253515Y-13432555D01*
X23253515Y-13432555D02*
X23263039Y-13451603D01*
X23263039Y-13451603D02*
X23272562Y-13489698D01*
X23272562Y-13489698D02*
X23272562Y-13518269D01*
X23272562Y-13518269D02*
X23263039Y-13556365D01*
X23263039Y-13556365D02*
X23253515Y-13575412D01*
X23253515Y-13575412D02*
X23234467Y-13594460D01*
X23234467Y-13594460D02*
X23205896Y-13603984D01*
X23205896Y-13603984D02*
X23158277Y-13603984D01*
X23358277Y-13603984D02*
X23358277Y-13470650D01*
X23358277Y-13508746D02*
X23367801Y-13489698D01*
X23367801Y-13489698D02*
X23377324Y-13480174D01*
X23377324Y-13480174D02*
X23396372Y-13470650D01*
X23396372Y-13470650D02*
X23415420Y-13470650D01*
X23482086Y-13603984D02*
X23482086Y-13470650D01*
X23482086Y-13403984D02*
X23472562Y-13413508D01*
X23472562Y-13413508D02*
X23482086Y-13423031D01*
X23482086Y-13423031D02*
X23491610Y-13413508D01*
X23491610Y-13413508D02*
X23482086Y-13403984D01*
X23482086Y-13403984D02*
X23482086Y-13423031D01*
X23605896Y-13603984D02*
X23586848Y-13594460D01*
X23586848Y-13594460D02*
X23577324Y-13575412D01*
X23577324Y-13575412D02*
X23577324Y-13403984D01*
X23710658Y-13603984D02*
X23691610Y-13594460D01*
X23691610Y-13594460D02*
X23682086Y-13575412D01*
X23682086Y-13575412D02*
X23682086Y-13403984D01*
X23939229Y-13603984D02*
X23939229Y-13403984D01*
X23939229Y-13403984D02*
X24005896Y-13546841D01*
X24005896Y-13546841D02*
X24072562Y-13403984D01*
X24072562Y-13403984D02*
X24072562Y-13603984D01*
X24253515Y-13603984D02*
X24253515Y-13499222D01*
X24253515Y-13499222D02*
X24243991Y-13480174D01*
X24243991Y-13480174D02*
X24224943Y-13470650D01*
X24224943Y-13470650D02*
X24186848Y-13470650D01*
X24186848Y-13470650D02*
X24167801Y-13480174D01*
X24253515Y-13594460D02*
X24234467Y-13603984D01*
X24234467Y-13603984D02*
X24186848Y-13603984D01*
X24186848Y-13603984D02*
X24167801Y-13594460D01*
X24167801Y-13594460D02*
X24158277Y-13575412D01*
X24158277Y-13575412D02*
X24158277Y-13556365D01*
X24158277Y-13556365D02*
X24167801Y-13537317D01*
X24167801Y-13537317D02*
X24186848Y-13527793D01*
X24186848Y-13527793D02*
X24234467Y-13527793D01*
X24234467Y-13527793D02*
X24253515Y-13518269D01*
X24348753Y-13470650D02*
X24348753Y-13670650D01*
X24348753Y-13480174D02*
X24367801Y-13470650D01*
X24367801Y-13470650D02*
X24405896Y-13470650D01*
X24405896Y-13470650D02*
X24424943Y-13480174D01*
X24424943Y-13480174D02*
X24434467Y-13489698D01*
X24434467Y-13489698D02*
X24443991Y-13508746D01*
X24443991Y-13508746D02*
X24443991Y-13565888D01*
X24443991Y-13565888D02*
X24434467Y-13584936D01*
X24434467Y-13584936D02*
X24424943Y-13594460D01*
X24424943Y-13594460D02*
X24405896Y-13603984D01*
X24405896Y-13603984D02*
X24367801Y-13603984D01*
X24367801Y-13603984D02*
X24348753Y-13594460D01*
X24529705Y-13584936D02*
X24539229Y-13594460D01*
X24539229Y-13594460D02*
X24529705Y-13603984D01*
X24529705Y-13603984D02*
X24520182Y-13594460D01*
X24520182Y-13594460D02*
X24529705Y-13584936D01*
X24529705Y-13584936D02*
X24529705Y-13603984D01*
X24529705Y-13480174D02*
X24539229Y-13489698D01*
X24539229Y-13489698D02*
X24529705Y-13499222D01*
X24529705Y-13499222D02*
X24520182Y-13489698D01*
X24520182Y-13489698D02*
X24529705Y-13480174D01*
X24529705Y-13480174D02*
X24529705Y-13499222D01*
D12*
X22877500Y-13922500D02*
X22897500Y-13942500D01*
X22897500Y-13922500D02*
X22877500Y-13942500D01*
D11*
X23196372Y-13823984D02*
X23215420Y-13823984D01*
X23215420Y-13823984D02*
X23234467Y-13833508D01*
X23234467Y-13833508D02*
X23243991Y-13843031D01*
X23243991Y-13843031D02*
X23253515Y-13862079D01*
X23253515Y-13862079D02*
X23263039Y-13900174D01*
X23263039Y-13900174D02*
X23263039Y-13947793D01*
X23263039Y-13947793D02*
X23253515Y-13985888D01*
X23253515Y-13985888D02*
X23243991Y-14004936D01*
X23243991Y-14004936D02*
X23234467Y-14014460D01*
X23234467Y-14014460D02*
X23215420Y-14023984D01*
X23215420Y-14023984D02*
X23196372Y-14023984D01*
X23196372Y-14023984D02*
X23177324Y-14014460D01*
X23177324Y-14014460D02*
X23167801Y-14004936D01*
X23167801Y-14004936D02*
X23158277Y-13985888D01*
X23158277Y-13985888D02*
X23148753Y-13947793D01*
X23148753Y-13947793D02*
X23148753Y-13900174D01*
X23148753Y-13900174D02*
X23158277Y-13862079D01*
X23158277Y-13862079D02*
X23167801Y-13843031D01*
X23167801Y-13843031D02*
X23177324Y-13833508D01*
X23177324Y-13833508D02*
X23196372Y-13823984D01*
X23348753Y-14004936D02*
X23358277Y-14014460D01*
X23358277Y-14014460D02*
X23348753Y-14023984D01*
X23348753Y-14023984D02*
X23339229Y-14014460D01*
X23339229Y-14014460D02*
X23348753Y-14004936D01*
X23348753Y-14004936D02*
X23348753Y-14023984D01*
X23434467Y-13843031D02*
X23443991Y-13833508D01*
X23443991Y-13833508D02*
X23463039Y-13823984D01*
X23463039Y-13823984D02*
X23510658Y-13823984D01*
X23510658Y-13823984D02*
X23529705Y-13833508D01*
X23529705Y-13833508D02*
X23539229Y-13843031D01*
X23539229Y-13843031D02*
X23548753Y-13862079D01*
X23548753Y-13862079D02*
X23548753Y-13881127D01*
X23548753Y-13881127D02*
X23539229Y-13909698D01*
X23539229Y-13909698D02*
X23424943Y-14023984D01*
X23424943Y-14023984D02*
X23548753Y-14023984D01*
X23672562Y-13823984D02*
X23691610Y-13823984D01*
X23691610Y-13823984D02*
X23710658Y-13833508D01*
X23710658Y-13833508D02*
X23720182Y-13843031D01*
X23720182Y-13843031D02*
X23729705Y-13862079D01*
X23729705Y-13862079D02*
X23739229Y-13900174D01*
X23739229Y-13900174D02*
X23739229Y-13947793D01*
X23739229Y-13947793D02*
X23729705Y-13985888D01*
X23729705Y-13985888D02*
X23720182Y-14004936D01*
X23720182Y-14004936D02*
X23710658Y-14014460D01*
X23710658Y-14014460D02*
X23691610Y-14023984D01*
X23691610Y-14023984D02*
X23672562Y-14023984D01*
X23672562Y-14023984D02*
X23653515Y-14014460D01*
X23653515Y-14014460D02*
X23643991Y-14004936D01*
X23643991Y-14004936D02*
X23634467Y-13985888D01*
X23634467Y-13985888D02*
X23624943Y-13947793D01*
X23624943Y-13947793D02*
X23624943Y-13900174D01*
X23624943Y-13900174D02*
X23634467Y-13862079D01*
X23634467Y-13862079D02*
X23643991Y-13843031D01*
X23643991Y-13843031D02*
X23653515Y-13833508D01*
X23653515Y-13833508D02*
X23672562Y-13823984D01*
X23863039Y-13823984D02*
X23882086Y-13823984D01*
X23882086Y-13823984D02*
X23901134Y-13833508D01*
X23901134Y-13833508D02*
X23910658Y-13843031D01*
X23910658Y-13843031D02*
X23920182Y-13862079D01*
X23920182Y-13862079D02*
X23929705Y-13900174D01*
X23929705Y-13900174D02*
X23929705Y-13947793D01*
X23929705Y-13947793D02*
X23920182Y-13985888D01*
X23920182Y-13985888D02*
X23910658Y-14004936D01*
X23910658Y-14004936D02*
X23901134Y-14014460D01*
X23901134Y-14014460D02*
X23882086Y-14023984D01*
X23882086Y-14023984D02*
X23863039Y-14023984D01*
X23863039Y-14023984D02*
X23843991Y-14014460D01*
X23843991Y-14014460D02*
X23834467Y-14004936D01*
X23834467Y-14004936D02*
X23824943Y-13985888D01*
X23824943Y-13985888D02*
X23815420Y-13947793D01*
X23815420Y-13947793D02*
X23815420Y-13900174D01*
X23815420Y-13900174D02*
X23824943Y-13862079D01*
X23824943Y-13862079D02*
X23834467Y-13843031D01*
X23834467Y-13843031D02*
X23843991Y-13833508D01*
X23843991Y-13833508D02*
X23863039Y-13823984D01*
X24015420Y-14023984D02*
X24015420Y-13890650D01*
X24015420Y-13909698D02*
X24024943Y-13900174D01*
X24024943Y-13900174D02*
X24043991Y-13890650D01*
X24043991Y-13890650D02*
X24072563Y-13890650D01*
X24072563Y-13890650D02*
X24091610Y-13900174D01*
X24091610Y-13900174D02*
X24101134Y-13919222D01*
X24101134Y-13919222D02*
X24101134Y-14023984D01*
X24101134Y-13919222D02*
X24110658Y-13900174D01*
X24110658Y-13900174D02*
X24129705Y-13890650D01*
X24129705Y-13890650D02*
X24158277Y-13890650D01*
X24158277Y-13890650D02*
X24177324Y-13900174D01*
X24177324Y-13900174D02*
X24186848Y-13919222D01*
X24186848Y-13919222D02*
X24186848Y-14023984D01*
X24282086Y-14023984D02*
X24282086Y-13890650D01*
X24282086Y-13909698D02*
X24291610Y-13900174D01*
X24291610Y-13900174D02*
X24310658Y-13890650D01*
X24310658Y-13890650D02*
X24339229Y-13890650D01*
X24339229Y-13890650D02*
X24358277Y-13900174D01*
X24358277Y-13900174D02*
X24367801Y-13919222D01*
X24367801Y-13919222D02*
X24367801Y-14023984D01*
X24367801Y-13919222D02*
X24377324Y-13900174D01*
X24377324Y-13900174D02*
X24396372Y-13890650D01*
X24396372Y-13890650D02*
X24424943Y-13890650D01*
X24424943Y-13890650D02*
X24443991Y-13900174D01*
X24443991Y-13900174D02*
X24453515Y-13919222D01*
X24453515Y-13919222D02*
X24453515Y-14023984D01*
X24843991Y-13814460D02*
X24672563Y-14071603D01*
X25101134Y-13823984D02*
X25120182Y-13823984D01*
X25120182Y-13823984D02*
X25139229Y-13833508D01*
X25139229Y-13833508D02*
X25148753Y-13843031D01*
X25148753Y-13843031D02*
X25158277Y-13862079D01*
X25158277Y-13862079D02*
X25167801Y-13900174D01*
X25167801Y-13900174D02*
X25167801Y-13947793D01*
X25167801Y-13947793D02*
X25158277Y-13985888D01*
X25158277Y-13985888D02*
X25148753Y-14004936D01*
X25148753Y-14004936D02*
X25139229Y-14014460D01*
X25139229Y-14014460D02*
X25120182Y-14023984D01*
X25120182Y-14023984D02*
X25101134Y-14023984D01*
X25101134Y-14023984D02*
X25082086Y-14014460D01*
X25082086Y-14014460D02*
X25072563Y-14004936D01*
X25072563Y-14004936D02*
X25063039Y-13985888D01*
X25063039Y-13985888D02*
X25053515Y-13947793D01*
X25053515Y-13947793D02*
X25053515Y-13900174D01*
X25053515Y-13900174D02*
X25063039Y-13862079D01*
X25063039Y-13862079D02*
X25072563Y-13843031D01*
X25072563Y-13843031D02*
X25082086Y-13833508D01*
X25082086Y-13833508D02*
X25101134Y-13823984D01*
X25253515Y-14004936D02*
X25263039Y-14014460D01*
X25263039Y-14014460D02*
X25253515Y-14023984D01*
X25253515Y-14023984D02*
X25243991Y-14014460D01*
X25243991Y-14014460D02*
X25253515Y-14004936D01*
X25253515Y-14004936D02*
X25253515Y-14023984D01*
X25386848Y-13823984D02*
X25405896Y-13823984D01*
X25405896Y-13823984D02*
X25424944Y-13833508D01*
X25424944Y-13833508D02*
X25434467Y-13843031D01*
X25434467Y-13843031D02*
X25443991Y-13862079D01*
X25443991Y-13862079D02*
X25453515Y-13900174D01*
X25453515Y-13900174D02*
X25453515Y-13947793D01*
X25453515Y-13947793D02*
X25443991Y-13985888D01*
X25443991Y-13985888D02*
X25434467Y-14004936D01*
X25434467Y-14004936D02*
X25424944Y-14014460D01*
X25424944Y-14014460D02*
X25405896Y-14023984D01*
X25405896Y-14023984D02*
X25386848Y-14023984D01*
X25386848Y-14023984D02*
X25367801Y-14014460D01*
X25367801Y-14014460D02*
X25358277Y-14004936D01*
X25358277Y-14004936D02*
X25348753Y-13985888D01*
X25348753Y-13985888D02*
X25339229Y-13947793D01*
X25339229Y-13947793D02*
X25339229Y-13900174D01*
X25339229Y-13900174D02*
X25348753Y-13862079D01*
X25348753Y-13862079D02*
X25358277Y-13843031D01*
X25358277Y-13843031D02*
X25367801Y-13833508D01*
X25367801Y-13833508D02*
X25386848Y-13823984D01*
X25577325Y-13823984D02*
X25596372Y-13823984D01*
X25596372Y-13823984D02*
X25615420Y-13833508D01*
X25615420Y-13833508D02*
X25624944Y-13843031D01*
X25624944Y-13843031D02*
X25634467Y-13862079D01*
X25634467Y-13862079D02*
X25643991Y-13900174D01*
X25643991Y-13900174D02*
X25643991Y-13947793D01*
X25643991Y-13947793D02*
X25634467Y-13985888D01*
X25634467Y-13985888D02*
X25624944Y-14004936D01*
X25624944Y-14004936D02*
X25615420Y-14014460D01*
X25615420Y-14014460D02*
X25596372Y-14023984D01*
X25596372Y-14023984D02*
X25577325Y-14023984D01*
X25577325Y-14023984D02*
X25558277Y-14014460D01*
X25558277Y-14014460D02*
X25548753Y-14004936D01*
X25548753Y-14004936D02*
X25539229Y-13985888D01*
X25539229Y-13985888D02*
X25529706Y-13947793D01*
X25529706Y-13947793D02*
X25529706Y-13900174D01*
X25529706Y-13900174D02*
X25539229Y-13862079D01*
X25539229Y-13862079D02*
X25548753Y-13843031D01*
X25548753Y-13843031D02*
X25558277Y-13833508D01*
X25558277Y-13833508D02*
X25577325Y-13823984D01*
X25710658Y-13823984D02*
X25843991Y-13823984D01*
X25843991Y-13823984D02*
X25758277Y-14023984D01*
X25929706Y-14023984D02*
X25967801Y-14023984D01*
X25967801Y-14023984D02*
X25986848Y-14014460D01*
X25986848Y-14014460D02*
X25996372Y-14004936D01*
X25996372Y-14004936D02*
X26015420Y-13976365D01*
X26015420Y-13976365D02*
X26024944Y-13938269D01*
X26024944Y-13938269D02*
X26024944Y-13862079D01*
X26024944Y-13862079D02*
X26015420Y-13843031D01*
X26015420Y-13843031D02*
X26005896Y-13833508D01*
X26005896Y-13833508D02*
X25986848Y-13823984D01*
X25986848Y-13823984D02*
X25948753Y-13823984D01*
X25948753Y-13823984D02*
X25929706Y-13833508D01*
X25929706Y-13833508D02*
X25920182Y-13843031D01*
X25920182Y-13843031D02*
X25910658Y-13862079D01*
X25910658Y-13862079D02*
X25910658Y-13909698D01*
X25910658Y-13909698D02*
X25920182Y-13928746D01*
X25920182Y-13928746D02*
X25929706Y-13938269D01*
X25929706Y-13938269D02*
X25948753Y-13947793D01*
X25948753Y-13947793D02*
X25986848Y-13947793D01*
X25986848Y-13947793D02*
X26005896Y-13938269D01*
X26005896Y-13938269D02*
X26015420Y-13928746D01*
X26015420Y-13928746D02*
X26024944Y-13909698D01*
X26101134Y-13823984D02*
X26101134Y-13862079D01*
X26177325Y-13823984D02*
X26177325Y-13862079D01*
X26472563Y-14100174D02*
X26463039Y-14090650D01*
X26463039Y-14090650D02*
X26443991Y-14062079D01*
X26443991Y-14062079D02*
X26434468Y-14043031D01*
X26434468Y-14043031D02*
X26424944Y-14014460D01*
X26424944Y-14014460D02*
X26415420Y-13966841D01*
X26415420Y-13966841D02*
X26415420Y-13928746D01*
X26415420Y-13928746D02*
X26424944Y-13881127D01*
X26424944Y-13881127D02*
X26434468Y-13852555D01*
X26434468Y-13852555D02*
X26443991Y-13833508D01*
X26443991Y-13833508D02*
X26463039Y-13804936D01*
X26463039Y-13804936D02*
X26472563Y-13795412D01*
X26539229Y-13843031D02*
X26548753Y-13833508D01*
X26548753Y-13833508D02*
X26567801Y-13823984D01*
X26567801Y-13823984D02*
X26615420Y-13823984D01*
X26615420Y-13823984D02*
X26634468Y-13833508D01*
X26634468Y-13833508D02*
X26643991Y-13843031D01*
X26643991Y-13843031D02*
X26653515Y-13862079D01*
X26653515Y-13862079D02*
X26653515Y-13881127D01*
X26653515Y-13881127D02*
X26643991Y-13909698D01*
X26643991Y-13909698D02*
X26529706Y-14023984D01*
X26529706Y-14023984D02*
X26653515Y-14023984D01*
X26824944Y-13890650D02*
X26824944Y-14023984D01*
X26777325Y-13814460D02*
X26729706Y-13957317D01*
X26729706Y-13957317D02*
X26853515Y-13957317D01*
X26958277Y-13909698D02*
X26939229Y-13900174D01*
X26939229Y-13900174D02*
X26929706Y-13890650D01*
X26929706Y-13890650D02*
X26920182Y-13871603D01*
X26920182Y-13871603D02*
X26920182Y-13862079D01*
X26920182Y-13862079D02*
X26929706Y-13843031D01*
X26929706Y-13843031D02*
X26939229Y-13833508D01*
X26939229Y-13833508D02*
X26958277Y-13823984D01*
X26958277Y-13823984D02*
X26996372Y-13823984D01*
X26996372Y-13823984D02*
X27015420Y-13833508D01*
X27015420Y-13833508D02*
X27024944Y-13843031D01*
X27024944Y-13843031D02*
X27034468Y-13862079D01*
X27034468Y-13862079D02*
X27034468Y-13871603D01*
X27034468Y-13871603D02*
X27024944Y-13890650D01*
X27024944Y-13890650D02*
X27015420Y-13900174D01*
X27015420Y-13900174D02*
X26996372Y-13909698D01*
X26996372Y-13909698D02*
X26958277Y-13909698D01*
X26958277Y-13909698D02*
X26939229Y-13919222D01*
X26939229Y-13919222D02*
X26929706Y-13928746D01*
X26929706Y-13928746D02*
X26920182Y-13947793D01*
X26920182Y-13947793D02*
X26920182Y-13985888D01*
X26920182Y-13985888D02*
X26929706Y-14004936D01*
X26929706Y-14004936D02*
X26939229Y-14014460D01*
X26939229Y-14014460D02*
X26958277Y-14023984D01*
X26958277Y-14023984D02*
X26996372Y-14023984D01*
X26996372Y-14023984D02*
X27015420Y-14014460D01*
X27015420Y-14014460D02*
X27024944Y-14004936D01*
X27024944Y-14004936D02*
X27034468Y-13985888D01*
X27034468Y-13985888D02*
X27034468Y-13947793D01*
X27034468Y-13947793D02*
X27024944Y-13928746D01*
X27024944Y-13928746D02*
X27015420Y-13919222D01*
X27015420Y-13919222D02*
X26996372Y-13909698D01*
X27272563Y-14023984D02*
X27272563Y-13823984D01*
X27358277Y-14023984D02*
X27358277Y-13919222D01*
X27358277Y-13919222D02*
X27348753Y-13900174D01*
X27348753Y-13900174D02*
X27329706Y-13890650D01*
X27329706Y-13890650D02*
X27301134Y-13890650D01*
X27301134Y-13890650D02*
X27282087Y-13900174D01*
X27282087Y-13900174D02*
X27272563Y-13909698D01*
X27482087Y-14023984D02*
X27463039Y-14014460D01*
X27463039Y-14014460D02*
X27453515Y-14004936D01*
X27453515Y-14004936D02*
X27443991Y-13985888D01*
X27443991Y-13985888D02*
X27443991Y-13928746D01*
X27443991Y-13928746D02*
X27453515Y-13909698D01*
X27453515Y-13909698D02*
X27463039Y-13900174D01*
X27463039Y-13900174D02*
X27482087Y-13890650D01*
X27482087Y-13890650D02*
X27510658Y-13890650D01*
X27510658Y-13890650D02*
X27529706Y-13900174D01*
X27529706Y-13900174D02*
X27539230Y-13909698D01*
X27539230Y-13909698D02*
X27548753Y-13928746D01*
X27548753Y-13928746D02*
X27548753Y-13985888D01*
X27548753Y-13985888D02*
X27539230Y-14004936D01*
X27539230Y-14004936D02*
X27529706Y-14014460D01*
X27529706Y-14014460D02*
X27510658Y-14023984D01*
X27510658Y-14023984D02*
X27482087Y-14023984D01*
X27663039Y-14023984D02*
X27643991Y-14014460D01*
X27643991Y-14014460D02*
X27634468Y-13995412D01*
X27634468Y-13995412D02*
X27634468Y-13823984D01*
X27815420Y-14014460D02*
X27796372Y-14023984D01*
X27796372Y-14023984D02*
X27758277Y-14023984D01*
X27758277Y-14023984D02*
X27739230Y-14014460D01*
X27739230Y-14014460D02*
X27729706Y-13995412D01*
X27729706Y-13995412D02*
X27729706Y-13919222D01*
X27729706Y-13919222D02*
X27739230Y-13900174D01*
X27739230Y-13900174D02*
X27758277Y-13890650D01*
X27758277Y-13890650D02*
X27796372Y-13890650D01*
X27796372Y-13890650D02*
X27815420Y-13900174D01*
X27815420Y-13900174D02*
X27824944Y-13919222D01*
X27824944Y-13919222D02*
X27824944Y-13938269D01*
X27824944Y-13938269D02*
X27729706Y-13957317D01*
X27901134Y-14014460D02*
X27920182Y-14023984D01*
X27920182Y-14023984D02*
X27958277Y-14023984D01*
X27958277Y-14023984D02*
X27977325Y-14014460D01*
X27977325Y-14014460D02*
X27986849Y-13995412D01*
X27986849Y-13995412D02*
X27986849Y-13985888D01*
X27986849Y-13985888D02*
X27977325Y-13966841D01*
X27977325Y-13966841D02*
X27958277Y-13957317D01*
X27958277Y-13957317D02*
X27929706Y-13957317D01*
X27929706Y-13957317D02*
X27910658Y-13947793D01*
X27910658Y-13947793D02*
X27901134Y-13928746D01*
X27901134Y-13928746D02*
X27901134Y-13919222D01*
X27901134Y-13919222D02*
X27910658Y-13900174D01*
X27910658Y-13900174D02*
X27929706Y-13890650D01*
X27929706Y-13890650D02*
X27958277Y-13890650D01*
X27958277Y-13890650D02*
X27977325Y-13900174D01*
X28053515Y-14100174D02*
X28063039Y-14090650D01*
X28063039Y-14090650D02*
X28082087Y-14062079D01*
X28082087Y-14062079D02*
X28091611Y-14043031D01*
X28091611Y-14043031D02*
X28101134Y-14014460D01*
X28101134Y-14014460D02*
X28110658Y-13966841D01*
X28110658Y-13966841D02*
X28110658Y-13928746D01*
X28110658Y-13928746D02*
X28101134Y-13881127D01*
X28101134Y-13881127D02*
X28091611Y-13852555D01*
X28091611Y-13852555D02*
X28082087Y-13833508D01*
X28082087Y-13833508D02*
X28063039Y-13804936D01*
X28063039Y-13804936D02*
X28053515Y-13795412D01*
D12*
X22897500Y-14196500D02*
G75*
G02*
X22862500Y-14196500I-17500J0D01*
G01*
X22862500Y-14196500D02*
G75*
G02*
X22897500Y-14196500I17500J0D01*
G01*
D11*
X23196372Y-14087984D02*
X23215420Y-14087984D01*
X23215420Y-14087984D02*
X23234467Y-14097508D01*
X23234467Y-14097508D02*
X23243991Y-14107031D01*
X23243991Y-14107031D02*
X23253515Y-14126079D01*
X23253515Y-14126079D02*
X23263039Y-14164174D01*
X23263039Y-14164174D02*
X23263039Y-14211793D01*
X23263039Y-14211793D02*
X23253515Y-14249888D01*
X23253515Y-14249888D02*
X23243991Y-14268936D01*
X23243991Y-14268936D02*
X23234467Y-14278460D01*
X23234467Y-14278460D02*
X23215420Y-14287984D01*
X23215420Y-14287984D02*
X23196372Y-14287984D01*
X23196372Y-14287984D02*
X23177324Y-14278460D01*
X23177324Y-14278460D02*
X23167801Y-14268936D01*
X23167801Y-14268936D02*
X23158277Y-14249888D01*
X23158277Y-14249888D02*
X23148753Y-14211793D01*
X23148753Y-14211793D02*
X23148753Y-14164174D01*
X23148753Y-14164174D02*
X23158277Y-14126079D01*
X23158277Y-14126079D02*
X23167801Y-14107031D01*
X23167801Y-14107031D02*
X23177324Y-14097508D01*
X23177324Y-14097508D02*
X23196372Y-14087984D01*
X23348753Y-14268936D02*
X23358277Y-14278460D01*
X23358277Y-14278460D02*
X23348753Y-14287984D01*
X23348753Y-14287984D02*
X23339229Y-14278460D01*
X23339229Y-14278460D02*
X23348753Y-14268936D01*
X23348753Y-14268936D02*
X23348753Y-14287984D01*
X23424943Y-14087984D02*
X23548753Y-14087984D01*
X23548753Y-14087984D02*
X23482086Y-14164174D01*
X23482086Y-14164174D02*
X23510658Y-14164174D01*
X23510658Y-14164174D02*
X23529705Y-14173698D01*
X23529705Y-14173698D02*
X23539229Y-14183222D01*
X23539229Y-14183222D02*
X23548753Y-14202269D01*
X23548753Y-14202269D02*
X23548753Y-14249888D01*
X23548753Y-14249888D02*
X23539229Y-14268936D01*
X23539229Y-14268936D02*
X23529705Y-14278460D01*
X23529705Y-14278460D02*
X23510658Y-14287984D01*
X23510658Y-14287984D02*
X23453515Y-14287984D01*
X23453515Y-14287984D02*
X23434467Y-14278460D01*
X23434467Y-14278460D02*
X23424943Y-14268936D01*
X23729705Y-14087984D02*
X23634467Y-14087984D01*
X23634467Y-14087984D02*
X23624943Y-14183222D01*
X23624943Y-14183222D02*
X23634467Y-14173698D01*
X23634467Y-14173698D02*
X23653515Y-14164174D01*
X23653515Y-14164174D02*
X23701134Y-14164174D01*
X23701134Y-14164174D02*
X23720182Y-14173698D01*
X23720182Y-14173698D02*
X23729705Y-14183222D01*
X23729705Y-14183222D02*
X23739229Y-14202269D01*
X23739229Y-14202269D02*
X23739229Y-14249888D01*
X23739229Y-14249888D02*
X23729705Y-14268936D01*
X23729705Y-14268936D02*
X23720182Y-14278460D01*
X23720182Y-14278460D02*
X23701134Y-14287984D01*
X23701134Y-14287984D02*
X23653515Y-14287984D01*
X23653515Y-14287984D02*
X23634467Y-14278460D01*
X23634467Y-14278460D02*
X23624943Y-14268936D01*
X23863039Y-14087984D02*
X23882086Y-14087984D01*
X23882086Y-14087984D02*
X23901134Y-14097508D01*
X23901134Y-14097508D02*
X23910658Y-14107031D01*
X23910658Y-14107031D02*
X23920182Y-14126079D01*
X23920182Y-14126079D02*
X23929705Y-14164174D01*
X23929705Y-14164174D02*
X23929705Y-14211793D01*
X23929705Y-14211793D02*
X23920182Y-14249888D01*
X23920182Y-14249888D02*
X23910658Y-14268936D01*
X23910658Y-14268936D02*
X23901134Y-14278460D01*
X23901134Y-14278460D02*
X23882086Y-14287984D01*
X23882086Y-14287984D02*
X23863039Y-14287984D01*
X23863039Y-14287984D02*
X23843991Y-14278460D01*
X23843991Y-14278460D02*
X23834467Y-14268936D01*
X23834467Y-14268936D02*
X23824943Y-14249888D01*
X23824943Y-14249888D02*
X23815420Y-14211793D01*
X23815420Y-14211793D02*
X23815420Y-14164174D01*
X23815420Y-14164174D02*
X23824943Y-14126079D01*
X23824943Y-14126079D02*
X23834467Y-14107031D01*
X23834467Y-14107031D02*
X23843991Y-14097508D01*
X23843991Y-14097508D02*
X23863039Y-14087984D01*
X24015420Y-14287984D02*
X24015420Y-14154650D01*
X24015420Y-14173698D02*
X24024943Y-14164174D01*
X24024943Y-14164174D02*
X24043991Y-14154650D01*
X24043991Y-14154650D02*
X24072563Y-14154650D01*
X24072563Y-14154650D02*
X24091610Y-14164174D01*
X24091610Y-14164174D02*
X24101134Y-14183222D01*
X24101134Y-14183222D02*
X24101134Y-14287984D01*
X24101134Y-14183222D02*
X24110658Y-14164174D01*
X24110658Y-14164174D02*
X24129705Y-14154650D01*
X24129705Y-14154650D02*
X24158277Y-14154650D01*
X24158277Y-14154650D02*
X24177324Y-14164174D01*
X24177324Y-14164174D02*
X24186848Y-14183222D01*
X24186848Y-14183222D02*
X24186848Y-14287984D01*
X24282086Y-14287984D02*
X24282086Y-14154650D01*
X24282086Y-14173698D02*
X24291610Y-14164174D01*
X24291610Y-14164174D02*
X24310658Y-14154650D01*
X24310658Y-14154650D02*
X24339229Y-14154650D01*
X24339229Y-14154650D02*
X24358277Y-14164174D01*
X24358277Y-14164174D02*
X24367801Y-14183222D01*
X24367801Y-14183222D02*
X24367801Y-14287984D01*
X24367801Y-14183222D02*
X24377324Y-14164174D01*
X24377324Y-14164174D02*
X24396372Y-14154650D01*
X24396372Y-14154650D02*
X24424943Y-14154650D01*
X24424943Y-14154650D02*
X24443991Y-14164174D01*
X24443991Y-14164174D02*
X24453515Y-14183222D01*
X24453515Y-14183222D02*
X24453515Y-14287984D01*
X24843991Y-14078460D02*
X24672563Y-14335603D01*
X25101134Y-14087984D02*
X25120182Y-14087984D01*
X25120182Y-14087984D02*
X25139229Y-14097508D01*
X25139229Y-14097508D02*
X25148753Y-14107031D01*
X25148753Y-14107031D02*
X25158277Y-14126079D01*
X25158277Y-14126079D02*
X25167801Y-14164174D01*
X25167801Y-14164174D02*
X25167801Y-14211793D01*
X25167801Y-14211793D02*
X25158277Y-14249888D01*
X25158277Y-14249888D02*
X25148753Y-14268936D01*
X25148753Y-14268936D02*
X25139229Y-14278460D01*
X25139229Y-14278460D02*
X25120182Y-14287984D01*
X25120182Y-14287984D02*
X25101134Y-14287984D01*
X25101134Y-14287984D02*
X25082086Y-14278460D01*
X25082086Y-14278460D02*
X25072563Y-14268936D01*
X25072563Y-14268936D02*
X25063039Y-14249888D01*
X25063039Y-14249888D02*
X25053515Y-14211793D01*
X25053515Y-14211793D02*
X25053515Y-14164174D01*
X25053515Y-14164174D02*
X25063039Y-14126079D01*
X25063039Y-14126079D02*
X25072563Y-14107031D01*
X25072563Y-14107031D02*
X25082086Y-14097508D01*
X25082086Y-14097508D02*
X25101134Y-14087984D01*
X25253515Y-14268936D02*
X25263039Y-14278460D01*
X25263039Y-14278460D02*
X25253515Y-14287984D01*
X25253515Y-14287984D02*
X25243991Y-14278460D01*
X25243991Y-14278460D02*
X25253515Y-14268936D01*
X25253515Y-14268936D02*
X25253515Y-14287984D01*
X25386848Y-14087984D02*
X25405896Y-14087984D01*
X25405896Y-14087984D02*
X25424944Y-14097508D01*
X25424944Y-14097508D02*
X25434467Y-14107031D01*
X25434467Y-14107031D02*
X25443991Y-14126079D01*
X25443991Y-14126079D02*
X25453515Y-14164174D01*
X25453515Y-14164174D02*
X25453515Y-14211793D01*
X25453515Y-14211793D02*
X25443991Y-14249888D01*
X25443991Y-14249888D02*
X25434467Y-14268936D01*
X25434467Y-14268936D02*
X25424944Y-14278460D01*
X25424944Y-14278460D02*
X25405896Y-14287984D01*
X25405896Y-14287984D02*
X25386848Y-14287984D01*
X25386848Y-14287984D02*
X25367801Y-14278460D01*
X25367801Y-14278460D02*
X25358277Y-14268936D01*
X25358277Y-14268936D02*
X25348753Y-14249888D01*
X25348753Y-14249888D02*
X25339229Y-14211793D01*
X25339229Y-14211793D02*
X25339229Y-14164174D01*
X25339229Y-14164174D02*
X25348753Y-14126079D01*
X25348753Y-14126079D02*
X25358277Y-14107031D01*
X25358277Y-14107031D02*
X25367801Y-14097508D01*
X25367801Y-14097508D02*
X25386848Y-14087984D01*
X25643991Y-14287984D02*
X25529706Y-14287984D01*
X25586848Y-14287984D02*
X25586848Y-14087984D01*
X25586848Y-14087984D02*
X25567801Y-14116555D01*
X25567801Y-14116555D02*
X25548753Y-14135603D01*
X25548753Y-14135603D02*
X25529706Y-14145127D01*
X25710658Y-14087984D02*
X25834467Y-14087984D01*
X25834467Y-14087984D02*
X25767801Y-14164174D01*
X25767801Y-14164174D02*
X25796372Y-14164174D01*
X25796372Y-14164174D02*
X25815420Y-14173698D01*
X25815420Y-14173698D02*
X25824944Y-14183222D01*
X25824944Y-14183222D02*
X25834467Y-14202269D01*
X25834467Y-14202269D02*
X25834467Y-14249888D01*
X25834467Y-14249888D02*
X25824944Y-14268936D01*
X25824944Y-14268936D02*
X25815420Y-14278460D01*
X25815420Y-14278460D02*
X25796372Y-14287984D01*
X25796372Y-14287984D02*
X25739229Y-14287984D01*
X25739229Y-14287984D02*
X25720182Y-14278460D01*
X25720182Y-14278460D02*
X25710658Y-14268936D01*
X25948753Y-14173698D02*
X25929706Y-14164174D01*
X25929706Y-14164174D02*
X25920182Y-14154650D01*
X25920182Y-14154650D02*
X25910658Y-14135603D01*
X25910658Y-14135603D02*
X25910658Y-14126079D01*
X25910658Y-14126079D02*
X25920182Y-14107031D01*
X25920182Y-14107031D02*
X25929706Y-14097508D01*
X25929706Y-14097508D02*
X25948753Y-14087984D01*
X25948753Y-14087984D02*
X25986848Y-14087984D01*
X25986848Y-14087984D02*
X26005896Y-14097508D01*
X26005896Y-14097508D02*
X26015420Y-14107031D01*
X26015420Y-14107031D02*
X26024944Y-14126079D01*
X26024944Y-14126079D02*
X26024944Y-14135603D01*
X26024944Y-14135603D02*
X26015420Y-14154650D01*
X26015420Y-14154650D02*
X26005896Y-14164174D01*
X26005896Y-14164174D02*
X25986848Y-14173698D01*
X25986848Y-14173698D02*
X25948753Y-14173698D01*
X25948753Y-14173698D02*
X25929706Y-14183222D01*
X25929706Y-14183222D02*
X25920182Y-14192746D01*
X25920182Y-14192746D02*
X25910658Y-14211793D01*
X25910658Y-14211793D02*
X25910658Y-14249888D01*
X25910658Y-14249888D02*
X25920182Y-14268936D01*
X25920182Y-14268936D02*
X25929706Y-14278460D01*
X25929706Y-14278460D02*
X25948753Y-14287984D01*
X25948753Y-14287984D02*
X25986848Y-14287984D01*
X25986848Y-14287984D02*
X26005896Y-14278460D01*
X26005896Y-14278460D02*
X26015420Y-14268936D01*
X26015420Y-14268936D02*
X26024944Y-14249888D01*
X26024944Y-14249888D02*
X26024944Y-14211793D01*
X26024944Y-14211793D02*
X26015420Y-14192746D01*
X26015420Y-14192746D02*
X26005896Y-14183222D01*
X26005896Y-14183222D02*
X25986848Y-14173698D01*
X26101134Y-14087984D02*
X26101134Y-14126079D01*
X26177325Y-14087984D02*
X26177325Y-14126079D01*
X26472563Y-14364174D02*
X26463039Y-14354650D01*
X26463039Y-14354650D02*
X26443991Y-14326079D01*
X26443991Y-14326079D02*
X26434468Y-14307031D01*
X26434468Y-14307031D02*
X26424944Y-14278460D01*
X26424944Y-14278460D02*
X26415420Y-14230841D01*
X26415420Y-14230841D02*
X26415420Y-14192746D01*
X26415420Y-14192746D02*
X26424944Y-14145127D01*
X26424944Y-14145127D02*
X26434468Y-14116555D01*
X26434468Y-14116555D02*
X26443991Y-14097508D01*
X26443991Y-14097508D02*
X26463039Y-14068936D01*
X26463039Y-14068936D02*
X26472563Y-14059412D01*
X26586848Y-14087984D02*
X26605896Y-14087984D01*
X26605896Y-14087984D02*
X26624944Y-14097508D01*
X26624944Y-14097508D02*
X26634468Y-14107031D01*
X26634468Y-14107031D02*
X26643991Y-14126079D01*
X26643991Y-14126079D02*
X26653515Y-14164174D01*
X26653515Y-14164174D02*
X26653515Y-14211793D01*
X26653515Y-14211793D02*
X26643991Y-14249888D01*
X26643991Y-14249888D02*
X26634468Y-14268936D01*
X26634468Y-14268936D02*
X26624944Y-14278460D01*
X26624944Y-14278460D02*
X26605896Y-14287984D01*
X26605896Y-14287984D02*
X26586848Y-14287984D01*
X26586848Y-14287984D02*
X26567801Y-14278460D01*
X26567801Y-14278460D02*
X26558277Y-14268936D01*
X26558277Y-14268936D02*
X26548753Y-14249888D01*
X26548753Y-14249888D02*
X26539229Y-14211793D01*
X26539229Y-14211793D02*
X26539229Y-14164174D01*
X26539229Y-14164174D02*
X26548753Y-14126079D01*
X26548753Y-14126079D02*
X26558277Y-14107031D01*
X26558277Y-14107031D02*
X26567801Y-14097508D01*
X26567801Y-14097508D02*
X26586848Y-14087984D01*
X26891610Y-14287984D02*
X26891610Y-14087984D01*
X26977325Y-14287984D02*
X26977325Y-14183222D01*
X26977325Y-14183222D02*
X26967801Y-14164174D01*
X26967801Y-14164174D02*
X26948753Y-14154650D01*
X26948753Y-14154650D02*
X26920182Y-14154650D01*
X26920182Y-14154650D02*
X26901134Y-14164174D01*
X26901134Y-14164174D02*
X26891610Y-14173698D01*
X27101134Y-14287984D02*
X27082087Y-14278460D01*
X27082087Y-14278460D02*
X27072563Y-14268936D01*
X27072563Y-14268936D02*
X27063039Y-14249888D01*
X27063039Y-14249888D02*
X27063039Y-14192746D01*
X27063039Y-14192746D02*
X27072563Y-14173698D01*
X27072563Y-14173698D02*
X27082087Y-14164174D01*
X27082087Y-14164174D02*
X27101134Y-14154650D01*
X27101134Y-14154650D02*
X27129706Y-14154650D01*
X27129706Y-14154650D02*
X27148753Y-14164174D01*
X27148753Y-14164174D02*
X27158277Y-14173698D01*
X27158277Y-14173698D02*
X27167801Y-14192746D01*
X27167801Y-14192746D02*
X27167801Y-14249888D01*
X27167801Y-14249888D02*
X27158277Y-14268936D01*
X27158277Y-14268936D02*
X27148753Y-14278460D01*
X27148753Y-14278460D02*
X27129706Y-14287984D01*
X27129706Y-14287984D02*
X27101134Y-14287984D01*
X27282087Y-14287984D02*
X27263039Y-14278460D01*
X27263039Y-14278460D02*
X27253515Y-14259412D01*
X27253515Y-14259412D02*
X27253515Y-14087984D01*
X27434468Y-14278460D02*
X27415420Y-14287984D01*
X27415420Y-14287984D02*
X27377325Y-14287984D01*
X27377325Y-14287984D02*
X27358277Y-14278460D01*
X27358277Y-14278460D02*
X27348753Y-14259412D01*
X27348753Y-14259412D02*
X27348753Y-14183222D01*
X27348753Y-14183222D02*
X27358277Y-14164174D01*
X27358277Y-14164174D02*
X27377325Y-14154650D01*
X27377325Y-14154650D02*
X27415420Y-14154650D01*
X27415420Y-14154650D02*
X27434468Y-14164174D01*
X27434468Y-14164174D02*
X27443991Y-14183222D01*
X27443991Y-14183222D02*
X27443991Y-14202269D01*
X27443991Y-14202269D02*
X27348753Y-14221317D01*
X27520182Y-14278460D02*
X27539230Y-14287984D01*
X27539230Y-14287984D02*
X27577325Y-14287984D01*
X27577325Y-14287984D02*
X27596372Y-14278460D01*
X27596372Y-14278460D02*
X27605896Y-14259412D01*
X27605896Y-14259412D02*
X27605896Y-14249888D01*
X27605896Y-14249888D02*
X27596372Y-14230841D01*
X27596372Y-14230841D02*
X27577325Y-14221317D01*
X27577325Y-14221317D02*
X27548753Y-14221317D01*
X27548753Y-14221317D02*
X27529706Y-14211793D01*
X27529706Y-14211793D02*
X27520182Y-14192746D01*
X27520182Y-14192746D02*
X27520182Y-14183222D01*
X27520182Y-14183222D02*
X27529706Y-14164174D01*
X27529706Y-14164174D02*
X27548753Y-14154650D01*
X27548753Y-14154650D02*
X27577325Y-14154650D01*
X27577325Y-14154650D02*
X27596372Y-14164174D01*
X27843992Y-14211793D02*
X27996373Y-14211793D01*
X27920182Y-14287984D02*
X27920182Y-14135603D01*
X28234468Y-14107031D02*
X28243992Y-14097508D01*
X28243992Y-14097508D02*
X28263039Y-14087984D01*
X28263039Y-14087984D02*
X28310658Y-14087984D01*
X28310658Y-14087984D02*
X28329706Y-14097508D01*
X28329706Y-14097508D02*
X28339230Y-14107031D01*
X28339230Y-14107031D02*
X28348753Y-14126079D01*
X28348753Y-14126079D02*
X28348753Y-14145127D01*
X28348753Y-14145127D02*
X28339230Y-14173698D01*
X28339230Y-14173698D02*
X28224944Y-14287984D01*
X28224944Y-14287984D02*
X28348753Y-14287984D01*
X28577325Y-14278460D02*
X28596373Y-14287984D01*
X28596373Y-14287984D02*
X28634468Y-14287984D01*
X28634468Y-14287984D02*
X28653515Y-14278460D01*
X28653515Y-14278460D02*
X28663039Y-14259412D01*
X28663039Y-14259412D02*
X28663039Y-14249888D01*
X28663039Y-14249888D02*
X28653515Y-14230841D01*
X28653515Y-14230841D02*
X28634468Y-14221317D01*
X28634468Y-14221317D02*
X28605896Y-14221317D01*
X28605896Y-14221317D02*
X28586849Y-14211793D01*
X28586849Y-14211793D02*
X28577325Y-14192746D01*
X28577325Y-14192746D02*
X28577325Y-14183222D01*
X28577325Y-14183222D02*
X28586849Y-14164174D01*
X28586849Y-14164174D02*
X28605896Y-14154650D01*
X28605896Y-14154650D02*
X28634468Y-14154650D01*
X28634468Y-14154650D02*
X28653515Y-14164174D01*
X28777325Y-14287984D02*
X28758277Y-14278460D01*
X28758277Y-14278460D02*
X28748754Y-14259412D01*
X28748754Y-14259412D02*
X28748754Y-14087984D01*
X28882087Y-14287984D02*
X28863039Y-14278460D01*
X28863039Y-14278460D02*
X28853515Y-14268936D01*
X28853515Y-14268936D02*
X28843992Y-14249888D01*
X28843992Y-14249888D02*
X28843992Y-14192746D01*
X28843992Y-14192746D02*
X28853515Y-14173698D01*
X28853515Y-14173698D02*
X28863039Y-14164174D01*
X28863039Y-14164174D02*
X28882087Y-14154650D01*
X28882087Y-14154650D02*
X28910658Y-14154650D01*
X28910658Y-14154650D02*
X28929706Y-14164174D01*
X28929706Y-14164174D02*
X28939230Y-14173698D01*
X28939230Y-14173698D02*
X28948754Y-14192746D01*
X28948754Y-14192746D02*
X28948754Y-14249888D01*
X28948754Y-14249888D02*
X28939230Y-14268936D01*
X28939230Y-14268936D02*
X28929706Y-14278460D01*
X28929706Y-14278460D02*
X28910658Y-14287984D01*
X28910658Y-14287984D02*
X28882087Y-14287984D01*
X29005896Y-14154650D02*
X29082087Y-14154650D01*
X29034468Y-14087984D02*
X29034468Y-14259412D01*
X29034468Y-14259412D02*
X29043992Y-14278460D01*
X29043992Y-14278460D02*
X29063039Y-14287984D01*
X29063039Y-14287984D02*
X29082087Y-14287984D01*
X29139230Y-14278460D02*
X29158277Y-14287984D01*
X29158277Y-14287984D02*
X29196373Y-14287984D01*
X29196373Y-14287984D02*
X29215420Y-14278460D01*
X29215420Y-14278460D02*
X29224944Y-14259412D01*
X29224944Y-14259412D02*
X29224944Y-14249888D01*
X29224944Y-14249888D02*
X29215420Y-14230841D01*
X29215420Y-14230841D02*
X29196373Y-14221317D01*
X29196373Y-14221317D02*
X29167801Y-14221317D01*
X29167801Y-14221317D02*
X29148754Y-14211793D01*
X29148754Y-14211793D02*
X29139230Y-14192746D01*
X29139230Y-14192746D02*
X29139230Y-14183222D01*
X29139230Y-14183222D02*
X29148754Y-14164174D01*
X29148754Y-14164174D02*
X29167801Y-14154650D01*
X29167801Y-14154650D02*
X29196373Y-14154650D01*
X29196373Y-14154650D02*
X29215420Y-14164174D01*
X29291611Y-14364174D02*
X29301135Y-14354650D01*
X29301135Y-14354650D02*
X29320182Y-14326079D01*
X29320182Y-14326079D02*
X29329706Y-14307031D01*
X29329706Y-14307031D02*
X29339230Y-14278460D01*
X29339230Y-14278460D02*
X29348754Y-14230841D01*
X29348754Y-14230841D02*
X29348754Y-14192746D01*
X29348754Y-14192746D02*
X29339230Y-14145127D01*
X29339230Y-14145127D02*
X29329706Y-14116555D01*
X29329706Y-14116555D02*
X29320182Y-14097508D01*
X29320182Y-14097508D02*
X29301135Y-14068936D01*
X29301135Y-14068936D02*
X29291611Y-14059412D01*
D12*
X22875500Y-14438500D02*
X22875500Y-14482500D01*
X22853500Y-14460500D02*
X22897500Y-14460500D01*
D11*
X23196372Y-14351984D02*
X23215420Y-14351984D01*
X23215420Y-14351984D02*
X23234467Y-14361508D01*
X23234467Y-14361508D02*
X23243991Y-14371031D01*
X23243991Y-14371031D02*
X23253515Y-14390079D01*
X23253515Y-14390079D02*
X23263039Y-14428174D01*
X23263039Y-14428174D02*
X23263039Y-14475793D01*
X23263039Y-14475793D02*
X23253515Y-14513888D01*
X23253515Y-14513888D02*
X23243991Y-14532936D01*
X23243991Y-14532936D02*
X23234467Y-14542460D01*
X23234467Y-14542460D02*
X23215420Y-14551984D01*
X23215420Y-14551984D02*
X23196372Y-14551984D01*
X23196372Y-14551984D02*
X23177324Y-14542460D01*
X23177324Y-14542460D02*
X23167801Y-14532936D01*
X23167801Y-14532936D02*
X23158277Y-14513888D01*
X23158277Y-14513888D02*
X23148753Y-14475793D01*
X23148753Y-14475793D02*
X23148753Y-14428174D01*
X23148753Y-14428174D02*
X23158277Y-14390079D01*
X23158277Y-14390079D02*
X23167801Y-14371031D01*
X23167801Y-14371031D02*
X23177324Y-14361508D01*
X23177324Y-14361508D02*
X23196372Y-14351984D01*
X23348753Y-14532936D02*
X23358277Y-14542460D01*
X23358277Y-14542460D02*
X23348753Y-14551984D01*
X23348753Y-14551984D02*
X23339229Y-14542460D01*
X23339229Y-14542460D02*
X23348753Y-14532936D01*
X23348753Y-14532936D02*
X23348753Y-14551984D01*
X23529705Y-14418650D02*
X23529705Y-14551984D01*
X23482086Y-14342460D02*
X23434467Y-14485317D01*
X23434467Y-14485317D02*
X23558277Y-14485317D01*
X23720182Y-14418650D02*
X23720182Y-14551984D01*
X23672562Y-14342460D02*
X23624943Y-14485317D01*
X23624943Y-14485317D02*
X23748753Y-14485317D01*
X23863039Y-14351984D02*
X23882086Y-14351984D01*
X23882086Y-14351984D02*
X23901134Y-14361508D01*
X23901134Y-14361508D02*
X23910658Y-14371031D01*
X23910658Y-14371031D02*
X23920182Y-14390079D01*
X23920182Y-14390079D02*
X23929705Y-14428174D01*
X23929705Y-14428174D02*
X23929705Y-14475793D01*
X23929705Y-14475793D02*
X23920182Y-14513888D01*
X23920182Y-14513888D02*
X23910658Y-14532936D01*
X23910658Y-14532936D02*
X23901134Y-14542460D01*
X23901134Y-14542460D02*
X23882086Y-14551984D01*
X23882086Y-14551984D02*
X23863039Y-14551984D01*
X23863039Y-14551984D02*
X23843991Y-14542460D01*
X23843991Y-14542460D02*
X23834467Y-14532936D01*
X23834467Y-14532936D02*
X23824943Y-14513888D01*
X23824943Y-14513888D02*
X23815420Y-14475793D01*
X23815420Y-14475793D02*
X23815420Y-14428174D01*
X23815420Y-14428174D02*
X23824943Y-14390079D01*
X23824943Y-14390079D02*
X23834467Y-14371031D01*
X23834467Y-14371031D02*
X23843991Y-14361508D01*
X23843991Y-14361508D02*
X23863039Y-14351984D01*
X24015420Y-14551984D02*
X24015420Y-14418650D01*
X24015420Y-14437698D02*
X24024943Y-14428174D01*
X24024943Y-14428174D02*
X24043991Y-14418650D01*
X24043991Y-14418650D02*
X24072563Y-14418650D01*
X24072563Y-14418650D02*
X24091610Y-14428174D01*
X24091610Y-14428174D02*
X24101134Y-14447222D01*
X24101134Y-14447222D02*
X24101134Y-14551984D01*
X24101134Y-14447222D02*
X24110658Y-14428174D01*
X24110658Y-14428174D02*
X24129705Y-14418650D01*
X24129705Y-14418650D02*
X24158277Y-14418650D01*
X24158277Y-14418650D02*
X24177324Y-14428174D01*
X24177324Y-14428174D02*
X24186848Y-14447222D01*
X24186848Y-14447222D02*
X24186848Y-14551984D01*
X24282086Y-14551984D02*
X24282086Y-14418650D01*
X24282086Y-14437698D02*
X24291610Y-14428174D01*
X24291610Y-14428174D02*
X24310658Y-14418650D01*
X24310658Y-14418650D02*
X24339229Y-14418650D01*
X24339229Y-14418650D02*
X24358277Y-14428174D01*
X24358277Y-14428174D02*
X24367801Y-14447222D01*
X24367801Y-14447222D02*
X24367801Y-14551984D01*
X24367801Y-14447222D02*
X24377324Y-14428174D01*
X24377324Y-14428174D02*
X24396372Y-14418650D01*
X24396372Y-14418650D02*
X24424943Y-14418650D01*
X24424943Y-14418650D02*
X24443991Y-14428174D01*
X24443991Y-14428174D02*
X24453515Y-14447222D01*
X24453515Y-14447222D02*
X24453515Y-14551984D01*
X24843991Y-14342460D02*
X24672563Y-14599603D01*
X25101134Y-14351984D02*
X25120182Y-14351984D01*
X25120182Y-14351984D02*
X25139229Y-14361508D01*
X25139229Y-14361508D02*
X25148753Y-14371031D01*
X25148753Y-14371031D02*
X25158277Y-14390079D01*
X25158277Y-14390079D02*
X25167801Y-14428174D01*
X25167801Y-14428174D02*
X25167801Y-14475793D01*
X25167801Y-14475793D02*
X25158277Y-14513888D01*
X25158277Y-14513888D02*
X25148753Y-14532936D01*
X25148753Y-14532936D02*
X25139229Y-14542460D01*
X25139229Y-14542460D02*
X25120182Y-14551984D01*
X25120182Y-14551984D02*
X25101134Y-14551984D01*
X25101134Y-14551984D02*
X25082086Y-14542460D01*
X25082086Y-14542460D02*
X25072563Y-14532936D01*
X25072563Y-14532936D02*
X25063039Y-14513888D01*
X25063039Y-14513888D02*
X25053515Y-14475793D01*
X25053515Y-14475793D02*
X25053515Y-14428174D01*
X25053515Y-14428174D02*
X25063039Y-14390079D01*
X25063039Y-14390079D02*
X25072563Y-14371031D01*
X25072563Y-14371031D02*
X25082086Y-14361508D01*
X25082086Y-14361508D02*
X25101134Y-14351984D01*
X25253515Y-14532936D02*
X25263039Y-14542460D01*
X25263039Y-14542460D02*
X25253515Y-14551984D01*
X25253515Y-14551984D02*
X25243991Y-14542460D01*
X25243991Y-14542460D02*
X25253515Y-14532936D01*
X25253515Y-14532936D02*
X25253515Y-14551984D01*
X25386848Y-14351984D02*
X25405896Y-14351984D01*
X25405896Y-14351984D02*
X25424944Y-14361508D01*
X25424944Y-14361508D02*
X25434467Y-14371031D01*
X25434467Y-14371031D02*
X25443991Y-14390079D01*
X25443991Y-14390079D02*
X25453515Y-14428174D01*
X25453515Y-14428174D02*
X25453515Y-14475793D01*
X25453515Y-14475793D02*
X25443991Y-14513888D01*
X25443991Y-14513888D02*
X25434467Y-14532936D01*
X25434467Y-14532936D02*
X25424944Y-14542460D01*
X25424944Y-14542460D02*
X25405896Y-14551984D01*
X25405896Y-14551984D02*
X25386848Y-14551984D01*
X25386848Y-14551984D02*
X25367801Y-14542460D01*
X25367801Y-14542460D02*
X25358277Y-14532936D01*
X25358277Y-14532936D02*
X25348753Y-14513888D01*
X25348753Y-14513888D02*
X25339229Y-14475793D01*
X25339229Y-14475793D02*
X25339229Y-14428174D01*
X25339229Y-14428174D02*
X25348753Y-14390079D01*
X25348753Y-14390079D02*
X25358277Y-14371031D01*
X25358277Y-14371031D02*
X25367801Y-14361508D01*
X25367801Y-14361508D02*
X25386848Y-14351984D01*
X25643991Y-14551984D02*
X25529706Y-14551984D01*
X25586848Y-14551984D02*
X25586848Y-14351984D01*
X25586848Y-14351984D02*
X25567801Y-14380555D01*
X25567801Y-14380555D02*
X25548753Y-14399603D01*
X25548753Y-14399603D02*
X25529706Y-14409127D01*
X25710658Y-14351984D02*
X25843991Y-14351984D01*
X25843991Y-14351984D02*
X25758277Y-14551984D01*
X25901134Y-14351984D02*
X26024944Y-14351984D01*
X26024944Y-14351984D02*
X25958277Y-14428174D01*
X25958277Y-14428174D02*
X25986848Y-14428174D01*
X25986848Y-14428174D02*
X26005896Y-14437698D01*
X26005896Y-14437698D02*
X26015420Y-14447222D01*
X26015420Y-14447222D02*
X26024944Y-14466269D01*
X26024944Y-14466269D02*
X26024944Y-14513888D01*
X26024944Y-14513888D02*
X26015420Y-14532936D01*
X26015420Y-14532936D02*
X26005896Y-14542460D01*
X26005896Y-14542460D02*
X25986848Y-14551984D01*
X25986848Y-14551984D02*
X25929706Y-14551984D01*
X25929706Y-14551984D02*
X25910658Y-14542460D01*
X25910658Y-14542460D02*
X25901134Y-14532936D01*
X26101134Y-14351984D02*
X26101134Y-14390079D01*
X26177325Y-14351984D02*
X26177325Y-14390079D01*
X26472563Y-14628174D02*
X26463039Y-14618650D01*
X26463039Y-14618650D02*
X26443991Y-14590079D01*
X26443991Y-14590079D02*
X26434468Y-14571031D01*
X26434468Y-14571031D02*
X26424944Y-14542460D01*
X26424944Y-14542460D02*
X26415420Y-14494841D01*
X26415420Y-14494841D02*
X26415420Y-14456746D01*
X26415420Y-14456746D02*
X26424944Y-14409127D01*
X26424944Y-14409127D02*
X26434468Y-14380555D01*
X26434468Y-14380555D02*
X26443991Y-14361508D01*
X26443991Y-14361508D02*
X26463039Y-14332936D01*
X26463039Y-14332936D02*
X26472563Y-14323412D01*
X26643991Y-14351984D02*
X26548753Y-14351984D01*
X26548753Y-14351984D02*
X26539229Y-14447222D01*
X26539229Y-14447222D02*
X26548753Y-14437698D01*
X26548753Y-14437698D02*
X26567801Y-14428174D01*
X26567801Y-14428174D02*
X26615420Y-14428174D01*
X26615420Y-14428174D02*
X26634468Y-14437698D01*
X26634468Y-14437698D02*
X26643991Y-14447222D01*
X26643991Y-14447222D02*
X26653515Y-14466269D01*
X26653515Y-14466269D02*
X26653515Y-14513888D01*
X26653515Y-14513888D02*
X26643991Y-14532936D01*
X26643991Y-14532936D02*
X26634468Y-14542460D01*
X26634468Y-14542460D02*
X26615420Y-14551984D01*
X26615420Y-14551984D02*
X26567801Y-14551984D01*
X26567801Y-14551984D02*
X26548753Y-14542460D01*
X26548753Y-14542460D02*
X26539229Y-14532936D01*
X26891610Y-14551984D02*
X26891610Y-14351984D01*
X26977325Y-14551984D02*
X26977325Y-14447222D01*
X26977325Y-14447222D02*
X26967801Y-14428174D01*
X26967801Y-14428174D02*
X26948753Y-14418650D01*
X26948753Y-14418650D02*
X26920182Y-14418650D01*
X26920182Y-14418650D02*
X26901134Y-14428174D01*
X26901134Y-14428174D02*
X26891610Y-14437698D01*
X27101134Y-14551984D02*
X27082087Y-14542460D01*
X27082087Y-14542460D02*
X27072563Y-14532936D01*
X27072563Y-14532936D02*
X27063039Y-14513888D01*
X27063039Y-14513888D02*
X27063039Y-14456746D01*
X27063039Y-14456746D02*
X27072563Y-14437698D01*
X27072563Y-14437698D02*
X27082087Y-14428174D01*
X27082087Y-14428174D02*
X27101134Y-14418650D01*
X27101134Y-14418650D02*
X27129706Y-14418650D01*
X27129706Y-14418650D02*
X27148753Y-14428174D01*
X27148753Y-14428174D02*
X27158277Y-14437698D01*
X27158277Y-14437698D02*
X27167801Y-14456746D01*
X27167801Y-14456746D02*
X27167801Y-14513888D01*
X27167801Y-14513888D02*
X27158277Y-14532936D01*
X27158277Y-14532936D02*
X27148753Y-14542460D01*
X27148753Y-14542460D02*
X27129706Y-14551984D01*
X27129706Y-14551984D02*
X27101134Y-14551984D01*
X27282087Y-14551984D02*
X27263039Y-14542460D01*
X27263039Y-14542460D02*
X27253515Y-14523412D01*
X27253515Y-14523412D02*
X27253515Y-14351984D01*
X27434468Y-14542460D02*
X27415420Y-14551984D01*
X27415420Y-14551984D02*
X27377325Y-14551984D01*
X27377325Y-14551984D02*
X27358277Y-14542460D01*
X27358277Y-14542460D02*
X27348753Y-14523412D01*
X27348753Y-14523412D02*
X27348753Y-14447222D01*
X27348753Y-14447222D02*
X27358277Y-14428174D01*
X27358277Y-14428174D02*
X27377325Y-14418650D01*
X27377325Y-14418650D02*
X27415420Y-14418650D01*
X27415420Y-14418650D02*
X27434468Y-14428174D01*
X27434468Y-14428174D02*
X27443991Y-14447222D01*
X27443991Y-14447222D02*
X27443991Y-14466269D01*
X27443991Y-14466269D02*
X27348753Y-14485317D01*
X27520182Y-14542460D02*
X27539230Y-14551984D01*
X27539230Y-14551984D02*
X27577325Y-14551984D01*
X27577325Y-14551984D02*
X27596372Y-14542460D01*
X27596372Y-14542460D02*
X27605896Y-14523412D01*
X27605896Y-14523412D02*
X27605896Y-14513888D01*
X27605896Y-14513888D02*
X27596372Y-14494841D01*
X27596372Y-14494841D02*
X27577325Y-14485317D01*
X27577325Y-14485317D02*
X27548753Y-14485317D01*
X27548753Y-14485317D02*
X27529706Y-14475793D01*
X27529706Y-14475793D02*
X27520182Y-14456746D01*
X27520182Y-14456746D02*
X27520182Y-14447222D01*
X27520182Y-14447222D02*
X27529706Y-14428174D01*
X27529706Y-14428174D02*
X27548753Y-14418650D01*
X27548753Y-14418650D02*
X27577325Y-14418650D01*
X27577325Y-14418650D02*
X27596372Y-14428174D01*
X27672563Y-14628174D02*
X27682087Y-14618650D01*
X27682087Y-14618650D02*
X27701134Y-14590079D01*
X27701134Y-14590079D02*
X27710658Y-14571031D01*
X27710658Y-14571031D02*
X27720182Y-14542460D01*
X27720182Y-14542460D02*
X27729706Y-14494841D01*
X27729706Y-14494841D02*
X27729706Y-14456746D01*
X27729706Y-14456746D02*
X27720182Y-14409127D01*
X27720182Y-14409127D02*
X27710658Y-14380555D01*
X27710658Y-14380555D02*
X27701134Y-14361508D01*
X27701134Y-14361508D02*
X27682087Y-14332936D01*
X27682087Y-14332936D02*
X27672563Y-14323412D01*
D12*
X22882856Y-14759856D02*
X22882856Y-14689144D01*
X22812144Y-14689144D01*
X22812144Y-14759856D01*
X22882856Y-14759856D01*
D11*
X23263039Y-14815984D02*
X23148753Y-14815984D01*
X23205896Y-14815984D02*
X23205896Y-14615984D01*
X23205896Y-14615984D02*
X23186848Y-14644555D01*
X23186848Y-14644555D02*
X23167801Y-14663603D01*
X23167801Y-14663603D02*
X23148753Y-14673127D01*
X23348753Y-14796936D02*
X23358277Y-14806460D01*
X23358277Y-14806460D02*
X23348753Y-14815984D01*
X23348753Y-14815984D02*
X23339229Y-14806460D01*
X23339229Y-14806460D02*
X23348753Y-14796936D01*
X23348753Y-14796936D02*
X23348753Y-14815984D01*
X23482086Y-14615984D02*
X23501134Y-14615984D01*
X23501134Y-14615984D02*
X23520182Y-14625508D01*
X23520182Y-14625508D02*
X23529705Y-14635031D01*
X23529705Y-14635031D02*
X23539229Y-14654079D01*
X23539229Y-14654079D02*
X23548753Y-14692174D01*
X23548753Y-14692174D02*
X23548753Y-14739793D01*
X23548753Y-14739793D02*
X23539229Y-14777888D01*
X23539229Y-14777888D02*
X23529705Y-14796936D01*
X23529705Y-14796936D02*
X23520182Y-14806460D01*
X23520182Y-14806460D02*
X23501134Y-14815984D01*
X23501134Y-14815984D02*
X23482086Y-14815984D01*
X23482086Y-14815984D02*
X23463039Y-14806460D01*
X23463039Y-14806460D02*
X23453515Y-14796936D01*
X23453515Y-14796936D02*
X23443991Y-14777888D01*
X23443991Y-14777888D02*
X23434467Y-14739793D01*
X23434467Y-14739793D02*
X23434467Y-14692174D01*
X23434467Y-14692174D02*
X23443991Y-14654079D01*
X23443991Y-14654079D02*
X23453515Y-14635031D01*
X23453515Y-14635031D02*
X23463039Y-14625508D01*
X23463039Y-14625508D02*
X23482086Y-14615984D01*
X23672562Y-14615984D02*
X23691610Y-14615984D01*
X23691610Y-14615984D02*
X23710658Y-14625508D01*
X23710658Y-14625508D02*
X23720182Y-14635031D01*
X23720182Y-14635031D02*
X23729705Y-14654079D01*
X23729705Y-14654079D02*
X23739229Y-14692174D01*
X23739229Y-14692174D02*
X23739229Y-14739793D01*
X23739229Y-14739793D02*
X23729705Y-14777888D01*
X23729705Y-14777888D02*
X23720182Y-14796936D01*
X23720182Y-14796936D02*
X23710658Y-14806460D01*
X23710658Y-14806460D02*
X23691610Y-14815984D01*
X23691610Y-14815984D02*
X23672562Y-14815984D01*
X23672562Y-14815984D02*
X23653515Y-14806460D01*
X23653515Y-14806460D02*
X23643991Y-14796936D01*
X23643991Y-14796936D02*
X23634467Y-14777888D01*
X23634467Y-14777888D02*
X23624943Y-14739793D01*
X23624943Y-14739793D02*
X23624943Y-14692174D01*
X23624943Y-14692174D02*
X23634467Y-14654079D01*
X23634467Y-14654079D02*
X23643991Y-14635031D01*
X23643991Y-14635031D02*
X23653515Y-14625508D01*
X23653515Y-14625508D02*
X23672562Y-14615984D01*
X23863039Y-14615984D02*
X23882086Y-14615984D01*
X23882086Y-14615984D02*
X23901134Y-14625508D01*
X23901134Y-14625508D02*
X23910658Y-14635031D01*
X23910658Y-14635031D02*
X23920182Y-14654079D01*
X23920182Y-14654079D02*
X23929705Y-14692174D01*
X23929705Y-14692174D02*
X23929705Y-14739793D01*
X23929705Y-14739793D02*
X23920182Y-14777888D01*
X23920182Y-14777888D02*
X23910658Y-14796936D01*
X23910658Y-14796936D02*
X23901134Y-14806460D01*
X23901134Y-14806460D02*
X23882086Y-14815984D01*
X23882086Y-14815984D02*
X23863039Y-14815984D01*
X23863039Y-14815984D02*
X23843991Y-14806460D01*
X23843991Y-14806460D02*
X23834467Y-14796936D01*
X23834467Y-14796936D02*
X23824943Y-14777888D01*
X23824943Y-14777888D02*
X23815420Y-14739793D01*
X23815420Y-14739793D02*
X23815420Y-14692174D01*
X23815420Y-14692174D02*
X23824943Y-14654079D01*
X23824943Y-14654079D02*
X23834467Y-14635031D01*
X23834467Y-14635031D02*
X23843991Y-14625508D01*
X23843991Y-14625508D02*
X23863039Y-14615984D01*
X24015420Y-14815984D02*
X24015420Y-14682650D01*
X24015420Y-14701698D02*
X24024943Y-14692174D01*
X24024943Y-14692174D02*
X24043991Y-14682650D01*
X24043991Y-14682650D02*
X24072563Y-14682650D01*
X24072563Y-14682650D02*
X24091610Y-14692174D01*
X24091610Y-14692174D02*
X24101134Y-14711222D01*
X24101134Y-14711222D02*
X24101134Y-14815984D01*
X24101134Y-14711222D02*
X24110658Y-14692174D01*
X24110658Y-14692174D02*
X24129705Y-14682650D01*
X24129705Y-14682650D02*
X24158277Y-14682650D01*
X24158277Y-14682650D02*
X24177324Y-14692174D01*
X24177324Y-14692174D02*
X24186848Y-14711222D01*
X24186848Y-14711222D02*
X24186848Y-14815984D01*
X24282086Y-14815984D02*
X24282086Y-14682650D01*
X24282086Y-14701698D02*
X24291610Y-14692174D01*
X24291610Y-14692174D02*
X24310658Y-14682650D01*
X24310658Y-14682650D02*
X24339229Y-14682650D01*
X24339229Y-14682650D02*
X24358277Y-14692174D01*
X24358277Y-14692174D02*
X24367801Y-14711222D01*
X24367801Y-14711222D02*
X24367801Y-14815984D01*
X24367801Y-14711222D02*
X24377324Y-14692174D01*
X24377324Y-14692174D02*
X24396372Y-14682650D01*
X24396372Y-14682650D02*
X24424943Y-14682650D01*
X24424943Y-14682650D02*
X24443991Y-14692174D01*
X24443991Y-14692174D02*
X24453515Y-14711222D01*
X24453515Y-14711222D02*
X24453515Y-14815984D01*
X24843991Y-14606460D02*
X24672563Y-14863603D01*
X25101134Y-14615984D02*
X25120182Y-14615984D01*
X25120182Y-14615984D02*
X25139229Y-14625508D01*
X25139229Y-14625508D02*
X25148753Y-14635031D01*
X25148753Y-14635031D02*
X25158277Y-14654079D01*
X25158277Y-14654079D02*
X25167801Y-14692174D01*
X25167801Y-14692174D02*
X25167801Y-14739793D01*
X25167801Y-14739793D02*
X25158277Y-14777888D01*
X25158277Y-14777888D02*
X25148753Y-14796936D01*
X25148753Y-14796936D02*
X25139229Y-14806460D01*
X25139229Y-14806460D02*
X25120182Y-14815984D01*
X25120182Y-14815984D02*
X25101134Y-14815984D01*
X25101134Y-14815984D02*
X25082086Y-14806460D01*
X25082086Y-14806460D02*
X25072563Y-14796936D01*
X25072563Y-14796936D02*
X25063039Y-14777888D01*
X25063039Y-14777888D02*
X25053515Y-14739793D01*
X25053515Y-14739793D02*
X25053515Y-14692174D01*
X25053515Y-14692174D02*
X25063039Y-14654079D01*
X25063039Y-14654079D02*
X25072563Y-14635031D01*
X25072563Y-14635031D02*
X25082086Y-14625508D01*
X25082086Y-14625508D02*
X25101134Y-14615984D01*
X25253515Y-14796936D02*
X25263039Y-14806460D01*
X25263039Y-14806460D02*
X25253515Y-14815984D01*
X25253515Y-14815984D02*
X25243991Y-14806460D01*
X25243991Y-14806460D02*
X25253515Y-14796936D01*
X25253515Y-14796936D02*
X25253515Y-14815984D01*
X25386848Y-14615984D02*
X25405896Y-14615984D01*
X25405896Y-14615984D02*
X25424944Y-14625508D01*
X25424944Y-14625508D02*
X25434467Y-14635031D01*
X25434467Y-14635031D02*
X25443991Y-14654079D01*
X25443991Y-14654079D02*
X25453515Y-14692174D01*
X25453515Y-14692174D02*
X25453515Y-14739793D01*
X25453515Y-14739793D02*
X25443991Y-14777888D01*
X25443991Y-14777888D02*
X25434467Y-14796936D01*
X25434467Y-14796936D02*
X25424944Y-14806460D01*
X25424944Y-14806460D02*
X25405896Y-14815984D01*
X25405896Y-14815984D02*
X25386848Y-14815984D01*
X25386848Y-14815984D02*
X25367801Y-14806460D01*
X25367801Y-14806460D02*
X25358277Y-14796936D01*
X25358277Y-14796936D02*
X25348753Y-14777888D01*
X25348753Y-14777888D02*
X25339229Y-14739793D01*
X25339229Y-14739793D02*
X25339229Y-14692174D01*
X25339229Y-14692174D02*
X25348753Y-14654079D01*
X25348753Y-14654079D02*
X25358277Y-14635031D01*
X25358277Y-14635031D02*
X25367801Y-14625508D01*
X25367801Y-14625508D02*
X25386848Y-14615984D01*
X25520182Y-14615984D02*
X25643991Y-14615984D01*
X25643991Y-14615984D02*
X25577325Y-14692174D01*
X25577325Y-14692174D02*
X25605896Y-14692174D01*
X25605896Y-14692174D02*
X25624944Y-14701698D01*
X25624944Y-14701698D02*
X25634467Y-14711222D01*
X25634467Y-14711222D02*
X25643991Y-14730269D01*
X25643991Y-14730269D02*
X25643991Y-14777888D01*
X25643991Y-14777888D02*
X25634467Y-14796936D01*
X25634467Y-14796936D02*
X25624944Y-14806460D01*
X25624944Y-14806460D02*
X25605896Y-14815984D01*
X25605896Y-14815984D02*
X25548753Y-14815984D01*
X25548753Y-14815984D02*
X25529706Y-14806460D01*
X25529706Y-14806460D02*
X25520182Y-14796936D01*
X25739229Y-14815984D02*
X25777325Y-14815984D01*
X25777325Y-14815984D02*
X25796372Y-14806460D01*
X25796372Y-14806460D02*
X25805896Y-14796936D01*
X25805896Y-14796936D02*
X25824944Y-14768365D01*
X25824944Y-14768365D02*
X25834467Y-14730269D01*
X25834467Y-14730269D02*
X25834467Y-14654079D01*
X25834467Y-14654079D02*
X25824944Y-14635031D01*
X25824944Y-14635031D02*
X25815420Y-14625508D01*
X25815420Y-14625508D02*
X25796372Y-14615984D01*
X25796372Y-14615984D02*
X25758277Y-14615984D01*
X25758277Y-14615984D02*
X25739229Y-14625508D01*
X25739229Y-14625508D02*
X25729706Y-14635031D01*
X25729706Y-14635031D02*
X25720182Y-14654079D01*
X25720182Y-14654079D02*
X25720182Y-14701698D01*
X25720182Y-14701698D02*
X25729706Y-14720746D01*
X25729706Y-14720746D02*
X25739229Y-14730269D01*
X25739229Y-14730269D02*
X25758277Y-14739793D01*
X25758277Y-14739793D02*
X25796372Y-14739793D01*
X25796372Y-14739793D02*
X25815420Y-14730269D01*
X25815420Y-14730269D02*
X25824944Y-14720746D01*
X25824944Y-14720746D02*
X25834467Y-14701698D01*
X26005896Y-14682650D02*
X26005896Y-14815984D01*
X25958277Y-14606460D02*
X25910658Y-14749317D01*
X25910658Y-14749317D02*
X26034467Y-14749317D01*
X26101134Y-14615984D02*
X26101134Y-14654079D01*
X26177325Y-14615984D02*
X26177325Y-14654079D01*
X26472563Y-14892174D02*
X26463039Y-14882650D01*
X26463039Y-14882650D02*
X26443991Y-14854079D01*
X26443991Y-14854079D02*
X26434468Y-14835031D01*
X26434468Y-14835031D02*
X26424944Y-14806460D01*
X26424944Y-14806460D02*
X26415420Y-14758841D01*
X26415420Y-14758841D02*
X26415420Y-14720746D01*
X26415420Y-14720746D02*
X26424944Y-14673127D01*
X26424944Y-14673127D02*
X26434468Y-14644555D01*
X26434468Y-14644555D02*
X26443991Y-14625508D01*
X26443991Y-14625508D02*
X26463039Y-14596936D01*
X26463039Y-14596936D02*
X26472563Y-14587412D01*
X26634468Y-14682650D02*
X26634468Y-14815984D01*
X26586848Y-14606460D02*
X26539229Y-14749317D01*
X26539229Y-14749317D02*
X26663039Y-14749317D01*
X26720182Y-14615984D02*
X26843991Y-14615984D01*
X26843991Y-14615984D02*
X26777325Y-14692174D01*
X26777325Y-14692174D02*
X26805896Y-14692174D01*
X26805896Y-14692174D02*
X26824944Y-14701698D01*
X26824944Y-14701698D02*
X26834468Y-14711222D01*
X26834468Y-14711222D02*
X26843991Y-14730269D01*
X26843991Y-14730269D02*
X26843991Y-14777888D01*
X26843991Y-14777888D02*
X26834468Y-14796936D01*
X26834468Y-14796936D02*
X26824944Y-14806460D01*
X26824944Y-14806460D02*
X26805896Y-14815984D01*
X26805896Y-14815984D02*
X26748753Y-14815984D01*
X26748753Y-14815984D02*
X26729706Y-14806460D01*
X26729706Y-14806460D02*
X26720182Y-14796936D01*
X27082087Y-14815984D02*
X27082087Y-14615984D01*
X27167801Y-14815984D02*
X27167801Y-14711222D01*
X27167801Y-14711222D02*
X27158277Y-14692174D01*
X27158277Y-14692174D02*
X27139230Y-14682650D01*
X27139230Y-14682650D02*
X27110658Y-14682650D01*
X27110658Y-14682650D02*
X27091610Y-14692174D01*
X27091610Y-14692174D02*
X27082087Y-14701698D01*
X27291610Y-14815984D02*
X27272563Y-14806460D01*
X27272563Y-14806460D02*
X27263039Y-14796936D01*
X27263039Y-14796936D02*
X27253515Y-14777888D01*
X27253515Y-14777888D02*
X27253515Y-14720746D01*
X27253515Y-14720746D02*
X27263039Y-14701698D01*
X27263039Y-14701698D02*
X27272563Y-14692174D01*
X27272563Y-14692174D02*
X27291610Y-14682650D01*
X27291610Y-14682650D02*
X27320182Y-14682650D01*
X27320182Y-14682650D02*
X27339230Y-14692174D01*
X27339230Y-14692174D02*
X27348753Y-14701698D01*
X27348753Y-14701698D02*
X27358277Y-14720746D01*
X27358277Y-14720746D02*
X27358277Y-14777888D01*
X27358277Y-14777888D02*
X27348753Y-14796936D01*
X27348753Y-14796936D02*
X27339230Y-14806460D01*
X27339230Y-14806460D02*
X27320182Y-14815984D01*
X27320182Y-14815984D02*
X27291610Y-14815984D01*
X27472563Y-14815984D02*
X27453515Y-14806460D01*
X27453515Y-14806460D02*
X27443991Y-14787412D01*
X27443991Y-14787412D02*
X27443991Y-14615984D01*
X27624944Y-14806460D02*
X27605896Y-14815984D01*
X27605896Y-14815984D02*
X27567801Y-14815984D01*
X27567801Y-14815984D02*
X27548753Y-14806460D01*
X27548753Y-14806460D02*
X27539230Y-14787412D01*
X27539230Y-14787412D02*
X27539230Y-14711222D01*
X27539230Y-14711222D02*
X27548753Y-14692174D01*
X27548753Y-14692174D02*
X27567801Y-14682650D01*
X27567801Y-14682650D02*
X27605896Y-14682650D01*
X27605896Y-14682650D02*
X27624944Y-14692174D01*
X27624944Y-14692174D02*
X27634468Y-14711222D01*
X27634468Y-14711222D02*
X27634468Y-14730269D01*
X27634468Y-14730269D02*
X27539230Y-14749317D01*
X27710658Y-14806460D02*
X27729706Y-14815984D01*
X27729706Y-14815984D02*
X27767801Y-14815984D01*
X27767801Y-14815984D02*
X27786849Y-14806460D01*
X27786849Y-14806460D02*
X27796372Y-14787412D01*
X27796372Y-14787412D02*
X27796372Y-14777888D01*
X27796372Y-14777888D02*
X27786849Y-14758841D01*
X27786849Y-14758841D02*
X27767801Y-14749317D01*
X27767801Y-14749317D02*
X27739230Y-14749317D01*
X27739230Y-14749317D02*
X27720182Y-14739793D01*
X27720182Y-14739793D02*
X27710658Y-14720746D01*
X27710658Y-14720746D02*
X27710658Y-14711222D01*
X27710658Y-14711222D02*
X27720182Y-14692174D01*
X27720182Y-14692174D02*
X27739230Y-14682650D01*
X27739230Y-14682650D02*
X27767801Y-14682650D01*
X27767801Y-14682650D02*
X27786849Y-14692174D01*
X27863039Y-14892174D02*
X27872563Y-14882650D01*
X27872563Y-14882650D02*
X27891611Y-14854079D01*
X27891611Y-14854079D02*
X27901134Y-14835031D01*
X27901134Y-14835031D02*
X27910658Y-14806460D01*
X27910658Y-14806460D02*
X27920182Y-14758841D01*
X27920182Y-14758841D02*
X27920182Y-14720746D01*
X27920182Y-14720746D02*
X27910658Y-14673127D01*
X27910658Y-14673127D02*
X27901134Y-14644555D01*
X27901134Y-14644555D02*
X27891611Y-14625508D01*
X27891611Y-14625508D02*
X27872563Y-14596936D01*
X27872563Y-14596936D02*
X27863039Y-14587412D01*
M02*
