%TF.GenerationSoftware,KiCad,Pcbnew,(6.0.1)*%
%TF.CreationDate,2022-05-20T20:33:31+02:00*%
%TF.ProjectId,xESC2,78455343-322e-46b6-9963-61645f706362,rev?*%
%TF.SameCoordinates,Original*%
%TF.FileFunction,Soldermask,Bot*%
%TF.FilePolarity,Negative*%
%FSLAX46Y46*%
G04 Gerber Fmt 4.6, Leading zero omitted, Abs format (unit mm)*
G04 Created by KiCad (PCBNEW (6.0.1)) date 2022-05-20 20:33:31*
%MOMM*%
%LPD*%
G01*
G04 APERTURE LIST*
G04 Aperture macros list*
%AMRoundRect*
0 Rectangle with rounded corners*
0 $1 Rounding radius*
0 $2 $3 $4 $5 $6 $7 $8 $9 X,Y pos of 4 corners*
0 Add a 4 corners polygon primitive as box body*
4,1,4,$2,$3,$4,$5,$6,$7,$8,$9,$2,$3,0*
0 Add four circle primitives for the rounded corners*
1,1,$1+$1,$2,$3*
1,1,$1+$1,$4,$5*
1,1,$1+$1,$6,$7*
1,1,$1+$1,$8,$9*
0 Add four rect primitives between the rounded corners*
20,1,$1+$1,$2,$3,$4,$5,0*
20,1,$1+$1,$4,$5,$6,$7,0*
20,1,$1+$1,$6,$7,$8,$9,0*
20,1,$1+$1,$8,$9,$2,$3,0*%
G04 Aperture macros list end*
%ADD10R,1.700000X1.700000*%
%ADD11O,1.700000X1.700000*%
%ADD12C,0.600000*%
%ADD13O,1.700000X0.850000*%
%ADD14C,1.500000*%
%ADD15RoundRect,0.100000X-0.100000X0.637500X-0.100000X-0.637500X0.100000X-0.637500X0.100000X0.637500X0*%
%ADD16RoundRect,0.250000X-0.450000X0.262500X-0.450000X-0.262500X0.450000X-0.262500X0.450000X0.262500X0*%
%ADD17RoundRect,0.150000X0.825000X0.150000X-0.825000X0.150000X-0.825000X-0.150000X0.825000X-0.150000X0*%
%ADD18RoundRect,0.225000X0.250000X-0.225000X0.250000X0.225000X-0.250000X0.225000X-0.250000X-0.225000X0*%
%ADD19R,1.400000X1.200000*%
%ADD20RoundRect,0.225000X-0.250000X0.225000X-0.250000X-0.225000X0.250000X-0.225000X0.250000X0.225000X0*%
%ADD21RoundRect,0.200000X0.275000X-0.200000X0.275000X0.200000X-0.275000X0.200000X-0.275000X-0.200000X0*%
G04 APERTURE END LIST*
D10*
%TO.C,J3*%
X231060000Y-108240000D03*
D11*
X231060000Y-110780000D03*
X231060000Y-113320000D03*
X231060000Y-115860000D03*
X231060000Y-118400000D03*
%TD*%
D12*
%TO.C,J2*%
X232950000Y-126800000D03*
X232950000Y-122800000D03*
D13*
X230600000Y-121975000D03*
X230600000Y-127625000D03*
%TD*%
D10*
%TO.C,J5*%
X256850000Y-131000000D03*
D11*
X254310000Y-131000000D03*
%TD*%
D10*
%TO.C,J4*%
X231060000Y-131100000D03*
D11*
X233600000Y-131100000D03*
X236140000Y-131100000D03*
X238680000Y-131100000D03*
X241220000Y-131100000D03*
%TD*%
D10*
%TO.C,J7*%
X264080000Y-105700000D03*
D11*
X266620000Y-105700000D03*
X269160000Y-105700000D03*
X271700000Y-105700000D03*
X274240000Y-105700000D03*
X276780000Y-105700000D03*
%TD*%
D10*
%TO.C,J8*%
X264080000Y-131100000D03*
D11*
X266620000Y-131100000D03*
X269160000Y-131100000D03*
X271700000Y-131100000D03*
X274240000Y-131100000D03*
X276780000Y-131100000D03*
%TD*%
D10*
%TO.C,J10*%
X274240000Y-112050000D03*
D11*
X276780000Y-112050000D03*
X274240000Y-109510000D03*
X276780000Y-109510000D03*
%TD*%
D10*
%TO.C,J9*%
X274240000Y-119670000D03*
D11*
X276780000Y-119670000D03*
X274240000Y-117130000D03*
X276780000Y-117130000D03*
%TD*%
D10*
%TO.C,J6*%
X274240000Y-127290000D03*
D11*
X276780000Y-127290000D03*
X274240000Y-124750000D03*
X276780000Y-124750000D03*
%TD*%
D14*
%TO.C,FID3*%
X270500000Y-127400000D03*
%TD*%
%TO.C,FID6*%
X231400000Y-124800000D03*
%TD*%
%TO.C,FID7*%
X270500000Y-109400000D03*
%TD*%
%TO.C,FID8*%
X232800000Y-107300000D03*
%TD*%
D15*
%TO.C,U7*%
X243545000Y-108602024D03*
X244195000Y-108602024D03*
X244845000Y-108602024D03*
X245495000Y-108602024D03*
X246145000Y-108602024D03*
X246795000Y-108602024D03*
X247445000Y-108602024D03*
X248095000Y-108602024D03*
X248745000Y-108602024D03*
X249395000Y-108602024D03*
X249395000Y-114327024D03*
X248745000Y-114327024D03*
X248095000Y-114327024D03*
X247445000Y-114327024D03*
X246795000Y-114327024D03*
X246145000Y-114327024D03*
X245495000Y-114327024D03*
X244845000Y-114327024D03*
X244195000Y-114327024D03*
X243545000Y-114327024D03*
%TD*%
D16*
%TO.C,R23*%
X233400000Y-110487500D03*
X233400000Y-112312500D03*
%TD*%
D17*
%TO.C,U6*%
X240675000Y-109695000D03*
X240675000Y-110965000D03*
X240675000Y-112235000D03*
X240675000Y-113505000D03*
X235725000Y-113505000D03*
X235725000Y-112235000D03*
X235725000Y-110965000D03*
X235725000Y-109695000D03*
%TD*%
D18*
%TO.C,C29*%
X257900000Y-109975000D03*
X257900000Y-108425000D03*
%TD*%
D10*
%TO.C,J1*%
X231050000Y-105700000D03*
D11*
X233590000Y-105700000D03*
X236130000Y-105700000D03*
X238670000Y-105700000D03*
X241210000Y-105700000D03*
X243750000Y-105700000D03*
X246290000Y-105700000D03*
X248830000Y-105700000D03*
X251370000Y-105700000D03*
%TD*%
D19*
%TO.C,Y2*%
X259700000Y-108450000D03*
X261900000Y-108450000D03*
X261900000Y-110150000D03*
X259700000Y-110150000D03*
%TD*%
D20*
%TO.C,C28*%
X263700000Y-108425000D03*
X263700000Y-109975000D03*
%TD*%
D21*
%TO.C,R24*%
X251200000Y-114625000D03*
X251200000Y-112975000D03*
%TD*%
M02*
