%FSLAX45Y45*%
G04 Gerber Fmt 4.5, Leading zero omitted, Abs format (unit mm)*
G04 Created by KiCad (PCBNEW (6.0.1)) date 2022-05-20 20:33:34*
%MOMM*%
%LPD*%
G01*
G04 APERTURE LIST*
%TA.AperFunction,Profile*%
%ADD10C,0.050000*%
%TD*%
%ADD11C,0.200000*%
%ADD12C,0.030000*%
%ADD13C,0.050000*%
%ADD14C,0.100000*%
G04 APERTURE END LIST*
D10*
X22900000Y-10390000D02*
X27850000Y-10390000D01*
X27850000Y-10390000D02*
X27850000Y-13290000D01*
X22900000Y-13290000D02*
X22900000Y-10390000D01*
X27850000Y-13290000D02*
X22900000Y-13290000D01*
D11*
D12*
X23115000Y-12275000D02*
X23145000Y-12305000D01*
X23145000Y-12275000D02*
X23115000Y-12305000D01*
X23115000Y-12655000D02*
X23145000Y-12685000D01*
X23145000Y-12655000D02*
X23115000Y-12685000D01*
X23215000Y-12335000D02*
X23245000Y-12365000D01*
X23245000Y-12335000D02*
X23215000Y-12365000D01*
X23235000Y-12195000D02*
X23265000Y-12225000D01*
X23265000Y-12195000D02*
X23235000Y-12225000D01*
X23275000Y-11425000D02*
X23305000Y-11455000D01*
X23305000Y-11425000D02*
X23275000Y-11455000D01*
X23285000Y-11585000D02*
X23315000Y-11615000D01*
X23315000Y-11585000D02*
X23285000Y-11615000D01*
X23355000Y-12715000D02*
X23385000Y-12745000D01*
X23385000Y-12715000D02*
X23355000Y-12745000D01*
X23355000Y-12845000D02*
X23385000Y-12875000D01*
X23385000Y-12845000D02*
X23355000Y-12875000D01*
X23422000Y-12281000D02*
X23452000Y-12311000D01*
X23452000Y-12281000D02*
X23422000Y-12311000D01*
X23425000Y-12075000D02*
X23455000Y-12105000D01*
X23455000Y-12075000D02*
X23425000Y-12105000D01*
X23445000Y-12565000D02*
X23475000Y-12595000D01*
X23475000Y-12565000D02*
X23445000Y-12595000D01*
X23485000Y-12025000D02*
X23515000Y-12055000D01*
X23515000Y-12025000D02*
X23485000Y-12055000D01*
X23545000Y-10785000D02*
X23575000Y-10815000D01*
X23575000Y-10785000D02*
X23545000Y-10815000D01*
X23563000Y-11888000D02*
X23593000Y-11918000D01*
X23593000Y-11888000D02*
X23563000Y-11918000D01*
X23575000Y-11455000D02*
X23605000Y-11485000D01*
X23605000Y-11455000D02*
X23575000Y-11485000D01*
X23615000Y-12165000D02*
X23645000Y-12195000D01*
X23645000Y-12165000D02*
X23615000Y-12195000D01*
X23670000Y-10818000D02*
X23700000Y-10848000D01*
X23700000Y-10818000D02*
X23670000Y-10848000D01*
X23676000Y-11150000D02*
X23706000Y-11180000D01*
X23706000Y-11150000D02*
X23676000Y-11180000D01*
X23689000Y-11459000D02*
X23719000Y-11489000D01*
X23719000Y-11459000D02*
X23689000Y-11489000D01*
X23718000Y-12028000D02*
X23748000Y-12058000D01*
X23748000Y-12028000D02*
X23718000Y-12058000D01*
X23759000Y-12156000D02*
X23789000Y-12186000D01*
X23789000Y-12156000D02*
X23759000Y-12186000D01*
X23771000Y-11955000D02*
X23801000Y-11985000D01*
X23801000Y-11955000D02*
X23771000Y-11985000D01*
X23773000Y-12338000D02*
X23803000Y-12368000D01*
X23803000Y-12338000D02*
X23773000Y-12368000D01*
X23775000Y-12465000D02*
X23805000Y-12495000D01*
X23805000Y-12465000D02*
X23775000Y-12495000D01*
X23795267Y-11473000D02*
X23825267Y-11503000D01*
X23825267Y-11473000D02*
X23795267Y-11503000D01*
X23806000Y-12102000D02*
X23836000Y-12132000D01*
X23836000Y-12102000D02*
X23806000Y-12132000D01*
X23825000Y-11725000D02*
X23855000Y-11755000D01*
X23855000Y-11725000D02*
X23825000Y-11755000D01*
X23828000Y-12216000D02*
X23858000Y-12246000D01*
X23858000Y-12216000D02*
X23828000Y-12246000D01*
X23831000Y-11792000D02*
X23861000Y-11822000D01*
X23861000Y-11792000D02*
X23831000Y-11822000D01*
X23839000Y-11872000D02*
X23869000Y-11902000D01*
X23869000Y-11872000D02*
X23839000Y-11902000D01*
X23845000Y-10975000D02*
X23875000Y-11005000D01*
X23875000Y-10975000D02*
X23845000Y-11005000D01*
X23845000Y-11625000D02*
X23875000Y-11655000D01*
X23875000Y-11625000D02*
X23845000Y-11655000D01*
X23853000Y-11274000D02*
X23883000Y-11304000D01*
X23883000Y-11274000D02*
X23853000Y-11304000D01*
X23894000Y-10827000D02*
X23924000Y-10857000D01*
X23924000Y-10827000D02*
X23894000Y-10857000D01*
X23895000Y-12405000D02*
X23925000Y-12435000D01*
X23925000Y-12405000D02*
X23895000Y-12435000D01*
X23904000Y-11341000D02*
X23934000Y-11371000D01*
X23934000Y-11341000D02*
X23904000Y-11371000D01*
X23916000Y-12551000D02*
X23946000Y-12581000D01*
X23946000Y-12551000D02*
X23916000Y-12581000D01*
X23989000Y-12300000D02*
X24019000Y-12330000D01*
X24019000Y-12300000D02*
X23989000Y-12330000D01*
X23995000Y-13165000D02*
X24025000Y-13195000D01*
X24025000Y-13165000D02*
X23995000Y-13195000D01*
X23996523Y-10673986D02*
X24026523Y-10703986D01*
X24026523Y-10673986D02*
X23996523Y-10703986D01*
X24005000Y-11805000D02*
X24035000Y-11835000D01*
X24035000Y-11805000D02*
X24005000Y-11835000D01*
X24020000Y-12052000D02*
X24050000Y-12082000D01*
X24050000Y-12052000D02*
X24020000Y-12082000D01*
X24053000Y-11707000D02*
X24083000Y-11737000D01*
X24083000Y-11707000D02*
X24053000Y-11737000D01*
X24055000Y-11865000D02*
X24085000Y-11895000D01*
X24085000Y-11865000D02*
X24055000Y-11895000D01*
X24072000Y-12579000D02*
X24102000Y-12609000D01*
X24102000Y-12579000D02*
X24072000Y-12609000D01*
X24079162Y-12370907D02*
X24109162Y-12400907D01*
X24109162Y-12370907D02*
X24079162Y-12400907D01*
X24085000Y-12775000D02*
X24115000Y-12805000D01*
X24115000Y-12775000D02*
X24085000Y-12805000D01*
X24105846Y-12925846D02*
X24135846Y-12955846D01*
X24135846Y-12925846D02*
X24105846Y-12955846D01*
X24115000Y-11609000D02*
X24145000Y-11639000D01*
X24145000Y-11609000D02*
X24115000Y-11639000D01*
X24133000Y-12426000D02*
X24163000Y-12456000D01*
X24163000Y-12426000D02*
X24133000Y-12456000D01*
X24165000Y-11755000D02*
X24195000Y-11785000D01*
X24195000Y-11755000D02*
X24165000Y-11785000D01*
X24165000Y-11985000D02*
X24195000Y-12015000D01*
X24195000Y-11985000D02*
X24165000Y-12015000D01*
X24185000Y-11075000D02*
X24215000Y-11105000D01*
X24215000Y-11075000D02*
X24185000Y-11105000D01*
X24185000Y-12945000D02*
X24215000Y-12975000D01*
X24215000Y-12945000D02*
X24185000Y-12975000D01*
X24191000Y-12371000D02*
X24221000Y-12401000D01*
X24221000Y-12371000D02*
X24191000Y-12401000D01*
X24215000Y-11615000D02*
X24245000Y-11645000D01*
X24245000Y-11615000D02*
X24215000Y-11645000D01*
X24235000Y-10625000D02*
X24265000Y-10655000D01*
X24265000Y-10625000D02*
X24235000Y-10655000D01*
X24235000Y-11395000D02*
X24265000Y-11425000D01*
X24265000Y-11395000D02*
X24235000Y-11425000D01*
X24261000Y-12335000D02*
X24291000Y-12365000D01*
X24291000Y-12335000D02*
X24261000Y-12365000D01*
X24287000Y-11606000D02*
X24317000Y-11636000D01*
X24317000Y-11606000D02*
X24287000Y-11636000D01*
X24303500Y-12535000D02*
X24333500Y-12565000D01*
X24333500Y-12535000D02*
X24303500Y-12565000D01*
X24303500Y-13155000D02*
X24333500Y-13185000D01*
X24333500Y-13155000D02*
X24303500Y-13185000D01*
X24309000Y-12633000D02*
X24339000Y-12663000D01*
X24339000Y-12633000D02*
X24309000Y-12663000D01*
X24342000Y-12343000D02*
X24372000Y-12373000D01*
X24372000Y-12343000D02*
X24342000Y-12373000D01*
X24345000Y-11985000D02*
X24375000Y-12015000D01*
X24375000Y-11985000D02*
X24345000Y-12015000D01*
X24355000Y-11755000D02*
X24385000Y-11785000D01*
X24385000Y-11755000D02*
X24355000Y-11785000D01*
X24365000Y-11294000D02*
X24395000Y-11324000D01*
X24395000Y-11294000D02*
X24365000Y-11324000D01*
X24388000Y-11619000D02*
X24418000Y-11649000D01*
X24418000Y-11619000D02*
X24388000Y-11649000D01*
X24395000Y-12955000D02*
X24425000Y-12985000D01*
X24425000Y-12955000D02*
X24395000Y-12985000D01*
X24415000Y-12695000D02*
X24445000Y-12725000D01*
X24445000Y-12695000D02*
X24415000Y-12725000D01*
X24418000Y-12101000D02*
X24448000Y-12131000D01*
X24448000Y-12101000D02*
X24418000Y-12131000D01*
X24460000Y-11637000D02*
X24490000Y-11667000D01*
X24490000Y-11637000D02*
X24460000Y-11667000D01*
X24466000Y-12396000D02*
X24496000Y-12426000D01*
X24496000Y-12396000D02*
X24466000Y-12426000D01*
X24507000Y-11741000D02*
X24537000Y-11771000D01*
X24537000Y-11741000D02*
X24507000Y-11771000D01*
X24518000Y-11299000D02*
X24548000Y-11329000D01*
X24548000Y-11299000D02*
X24518000Y-11329000D01*
X24519000Y-11880000D02*
X24549000Y-11910000D01*
X24549000Y-11880000D02*
X24519000Y-11910000D01*
X24520000Y-11960000D02*
X24550000Y-11990000D01*
X24550000Y-11960000D02*
X24520000Y-11990000D01*
X24520418Y-10967671D02*
X24550418Y-10997671D01*
X24550418Y-10967671D02*
X24520418Y-10997671D01*
X24529000Y-11636000D02*
X24559000Y-11666000D01*
X24559000Y-11636000D02*
X24529000Y-11666000D01*
X24573000Y-11245000D02*
X24603000Y-11275000D01*
X24603000Y-11245000D02*
X24573000Y-11275000D01*
X24612500Y-12240000D02*
X24642500Y-12270000D01*
X24642500Y-12240000D02*
X24612500Y-12270000D01*
X24615000Y-12545000D02*
X24645000Y-12575000D01*
X24645000Y-12545000D02*
X24615000Y-12575000D01*
X24635000Y-11008000D02*
X24665000Y-11038000D01*
X24665000Y-11008000D02*
X24635000Y-11038000D01*
X24663000Y-11278000D02*
X24693000Y-11308000D01*
X24693000Y-11278000D02*
X24663000Y-11308000D01*
X24686000Y-11847000D02*
X24716000Y-11877000D01*
X24716000Y-11847000D02*
X24686000Y-11877000D01*
X24693921Y-12042611D02*
X24723921Y-12072611D01*
X24723921Y-12042611D02*
X24693921Y-12072611D01*
X24695000Y-13065000D02*
X24725000Y-13095000D01*
X24725000Y-13065000D02*
X24695000Y-13095000D01*
X24695781Y-11598337D02*
X24725781Y-11628337D01*
X24725781Y-11598337D02*
X24695781Y-11628337D01*
X24701850Y-11761850D02*
X24731850Y-11791850D01*
X24731850Y-11761850D02*
X24701850Y-11791850D01*
X24705000Y-11215000D02*
X24735000Y-11245000D01*
X24735000Y-11215000D02*
X24705000Y-11245000D01*
X24714465Y-11524465D02*
X24744465Y-11554465D01*
X24744465Y-11524465D02*
X24714465Y-11554465D01*
X24754000Y-11808000D02*
X24784000Y-11838000D01*
X24784000Y-11808000D02*
X24754000Y-11838000D01*
X24781000Y-11600000D02*
X24811000Y-11630000D01*
X24811000Y-11600000D02*
X24781000Y-11630000D01*
X24795000Y-11225000D02*
X24825000Y-11255000D01*
X24825000Y-11225000D02*
X24795000Y-11255000D01*
X24795000Y-13165000D02*
X24825000Y-13195000D01*
X24825000Y-13165000D02*
X24795000Y-13195000D01*
X24807000Y-11763000D02*
X24837000Y-11793000D01*
X24837000Y-11763000D02*
X24807000Y-11793000D01*
X24835000Y-12485000D02*
X24865000Y-12515000D01*
X24865000Y-12485000D02*
X24835000Y-12515000D01*
X24847000Y-11058000D02*
X24877000Y-11088000D01*
X24877000Y-11058000D02*
X24847000Y-11088000D01*
X24885000Y-11125000D02*
X24915000Y-11155000D01*
X24915000Y-11125000D02*
X24885000Y-11155000D01*
X24895000Y-12165000D02*
X24925000Y-12195000D01*
X24925000Y-12165000D02*
X24895000Y-12195000D01*
X24895000Y-12295000D02*
X24925000Y-12325000D01*
X24925000Y-12295000D02*
X24895000Y-12325000D01*
X24945000Y-13105000D02*
X24975000Y-13135000D01*
X24975000Y-13105000D02*
X24945000Y-13135000D01*
X24955000Y-10705000D02*
X24985000Y-10735000D01*
X24985000Y-10705000D02*
X24955000Y-10735000D01*
X24959142Y-12225000D02*
X24989142Y-12255000D01*
X24989142Y-12225000D02*
X24959142Y-12255000D01*
X24965000Y-12715000D02*
X24995000Y-12745000D01*
X24995000Y-12715000D02*
X24965000Y-12745000D01*
X25015000Y-12295000D02*
X25045000Y-12325000D01*
X25045000Y-12295000D02*
X25015000Y-12325000D01*
X25025000Y-12155000D02*
X25055000Y-12185000D01*
X25055000Y-12155000D02*
X25025000Y-12185000D01*
X25055000Y-10805000D02*
X25085000Y-10835000D01*
X25085000Y-10805000D02*
X25055000Y-10835000D01*
X25090000Y-12465000D02*
X25120000Y-12495000D01*
X25120000Y-12465000D02*
X25090000Y-12495000D01*
X25095000Y-11565000D02*
X25125000Y-11595000D01*
X25125000Y-11565000D02*
X25095000Y-11595000D01*
X25105000Y-13013500D02*
X25135000Y-13043500D01*
X25135000Y-13013500D02*
X25105000Y-13043500D01*
X25105000Y-13155000D02*
X25135000Y-13185000D01*
X25135000Y-13155000D02*
X25105000Y-13185000D01*
X25125000Y-12735000D02*
X25155000Y-12765000D01*
X25155000Y-12735000D02*
X25125000Y-12765000D01*
X25142518Y-12013127D02*
X25172518Y-12043127D01*
X25172518Y-12013127D02*
X25142518Y-12043127D01*
X25207000Y-11765000D02*
X25237000Y-11795000D01*
X25237000Y-11765000D02*
X25207000Y-11795000D01*
X25235000Y-11645000D02*
X25265000Y-11675000D01*
X25265000Y-11645000D02*
X25235000Y-11675000D01*
X25265000Y-11205000D02*
X25295000Y-11235000D01*
X25295000Y-11205000D02*
X25265000Y-11235000D01*
X25265000Y-11325000D02*
X25295000Y-11355000D01*
X25295000Y-11325000D02*
X25265000Y-11355000D01*
X25274000Y-11911000D02*
X25304000Y-11941000D01*
X25304000Y-11911000D02*
X25274000Y-11941000D01*
X25301285Y-10725214D02*
X25331285Y-10755214D01*
X25331285Y-10725214D02*
X25301285Y-10755214D01*
X25305000Y-10925000D02*
X25335000Y-10955000D01*
X25335000Y-10925000D02*
X25305000Y-10955000D01*
X25305000Y-11045000D02*
X25335000Y-11075000D01*
X25335000Y-11045000D02*
X25305000Y-11075000D01*
X25305000Y-11145000D02*
X25335000Y-11175000D01*
X25335000Y-11145000D02*
X25305000Y-11175000D01*
X25305000Y-11265000D02*
X25335000Y-11295000D01*
X25335000Y-11265000D02*
X25305000Y-11295000D01*
X25345000Y-10665000D02*
X25375000Y-10695000D01*
X25375000Y-10665000D02*
X25345000Y-10695000D01*
X25345000Y-10985000D02*
X25375000Y-11015000D01*
X25375000Y-10985000D02*
X25345000Y-11015000D01*
X25345000Y-11205000D02*
X25375000Y-11235000D01*
X25375000Y-11205000D02*
X25345000Y-11235000D01*
X25345000Y-11325000D02*
X25375000Y-11355000D01*
X25375000Y-11325000D02*
X25345000Y-11355000D01*
X25384787Y-11044559D02*
X25414787Y-11074559D01*
X25414787Y-11044559D02*
X25384787Y-11074559D01*
X25385000Y-10605000D02*
X25415000Y-10635000D01*
X25415000Y-10605000D02*
X25385000Y-10635000D01*
X25385000Y-10725000D02*
X25415000Y-10755000D01*
X25415000Y-10725000D02*
X25385000Y-10755000D01*
X25385000Y-10925000D02*
X25415000Y-10955000D01*
X25415000Y-10925000D02*
X25385000Y-10955000D01*
X25385000Y-11145000D02*
X25415000Y-11175000D01*
X25415000Y-11145000D02*
X25385000Y-11175000D01*
X25385000Y-11265000D02*
X25415000Y-11295000D01*
X25415000Y-11265000D02*
X25385000Y-11295000D01*
X25425000Y-10545000D02*
X25455000Y-10575000D01*
X25455000Y-10545000D02*
X25425000Y-10575000D01*
X25425000Y-10665000D02*
X25455000Y-10695000D01*
X25455000Y-10665000D02*
X25425000Y-10695000D01*
X25425000Y-10985000D02*
X25455000Y-11015000D01*
X25455000Y-10985000D02*
X25425000Y-11015000D01*
X25425000Y-11205000D02*
X25455000Y-11235000D01*
X25455000Y-11205000D02*
X25425000Y-11235000D01*
X25425000Y-11325000D02*
X25455000Y-11355000D01*
X25455000Y-11325000D02*
X25425000Y-11355000D01*
X25455000Y-12715000D02*
X25485000Y-12745000D01*
X25485000Y-12715000D02*
X25455000Y-12745000D01*
X25465000Y-10605000D02*
X25495000Y-10635000D01*
X25495000Y-10605000D02*
X25465000Y-10635000D01*
X25465000Y-10725000D02*
X25495000Y-10755000D01*
X25495000Y-10725000D02*
X25465000Y-10755000D01*
X25465000Y-10925000D02*
X25495000Y-10955000D01*
X25495000Y-10925000D02*
X25465000Y-10955000D01*
X25465000Y-11045000D02*
X25495000Y-11075000D01*
X25495000Y-11045000D02*
X25465000Y-11075000D01*
X25465000Y-11145000D02*
X25495000Y-11175000D01*
X25495000Y-11145000D02*
X25465000Y-11175000D01*
X25465000Y-11265000D02*
X25495000Y-11295000D01*
X25495000Y-11265000D02*
X25465000Y-11295000D01*
X25504621Y-10984642D02*
X25534621Y-11014642D01*
X25534621Y-10984642D02*
X25504621Y-11014642D01*
X25505000Y-10545000D02*
X25535000Y-10575000D01*
X25535000Y-10545000D02*
X25505000Y-10575000D01*
X25505000Y-10665000D02*
X25535000Y-10695000D01*
X25535000Y-10665000D02*
X25505000Y-10695000D01*
X25505000Y-11205000D02*
X25535000Y-11235000D01*
X25535000Y-11205000D02*
X25505000Y-11235000D01*
X25505000Y-11325000D02*
X25535000Y-11355000D01*
X25535000Y-11325000D02*
X25505000Y-11355000D01*
X25544778Y-10604742D02*
X25574778Y-10634742D01*
X25574778Y-10604742D02*
X25544778Y-10634742D01*
X25545000Y-10725000D02*
X25575000Y-10755000D01*
X25575000Y-10725000D02*
X25545000Y-10755000D01*
X25545000Y-10925000D02*
X25575000Y-10955000D01*
X25575000Y-10925000D02*
X25545000Y-10955000D01*
X25545000Y-11045000D02*
X25575000Y-11075000D01*
X25575000Y-11045000D02*
X25545000Y-11075000D01*
X25545000Y-11145000D02*
X25575000Y-11175000D01*
X25575000Y-11145000D02*
X25545000Y-11175000D01*
X25545000Y-11265000D02*
X25575000Y-11295000D01*
X25575000Y-11265000D02*
X25545000Y-11295000D01*
X25575000Y-11805000D02*
X25605000Y-11835000D01*
X25605000Y-11805000D02*
X25575000Y-11835000D01*
X25585000Y-10665000D02*
X25615000Y-10695000D01*
X25615000Y-10665000D02*
X25585000Y-10695000D01*
X25585000Y-10985000D02*
X25615000Y-11015000D01*
X25615000Y-10985000D02*
X25585000Y-11015000D01*
X25585000Y-11205000D02*
X25615000Y-11235000D01*
X25615000Y-11205000D02*
X25585000Y-11235000D01*
X25585000Y-11325000D02*
X25615000Y-11355000D01*
X25615000Y-11325000D02*
X25585000Y-11355000D01*
X25585000Y-11675000D02*
X25615000Y-11705000D01*
X25615000Y-11675000D02*
X25585000Y-11705000D01*
X25585000Y-11955000D02*
X25615000Y-11985000D01*
X25615000Y-11955000D02*
X25585000Y-11985000D01*
X25585000Y-12295000D02*
X25615000Y-12325000D01*
X25615000Y-12295000D02*
X25585000Y-12325000D01*
X25595000Y-10495000D02*
X25625000Y-10525000D01*
X25625000Y-10495000D02*
X25595000Y-10525000D01*
X25625000Y-10725000D02*
X25655000Y-10755000D01*
X25655000Y-10725000D02*
X25625000Y-10755000D01*
X25625000Y-10925000D02*
X25655000Y-10955000D01*
X25655000Y-10925000D02*
X25625000Y-10955000D01*
X25625000Y-11045000D02*
X25655000Y-11075000D01*
X25655000Y-11045000D02*
X25625000Y-11075000D01*
X25625000Y-11145000D02*
X25655000Y-11175000D01*
X25655000Y-11145000D02*
X25625000Y-11175000D01*
X25625000Y-11265000D02*
X25655000Y-11295000D01*
X25655000Y-11265000D02*
X25625000Y-11295000D01*
X25625000Y-12625000D02*
X25655000Y-12655000D01*
X25655000Y-12625000D02*
X25625000Y-12655000D01*
X25625000Y-12785000D02*
X25655000Y-12815000D01*
X25655000Y-12785000D02*
X25625000Y-12815000D01*
X25635000Y-12465000D02*
X25665000Y-12495000D01*
X25665000Y-12465000D02*
X25635000Y-12495000D01*
X25745000Y-11285000D02*
X25775000Y-11315000D01*
X25775000Y-11285000D02*
X25745000Y-11315000D01*
X25745000Y-11405000D02*
X25775000Y-11435000D01*
X25775000Y-11405000D02*
X25745000Y-11435000D01*
X25745000Y-12005000D02*
X25775000Y-12035000D01*
X25775000Y-12005000D02*
X25745000Y-12035000D01*
X25745000Y-12125000D02*
X25775000Y-12155000D01*
X25775000Y-12125000D02*
X25745000Y-12155000D01*
X25745000Y-12725000D02*
X25775000Y-12755000D01*
X25775000Y-12725000D02*
X25745000Y-12755000D01*
X25745000Y-12845000D02*
X25775000Y-12875000D01*
X25775000Y-12845000D02*
X25745000Y-12875000D01*
X25785000Y-11345000D02*
X25815000Y-11375000D01*
X25815000Y-11345000D02*
X25785000Y-11375000D01*
X25785000Y-12065000D02*
X25815000Y-12095000D01*
X25815000Y-12065000D02*
X25785000Y-12095000D01*
X25785000Y-12785000D02*
X25815000Y-12815000D01*
X25815000Y-12785000D02*
X25785000Y-12815000D01*
X25825000Y-11285000D02*
X25855000Y-11315000D01*
X25855000Y-11285000D02*
X25825000Y-11315000D01*
X25825000Y-11405000D02*
X25855000Y-11435000D01*
X25855000Y-11405000D02*
X25825000Y-11435000D01*
X25825000Y-12005000D02*
X25855000Y-12035000D01*
X25855000Y-12005000D02*
X25825000Y-12035000D01*
X25825000Y-12125000D02*
X25855000Y-12155000D01*
X25855000Y-12125000D02*
X25825000Y-12155000D01*
X25825000Y-12725000D02*
X25855000Y-12755000D01*
X25855000Y-12725000D02*
X25825000Y-12755000D01*
X25825000Y-12845000D02*
X25855000Y-12875000D01*
X25855000Y-12845000D02*
X25825000Y-12875000D01*
X25865000Y-11345000D02*
X25895000Y-11375000D01*
X25895000Y-11345000D02*
X25865000Y-11375000D01*
X25865000Y-12065000D02*
X25895000Y-12095000D01*
X25895000Y-12065000D02*
X25865000Y-12095000D01*
X25865000Y-12785000D02*
X25895000Y-12815000D01*
X25895000Y-12785000D02*
X25865000Y-12815000D01*
X25905000Y-11285000D02*
X25935000Y-11315000D01*
X25935000Y-11285000D02*
X25905000Y-11315000D01*
X25905000Y-11405000D02*
X25935000Y-11435000D01*
X25935000Y-11405000D02*
X25905000Y-11435000D01*
X25905000Y-12005000D02*
X25935000Y-12035000D01*
X25935000Y-12005000D02*
X25905000Y-12035000D01*
X25905000Y-12125000D02*
X25935000Y-12155000D01*
X25935000Y-12125000D02*
X25905000Y-12155000D01*
X25905000Y-12725000D02*
X25935000Y-12755000D01*
X25935000Y-12725000D02*
X25905000Y-12755000D01*
X25905000Y-12845000D02*
X25935000Y-12875000D01*
X25935000Y-12845000D02*
X25905000Y-12875000D01*
X25945000Y-11345000D02*
X25975000Y-11375000D01*
X25975000Y-11345000D02*
X25945000Y-11375000D01*
X25945000Y-12065000D02*
X25975000Y-12095000D01*
X25975000Y-12065000D02*
X25945000Y-12095000D01*
X25945000Y-12785000D02*
X25975000Y-12815000D01*
X25975000Y-12785000D02*
X25945000Y-12815000D01*
X25985000Y-11405000D02*
X26015000Y-11435000D01*
X26015000Y-11405000D02*
X25985000Y-11435000D01*
X25985000Y-12125000D02*
X26015000Y-12155000D01*
X26015000Y-12125000D02*
X25985000Y-12155000D01*
X25985000Y-12845000D02*
X26015000Y-12875000D01*
X26015000Y-12845000D02*
X25985000Y-12875000D01*
X26025000Y-11345000D02*
X26055000Y-11375000D01*
X26055000Y-11345000D02*
X26025000Y-11375000D01*
X26025000Y-12065000D02*
X26055000Y-12095000D01*
X26055000Y-12065000D02*
X26025000Y-12095000D01*
X26025000Y-12785000D02*
X26055000Y-12815000D01*
X26055000Y-12785000D02*
X26025000Y-12815000D01*
X26065000Y-11405000D02*
X26095000Y-11435000D01*
X26095000Y-11405000D02*
X26065000Y-11435000D01*
X26065000Y-12125000D02*
X26095000Y-12155000D01*
X26095000Y-12125000D02*
X26065000Y-12155000D01*
X26065000Y-12845000D02*
X26095000Y-12875000D01*
X26095000Y-12845000D02*
X26065000Y-12875000D01*
X26085000Y-10575000D02*
X26115000Y-10605000D01*
X26115000Y-10575000D02*
X26085000Y-10605000D01*
X26105000Y-11345000D02*
X26135000Y-11375000D01*
X26135000Y-11345000D02*
X26105000Y-11375000D01*
X26105000Y-12065000D02*
X26135000Y-12095000D01*
X26135000Y-12065000D02*
X26105000Y-12095000D01*
X26105000Y-12785000D02*
X26135000Y-12815000D01*
X26135000Y-12785000D02*
X26105000Y-12815000D01*
X26245000Y-11405000D02*
X26275000Y-11435000D01*
X26275000Y-11405000D02*
X26245000Y-11435000D01*
X26245000Y-12125000D02*
X26275000Y-12155000D01*
X26275000Y-12125000D02*
X26245000Y-12155000D01*
X26245000Y-12845000D02*
X26275000Y-12875000D01*
X26275000Y-12845000D02*
X26245000Y-12875000D01*
X26285000Y-11345000D02*
X26315000Y-11375000D01*
X26315000Y-11345000D02*
X26285000Y-11375000D01*
X26285000Y-12065000D02*
X26315000Y-12095000D01*
X26315000Y-12065000D02*
X26285000Y-12095000D01*
X26285000Y-12785000D02*
X26315000Y-12815000D01*
X26315000Y-12785000D02*
X26285000Y-12815000D01*
X26325000Y-11405000D02*
X26355000Y-11435000D01*
X26355000Y-11405000D02*
X26325000Y-11435000D01*
X26325000Y-12125000D02*
X26355000Y-12155000D01*
X26355000Y-12125000D02*
X26325000Y-12155000D01*
X26325000Y-12845000D02*
X26355000Y-12875000D01*
X26355000Y-12845000D02*
X26325000Y-12875000D01*
X26365000Y-11345000D02*
X26395000Y-11375000D01*
X26395000Y-11345000D02*
X26365000Y-11375000D01*
X26365000Y-12065000D02*
X26395000Y-12095000D01*
X26395000Y-12065000D02*
X26365000Y-12095000D01*
X26365000Y-12785000D02*
X26395000Y-12815000D01*
X26395000Y-12785000D02*
X26365000Y-12815000D01*
X26405000Y-11405000D02*
X26435000Y-11435000D01*
X26435000Y-11405000D02*
X26405000Y-11435000D01*
X26405000Y-12125000D02*
X26435000Y-12155000D01*
X26435000Y-12125000D02*
X26405000Y-12155000D01*
X26405000Y-12845000D02*
X26435000Y-12875000D01*
X26435000Y-12845000D02*
X26405000Y-12875000D01*
X26445000Y-11345000D02*
X26475000Y-11375000D01*
X26475000Y-11345000D02*
X26445000Y-11375000D01*
X26445000Y-12065000D02*
X26475000Y-12095000D01*
X26475000Y-12065000D02*
X26445000Y-12095000D01*
X26445000Y-12785000D02*
X26475000Y-12815000D01*
X26475000Y-12785000D02*
X26445000Y-12815000D01*
X26485000Y-11405000D02*
X26515000Y-11435000D01*
X26515000Y-11405000D02*
X26485000Y-11435000D01*
X26485000Y-12125000D02*
X26515000Y-12155000D01*
X26515000Y-12125000D02*
X26485000Y-12155000D01*
X26485000Y-12845000D02*
X26515000Y-12875000D01*
X26515000Y-12845000D02*
X26485000Y-12875000D01*
X26505000Y-11582801D02*
X26535000Y-11612801D01*
X26535000Y-11582801D02*
X26505000Y-11612801D01*
X26505000Y-11975000D02*
X26535000Y-12005000D01*
X26535000Y-11975000D02*
X26505000Y-12005000D01*
X26515000Y-12245000D02*
X26545000Y-12275000D01*
X26545000Y-12245000D02*
X26515000Y-12275000D01*
X26525000Y-11345000D02*
X26555000Y-11375000D01*
X26555000Y-11345000D02*
X26525000Y-11375000D01*
X26525000Y-12065000D02*
X26555000Y-12095000D01*
X26555000Y-12065000D02*
X26525000Y-12095000D01*
X26525000Y-12785000D02*
X26555000Y-12815000D01*
X26555000Y-12785000D02*
X26525000Y-12815000D01*
X26565000Y-11405000D02*
X26595000Y-11435000D01*
X26595000Y-11405000D02*
X26565000Y-11435000D01*
X26565000Y-12125000D02*
X26595000Y-12155000D01*
X26595000Y-12125000D02*
X26565000Y-12155000D01*
X26565000Y-12845000D02*
X26595000Y-12875000D01*
X26595000Y-12845000D02*
X26565000Y-12875000D01*
X26605000Y-10725000D02*
X26635000Y-10755000D01*
X26635000Y-10725000D02*
X26605000Y-10755000D01*
X26605000Y-11345000D02*
X26635000Y-11375000D01*
X26635000Y-11345000D02*
X26605000Y-11375000D01*
X26605000Y-12065000D02*
X26635000Y-12095000D01*
X26635000Y-12065000D02*
X26605000Y-12095000D01*
X26605000Y-12785000D02*
X26635000Y-12815000D01*
X26635000Y-12785000D02*
X26605000Y-12815000D01*
X27265000Y-12945000D02*
X27295000Y-12975000D01*
X27295000Y-12945000D02*
X27265000Y-12975000D01*
X27325000Y-11445000D02*
X27355000Y-11475000D01*
X27355000Y-11445000D02*
X27325000Y-11475000D01*
X27385000Y-12185000D02*
X27415000Y-12215000D01*
X27415000Y-12185000D02*
X27385000Y-12215000D01*
D13*
X23085000Y-12197500D02*
G75*
G03*
X23085000Y-12197500I-25000J0D01*
G01*
D11*
X23095000Y-12182500D02*
X23025000Y-12182500D01*
X23095000Y-12212500D02*
X23025000Y-12212500D01*
X23025000Y-12182500D02*
G75*
G03*
X23025000Y-12212500I0J-15000D01*
G01*
X23095000Y-12212500D02*
G75*
G03*
X23095000Y-12182500I0J15000D01*
G01*
D13*
X23085000Y-12762500D02*
G75*
G03*
X23085000Y-12762500I-25000J0D01*
G01*
D11*
X23095000Y-12747500D02*
X23025000Y-12747500D01*
X23095000Y-12777500D02*
X23025000Y-12777500D01*
X23025000Y-12747500D02*
G75*
G03*
X23025000Y-12777500I0J-15000D01*
G01*
X23095000Y-12777500D02*
G75*
G03*
X23095000Y-12747500I0J15000D01*
G01*
D14*
X23105000Y-10520000D02*
X23105000Y-10620000D01*
X23055000Y-10570000D02*
X23155000Y-10570000D01*
X23106000Y-10774000D02*
X23106000Y-10874000D01*
X23056000Y-10824000D02*
X23156000Y-10824000D01*
X23106000Y-11028000D02*
X23106000Y-11128000D01*
X23056000Y-11078000D02*
X23156000Y-11078000D01*
X23106000Y-11282000D02*
X23106000Y-11382000D01*
X23056000Y-11332000D02*
X23156000Y-11332000D01*
X23106000Y-11536000D02*
X23106000Y-11636000D01*
X23056000Y-11586000D02*
X23156000Y-11586000D01*
X23106000Y-11790000D02*
X23106000Y-11890000D01*
X23056000Y-11840000D02*
X23156000Y-11840000D01*
X23106000Y-13060000D02*
X23106000Y-13160000D01*
X23056000Y-13110000D02*
X23156000Y-13110000D01*
X23359000Y-10520000D02*
X23359000Y-10620000D01*
X23309000Y-10570000D02*
X23409000Y-10570000D01*
X23360000Y-13060000D02*
X23360000Y-13160000D01*
X23310000Y-13110000D02*
X23410000Y-13110000D01*
X23613000Y-10520000D02*
X23613000Y-10620000D01*
X23563000Y-10570000D02*
X23663000Y-10570000D01*
X23614000Y-13060000D02*
X23614000Y-13160000D01*
X23564000Y-13110000D02*
X23664000Y-13110000D01*
X23867000Y-10520000D02*
X23867000Y-10620000D01*
X23817000Y-10570000D02*
X23917000Y-10570000D01*
X23868000Y-13060000D02*
X23868000Y-13160000D01*
X23818000Y-13110000D02*
X23918000Y-13110000D01*
X24121000Y-10520000D02*
X24121000Y-10620000D01*
X24071000Y-10570000D02*
X24171000Y-10570000D01*
X24122000Y-13060000D02*
X24122000Y-13160000D01*
X24072000Y-13110000D02*
X24172000Y-13110000D01*
X24375000Y-10520000D02*
X24375000Y-10620000D01*
X24325000Y-10570000D02*
X24425000Y-10570000D01*
X24629000Y-10520000D02*
X24629000Y-10620000D01*
X24579000Y-10570000D02*
X24679000Y-10570000D01*
X24883000Y-10520000D02*
X24883000Y-10620000D01*
X24833000Y-10570000D02*
X24933000Y-10570000D01*
X25137000Y-10520000D02*
X25137000Y-10620000D01*
X25087000Y-10570000D02*
X25187000Y-10570000D01*
X25431000Y-13050000D02*
X25431000Y-13150000D01*
X25381000Y-13100000D02*
X25481000Y-13100000D01*
X25685000Y-13050000D02*
X25685000Y-13150000D01*
X25635000Y-13100000D02*
X25735000Y-13100000D01*
X26408000Y-10520000D02*
X26408000Y-10620000D01*
X26358000Y-10570000D02*
X26458000Y-10570000D01*
X26408000Y-13060000D02*
X26408000Y-13160000D01*
X26358000Y-13110000D02*
X26458000Y-13110000D01*
X26662000Y-10520000D02*
X26662000Y-10620000D01*
X26612000Y-10570000D02*
X26712000Y-10570000D01*
X26662000Y-13060000D02*
X26662000Y-13160000D01*
X26612000Y-13110000D02*
X26712000Y-13110000D01*
X26916000Y-10520000D02*
X26916000Y-10620000D01*
X26866000Y-10570000D02*
X26966000Y-10570000D01*
X26916000Y-13060000D02*
X26916000Y-13160000D01*
X26866000Y-13110000D02*
X26966000Y-13110000D01*
X27170000Y-10520000D02*
X27170000Y-10620000D01*
X27120000Y-10570000D02*
X27220000Y-10570000D01*
X27170000Y-13060000D02*
X27170000Y-13160000D01*
X27120000Y-13110000D02*
X27220000Y-13110000D01*
X27424000Y-10520000D02*
X27424000Y-10620000D01*
X27374000Y-10570000D02*
X27474000Y-10570000D01*
X27424000Y-10901000D02*
X27424000Y-11001000D01*
X27374000Y-10951000D02*
X27474000Y-10951000D01*
X27424000Y-11155000D02*
X27424000Y-11255000D01*
X27374000Y-11205000D02*
X27474000Y-11205000D01*
X27424000Y-11663000D02*
X27424000Y-11763000D01*
X27374000Y-11713000D02*
X27474000Y-11713000D01*
X27424000Y-11917000D02*
X27424000Y-12017000D01*
X27374000Y-11967000D02*
X27474000Y-11967000D01*
X27424000Y-12425000D02*
X27424000Y-12525000D01*
X27374000Y-12475000D02*
X27474000Y-12475000D01*
X27424000Y-12679000D02*
X27424000Y-12779000D01*
X27374000Y-12729000D02*
X27474000Y-12729000D01*
X27424000Y-13060000D02*
X27424000Y-13160000D01*
X27374000Y-13110000D02*
X27474000Y-13110000D01*
X27678000Y-10520000D02*
X27678000Y-10620000D01*
X27628000Y-10570000D02*
X27728000Y-10570000D01*
X27678000Y-10901000D02*
X27678000Y-11001000D01*
X27628000Y-10951000D02*
X27728000Y-10951000D01*
X27678000Y-11155000D02*
X27678000Y-11255000D01*
X27628000Y-11205000D02*
X27728000Y-11205000D01*
X27678000Y-11663000D02*
X27678000Y-11763000D01*
X27628000Y-11713000D02*
X27728000Y-11713000D01*
X27678000Y-11917000D02*
X27678000Y-12017000D01*
X27628000Y-11967000D02*
X27728000Y-11967000D01*
X27678000Y-12425000D02*
X27678000Y-12525000D01*
X27628000Y-12475000D02*
X27728000Y-12475000D01*
X27678000Y-12679000D02*
X27678000Y-12779000D01*
X27628000Y-12729000D02*
X27728000Y-12729000D01*
X27678000Y-13060000D02*
X27678000Y-13160000D01*
X27628000Y-13110000D02*
X27728000Y-13110000D01*
D11*
X23155119Y-13602976D02*
X23155119Y-13402976D01*
X23202738Y-13402976D01*
X23231309Y-13412500D01*
X23250357Y-13431548D01*
X23259881Y-13450595D01*
X23269405Y-13488690D01*
X23269405Y-13517262D01*
X23259881Y-13555357D01*
X23250357Y-13574405D01*
X23231309Y-13593452D01*
X23202738Y-13602976D01*
X23155119Y-13602976D01*
X23355119Y-13602976D02*
X23355119Y-13469643D01*
X23355119Y-13507738D02*
X23364643Y-13488690D01*
X23374167Y-13479167D01*
X23393214Y-13469643D01*
X23412262Y-13469643D01*
X23478928Y-13602976D02*
X23478928Y-13469643D01*
X23478928Y-13402976D02*
X23469405Y-13412500D01*
X23478928Y-13422024D01*
X23488452Y-13412500D01*
X23478928Y-13402976D01*
X23478928Y-13422024D01*
X23602738Y-13602976D02*
X23583690Y-13593452D01*
X23574167Y-13574405D01*
X23574167Y-13402976D01*
X23707500Y-13602976D02*
X23688452Y-13593452D01*
X23678928Y-13574405D01*
X23678928Y-13402976D01*
X23936071Y-13602976D02*
X23936071Y-13402976D01*
X24002738Y-13545833D01*
X24069405Y-13402976D01*
X24069405Y-13602976D01*
X24250357Y-13602976D02*
X24250357Y-13498214D01*
X24240833Y-13479167D01*
X24221786Y-13469643D01*
X24183690Y-13469643D01*
X24164643Y-13479167D01*
X24250357Y-13593452D02*
X24231309Y-13602976D01*
X24183690Y-13602976D01*
X24164643Y-13593452D01*
X24155119Y-13574405D01*
X24155119Y-13555357D01*
X24164643Y-13536309D01*
X24183690Y-13526786D01*
X24231309Y-13526786D01*
X24250357Y-13517262D01*
X24345595Y-13469643D02*
X24345595Y-13669643D01*
X24345595Y-13479167D02*
X24364643Y-13469643D01*
X24402738Y-13469643D01*
X24421786Y-13479167D01*
X24431309Y-13488690D01*
X24440833Y-13507738D01*
X24440833Y-13564881D01*
X24431309Y-13583928D01*
X24421786Y-13593452D01*
X24402738Y-13602976D01*
X24364643Y-13602976D01*
X24345595Y-13593452D01*
X24526548Y-13583928D02*
X24536071Y-13593452D01*
X24526548Y-13602976D01*
X24517024Y-13593452D01*
X24526548Y-13583928D01*
X24526548Y-13602976D01*
X24526548Y-13479167D02*
X24536071Y-13488690D01*
X24526548Y-13498214D01*
X24517024Y-13488690D01*
X24526548Y-13479167D01*
X24526548Y-13498214D01*
D12*
X22867500Y-13917500D02*
X22897500Y-13947500D01*
X22897500Y-13917500D02*
X22867500Y-13947500D01*
D11*
X23193214Y-13822976D02*
X23212262Y-13822976D01*
X23231309Y-13832500D01*
X23240833Y-13842024D01*
X23250357Y-13861071D01*
X23259881Y-13899167D01*
X23259881Y-13946786D01*
X23250357Y-13984881D01*
X23240833Y-14003928D01*
X23231309Y-14013452D01*
X23212262Y-14022976D01*
X23193214Y-14022976D01*
X23174167Y-14013452D01*
X23164643Y-14003928D01*
X23155119Y-13984881D01*
X23145595Y-13946786D01*
X23145595Y-13899167D01*
X23155119Y-13861071D01*
X23164643Y-13842024D01*
X23174167Y-13832500D01*
X23193214Y-13822976D01*
X23345595Y-14003928D02*
X23355119Y-14013452D01*
X23345595Y-14022976D01*
X23336071Y-14013452D01*
X23345595Y-14003928D01*
X23345595Y-14022976D01*
X23421786Y-13822976D02*
X23545595Y-13822976D01*
X23478928Y-13899167D01*
X23507500Y-13899167D01*
X23526548Y-13908690D01*
X23536071Y-13918214D01*
X23545595Y-13937262D01*
X23545595Y-13984881D01*
X23536071Y-14003928D01*
X23526548Y-14013452D01*
X23507500Y-14022976D01*
X23450357Y-14022976D01*
X23431309Y-14013452D01*
X23421786Y-14003928D01*
X23669405Y-13822976D02*
X23688452Y-13822976D01*
X23707500Y-13832500D01*
X23717024Y-13842024D01*
X23726548Y-13861071D01*
X23736071Y-13899167D01*
X23736071Y-13946786D01*
X23726548Y-13984881D01*
X23717024Y-14003928D01*
X23707500Y-14013452D01*
X23688452Y-14022976D01*
X23669405Y-14022976D01*
X23650357Y-14013452D01*
X23640833Y-14003928D01*
X23631309Y-13984881D01*
X23621786Y-13946786D01*
X23621786Y-13899167D01*
X23631309Y-13861071D01*
X23640833Y-13842024D01*
X23650357Y-13832500D01*
X23669405Y-13822976D01*
X23859881Y-13822976D02*
X23878928Y-13822976D01*
X23897976Y-13832500D01*
X23907500Y-13842024D01*
X23917024Y-13861071D01*
X23926548Y-13899167D01*
X23926548Y-13946786D01*
X23917024Y-13984881D01*
X23907500Y-14003928D01*
X23897976Y-14013452D01*
X23878928Y-14022976D01*
X23859881Y-14022976D01*
X23840833Y-14013452D01*
X23831309Y-14003928D01*
X23821786Y-13984881D01*
X23812262Y-13946786D01*
X23812262Y-13899167D01*
X23821786Y-13861071D01*
X23831309Y-13842024D01*
X23840833Y-13832500D01*
X23859881Y-13822976D01*
X24012262Y-14022976D02*
X24012262Y-13889643D01*
X24012262Y-13908690D02*
X24021786Y-13899167D01*
X24040833Y-13889643D01*
X24069405Y-13889643D01*
X24088452Y-13899167D01*
X24097976Y-13918214D01*
X24097976Y-14022976D01*
X24097976Y-13918214D02*
X24107500Y-13899167D01*
X24126548Y-13889643D01*
X24155119Y-13889643D01*
X24174167Y-13899167D01*
X24183690Y-13918214D01*
X24183690Y-14022976D01*
X24278928Y-14022976D02*
X24278928Y-13889643D01*
X24278928Y-13908690D02*
X24288452Y-13899167D01*
X24307500Y-13889643D01*
X24336071Y-13889643D01*
X24355119Y-13899167D01*
X24364643Y-13918214D01*
X24364643Y-14022976D01*
X24364643Y-13918214D02*
X24374167Y-13899167D01*
X24393214Y-13889643D01*
X24421786Y-13889643D01*
X24440833Y-13899167D01*
X24450357Y-13918214D01*
X24450357Y-14022976D01*
X24840833Y-13813452D02*
X24669405Y-14070595D01*
X25097976Y-13822976D02*
X25117024Y-13822976D01*
X25136071Y-13832500D01*
X25145595Y-13842024D01*
X25155119Y-13861071D01*
X25164643Y-13899167D01*
X25164643Y-13946786D01*
X25155119Y-13984881D01*
X25145595Y-14003928D01*
X25136071Y-14013452D01*
X25117024Y-14022976D01*
X25097976Y-14022976D01*
X25078928Y-14013452D01*
X25069405Y-14003928D01*
X25059881Y-13984881D01*
X25050357Y-13946786D01*
X25050357Y-13899167D01*
X25059881Y-13861071D01*
X25069405Y-13842024D01*
X25078928Y-13832500D01*
X25097976Y-13822976D01*
X25250357Y-14003928D02*
X25259881Y-14013452D01*
X25250357Y-14022976D01*
X25240833Y-14013452D01*
X25250357Y-14003928D01*
X25250357Y-14022976D01*
X25383690Y-13822976D02*
X25402738Y-13822976D01*
X25421786Y-13832500D01*
X25431309Y-13842024D01*
X25440833Y-13861071D01*
X25450357Y-13899167D01*
X25450357Y-13946786D01*
X25440833Y-13984881D01*
X25431309Y-14003928D01*
X25421786Y-14013452D01*
X25402738Y-14022976D01*
X25383690Y-14022976D01*
X25364643Y-14013452D01*
X25355119Y-14003928D01*
X25345595Y-13984881D01*
X25336071Y-13946786D01*
X25336071Y-13899167D01*
X25345595Y-13861071D01*
X25355119Y-13842024D01*
X25364643Y-13832500D01*
X25383690Y-13822976D01*
X25640833Y-14022976D02*
X25526548Y-14022976D01*
X25583690Y-14022976D02*
X25583690Y-13822976D01*
X25564643Y-13851548D01*
X25545595Y-13870595D01*
X25526548Y-13880119D01*
X25831309Y-14022976D02*
X25717024Y-14022976D01*
X25774167Y-14022976D02*
X25774167Y-13822976D01*
X25755119Y-13851548D01*
X25736071Y-13870595D01*
X25717024Y-13880119D01*
X25945595Y-13908690D02*
X25926548Y-13899167D01*
X25917024Y-13889643D01*
X25907500Y-13870595D01*
X25907500Y-13861071D01*
X25917024Y-13842024D01*
X25926548Y-13832500D01*
X25945595Y-13822976D01*
X25983690Y-13822976D01*
X26002738Y-13832500D01*
X26012262Y-13842024D01*
X26021786Y-13861071D01*
X26021786Y-13870595D01*
X26012262Y-13889643D01*
X26002738Y-13899167D01*
X25983690Y-13908690D01*
X25945595Y-13908690D01*
X25926548Y-13918214D01*
X25917024Y-13927738D01*
X25907500Y-13946786D01*
X25907500Y-13984881D01*
X25917024Y-14003928D01*
X25926548Y-14013452D01*
X25945595Y-14022976D01*
X25983690Y-14022976D01*
X26002738Y-14013452D01*
X26012262Y-14003928D01*
X26021786Y-13984881D01*
X26021786Y-13946786D01*
X26012262Y-13927738D01*
X26002738Y-13918214D01*
X25983690Y-13908690D01*
X26097976Y-13822976D02*
X26097976Y-13861071D01*
X26174167Y-13822976D02*
X26174167Y-13861071D01*
X26469405Y-14099167D02*
X26459881Y-14089643D01*
X26440833Y-14061071D01*
X26431309Y-14042024D01*
X26421786Y-14013452D01*
X26412262Y-13965833D01*
X26412262Y-13927738D01*
X26421786Y-13880119D01*
X26431309Y-13851548D01*
X26440833Y-13832500D01*
X26459881Y-13803928D01*
X26469405Y-13794405D01*
X26536071Y-13842024D02*
X26545595Y-13832500D01*
X26564643Y-13822976D01*
X26612262Y-13822976D01*
X26631309Y-13832500D01*
X26640833Y-13842024D01*
X26650357Y-13861071D01*
X26650357Y-13880119D01*
X26640833Y-13908690D01*
X26526548Y-14022976D01*
X26650357Y-14022976D01*
X26831309Y-13822976D02*
X26736071Y-13822976D01*
X26726548Y-13918214D01*
X26736071Y-13908690D01*
X26755119Y-13899167D01*
X26802738Y-13899167D01*
X26821786Y-13908690D01*
X26831309Y-13918214D01*
X26840833Y-13937262D01*
X26840833Y-13984881D01*
X26831309Y-14003928D01*
X26821786Y-14013452D01*
X26802738Y-14022976D01*
X26755119Y-14022976D01*
X26736071Y-14013452D01*
X26726548Y-14003928D01*
X27031309Y-14022976D02*
X26917024Y-14022976D01*
X26974167Y-14022976D02*
X26974167Y-13822976D01*
X26955119Y-13851548D01*
X26936071Y-13870595D01*
X26917024Y-13880119D01*
X27269405Y-14022976D02*
X27269405Y-13822976D01*
X27355119Y-14022976D02*
X27355119Y-13918214D01*
X27345595Y-13899167D01*
X27326548Y-13889643D01*
X27297976Y-13889643D01*
X27278928Y-13899167D01*
X27269405Y-13908690D01*
X27478928Y-14022976D02*
X27459881Y-14013452D01*
X27450357Y-14003928D01*
X27440833Y-13984881D01*
X27440833Y-13927738D01*
X27450357Y-13908690D01*
X27459881Y-13899167D01*
X27478928Y-13889643D01*
X27507500Y-13889643D01*
X27526548Y-13899167D01*
X27536071Y-13908690D01*
X27545595Y-13927738D01*
X27545595Y-13984881D01*
X27536071Y-14003928D01*
X27526548Y-14013452D01*
X27507500Y-14022976D01*
X27478928Y-14022976D01*
X27659881Y-14022976D02*
X27640833Y-14013452D01*
X27631309Y-13994405D01*
X27631309Y-13822976D01*
X27812262Y-14013452D02*
X27793214Y-14022976D01*
X27755119Y-14022976D01*
X27736071Y-14013452D01*
X27726548Y-13994405D01*
X27726548Y-13918214D01*
X27736071Y-13899167D01*
X27755119Y-13889643D01*
X27793214Y-13889643D01*
X27812262Y-13899167D01*
X27821786Y-13918214D01*
X27821786Y-13937262D01*
X27726548Y-13956309D01*
X27897976Y-14013452D02*
X27917024Y-14022976D01*
X27955119Y-14022976D01*
X27974167Y-14013452D01*
X27983690Y-13994405D01*
X27983690Y-13984881D01*
X27974167Y-13965833D01*
X27955119Y-13956309D01*
X27926548Y-13956309D01*
X27907500Y-13946786D01*
X27897976Y-13927738D01*
X27897976Y-13918214D01*
X27907500Y-13899167D01*
X27926548Y-13889643D01*
X27955119Y-13889643D01*
X27974167Y-13899167D01*
X28050357Y-14099167D02*
X28059881Y-14089643D01*
X28078928Y-14061071D01*
X28088452Y-14042024D01*
X28097976Y-14013452D01*
X28107500Y-13965833D01*
X28107500Y-13927738D01*
X28097976Y-13880119D01*
X28088452Y-13851548D01*
X28078928Y-13832500D01*
X28059881Y-13803928D01*
X28050357Y-13794405D01*
D13*
X22897500Y-14196500D02*
G75*
G03*
X22897500Y-14196500I-25000J0D01*
G01*
D11*
X23193214Y-14086976D02*
X23212262Y-14086976D01*
X23231309Y-14096500D01*
X23240833Y-14106024D01*
X23250357Y-14125071D01*
X23259881Y-14163167D01*
X23259881Y-14210786D01*
X23250357Y-14248881D01*
X23240833Y-14267928D01*
X23231309Y-14277452D01*
X23212262Y-14286976D01*
X23193214Y-14286976D01*
X23174167Y-14277452D01*
X23164643Y-14267928D01*
X23155119Y-14248881D01*
X23145595Y-14210786D01*
X23145595Y-14163167D01*
X23155119Y-14125071D01*
X23164643Y-14106024D01*
X23174167Y-14096500D01*
X23193214Y-14086976D01*
X23345595Y-14267928D02*
X23355119Y-14277452D01*
X23345595Y-14286976D01*
X23336071Y-14277452D01*
X23345595Y-14267928D01*
X23345595Y-14286976D01*
X23536071Y-14086976D02*
X23440833Y-14086976D01*
X23431309Y-14182214D01*
X23440833Y-14172690D01*
X23459881Y-14163167D01*
X23507500Y-14163167D01*
X23526548Y-14172690D01*
X23536071Y-14182214D01*
X23545595Y-14201262D01*
X23545595Y-14248881D01*
X23536071Y-14267928D01*
X23526548Y-14277452D01*
X23507500Y-14286976D01*
X23459881Y-14286976D01*
X23440833Y-14277452D01*
X23431309Y-14267928D01*
X23669405Y-14086976D02*
X23688452Y-14086976D01*
X23707500Y-14096500D01*
X23717024Y-14106024D01*
X23726548Y-14125071D01*
X23736071Y-14163167D01*
X23736071Y-14210786D01*
X23726548Y-14248881D01*
X23717024Y-14267928D01*
X23707500Y-14277452D01*
X23688452Y-14286976D01*
X23669405Y-14286976D01*
X23650357Y-14277452D01*
X23640833Y-14267928D01*
X23631309Y-14248881D01*
X23621786Y-14210786D01*
X23621786Y-14163167D01*
X23631309Y-14125071D01*
X23640833Y-14106024D01*
X23650357Y-14096500D01*
X23669405Y-14086976D01*
X23859881Y-14086976D02*
X23878928Y-14086976D01*
X23897976Y-14096500D01*
X23907500Y-14106024D01*
X23917024Y-14125071D01*
X23926548Y-14163167D01*
X23926548Y-14210786D01*
X23917024Y-14248881D01*
X23907500Y-14267928D01*
X23897976Y-14277452D01*
X23878928Y-14286976D01*
X23859881Y-14286976D01*
X23840833Y-14277452D01*
X23831309Y-14267928D01*
X23821786Y-14248881D01*
X23812262Y-14210786D01*
X23812262Y-14163167D01*
X23821786Y-14125071D01*
X23831309Y-14106024D01*
X23840833Y-14096500D01*
X23859881Y-14086976D01*
X24012262Y-14286976D02*
X24012262Y-14153643D01*
X24012262Y-14172690D02*
X24021786Y-14163167D01*
X24040833Y-14153643D01*
X24069405Y-14153643D01*
X24088452Y-14163167D01*
X24097976Y-14182214D01*
X24097976Y-14286976D01*
X24097976Y-14182214D02*
X24107500Y-14163167D01*
X24126548Y-14153643D01*
X24155119Y-14153643D01*
X24174167Y-14163167D01*
X24183690Y-14182214D01*
X24183690Y-14286976D01*
X24278928Y-14286976D02*
X24278928Y-14153643D01*
X24278928Y-14172690D02*
X24288452Y-14163167D01*
X24307500Y-14153643D01*
X24336071Y-14153643D01*
X24355119Y-14163167D01*
X24364643Y-14182214D01*
X24364643Y-14286976D01*
X24364643Y-14182214D02*
X24374167Y-14163167D01*
X24393214Y-14153643D01*
X24421786Y-14153643D01*
X24440833Y-14163167D01*
X24450357Y-14182214D01*
X24450357Y-14286976D01*
X24840833Y-14077452D02*
X24669405Y-14334595D01*
X25097976Y-14086976D02*
X25117024Y-14086976D01*
X25136071Y-14096500D01*
X25145595Y-14106024D01*
X25155119Y-14125071D01*
X25164643Y-14163167D01*
X25164643Y-14210786D01*
X25155119Y-14248881D01*
X25145595Y-14267928D01*
X25136071Y-14277452D01*
X25117024Y-14286976D01*
X25097976Y-14286976D01*
X25078928Y-14277452D01*
X25069405Y-14267928D01*
X25059881Y-14248881D01*
X25050357Y-14210786D01*
X25050357Y-14163167D01*
X25059881Y-14125071D01*
X25069405Y-14106024D01*
X25078928Y-14096500D01*
X25097976Y-14086976D01*
X25250357Y-14267928D02*
X25259881Y-14277452D01*
X25250357Y-14286976D01*
X25240833Y-14277452D01*
X25250357Y-14267928D01*
X25250357Y-14286976D01*
X25383690Y-14086976D02*
X25402738Y-14086976D01*
X25421786Y-14096500D01*
X25431309Y-14106024D01*
X25440833Y-14125071D01*
X25450357Y-14163167D01*
X25450357Y-14210786D01*
X25440833Y-14248881D01*
X25431309Y-14267928D01*
X25421786Y-14277452D01*
X25402738Y-14286976D01*
X25383690Y-14286976D01*
X25364643Y-14277452D01*
X25355119Y-14267928D01*
X25345595Y-14248881D01*
X25336071Y-14210786D01*
X25336071Y-14163167D01*
X25345595Y-14125071D01*
X25355119Y-14106024D01*
X25364643Y-14096500D01*
X25383690Y-14086976D01*
X25640833Y-14286976D02*
X25526548Y-14286976D01*
X25583690Y-14286976D02*
X25583690Y-14086976D01*
X25564643Y-14115548D01*
X25545595Y-14134595D01*
X25526548Y-14144119D01*
X25736071Y-14286976D02*
X25774167Y-14286976D01*
X25793214Y-14277452D01*
X25802738Y-14267928D01*
X25821786Y-14239357D01*
X25831309Y-14201262D01*
X25831309Y-14125071D01*
X25821786Y-14106024D01*
X25812262Y-14096500D01*
X25793214Y-14086976D01*
X25755119Y-14086976D01*
X25736071Y-14096500D01*
X25726548Y-14106024D01*
X25717024Y-14125071D01*
X25717024Y-14172690D01*
X25726548Y-14191738D01*
X25736071Y-14201262D01*
X25755119Y-14210786D01*
X25793214Y-14210786D01*
X25812262Y-14201262D01*
X25821786Y-14191738D01*
X25831309Y-14172690D01*
X25897976Y-14086976D02*
X26031309Y-14086976D01*
X25945595Y-14286976D01*
X26097976Y-14086976D02*
X26097976Y-14125071D01*
X26174167Y-14086976D02*
X26174167Y-14125071D01*
X26469405Y-14363167D02*
X26459881Y-14353643D01*
X26440833Y-14325071D01*
X26431309Y-14306024D01*
X26421786Y-14277452D01*
X26412262Y-14229833D01*
X26412262Y-14191738D01*
X26421786Y-14144119D01*
X26431309Y-14115548D01*
X26440833Y-14096500D01*
X26459881Y-14067928D01*
X26469405Y-14058405D01*
X26583690Y-14086976D02*
X26602738Y-14086976D01*
X26621786Y-14096500D01*
X26631309Y-14106024D01*
X26640833Y-14125071D01*
X26650357Y-14163167D01*
X26650357Y-14210786D01*
X26640833Y-14248881D01*
X26631309Y-14267928D01*
X26621786Y-14277452D01*
X26602738Y-14286976D01*
X26583690Y-14286976D01*
X26564643Y-14277452D01*
X26555119Y-14267928D01*
X26545595Y-14248881D01*
X26536071Y-14210786D01*
X26536071Y-14163167D01*
X26545595Y-14125071D01*
X26555119Y-14106024D01*
X26564643Y-14096500D01*
X26583690Y-14086976D01*
X26888452Y-14286976D02*
X26888452Y-14086976D01*
X26974167Y-14286976D02*
X26974167Y-14182214D01*
X26964643Y-14163167D01*
X26945595Y-14153643D01*
X26917024Y-14153643D01*
X26897976Y-14163167D01*
X26888452Y-14172690D01*
X27097976Y-14286976D02*
X27078928Y-14277452D01*
X27069405Y-14267928D01*
X27059881Y-14248881D01*
X27059881Y-14191738D01*
X27069405Y-14172690D01*
X27078928Y-14163167D01*
X27097976Y-14153643D01*
X27126548Y-14153643D01*
X27145595Y-14163167D01*
X27155119Y-14172690D01*
X27164643Y-14191738D01*
X27164643Y-14248881D01*
X27155119Y-14267928D01*
X27145595Y-14277452D01*
X27126548Y-14286976D01*
X27097976Y-14286976D01*
X27278928Y-14286976D02*
X27259881Y-14277452D01*
X27250357Y-14258405D01*
X27250357Y-14086976D01*
X27431309Y-14277452D02*
X27412262Y-14286976D01*
X27374167Y-14286976D01*
X27355119Y-14277452D01*
X27345595Y-14258405D01*
X27345595Y-14182214D01*
X27355119Y-14163167D01*
X27374167Y-14153643D01*
X27412262Y-14153643D01*
X27431309Y-14163167D01*
X27440833Y-14182214D01*
X27440833Y-14201262D01*
X27345595Y-14220309D01*
X27517024Y-14277452D02*
X27536071Y-14286976D01*
X27574167Y-14286976D01*
X27593214Y-14277452D01*
X27602738Y-14258405D01*
X27602738Y-14248881D01*
X27593214Y-14229833D01*
X27574167Y-14220309D01*
X27545595Y-14220309D01*
X27526548Y-14210786D01*
X27517024Y-14191738D01*
X27517024Y-14182214D01*
X27526548Y-14163167D01*
X27545595Y-14153643D01*
X27574167Y-14153643D01*
X27593214Y-14163167D01*
X27840833Y-14210786D02*
X27993214Y-14210786D01*
X27917024Y-14286976D02*
X27917024Y-14134595D01*
X28231309Y-14106024D02*
X28240833Y-14096500D01*
X28259881Y-14086976D01*
X28307500Y-14086976D01*
X28326548Y-14096500D01*
X28336071Y-14106024D01*
X28345595Y-14125071D01*
X28345595Y-14144119D01*
X28336071Y-14172690D01*
X28221786Y-14286976D01*
X28345595Y-14286976D01*
X28574167Y-14277452D02*
X28593214Y-14286976D01*
X28631309Y-14286976D01*
X28650357Y-14277452D01*
X28659881Y-14258405D01*
X28659881Y-14248881D01*
X28650357Y-14229833D01*
X28631309Y-14220309D01*
X28602738Y-14220309D01*
X28583690Y-14210786D01*
X28574167Y-14191738D01*
X28574167Y-14182214D01*
X28583690Y-14163167D01*
X28602738Y-14153643D01*
X28631309Y-14153643D01*
X28650357Y-14163167D01*
X28774167Y-14286976D02*
X28755119Y-14277452D01*
X28745595Y-14258405D01*
X28745595Y-14086976D01*
X28878928Y-14286976D02*
X28859881Y-14277452D01*
X28850357Y-14267928D01*
X28840833Y-14248881D01*
X28840833Y-14191738D01*
X28850357Y-14172690D01*
X28859881Y-14163167D01*
X28878928Y-14153643D01*
X28907500Y-14153643D01*
X28926548Y-14163167D01*
X28936071Y-14172690D01*
X28945595Y-14191738D01*
X28945595Y-14248881D01*
X28936071Y-14267928D01*
X28926548Y-14277452D01*
X28907500Y-14286976D01*
X28878928Y-14286976D01*
X29002738Y-14153643D02*
X29078928Y-14153643D01*
X29031309Y-14086976D02*
X29031309Y-14258405D01*
X29040833Y-14277452D01*
X29059881Y-14286976D01*
X29078928Y-14286976D01*
X29136071Y-14277452D02*
X29155119Y-14286976D01*
X29193214Y-14286976D01*
X29212262Y-14277452D01*
X29221786Y-14258405D01*
X29221786Y-14248881D01*
X29212262Y-14229833D01*
X29193214Y-14220309D01*
X29164643Y-14220309D01*
X29145595Y-14210786D01*
X29136071Y-14191738D01*
X29136071Y-14182214D01*
X29145595Y-14163167D01*
X29164643Y-14153643D01*
X29193214Y-14153643D01*
X29212262Y-14163167D01*
X29288452Y-14363167D02*
X29297976Y-14353643D01*
X29317024Y-14325071D01*
X29326548Y-14306024D01*
X29336071Y-14277452D01*
X29345595Y-14229833D01*
X29345595Y-14191738D01*
X29336071Y-14144119D01*
X29326548Y-14115548D01*
X29317024Y-14096500D01*
X29297976Y-14067928D01*
X29288452Y-14058405D01*
D14*
X22847500Y-14410500D02*
X22847500Y-14510500D01*
X22797500Y-14460500D02*
X22897500Y-14460500D01*
D11*
X23259881Y-14550976D02*
X23145595Y-14550976D01*
X23202738Y-14550976D02*
X23202738Y-14350976D01*
X23183690Y-14379548D01*
X23164643Y-14398595D01*
X23145595Y-14408119D01*
X23345595Y-14531928D02*
X23355119Y-14541452D01*
X23345595Y-14550976D01*
X23336071Y-14541452D01*
X23345595Y-14531928D01*
X23345595Y-14550976D01*
X23478928Y-14350976D02*
X23497976Y-14350976D01*
X23517024Y-14360500D01*
X23526548Y-14370024D01*
X23536071Y-14389071D01*
X23545595Y-14427167D01*
X23545595Y-14474786D01*
X23536071Y-14512881D01*
X23526548Y-14531928D01*
X23517024Y-14541452D01*
X23497976Y-14550976D01*
X23478928Y-14550976D01*
X23459881Y-14541452D01*
X23450357Y-14531928D01*
X23440833Y-14512881D01*
X23431309Y-14474786D01*
X23431309Y-14427167D01*
X23440833Y-14389071D01*
X23450357Y-14370024D01*
X23459881Y-14360500D01*
X23478928Y-14350976D01*
X23669405Y-14350976D02*
X23688452Y-14350976D01*
X23707500Y-14360500D01*
X23717024Y-14370024D01*
X23726548Y-14389071D01*
X23736071Y-14427167D01*
X23736071Y-14474786D01*
X23726548Y-14512881D01*
X23717024Y-14531928D01*
X23707500Y-14541452D01*
X23688452Y-14550976D01*
X23669405Y-14550976D01*
X23650357Y-14541452D01*
X23640833Y-14531928D01*
X23631309Y-14512881D01*
X23621786Y-14474786D01*
X23621786Y-14427167D01*
X23631309Y-14389071D01*
X23640833Y-14370024D01*
X23650357Y-14360500D01*
X23669405Y-14350976D01*
X23859881Y-14350976D02*
X23878928Y-14350976D01*
X23897976Y-14360500D01*
X23907500Y-14370024D01*
X23917024Y-14389071D01*
X23926548Y-14427167D01*
X23926548Y-14474786D01*
X23917024Y-14512881D01*
X23907500Y-14531928D01*
X23897976Y-14541452D01*
X23878928Y-14550976D01*
X23859881Y-14550976D01*
X23840833Y-14541452D01*
X23831309Y-14531928D01*
X23821786Y-14512881D01*
X23812262Y-14474786D01*
X23812262Y-14427167D01*
X23821786Y-14389071D01*
X23831309Y-14370024D01*
X23840833Y-14360500D01*
X23859881Y-14350976D01*
X24012262Y-14550976D02*
X24012262Y-14417643D01*
X24012262Y-14436690D02*
X24021786Y-14427167D01*
X24040833Y-14417643D01*
X24069405Y-14417643D01*
X24088452Y-14427167D01*
X24097976Y-14446214D01*
X24097976Y-14550976D01*
X24097976Y-14446214D02*
X24107500Y-14427167D01*
X24126548Y-14417643D01*
X24155119Y-14417643D01*
X24174167Y-14427167D01*
X24183690Y-14446214D01*
X24183690Y-14550976D01*
X24278928Y-14550976D02*
X24278928Y-14417643D01*
X24278928Y-14436690D02*
X24288452Y-14427167D01*
X24307500Y-14417643D01*
X24336071Y-14417643D01*
X24355119Y-14427167D01*
X24364643Y-14446214D01*
X24364643Y-14550976D01*
X24364643Y-14446214D02*
X24374167Y-14427167D01*
X24393214Y-14417643D01*
X24421786Y-14417643D01*
X24440833Y-14427167D01*
X24450357Y-14446214D01*
X24450357Y-14550976D01*
X24840833Y-14341452D02*
X24669405Y-14598595D01*
X25097976Y-14350976D02*
X25117024Y-14350976D01*
X25136071Y-14360500D01*
X25145595Y-14370024D01*
X25155119Y-14389071D01*
X25164643Y-14427167D01*
X25164643Y-14474786D01*
X25155119Y-14512881D01*
X25145595Y-14531928D01*
X25136071Y-14541452D01*
X25117024Y-14550976D01*
X25097976Y-14550976D01*
X25078928Y-14541452D01*
X25069405Y-14531928D01*
X25059881Y-14512881D01*
X25050357Y-14474786D01*
X25050357Y-14427167D01*
X25059881Y-14389071D01*
X25069405Y-14370024D01*
X25078928Y-14360500D01*
X25097976Y-14350976D01*
X25250357Y-14531928D02*
X25259881Y-14541452D01*
X25250357Y-14550976D01*
X25240833Y-14541452D01*
X25250357Y-14531928D01*
X25250357Y-14550976D01*
X25383690Y-14350976D02*
X25402738Y-14350976D01*
X25421786Y-14360500D01*
X25431309Y-14370024D01*
X25440833Y-14389071D01*
X25450357Y-14427167D01*
X25450357Y-14474786D01*
X25440833Y-14512881D01*
X25431309Y-14531928D01*
X25421786Y-14541452D01*
X25402738Y-14550976D01*
X25383690Y-14550976D01*
X25364643Y-14541452D01*
X25355119Y-14531928D01*
X25345595Y-14512881D01*
X25336071Y-14474786D01*
X25336071Y-14427167D01*
X25345595Y-14389071D01*
X25355119Y-14370024D01*
X25364643Y-14360500D01*
X25383690Y-14350976D01*
X25517024Y-14350976D02*
X25640833Y-14350976D01*
X25574167Y-14427167D01*
X25602738Y-14427167D01*
X25621786Y-14436690D01*
X25631309Y-14446214D01*
X25640833Y-14465262D01*
X25640833Y-14512881D01*
X25631309Y-14531928D01*
X25621786Y-14541452D01*
X25602738Y-14550976D01*
X25545595Y-14550976D01*
X25526548Y-14541452D01*
X25517024Y-14531928D01*
X25736071Y-14550976D02*
X25774167Y-14550976D01*
X25793214Y-14541452D01*
X25802738Y-14531928D01*
X25821786Y-14503357D01*
X25831309Y-14465262D01*
X25831309Y-14389071D01*
X25821786Y-14370024D01*
X25812262Y-14360500D01*
X25793214Y-14350976D01*
X25755119Y-14350976D01*
X25736071Y-14360500D01*
X25726548Y-14370024D01*
X25717024Y-14389071D01*
X25717024Y-14436690D01*
X25726548Y-14455738D01*
X25736071Y-14465262D01*
X25755119Y-14474786D01*
X25793214Y-14474786D01*
X25812262Y-14465262D01*
X25821786Y-14455738D01*
X25831309Y-14436690D01*
X26002738Y-14417643D02*
X26002738Y-14550976D01*
X25955119Y-14341452D02*
X25907500Y-14484309D01*
X26031309Y-14484309D01*
X26097976Y-14350976D02*
X26097976Y-14389071D01*
X26174167Y-14350976D02*
X26174167Y-14389071D01*
X26469405Y-14627167D02*
X26459881Y-14617643D01*
X26440833Y-14589071D01*
X26431309Y-14570024D01*
X26421786Y-14541452D01*
X26412262Y-14493833D01*
X26412262Y-14455738D01*
X26421786Y-14408119D01*
X26431309Y-14379548D01*
X26440833Y-14360500D01*
X26459881Y-14331928D01*
X26469405Y-14322405D01*
X26631309Y-14417643D02*
X26631309Y-14550976D01*
X26583690Y-14341452D02*
X26536071Y-14484309D01*
X26659881Y-14484309D01*
X26831309Y-14350976D02*
X26736071Y-14350976D01*
X26726548Y-14446214D01*
X26736071Y-14436690D01*
X26755119Y-14427167D01*
X26802738Y-14427167D01*
X26821786Y-14436690D01*
X26831309Y-14446214D01*
X26840833Y-14465262D01*
X26840833Y-14512881D01*
X26831309Y-14531928D01*
X26821786Y-14541452D01*
X26802738Y-14550976D01*
X26755119Y-14550976D01*
X26736071Y-14541452D01*
X26726548Y-14531928D01*
X27078928Y-14550976D02*
X27078928Y-14350976D01*
X27164643Y-14550976D02*
X27164643Y-14446214D01*
X27155119Y-14427167D01*
X27136071Y-14417643D01*
X27107500Y-14417643D01*
X27088452Y-14427167D01*
X27078928Y-14436690D01*
X27288452Y-14550976D02*
X27269405Y-14541452D01*
X27259881Y-14531928D01*
X27250357Y-14512881D01*
X27250357Y-14455738D01*
X27259881Y-14436690D01*
X27269405Y-14427167D01*
X27288452Y-14417643D01*
X27317024Y-14417643D01*
X27336071Y-14427167D01*
X27345595Y-14436690D01*
X27355119Y-14455738D01*
X27355119Y-14512881D01*
X27345595Y-14531928D01*
X27336071Y-14541452D01*
X27317024Y-14550976D01*
X27288452Y-14550976D01*
X27469405Y-14550976D02*
X27450357Y-14541452D01*
X27440833Y-14522405D01*
X27440833Y-14350976D01*
X27621786Y-14541452D02*
X27602738Y-14550976D01*
X27564643Y-14550976D01*
X27545595Y-14541452D01*
X27536071Y-14522405D01*
X27536071Y-14446214D01*
X27545595Y-14427167D01*
X27564643Y-14417643D01*
X27602738Y-14417643D01*
X27621786Y-14427167D01*
X27631309Y-14446214D01*
X27631309Y-14465262D01*
X27536071Y-14484309D01*
X27707500Y-14541452D02*
X27726548Y-14550976D01*
X27764643Y-14550976D01*
X27783690Y-14541452D01*
X27793214Y-14522405D01*
X27793214Y-14512881D01*
X27783690Y-14493833D01*
X27764643Y-14484309D01*
X27736071Y-14484309D01*
X27717024Y-14474786D01*
X27707500Y-14455738D01*
X27707500Y-14446214D01*
X27717024Y-14427167D01*
X27736071Y-14417643D01*
X27764643Y-14417643D01*
X27783690Y-14427167D01*
X27859881Y-14627167D02*
X27869405Y-14617643D01*
X27888452Y-14589071D01*
X27897976Y-14570024D01*
X27907500Y-14541452D01*
X27917024Y-14493833D01*
X27917024Y-14455738D01*
X27907500Y-14408119D01*
X27897976Y-14379548D01*
X27888452Y-14360500D01*
X27869405Y-14331928D01*
X27859881Y-14322405D01*
M02*
