%TF.GenerationSoftware,KiCad,Pcbnew,(5.1.12)-1*%
%TF.CreationDate,2022-04-07T02:34:00+02:00*%
%TF.ProjectId,xESC2,78455343-322e-46b6-9963-61645f706362,rev?*%
%TF.SameCoordinates,Original*%
%TF.FileFunction,Legend,Bot*%
%TF.FilePolarity,Positive*%
%FSLAX46Y46*%
G04 Gerber Fmt 4.6, Leading zero omitted, Abs format (unit mm)*
G04 Created by KiCad (PCBNEW (5.1.12)-1) date 2022-04-07 02:34:00*
%MOMM*%
%LPD*%
G01*
G04 APERTURE LIST*
%ADD10C,0.120000*%
%ADD11C,0.100000*%
%ADD12C,0.150000*%
%ADD13C,1.500000*%
%ADD14R,1.060000X0.650000*%
%ADD15O,1.700000X1.700000*%
%ADD16R,1.700000X1.700000*%
%ADD17R,5.003800X5.003800*%
%ADD18R,1.340599X0.279400*%
%ADD19R,0.279400X1.340599*%
%ADD20C,0.600000*%
%ADD21O,1.700000X0.850000*%
G04 APERTURE END LIST*
D10*
%TO.C,TH1*%
X263522500Y-116837258D02*
X263522500Y-116362742D01*
X262477500Y-116837258D02*
X262477500Y-116362742D01*
%TO.C,R41*%
X263522500Y-112237258D02*
X263522500Y-111762742D01*
X262477500Y-112237258D02*
X262477500Y-111762742D01*
%TO.C,C24*%
X259759420Y-124910000D02*
X260040580Y-124910000D01*
X259759420Y-123890000D02*
X260040580Y-123890000D01*
%TO.C,U2*%
X240500000Y-111810000D02*
X238700000Y-111810000D01*
X238700000Y-108590000D02*
X241150000Y-108590000D01*
%TO.C,J10*%
X278110000Y-129770000D02*
X278110000Y-132430000D01*
X265350000Y-129770000D02*
X278110000Y-129770000D01*
X265350000Y-132430000D02*
X278110000Y-132430000D01*
X265350000Y-129770000D02*
X265350000Y-132430000D01*
X264080000Y-129770000D02*
X262750000Y-129770000D01*
X262750000Y-129770000D02*
X262750000Y-131100000D01*
%TO.C,J9*%
X278110000Y-104370000D02*
X278110000Y-107030000D01*
X265350000Y-104370000D02*
X278110000Y-104370000D01*
X265350000Y-107030000D02*
X278110000Y-107030000D01*
X265350000Y-104370000D02*
X265350000Y-107030000D01*
X264080000Y-104370000D02*
X262750000Y-104370000D01*
X262750000Y-104370000D02*
X262750000Y-105700000D01*
%TO.C,J8*%
X272910000Y-108180000D02*
X278110000Y-108180000D01*
X272910000Y-110780000D02*
X272910000Y-108180000D01*
X278110000Y-113380000D02*
X278110000Y-108180000D01*
X272910000Y-110780000D02*
X275510000Y-110780000D01*
X275510000Y-110780000D02*
X275510000Y-113380000D01*
X275510000Y-113380000D02*
X278110000Y-113380000D01*
X272910000Y-112050000D02*
X272910000Y-113380000D01*
X272910000Y-113380000D02*
X274240000Y-113380000D01*
%TO.C,J7*%
X272910000Y-115800000D02*
X278110000Y-115800000D01*
X272910000Y-118400000D02*
X272910000Y-115800000D01*
X278110000Y-121000000D02*
X278110000Y-115800000D01*
X272910000Y-118400000D02*
X275510000Y-118400000D01*
X275510000Y-118400000D02*
X275510000Y-121000000D01*
X275510000Y-121000000D02*
X278110000Y-121000000D01*
X272910000Y-119670000D02*
X272910000Y-121000000D01*
X272910000Y-121000000D02*
X274240000Y-121000000D01*
%TO.C,J6*%
X272910000Y-123420000D02*
X278110000Y-123420000D01*
X272910000Y-126020000D02*
X272910000Y-123420000D01*
X278110000Y-128620000D02*
X278110000Y-123420000D01*
X272910000Y-126020000D02*
X275510000Y-126020000D01*
X275510000Y-126020000D02*
X275510000Y-128620000D01*
X275510000Y-128620000D02*
X278110000Y-128620000D01*
X272910000Y-127290000D02*
X272910000Y-128620000D01*
X272910000Y-128620000D02*
X274240000Y-128620000D01*
D11*
%TO.C,U1*%
G36*
X252299799Y-117290500D02*
G01*
X252553799Y-117290500D01*
X252553799Y-116909500D01*
X252299799Y-116909500D01*
X252299799Y-117290500D01*
G37*
X252299799Y-117290500D02*
X252553799Y-117290500D01*
X252553799Y-116909500D01*
X252299799Y-116909500D01*
X252299799Y-117290500D01*
G36*
X247140501Y-112996201D02*
G01*
X246759500Y-112996201D01*
X246759500Y-113250201D01*
X247140501Y-113250201D01*
X247140501Y-112996201D01*
G37*
X247140501Y-112996201D02*
X246759500Y-112996201D01*
X246759500Y-113250201D01*
X247140501Y-113250201D01*
X247140501Y-112996201D01*
G36*
X242100201Y-117790499D02*
G01*
X241846201Y-117790499D01*
X241846201Y-117409499D01*
X242100201Y-117409499D01*
X242100201Y-117790499D01*
G37*
X242100201Y-117790499D02*
X241846201Y-117790499D01*
X241846201Y-117409499D01*
X242100201Y-117409499D01*
X242100201Y-117790499D01*
G36*
X245640501Y-123703799D02*
G01*
X245259501Y-123703799D01*
X245259501Y-123449799D01*
X245640501Y-123449799D01*
X245640501Y-123703799D01*
G37*
X245640501Y-123703799D02*
X245259501Y-123703799D01*
X245259501Y-123449799D01*
X245640501Y-123449799D01*
X245640501Y-123703799D01*
D10*
X250832200Y-121572440D02*
X250832200Y-121982200D01*
X250422440Y-114717800D02*
X250832200Y-114717800D01*
X243567800Y-115127560D02*
X243567800Y-114717800D01*
X243977560Y-121982200D02*
X243567800Y-121982200D01*
X250832200Y-121982200D02*
X250422440Y-121982200D01*
X250832200Y-114717800D02*
X250832200Y-115127560D01*
X243567800Y-114717800D02*
X243977560Y-114717800D01*
X243567800Y-121982200D02*
X243567800Y-121572440D01*
%TO.C,U5*%
X233440000Y-116400000D02*
X233440000Y-114450000D01*
X233440000Y-116400000D02*
X233440000Y-118350000D01*
X238560000Y-116400000D02*
X238560000Y-114450000D01*
X238560000Y-116400000D02*
X238560000Y-119850000D01*
%TO.C,R36*%
X234737258Y-120877500D02*
X234262742Y-120877500D01*
X234737258Y-121922500D02*
X234262742Y-121922500D01*
%TO.C,J5*%
X237470000Y-104370000D02*
X237470000Y-107030000D01*
X232330000Y-104370000D02*
X237470000Y-104370000D01*
X232330000Y-107030000D02*
X237470000Y-107030000D01*
X232330000Y-104370000D02*
X232330000Y-107030000D01*
X231060000Y-104370000D02*
X229730000Y-104370000D01*
X229730000Y-104370000D02*
X229730000Y-105700000D01*
%TO.C,J4*%
X242550000Y-129770000D02*
X242550000Y-132430000D01*
X232330000Y-129770000D02*
X242550000Y-129770000D01*
X232330000Y-132430000D02*
X242550000Y-132430000D01*
X232330000Y-129770000D02*
X232330000Y-132430000D01*
X231060000Y-129770000D02*
X229730000Y-129770000D01*
X229730000Y-129770000D02*
X229730000Y-131100000D01*
%TO.C,J1*%
X252710000Y-104370000D02*
X252710000Y-107030000D01*
X239950000Y-104370000D02*
X252710000Y-104370000D01*
X239950000Y-107030000D02*
X252710000Y-107030000D01*
X239950000Y-104370000D02*
X239950000Y-107030000D01*
X238680000Y-104370000D02*
X237350000Y-104370000D01*
X237350000Y-104370000D02*
X237350000Y-105700000D01*
%TO.C,R29*%
X244962742Y-109222500D02*
X245437258Y-109222500D01*
X244962742Y-108177500D02*
X245437258Y-108177500D01*
%TO.C,R28*%
X260137258Y-107877500D02*
X259662742Y-107877500D01*
X260137258Y-108922500D02*
X259662742Y-108922500D01*
%TO.C,R27*%
X263522500Y-109237258D02*
X263522500Y-108762742D01*
X262477500Y-109237258D02*
X262477500Y-108762742D01*
%TO.C,R26*%
X260137258Y-119877500D02*
X259662742Y-119877500D01*
X260137258Y-120922500D02*
X259662742Y-120922500D01*
%TO.C,R25*%
X262477500Y-119362742D02*
X262477500Y-119837258D01*
X263522500Y-119362742D02*
X263522500Y-119837258D01*
%TO.C,R24*%
X260137258Y-127877500D02*
X259662742Y-127877500D01*
X260137258Y-128922500D02*
X259662742Y-128922500D01*
%TO.C,R23*%
X262477500Y-126162742D02*
X262477500Y-126637258D01*
X263522500Y-126162742D02*
X263522500Y-126637258D01*
%TO.C,R22*%
X235937258Y-126327500D02*
X235462742Y-126327500D01*
X235937258Y-127372500D02*
X235462742Y-127372500D01*
%TO.C,R21*%
X235462742Y-125772500D02*
X235937258Y-125772500D01*
X235462742Y-124727500D02*
X235937258Y-124727500D01*
%TO.C,R20*%
X239437258Y-126327500D02*
X238962742Y-126327500D01*
X239437258Y-127372500D02*
X238962742Y-127372500D01*
%TO.C,R19*%
X238962742Y-125772500D02*
X239437258Y-125772500D01*
X238962742Y-124727500D02*
X239437258Y-124727500D01*
%TO.C,R18*%
X242937258Y-126327500D02*
X242462742Y-126327500D01*
X242937258Y-127372500D02*
X242462742Y-127372500D01*
%TO.C,R17*%
X242462742Y-125772500D02*
X242937258Y-125772500D01*
X242462742Y-124727500D02*
X242937258Y-124727500D01*
%TO.C,C31*%
X260040580Y-109890000D02*
X259759420Y-109890000D01*
X260040580Y-110910000D02*
X259759420Y-110910000D01*
%TO.C,C30*%
X260040580Y-117890000D02*
X259759420Y-117890000D01*
X260040580Y-118910000D02*
X259759420Y-118910000D01*
%TO.C,C29*%
X260040580Y-125890000D02*
X259759420Y-125890000D01*
X260040580Y-126910000D02*
X259759420Y-126910000D01*
%TO.C,C28*%
X235840580Y-127940000D02*
X235559420Y-127940000D01*
X235840580Y-128960000D02*
X235559420Y-128960000D01*
%TO.C,C27*%
X239340580Y-127940000D02*
X239059420Y-127940000D01*
X239340580Y-128960000D02*
X239059420Y-128960000D01*
%TO.C,C15*%
X242840580Y-127940000D02*
X242559420Y-127940000D01*
X242840580Y-128960000D02*
X242559420Y-128960000D01*
%TO.C,C21*%
X235911252Y-107990000D02*
X234488748Y-107990000D01*
X235911252Y-109810000D02*
X234488748Y-109810000D01*
%TO.C,C20*%
X235911252Y-110390000D02*
X234488748Y-110390000D01*
X235911252Y-112210000D02*
X234488748Y-112210000D01*
%TO.C,R15*%
X245912742Y-130177500D02*
X246387258Y-130177500D01*
X245912742Y-131222500D02*
X246387258Y-131222500D01*
%TO.C,R14*%
X249412742Y-130177500D02*
X249887258Y-130177500D01*
X249412742Y-131222500D02*
X249887258Y-131222500D01*
%TO.C,R13*%
X245912742Y-128177500D02*
X246387258Y-128177500D01*
X245912742Y-129222500D02*
X246387258Y-129222500D01*
%TO.C,R12*%
X256437258Y-112922500D02*
X255962742Y-112922500D01*
X256437258Y-111877500D02*
X255962742Y-111877500D01*
%TO.C,R11*%
X270277064Y-112110000D02*
X265922936Y-112110000D01*
X270277064Y-108690000D02*
X265922936Y-108690000D01*
%TO.C,R10*%
X256437258Y-108922500D02*
X255962742Y-108922500D01*
X256437258Y-107877500D02*
X255962742Y-107877500D01*
%TO.C,R9*%
X256437258Y-110922500D02*
X255962742Y-110922500D01*
X256437258Y-109877500D02*
X255962742Y-109877500D01*
%TO.C,R8*%
X256437258Y-116922500D02*
X255962742Y-116922500D01*
X256437258Y-115877500D02*
X255962742Y-115877500D01*
%TO.C,R7*%
X270314564Y-120110000D02*
X265960436Y-120110000D01*
X270314564Y-116690000D02*
X265960436Y-116690000D01*
%TO.C,R6*%
X256437258Y-120922500D02*
X255962742Y-120922500D01*
X256437258Y-119877500D02*
X255962742Y-119877500D01*
%TO.C,R5*%
X256437258Y-118922500D02*
X255962742Y-118922500D01*
X256437258Y-117877500D02*
X255962742Y-117877500D01*
%TO.C,R4*%
X256437258Y-124922500D02*
X255962742Y-124922500D01*
X256437258Y-123877500D02*
X255962742Y-123877500D01*
%TO.C,R3*%
X270314564Y-128110000D02*
X265960436Y-128110000D01*
X270314564Y-124690000D02*
X265960436Y-124690000D01*
%TO.C,R2*%
X256437258Y-128922500D02*
X255962742Y-128922500D01*
X256437258Y-127877500D02*
X255962742Y-127877500D01*
%TO.C,R1*%
X256437258Y-126922500D02*
X255962742Y-126922500D01*
X256437258Y-125877500D02*
X255962742Y-125877500D01*
%TO.C,C26*%
X259759420Y-111890000D02*
X260040580Y-111890000D01*
X259759420Y-112910000D02*
X260040580Y-112910000D01*
%TO.C,C25*%
X259759420Y-115890000D02*
X260040580Y-115890000D01*
X259759420Y-116910000D02*
X260040580Y-116910000D01*
%TO.C,C14*%
X248738748Y-107865000D02*
X249261252Y-107865000D01*
X248738748Y-109335000D02*
X249261252Y-109335000D01*
%TO.C,C13*%
X241765000Y-110561252D02*
X241765000Y-110038748D01*
X243235000Y-110561252D02*
X243235000Y-110038748D01*
%TO.C,C12*%
X249261252Y-111335000D02*
X248738748Y-111335000D01*
X249261252Y-109865000D02*
X248738748Y-109865000D01*
%TO.C,C11*%
X245059420Y-109940000D02*
X245340580Y-109940000D01*
X245059420Y-110960000D02*
X245340580Y-110960000D01*
%TO.C,C10*%
X253290000Y-110540580D02*
X253290000Y-110259420D01*
X254310000Y-110540580D02*
X254310000Y-110259420D01*
%TO.C,C9*%
X254310000Y-118259420D02*
X254310000Y-118540580D01*
X253290000Y-118259420D02*
X253290000Y-118540580D01*
%TO.C,C8*%
X254310000Y-126259420D02*
X254310000Y-126540580D01*
X253290000Y-126259420D02*
X253290000Y-126540580D01*
%TO.C,C7*%
X237940580Y-121910000D02*
X237659420Y-121910000D01*
X237940580Y-120890000D02*
X237659420Y-120890000D01*
%TO.C,C6*%
X249509420Y-128190000D02*
X249790580Y-128190000D01*
X249509420Y-129210000D02*
X249790580Y-129210000D01*
%TO.C,C5*%
X250061252Y-127435000D02*
X249538748Y-127435000D01*
X250061252Y-125965000D02*
X249538748Y-125965000D01*
%TO.C,C4*%
X245738748Y-125965000D02*
X246261252Y-125965000D01*
X245738748Y-127435000D02*
X246261252Y-127435000D01*
%TO.C,FID8*%
D12*
X233871428Y-109228571D02*
X234204761Y-109228571D01*
X234204761Y-109752380D02*
X234204761Y-108752380D01*
X233728571Y-108752380D01*
X233347619Y-109752380D02*
X233347619Y-108752380D01*
X232871428Y-109752380D02*
X232871428Y-108752380D01*
X232633333Y-108752380D01*
X232490476Y-108800000D01*
X232395238Y-108895238D01*
X232347619Y-108990476D01*
X232300000Y-109180952D01*
X232300000Y-109323809D01*
X232347619Y-109514285D01*
X232395238Y-109609523D01*
X232490476Y-109704761D01*
X232633333Y-109752380D01*
X232871428Y-109752380D01*
X231728571Y-109180952D02*
X231823809Y-109133333D01*
X231871428Y-109085714D01*
X231919047Y-108990476D01*
X231919047Y-108942857D01*
X231871428Y-108847619D01*
X231823809Y-108800000D01*
X231728571Y-108752380D01*
X231538095Y-108752380D01*
X231442857Y-108800000D01*
X231395238Y-108847619D01*
X231347619Y-108942857D01*
X231347619Y-108990476D01*
X231395238Y-109085714D01*
X231442857Y-109133333D01*
X231538095Y-109180952D01*
X231728571Y-109180952D01*
X231823809Y-109228571D01*
X231871428Y-109276190D01*
X231919047Y-109371428D01*
X231919047Y-109561904D01*
X231871428Y-109657142D01*
X231823809Y-109704761D01*
X231728571Y-109752380D01*
X231538095Y-109752380D01*
X231442857Y-109704761D01*
X231395238Y-109657142D01*
X231347619Y-109561904D01*
X231347619Y-109371428D01*
X231395238Y-109276190D01*
X231442857Y-109228571D01*
X231538095Y-109180952D01*
%TO.C,FID7*%
X276571428Y-109328571D02*
X276904761Y-109328571D01*
X276904761Y-109852380D02*
X276904761Y-108852380D01*
X276428571Y-108852380D01*
X276047619Y-109852380D02*
X276047619Y-108852380D01*
X275571428Y-109852380D02*
X275571428Y-108852380D01*
X275333333Y-108852380D01*
X275190476Y-108900000D01*
X275095238Y-108995238D01*
X275047619Y-109090476D01*
X275000000Y-109280952D01*
X275000000Y-109423809D01*
X275047619Y-109614285D01*
X275095238Y-109709523D01*
X275190476Y-109804761D01*
X275333333Y-109852380D01*
X275571428Y-109852380D01*
X274666666Y-108852380D02*
X274000000Y-108852380D01*
X274428571Y-109852380D01*
%TO.C,FID6*%
X232471428Y-126728571D02*
X232804761Y-126728571D01*
X232804761Y-127252380D02*
X232804761Y-126252380D01*
X232328571Y-126252380D01*
X231947619Y-127252380D02*
X231947619Y-126252380D01*
X231471428Y-127252380D02*
X231471428Y-126252380D01*
X231233333Y-126252380D01*
X231090476Y-126300000D01*
X230995238Y-126395238D01*
X230947619Y-126490476D01*
X230900000Y-126680952D01*
X230900000Y-126823809D01*
X230947619Y-127014285D01*
X230995238Y-127109523D01*
X231090476Y-127204761D01*
X231233333Y-127252380D01*
X231471428Y-127252380D01*
X230042857Y-126252380D02*
X230233333Y-126252380D01*
X230328571Y-126300000D01*
X230376190Y-126347619D01*
X230471428Y-126490476D01*
X230519047Y-126680952D01*
X230519047Y-127061904D01*
X230471428Y-127157142D01*
X230423809Y-127204761D01*
X230328571Y-127252380D01*
X230138095Y-127252380D01*
X230042857Y-127204761D01*
X229995238Y-127157142D01*
X229947619Y-127061904D01*
X229947619Y-126823809D01*
X229995238Y-126728571D01*
X230042857Y-126680952D01*
X230138095Y-126633333D01*
X230328571Y-126633333D01*
X230423809Y-126680952D01*
X230471428Y-126728571D01*
X230519047Y-126823809D01*
%TO.C,FID4*%
X276571428Y-131328571D02*
X276904761Y-131328571D01*
X276904761Y-131852380D02*
X276904761Y-130852380D01*
X276428571Y-130852380D01*
X276047619Y-131852380D02*
X276047619Y-130852380D01*
X275571428Y-131852380D02*
X275571428Y-130852380D01*
X275333333Y-130852380D01*
X275190476Y-130900000D01*
X275095238Y-130995238D01*
X275047619Y-131090476D01*
X275000000Y-131280952D01*
X275000000Y-131423809D01*
X275047619Y-131614285D01*
X275095238Y-131709523D01*
X275190476Y-131804761D01*
X275333333Y-131852380D01*
X275571428Y-131852380D01*
X274142857Y-131185714D02*
X274142857Y-131852380D01*
X274380952Y-130804761D02*
X274619047Y-131519047D01*
X274000000Y-131519047D01*
%TO.C,C24*%
X260542857Y-126187142D02*
X260590476Y-126234761D01*
X260733333Y-126282380D01*
X260828571Y-126282380D01*
X260971428Y-126234761D01*
X261066666Y-126139523D01*
X261114285Y-126044285D01*
X261161904Y-125853809D01*
X261161904Y-125710952D01*
X261114285Y-125520476D01*
X261066666Y-125425238D01*
X260971428Y-125330000D01*
X260828571Y-125282380D01*
X260733333Y-125282380D01*
X260590476Y-125330000D01*
X260542857Y-125377619D01*
X260161904Y-125377619D02*
X260114285Y-125330000D01*
X260019047Y-125282380D01*
X259780952Y-125282380D01*
X259685714Y-125330000D01*
X259638095Y-125377619D01*
X259590476Y-125472857D01*
X259590476Y-125568095D01*
X259638095Y-125710952D01*
X260209523Y-126282380D01*
X259590476Y-126282380D01*
X258733333Y-125615714D02*
X258733333Y-126282380D01*
X258971428Y-125234761D02*
X259209523Y-125949047D01*
X258590476Y-125949047D01*
%TO.C,U2*%
X240361904Y-106752380D02*
X240361904Y-107561904D01*
X240314285Y-107657142D01*
X240266666Y-107704761D01*
X240171428Y-107752380D01*
X239980952Y-107752380D01*
X239885714Y-107704761D01*
X239838095Y-107657142D01*
X239790476Y-107561904D01*
X239790476Y-106752380D01*
X239361904Y-106847619D02*
X239314285Y-106800000D01*
X239219047Y-106752380D01*
X238980952Y-106752380D01*
X238885714Y-106800000D01*
X238838095Y-106847619D01*
X238790476Y-106942857D01*
X238790476Y-107038095D01*
X238838095Y-107180952D01*
X239409523Y-107752380D01*
X238790476Y-107752380D01*
%TO.C,U1*%
X250033380Y-123830799D02*
X250271476Y-123830799D01*
X250176238Y-123592703D02*
X250271476Y-123830799D01*
X250176238Y-124068894D01*
X250461952Y-123687941D02*
X250271476Y-123830799D01*
X250461952Y-123973656D01*
X250033380Y-123830799D02*
X250271476Y-123830799D01*
X250176238Y-123592703D02*
X250271476Y-123830799D01*
X250176238Y-124068894D01*
X250461952Y-123687941D02*
X250271476Y-123830799D01*
X250461952Y-123973656D01*
%TD*%
%LPC*%
D13*
%TO.C,FID8*%
X232800000Y-107300000D03*
%TD*%
%TO.C,FID7*%
X275500000Y-107400000D03*
%TD*%
%TO.C,FID6*%
X231400000Y-124800000D03*
%TD*%
%TO.C,FID4*%
X275500000Y-129400000D03*
%TD*%
%TO.C,TH1*%
G36*
G01*
X263275000Y-116175000D02*
X262725000Y-116175000D01*
G75*
G02*
X262525000Y-115975000I0J200000D01*
G01*
X262525000Y-115575000D01*
G75*
G02*
X262725000Y-115375000I200000J0D01*
G01*
X263275000Y-115375000D01*
G75*
G02*
X263475000Y-115575000I0J-200000D01*
G01*
X263475000Y-115975000D01*
G75*
G02*
X263275000Y-116175000I-200000J0D01*
G01*
G37*
G36*
G01*
X263275000Y-117825000D02*
X262725000Y-117825000D01*
G75*
G02*
X262525000Y-117625000I0J200000D01*
G01*
X262525000Y-117225000D01*
G75*
G02*
X262725000Y-117025000I200000J0D01*
G01*
X263275000Y-117025000D01*
G75*
G02*
X263475000Y-117225000I0J-200000D01*
G01*
X263475000Y-117625000D01*
G75*
G02*
X263275000Y-117825000I-200000J0D01*
G01*
G37*
%TD*%
%TO.C,R41*%
G36*
G01*
X263275000Y-111575000D02*
X262725000Y-111575000D01*
G75*
G02*
X262525000Y-111375000I0J200000D01*
G01*
X262525000Y-110975000D01*
G75*
G02*
X262725000Y-110775000I200000J0D01*
G01*
X263275000Y-110775000D01*
G75*
G02*
X263475000Y-110975000I0J-200000D01*
G01*
X263475000Y-111375000D01*
G75*
G02*
X263275000Y-111575000I-200000J0D01*
G01*
G37*
G36*
G01*
X263275000Y-113225000D02*
X262725000Y-113225000D01*
G75*
G02*
X262525000Y-113025000I0J200000D01*
G01*
X262525000Y-112625000D01*
G75*
G02*
X262725000Y-112425000I200000J0D01*
G01*
X263275000Y-112425000D01*
G75*
G02*
X263475000Y-112625000I0J-200000D01*
G01*
X263475000Y-113025000D01*
G75*
G02*
X263275000Y-113225000I-200000J0D01*
G01*
G37*
%TD*%
%TO.C,C24*%
G36*
G01*
X260225000Y-124650000D02*
X260225000Y-124150000D01*
G75*
G02*
X260450000Y-123925000I225000J0D01*
G01*
X260900000Y-123925000D01*
G75*
G02*
X261125000Y-124150000I0J-225000D01*
G01*
X261125000Y-124650000D01*
G75*
G02*
X260900000Y-124875000I-225000J0D01*
G01*
X260450000Y-124875000D01*
G75*
G02*
X260225000Y-124650000I0J225000D01*
G01*
G37*
G36*
G01*
X258675000Y-124650000D02*
X258675000Y-124150000D01*
G75*
G02*
X258900000Y-123925000I225000J0D01*
G01*
X259350000Y-123925000D01*
G75*
G02*
X259575000Y-124150000I0J-225000D01*
G01*
X259575000Y-124650000D01*
G75*
G02*
X259350000Y-124875000I-225000J0D01*
G01*
X258900000Y-124875000D01*
G75*
G02*
X258675000Y-124650000I0J225000D01*
G01*
G37*
%TD*%
D14*
%TO.C,U2*%
X238500000Y-109250000D03*
X238500000Y-111150000D03*
X240700000Y-111150000D03*
X240700000Y-110200000D03*
X240700000Y-109250000D03*
%TD*%
D15*
%TO.C,J10*%
X276780000Y-131100000D03*
X274240000Y-131100000D03*
X271700000Y-131100000D03*
X269160000Y-131100000D03*
X266620000Y-131100000D03*
D16*
X264080000Y-131100000D03*
%TD*%
D15*
%TO.C,J9*%
X276780000Y-105700000D03*
X274240000Y-105700000D03*
X271700000Y-105700000D03*
X269160000Y-105700000D03*
X266620000Y-105700000D03*
D16*
X264080000Y-105700000D03*
%TD*%
D15*
%TO.C,J8*%
X276780000Y-109510000D03*
X274240000Y-109510000D03*
X276780000Y-112050000D03*
D16*
X274240000Y-112050000D03*
%TD*%
D15*
%TO.C,J7*%
X276780000Y-117130000D03*
X274240000Y-117130000D03*
X276780000Y-119670000D03*
D16*
X274240000Y-119670000D03*
%TD*%
D15*
%TO.C,J6*%
X276780000Y-124750000D03*
X274240000Y-124750000D03*
X276780000Y-127290000D03*
D16*
X274240000Y-127290000D03*
%TD*%
D17*
%TO.C,U1*%
X247200000Y-118350000D03*
D18*
X251375501Y-121100000D03*
X251375501Y-120600001D03*
X251375501Y-120099999D03*
X251375501Y-119600000D03*
X251375501Y-119100001D03*
X251375501Y-118600000D03*
X251375501Y-118100000D03*
X251375501Y-117599999D03*
X251375501Y-117100000D03*
X251375501Y-116600001D03*
X251375501Y-116099999D03*
X251375501Y-115600000D03*
D19*
X249950000Y-114174499D03*
X249450001Y-114174499D03*
X248949999Y-114174499D03*
X248450000Y-114174499D03*
X247950001Y-114174499D03*
X247450000Y-114174499D03*
X246950000Y-114174499D03*
X246449999Y-114174499D03*
X245950000Y-114174499D03*
X245450001Y-114174499D03*
X244949999Y-114174499D03*
X244450000Y-114174499D03*
D18*
X243024499Y-115600000D03*
X243024499Y-116099999D03*
X243024499Y-116600001D03*
X243024499Y-117100000D03*
X243024499Y-117599999D03*
X243024499Y-118100000D03*
X243024499Y-118600000D03*
X243024499Y-119100001D03*
X243024499Y-119600000D03*
X243024499Y-120099999D03*
X243024499Y-120600001D03*
X243024499Y-121100000D03*
D19*
X244450000Y-122525501D03*
X244949999Y-122525501D03*
X245450001Y-122525501D03*
X245950000Y-122525501D03*
X246449999Y-122525501D03*
X246950000Y-122525501D03*
X247450000Y-122525501D03*
X247950001Y-122525501D03*
X248450000Y-122525501D03*
X248949999Y-122525501D03*
X249450001Y-122525501D03*
X249950000Y-122525501D03*
%TD*%
%TO.C,U5*%
G36*
G01*
X238055000Y-114900000D02*
X237755000Y-114900000D01*
G75*
G02*
X237605000Y-114750000I0J150000D01*
G01*
X237605000Y-113100000D01*
G75*
G02*
X237755000Y-112950000I150000J0D01*
G01*
X238055000Y-112950000D01*
G75*
G02*
X238205000Y-113100000I0J-150000D01*
G01*
X238205000Y-114750000D01*
G75*
G02*
X238055000Y-114900000I-150000J0D01*
G01*
G37*
G36*
G01*
X236785000Y-114900000D02*
X236485000Y-114900000D01*
G75*
G02*
X236335000Y-114750000I0J150000D01*
G01*
X236335000Y-113100000D01*
G75*
G02*
X236485000Y-112950000I150000J0D01*
G01*
X236785000Y-112950000D01*
G75*
G02*
X236935000Y-113100000I0J-150000D01*
G01*
X236935000Y-114750000D01*
G75*
G02*
X236785000Y-114900000I-150000J0D01*
G01*
G37*
G36*
G01*
X235515000Y-114900000D02*
X235215000Y-114900000D01*
G75*
G02*
X235065000Y-114750000I0J150000D01*
G01*
X235065000Y-113100000D01*
G75*
G02*
X235215000Y-112950000I150000J0D01*
G01*
X235515000Y-112950000D01*
G75*
G02*
X235665000Y-113100000I0J-150000D01*
G01*
X235665000Y-114750000D01*
G75*
G02*
X235515000Y-114900000I-150000J0D01*
G01*
G37*
G36*
G01*
X234245000Y-114900000D02*
X233945000Y-114900000D01*
G75*
G02*
X233795000Y-114750000I0J150000D01*
G01*
X233795000Y-113100000D01*
G75*
G02*
X233945000Y-112950000I150000J0D01*
G01*
X234245000Y-112950000D01*
G75*
G02*
X234395000Y-113100000I0J-150000D01*
G01*
X234395000Y-114750000D01*
G75*
G02*
X234245000Y-114900000I-150000J0D01*
G01*
G37*
G36*
G01*
X234245000Y-119850000D02*
X233945000Y-119850000D01*
G75*
G02*
X233795000Y-119700000I0J150000D01*
G01*
X233795000Y-118050000D01*
G75*
G02*
X233945000Y-117900000I150000J0D01*
G01*
X234245000Y-117900000D01*
G75*
G02*
X234395000Y-118050000I0J-150000D01*
G01*
X234395000Y-119700000D01*
G75*
G02*
X234245000Y-119850000I-150000J0D01*
G01*
G37*
G36*
G01*
X235515000Y-119850000D02*
X235215000Y-119850000D01*
G75*
G02*
X235065000Y-119700000I0J150000D01*
G01*
X235065000Y-118050000D01*
G75*
G02*
X235215000Y-117900000I150000J0D01*
G01*
X235515000Y-117900000D01*
G75*
G02*
X235665000Y-118050000I0J-150000D01*
G01*
X235665000Y-119700000D01*
G75*
G02*
X235515000Y-119850000I-150000J0D01*
G01*
G37*
G36*
G01*
X236785000Y-119850000D02*
X236485000Y-119850000D01*
G75*
G02*
X236335000Y-119700000I0J150000D01*
G01*
X236335000Y-118050000D01*
G75*
G02*
X236485000Y-117900000I150000J0D01*
G01*
X236785000Y-117900000D01*
G75*
G02*
X236935000Y-118050000I0J-150000D01*
G01*
X236935000Y-119700000D01*
G75*
G02*
X236785000Y-119850000I-150000J0D01*
G01*
G37*
G36*
G01*
X238055000Y-119850000D02*
X237755000Y-119850000D01*
G75*
G02*
X237605000Y-119700000I0J150000D01*
G01*
X237605000Y-118050000D01*
G75*
G02*
X237755000Y-117900000I150000J0D01*
G01*
X238055000Y-117900000D01*
G75*
G02*
X238205000Y-118050000I0J-150000D01*
G01*
X238205000Y-119700000D01*
G75*
G02*
X238055000Y-119850000I-150000J0D01*
G01*
G37*
%TD*%
%TO.C,R36*%
G36*
G01*
X234075000Y-121125000D02*
X234075000Y-121675000D01*
G75*
G02*
X233875000Y-121875000I-200000J0D01*
G01*
X233475000Y-121875000D01*
G75*
G02*
X233275000Y-121675000I0J200000D01*
G01*
X233275000Y-121125000D01*
G75*
G02*
X233475000Y-120925000I200000J0D01*
G01*
X233875000Y-120925000D01*
G75*
G02*
X234075000Y-121125000I0J-200000D01*
G01*
G37*
G36*
G01*
X235725000Y-121125000D02*
X235725000Y-121675000D01*
G75*
G02*
X235525000Y-121875000I-200000J0D01*
G01*
X235125000Y-121875000D01*
G75*
G02*
X234925000Y-121675000I0J200000D01*
G01*
X234925000Y-121125000D01*
G75*
G02*
X235125000Y-120925000I200000J0D01*
G01*
X235525000Y-120925000D01*
G75*
G02*
X235725000Y-121125000I0J-200000D01*
G01*
G37*
%TD*%
D15*
%TO.C,J5*%
X236140000Y-105700000D03*
X233600000Y-105700000D03*
D16*
X231060000Y-105700000D03*
%TD*%
D15*
%TO.C,J4*%
X241220000Y-131100000D03*
X238680000Y-131100000D03*
X236140000Y-131100000D03*
X233600000Y-131100000D03*
D16*
X231060000Y-131100000D03*
%TD*%
D15*
%TO.C,J3*%
X231060000Y-118400000D03*
X231060000Y-115860000D03*
X231060000Y-113320000D03*
X231060000Y-110780000D03*
D16*
X231060000Y-108240000D03*
%TD*%
D20*
%TO.C,J2*%
X232950000Y-126800000D03*
X232950000Y-122800000D03*
D21*
X230600000Y-127625000D03*
X230600000Y-121975000D03*
%TD*%
D15*
%TO.C,J1*%
X251380000Y-105700000D03*
X248840000Y-105700000D03*
X246300000Y-105700000D03*
X243760000Y-105700000D03*
X241220000Y-105700000D03*
D16*
X238680000Y-105700000D03*
%TD*%
%TO.C,R29*%
G36*
G01*
X245625000Y-108975000D02*
X245625000Y-108425000D01*
G75*
G02*
X245825000Y-108225000I200000J0D01*
G01*
X246225000Y-108225000D01*
G75*
G02*
X246425000Y-108425000I0J-200000D01*
G01*
X246425000Y-108975000D01*
G75*
G02*
X246225000Y-109175000I-200000J0D01*
G01*
X245825000Y-109175000D01*
G75*
G02*
X245625000Y-108975000I0J200000D01*
G01*
G37*
G36*
G01*
X243975000Y-108975000D02*
X243975000Y-108425000D01*
G75*
G02*
X244175000Y-108225000I200000J0D01*
G01*
X244575000Y-108225000D01*
G75*
G02*
X244775000Y-108425000I0J-200000D01*
G01*
X244775000Y-108975000D01*
G75*
G02*
X244575000Y-109175000I-200000J0D01*
G01*
X244175000Y-109175000D01*
G75*
G02*
X243975000Y-108975000I0J200000D01*
G01*
G37*
%TD*%
%TO.C,R28*%
G36*
G01*
X259475000Y-108125000D02*
X259475000Y-108675000D01*
G75*
G02*
X259275000Y-108875000I-200000J0D01*
G01*
X258875000Y-108875000D01*
G75*
G02*
X258675000Y-108675000I0J200000D01*
G01*
X258675000Y-108125000D01*
G75*
G02*
X258875000Y-107925000I200000J0D01*
G01*
X259275000Y-107925000D01*
G75*
G02*
X259475000Y-108125000I0J-200000D01*
G01*
G37*
G36*
G01*
X261125000Y-108125000D02*
X261125000Y-108675000D01*
G75*
G02*
X260925000Y-108875000I-200000J0D01*
G01*
X260525000Y-108875000D01*
G75*
G02*
X260325000Y-108675000I0J200000D01*
G01*
X260325000Y-108125000D01*
G75*
G02*
X260525000Y-107925000I200000J0D01*
G01*
X260925000Y-107925000D01*
G75*
G02*
X261125000Y-108125000I0J-200000D01*
G01*
G37*
%TD*%
%TO.C,R27*%
G36*
G01*
X263275000Y-108575000D02*
X262725000Y-108575000D01*
G75*
G02*
X262525000Y-108375000I0J200000D01*
G01*
X262525000Y-107975000D01*
G75*
G02*
X262725000Y-107775000I200000J0D01*
G01*
X263275000Y-107775000D01*
G75*
G02*
X263475000Y-107975000I0J-200000D01*
G01*
X263475000Y-108375000D01*
G75*
G02*
X263275000Y-108575000I-200000J0D01*
G01*
G37*
G36*
G01*
X263275000Y-110225000D02*
X262725000Y-110225000D01*
G75*
G02*
X262525000Y-110025000I0J200000D01*
G01*
X262525000Y-109625000D01*
G75*
G02*
X262725000Y-109425000I200000J0D01*
G01*
X263275000Y-109425000D01*
G75*
G02*
X263475000Y-109625000I0J-200000D01*
G01*
X263475000Y-110025000D01*
G75*
G02*
X263275000Y-110225000I-200000J0D01*
G01*
G37*
%TD*%
%TO.C,R26*%
G36*
G01*
X259475000Y-120125000D02*
X259475000Y-120675000D01*
G75*
G02*
X259275000Y-120875000I-200000J0D01*
G01*
X258875000Y-120875000D01*
G75*
G02*
X258675000Y-120675000I0J200000D01*
G01*
X258675000Y-120125000D01*
G75*
G02*
X258875000Y-119925000I200000J0D01*
G01*
X259275000Y-119925000D01*
G75*
G02*
X259475000Y-120125000I0J-200000D01*
G01*
G37*
G36*
G01*
X261125000Y-120125000D02*
X261125000Y-120675000D01*
G75*
G02*
X260925000Y-120875000I-200000J0D01*
G01*
X260525000Y-120875000D01*
G75*
G02*
X260325000Y-120675000I0J200000D01*
G01*
X260325000Y-120125000D01*
G75*
G02*
X260525000Y-119925000I200000J0D01*
G01*
X260925000Y-119925000D01*
G75*
G02*
X261125000Y-120125000I0J-200000D01*
G01*
G37*
%TD*%
%TO.C,R25*%
G36*
G01*
X262725000Y-120025000D02*
X263275000Y-120025000D01*
G75*
G02*
X263475000Y-120225000I0J-200000D01*
G01*
X263475000Y-120625000D01*
G75*
G02*
X263275000Y-120825000I-200000J0D01*
G01*
X262725000Y-120825000D01*
G75*
G02*
X262525000Y-120625000I0J200000D01*
G01*
X262525000Y-120225000D01*
G75*
G02*
X262725000Y-120025000I200000J0D01*
G01*
G37*
G36*
G01*
X262725000Y-118375000D02*
X263275000Y-118375000D01*
G75*
G02*
X263475000Y-118575000I0J-200000D01*
G01*
X263475000Y-118975000D01*
G75*
G02*
X263275000Y-119175000I-200000J0D01*
G01*
X262725000Y-119175000D01*
G75*
G02*
X262525000Y-118975000I0J200000D01*
G01*
X262525000Y-118575000D01*
G75*
G02*
X262725000Y-118375000I200000J0D01*
G01*
G37*
%TD*%
%TO.C,R24*%
G36*
G01*
X259475000Y-128125000D02*
X259475000Y-128675000D01*
G75*
G02*
X259275000Y-128875000I-200000J0D01*
G01*
X258875000Y-128875000D01*
G75*
G02*
X258675000Y-128675000I0J200000D01*
G01*
X258675000Y-128125000D01*
G75*
G02*
X258875000Y-127925000I200000J0D01*
G01*
X259275000Y-127925000D01*
G75*
G02*
X259475000Y-128125000I0J-200000D01*
G01*
G37*
G36*
G01*
X261125000Y-128125000D02*
X261125000Y-128675000D01*
G75*
G02*
X260925000Y-128875000I-200000J0D01*
G01*
X260525000Y-128875000D01*
G75*
G02*
X260325000Y-128675000I0J200000D01*
G01*
X260325000Y-128125000D01*
G75*
G02*
X260525000Y-127925000I200000J0D01*
G01*
X260925000Y-127925000D01*
G75*
G02*
X261125000Y-128125000I0J-200000D01*
G01*
G37*
%TD*%
%TO.C,R23*%
G36*
G01*
X262725000Y-126825000D02*
X263275000Y-126825000D01*
G75*
G02*
X263475000Y-127025000I0J-200000D01*
G01*
X263475000Y-127425000D01*
G75*
G02*
X263275000Y-127625000I-200000J0D01*
G01*
X262725000Y-127625000D01*
G75*
G02*
X262525000Y-127425000I0J200000D01*
G01*
X262525000Y-127025000D01*
G75*
G02*
X262725000Y-126825000I200000J0D01*
G01*
G37*
G36*
G01*
X262725000Y-125175000D02*
X263275000Y-125175000D01*
G75*
G02*
X263475000Y-125375000I0J-200000D01*
G01*
X263475000Y-125775000D01*
G75*
G02*
X263275000Y-125975000I-200000J0D01*
G01*
X262725000Y-125975000D01*
G75*
G02*
X262525000Y-125775000I0J200000D01*
G01*
X262525000Y-125375000D01*
G75*
G02*
X262725000Y-125175000I200000J0D01*
G01*
G37*
%TD*%
%TO.C,R22*%
G36*
G01*
X235275000Y-126575000D02*
X235275000Y-127125000D01*
G75*
G02*
X235075000Y-127325000I-200000J0D01*
G01*
X234675000Y-127325000D01*
G75*
G02*
X234475000Y-127125000I0J200000D01*
G01*
X234475000Y-126575000D01*
G75*
G02*
X234675000Y-126375000I200000J0D01*
G01*
X235075000Y-126375000D01*
G75*
G02*
X235275000Y-126575000I0J-200000D01*
G01*
G37*
G36*
G01*
X236925000Y-126575000D02*
X236925000Y-127125000D01*
G75*
G02*
X236725000Y-127325000I-200000J0D01*
G01*
X236325000Y-127325000D01*
G75*
G02*
X236125000Y-127125000I0J200000D01*
G01*
X236125000Y-126575000D01*
G75*
G02*
X236325000Y-126375000I200000J0D01*
G01*
X236725000Y-126375000D01*
G75*
G02*
X236925000Y-126575000I0J-200000D01*
G01*
G37*
%TD*%
%TO.C,R21*%
G36*
G01*
X236125000Y-125525000D02*
X236125000Y-124975000D01*
G75*
G02*
X236325000Y-124775000I200000J0D01*
G01*
X236725000Y-124775000D01*
G75*
G02*
X236925000Y-124975000I0J-200000D01*
G01*
X236925000Y-125525000D01*
G75*
G02*
X236725000Y-125725000I-200000J0D01*
G01*
X236325000Y-125725000D01*
G75*
G02*
X236125000Y-125525000I0J200000D01*
G01*
G37*
G36*
G01*
X234475000Y-125525000D02*
X234475000Y-124975000D01*
G75*
G02*
X234675000Y-124775000I200000J0D01*
G01*
X235075000Y-124775000D01*
G75*
G02*
X235275000Y-124975000I0J-200000D01*
G01*
X235275000Y-125525000D01*
G75*
G02*
X235075000Y-125725000I-200000J0D01*
G01*
X234675000Y-125725000D01*
G75*
G02*
X234475000Y-125525000I0J200000D01*
G01*
G37*
%TD*%
%TO.C,R20*%
G36*
G01*
X238775000Y-126575000D02*
X238775000Y-127125000D01*
G75*
G02*
X238575000Y-127325000I-200000J0D01*
G01*
X238175000Y-127325000D01*
G75*
G02*
X237975000Y-127125000I0J200000D01*
G01*
X237975000Y-126575000D01*
G75*
G02*
X238175000Y-126375000I200000J0D01*
G01*
X238575000Y-126375000D01*
G75*
G02*
X238775000Y-126575000I0J-200000D01*
G01*
G37*
G36*
G01*
X240425000Y-126575000D02*
X240425000Y-127125000D01*
G75*
G02*
X240225000Y-127325000I-200000J0D01*
G01*
X239825000Y-127325000D01*
G75*
G02*
X239625000Y-127125000I0J200000D01*
G01*
X239625000Y-126575000D01*
G75*
G02*
X239825000Y-126375000I200000J0D01*
G01*
X240225000Y-126375000D01*
G75*
G02*
X240425000Y-126575000I0J-200000D01*
G01*
G37*
%TD*%
%TO.C,R19*%
G36*
G01*
X239625000Y-125525000D02*
X239625000Y-124975000D01*
G75*
G02*
X239825000Y-124775000I200000J0D01*
G01*
X240225000Y-124775000D01*
G75*
G02*
X240425000Y-124975000I0J-200000D01*
G01*
X240425000Y-125525000D01*
G75*
G02*
X240225000Y-125725000I-200000J0D01*
G01*
X239825000Y-125725000D01*
G75*
G02*
X239625000Y-125525000I0J200000D01*
G01*
G37*
G36*
G01*
X237975000Y-125525000D02*
X237975000Y-124975000D01*
G75*
G02*
X238175000Y-124775000I200000J0D01*
G01*
X238575000Y-124775000D01*
G75*
G02*
X238775000Y-124975000I0J-200000D01*
G01*
X238775000Y-125525000D01*
G75*
G02*
X238575000Y-125725000I-200000J0D01*
G01*
X238175000Y-125725000D01*
G75*
G02*
X237975000Y-125525000I0J200000D01*
G01*
G37*
%TD*%
%TO.C,R18*%
G36*
G01*
X242275000Y-126575000D02*
X242275000Y-127125000D01*
G75*
G02*
X242075000Y-127325000I-200000J0D01*
G01*
X241675000Y-127325000D01*
G75*
G02*
X241475000Y-127125000I0J200000D01*
G01*
X241475000Y-126575000D01*
G75*
G02*
X241675000Y-126375000I200000J0D01*
G01*
X242075000Y-126375000D01*
G75*
G02*
X242275000Y-126575000I0J-200000D01*
G01*
G37*
G36*
G01*
X243925000Y-126575000D02*
X243925000Y-127125000D01*
G75*
G02*
X243725000Y-127325000I-200000J0D01*
G01*
X243325000Y-127325000D01*
G75*
G02*
X243125000Y-127125000I0J200000D01*
G01*
X243125000Y-126575000D01*
G75*
G02*
X243325000Y-126375000I200000J0D01*
G01*
X243725000Y-126375000D01*
G75*
G02*
X243925000Y-126575000I0J-200000D01*
G01*
G37*
%TD*%
%TO.C,R17*%
G36*
G01*
X243125000Y-125525000D02*
X243125000Y-124975000D01*
G75*
G02*
X243325000Y-124775000I200000J0D01*
G01*
X243725000Y-124775000D01*
G75*
G02*
X243925000Y-124975000I0J-200000D01*
G01*
X243925000Y-125525000D01*
G75*
G02*
X243725000Y-125725000I-200000J0D01*
G01*
X243325000Y-125725000D01*
G75*
G02*
X243125000Y-125525000I0J200000D01*
G01*
G37*
G36*
G01*
X241475000Y-125525000D02*
X241475000Y-124975000D01*
G75*
G02*
X241675000Y-124775000I200000J0D01*
G01*
X242075000Y-124775000D01*
G75*
G02*
X242275000Y-124975000I0J-200000D01*
G01*
X242275000Y-125525000D01*
G75*
G02*
X242075000Y-125725000I-200000J0D01*
G01*
X241675000Y-125725000D01*
G75*
G02*
X241475000Y-125525000I0J200000D01*
G01*
G37*
%TD*%
%TO.C,C31*%
G36*
G01*
X259575000Y-110150000D02*
X259575000Y-110650000D01*
G75*
G02*
X259350000Y-110875000I-225000J0D01*
G01*
X258900000Y-110875000D01*
G75*
G02*
X258675000Y-110650000I0J225000D01*
G01*
X258675000Y-110150000D01*
G75*
G02*
X258900000Y-109925000I225000J0D01*
G01*
X259350000Y-109925000D01*
G75*
G02*
X259575000Y-110150000I0J-225000D01*
G01*
G37*
G36*
G01*
X261125000Y-110150000D02*
X261125000Y-110650000D01*
G75*
G02*
X260900000Y-110875000I-225000J0D01*
G01*
X260450000Y-110875000D01*
G75*
G02*
X260225000Y-110650000I0J225000D01*
G01*
X260225000Y-110150000D01*
G75*
G02*
X260450000Y-109925000I225000J0D01*
G01*
X260900000Y-109925000D01*
G75*
G02*
X261125000Y-110150000I0J-225000D01*
G01*
G37*
%TD*%
%TO.C,C30*%
G36*
G01*
X259575000Y-118150000D02*
X259575000Y-118650000D01*
G75*
G02*
X259350000Y-118875000I-225000J0D01*
G01*
X258900000Y-118875000D01*
G75*
G02*
X258675000Y-118650000I0J225000D01*
G01*
X258675000Y-118150000D01*
G75*
G02*
X258900000Y-117925000I225000J0D01*
G01*
X259350000Y-117925000D01*
G75*
G02*
X259575000Y-118150000I0J-225000D01*
G01*
G37*
G36*
G01*
X261125000Y-118150000D02*
X261125000Y-118650000D01*
G75*
G02*
X260900000Y-118875000I-225000J0D01*
G01*
X260450000Y-118875000D01*
G75*
G02*
X260225000Y-118650000I0J225000D01*
G01*
X260225000Y-118150000D01*
G75*
G02*
X260450000Y-117925000I225000J0D01*
G01*
X260900000Y-117925000D01*
G75*
G02*
X261125000Y-118150000I0J-225000D01*
G01*
G37*
%TD*%
%TO.C,C29*%
G36*
G01*
X259575000Y-126150000D02*
X259575000Y-126650000D01*
G75*
G02*
X259350000Y-126875000I-225000J0D01*
G01*
X258900000Y-126875000D01*
G75*
G02*
X258675000Y-126650000I0J225000D01*
G01*
X258675000Y-126150000D01*
G75*
G02*
X258900000Y-125925000I225000J0D01*
G01*
X259350000Y-125925000D01*
G75*
G02*
X259575000Y-126150000I0J-225000D01*
G01*
G37*
G36*
G01*
X261125000Y-126150000D02*
X261125000Y-126650000D01*
G75*
G02*
X260900000Y-126875000I-225000J0D01*
G01*
X260450000Y-126875000D01*
G75*
G02*
X260225000Y-126650000I0J225000D01*
G01*
X260225000Y-126150000D01*
G75*
G02*
X260450000Y-125925000I225000J0D01*
G01*
X260900000Y-125925000D01*
G75*
G02*
X261125000Y-126150000I0J-225000D01*
G01*
G37*
%TD*%
%TO.C,C28*%
G36*
G01*
X235375000Y-128200000D02*
X235375000Y-128700000D01*
G75*
G02*
X235150000Y-128925000I-225000J0D01*
G01*
X234700000Y-128925000D01*
G75*
G02*
X234475000Y-128700000I0J225000D01*
G01*
X234475000Y-128200000D01*
G75*
G02*
X234700000Y-127975000I225000J0D01*
G01*
X235150000Y-127975000D01*
G75*
G02*
X235375000Y-128200000I0J-225000D01*
G01*
G37*
G36*
G01*
X236925000Y-128200000D02*
X236925000Y-128700000D01*
G75*
G02*
X236700000Y-128925000I-225000J0D01*
G01*
X236250000Y-128925000D01*
G75*
G02*
X236025000Y-128700000I0J225000D01*
G01*
X236025000Y-128200000D01*
G75*
G02*
X236250000Y-127975000I225000J0D01*
G01*
X236700000Y-127975000D01*
G75*
G02*
X236925000Y-128200000I0J-225000D01*
G01*
G37*
%TD*%
%TO.C,C27*%
G36*
G01*
X238875000Y-128200000D02*
X238875000Y-128700000D01*
G75*
G02*
X238650000Y-128925000I-225000J0D01*
G01*
X238200000Y-128925000D01*
G75*
G02*
X237975000Y-128700000I0J225000D01*
G01*
X237975000Y-128200000D01*
G75*
G02*
X238200000Y-127975000I225000J0D01*
G01*
X238650000Y-127975000D01*
G75*
G02*
X238875000Y-128200000I0J-225000D01*
G01*
G37*
G36*
G01*
X240425000Y-128200000D02*
X240425000Y-128700000D01*
G75*
G02*
X240200000Y-128925000I-225000J0D01*
G01*
X239750000Y-128925000D01*
G75*
G02*
X239525000Y-128700000I0J225000D01*
G01*
X239525000Y-128200000D01*
G75*
G02*
X239750000Y-127975000I225000J0D01*
G01*
X240200000Y-127975000D01*
G75*
G02*
X240425000Y-128200000I0J-225000D01*
G01*
G37*
%TD*%
%TO.C,C15*%
G36*
G01*
X242375000Y-128200000D02*
X242375000Y-128700000D01*
G75*
G02*
X242150000Y-128925000I-225000J0D01*
G01*
X241700000Y-128925000D01*
G75*
G02*
X241475000Y-128700000I0J225000D01*
G01*
X241475000Y-128200000D01*
G75*
G02*
X241700000Y-127975000I225000J0D01*
G01*
X242150000Y-127975000D01*
G75*
G02*
X242375000Y-128200000I0J-225000D01*
G01*
G37*
G36*
G01*
X243925000Y-128200000D02*
X243925000Y-128700000D01*
G75*
G02*
X243700000Y-128925000I-225000J0D01*
G01*
X243250000Y-128925000D01*
G75*
G02*
X243025000Y-128700000I0J225000D01*
G01*
X243025000Y-128200000D01*
G75*
G02*
X243250000Y-127975000I225000J0D01*
G01*
X243700000Y-127975000D01*
G75*
G02*
X243925000Y-128200000I0J-225000D01*
G01*
G37*
%TD*%
%TO.C,C21*%
G36*
G01*
X234300000Y-108249999D02*
X234300000Y-109550001D01*
G75*
G02*
X234050001Y-109800000I-249999J0D01*
G01*
X233399999Y-109800000D01*
G75*
G02*
X233150000Y-109550001I0J249999D01*
G01*
X233150000Y-108249999D01*
G75*
G02*
X233399999Y-108000000I249999J0D01*
G01*
X234050001Y-108000000D01*
G75*
G02*
X234300000Y-108249999I0J-249999D01*
G01*
G37*
G36*
G01*
X237250000Y-108249999D02*
X237250000Y-109550001D01*
G75*
G02*
X237000001Y-109800000I-249999J0D01*
G01*
X236349999Y-109800000D01*
G75*
G02*
X236100000Y-109550001I0J249999D01*
G01*
X236100000Y-108249999D01*
G75*
G02*
X236349999Y-108000000I249999J0D01*
G01*
X237000001Y-108000000D01*
G75*
G02*
X237250000Y-108249999I0J-249999D01*
G01*
G37*
%TD*%
%TO.C,C20*%
G36*
G01*
X234300000Y-110649999D02*
X234300000Y-111950001D01*
G75*
G02*
X234050001Y-112200000I-249999J0D01*
G01*
X233399999Y-112200000D01*
G75*
G02*
X233150000Y-111950001I0J249999D01*
G01*
X233150000Y-110649999D01*
G75*
G02*
X233399999Y-110400000I249999J0D01*
G01*
X234050001Y-110400000D01*
G75*
G02*
X234300000Y-110649999I0J-249999D01*
G01*
G37*
G36*
G01*
X237250000Y-110649999D02*
X237250000Y-111950001D01*
G75*
G02*
X237000001Y-112200000I-249999J0D01*
G01*
X236349999Y-112200000D01*
G75*
G02*
X236100000Y-111950001I0J249999D01*
G01*
X236100000Y-110649999D01*
G75*
G02*
X236349999Y-110400000I249999J0D01*
G01*
X237000001Y-110400000D01*
G75*
G02*
X237250000Y-110649999I0J-249999D01*
G01*
G37*
%TD*%
%TO.C,R15*%
G36*
G01*
X246575000Y-130975000D02*
X246575000Y-130425000D01*
G75*
G02*
X246775000Y-130225000I200000J0D01*
G01*
X247175000Y-130225000D01*
G75*
G02*
X247375000Y-130425000I0J-200000D01*
G01*
X247375000Y-130975000D01*
G75*
G02*
X247175000Y-131175000I-200000J0D01*
G01*
X246775000Y-131175000D01*
G75*
G02*
X246575000Y-130975000I0J200000D01*
G01*
G37*
G36*
G01*
X244925000Y-130975000D02*
X244925000Y-130425000D01*
G75*
G02*
X245125000Y-130225000I200000J0D01*
G01*
X245525000Y-130225000D01*
G75*
G02*
X245725000Y-130425000I0J-200000D01*
G01*
X245725000Y-130975000D01*
G75*
G02*
X245525000Y-131175000I-200000J0D01*
G01*
X245125000Y-131175000D01*
G75*
G02*
X244925000Y-130975000I0J200000D01*
G01*
G37*
%TD*%
%TO.C,R14*%
G36*
G01*
X250075000Y-130975000D02*
X250075000Y-130425000D01*
G75*
G02*
X250275000Y-130225000I200000J0D01*
G01*
X250675000Y-130225000D01*
G75*
G02*
X250875000Y-130425000I0J-200000D01*
G01*
X250875000Y-130975000D01*
G75*
G02*
X250675000Y-131175000I-200000J0D01*
G01*
X250275000Y-131175000D01*
G75*
G02*
X250075000Y-130975000I0J200000D01*
G01*
G37*
G36*
G01*
X248425000Y-130975000D02*
X248425000Y-130425000D01*
G75*
G02*
X248625000Y-130225000I200000J0D01*
G01*
X249025000Y-130225000D01*
G75*
G02*
X249225000Y-130425000I0J-200000D01*
G01*
X249225000Y-130975000D01*
G75*
G02*
X249025000Y-131175000I-200000J0D01*
G01*
X248625000Y-131175000D01*
G75*
G02*
X248425000Y-130975000I0J200000D01*
G01*
G37*
%TD*%
%TO.C,R13*%
G36*
G01*
X246575000Y-128975000D02*
X246575000Y-128425000D01*
G75*
G02*
X246775000Y-128225000I200000J0D01*
G01*
X247175000Y-128225000D01*
G75*
G02*
X247375000Y-128425000I0J-200000D01*
G01*
X247375000Y-128975000D01*
G75*
G02*
X247175000Y-129175000I-200000J0D01*
G01*
X246775000Y-129175000D01*
G75*
G02*
X246575000Y-128975000I0J200000D01*
G01*
G37*
G36*
G01*
X244925000Y-128975000D02*
X244925000Y-128425000D01*
G75*
G02*
X245125000Y-128225000I200000J0D01*
G01*
X245525000Y-128225000D01*
G75*
G02*
X245725000Y-128425000I0J-200000D01*
G01*
X245725000Y-128975000D01*
G75*
G02*
X245525000Y-129175000I-200000J0D01*
G01*
X245125000Y-129175000D01*
G75*
G02*
X244925000Y-128975000I0J200000D01*
G01*
G37*
%TD*%
%TO.C,R12*%
G36*
G01*
X255775000Y-112125000D02*
X255775000Y-112675000D01*
G75*
G02*
X255575000Y-112875000I-200000J0D01*
G01*
X255175000Y-112875000D01*
G75*
G02*
X254975000Y-112675000I0J200000D01*
G01*
X254975000Y-112125000D01*
G75*
G02*
X255175000Y-111925000I200000J0D01*
G01*
X255575000Y-111925000D01*
G75*
G02*
X255775000Y-112125000I0J-200000D01*
G01*
G37*
G36*
G01*
X257425000Y-112125000D02*
X257425000Y-112675000D01*
G75*
G02*
X257225000Y-112875000I-200000J0D01*
G01*
X256825000Y-112875000D01*
G75*
G02*
X256625000Y-112675000I0J200000D01*
G01*
X256625000Y-112125000D01*
G75*
G02*
X256825000Y-111925000I200000J0D01*
G01*
X257225000Y-111925000D01*
G75*
G02*
X257425000Y-112125000I0J-200000D01*
G01*
G37*
%TD*%
%TO.C,R11*%
G36*
G01*
X265750000Y-108974999D02*
X265750000Y-111825001D01*
G75*
G02*
X265500001Y-112075000I-249999J0D01*
G01*
X264774999Y-112075000D01*
G75*
G02*
X264525000Y-111825001I0J249999D01*
G01*
X264525000Y-108974999D01*
G75*
G02*
X264774999Y-108725000I249999J0D01*
G01*
X265500001Y-108725000D01*
G75*
G02*
X265750000Y-108974999I0J-249999D01*
G01*
G37*
G36*
G01*
X271675000Y-108974999D02*
X271675000Y-111825001D01*
G75*
G02*
X271425001Y-112075000I-249999J0D01*
G01*
X270699999Y-112075000D01*
G75*
G02*
X270450000Y-111825001I0J249999D01*
G01*
X270450000Y-108974999D01*
G75*
G02*
X270699999Y-108725000I249999J0D01*
G01*
X271425001Y-108725000D01*
G75*
G02*
X271675000Y-108974999I0J-249999D01*
G01*
G37*
%TD*%
%TO.C,R10*%
G36*
G01*
X255775000Y-108125000D02*
X255775000Y-108675000D01*
G75*
G02*
X255575000Y-108875000I-200000J0D01*
G01*
X255175000Y-108875000D01*
G75*
G02*
X254975000Y-108675000I0J200000D01*
G01*
X254975000Y-108125000D01*
G75*
G02*
X255175000Y-107925000I200000J0D01*
G01*
X255575000Y-107925000D01*
G75*
G02*
X255775000Y-108125000I0J-200000D01*
G01*
G37*
G36*
G01*
X257425000Y-108125000D02*
X257425000Y-108675000D01*
G75*
G02*
X257225000Y-108875000I-200000J0D01*
G01*
X256825000Y-108875000D01*
G75*
G02*
X256625000Y-108675000I0J200000D01*
G01*
X256625000Y-108125000D01*
G75*
G02*
X256825000Y-107925000I200000J0D01*
G01*
X257225000Y-107925000D01*
G75*
G02*
X257425000Y-108125000I0J-200000D01*
G01*
G37*
%TD*%
%TO.C,R9*%
G36*
G01*
X255775000Y-110125000D02*
X255775000Y-110675000D01*
G75*
G02*
X255575000Y-110875000I-200000J0D01*
G01*
X255175000Y-110875000D01*
G75*
G02*
X254975000Y-110675000I0J200000D01*
G01*
X254975000Y-110125000D01*
G75*
G02*
X255175000Y-109925000I200000J0D01*
G01*
X255575000Y-109925000D01*
G75*
G02*
X255775000Y-110125000I0J-200000D01*
G01*
G37*
G36*
G01*
X257425000Y-110125000D02*
X257425000Y-110675000D01*
G75*
G02*
X257225000Y-110875000I-200000J0D01*
G01*
X256825000Y-110875000D01*
G75*
G02*
X256625000Y-110675000I0J200000D01*
G01*
X256625000Y-110125000D01*
G75*
G02*
X256825000Y-109925000I200000J0D01*
G01*
X257225000Y-109925000D01*
G75*
G02*
X257425000Y-110125000I0J-200000D01*
G01*
G37*
%TD*%
%TO.C,R8*%
G36*
G01*
X255775000Y-116125000D02*
X255775000Y-116675000D01*
G75*
G02*
X255575000Y-116875000I-200000J0D01*
G01*
X255175000Y-116875000D01*
G75*
G02*
X254975000Y-116675000I0J200000D01*
G01*
X254975000Y-116125000D01*
G75*
G02*
X255175000Y-115925000I200000J0D01*
G01*
X255575000Y-115925000D01*
G75*
G02*
X255775000Y-116125000I0J-200000D01*
G01*
G37*
G36*
G01*
X257425000Y-116125000D02*
X257425000Y-116675000D01*
G75*
G02*
X257225000Y-116875000I-200000J0D01*
G01*
X256825000Y-116875000D01*
G75*
G02*
X256625000Y-116675000I0J200000D01*
G01*
X256625000Y-116125000D01*
G75*
G02*
X256825000Y-115925000I200000J0D01*
G01*
X257225000Y-115925000D01*
G75*
G02*
X257425000Y-116125000I0J-200000D01*
G01*
G37*
%TD*%
%TO.C,R7*%
G36*
G01*
X265787500Y-116974999D02*
X265787500Y-119825001D01*
G75*
G02*
X265537501Y-120075000I-249999J0D01*
G01*
X264812499Y-120075000D01*
G75*
G02*
X264562500Y-119825001I0J249999D01*
G01*
X264562500Y-116974999D01*
G75*
G02*
X264812499Y-116725000I249999J0D01*
G01*
X265537501Y-116725000D01*
G75*
G02*
X265787500Y-116974999I0J-249999D01*
G01*
G37*
G36*
G01*
X271712500Y-116974999D02*
X271712500Y-119825001D01*
G75*
G02*
X271462501Y-120075000I-249999J0D01*
G01*
X270737499Y-120075000D01*
G75*
G02*
X270487500Y-119825001I0J249999D01*
G01*
X270487500Y-116974999D01*
G75*
G02*
X270737499Y-116725000I249999J0D01*
G01*
X271462501Y-116725000D01*
G75*
G02*
X271712500Y-116974999I0J-249999D01*
G01*
G37*
%TD*%
%TO.C,R6*%
G36*
G01*
X255775000Y-120125000D02*
X255775000Y-120675000D01*
G75*
G02*
X255575000Y-120875000I-200000J0D01*
G01*
X255175000Y-120875000D01*
G75*
G02*
X254975000Y-120675000I0J200000D01*
G01*
X254975000Y-120125000D01*
G75*
G02*
X255175000Y-119925000I200000J0D01*
G01*
X255575000Y-119925000D01*
G75*
G02*
X255775000Y-120125000I0J-200000D01*
G01*
G37*
G36*
G01*
X257425000Y-120125000D02*
X257425000Y-120675000D01*
G75*
G02*
X257225000Y-120875000I-200000J0D01*
G01*
X256825000Y-120875000D01*
G75*
G02*
X256625000Y-120675000I0J200000D01*
G01*
X256625000Y-120125000D01*
G75*
G02*
X256825000Y-119925000I200000J0D01*
G01*
X257225000Y-119925000D01*
G75*
G02*
X257425000Y-120125000I0J-200000D01*
G01*
G37*
%TD*%
%TO.C,R5*%
G36*
G01*
X255775000Y-118125000D02*
X255775000Y-118675000D01*
G75*
G02*
X255575000Y-118875000I-200000J0D01*
G01*
X255175000Y-118875000D01*
G75*
G02*
X254975000Y-118675000I0J200000D01*
G01*
X254975000Y-118125000D01*
G75*
G02*
X255175000Y-117925000I200000J0D01*
G01*
X255575000Y-117925000D01*
G75*
G02*
X255775000Y-118125000I0J-200000D01*
G01*
G37*
G36*
G01*
X257425000Y-118125000D02*
X257425000Y-118675000D01*
G75*
G02*
X257225000Y-118875000I-200000J0D01*
G01*
X256825000Y-118875000D01*
G75*
G02*
X256625000Y-118675000I0J200000D01*
G01*
X256625000Y-118125000D01*
G75*
G02*
X256825000Y-117925000I200000J0D01*
G01*
X257225000Y-117925000D01*
G75*
G02*
X257425000Y-118125000I0J-200000D01*
G01*
G37*
%TD*%
%TO.C,R4*%
G36*
G01*
X255775000Y-124125000D02*
X255775000Y-124675000D01*
G75*
G02*
X255575000Y-124875000I-200000J0D01*
G01*
X255175000Y-124875000D01*
G75*
G02*
X254975000Y-124675000I0J200000D01*
G01*
X254975000Y-124125000D01*
G75*
G02*
X255175000Y-123925000I200000J0D01*
G01*
X255575000Y-123925000D01*
G75*
G02*
X255775000Y-124125000I0J-200000D01*
G01*
G37*
G36*
G01*
X257425000Y-124125000D02*
X257425000Y-124675000D01*
G75*
G02*
X257225000Y-124875000I-200000J0D01*
G01*
X256825000Y-124875000D01*
G75*
G02*
X256625000Y-124675000I0J200000D01*
G01*
X256625000Y-124125000D01*
G75*
G02*
X256825000Y-123925000I200000J0D01*
G01*
X257225000Y-123925000D01*
G75*
G02*
X257425000Y-124125000I0J-200000D01*
G01*
G37*
%TD*%
%TO.C,R3*%
G36*
G01*
X265787500Y-124974999D02*
X265787500Y-127825001D01*
G75*
G02*
X265537501Y-128075000I-249999J0D01*
G01*
X264812499Y-128075000D01*
G75*
G02*
X264562500Y-127825001I0J249999D01*
G01*
X264562500Y-124974999D01*
G75*
G02*
X264812499Y-124725000I249999J0D01*
G01*
X265537501Y-124725000D01*
G75*
G02*
X265787500Y-124974999I0J-249999D01*
G01*
G37*
G36*
G01*
X271712500Y-124974999D02*
X271712500Y-127825001D01*
G75*
G02*
X271462501Y-128075000I-249999J0D01*
G01*
X270737499Y-128075000D01*
G75*
G02*
X270487500Y-127825001I0J249999D01*
G01*
X270487500Y-124974999D01*
G75*
G02*
X270737499Y-124725000I249999J0D01*
G01*
X271462501Y-124725000D01*
G75*
G02*
X271712500Y-124974999I0J-249999D01*
G01*
G37*
%TD*%
%TO.C,R2*%
G36*
G01*
X255775000Y-128125000D02*
X255775000Y-128675000D01*
G75*
G02*
X255575000Y-128875000I-200000J0D01*
G01*
X255175000Y-128875000D01*
G75*
G02*
X254975000Y-128675000I0J200000D01*
G01*
X254975000Y-128125000D01*
G75*
G02*
X255175000Y-127925000I200000J0D01*
G01*
X255575000Y-127925000D01*
G75*
G02*
X255775000Y-128125000I0J-200000D01*
G01*
G37*
G36*
G01*
X257425000Y-128125000D02*
X257425000Y-128675000D01*
G75*
G02*
X257225000Y-128875000I-200000J0D01*
G01*
X256825000Y-128875000D01*
G75*
G02*
X256625000Y-128675000I0J200000D01*
G01*
X256625000Y-128125000D01*
G75*
G02*
X256825000Y-127925000I200000J0D01*
G01*
X257225000Y-127925000D01*
G75*
G02*
X257425000Y-128125000I0J-200000D01*
G01*
G37*
%TD*%
%TO.C,R1*%
G36*
G01*
X255775000Y-126125000D02*
X255775000Y-126675000D01*
G75*
G02*
X255575000Y-126875000I-200000J0D01*
G01*
X255175000Y-126875000D01*
G75*
G02*
X254975000Y-126675000I0J200000D01*
G01*
X254975000Y-126125000D01*
G75*
G02*
X255175000Y-125925000I200000J0D01*
G01*
X255575000Y-125925000D01*
G75*
G02*
X255775000Y-126125000I0J-200000D01*
G01*
G37*
G36*
G01*
X257425000Y-126125000D02*
X257425000Y-126675000D01*
G75*
G02*
X257225000Y-126875000I-200000J0D01*
G01*
X256825000Y-126875000D01*
G75*
G02*
X256625000Y-126675000I0J200000D01*
G01*
X256625000Y-126125000D01*
G75*
G02*
X256825000Y-125925000I200000J0D01*
G01*
X257225000Y-125925000D01*
G75*
G02*
X257425000Y-126125000I0J-200000D01*
G01*
G37*
%TD*%
%TO.C,C26*%
G36*
G01*
X260225000Y-112650000D02*
X260225000Y-112150000D01*
G75*
G02*
X260450000Y-111925000I225000J0D01*
G01*
X260900000Y-111925000D01*
G75*
G02*
X261125000Y-112150000I0J-225000D01*
G01*
X261125000Y-112650000D01*
G75*
G02*
X260900000Y-112875000I-225000J0D01*
G01*
X260450000Y-112875000D01*
G75*
G02*
X260225000Y-112650000I0J225000D01*
G01*
G37*
G36*
G01*
X258675000Y-112650000D02*
X258675000Y-112150000D01*
G75*
G02*
X258900000Y-111925000I225000J0D01*
G01*
X259350000Y-111925000D01*
G75*
G02*
X259575000Y-112150000I0J-225000D01*
G01*
X259575000Y-112650000D01*
G75*
G02*
X259350000Y-112875000I-225000J0D01*
G01*
X258900000Y-112875000D01*
G75*
G02*
X258675000Y-112650000I0J225000D01*
G01*
G37*
%TD*%
%TO.C,C25*%
G36*
G01*
X260225000Y-116650000D02*
X260225000Y-116150000D01*
G75*
G02*
X260450000Y-115925000I225000J0D01*
G01*
X260900000Y-115925000D01*
G75*
G02*
X261125000Y-116150000I0J-225000D01*
G01*
X261125000Y-116650000D01*
G75*
G02*
X260900000Y-116875000I-225000J0D01*
G01*
X260450000Y-116875000D01*
G75*
G02*
X260225000Y-116650000I0J225000D01*
G01*
G37*
G36*
G01*
X258675000Y-116650000D02*
X258675000Y-116150000D01*
G75*
G02*
X258900000Y-115925000I225000J0D01*
G01*
X259350000Y-115925000D01*
G75*
G02*
X259575000Y-116150000I0J-225000D01*
G01*
X259575000Y-116650000D01*
G75*
G02*
X259350000Y-116875000I-225000J0D01*
G01*
X258900000Y-116875000D01*
G75*
G02*
X258675000Y-116650000I0J225000D01*
G01*
G37*
%TD*%
%TO.C,C14*%
G36*
G01*
X249450000Y-109075000D02*
X249450000Y-108125000D01*
G75*
G02*
X249700000Y-107875000I250000J0D01*
G01*
X250200000Y-107875000D01*
G75*
G02*
X250450000Y-108125000I0J-250000D01*
G01*
X250450000Y-109075000D01*
G75*
G02*
X250200000Y-109325000I-250000J0D01*
G01*
X249700000Y-109325000D01*
G75*
G02*
X249450000Y-109075000I0J250000D01*
G01*
G37*
G36*
G01*
X247550000Y-109075000D02*
X247550000Y-108125000D01*
G75*
G02*
X247800000Y-107875000I250000J0D01*
G01*
X248300000Y-107875000D01*
G75*
G02*
X248550000Y-108125000I0J-250000D01*
G01*
X248550000Y-109075000D01*
G75*
G02*
X248300000Y-109325000I-250000J0D01*
G01*
X247800000Y-109325000D01*
G75*
G02*
X247550000Y-109075000I0J250000D01*
G01*
G37*
%TD*%
%TO.C,C13*%
G36*
G01*
X242975000Y-109850000D02*
X242025000Y-109850000D01*
G75*
G02*
X241775000Y-109600000I0J250000D01*
G01*
X241775000Y-109100000D01*
G75*
G02*
X242025000Y-108850000I250000J0D01*
G01*
X242975000Y-108850000D01*
G75*
G02*
X243225000Y-109100000I0J-250000D01*
G01*
X243225000Y-109600000D01*
G75*
G02*
X242975000Y-109850000I-250000J0D01*
G01*
G37*
G36*
G01*
X242975000Y-111750000D02*
X242025000Y-111750000D01*
G75*
G02*
X241775000Y-111500000I0J250000D01*
G01*
X241775000Y-111000000D01*
G75*
G02*
X242025000Y-110750000I250000J0D01*
G01*
X242975000Y-110750000D01*
G75*
G02*
X243225000Y-111000000I0J-250000D01*
G01*
X243225000Y-111500000D01*
G75*
G02*
X242975000Y-111750000I-250000J0D01*
G01*
G37*
%TD*%
%TO.C,C12*%
G36*
G01*
X248550000Y-110125000D02*
X248550000Y-111075000D01*
G75*
G02*
X248300000Y-111325000I-250000J0D01*
G01*
X247800000Y-111325000D01*
G75*
G02*
X247550000Y-111075000I0J250000D01*
G01*
X247550000Y-110125000D01*
G75*
G02*
X247800000Y-109875000I250000J0D01*
G01*
X248300000Y-109875000D01*
G75*
G02*
X248550000Y-110125000I0J-250000D01*
G01*
G37*
G36*
G01*
X250450000Y-110125000D02*
X250450000Y-111075000D01*
G75*
G02*
X250200000Y-111325000I-250000J0D01*
G01*
X249700000Y-111325000D01*
G75*
G02*
X249450000Y-111075000I0J250000D01*
G01*
X249450000Y-110125000D01*
G75*
G02*
X249700000Y-109875000I250000J0D01*
G01*
X250200000Y-109875000D01*
G75*
G02*
X250450000Y-110125000I0J-250000D01*
G01*
G37*
%TD*%
%TO.C,C11*%
G36*
G01*
X245525000Y-110700000D02*
X245525000Y-110200000D01*
G75*
G02*
X245750000Y-109975000I225000J0D01*
G01*
X246200000Y-109975000D01*
G75*
G02*
X246425000Y-110200000I0J-225000D01*
G01*
X246425000Y-110700000D01*
G75*
G02*
X246200000Y-110925000I-225000J0D01*
G01*
X245750000Y-110925000D01*
G75*
G02*
X245525000Y-110700000I0J225000D01*
G01*
G37*
G36*
G01*
X243975000Y-110700000D02*
X243975000Y-110200000D01*
G75*
G02*
X244200000Y-109975000I225000J0D01*
G01*
X244650000Y-109975000D01*
G75*
G02*
X244875000Y-110200000I0J-225000D01*
G01*
X244875000Y-110700000D01*
G75*
G02*
X244650000Y-110925000I-225000J0D01*
G01*
X244200000Y-110925000D01*
G75*
G02*
X243975000Y-110700000I0J225000D01*
G01*
G37*
%TD*%
%TO.C,C10*%
G36*
G01*
X254050000Y-110075000D02*
X253550000Y-110075000D01*
G75*
G02*
X253325000Y-109850000I0J225000D01*
G01*
X253325000Y-109400000D01*
G75*
G02*
X253550000Y-109175000I225000J0D01*
G01*
X254050000Y-109175000D01*
G75*
G02*
X254275000Y-109400000I0J-225000D01*
G01*
X254275000Y-109850000D01*
G75*
G02*
X254050000Y-110075000I-225000J0D01*
G01*
G37*
G36*
G01*
X254050000Y-111625000D02*
X253550000Y-111625000D01*
G75*
G02*
X253325000Y-111400000I0J225000D01*
G01*
X253325000Y-110950000D01*
G75*
G02*
X253550000Y-110725000I225000J0D01*
G01*
X254050000Y-110725000D01*
G75*
G02*
X254275000Y-110950000I0J-225000D01*
G01*
X254275000Y-111400000D01*
G75*
G02*
X254050000Y-111625000I-225000J0D01*
G01*
G37*
%TD*%
%TO.C,C9*%
G36*
G01*
X253550000Y-118725000D02*
X254050000Y-118725000D01*
G75*
G02*
X254275000Y-118950000I0J-225000D01*
G01*
X254275000Y-119400000D01*
G75*
G02*
X254050000Y-119625000I-225000J0D01*
G01*
X253550000Y-119625000D01*
G75*
G02*
X253325000Y-119400000I0J225000D01*
G01*
X253325000Y-118950000D01*
G75*
G02*
X253550000Y-118725000I225000J0D01*
G01*
G37*
G36*
G01*
X253550000Y-117175000D02*
X254050000Y-117175000D01*
G75*
G02*
X254275000Y-117400000I0J-225000D01*
G01*
X254275000Y-117850000D01*
G75*
G02*
X254050000Y-118075000I-225000J0D01*
G01*
X253550000Y-118075000D01*
G75*
G02*
X253325000Y-117850000I0J225000D01*
G01*
X253325000Y-117400000D01*
G75*
G02*
X253550000Y-117175000I225000J0D01*
G01*
G37*
%TD*%
%TO.C,C8*%
G36*
G01*
X253550000Y-126725000D02*
X254050000Y-126725000D01*
G75*
G02*
X254275000Y-126950000I0J-225000D01*
G01*
X254275000Y-127400000D01*
G75*
G02*
X254050000Y-127625000I-225000J0D01*
G01*
X253550000Y-127625000D01*
G75*
G02*
X253325000Y-127400000I0J225000D01*
G01*
X253325000Y-126950000D01*
G75*
G02*
X253550000Y-126725000I225000J0D01*
G01*
G37*
G36*
G01*
X253550000Y-125175000D02*
X254050000Y-125175000D01*
G75*
G02*
X254275000Y-125400000I0J-225000D01*
G01*
X254275000Y-125850000D01*
G75*
G02*
X254050000Y-126075000I-225000J0D01*
G01*
X253550000Y-126075000D01*
G75*
G02*
X253325000Y-125850000I0J225000D01*
G01*
X253325000Y-125400000D01*
G75*
G02*
X253550000Y-125175000I225000J0D01*
G01*
G37*
%TD*%
%TO.C,C7*%
G36*
G01*
X237475000Y-121150000D02*
X237475000Y-121650000D01*
G75*
G02*
X237250000Y-121875000I-225000J0D01*
G01*
X236800000Y-121875000D01*
G75*
G02*
X236575000Y-121650000I0J225000D01*
G01*
X236575000Y-121150000D01*
G75*
G02*
X236800000Y-120925000I225000J0D01*
G01*
X237250000Y-120925000D01*
G75*
G02*
X237475000Y-121150000I0J-225000D01*
G01*
G37*
G36*
G01*
X239025000Y-121150000D02*
X239025000Y-121650000D01*
G75*
G02*
X238800000Y-121875000I-225000J0D01*
G01*
X238350000Y-121875000D01*
G75*
G02*
X238125000Y-121650000I0J225000D01*
G01*
X238125000Y-121150000D01*
G75*
G02*
X238350000Y-120925000I225000J0D01*
G01*
X238800000Y-120925000D01*
G75*
G02*
X239025000Y-121150000I0J-225000D01*
G01*
G37*
%TD*%
%TO.C,C6*%
G36*
G01*
X249975000Y-128950000D02*
X249975000Y-128450000D01*
G75*
G02*
X250200000Y-128225000I225000J0D01*
G01*
X250650000Y-128225000D01*
G75*
G02*
X250875000Y-128450000I0J-225000D01*
G01*
X250875000Y-128950000D01*
G75*
G02*
X250650000Y-129175000I-225000J0D01*
G01*
X250200000Y-129175000D01*
G75*
G02*
X249975000Y-128950000I0J225000D01*
G01*
G37*
G36*
G01*
X248425000Y-128950000D02*
X248425000Y-128450000D01*
G75*
G02*
X248650000Y-128225000I225000J0D01*
G01*
X249100000Y-128225000D01*
G75*
G02*
X249325000Y-128450000I0J-225000D01*
G01*
X249325000Y-128950000D01*
G75*
G02*
X249100000Y-129175000I-225000J0D01*
G01*
X248650000Y-129175000D01*
G75*
G02*
X248425000Y-128950000I0J225000D01*
G01*
G37*
%TD*%
%TO.C,C5*%
G36*
G01*
X249350000Y-126225000D02*
X249350000Y-127175000D01*
G75*
G02*
X249100000Y-127425000I-250000J0D01*
G01*
X248600000Y-127425000D01*
G75*
G02*
X248350000Y-127175000I0J250000D01*
G01*
X248350000Y-126225000D01*
G75*
G02*
X248600000Y-125975000I250000J0D01*
G01*
X249100000Y-125975000D01*
G75*
G02*
X249350000Y-126225000I0J-250000D01*
G01*
G37*
G36*
G01*
X251250000Y-126225000D02*
X251250000Y-127175000D01*
G75*
G02*
X251000000Y-127425000I-250000J0D01*
G01*
X250500000Y-127425000D01*
G75*
G02*
X250250000Y-127175000I0J250000D01*
G01*
X250250000Y-126225000D01*
G75*
G02*
X250500000Y-125975000I250000J0D01*
G01*
X251000000Y-125975000D01*
G75*
G02*
X251250000Y-126225000I0J-250000D01*
G01*
G37*
%TD*%
%TO.C,C4*%
G36*
G01*
X246450000Y-127175000D02*
X246450000Y-126225000D01*
G75*
G02*
X246700000Y-125975000I250000J0D01*
G01*
X247200000Y-125975000D01*
G75*
G02*
X247450000Y-126225000I0J-250000D01*
G01*
X247450000Y-127175000D01*
G75*
G02*
X247200000Y-127425000I-250000J0D01*
G01*
X246700000Y-127425000D01*
G75*
G02*
X246450000Y-127175000I0J250000D01*
G01*
G37*
G36*
G01*
X244550000Y-127175000D02*
X244550000Y-126225000D01*
G75*
G02*
X244800000Y-125975000I250000J0D01*
G01*
X245300000Y-125975000D01*
G75*
G02*
X245550000Y-126225000I0J-250000D01*
G01*
X245550000Y-127175000D01*
G75*
G02*
X245300000Y-127425000I-250000J0D01*
G01*
X244800000Y-127425000D01*
G75*
G02*
X244550000Y-127175000I0J250000D01*
G01*
G37*
%TD*%
M02*
