M48
; DRILL file {KiCad (5.1.12)-1} date 04/07/22 02:34:03
; FORMAT={-:-/ absolute / metric / decimal}
; #@! TF.CreationDate,2022-04-07T02:34:03+02:00
; #@! TF.GenerationSoftware,Kicad,Pcbnew,(5.1.12)-1
; #@! TF.FileFunction,Plated,1,4,PTH
FMAT,2
METRIC
T1C0.200
T2C0.500
T3C1.000
%
G90
G05
T1
X234.3Y-117.3
X235.3Y-116.6
X235.8Y-109.2
X235.925Y-117.35
X236.0Y-120.3
X236.7Y-117.275
X236.8Y-122.65
X237.125Y-115.425
X237.5Y-124.9
X237.619Y-122.419
X237.781Y-109.356
X238.425Y-123.75
X238.7Y-107.6
X239.2Y-124.9
X239.562Y-119.062
X239.778Y-112.516
X239.925Y-124.3
X239.957Y-117.8
X239.975Y-120.075
X240.0Y-105.0
X240.147Y-118.595
X240.3Y-107.5
X240.6Y-112.0
X240.788Y-117.729
X241.209Y-119.369
X241.325Y-121.125
X241.598Y-117.38
X241.625Y-118.45
X241.8Y-108.0
X242.044Y-121.956
X242.2Y-129.9
X242.45Y-104.9
X242.6Y-126.5
X242.662Y-114.337
X242.75Y-121.975
X242.8Y-130.3
X242.8Y-131.4
X243.35Y-107.95
X243.4Y-114.4
X243.6Y-122.0
X243.616Y-122.9
X243.75Y-123.625
X243.75Y-113.7
X243.975Y-111.25
X244.125Y-113.01
X244.15Y-120.45
X244.4Y-130.6
X244.5Y-125.3
X245.2Y-109.1
X245.2Y-116.2
X245.2Y-118.2
X245.2Y-120.2
X245.2Y-125.6
X245.375Y-106.825
X246.0Y-126.5
X246.8Y-109.046
X246.975Y-110.931
X247.2Y-116.2
X247.2Y-118.2
X247.2Y-120.2
X247.325Y-106.775
X247.525Y-105.0
X247.666Y-125.449
X247.85Y-132.35
X248.2Y-111.8
X248.291Y-125.129
X248.5Y-109.6
X248.581Y-124.079
X249.0Y-109.1
X249.0Y-110.1
X249.0Y-119.8
X249.068Y-124.794
X249.55Y-107.3
X249.725Y-126.448
X249.8Y-127.3
X249.859Y-125.606
X250.24Y-124.817
X250.525Y-112.8
X250.975Y-122.975
X250.975Y-125.35
X250.975Y-111.2
X251.041Y-114.411
X251.155Y-121.665
X251.375Y-122.35
X251.434Y-124.468
X252.05Y-128.85
X252.392Y-126.783
X252.425Y-114.6
X252.475Y-125.65
X253.6Y-107.5
X253.684Y-123.006
X253.8Y-121.0
X254.0Y-131.6
X254.2Y-114.3
X254.3Y-115.3
X254.4Y-129.2
X254.6Y-107.4
X254.65Y-126.9
X255.0Y-114.4
X255.05Y-122.9
X256.4Y-113.9
X256.4Y-114.9
X256.4Y-121.9
X256.4Y-122.9
X257.0Y-104.902
X257.0Y-106.9
X257.0Y-129.9
X257.0Y-131.9
X257.4Y-114.4
X257.4Y-122.4
X257.5Y-105.9
X257.5Y-130.9
X258.4Y-113.9
X258.4Y-114.9
X258.4Y-121.9
X258.4Y-122.9
X258.5Y-104.9
X258.5Y-106.9
X258.5Y-129.9
X258.5Y-131.9
X259.0Y-105.9
X259.0Y-130.9
X259.4Y-114.4
X259.4Y-122.4
X260.0Y-104.9
X260.0Y-106.9
X260.0Y-129.9
X260.0Y-131.9
X260.4Y-113.9
X260.4Y-114.9
X260.4Y-121.9
X260.4Y-122.9
X260.709Y-127.4
X260.775Y-119.425
X260.823Y-111.745
X261.3Y-113.9
X261.3Y-129.55
X261.481Y-107.081
X261.55Y-132.175
X261.556Y-115.395
X261.675Y-122.15
X261.825Y-114.575
X262.4Y-122.7
X262.65Y-106.35
X262.675Y-107.25
X262.7Y-121.4
X262.7Y-129.2
X263.0Y-113.9
X263.0Y-115.025
X263.0Y-116.8
X263.2Y-121.9
X263.2Y-129.7
X263.3Y-123.7
X263.625Y-107.2
X263.7Y-121.4
X263.7Y-129.2
X264.2Y-121.9
X264.2Y-129.7
X264.4Y-107.6
X264.4Y-115.6
X264.4Y-123.6
X264.7Y-113.4
X264.7Y-121.4
X264.7Y-129.2
X264.9Y-107.1
X264.9Y-115.1
X264.9Y-123.1
X265.2Y-113.9
X265.2Y-121.9
X265.2Y-129.7
X265.4Y-107.6
X265.4Y-115.6
X265.4Y-123.6
X265.7Y-113.4
X265.7Y-121.4
X265.7Y-129.2
X265.9Y-107.1
X265.9Y-115.1
X265.9Y-123.1
X266.2Y-113.9
X266.2Y-121.9
X266.2Y-129.7
X266.4Y-107.6
X266.4Y-115.6
X266.4Y-123.6
X266.7Y-113.4
X266.7Y-121.4
X266.7Y-129.2
X266.9Y-107.1
X266.9Y-115.1
X266.9Y-123.1
X267.2Y-113.9
X267.2Y-121.9
X267.2Y-129.7
X267.4Y-107.6
X267.4Y-115.6
X267.4Y-123.6
X267.7Y-113.4
X267.7Y-121.4
X267.7Y-129.2
X267.9Y-107.1
X267.9Y-115.1
X267.9Y-123.1
X268.2Y-113.9
X268.2Y-121.9
X268.2Y-129.7
X268.4Y-107.6
X268.4Y-115.6
X268.4Y-123.6
X269.0Y-122.5
X269.5Y-115.0
X269.5Y-122.0
X269.5Y-123.0
X270.0Y-114.5
X270.0Y-122.5
X270.5Y-114.0
X270.5Y-115.0
X270.5Y-122.0
X270.5Y-123.0
X271.0Y-114.5
X271.0Y-122.5
X271.5Y-114.0
X271.5Y-115.0
X271.5Y-122.0
X271.5Y-123.0
X272.0Y-114.5
X272.0Y-122.5
X272.5Y-114.0
X272.5Y-115.0
X272.5Y-122.0
X272.5Y-123.0
X273.0Y-114.5
X273.0Y-122.5
X273.5Y-114.0
X273.5Y-115.0
X273.5Y-122.0
X273.5Y-123.0
X274.0Y-114.5
X274.0Y-122.5
X274.5Y-114.0
X274.5Y-115.0
X274.5Y-122.0
X274.5Y-123.0
X275.0Y-114.5
X275.0Y-122.5
T3
X231.06Y-105.7
X231.06Y-108.24
X231.06Y-110.78
X231.06Y-113.32
X231.06Y-115.86
X231.06Y-118.4
X231.06Y-131.1
X233.6Y-105.7
X233.6Y-131.1
X236.14Y-105.7
X236.14Y-131.1
X238.68Y-105.7
X238.68Y-131.1
X241.22Y-105.7
X241.22Y-131.1
X243.76Y-105.7
X246.3Y-105.7
X248.84Y-105.7
X251.38Y-105.7
X264.08Y-105.7
X264.08Y-131.1
X266.62Y-105.7
X266.62Y-131.1
X269.16Y-105.7
X269.16Y-131.1
X271.7Y-105.7
X271.7Y-131.1
X274.24Y-105.7
X274.24Y-109.51
X274.24Y-112.05
X274.24Y-117.13
X274.24Y-119.67
X274.24Y-124.75
X274.24Y-127.29
X274.24Y-131.1
X276.78Y-105.7
X276.78Y-109.51
X276.78Y-112.05
X276.78Y-117.13
X276.78Y-119.67
X276.78Y-124.75
X276.78Y-127.29
X276.78Y-131.1
T2
G00X230.95Y-121.975
M15
G01X230.25Y-121.975
M16
G05
G00X230.95Y-127.625
M15
G01X230.25Y-127.625
M16
G05
T0
M30
