%TF.GenerationSoftware,KiCad,Pcbnew,(6.0.1)*%
%TF.CreationDate,2022-05-20T20:33:31+02:00*%
%TF.ProjectId,xESC2,78455343-322e-46b6-9963-61645f706362,rev?*%
%TF.SameCoordinates,Original*%
%TF.FileFunction,Soldermask,Top*%
%TF.FilePolarity,Negative*%
%FSLAX46Y46*%
G04 Gerber Fmt 4.6, Leading zero omitted, Abs format (unit mm)*
G04 Created by KiCad (PCBNEW (6.0.1)) date 2022-05-20 20:33:31*
%MOMM*%
%LPD*%
G01*
G04 APERTURE LIST*
G04 Aperture macros list*
%AMRoundRect*
0 Rectangle with rounded corners*
0 $1 Rounding radius*
0 $2 $3 $4 $5 $6 $7 $8 $9 X,Y pos of 4 corners*
0 Add a 4 corners polygon primitive as box body*
4,1,4,$2,$3,$4,$5,$6,$7,$8,$9,$2,$3,0*
0 Add four circle primitives for the rounded corners*
1,1,$1+$1,$2,$3*
1,1,$1+$1,$4,$5*
1,1,$1+$1,$6,$7*
1,1,$1+$1,$8,$9*
0 Add four rect primitives between the rounded corners*
20,1,$1+$1,$2,$3,$4,$5,0*
20,1,$1+$1,$4,$5,$6,$7,0*
20,1,$1+$1,$6,$7,$8,$9,0*
20,1,$1+$1,$8,$9,$2,$3,0*%
%AMRotRect*
0 Rectangle, with rotation*
0 The origin of the aperture is its center*
0 $1 length*
0 $2 width*
0 $3 Rotation angle, in degrees counterclockwise*
0 Add horizontal line*
21,1,$1,$2,0,0,$3*%
%AMFreePoly0*
4,1,17,2.675000,1.605000,1.875000,1.605000,1.875000,0.935000,2.675000,0.935000,2.675000,0.335000,1.875000,0.335000,1.875000,-0.335000,2.675000,-0.335000,2.675000,-0.935000,1.875000,-0.935000,1.875000,-1.605000,2.675000,-1.605000,2.675000,-2.205000,-1.875000,-2.205000,-1.875000,2.205000,2.675000,2.205000,2.675000,1.605000,2.675000,1.605000,$1*%
G04 Aperture macros list end*
%ADD10RoundRect,0.200000X0.200000X0.275000X-0.200000X0.275000X-0.200000X-0.275000X0.200000X-0.275000X0*%
%ADD11RoundRect,0.225000X0.250000X-0.225000X0.250000X0.225000X-0.250000X0.225000X-0.250000X-0.225000X0*%
%ADD12RoundRect,0.225000X-0.250000X0.225000X-0.250000X-0.225000X0.250000X-0.225000X0.250000X0.225000X0*%
%ADD13RoundRect,0.225000X-0.225000X-0.250000X0.225000X-0.250000X0.225000X0.250000X-0.225000X0.250000X0*%
%ADD14R,1.700000X1.700000*%
%ADD15O,1.700000X1.700000*%
%ADD16RoundRect,0.218750X-0.256250X0.218750X-0.256250X-0.218750X0.256250X-0.218750X0.256250X0.218750X0*%
%ADD17RoundRect,0.218750X0.218750X0.256250X-0.218750X0.256250X-0.218750X-0.256250X0.218750X-0.256250X0*%
%ADD18RoundRect,0.200000X-0.200000X-0.275000X0.200000X-0.275000X0.200000X0.275000X-0.200000X0.275000X0*%
%ADD19RoundRect,0.225000X0.225000X0.250000X-0.225000X0.250000X-0.225000X-0.250000X0.225000X-0.250000X0*%
%ADD20RoundRect,0.250000X0.650000X-0.325000X0.650000X0.325000X-0.650000X0.325000X-0.650000X-0.325000X0*%
%ADD21FreePoly0,180.000000*%
%ADD22R,0.850000X0.500000*%
%ADD23C,0.600000*%
%ADD24R,1.350000X0.400000*%
%ADD25R,1.600000X2.100000*%
%ADD26R,1.900000X1.900000*%
%ADD27O,1.700000X0.850000*%
%ADD28R,0.900000X1.200000*%
%ADD29FreePoly0,90.000000*%
%ADD30R,0.500000X0.850000*%
%ADD31RoundRect,0.150000X-0.512500X-0.150000X0.512500X-0.150000X0.512500X0.150000X-0.512500X0.150000X0*%
%ADD32RoundRect,0.200000X-0.275000X0.200000X-0.275000X-0.200000X0.275000X-0.200000X0.275000X0.200000X0*%
%ADD33C,1.500000*%
%ADD34RoundRect,0.062500X-0.185616X-0.274004X0.274004X0.185616X0.185616X0.274004X-0.274004X-0.185616X0*%
%ADD35RoundRect,0.062500X0.185616X-0.274004X0.274004X-0.185616X-0.185616X0.274004X-0.274004X0.185616X0*%
%ADD36RotRect,2.450000X2.450000X45.000000*%
%ADD37RoundRect,0.250000X1.425000X-0.362500X1.425000X0.362500X-1.425000X0.362500X-1.425000X-0.362500X0*%
%ADD38R,1.400000X1.200000*%
%ADD39RoundRect,0.125000X0.125000X-0.250000X0.125000X0.250000X-0.125000X0.250000X-0.125000X-0.250000X0*%
%ADD40R,4.300000X3.400000*%
%ADD41RoundRect,0.200000X0.275000X-0.200000X0.275000X0.200000X-0.275000X0.200000X-0.275000X-0.200000X0*%
%ADD42RoundRect,0.088500X0.206500X-0.516500X0.206500X0.516500X-0.206500X0.516500X-0.206500X-0.516500X0*%
%ADD43R,0.177800X0.812800*%
%ADD44R,0.812800X0.177800*%
%ADD45R,3.200400X3.200400*%
G04 APERTURE END LIST*
D10*
%TO.C,R19*%
X255425000Y-118200000D03*
X253775000Y-118200000D03*
%TD*%
%TO.C,R20*%
X255425000Y-126400000D03*
X253775000Y-126400000D03*
%TD*%
%TO.C,R21*%
X251925000Y-118200000D03*
X250275000Y-118200000D03*
%TD*%
%TO.C,R22*%
X255425000Y-124800000D03*
X253775000Y-124800000D03*
%TD*%
D11*
%TO.C,C15*%
X248800000Y-116875000D03*
X248800000Y-115325000D03*
%TD*%
D12*
%TO.C,C11*%
X238400000Y-123525000D03*
X238400000Y-125075000D03*
%TD*%
D13*
%TO.C,C12*%
X243985000Y-113610000D03*
X245535000Y-113610000D03*
%TD*%
D12*
%TO.C,C13*%
X249800000Y-128125000D03*
X249800000Y-129675000D03*
%TD*%
D10*
%TO.C,R16*%
X255425000Y-128000000D03*
X253775000Y-128000000D03*
%TD*%
D12*
%TO.C,C24*%
X235900000Y-126925000D03*
X235900000Y-128475000D03*
%TD*%
D14*
%TO.C,J3*%
X231060000Y-108240000D03*
D15*
X231060000Y-110780000D03*
X231060000Y-113320000D03*
X231060000Y-115860000D03*
X231060000Y-118400000D03*
%TD*%
D16*
%TO.C,D2*%
X251400000Y-128112500D03*
X251400000Y-129687500D03*
%TD*%
D17*
%TO.C,D3*%
X248627500Y-131760000D03*
X247052500Y-131760000D03*
%TD*%
D18*
%TO.C,R10*%
X250115000Y-131760000D03*
X251765000Y-131760000D03*
%TD*%
%TO.C,R11*%
X243915000Y-131760000D03*
X245565000Y-131760000D03*
%TD*%
%TO.C,R7*%
X256975000Y-105100000D03*
X258625000Y-105100000D03*
%TD*%
%TO.C,R8*%
X260175000Y-105100000D03*
X261825000Y-105100000D03*
%TD*%
D19*
%TO.C,C22*%
X255375000Y-119800000D03*
X253825000Y-119800000D03*
%TD*%
%TO.C,C21*%
X255375000Y-116600000D03*
X253825000Y-116600000D03*
%TD*%
%TO.C,C23*%
X255375000Y-121400000D03*
X253825000Y-121400000D03*
%TD*%
D10*
%TO.C,R15*%
X255425000Y-123100000D03*
X253775000Y-123100000D03*
%TD*%
D20*
%TO.C,C18*%
X258200000Y-126075000D03*
X258200000Y-123125000D03*
%TD*%
%TO.C,C26*%
X258200000Y-118875000D03*
X258200000Y-115925000D03*
%TD*%
D21*
%TO.C,Q1*%
X262550000Y-124800000D03*
D22*
X266100000Y-126705000D03*
X266100000Y-125435000D03*
X266100000Y-124165000D03*
X266100000Y-122895000D03*
%TD*%
D21*
%TO.C,Q3*%
X262550000Y-117600000D03*
D22*
X266100000Y-119505000D03*
X266100000Y-118235000D03*
X266100000Y-116965000D03*
X266100000Y-115695000D03*
%TD*%
D21*
%TO.C,Q5*%
X262550000Y-110400000D03*
D22*
X266100000Y-112305000D03*
X266100000Y-111035000D03*
X266100000Y-109765000D03*
X266100000Y-108495000D03*
%TD*%
D23*
%TO.C,J2*%
X232950000Y-126800000D03*
X232950000Y-122800000D03*
D24*
X233275000Y-123500000D03*
X233275000Y-124150000D03*
X233275000Y-124800000D03*
X233275000Y-125450000D03*
X233275000Y-126100000D03*
D25*
X233150000Y-121700000D03*
X233150000Y-127900000D03*
D26*
X230600000Y-123600000D03*
X230600000Y-126000000D03*
D27*
X230600000Y-121975000D03*
X230600000Y-127625000D03*
%TD*%
D28*
%TO.C,D1*%
X243250000Y-124700000D03*
X239950000Y-124700000D03*
%TD*%
D10*
%TO.C,R3*%
X236825000Y-124900000D03*
X235175000Y-124900000D03*
%TD*%
%TO.C,R2*%
X236825000Y-123300000D03*
X235175000Y-123300000D03*
%TD*%
D29*
%TO.C,Q6*%
X269800000Y-110550000D03*
D30*
X267895000Y-114100000D03*
X269165000Y-114100000D03*
X270435000Y-114100000D03*
X271705000Y-114100000D03*
%TD*%
D29*
%TO.C,Q4*%
X269800000Y-117750000D03*
D30*
X267895000Y-121300000D03*
X269165000Y-121300000D03*
X270435000Y-121300000D03*
X271705000Y-121300000D03*
%TD*%
D29*
%TO.C,Q2*%
X269800000Y-124950000D03*
D30*
X267895000Y-128500000D03*
X269165000Y-128500000D03*
X270435000Y-128500000D03*
X271705000Y-128500000D03*
%TD*%
D20*
%TO.C,C27*%
X258200000Y-111675000D03*
X258200000Y-108725000D03*
%TD*%
D13*
%TO.C,C19*%
X246578096Y-126300000D03*
X248128096Y-126300000D03*
%TD*%
D31*
%TO.C,U5*%
X237762500Y-126750000D03*
X237762500Y-127700000D03*
X237762500Y-128650000D03*
X240037500Y-128650000D03*
X240037500Y-126750000D03*
%TD*%
D12*
%TO.C,C14*%
X245000000Y-125025000D03*
X245000000Y-126575000D03*
%TD*%
D32*
%TO.C,R4*%
X237775000Y-107475000D03*
X237775000Y-109125000D03*
%TD*%
%TO.C,R5*%
X239375000Y-107475000D03*
X239375000Y-109125000D03*
%TD*%
D12*
%TO.C,C1*%
X236175000Y-110625000D03*
X236175000Y-112175000D03*
%TD*%
%TO.C,C2*%
X237775000Y-110625000D03*
X237775000Y-112175000D03*
%TD*%
%TO.C,C3*%
X239375000Y-110625000D03*
X239375000Y-112175000D03*
%TD*%
D32*
%TO.C,R6*%
X240975000Y-107475000D03*
X240975000Y-109125000D03*
%TD*%
%TO.C,R1*%
X236175000Y-107475000D03*
X236175000Y-109125000D03*
%TD*%
D12*
%TO.C,C4*%
X240975000Y-110625000D03*
X240975000Y-112175000D03*
%TD*%
D10*
%TO.C,R9*%
X258625000Y-106725000D03*
X256975000Y-106725000D03*
%TD*%
%TO.C,TH1*%
X261825000Y-106725000D03*
X260175000Y-106725000D03*
%TD*%
D33*
%TO.C,FID5*%
X275500000Y-129400000D03*
%TD*%
%TO.C,FID1*%
X275500000Y-107400000D03*
%TD*%
%TO.C,FID2*%
X234900000Y-129800000D03*
%TD*%
%TO.C,FID4*%
X232800000Y-107300000D03*
%TD*%
D34*
%TO.C,U3*%
X247452162Y-122921491D03*
X247805715Y-123275045D03*
X248159269Y-123628598D03*
X248512822Y-123982151D03*
X248866375Y-124335705D03*
X249219929Y-124689258D03*
D35*
X250262911Y-124689258D03*
X250616465Y-124335705D03*
X250970018Y-123982151D03*
X251323571Y-123628598D03*
X251677125Y-123275045D03*
X252030678Y-122921491D03*
D34*
X252030678Y-121878509D03*
X251677125Y-121524955D03*
X251323571Y-121171402D03*
X250970018Y-120817849D03*
X250616465Y-120464295D03*
X250262911Y-120110742D03*
D35*
X249219929Y-120110742D03*
X248866375Y-120464295D03*
X248512822Y-120817849D03*
X248159269Y-121171402D03*
X247805715Y-121524955D03*
X247452162Y-121878509D03*
D36*
X249741420Y-122400000D03*
%TD*%
D37*
%TO.C,R18*%
X254660000Y-114397500D03*
X254660000Y-108472500D03*
%TD*%
D12*
%TO.C,C25*%
X242100000Y-126925000D03*
X242100000Y-128475000D03*
%TD*%
D13*
%TO.C,C20*%
X250325000Y-113400000D03*
X251875000Y-113400000D03*
%TD*%
D38*
%TO.C,Y1*%
X242800000Y-109350000D03*
X245000000Y-109350000D03*
X245000000Y-107650000D03*
X242800000Y-107650000D03*
%TD*%
D39*
%TO.C,U2*%
X233795000Y-119600000D03*
X235065000Y-119600000D03*
X236335000Y-119600000D03*
X237605000Y-119600000D03*
X237605000Y-114200000D03*
X236335000Y-114200000D03*
X235065000Y-114200000D03*
X233795000Y-114200000D03*
D40*
X235700000Y-116900000D03*
%TD*%
D13*
%TO.C,C17*%
X250325000Y-115000000D03*
X251875000Y-115000000D03*
%TD*%
%TO.C,C6*%
X242525000Y-111100000D03*
X244075000Y-111100000D03*
%TD*%
D18*
%TO.C,R17*%
X250275000Y-116600000D03*
X251925000Y-116600000D03*
%TD*%
D13*
%TO.C,C8*%
X249925000Y-126300000D03*
X251475000Y-126300000D03*
%TD*%
D41*
%TO.C,R13*%
X246600000Y-129725000D03*
X246600000Y-128075000D03*
%TD*%
D13*
%TO.C,C7*%
X240945000Y-113610000D03*
X242495000Y-113610000D03*
%TD*%
D18*
%TO.C,R12*%
X245575000Y-111100000D03*
X247225000Y-111100000D03*
%TD*%
D11*
%TO.C,C5*%
X246900000Y-109075000D03*
X246900000Y-107525000D03*
%TD*%
D19*
%TO.C,C16*%
X236775000Y-121700000D03*
X235225000Y-121700000D03*
%TD*%
D14*
%TO.C,J5*%
X256850000Y-131000000D03*
D15*
X254310000Y-131000000D03*
%TD*%
D42*
%TO.C,U4*%
X249350000Y-110985000D03*
X250300000Y-110985000D03*
X251250000Y-110985000D03*
X251250000Y-108475000D03*
X249350000Y-108475000D03*
%TD*%
D32*
%TO.C,R14*%
X245000000Y-128075000D03*
X245000000Y-129725000D03*
%TD*%
D43*
%TO.C,U1*%
X240200000Y-122203599D03*
X240599999Y-122203599D03*
X241000001Y-122203599D03*
X241400000Y-122203599D03*
X241799999Y-122203599D03*
X242200001Y-122203599D03*
X242600000Y-122203599D03*
X243000000Y-122203599D03*
X243399999Y-122203599D03*
X243800001Y-122203599D03*
X244200000Y-122203599D03*
X244599999Y-122203599D03*
X245000001Y-122203599D03*
X245400000Y-122203599D03*
D44*
X246203600Y-121399999D03*
X246203600Y-121000000D03*
X246203600Y-120599998D03*
X246203600Y-120199999D03*
X246203600Y-119800000D03*
X246203600Y-119399998D03*
X246203600Y-118999999D03*
X246203600Y-118599999D03*
X246203600Y-118200000D03*
X246203600Y-117799998D03*
X246203600Y-117399999D03*
X246203600Y-117000000D03*
X246203600Y-116599998D03*
X246203600Y-116199999D03*
D43*
X245400000Y-115396399D03*
X245000001Y-115396399D03*
X244599999Y-115396399D03*
X244200000Y-115396399D03*
X243800001Y-115396399D03*
X243399999Y-115396399D03*
X243000000Y-115396399D03*
X242600000Y-115396399D03*
X242200001Y-115396399D03*
X241799999Y-115396399D03*
X241400000Y-115396399D03*
X241000001Y-115396399D03*
X240599999Y-115396399D03*
X240200000Y-115396399D03*
D44*
X239396400Y-116199999D03*
X239396400Y-116599998D03*
X239396400Y-117000000D03*
X239396400Y-117399999D03*
X239396400Y-117799998D03*
X239396400Y-118200000D03*
X239396400Y-118599999D03*
X239396400Y-118999999D03*
X239396400Y-119399998D03*
X239396400Y-119800000D03*
X239396400Y-120199999D03*
X239396400Y-120599998D03*
X239396400Y-121000000D03*
X239396400Y-121399999D03*
D45*
X242800000Y-118799999D03*
%TD*%
D12*
%TO.C,C9*%
X248200000Y-128125000D03*
X248200000Y-129675000D03*
%TD*%
D19*
%TO.C,C10*%
X248575000Y-113610000D03*
X247025000Y-113610000D03*
%TD*%
D14*
%TO.C,J4*%
X231060000Y-131100000D03*
D15*
X233600000Y-131100000D03*
X236140000Y-131100000D03*
X238680000Y-131100000D03*
X241220000Y-131100000D03*
%TD*%
D14*
%TO.C,J7*%
X264080000Y-105700000D03*
D15*
X266620000Y-105700000D03*
X269160000Y-105700000D03*
X271700000Y-105700000D03*
X274240000Y-105700000D03*
X276780000Y-105700000D03*
%TD*%
D14*
%TO.C,J8*%
X264080000Y-131100000D03*
D15*
X266620000Y-131100000D03*
X269160000Y-131100000D03*
X271700000Y-131100000D03*
X274240000Y-131100000D03*
X276780000Y-131100000D03*
%TD*%
D14*
%TO.C,J10*%
X274240000Y-112050000D03*
D15*
X276780000Y-112050000D03*
X274240000Y-109510000D03*
X276780000Y-109510000D03*
%TD*%
D14*
%TO.C,J9*%
X274240000Y-119670000D03*
D15*
X276780000Y-119670000D03*
X274240000Y-117130000D03*
X276780000Y-117130000D03*
%TD*%
D14*
%TO.C,J6*%
X274240000Y-127290000D03*
D15*
X276780000Y-127290000D03*
X274240000Y-124750000D03*
X276780000Y-124750000D03*
%TD*%
D14*
%TO.C,J1*%
X231050000Y-105700000D03*
D15*
X233590000Y-105700000D03*
X236130000Y-105700000D03*
X238670000Y-105700000D03*
X241210000Y-105700000D03*
X243750000Y-105700000D03*
X246290000Y-105700000D03*
X248830000Y-105700000D03*
X251370000Y-105700000D03*
%TD*%
M02*
